%TF.GenerationSoftware,KiCad,Pcbnew,(6.0.2)*%
%TF.CreationDate,2022-06-19T20:51:39-07:00*%
%TF.ProjectId,peregrine,70657265-6772-4696-9e65-2e6b69636164,5*%
%TF.SameCoordinates,Original*%
%TF.FileFunction,Copper,L4,Bot*%
%TF.FilePolarity,Positive*%
%FSLAX46Y46*%
G04 Gerber Fmt 4.6, Leading zero omitted, Abs format (unit mm)*
G04 Created by KiCad (PCBNEW (6.0.2)) date 2022-06-19 20:51:39*
%MOMM*%
%LPD*%
G01*
G04 APERTURE LIST*
%TA.AperFunction,ComponentPad*%
%ADD10R,1.700000X1.700000*%
%TD*%
%TA.AperFunction,ComponentPad*%
%ADD11O,1.700000X1.700000*%
%TD*%
%TA.AperFunction,SMDPad,CuDef*%
%ADD12R,4.900000X1.600000*%
%TD*%
%TA.AperFunction,ComponentPad*%
%ADD13O,1.500000X4.150000*%
%TD*%
%TA.AperFunction,ComponentPad*%
%ADD14O,3.650000X1.500000*%
%TD*%
%TA.AperFunction,ViaPad*%
%ADD15C,0.800000*%
%TD*%
%TA.AperFunction,Conductor*%
%ADD16C,0.293370*%
%TD*%
%TA.AperFunction,Conductor*%
%ADD17C,0.250000*%
%TD*%
G04 APERTURE END LIST*
D10*
%TO.P,J2,1,Pin_1*%
%TO.N,/peregrineSelector/ExtTrig*%
X119350000Y-101025000D03*
D11*
%TO.P,J2,2,Pin_2*%
%TO.N,GND*%
X119350000Y-98485000D03*
%TD*%
D12*
%TO.P,J3,2,Ext*%
%TO.N,GND*%
X189790000Y-108880000D03*
X189790000Y-100360000D03*
%TD*%
D13*
%TO.P,J1,1*%
%TO.N,+VDC*%
X101010000Y-100920000D03*
D14*
%TO.P,J1,2*%
%TO.N,GND*%
X98010000Y-105620000D03*
D13*
X95010000Y-100920000D03*
%TD*%
D15*
%TO.N,GND*%
X145210000Y-110520000D03*
X105410000Y-103120000D03*
X106610000Y-100820000D03*
X123510000Y-97920000D03*
X124010000Y-98720000D03*
%TO.N,+5V*%
X119310000Y-104120000D03*
X118310000Y-104120000D03*
%TO.N,GND*%
X114410000Y-100320000D03*
X113510000Y-100320000D03*
X130910000Y-99820000D03*
X131610000Y-100320000D03*
%TO.N,Net-(R2-Pad2)*%
X128110000Y-107820000D03*
%TO.N,+5V*%
X106510000Y-95920000D03*
%TO.N,+3V3*%
X115522500Y-99907500D03*
%TO.N,+5V*%
X113010000Y-105220000D03*
X113610000Y-104620000D03*
%TO.N,GND*%
X104010000Y-106620000D03*
X104010000Y-109820000D03*
X106527500Y-106620000D03*
X105527500Y-106620000D03*
X105527500Y-109820000D03*
X106527500Y-109820000D03*
X181510782Y-111100000D03*
X150150000Y-100350000D03*
X150150000Y-94950000D03*
X184900000Y-98700000D03*
X164200000Y-95100000D03*
X174600000Y-96900000D03*
X118410000Y-113960000D03*
X174610782Y-112300000D03*
X171110782Y-112900000D03*
X147210000Y-100620000D03*
X178000000Y-97500000D03*
X167700000Y-95700000D03*
X181500000Y-98100000D03*
X167710782Y-113500000D03*
X188850000Y-100350000D03*
X120210000Y-113960000D03*
X188850000Y-108900000D03*
X150150000Y-102150000D03*
X108150000Y-98125000D03*
X190700000Y-100350000D03*
X171100000Y-96300000D03*
X184910782Y-110500000D03*
X150150000Y-96750000D03*
X165800000Y-99500000D03*
X150150000Y-112450000D03*
X150150000Y-103950000D03*
X164210782Y-114100000D03*
X144010000Y-109620000D03*
X150150000Y-107050000D03*
X178010782Y-111700000D03*
X142170000Y-104731425D03*
X147242500Y-101618925D03*
X164325000Y-108463575D03*
X190700000Y-108900000D03*
X150150000Y-114300000D03*
X130710000Y-113020000D03*
X139943575Y-107431425D03*
X150150000Y-98550000D03*
X150150000Y-110650000D03*
X119310000Y-113960000D03*
%TO.N,+3V3*%
X163325000Y-109263575D03*
X164825000Y-100250000D03*
X150150000Y-108850000D03*
X132950000Y-99525000D03*
X126957011Y-97117989D03*
X127857011Y-97117989D03*
%TO.N,/peregrineSelector/ExtTrig*%
X123962551Y-102212448D03*
X141150000Y-104111425D03*
%TO.N,Net-(R2-Pad2)*%
X129762551Y-110037062D03*
%TO.N,Net-(R4-Pad2)*%
X127737551Y-109662062D03*
X129737551Y-108562062D03*
%TO.N,/peregrinePulser/Trig*%
X162635052Y-103993575D03*
X150050000Y-105611425D03*
%TO.N,Net-(R6-Pad2)*%
X131737551Y-112162062D03*
X129337551Y-113062062D03*
%TD*%
D16*
%TO.N,/peregrineSelector/ExtTrig*%
X141150000Y-104111425D02*
X139251023Y-102212448D01*
X139251023Y-102212448D02*
X123962551Y-102212448D01*
D17*
%TO.N,Net-(R4-Pad2)*%
X128837551Y-108562062D02*
X127737551Y-109662062D01*
X129737551Y-108562062D02*
X128837551Y-108562062D01*
D16*
%TO.N,/peregrinePulser/Trig*%
X152044850Y-114354175D02*
X152044850Y-94968675D01*
X156978550Y-114354175D02*
X156978550Y-94968675D01*
X153031590Y-114354175D02*
X153031590Y-94968675D01*
X151058110Y-105364740D02*
X151058110Y-94968675D01*
X150050000Y-105611425D02*
X150811425Y-105611425D01*
X156485180Y-94968675D02*
X156485180Y-114354175D01*
X154511700Y-94968675D02*
X154511700Y-114354175D01*
X155005070Y-114354175D02*
X155005070Y-94968675D01*
X162389976Y-104238651D02*
X162635052Y-103993575D01*
X159445400Y-94968675D02*
X159445400Y-114354175D01*
X159938770Y-114354175D02*
X159938770Y-94968675D01*
X151551480Y-94968675D02*
X151551480Y-114354175D01*
X158952030Y-114354175D02*
X158952030Y-94968675D01*
X157965290Y-114354175D02*
X157965290Y-94968675D01*
X157471920Y-94968675D02*
X157471920Y-114354175D01*
X158458660Y-94968675D02*
X158458660Y-114354175D01*
X160925510Y-114354175D02*
X160925510Y-107774185D01*
X160432140Y-94968675D02*
X160432140Y-114354175D01*
X152538220Y-94968675D02*
X152538220Y-114354175D01*
X155991810Y-114354175D02*
X155991810Y-94968675D01*
X154018330Y-114354175D02*
X154018330Y-94968675D01*
X153524960Y-94968675D02*
X153524960Y-114354175D01*
X155498440Y-94968675D02*
X155498440Y-114354175D01*
X160925510Y-107774185D02*
G75*
G02*
X162389976Y-104238651I4999998J1D01*
G01*
X157225235Y-94721990D02*
G75*
G03*
X156978550Y-94968675I-1J-246684D01*
G01*
X151798165Y-114600860D02*
G75*
G02*
X151551480Y-114354175I-1J246684D01*
G01*
X153524960Y-94968675D02*
G75*
G03*
X153278275Y-94721990I-246684J1D01*
G01*
X151304795Y-94721990D02*
G75*
G03*
X151058110Y-94968675I-1J-246684D01*
G01*
X159938770Y-114354175D02*
G75*
G02*
X159692085Y-114600860I-246684J-1D01*
G01*
X160185455Y-94721990D02*
G75*
G03*
X159938770Y-94968675I-1J-246684D01*
G01*
X160925510Y-114354175D02*
G75*
G02*
X160678825Y-114600860I-246684J-1D01*
G01*
X152291535Y-94721990D02*
G75*
G03*
X152044850Y-94968675I-1J-246684D01*
G01*
X154511700Y-94968675D02*
G75*
G03*
X154265015Y-94721990I-246684J1D01*
G01*
X157718605Y-114600860D02*
G75*
G02*
X157471920Y-114354175I-1J246684D01*
G01*
X152538220Y-94968675D02*
G75*
G03*
X152291535Y-94721990I-246684J1D01*
G01*
X153278275Y-94721990D02*
G75*
G03*
X153031590Y-94968675I-1J-246684D01*
G01*
X154758385Y-114600860D02*
G75*
G02*
X154511700Y-114354175I-1J246684D01*
G01*
X156731865Y-114600860D02*
G75*
G02*
X156485180Y-114354175I-1J246684D01*
G01*
X160432140Y-94968675D02*
G75*
G03*
X160185455Y-94721990I-246684J1D01*
G01*
X155745125Y-114600860D02*
G75*
G02*
X155498440Y-114354175I-1J246684D01*
G01*
X152784905Y-114600860D02*
G75*
G02*
X152538220Y-114354175I-1J246684D01*
G01*
X159692085Y-114600860D02*
G75*
G02*
X159445400Y-114354175I-1J246684D01*
G01*
X156238495Y-94721990D02*
G75*
G03*
X155991810Y-94968675I-1J-246684D01*
G01*
X153771645Y-114600860D02*
G75*
G02*
X153524960Y-114354175I-1J246684D01*
G01*
X155991810Y-114354175D02*
G75*
G02*
X155745125Y-114600860I-246684J-1D01*
G01*
X153031590Y-114354175D02*
G75*
G02*
X152784905Y-114600860I-246684J-1D01*
G01*
X155498440Y-94968675D02*
G75*
G03*
X155251755Y-94721990I-246684J1D01*
G01*
X152044850Y-114354175D02*
G75*
G02*
X151798165Y-114600860I-246684J-1D01*
G01*
X151058110Y-105364740D02*
G75*
G02*
X150811425Y-105611425I-246684J-1D01*
G01*
X158211975Y-94721990D02*
G75*
G03*
X157965290Y-94968675I-1J-246684D01*
G01*
X155005070Y-114354175D02*
G75*
G02*
X154758385Y-114600860I-246684J-1D01*
G01*
X160678825Y-114600860D02*
G75*
G02*
X160432140Y-114354175I-1J246684D01*
G01*
X151551480Y-94968675D02*
G75*
G03*
X151304795Y-94721990I-246684J1D01*
G01*
X156978550Y-114354175D02*
G75*
G02*
X156731865Y-114600860I-246684J-1D01*
G01*
X159198715Y-94721990D02*
G75*
G03*
X158952030Y-94968675I-1J-246684D01*
G01*
X158458660Y-94968675D02*
G75*
G03*
X158211975Y-94721990I-246684J1D01*
G01*
X154018330Y-114354175D02*
G75*
G02*
X153771645Y-114600860I-246684J-1D01*
G01*
X158952030Y-114354175D02*
G75*
G02*
X158705345Y-114600860I-246684J-1D01*
G01*
X154265015Y-94721990D02*
G75*
G03*
X154018330Y-94968675I-1J-246684D01*
G01*
X157471920Y-94968675D02*
G75*
G03*
X157225235Y-94721990I-246684J1D01*
G01*
X156485180Y-94968675D02*
G75*
G03*
X156238495Y-94721990I-246684J1D01*
G01*
X159445400Y-94968675D02*
G75*
G03*
X159198715Y-94721990I-246684J1D01*
G01*
X158705345Y-114600860D02*
G75*
G02*
X158458660Y-114354175I-1J246684D01*
G01*
X157965290Y-114354175D02*
G75*
G02*
X157718605Y-114600860I-246684J-1D01*
G01*
X155251755Y-94721990D02*
G75*
G03*
X155005070Y-94968675I-1J-246684D01*
G01*
D17*
%TO.N,Net-(R6-Pad2)*%
X129486863Y-113062062D02*
X130136962Y-112411962D01*
X129337551Y-113062062D02*
X129486863Y-113062062D01*
X131737551Y-112162062D02*
X130386862Y-112162062D01*
X130386862Y-112162062D02*
X130136962Y-112411962D01*
%TD*%
%TA.AperFunction,Conductor*%
%TO.N,GND*%
G36*
X188470801Y-105531317D02*
G01*
X192323438Y-105535802D01*
X192391533Y-105555883D01*
X192437963Y-105609593D01*
X192449289Y-105661802D01*
X192449289Y-109689894D01*
X192429287Y-109758015D01*
X192375631Y-109804508D01*
X192344791Y-109814045D01*
X179827336Y-111981754D01*
X179827080Y-111981797D01*
X170890021Y-113485518D01*
X163146195Y-114788469D01*
X163075700Y-114780048D01*
X163020949Y-114734850D01*
X162999289Y-114664216D01*
X162999289Y-113901873D01*
X163019291Y-113833752D01*
X163072947Y-113787259D01*
X163103637Y-113777747D01*
X187322155Y-109553113D01*
X187340000Y-109550000D01*
X187340000Y-105656147D01*
X187360002Y-105588026D01*
X187413658Y-105541533D01*
X187466147Y-105530147D01*
X188470801Y-105531317D01*
G37*
%TD.AperFunction*%
%TD*%
%TA.AperFunction,Conductor*%
%TO.N,GND*%
G36*
X149542121Y-94533577D02*
G01*
X149588614Y-94587233D01*
X149600000Y-94639575D01*
X149600000Y-105168676D01*
X149579998Y-105236797D01*
X149573974Y-105245364D01*
X149525464Y-105308584D01*
X149464956Y-105454663D01*
X149444318Y-105611425D01*
X149464956Y-105768187D01*
X149525464Y-105914266D01*
X149573964Y-105977473D01*
X149599563Y-106043691D01*
X149600000Y-106054174D01*
X149600000Y-108583571D01*
X149590409Y-108631789D01*
X149564956Y-108693238D01*
X149563878Y-108701426D01*
X149561588Y-108718824D01*
X149544318Y-108850000D01*
X149564956Y-109006762D01*
X149568116Y-109014391D01*
X149590409Y-109068211D01*
X149600000Y-109116429D01*
X149600000Y-114587575D01*
X149579998Y-114655696D01*
X149526342Y-114702189D01*
X149474000Y-114713575D01*
X95015838Y-114713575D01*
X95000000Y-114708429D01*
X94987635Y-114712447D01*
X94986853Y-114712217D01*
X94986821Y-114712711D01*
X94760242Y-114697860D01*
X94743902Y-114695709D01*
X94630122Y-114673077D01*
X94516339Y-114650444D01*
X94500425Y-114646180D01*
X94390572Y-114608890D01*
X94280723Y-114571601D01*
X94265496Y-114565294D01*
X94099008Y-114483192D01*
X94057404Y-114462675D01*
X94043137Y-114454438D01*
X93947252Y-114390370D01*
X93850223Y-114325537D01*
X93837147Y-114315504D01*
X93662706Y-114162523D01*
X93651052Y-114150869D01*
X93498071Y-113976428D01*
X93488038Y-113963352D01*
X93359139Y-113770442D01*
X93350898Y-113756168D01*
X93248281Y-113548079D01*
X93241974Y-113532852D01*
X93167396Y-113313153D01*
X93163130Y-113297233D01*
X93117866Y-113069673D01*
X93116864Y-113062062D01*
X128731869Y-113062062D01*
X128752507Y-113218824D01*
X128813015Y-113364903D01*
X128909269Y-113490344D01*
X129034710Y-113586598D01*
X129180789Y-113647106D01*
X129337551Y-113667744D01*
X129345739Y-113666666D01*
X129486125Y-113648184D01*
X129494313Y-113647106D01*
X129640392Y-113586598D01*
X129765833Y-113490344D01*
X129862087Y-113364903D01*
X129922595Y-113218824D01*
X129937050Y-113109024D01*
X129965772Y-113044098D01*
X129972876Y-113036376D01*
X130387261Y-112621990D01*
X130387271Y-112621979D01*
X130484783Y-112524467D01*
X130547095Y-112490441D01*
X130573878Y-112487562D01*
X131168265Y-112487562D01*
X131236386Y-112507564D01*
X131268228Y-112536858D01*
X131309269Y-112590344D01*
X131434710Y-112686598D01*
X131580789Y-112747106D01*
X131737551Y-112767744D01*
X131745739Y-112766666D01*
X131886125Y-112748184D01*
X131894313Y-112747106D01*
X132040392Y-112686598D01*
X132165833Y-112590344D01*
X132262087Y-112464903D01*
X132322595Y-112318824D01*
X132343233Y-112162062D01*
X132322595Y-112005300D01*
X132262087Y-111859221D01*
X132165833Y-111733780D01*
X132040392Y-111637526D01*
X131894313Y-111577018D01*
X131737551Y-111556380D01*
X131580789Y-111577018D01*
X131434710Y-111637526D01*
X131309269Y-111733780D01*
X131304246Y-111740326D01*
X131268228Y-111787266D01*
X131210890Y-111829133D01*
X131168265Y-111836562D01*
X130406572Y-111836562D01*
X130395590Y-111836082D01*
X130369042Y-111833759D01*
X130369040Y-111833759D01*
X130358055Y-111832798D01*
X130321647Y-111842554D01*
X130310920Y-111844932D01*
X130307561Y-111845524D01*
X130273817Y-111851474D01*
X130264272Y-111856985D01*
X130260996Y-111858177D01*
X130257828Y-111859654D01*
X130247178Y-111862508D01*
X130238147Y-111868832D01*
X130216318Y-111884117D01*
X130207047Y-111890023D01*
X130183956Y-111903355D01*
X130174407Y-111908868D01*
X130167321Y-111917313D01*
X130150177Y-111937744D01*
X130142751Y-111945847D01*
X129926934Y-112161664D01*
X129762146Y-112326453D01*
X129636766Y-112451833D01*
X129574454Y-112485859D01*
X129510505Y-112480136D01*
X129509921Y-112482316D01*
X129501942Y-112480178D01*
X129494313Y-112477018D01*
X129337551Y-112456380D01*
X129180789Y-112477018D01*
X129173160Y-112480178D01*
X129162498Y-112484594D01*
X129034710Y-112537526D01*
X128909269Y-112633780D01*
X128813015Y-112759221D01*
X128752507Y-112905300D01*
X128731869Y-113062062D01*
X93116864Y-113062062D01*
X93115715Y-113053333D01*
X93100864Y-112826754D01*
X93101027Y-112826743D01*
X93100957Y-112826467D01*
X93105146Y-112813575D01*
X93100000Y-112797737D01*
X93100000Y-109662062D01*
X127131869Y-109662062D01*
X127152507Y-109818824D01*
X127213015Y-109964903D01*
X127309269Y-110090344D01*
X127434710Y-110186598D01*
X127580789Y-110247106D01*
X127737551Y-110267744D01*
X127745739Y-110266666D01*
X127886125Y-110248184D01*
X127894313Y-110247106D01*
X128040392Y-110186598D01*
X128165833Y-110090344D01*
X128206718Y-110037062D01*
X129156869Y-110037062D01*
X129177507Y-110193824D01*
X129238015Y-110339903D01*
X129334269Y-110465344D01*
X129459710Y-110561598D01*
X129605789Y-110622106D01*
X129762551Y-110642744D01*
X129770739Y-110641666D01*
X129911125Y-110623184D01*
X129919313Y-110622106D01*
X130065392Y-110561598D01*
X130190833Y-110465344D01*
X130287087Y-110339903D01*
X130347595Y-110193824D01*
X130368233Y-110037062D01*
X130347595Y-109880300D01*
X130287087Y-109734221D01*
X130190833Y-109608780D01*
X130065392Y-109512526D01*
X129919313Y-109452018D01*
X129762551Y-109431380D01*
X129605789Y-109452018D01*
X129459710Y-109512526D01*
X129334269Y-109608780D01*
X129238015Y-109734221D01*
X129177507Y-109880300D01*
X129156869Y-110037062D01*
X128206718Y-110037062D01*
X128262087Y-109964903D01*
X128322595Y-109818824D01*
X128343233Y-109662062D01*
X128334433Y-109595219D01*
X128345372Y-109525072D01*
X128370260Y-109489679D01*
X128935472Y-108924467D01*
X128997784Y-108890441D01*
X129024567Y-108887562D01*
X129168265Y-108887562D01*
X129236386Y-108907564D01*
X129268228Y-108936858D01*
X129309269Y-108990344D01*
X129315815Y-108995367D01*
X129330665Y-109006762D01*
X129434710Y-109086598D01*
X129580789Y-109147106D01*
X129737551Y-109167744D01*
X129745739Y-109166666D01*
X129886125Y-109148184D01*
X129894313Y-109147106D01*
X130040392Y-109086598D01*
X130144437Y-109006762D01*
X130159287Y-108995367D01*
X130165833Y-108990344D01*
X130262087Y-108864903D01*
X130322595Y-108718824D01*
X130324886Y-108701426D01*
X130342155Y-108570250D01*
X130343233Y-108562062D01*
X130322595Y-108405300D01*
X130262087Y-108259221D01*
X130165833Y-108133780D01*
X130040392Y-108037526D01*
X129894313Y-107977018D01*
X129737551Y-107956380D01*
X129580789Y-107977018D01*
X129434710Y-108037526D01*
X129309269Y-108133780D01*
X129304246Y-108140326D01*
X129268228Y-108187266D01*
X129210890Y-108229133D01*
X129168265Y-108236562D01*
X128857261Y-108236562D01*
X128846279Y-108236082D01*
X128819731Y-108233759D01*
X128819729Y-108233759D01*
X128808744Y-108232798D01*
X128798092Y-108235652D01*
X128787112Y-108236613D01*
X128786741Y-108232373D01*
X128737519Y-108231260D01*
X128678676Y-108191536D01*
X128650650Y-108126305D01*
X128659332Y-108062979D01*
X128691884Y-107984392D01*
X128691885Y-107984389D01*
X128695044Y-107976762D01*
X128715682Y-107820000D01*
X128695044Y-107663238D01*
X128634536Y-107517159D01*
X128538282Y-107391718D01*
X128412841Y-107295464D01*
X128266762Y-107234956D01*
X128110000Y-107214318D01*
X127953238Y-107234956D01*
X127807159Y-107295464D01*
X127681718Y-107391718D01*
X127585464Y-107517159D01*
X127524956Y-107663238D01*
X127504318Y-107820000D01*
X127524956Y-107976762D01*
X127585464Y-108122841D01*
X127681718Y-108248282D01*
X127807159Y-108344536D01*
X127953238Y-108405044D01*
X128110000Y-108425682D01*
X128206791Y-108412939D01*
X128276938Y-108423878D01*
X128330037Y-108471006D01*
X128349227Y-108539360D01*
X128328416Y-108607238D01*
X128312331Y-108626956D01*
X127909934Y-109029353D01*
X127847622Y-109063379D01*
X127804394Y-109065180D01*
X127737551Y-109056380D01*
X127580789Y-109077018D01*
X127434710Y-109137526D01*
X127309269Y-109233780D01*
X127213015Y-109359221D01*
X127152507Y-109505300D01*
X127131869Y-109662062D01*
X93100000Y-109662062D01*
X93100000Y-105887728D01*
X95701114Y-105887728D01*
X95701166Y-105887973D01*
X95763898Y-106091883D01*
X95768119Y-106102229D01*
X95865971Y-106291814D01*
X95871957Y-106301245D01*
X96001832Y-106470501D01*
X96009393Y-106478724D01*
X96167194Y-106622312D01*
X96176094Y-106629067D01*
X96356815Y-106742434D01*
X96366781Y-106747511D01*
X96564714Y-106827080D01*
X96575429Y-106830315D01*
X96785301Y-106873777D01*
X96794438Y-106874980D01*
X96844990Y-106877895D01*
X96848637Y-106878000D01*
X97737885Y-106878000D01*
X97753124Y-106873525D01*
X97754329Y-106872135D01*
X97756000Y-106864452D01*
X97756000Y-106859885D01*
X98264000Y-106859885D01*
X98268475Y-106875124D01*
X98269865Y-106876329D01*
X98277548Y-106878000D01*
X99139175Y-106878000D01*
X99144770Y-106877751D01*
X99303078Y-106863622D01*
X99314092Y-106861640D01*
X99519860Y-106805349D01*
X99530341Y-106801451D01*
X99722903Y-106709603D01*
X99732516Y-106703918D01*
X99905767Y-106579425D01*
X99914233Y-106572117D01*
X100062692Y-106418918D01*
X100069735Y-106410221D01*
X100188719Y-106233156D01*
X100194105Y-106223358D01*
X100279857Y-106028010D01*
X100283422Y-106017418D01*
X100313624Y-105891616D01*
X100312919Y-105877530D01*
X100304040Y-105874000D01*
X98282115Y-105874000D01*
X98266876Y-105878475D01*
X98265671Y-105879865D01*
X98264000Y-105887548D01*
X98264000Y-106859885D01*
X97756000Y-106859885D01*
X97756000Y-105892115D01*
X97751525Y-105876876D01*
X97750135Y-105875671D01*
X97742452Y-105874000D01*
X95716589Y-105874000D01*
X95702607Y-105878105D01*
X95701114Y-105887728D01*
X93100000Y-105887728D01*
X93100000Y-105348384D01*
X95706376Y-105348384D01*
X95707081Y-105362470D01*
X95715960Y-105366000D01*
X97737885Y-105366000D01*
X97753124Y-105361525D01*
X97754329Y-105360135D01*
X97756000Y-105352452D01*
X97756000Y-105347885D01*
X98264000Y-105347885D01*
X98268475Y-105363124D01*
X98269865Y-105364329D01*
X98277548Y-105366000D01*
X100303411Y-105366000D01*
X100317393Y-105361895D01*
X100318886Y-105352272D01*
X100318834Y-105352027D01*
X100278216Y-105220000D01*
X112404318Y-105220000D01*
X112424956Y-105376762D01*
X112485464Y-105522841D01*
X112581718Y-105648282D01*
X112707159Y-105744536D01*
X112853238Y-105805044D01*
X113010000Y-105825682D01*
X113018188Y-105824604D01*
X113158574Y-105806122D01*
X113166762Y-105805044D01*
X113312841Y-105744536D01*
X113438282Y-105648282D01*
X113534536Y-105522841D01*
X113595044Y-105376762D01*
X113602401Y-105320877D01*
X113631123Y-105255950D01*
X113690388Y-105216858D01*
X113710875Y-105212402D01*
X113766762Y-105205044D01*
X113912841Y-105144536D01*
X114038282Y-105048282D01*
X114134536Y-104922841D01*
X114195044Y-104776762D01*
X114215682Y-104620000D01*
X114195044Y-104463238D01*
X114134536Y-104317159D01*
X114038282Y-104191718D01*
X113944817Y-104120000D01*
X117704318Y-104120000D01*
X117724956Y-104276762D01*
X117785464Y-104422841D01*
X117881718Y-104548282D01*
X118007159Y-104644536D01*
X118153238Y-104705044D01*
X118310000Y-104725682D01*
X118318188Y-104724604D01*
X118458574Y-104706122D01*
X118466762Y-104705044D01*
X118612841Y-104644536D01*
X118733296Y-104552108D01*
X118799517Y-104526508D01*
X118869065Y-104540773D01*
X118886704Y-104552108D01*
X119007159Y-104644536D01*
X119153238Y-104705044D01*
X119310000Y-104725682D01*
X119318188Y-104724604D01*
X119458574Y-104706122D01*
X119466762Y-104705044D01*
X119612841Y-104644536D01*
X119738282Y-104548282D01*
X119834536Y-104422841D01*
X119895044Y-104276762D01*
X119915682Y-104120000D01*
X119895044Y-103963238D01*
X119834536Y-103817159D01*
X119738282Y-103691718D01*
X119612841Y-103595464D01*
X119466762Y-103534956D01*
X119310000Y-103514318D01*
X119153238Y-103534956D01*
X119007159Y-103595464D01*
X119000608Y-103600491D01*
X118886704Y-103687892D01*
X118820483Y-103713492D01*
X118750935Y-103699227D01*
X118733296Y-103687892D01*
X118619392Y-103600491D01*
X118612841Y-103595464D01*
X118466762Y-103534956D01*
X118310000Y-103514318D01*
X118153238Y-103534956D01*
X118007159Y-103595464D01*
X117881718Y-103691718D01*
X117785464Y-103817159D01*
X117724956Y-103963238D01*
X117704318Y-104120000D01*
X113944817Y-104120000D01*
X113912841Y-104095464D01*
X113766762Y-104034956D01*
X113610000Y-104014318D01*
X113453238Y-104034956D01*
X113307159Y-104095464D01*
X113181718Y-104191718D01*
X113085464Y-104317159D01*
X113024956Y-104463238D01*
X113023878Y-104471426D01*
X113023878Y-104471427D01*
X113017599Y-104519122D01*
X112988877Y-104584050D01*
X112929612Y-104623142D01*
X112909125Y-104627598D01*
X112853238Y-104634956D01*
X112707159Y-104695464D01*
X112581718Y-104791718D01*
X112485464Y-104917159D01*
X112424956Y-105063238D01*
X112404318Y-105220000D01*
X100278216Y-105220000D01*
X100256102Y-105148117D01*
X100251881Y-105137771D01*
X100154029Y-104948186D01*
X100148043Y-104938755D01*
X100018168Y-104769499D01*
X100010607Y-104761276D01*
X99852806Y-104617688D01*
X99843906Y-104610933D01*
X99663185Y-104497566D01*
X99653219Y-104492489D01*
X99455286Y-104412920D01*
X99444571Y-104409685D01*
X99234699Y-104366223D01*
X99225562Y-104365020D01*
X99175010Y-104362105D01*
X99171363Y-104362000D01*
X98282115Y-104362000D01*
X98266876Y-104366475D01*
X98265671Y-104367865D01*
X98264000Y-104375548D01*
X98264000Y-105347885D01*
X97756000Y-105347885D01*
X97756000Y-104380115D01*
X97751525Y-104364876D01*
X97750135Y-104363671D01*
X97742452Y-104362000D01*
X96880825Y-104362000D01*
X96875230Y-104362249D01*
X96716922Y-104376378D01*
X96705908Y-104378360D01*
X96500140Y-104434651D01*
X96489659Y-104438549D01*
X96297097Y-104530397D01*
X96287484Y-104536082D01*
X96114233Y-104660575D01*
X96105767Y-104667883D01*
X95957308Y-104821082D01*
X95950265Y-104829779D01*
X95831281Y-105006844D01*
X95825895Y-105016642D01*
X95740143Y-105211990D01*
X95736578Y-105222582D01*
X95706376Y-105348384D01*
X93100000Y-105348384D01*
X93100000Y-102299175D01*
X93752000Y-102299175D01*
X93752249Y-102304770D01*
X93766378Y-102463078D01*
X93768360Y-102474092D01*
X93824651Y-102679860D01*
X93828549Y-102690341D01*
X93920397Y-102882903D01*
X93926082Y-102892516D01*
X94050575Y-103065767D01*
X94057883Y-103074233D01*
X94211082Y-103222692D01*
X94219779Y-103229735D01*
X94396844Y-103348719D01*
X94406642Y-103354105D01*
X94601990Y-103439857D01*
X94612582Y-103443422D01*
X94738384Y-103473624D01*
X94752470Y-103472919D01*
X94756000Y-103464040D01*
X94756000Y-103463411D01*
X95264000Y-103463411D01*
X95268105Y-103477393D01*
X95277728Y-103478886D01*
X95277973Y-103478834D01*
X95481883Y-103416102D01*
X95492229Y-103411881D01*
X95681814Y-103314029D01*
X95691245Y-103308043D01*
X95860501Y-103178168D01*
X95868724Y-103170607D01*
X96012312Y-103012806D01*
X96019067Y-103003906D01*
X96132434Y-102823185D01*
X96137511Y-102813219D01*
X96217080Y-102615286D01*
X96220315Y-102604571D01*
X96263777Y-102394699D01*
X96264980Y-102385562D01*
X96267895Y-102335010D01*
X96268000Y-102331363D01*
X96268000Y-102293259D01*
X100059500Y-102293259D01*
X100074112Y-102437110D01*
X100131856Y-102621373D01*
X100225472Y-102790261D01*
X100351136Y-102936875D01*
X100356178Y-102940786D01*
X100356179Y-102940787D01*
X100498665Y-103051311D01*
X100498668Y-103051313D01*
X100503714Y-103055227D01*
X100676974Y-103140481D01*
X100683144Y-103142088D01*
X100683149Y-103142090D01*
X100857655Y-103187545D01*
X100857658Y-103187545D01*
X100863837Y-103189155D01*
X100947203Y-103193524D01*
X101050290Y-103198927D01*
X101050294Y-103198927D01*
X101056671Y-103199261D01*
X101247599Y-103170386D01*
X101253595Y-103168180D01*
X101422832Y-103105914D01*
X101422836Y-103105912D01*
X101428821Y-103103710D01*
X101592934Y-103001955D01*
X101733235Y-102869279D01*
X101769805Y-102817052D01*
X101840327Y-102716335D01*
X101840328Y-102716334D01*
X101843991Y-102711102D01*
X101920680Y-102533885D01*
X101939625Y-102443201D01*
X101959177Y-102349612D01*
X101959177Y-102349608D01*
X101960168Y-102344867D01*
X101960500Y-102338532D01*
X101960500Y-102212448D01*
X123356869Y-102212448D01*
X123357947Y-102220636D01*
X123373005Y-102335010D01*
X123377507Y-102369210D01*
X123438015Y-102515289D01*
X123534269Y-102640730D01*
X123659710Y-102736984D01*
X123805789Y-102797492D01*
X123962551Y-102818130D01*
X123970739Y-102817052D01*
X124111125Y-102798570D01*
X124119313Y-102797492D01*
X124265392Y-102736984D01*
X124390833Y-102640730D01*
X124395859Y-102634180D01*
X124395862Y-102634177D01*
X124415235Y-102608929D01*
X124472573Y-102567062D01*
X124515197Y-102559633D01*
X139055025Y-102559633D01*
X139123146Y-102579635D01*
X139144120Y-102596538D01*
X140513723Y-103966142D01*
X140547749Y-104028454D01*
X140549550Y-104071683D01*
X140544318Y-104111425D01*
X140564956Y-104268187D01*
X140625464Y-104414266D01*
X140721718Y-104539707D01*
X140847159Y-104635961D01*
X140993238Y-104696469D01*
X141150000Y-104717107D01*
X141158188Y-104716029D01*
X141298574Y-104697547D01*
X141306762Y-104696469D01*
X141452841Y-104635961D01*
X141578282Y-104539707D01*
X141674536Y-104414266D01*
X141735044Y-104268187D01*
X141755682Y-104111425D01*
X141735044Y-103954663D01*
X141674536Y-103808584D01*
X141578282Y-103683143D01*
X141452841Y-103586889D01*
X141306762Y-103526381D01*
X141150000Y-103505743D01*
X141110258Y-103510975D01*
X141040109Y-103500035D01*
X141004717Y-103475148D01*
X139511138Y-101981570D01*
X139503711Y-101973466D01*
X139484718Y-101950831D01*
X139477632Y-101942386D01*
X139468082Y-101936872D01*
X139442506Y-101922105D01*
X139433238Y-101916201D01*
X139409043Y-101899260D01*
X139409040Y-101899258D01*
X139400013Y-101892938D01*
X139389364Y-101890085D01*
X139385318Y-101888198D01*
X139381144Y-101886679D01*
X139371599Y-101881168D01*
X139336494Y-101874978D01*
X139331645Y-101874123D01*
X139320921Y-101871745D01*
X139281749Y-101861249D01*
X139241344Y-101864784D01*
X139230362Y-101865263D01*
X124515197Y-101865263D01*
X124447076Y-101845261D01*
X124415235Y-101815967D01*
X124395862Y-101790719D01*
X124395859Y-101790716D01*
X124390833Y-101784166D01*
X124265392Y-101687912D01*
X124119313Y-101627404D01*
X123962551Y-101606766D01*
X123805789Y-101627404D01*
X123659710Y-101687912D01*
X123534269Y-101784166D01*
X123438015Y-101909607D01*
X123377507Y-102055686D01*
X123356869Y-102212448D01*
X101960500Y-102212448D01*
X101960500Y-99907500D01*
X114916818Y-99907500D01*
X114937456Y-100064262D01*
X114997964Y-100210341D01*
X115094218Y-100335782D01*
X115219659Y-100432036D01*
X115365738Y-100492544D01*
X115522500Y-100513182D01*
X115530688Y-100512104D01*
X115671074Y-100493622D01*
X115679262Y-100492544D01*
X115825341Y-100432036D01*
X115950782Y-100335782D01*
X116047036Y-100210341D01*
X116107544Y-100064262D01*
X116128182Y-99907500D01*
X116107544Y-99750738D01*
X116047036Y-99604659D01*
X115973356Y-99508637D01*
X115955805Y-99485764D01*
X115950782Y-99479218D01*
X115825341Y-99382964D01*
X115679262Y-99322456D01*
X115522500Y-99301818D01*
X115365738Y-99322456D01*
X115219659Y-99382964D01*
X115094218Y-99479218D01*
X115089195Y-99485764D01*
X115071644Y-99508637D01*
X114997964Y-99604659D01*
X114937456Y-99750738D01*
X114916818Y-99907500D01*
X101960500Y-99907500D01*
X101960500Y-99546741D01*
X101945888Y-99402890D01*
X101888144Y-99218627D01*
X101794528Y-99049739D01*
X101668864Y-98903125D01*
X101663821Y-98899213D01*
X101521335Y-98788689D01*
X101521332Y-98788687D01*
X101516286Y-98784773D01*
X101451645Y-98752966D01*
X118018257Y-98752966D01*
X118048565Y-98887446D01*
X118051645Y-98897275D01*
X118131770Y-99094603D01*
X118136413Y-99103794D01*
X118247694Y-99285388D01*
X118253777Y-99293699D01*
X118393213Y-99454667D01*
X118400580Y-99461883D01*
X118564434Y-99597916D01*
X118572881Y-99603831D01*
X118756756Y-99711279D01*
X118766043Y-99715729D01*
X118805484Y-99730790D01*
X118861987Y-99773778D01*
X118886280Y-99840489D01*
X118870650Y-99909743D01*
X118820059Y-99959554D01*
X118760535Y-99974500D01*
X118480252Y-99974500D01*
X118474184Y-99975707D01*
X118433939Y-99983712D01*
X118433938Y-99983712D01*
X118421769Y-99986133D01*
X118355448Y-100030448D01*
X118311133Y-100096769D01*
X118299500Y-100155252D01*
X118299500Y-101894748D01*
X118311133Y-101953231D01*
X118355448Y-102019552D01*
X118421769Y-102063867D01*
X118433938Y-102066288D01*
X118433939Y-102066288D01*
X118474184Y-102074293D01*
X118480252Y-102075500D01*
X120219748Y-102075500D01*
X120225816Y-102074293D01*
X120266061Y-102066288D01*
X120266062Y-102066288D01*
X120278231Y-102063867D01*
X120344552Y-102019552D01*
X120388867Y-101953231D01*
X120400500Y-101894748D01*
X120400500Y-100155252D01*
X120388867Y-100096769D01*
X120344552Y-100030448D01*
X120278231Y-99986133D01*
X120266062Y-99983712D01*
X120266061Y-99983712D01*
X120225816Y-99975707D01*
X120219748Y-99974500D01*
X119940107Y-99974500D01*
X119871986Y-99954498D01*
X119825493Y-99900842D01*
X119815389Y-99830568D01*
X119844883Y-99765988D01*
X119884675Y-99735349D01*
X120043090Y-99657742D01*
X120051945Y-99652464D01*
X120225328Y-99528792D01*
X120229815Y-99525000D01*
X132344318Y-99525000D01*
X132364956Y-99681762D01*
X132425464Y-99827841D01*
X132521718Y-99953282D01*
X132647159Y-100049536D01*
X132793238Y-100110044D01*
X132950000Y-100130682D01*
X132958188Y-100129604D01*
X133098574Y-100111122D01*
X133106762Y-100110044D01*
X133252841Y-100049536D01*
X133378282Y-99953282D01*
X133474536Y-99827841D01*
X133535044Y-99681762D01*
X133555682Y-99525000D01*
X133535044Y-99368238D01*
X133474536Y-99222159D01*
X133378282Y-99096718D01*
X133252841Y-99000464D01*
X133106762Y-98939956D01*
X132950000Y-98919318D01*
X132793238Y-98939956D01*
X132647159Y-99000464D01*
X132521718Y-99096718D01*
X132425464Y-99222159D01*
X132364956Y-99368238D01*
X132344318Y-99525000D01*
X120229815Y-99525000D01*
X120233200Y-99522139D01*
X120384052Y-99371812D01*
X120390730Y-99363965D01*
X120515003Y-99191020D01*
X120520313Y-99182183D01*
X120614670Y-98991267D01*
X120618469Y-98981672D01*
X120680377Y-98777910D01*
X120682555Y-98767837D01*
X120683986Y-98756962D01*
X120681775Y-98742778D01*
X120668617Y-98739000D01*
X118033225Y-98739000D01*
X118019694Y-98742973D01*
X118018257Y-98752966D01*
X101451645Y-98752966D01*
X101343026Y-98699519D01*
X101336856Y-98697912D01*
X101336851Y-98697910D01*
X101162345Y-98652455D01*
X101162342Y-98652455D01*
X101156163Y-98650845D01*
X101072797Y-98646476D01*
X100969710Y-98641073D01*
X100969706Y-98641073D01*
X100963329Y-98640739D01*
X100772401Y-98669614D01*
X100766406Y-98671820D01*
X100766405Y-98671820D01*
X100597168Y-98734086D01*
X100597164Y-98734088D01*
X100591179Y-98736290D01*
X100427066Y-98838045D01*
X100286765Y-98970721D01*
X100283103Y-98975951D01*
X100283102Y-98975952D01*
X100193958Y-99103264D01*
X100176009Y-99128898D01*
X100099320Y-99306115D01*
X100098015Y-99312362D01*
X100068334Y-99454438D01*
X100059832Y-99495133D01*
X100059500Y-99501468D01*
X100059500Y-102293259D01*
X96268000Y-102293259D01*
X96268000Y-101192115D01*
X96263525Y-101176876D01*
X96262135Y-101175671D01*
X96254452Y-101174000D01*
X95282115Y-101174000D01*
X95266876Y-101178475D01*
X95265671Y-101179865D01*
X95264000Y-101187548D01*
X95264000Y-103463411D01*
X94756000Y-103463411D01*
X94756000Y-101192115D01*
X94751525Y-101176876D01*
X94750135Y-101175671D01*
X94742452Y-101174000D01*
X93770115Y-101174000D01*
X93754876Y-101178475D01*
X93753671Y-101179865D01*
X93752000Y-101187548D01*
X93752000Y-102299175D01*
X93100000Y-102299175D01*
X93100000Y-100647885D01*
X93752000Y-100647885D01*
X93756475Y-100663124D01*
X93757865Y-100664329D01*
X93765548Y-100666000D01*
X94737885Y-100666000D01*
X94753124Y-100661525D01*
X94754329Y-100660135D01*
X94756000Y-100652452D01*
X94756000Y-100647885D01*
X95264000Y-100647885D01*
X95268475Y-100663124D01*
X95269865Y-100664329D01*
X95277548Y-100666000D01*
X96249885Y-100666000D01*
X96265124Y-100661525D01*
X96266329Y-100660135D01*
X96268000Y-100652452D01*
X96268000Y-99540825D01*
X96267751Y-99535230D01*
X96253622Y-99376922D01*
X96251640Y-99365908D01*
X96195349Y-99160140D01*
X96191451Y-99149659D01*
X96099603Y-98957097D01*
X96093918Y-98947484D01*
X95969425Y-98774233D01*
X95962117Y-98765767D01*
X95808918Y-98617308D01*
X95800221Y-98610265D01*
X95623156Y-98491281D01*
X95613358Y-98485895D01*
X95418010Y-98400143D01*
X95407418Y-98396578D01*
X95281616Y-98366376D01*
X95267530Y-98367081D01*
X95264000Y-98375960D01*
X95264000Y-100647885D01*
X94756000Y-100647885D01*
X94756000Y-98376589D01*
X94751895Y-98362607D01*
X94742272Y-98361114D01*
X94742027Y-98361166D01*
X94538117Y-98423898D01*
X94527771Y-98428119D01*
X94338186Y-98525971D01*
X94328755Y-98531957D01*
X94159499Y-98661832D01*
X94151276Y-98669393D01*
X94007688Y-98827194D01*
X94000933Y-98836094D01*
X93887566Y-99016815D01*
X93882489Y-99026781D01*
X93802920Y-99224714D01*
X93799685Y-99235429D01*
X93756223Y-99445301D01*
X93755020Y-99454438D01*
X93752105Y-99504990D01*
X93752000Y-99508637D01*
X93752000Y-100647885D01*
X93100000Y-100647885D01*
X93100000Y-98219183D01*
X118014389Y-98219183D01*
X118015912Y-98227607D01*
X118028292Y-98231000D01*
X119077885Y-98231000D01*
X119093124Y-98226525D01*
X119094329Y-98225135D01*
X119096000Y-98217452D01*
X119096000Y-98212885D01*
X119604000Y-98212885D01*
X119608475Y-98228124D01*
X119609865Y-98229329D01*
X119617548Y-98231000D01*
X120668344Y-98231000D01*
X120681875Y-98227027D01*
X120683180Y-98217947D01*
X120641214Y-98050875D01*
X120637894Y-98041124D01*
X120552972Y-97845814D01*
X120548105Y-97836739D01*
X120432426Y-97657926D01*
X120426136Y-97649757D01*
X120282806Y-97492240D01*
X120275273Y-97485215D01*
X120108139Y-97353222D01*
X120099552Y-97347517D01*
X119913117Y-97244599D01*
X119903705Y-97240369D01*
X119702959Y-97169280D01*
X119692988Y-97166646D01*
X119621837Y-97153972D01*
X119608540Y-97155432D01*
X119604000Y-97169989D01*
X119604000Y-98212885D01*
X119096000Y-98212885D01*
X119096000Y-97168102D01*
X119092082Y-97154758D01*
X119077806Y-97152771D01*
X119039324Y-97158660D01*
X119029288Y-97161051D01*
X118826868Y-97227212D01*
X118817359Y-97231209D01*
X118628463Y-97329542D01*
X118619738Y-97335036D01*
X118449433Y-97462905D01*
X118441726Y-97469748D01*
X118294590Y-97623717D01*
X118288104Y-97631727D01*
X118168098Y-97807649D01*
X118163000Y-97816623D01*
X118073338Y-98009783D01*
X118069775Y-98019470D01*
X118014389Y-98219183D01*
X93100000Y-98219183D01*
X93100000Y-97117989D01*
X126351329Y-97117989D01*
X126371967Y-97274751D01*
X126432475Y-97420830D01*
X126528729Y-97546271D01*
X126654170Y-97642525D01*
X126800249Y-97703033D01*
X126957011Y-97723671D01*
X126965199Y-97722593D01*
X127105585Y-97704111D01*
X127113773Y-97703033D01*
X127259852Y-97642525D01*
X127330307Y-97588463D01*
X127396527Y-97562863D01*
X127466076Y-97577128D01*
X127483714Y-97588462D01*
X127554170Y-97642525D01*
X127700249Y-97703033D01*
X127857011Y-97723671D01*
X127865199Y-97722593D01*
X128005585Y-97704111D01*
X128013773Y-97703033D01*
X128159852Y-97642525D01*
X128285293Y-97546271D01*
X128381547Y-97420830D01*
X128442055Y-97274751D01*
X128462693Y-97117989D01*
X128442055Y-96961227D01*
X128381547Y-96815148D01*
X128285293Y-96689707D01*
X128159852Y-96593453D01*
X128013773Y-96532945D01*
X127950417Y-96524604D01*
X127865199Y-96513385D01*
X127857011Y-96512307D01*
X127848823Y-96513385D01*
X127763606Y-96524604D01*
X127700249Y-96532945D01*
X127554170Y-96593453D01*
X127547619Y-96598480D01*
X127483715Y-96647515D01*
X127417495Y-96673115D01*
X127347946Y-96658850D01*
X127330307Y-96647515D01*
X127266403Y-96598480D01*
X127259852Y-96593453D01*
X127113773Y-96532945D01*
X127050417Y-96524604D01*
X126965199Y-96513385D01*
X126957011Y-96512307D01*
X126948823Y-96513385D01*
X126863606Y-96524604D01*
X126800249Y-96532945D01*
X126654170Y-96593453D01*
X126528729Y-96689707D01*
X126432475Y-96815148D01*
X126371967Y-96961227D01*
X126351329Y-97117989D01*
X93100000Y-97117989D01*
X93100000Y-96429413D01*
X93105146Y-96413575D01*
X93101128Y-96401210D01*
X93101358Y-96400428D01*
X93100864Y-96400396D01*
X93115715Y-96173817D01*
X93117866Y-96157477D01*
X93163130Y-95929917D01*
X93165787Y-95920000D01*
X105904318Y-95920000D01*
X105924956Y-96076762D01*
X105985464Y-96222841D01*
X106081718Y-96348282D01*
X106207159Y-96444536D01*
X106353238Y-96505044D01*
X106361426Y-96506122D01*
X106431619Y-96515363D01*
X106510000Y-96525682D01*
X106518188Y-96524604D01*
X106658574Y-96506122D01*
X106666762Y-96505044D01*
X106812841Y-96444536D01*
X106938282Y-96348282D01*
X107034536Y-96222841D01*
X107095044Y-96076762D01*
X107115682Y-95920000D01*
X107095044Y-95763238D01*
X107034536Y-95617159D01*
X106938282Y-95491718D01*
X106812841Y-95395464D01*
X106666762Y-95334956D01*
X106510000Y-95314318D01*
X106353238Y-95334956D01*
X106207159Y-95395464D01*
X106081718Y-95491718D01*
X105985464Y-95617159D01*
X105924956Y-95763238D01*
X105904318Y-95920000D01*
X93165787Y-95920000D01*
X93167396Y-95913997D01*
X93241974Y-95694298D01*
X93248281Y-95679071D01*
X93340672Y-95491718D01*
X93350900Y-95470979D01*
X93359139Y-95456708D01*
X93488038Y-95263798D01*
X93498071Y-95250722D01*
X93651052Y-95076281D01*
X93662706Y-95064627D01*
X93837147Y-94911646D01*
X93850223Y-94901613D01*
X93947252Y-94836780D01*
X94043137Y-94772712D01*
X94057404Y-94764475D01*
X94163953Y-94711931D01*
X94265496Y-94661856D01*
X94280723Y-94655549D01*
X94481975Y-94587233D01*
X94500425Y-94580970D01*
X94516339Y-94576706D01*
X94733163Y-94533577D01*
X94743902Y-94531441D01*
X94760242Y-94529290D01*
X94986821Y-94514439D01*
X94986832Y-94514602D01*
X94987108Y-94514532D01*
X95000000Y-94518721D01*
X95015838Y-94513575D01*
X149474000Y-94513575D01*
X149542121Y-94533577D01*
G37*
%TD.AperFunction*%
%TD*%
%TA.AperFunction,Conductor*%
%TO.N,GND*%
G36*
X186196140Y-98316990D02*
G01*
X186196645Y-98317076D01*
X192345501Y-99381903D01*
X192409209Y-99413235D01*
X192445864Y-99474037D01*
X192450000Y-99506055D01*
X192450000Y-103584000D01*
X192429998Y-103652121D01*
X192376342Y-103698614D01*
X192324000Y-103710000D01*
X187466000Y-103710000D01*
X187397879Y-103689998D01*
X187351386Y-103636342D01*
X187340000Y-103584000D01*
X187340000Y-99650000D01*
X163104325Y-95418216D01*
X163040662Y-95386796D01*
X163004091Y-95325943D01*
X163000000Y-95294095D01*
X163000000Y-94563053D01*
X163020002Y-94494932D01*
X163073658Y-94448439D01*
X163146905Y-94438800D01*
X186196140Y-98316990D01*
G37*
%TD.AperFunction*%
%TD*%
M02*
