%TF.GenerationSoftware,KiCad,Pcbnew,(6.0.2)*%
%TF.CreationDate,2022-06-19T20:51:39-07:00*%
%TF.ProjectId,peregrine,70657265-6772-4696-9e65-2e6b69636164,5*%
%TF.SameCoordinates,Original*%
%TF.FileFunction,Copper,L2,Inr*%
%TF.FilePolarity,Positive*%
%FSLAX46Y46*%
G04 Gerber Fmt 4.6, Leading zero omitted, Abs format (unit mm)*
G04 Created by KiCad (PCBNEW (6.0.2)) date 2022-06-19 20:51:39*
%MOMM*%
%LPD*%
G01*
G04 APERTURE LIST*
%TA.AperFunction,ComponentPad*%
%ADD10R,1.700000X1.700000*%
%TD*%
%TA.AperFunction,ComponentPad*%
%ADD11O,1.700000X1.700000*%
%TD*%
%TA.AperFunction,ComponentPad*%
%ADD12O,1.500000X4.150000*%
%TD*%
%TA.AperFunction,ComponentPad*%
%ADD13O,3.650000X1.500000*%
%TD*%
%TA.AperFunction,ViaPad*%
%ADD14C,0.800000*%
%TD*%
%TA.AperFunction,Conductor*%
%ADD15C,0.635000*%
%TD*%
%TA.AperFunction,Conductor*%
%ADD16C,0.293370*%
%TD*%
%TA.AperFunction,Conductor*%
%ADD17C,0.250000*%
%TD*%
G04 APERTURE END LIST*
D10*
%TO.N,/peregrineSelector/ExtTrig*%
%TO.C,J2*%
X119350000Y-101025000D03*
D11*
%TO.N,GND*%
X119350000Y-98485000D03*
%TD*%
D12*
%TO.N,+VDC*%
%TO.C,J1*%
X101010000Y-100920000D03*
D13*
%TO.N,GND*%
X98010000Y-105620000D03*
D12*
X95010000Y-100920000D03*
%TD*%
D14*
%TO.N,GND*%
X145210000Y-110520000D03*
X105410000Y-103120000D03*
X106610000Y-100820000D03*
X123510000Y-97920000D03*
X124010000Y-98720000D03*
%TO.N,+5V*%
X119310000Y-104120000D03*
X118310000Y-104120000D03*
%TO.N,GND*%
X114410000Y-100320000D03*
X113510000Y-100320000D03*
X130910000Y-99820000D03*
X131610000Y-100320000D03*
%TO.N,Net-(R2-Pad2)*%
X128110000Y-107820000D03*
%TO.N,+5V*%
X106510000Y-95920000D03*
%TO.N,+3V3*%
X115522500Y-99907500D03*
%TO.N,+5V*%
X113010000Y-105220000D03*
X113610000Y-104620000D03*
%TO.N,GND*%
X104010000Y-106620000D03*
X104010000Y-109820000D03*
X106527500Y-106620000D03*
X105527500Y-106620000D03*
X105527500Y-109820000D03*
X106527500Y-109820000D03*
X181510782Y-111100000D03*
X150150000Y-100350000D03*
X150150000Y-94950000D03*
X184900000Y-98700000D03*
X164200000Y-95100000D03*
X174600000Y-96900000D03*
X118410000Y-113960000D03*
X174610782Y-112300000D03*
X171110782Y-112900000D03*
X147210000Y-100620000D03*
X178000000Y-97500000D03*
X167700000Y-95700000D03*
X181500000Y-98100000D03*
X167710782Y-113500000D03*
X188850000Y-100350000D03*
X120210000Y-113960000D03*
X188850000Y-108900000D03*
X150150000Y-102150000D03*
X108150000Y-98125000D03*
X190700000Y-100350000D03*
X171100000Y-96300000D03*
X184910782Y-110500000D03*
X150150000Y-96750000D03*
X165800000Y-99500000D03*
X150150000Y-112450000D03*
X150150000Y-103950000D03*
X164210782Y-114100000D03*
X144010000Y-109620000D03*
X150150000Y-107050000D03*
X178010782Y-111700000D03*
X142170000Y-104731425D03*
X147242500Y-101618925D03*
X164325000Y-108463575D03*
X190700000Y-108900000D03*
X150150000Y-114300000D03*
X130710000Y-113020000D03*
X139943575Y-107431425D03*
X150150000Y-98550000D03*
X150150000Y-110650000D03*
X119310000Y-113960000D03*
%TO.N,+3V3*%
X163325000Y-109263575D03*
X164825000Y-100250000D03*
X150150000Y-108850000D03*
X132950000Y-99525000D03*
X126957011Y-97117989D03*
X127857011Y-97117989D03*
%TO.N,/peregrineSelector/ExtTrig*%
X123962551Y-102212448D03*
X141150000Y-104111425D03*
%TO.N,Net-(R2-Pad2)*%
X129762551Y-110037062D03*
%TO.N,Net-(R4-Pad2)*%
X127737551Y-109662062D03*
X129737551Y-108562062D03*
%TO.N,/peregrinePulser/Trig*%
X162635052Y-103993575D03*
X150050000Y-105611425D03*
%TO.N,Net-(R6-Pad2)*%
X131737551Y-112162062D03*
X129337551Y-113062062D03*
%TD*%
D15*
%TO.N,+5V*%
X114110000Y-104120000D02*
X113610000Y-104620000D01*
X118310000Y-104120000D02*
X114110000Y-104120000D01*
X119310000Y-104120000D02*
X118310000Y-104120000D01*
D16*
%TO.N,+3V3*%
X134090000Y-95800000D02*
G75*
G02*
X137010000Y-98720000I1J-2919999D01*
G01*
X137010000Y-107920000D02*
X137010000Y-98720000D01*
X134090000Y-95800000D02*
X119817895Y-95800000D01*
X154081750Y-95800000D02*
X134090000Y-95800000D01*
X137010000Y-107920000D02*
G75*
G03*
X137940000Y-108850000I930001J1D01*
G01*
X150150000Y-108850000D02*
X137940000Y-108850000D01*
D17*
%TO.N,Net-(R2-Pad2)*%
X128110000Y-108384511D02*
X128110000Y-107820000D01*
X129762551Y-110037062D02*
X128110000Y-108384511D01*
D15*
%TO.N,+5V*%
X106510000Y-98720000D02*
X106510000Y-95920000D01*
X113010000Y-105220000D02*
X106510000Y-98720000D01*
X113610000Y-104620000D02*
X113527011Y-104702989D01*
D16*
%TO.N,+3V3*%
X162326542Y-108850000D02*
X150150000Y-108850000D01*
X162326542Y-108850001D02*
G75*
G02*
X163324999Y-109263576I4J-1412022D01*
G01*
X117696574Y-96678680D02*
G75*
G02*
X119817895Y-95800000I2121323J-2121325D01*
G01*
X115522501Y-99907500D02*
G75*
G02*
X116268318Y-98106936I2546385J-1D01*
G01*
X117696574Y-96678680D02*
X116268318Y-98106936D01*
D15*
%TO.N,+5V*%
X113010000Y-105220000D02*
X113410000Y-104820000D01*
X113010000Y-105220000D02*
X113610000Y-104620000D01*
D16*
%TO.N,+3V3*%
X154081750Y-95800000D02*
G75*
G02*
X164825000Y-100250000I1J-15193246D01*
G01*
%TD*%
%TA.AperFunction,Conductor*%
%TO.N,GND*%
G36*
X181639890Y-97588001D02*
G01*
X192394236Y-99382354D01*
X192458136Y-99413294D01*
X192495165Y-99473870D01*
X192499500Y-99506636D01*
X192499500Y-103074000D01*
X192479498Y-103142121D01*
X192425842Y-103188614D01*
X192373500Y-103200000D01*
X174220000Y-103200000D01*
X174220000Y-96350000D01*
X181639890Y-97588001D01*
G37*
%TD.AperFunction*%
%TD*%
%TA.AperFunction,Conductor*%
%TO.N,GND*%
G36*
X163002028Y-94515322D02*
G01*
X174114906Y-96385139D01*
X174178764Y-96416166D01*
X174215710Y-96476792D01*
X174220000Y-96509392D01*
X174220000Y-112717758D01*
X174199998Y-112785879D01*
X174146342Y-112832372D01*
X174114907Y-112842011D01*
X163376420Y-114648834D01*
X163002028Y-114711828D01*
X162981122Y-114713575D01*
X95015838Y-114713575D01*
X95000000Y-114708429D01*
X94987635Y-114712447D01*
X94986853Y-114712217D01*
X94986821Y-114712711D01*
X94760242Y-114697860D01*
X94743902Y-114695709D01*
X94630122Y-114673077D01*
X94516339Y-114650444D01*
X94500425Y-114646180D01*
X94390572Y-114608890D01*
X94280723Y-114571601D01*
X94265496Y-114565294D01*
X94099008Y-114483192D01*
X94057404Y-114462675D01*
X94043137Y-114454438D01*
X93947252Y-114390370D01*
X93850223Y-114325537D01*
X93837147Y-114315504D01*
X93662706Y-114162523D01*
X93651052Y-114150869D01*
X93498071Y-113976428D01*
X93488038Y-113963352D01*
X93359139Y-113770442D01*
X93350898Y-113756168D01*
X93248281Y-113548079D01*
X93241974Y-113532852D01*
X93167396Y-113313153D01*
X93163130Y-113297233D01*
X93117866Y-113069673D01*
X93116864Y-113062062D01*
X128731869Y-113062062D01*
X128752507Y-113218824D01*
X128813015Y-113364903D01*
X128909269Y-113490344D01*
X129034710Y-113586598D01*
X129180789Y-113647106D01*
X129337551Y-113667744D01*
X129345739Y-113666666D01*
X129486125Y-113648184D01*
X129494313Y-113647106D01*
X129640392Y-113586598D01*
X129765833Y-113490344D01*
X129862087Y-113364903D01*
X129922595Y-113218824D01*
X129943233Y-113062062D01*
X129922595Y-112905300D01*
X129862087Y-112759221D01*
X129765833Y-112633780D01*
X129640392Y-112537526D01*
X129494313Y-112477018D01*
X129337551Y-112456380D01*
X129180789Y-112477018D01*
X129034710Y-112537526D01*
X128909269Y-112633780D01*
X128813015Y-112759221D01*
X128752507Y-112905300D01*
X128731869Y-113062062D01*
X93116864Y-113062062D01*
X93115715Y-113053333D01*
X93100864Y-112826754D01*
X93101027Y-112826743D01*
X93100957Y-112826467D01*
X93105146Y-112813575D01*
X93100000Y-112797737D01*
X93100000Y-112162062D01*
X131131869Y-112162062D01*
X131152507Y-112318824D01*
X131213015Y-112464903D01*
X131309269Y-112590344D01*
X131434710Y-112686598D01*
X131580789Y-112747106D01*
X131737551Y-112767744D01*
X131745739Y-112766666D01*
X131886125Y-112748184D01*
X131894313Y-112747106D01*
X132040392Y-112686598D01*
X132165833Y-112590344D01*
X132262087Y-112464903D01*
X132322595Y-112318824D01*
X132343233Y-112162062D01*
X132322595Y-112005300D01*
X132262087Y-111859221D01*
X132165833Y-111733780D01*
X132040392Y-111637526D01*
X131894313Y-111577018D01*
X131737551Y-111556380D01*
X131580789Y-111577018D01*
X131434710Y-111637526D01*
X131309269Y-111733780D01*
X131213015Y-111859221D01*
X131152507Y-112005300D01*
X131131869Y-112162062D01*
X93100000Y-112162062D01*
X93100000Y-109662062D01*
X127131869Y-109662062D01*
X127152507Y-109818824D01*
X127213015Y-109964903D01*
X127309269Y-110090344D01*
X127434710Y-110186598D01*
X127580789Y-110247106D01*
X127737551Y-110267744D01*
X127745739Y-110266666D01*
X127886125Y-110248184D01*
X127894313Y-110247106D01*
X128040392Y-110186598D01*
X128165833Y-110090344D01*
X128262087Y-109964903D01*
X128322595Y-109818824D01*
X128343233Y-109662062D01*
X128322595Y-109505300D01*
X128262087Y-109359221D01*
X128237551Y-109327245D01*
X128211951Y-109261025D01*
X128226216Y-109191476D01*
X128275817Y-109140680D01*
X128345007Y-109124764D01*
X128411817Y-109148781D01*
X128426609Y-109161446D01*
X129129842Y-109864679D01*
X129163868Y-109926991D01*
X129165669Y-109970219D01*
X129156869Y-110037062D01*
X129177507Y-110193824D01*
X129238015Y-110339903D01*
X129334269Y-110465344D01*
X129459710Y-110561598D01*
X129605789Y-110622106D01*
X129762551Y-110642744D01*
X129770739Y-110641666D01*
X129911125Y-110623184D01*
X129919313Y-110622106D01*
X130065392Y-110561598D01*
X130190833Y-110465344D01*
X130287087Y-110339903D01*
X130347595Y-110193824D01*
X130368233Y-110037062D01*
X130347595Y-109880300D01*
X130287087Y-109734221D01*
X130190833Y-109608780D01*
X130065392Y-109512526D01*
X129919313Y-109452018D01*
X129762551Y-109431380D01*
X129695708Y-109440180D01*
X129625561Y-109429241D01*
X129590168Y-109404353D01*
X129557807Y-109371992D01*
X129523781Y-109309680D01*
X129528846Y-109238865D01*
X129571393Y-109182029D01*
X129637913Y-109157218D01*
X129663348Y-109157975D01*
X129737551Y-109167744D01*
X129745739Y-109166666D01*
X129886125Y-109148184D01*
X129894313Y-109147106D01*
X130040392Y-109086598D01*
X130165833Y-108990344D01*
X130188554Y-108960734D01*
X130257060Y-108871454D01*
X130262087Y-108864903D01*
X130322595Y-108718824D01*
X130343233Y-108562062D01*
X130322595Y-108405300D01*
X130262087Y-108259221D01*
X130165833Y-108133780D01*
X130154687Y-108125227D01*
X130046943Y-108042553D01*
X130040392Y-108037526D01*
X129894313Y-107977018D01*
X129737551Y-107956380D01*
X129580789Y-107977018D01*
X129434710Y-108037526D01*
X129428159Y-108042553D01*
X129320416Y-108125227D01*
X129309269Y-108133780D01*
X129213015Y-108259221D01*
X129152507Y-108405300D01*
X129131869Y-108562062D01*
X129132947Y-108570250D01*
X129141638Y-108636265D01*
X129130699Y-108706413D01*
X129083571Y-108759512D01*
X129015217Y-108778702D01*
X128947339Y-108757891D01*
X128927621Y-108741806D01*
X128571183Y-108385368D01*
X128537157Y-108323056D01*
X128542222Y-108252241D01*
X128560315Y-108219570D01*
X128629507Y-108129396D01*
X128629509Y-108129392D01*
X128634536Y-108122841D01*
X128695044Y-107976762D01*
X128715682Y-107820000D01*
X128695044Y-107663238D01*
X128634536Y-107517159D01*
X128538282Y-107391718D01*
X128412841Y-107295464D01*
X128266762Y-107234956D01*
X128110000Y-107214318D01*
X127953238Y-107234956D01*
X127807159Y-107295464D01*
X127681718Y-107391718D01*
X127585464Y-107517159D01*
X127524956Y-107663238D01*
X127504318Y-107820000D01*
X127524956Y-107976762D01*
X127585464Y-108122841D01*
X127681718Y-108248282D01*
X127688264Y-108253305D01*
X127733197Y-108287783D01*
X127775064Y-108345121D01*
X127782012Y-108398728D01*
X127780736Y-108413318D01*
X127783590Y-108423967D01*
X127790491Y-108449721D01*
X127792870Y-108460453D01*
X127799412Y-108497556D01*
X127804923Y-108507101D01*
X127806115Y-108510377D01*
X127807592Y-108513545D01*
X127810446Y-108524195D01*
X127816770Y-108533226D01*
X127832055Y-108555055D01*
X127837961Y-108564326D01*
X127851293Y-108587417D01*
X127856806Y-108596966D01*
X127865251Y-108604052D01*
X127885682Y-108621196D01*
X127893785Y-108628622D01*
X128238167Y-108973004D01*
X128272193Y-109035316D01*
X128267128Y-109106131D01*
X128224581Y-109162967D01*
X128158061Y-109187778D01*
X128088687Y-109172687D01*
X128072368Y-109162062D01*
X128052877Y-109147106D01*
X128040392Y-109137526D01*
X127894313Y-109077018D01*
X127737551Y-109056380D01*
X127580789Y-109077018D01*
X127434710Y-109137526D01*
X127309269Y-109233780D01*
X127213015Y-109359221D01*
X127152507Y-109505300D01*
X127131869Y-109662062D01*
X93100000Y-109662062D01*
X93100000Y-105887728D01*
X95701114Y-105887728D01*
X95701166Y-105887973D01*
X95763898Y-106091883D01*
X95768119Y-106102229D01*
X95865971Y-106291814D01*
X95871957Y-106301245D01*
X96001832Y-106470501D01*
X96009393Y-106478724D01*
X96167194Y-106622312D01*
X96176094Y-106629067D01*
X96356815Y-106742434D01*
X96366781Y-106747511D01*
X96564714Y-106827080D01*
X96575429Y-106830315D01*
X96785301Y-106873777D01*
X96794438Y-106874980D01*
X96844990Y-106877895D01*
X96848637Y-106878000D01*
X97737885Y-106878000D01*
X97753124Y-106873525D01*
X97754329Y-106872135D01*
X97756000Y-106864452D01*
X97756000Y-106859885D01*
X98264000Y-106859885D01*
X98268475Y-106875124D01*
X98269865Y-106876329D01*
X98277548Y-106878000D01*
X99139175Y-106878000D01*
X99144770Y-106877751D01*
X99303078Y-106863622D01*
X99314092Y-106861640D01*
X99519860Y-106805349D01*
X99530341Y-106801451D01*
X99722903Y-106709603D01*
X99732516Y-106703918D01*
X99905767Y-106579425D01*
X99914233Y-106572117D01*
X100062692Y-106418918D01*
X100069735Y-106410221D01*
X100188719Y-106233156D01*
X100194105Y-106223358D01*
X100279857Y-106028010D01*
X100283422Y-106017418D01*
X100313624Y-105891616D01*
X100312919Y-105877530D01*
X100304040Y-105874000D01*
X98282115Y-105874000D01*
X98266876Y-105878475D01*
X98265671Y-105879865D01*
X98264000Y-105887548D01*
X98264000Y-106859885D01*
X97756000Y-106859885D01*
X97756000Y-105892115D01*
X97751525Y-105876876D01*
X97750135Y-105875671D01*
X97742452Y-105874000D01*
X95716589Y-105874000D01*
X95702607Y-105878105D01*
X95701114Y-105887728D01*
X93100000Y-105887728D01*
X93100000Y-105348384D01*
X95706376Y-105348384D01*
X95707081Y-105362470D01*
X95715960Y-105366000D01*
X97737885Y-105366000D01*
X97753124Y-105361525D01*
X97754329Y-105360135D01*
X97756000Y-105352452D01*
X97756000Y-105347885D01*
X98264000Y-105347885D01*
X98268475Y-105363124D01*
X98269865Y-105364329D01*
X98277548Y-105366000D01*
X100303411Y-105366000D01*
X100317393Y-105361895D01*
X100318886Y-105352272D01*
X100318834Y-105352027D01*
X100256102Y-105148117D01*
X100251881Y-105137771D01*
X100154029Y-104948186D01*
X100148043Y-104938755D01*
X100018168Y-104769499D01*
X100010607Y-104761276D01*
X99852806Y-104617688D01*
X99843906Y-104610933D01*
X99663185Y-104497566D01*
X99653219Y-104492489D01*
X99455286Y-104412920D01*
X99444571Y-104409685D01*
X99234699Y-104366223D01*
X99225562Y-104365020D01*
X99175010Y-104362105D01*
X99171363Y-104362000D01*
X98282115Y-104362000D01*
X98266876Y-104366475D01*
X98265671Y-104367865D01*
X98264000Y-104375548D01*
X98264000Y-105347885D01*
X97756000Y-105347885D01*
X97756000Y-104380115D01*
X97751525Y-104364876D01*
X97750135Y-104363671D01*
X97742452Y-104362000D01*
X96880825Y-104362000D01*
X96875230Y-104362249D01*
X96716922Y-104376378D01*
X96705908Y-104378360D01*
X96500140Y-104434651D01*
X96489659Y-104438549D01*
X96297097Y-104530397D01*
X96287484Y-104536082D01*
X96114233Y-104660575D01*
X96105767Y-104667883D01*
X95957308Y-104821082D01*
X95950265Y-104829779D01*
X95831281Y-105006844D01*
X95825895Y-105016642D01*
X95740143Y-105211990D01*
X95736578Y-105222582D01*
X95706376Y-105348384D01*
X93100000Y-105348384D01*
X93100000Y-102299175D01*
X93752000Y-102299175D01*
X93752249Y-102304770D01*
X93766378Y-102463078D01*
X93768360Y-102474092D01*
X93824651Y-102679860D01*
X93828549Y-102690341D01*
X93920397Y-102882903D01*
X93926082Y-102892516D01*
X94050575Y-103065767D01*
X94057883Y-103074233D01*
X94211082Y-103222692D01*
X94219779Y-103229735D01*
X94396844Y-103348719D01*
X94406642Y-103354105D01*
X94601990Y-103439857D01*
X94612582Y-103443422D01*
X94738384Y-103473624D01*
X94752470Y-103472919D01*
X94756000Y-103464040D01*
X94756000Y-103463411D01*
X95264000Y-103463411D01*
X95268105Y-103477393D01*
X95277728Y-103478886D01*
X95277973Y-103478834D01*
X95481883Y-103416102D01*
X95492229Y-103411881D01*
X95681814Y-103314029D01*
X95691245Y-103308043D01*
X95860501Y-103178168D01*
X95868724Y-103170607D01*
X96012312Y-103012806D01*
X96019067Y-103003906D01*
X96132434Y-102823185D01*
X96137511Y-102813219D01*
X96217080Y-102615286D01*
X96220315Y-102604571D01*
X96263777Y-102394699D01*
X96264980Y-102385562D01*
X96267895Y-102335010D01*
X96268000Y-102331363D01*
X96268000Y-102293259D01*
X100059500Y-102293259D01*
X100074112Y-102437110D01*
X100131856Y-102621373D01*
X100225472Y-102790261D01*
X100351136Y-102936875D01*
X100356178Y-102940786D01*
X100356179Y-102940787D01*
X100498665Y-103051311D01*
X100498668Y-103051313D01*
X100503714Y-103055227D01*
X100676974Y-103140481D01*
X100683144Y-103142088D01*
X100683149Y-103142090D01*
X100857655Y-103187545D01*
X100857658Y-103187545D01*
X100863837Y-103189155D01*
X100947203Y-103193524D01*
X101050290Y-103198927D01*
X101050294Y-103198927D01*
X101056671Y-103199261D01*
X101247599Y-103170386D01*
X101253595Y-103168180D01*
X101422832Y-103105914D01*
X101422836Y-103105912D01*
X101428821Y-103103710D01*
X101592934Y-103001955D01*
X101733235Y-102869279D01*
X101769805Y-102817052D01*
X101840327Y-102716335D01*
X101840328Y-102716334D01*
X101843991Y-102711102D01*
X101920680Y-102533885D01*
X101939625Y-102443201D01*
X101959177Y-102349612D01*
X101959177Y-102349608D01*
X101960168Y-102344867D01*
X101960500Y-102338532D01*
X101960500Y-99546741D01*
X101947436Y-99418133D01*
X101946533Y-99409239D01*
X101946533Y-99409238D01*
X101945888Y-99402890D01*
X101888144Y-99218627D01*
X101871140Y-99187950D01*
X101804096Y-99067000D01*
X101794528Y-99049739D01*
X101668864Y-98903125D01*
X101663821Y-98899213D01*
X101521335Y-98788689D01*
X101521332Y-98788687D01*
X101516286Y-98784773D01*
X101343026Y-98699519D01*
X101336856Y-98697912D01*
X101336851Y-98697910D01*
X101162345Y-98652455D01*
X101162342Y-98652455D01*
X101156163Y-98650845D01*
X101072797Y-98646476D01*
X100969710Y-98641073D01*
X100969706Y-98641073D01*
X100963329Y-98640739D01*
X100772401Y-98669614D01*
X100766406Y-98671820D01*
X100766405Y-98671820D01*
X100597168Y-98734086D01*
X100597164Y-98734088D01*
X100591179Y-98736290D01*
X100427066Y-98838045D01*
X100286765Y-98970721D01*
X100283103Y-98975951D01*
X100283102Y-98975952D01*
X100188505Y-99111052D01*
X100176009Y-99128898D01*
X100099320Y-99306115D01*
X100098015Y-99312362D01*
X100064022Y-99475078D01*
X100059832Y-99495133D01*
X100059500Y-99501468D01*
X100059500Y-102293259D01*
X96268000Y-102293259D01*
X96268000Y-101192115D01*
X96263525Y-101176876D01*
X96262135Y-101175671D01*
X96254452Y-101174000D01*
X95282115Y-101174000D01*
X95266876Y-101178475D01*
X95265671Y-101179865D01*
X95264000Y-101187548D01*
X95264000Y-103463411D01*
X94756000Y-103463411D01*
X94756000Y-101192115D01*
X94751525Y-101176876D01*
X94750135Y-101175671D01*
X94742452Y-101174000D01*
X93770115Y-101174000D01*
X93754876Y-101178475D01*
X93753671Y-101179865D01*
X93752000Y-101187548D01*
X93752000Y-102299175D01*
X93100000Y-102299175D01*
X93100000Y-100647885D01*
X93752000Y-100647885D01*
X93756475Y-100663124D01*
X93757865Y-100664329D01*
X93765548Y-100666000D01*
X94737885Y-100666000D01*
X94753124Y-100661525D01*
X94754329Y-100660135D01*
X94756000Y-100652452D01*
X94756000Y-100647885D01*
X95264000Y-100647885D01*
X95268475Y-100663124D01*
X95269865Y-100664329D01*
X95277548Y-100666000D01*
X96249885Y-100666000D01*
X96265124Y-100661525D01*
X96266329Y-100660135D01*
X96268000Y-100652452D01*
X96268000Y-99540825D01*
X96267751Y-99535230D01*
X96253622Y-99376922D01*
X96251640Y-99365908D01*
X96195349Y-99160140D01*
X96191451Y-99149659D01*
X96099603Y-98957097D01*
X96093918Y-98947484D01*
X95969425Y-98774233D01*
X95962117Y-98765767D01*
X95808918Y-98617308D01*
X95800221Y-98610265D01*
X95623156Y-98491281D01*
X95613358Y-98485895D01*
X95418010Y-98400143D01*
X95407418Y-98396578D01*
X95281616Y-98366376D01*
X95267530Y-98367081D01*
X95264000Y-98375960D01*
X95264000Y-100647885D01*
X94756000Y-100647885D01*
X94756000Y-98376589D01*
X94751895Y-98362607D01*
X94742272Y-98361114D01*
X94742027Y-98361166D01*
X94538117Y-98423898D01*
X94527771Y-98428119D01*
X94338186Y-98525971D01*
X94328755Y-98531957D01*
X94159499Y-98661832D01*
X94151276Y-98669393D01*
X94007688Y-98827194D01*
X94000933Y-98836094D01*
X93887566Y-99016815D01*
X93882489Y-99026781D01*
X93802920Y-99224714D01*
X93799685Y-99235429D01*
X93756223Y-99445301D01*
X93755020Y-99454438D01*
X93752105Y-99504990D01*
X93752000Y-99508637D01*
X93752000Y-100647885D01*
X93100000Y-100647885D01*
X93100000Y-96429413D01*
X93105146Y-96413575D01*
X93101128Y-96401210D01*
X93101358Y-96400428D01*
X93100864Y-96400396D01*
X93115715Y-96173817D01*
X93117866Y-96157477D01*
X93163130Y-95929917D01*
X93165787Y-95920000D01*
X105904318Y-95920000D01*
X105924956Y-96076762D01*
X105928115Y-96084389D01*
X105928116Y-96084392D01*
X105982409Y-96215466D01*
X105992000Y-96263684D01*
X105992000Y-98705760D01*
X105991889Y-98711036D01*
X105989451Y-98769206D01*
X105991413Y-98777570D01*
X105991413Y-98777573D01*
X105998718Y-98808720D01*
X106000881Y-98820388D01*
X106006391Y-98860610D01*
X106009802Y-98868492D01*
X106011745Y-98872982D01*
X106018779Y-98894250D01*
X106019489Y-98897275D01*
X106021859Y-98907380D01*
X106039175Y-98938878D01*
X106041413Y-98942949D01*
X106046634Y-98953606D01*
X106062756Y-98990861D01*
X106068163Y-98997538D01*
X106071241Y-99001339D01*
X106083734Y-99019931D01*
X106090231Y-99031749D01*
X106096825Y-99039387D01*
X106119627Y-99062189D01*
X106128453Y-99071990D01*
X106146666Y-99094482D01*
X106146668Y-99094484D01*
X106152071Y-99101156D01*
X106159070Y-99106130D01*
X106159071Y-99106131D01*
X106165996Y-99111052D01*
X106182101Y-99124663D01*
X112400696Y-105343258D01*
X112428010Y-105384135D01*
X112485464Y-105522841D01*
X112581718Y-105648282D01*
X112707159Y-105744536D01*
X112853238Y-105805044D01*
X113010000Y-105825682D01*
X113018188Y-105824604D01*
X113158574Y-105806122D01*
X113166762Y-105805044D01*
X113312841Y-105744536D01*
X113438282Y-105648282D01*
X113534536Y-105522841D01*
X113591990Y-105384135D01*
X113619303Y-105343259D01*
X113733261Y-105229302D01*
X113774138Y-105201989D01*
X113831762Y-105178120D01*
X113912841Y-105144536D01*
X114038282Y-105048282D01*
X114134536Y-104922841D01*
X114191989Y-104784136D01*
X114219303Y-104743259D01*
X114287659Y-104674904D01*
X114349972Y-104640879D01*
X114376754Y-104638000D01*
X117966316Y-104638000D01*
X118014534Y-104647591D01*
X118145608Y-104701884D01*
X118145611Y-104701885D01*
X118153238Y-104705044D01*
X118310000Y-104725682D01*
X118318188Y-104724604D01*
X118458574Y-104706122D01*
X118466762Y-104705044D01*
X118474389Y-104701885D01*
X118474392Y-104701884D01*
X118605466Y-104647591D01*
X118653684Y-104638000D01*
X118966316Y-104638000D01*
X119014534Y-104647591D01*
X119145608Y-104701884D01*
X119145611Y-104701885D01*
X119153238Y-104705044D01*
X119310000Y-104725682D01*
X119318188Y-104724604D01*
X119458574Y-104706122D01*
X119466762Y-104705044D01*
X119612841Y-104644536D01*
X119738282Y-104548282D01*
X119834536Y-104422841D01*
X119887468Y-104295053D01*
X119891884Y-104284391D01*
X119895044Y-104276762D01*
X119915682Y-104120000D01*
X119895044Y-103963238D01*
X119834536Y-103817159D01*
X119738282Y-103691718D01*
X119612841Y-103595464D01*
X119466762Y-103534956D01*
X119310000Y-103514318D01*
X119153238Y-103534956D01*
X119145611Y-103538115D01*
X119145608Y-103538116D01*
X119014534Y-103592409D01*
X118966316Y-103602000D01*
X118653684Y-103602000D01*
X118605466Y-103592409D01*
X118474392Y-103538116D01*
X118474389Y-103538115D01*
X118466762Y-103534956D01*
X118310000Y-103514318D01*
X118153238Y-103534956D01*
X118145611Y-103538115D01*
X118145608Y-103538116D01*
X118014534Y-103592409D01*
X117966316Y-103602000D01*
X114124255Y-103602000D01*
X114118978Y-103601889D01*
X114060794Y-103599450D01*
X114021265Y-103608721D01*
X114009603Y-103610882D01*
X113969390Y-103616391D01*
X113961506Y-103619803D01*
X113961505Y-103619803D01*
X113957018Y-103621745D01*
X113935746Y-103628780D01*
X113930986Y-103629896D01*
X113930981Y-103629898D01*
X113922620Y-103631859D01*
X113887041Y-103651419D01*
X113876396Y-103656634D01*
X113839139Y-103672756D01*
X113828656Y-103681245D01*
X113810074Y-103693731D01*
X113798252Y-103700231D01*
X113790613Y-103706825D01*
X113767811Y-103729627D01*
X113758010Y-103738453D01*
X113735518Y-103756666D01*
X113735516Y-103756668D01*
X113728844Y-103762071D01*
X113723870Y-103769070D01*
X113723869Y-103769071D01*
X113718948Y-103775996D01*
X113705337Y-103792101D01*
X113486742Y-104010696D01*
X113445865Y-104038010D01*
X113307159Y-104095464D01*
X113181718Y-104191718D01*
X113085464Y-104317159D01*
X113082304Y-104324787D01*
X113078409Y-104331534D01*
X113027027Y-104380528D01*
X112957314Y-104393966D01*
X112891402Y-104367580D01*
X112880194Y-104357631D01*
X110735011Y-102212448D01*
X123356869Y-102212448D01*
X123357947Y-102220636D01*
X123373005Y-102335010D01*
X123377507Y-102369210D01*
X123438015Y-102515289D01*
X123534269Y-102640730D01*
X123659710Y-102736984D01*
X123805789Y-102797492D01*
X123962551Y-102818130D01*
X123970739Y-102817052D01*
X124111125Y-102798570D01*
X124119313Y-102797492D01*
X124265392Y-102736984D01*
X124390833Y-102640730D01*
X124487087Y-102515289D01*
X124547595Y-102369210D01*
X124552098Y-102335010D01*
X124567155Y-102220636D01*
X124568233Y-102212448D01*
X124547595Y-102055686D01*
X124487087Y-101909607D01*
X124390833Y-101784166D01*
X124265392Y-101687912D01*
X124119313Y-101627404D01*
X123962551Y-101606766D01*
X123805789Y-101627404D01*
X123659710Y-101687912D01*
X123534269Y-101784166D01*
X123438015Y-101909607D01*
X123377507Y-102055686D01*
X123356869Y-102212448D01*
X110735011Y-102212448D01*
X108430062Y-99907500D01*
X114916818Y-99907500D01*
X114937456Y-100064262D01*
X114997964Y-100210341D01*
X115094218Y-100335782D01*
X115219659Y-100432036D01*
X115365738Y-100492544D01*
X115522500Y-100513182D01*
X115530688Y-100512104D01*
X115671074Y-100493622D01*
X115679262Y-100492544D01*
X115825341Y-100432036D01*
X115950782Y-100335782D01*
X116047036Y-100210341D01*
X116107544Y-100064262D01*
X116128182Y-99907500D01*
X116107544Y-99750738D01*
X116047036Y-99604659D01*
X116011488Y-99558331D01*
X115957838Y-99488413D01*
X115932238Y-99422192D01*
X115936725Y-99376828D01*
X115991140Y-99187950D01*
X115995807Y-99174614D01*
X116084767Y-98959842D01*
X116090898Y-98947110D01*
X116093106Y-98943116D01*
X116189223Y-98769206D01*
X116198199Y-98752966D01*
X118018257Y-98752966D01*
X118048565Y-98887446D01*
X118051645Y-98897275D01*
X118131770Y-99094603D01*
X118136413Y-99103794D01*
X118247694Y-99285388D01*
X118253777Y-99293699D01*
X118393213Y-99454667D01*
X118400580Y-99461883D01*
X118564434Y-99597916D01*
X118572881Y-99603831D01*
X118756756Y-99711279D01*
X118766043Y-99715729D01*
X118805484Y-99730790D01*
X118861987Y-99773778D01*
X118886280Y-99840489D01*
X118870650Y-99909743D01*
X118820059Y-99959554D01*
X118760535Y-99974500D01*
X118480252Y-99974500D01*
X118474184Y-99975707D01*
X118433939Y-99983712D01*
X118433938Y-99983712D01*
X118421769Y-99986133D01*
X118355448Y-100030448D01*
X118311133Y-100096769D01*
X118299500Y-100155252D01*
X118299500Y-101894748D01*
X118311133Y-101953231D01*
X118355448Y-102019552D01*
X118421769Y-102063867D01*
X118433938Y-102066288D01*
X118433939Y-102066288D01*
X118474184Y-102074293D01*
X118480252Y-102075500D01*
X120219748Y-102075500D01*
X120225816Y-102074293D01*
X120266061Y-102066288D01*
X120266062Y-102066288D01*
X120278231Y-102063867D01*
X120344552Y-102019552D01*
X120388867Y-101953231D01*
X120400500Y-101894748D01*
X120400500Y-100155252D01*
X120388867Y-100096769D01*
X120344552Y-100030448D01*
X120278231Y-99986133D01*
X120266062Y-99983712D01*
X120266061Y-99983712D01*
X120225816Y-99975707D01*
X120219748Y-99974500D01*
X119940107Y-99974500D01*
X119871986Y-99954498D01*
X119825493Y-99900842D01*
X119815389Y-99830568D01*
X119844883Y-99765988D01*
X119884675Y-99735349D01*
X120043090Y-99657742D01*
X120051945Y-99652464D01*
X120225328Y-99528792D01*
X120229815Y-99525000D01*
X132344318Y-99525000D01*
X132364956Y-99681762D01*
X132425464Y-99827841D01*
X132521718Y-99953282D01*
X132647159Y-100049536D01*
X132793238Y-100110044D01*
X132950000Y-100130682D01*
X132958188Y-100129604D01*
X133098574Y-100111122D01*
X133106762Y-100110044D01*
X133252841Y-100049536D01*
X133378282Y-99953282D01*
X133474536Y-99827841D01*
X133535044Y-99681762D01*
X133555682Y-99525000D01*
X133535044Y-99368238D01*
X133474536Y-99222159D01*
X133398959Y-99123665D01*
X133383305Y-99103264D01*
X133378282Y-99096718D01*
X133252841Y-99000464D01*
X133106762Y-98939956D01*
X132950000Y-98919318D01*
X132793238Y-98939956D01*
X132647159Y-99000464D01*
X132521718Y-99096718D01*
X132516695Y-99103264D01*
X132501041Y-99123665D01*
X132425464Y-99222159D01*
X132364956Y-99368238D01*
X132344318Y-99525000D01*
X120229815Y-99525000D01*
X120233200Y-99522139D01*
X120384052Y-99371812D01*
X120390730Y-99363965D01*
X120515003Y-99191020D01*
X120520313Y-99182183D01*
X120614670Y-98991267D01*
X120618469Y-98981672D01*
X120680377Y-98777910D01*
X120682555Y-98767837D01*
X120683986Y-98756962D01*
X120681775Y-98742778D01*
X120668617Y-98739000D01*
X118033225Y-98739000D01*
X118019694Y-98742973D01*
X118018257Y-98752966D01*
X116198199Y-98752966D01*
X116203348Y-98743649D01*
X116210865Y-98731686D01*
X116343595Y-98544619D01*
X116345385Y-98542095D01*
X116354194Y-98531049D01*
X116377082Y-98505438D01*
X116488718Y-98380517D01*
X116505521Y-98365595D01*
X116508575Y-98362541D01*
X116517602Y-98356220D01*
X116528976Y-98339977D01*
X116543093Y-98323154D01*
X116647064Y-98219183D01*
X118014389Y-98219183D01*
X118015912Y-98227607D01*
X118028292Y-98231000D01*
X119077885Y-98231000D01*
X119093124Y-98226525D01*
X119094329Y-98225135D01*
X119096000Y-98217452D01*
X119096000Y-98212885D01*
X119604000Y-98212885D01*
X119608475Y-98228124D01*
X119609865Y-98229329D01*
X119617548Y-98231000D01*
X120668344Y-98231000D01*
X120681875Y-98227027D01*
X120683180Y-98217947D01*
X120641214Y-98050875D01*
X120637894Y-98041124D01*
X120552972Y-97845814D01*
X120548105Y-97836739D01*
X120432426Y-97657926D01*
X120426136Y-97649757D01*
X120282806Y-97492240D01*
X120275273Y-97485215D01*
X120108139Y-97353222D01*
X120099552Y-97347517D01*
X119913117Y-97244599D01*
X119903705Y-97240369D01*
X119702959Y-97169280D01*
X119692988Y-97166646D01*
X119621837Y-97153972D01*
X119608540Y-97155432D01*
X119604000Y-97169989D01*
X119604000Y-98212885D01*
X119096000Y-98212885D01*
X119096000Y-97168102D01*
X119092082Y-97154758D01*
X119077806Y-97152771D01*
X119039324Y-97158660D01*
X119029288Y-97161051D01*
X118826868Y-97227212D01*
X118817359Y-97231209D01*
X118628463Y-97329542D01*
X118619738Y-97335036D01*
X118449433Y-97462905D01*
X118441726Y-97469748D01*
X118294590Y-97623717D01*
X118288104Y-97631727D01*
X118168098Y-97807649D01*
X118163000Y-97816623D01*
X118073338Y-98009783D01*
X118069775Y-98019470D01*
X118014389Y-98219183D01*
X116647064Y-98219183D01*
X117748259Y-97117989D01*
X126351329Y-97117989D01*
X126371967Y-97274751D01*
X126432475Y-97420830D01*
X126528729Y-97546271D01*
X126654170Y-97642525D01*
X126800249Y-97703033D01*
X126808437Y-97704111D01*
X126869811Y-97712191D01*
X126957011Y-97723671D01*
X126965199Y-97722593D01*
X127105585Y-97704111D01*
X127113773Y-97703033D01*
X127259852Y-97642525D01*
X127330307Y-97588463D01*
X127396527Y-97562863D01*
X127466076Y-97577128D01*
X127483714Y-97588462D01*
X127554170Y-97642525D01*
X127700249Y-97703033D01*
X127708437Y-97704111D01*
X127769811Y-97712191D01*
X127857011Y-97723671D01*
X127865199Y-97722593D01*
X128005585Y-97704111D01*
X128013773Y-97703033D01*
X128159852Y-97642525D01*
X128285293Y-97546271D01*
X128381547Y-97420830D01*
X128442055Y-97274751D01*
X128462693Y-97117989D01*
X128442055Y-96961227D01*
X128438835Y-96953452D01*
X128384707Y-96822778D01*
X128381547Y-96815148D01*
X128285293Y-96689707D01*
X128159852Y-96593453D01*
X128013773Y-96532945D01*
X127857011Y-96512307D01*
X127700249Y-96532945D01*
X127554170Y-96593453D01*
X127483715Y-96647515D01*
X127417495Y-96673115D01*
X127347946Y-96658850D01*
X127330307Y-96647515D01*
X127259852Y-96593453D01*
X127113773Y-96532945D01*
X126957011Y-96512307D01*
X126800249Y-96532945D01*
X126654170Y-96593453D01*
X126528729Y-96689707D01*
X126432475Y-96815148D01*
X126429315Y-96822778D01*
X126375188Y-96953452D01*
X126371967Y-96961227D01*
X126351329Y-97117989D01*
X117748259Y-97117989D01*
X117912796Y-96953452D01*
X117929620Y-96939334D01*
X117936832Y-96934284D01*
X117945858Y-96927964D01*
X117952179Y-96918937D01*
X117955233Y-96915883D01*
X117970155Y-96899080D01*
X117985018Y-96885797D01*
X118158619Y-96730658D01*
X118169665Y-96721849D01*
X118205740Y-96696253D01*
X118274430Y-96647515D01*
X118400744Y-96557891D01*
X118412707Y-96550374D01*
X118660691Y-96413319D01*
X118673415Y-96407191D01*
X118726653Y-96385139D01*
X118935195Y-96298758D01*
X118948516Y-96294097D01*
X119137345Y-96239696D01*
X119220789Y-96215656D01*
X119234564Y-96212512D01*
X119374231Y-96188781D01*
X119513903Y-96165050D01*
X119527935Y-96163469D01*
X119780289Y-96149297D01*
X119802708Y-96150627D01*
X119807040Y-96150627D01*
X119817895Y-96152541D01*
X119837416Y-96149099D01*
X119859295Y-96147185D01*
X134048600Y-96147185D01*
X134070479Y-96149099D01*
X134090000Y-96152541D01*
X134100855Y-96150627D01*
X134105187Y-96150627D01*
X134127607Y-96149297D01*
X134371003Y-96162966D01*
X134385035Y-96164546D01*
X134520284Y-96187526D01*
X134655529Y-96210506D01*
X134669304Y-96213650D01*
X134932949Y-96289605D01*
X134946286Y-96294272D01*
X135098660Y-96357387D01*
X135199770Y-96399268D01*
X135212493Y-96405395D01*
X135285300Y-96445634D01*
X135452624Y-96538111D01*
X135464588Y-96545628D01*
X135688355Y-96704399D01*
X135699402Y-96713209D01*
X135903979Y-96896030D01*
X135913970Y-96906021D01*
X136096791Y-97110598D01*
X136105601Y-97121645D01*
X136264372Y-97345412D01*
X136271889Y-97357376D01*
X136302742Y-97413200D01*
X136399607Y-97588463D01*
X136404603Y-97597503D01*
X136410732Y-97610230D01*
X136430929Y-97658990D01*
X136515728Y-97863714D01*
X136520395Y-97877051D01*
X136596350Y-98140696D01*
X136599494Y-98154471D01*
X136612213Y-98229329D01*
X136645273Y-98423898D01*
X136645453Y-98424960D01*
X136647034Y-98438997D01*
X136658913Y-98650511D01*
X136660703Y-98682391D01*
X136659373Y-98704813D01*
X136659373Y-98709145D01*
X136657459Y-98720000D01*
X136659373Y-98730855D01*
X136660901Y-98739520D01*
X136662815Y-98761400D01*
X136662815Y-107878600D01*
X136660901Y-107900479D01*
X136657459Y-107920000D01*
X136659373Y-107930856D01*
X136659373Y-107931785D01*
X136660474Y-107940439D01*
X136667598Y-108030954D01*
X136674639Y-108120414D01*
X136675793Y-108125221D01*
X136675794Y-108125227D01*
X136690119Y-108184895D01*
X136721569Y-108315892D01*
X136723462Y-108320463D01*
X136723463Y-108320465D01*
X136768118Y-108428271D01*
X136798502Y-108501623D01*
X136903541Y-108673031D01*
X137034102Y-108825898D01*
X137186969Y-108956459D01*
X137358377Y-109061498D01*
X137362952Y-109063393D01*
X137539535Y-109136537D01*
X137539537Y-109136538D01*
X137544108Y-109138431D01*
X137587219Y-109148781D01*
X137734773Y-109184206D01*
X137734779Y-109184207D01*
X137739586Y-109185361D01*
X137817283Y-109191476D01*
X137919561Y-109199526D01*
X137928215Y-109200627D01*
X137929144Y-109200627D01*
X137940000Y-109202541D01*
X137959521Y-109199099D01*
X137981400Y-109197185D01*
X149597354Y-109197185D01*
X149665475Y-109217187D01*
X149697316Y-109246481D01*
X149716689Y-109271729D01*
X149716692Y-109271732D01*
X149721718Y-109278282D01*
X149847159Y-109374536D01*
X149993238Y-109435044D01*
X150150000Y-109455682D01*
X150158188Y-109454604D01*
X150298574Y-109436122D01*
X150306762Y-109435044D01*
X150452841Y-109374536D01*
X150578282Y-109278282D01*
X150583308Y-109271732D01*
X150583311Y-109271729D01*
X150602684Y-109246481D01*
X150660022Y-109204614D01*
X150702646Y-109197185D01*
X162285143Y-109197185D01*
X162307023Y-109199099D01*
X162315688Y-109200627D01*
X162326543Y-109202541D01*
X162337399Y-109200627D01*
X162348421Y-109200627D01*
X162348421Y-109200822D01*
X162363514Y-109200096D01*
X162483237Y-109209518D01*
X162502764Y-109212611D01*
X162635253Y-109244419D01*
X162696822Y-109279771D01*
X162729505Y-109342798D01*
X162730760Y-109350486D01*
X162739956Y-109420337D01*
X162800464Y-109566416D01*
X162896718Y-109691857D01*
X163022159Y-109788111D01*
X163168238Y-109848619D01*
X163325000Y-109869257D01*
X163333188Y-109868179D01*
X163359774Y-109864679D01*
X163481762Y-109848619D01*
X163627841Y-109788111D01*
X163753282Y-109691857D01*
X163849536Y-109566416D01*
X163910044Y-109420337D01*
X163930682Y-109263575D01*
X163910044Y-109106813D01*
X163849536Y-108960734D01*
X163781029Y-108871454D01*
X163758305Y-108841839D01*
X163753282Y-108835293D01*
X163627841Y-108739039D01*
X163481762Y-108678531D01*
X163427088Y-108671333D01*
X163333188Y-108658971D01*
X163325000Y-108657893D01*
X163168238Y-108678531D01*
X163164728Y-108679985D01*
X163095818Y-108678344D01*
X163078456Y-108671333D01*
X163039933Y-108652336D01*
X163001210Y-108633240D01*
X162987606Y-108628622D01*
X162786745Y-108560439D01*
X162786742Y-108560438D01*
X162782838Y-108559113D01*
X162778799Y-108558310D01*
X162778793Y-108558308D01*
X162607293Y-108524195D01*
X162556658Y-108514123D01*
X162552552Y-108513854D01*
X162552545Y-108513853D01*
X162347690Y-108500427D01*
X162338948Y-108499373D01*
X162337396Y-108499373D01*
X162326541Y-108497459D01*
X162315686Y-108499373D01*
X162312261Y-108499977D01*
X162308008Y-108500727D01*
X162307021Y-108500901D01*
X162285141Y-108502815D01*
X150702646Y-108502815D01*
X150634525Y-108482813D01*
X150602684Y-108453519D01*
X150583311Y-108428271D01*
X150583308Y-108428268D01*
X150578282Y-108421718D01*
X150567557Y-108413488D01*
X150505177Y-108365623D01*
X150452841Y-108325464D01*
X150306762Y-108264956D01*
X150150000Y-108244318D01*
X149993238Y-108264956D01*
X149847159Y-108325464D01*
X149794823Y-108365623D01*
X149732444Y-108413488D01*
X149721718Y-108421718D01*
X149716692Y-108428268D01*
X149716689Y-108428271D01*
X149697316Y-108453519D01*
X149639978Y-108495386D01*
X149597354Y-108502815D01*
X137981400Y-108502815D01*
X137959520Y-108500901D01*
X137958534Y-108500727D01*
X137956832Y-108500427D01*
X137950856Y-108499373D01*
X137950855Y-108499373D01*
X137940000Y-108497459D01*
X137929142Y-108499374D01*
X137918121Y-108499374D01*
X137918121Y-108498225D01*
X137903398Y-108498691D01*
X137838047Y-108491327D01*
X137824415Y-108489791D01*
X137796914Y-108483514D01*
X137700520Y-108449785D01*
X137675105Y-108437545D01*
X137641917Y-108416691D01*
X137588640Y-108383215D01*
X137566581Y-108365623D01*
X137494377Y-108293419D01*
X137476785Y-108271360D01*
X137422455Y-108184895D01*
X137410215Y-108159480D01*
X137376486Y-108063086D01*
X137370209Y-108035585D01*
X137364440Y-107984391D01*
X137361309Y-107956602D01*
X137361775Y-107941879D01*
X137360626Y-107941879D01*
X137360626Y-107930858D01*
X137362541Y-107920000D01*
X137359099Y-107900479D01*
X137357185Y-107878600D01*
X137357185Y-105611425D01*
X149444318Y-105611425D01*
X149464956Y-105768187D01*
X149525464Y-105914266D01*
X149621718Y-106039707D01*
X149747159Y-106135961D01*
X149893238Y-106196469D01*
X150050000Y-106217107D01*
X150058188Y-106216029D01*
X150198574Y-106197547D01*
X150206762Y-106196469D01*
X150352841Y-106135961D01*
X150478282Y-106039707D01*
X150574536Y-105914266D01*
X150635044Y-105768187D01*
X150655682Y-105611425D01*
X150635044Y-105454663D01*
X150574536Y-105308584D01*
X150478282Y-105183143D01*
X150352841Y-105086889D01*
X150206762Y-105026381D01*
X150050000Y-105005743D01*
X149893238Y-105026381D01*
X149747159Y-105086889D01*
X149621718Y-105183143D01*
X149525464Y-105308584D01*
X149464956Y-105454663D01*
X149444318Y-105611425D01*
X137357185Y-105611425D01*
X137357185Y-104111425D01*
X140544318Y-104111425D01*
X140564956Y-104268187D01*
X140625464Y-104414266D01*
X140671210Y-104473883D01*
X140701290Y-104513084D01*
X140721718Y-104539707D01*
X140847159Y-104635961D01*
X140993238Y-104696469D01*
X141150000Y-104717107D01*
X141158188Y-104716029D01*
X141298574Y-104697547D01*
X141306762Y-104696469D01*
X141452841Y-104635961D01*
X141578282Y-104539707D01*
X141598711Y-104513084D01*
X141628790Y-104473883D01*
X141674536Y-104414266D01*
X141735044Y-104268187D01*
X141755682Y-104111425D01*
X141740167Y-103993575D01*
X162029370Y-103993575D01*
X162050008Y-104150337D01*
X162110516Y-104296416D01*
X162163047Y-104364876D01*
X162195091Y-104406636D01*
X162206770Y-104421857D01*
X162213316Y-104426880D01*
X162228523Y-104438549D01*
X162332211Y-104518111D01*
X162478290Y-104578619D01*
X162635052Y-104599257D01*
X162643240Y-104598179D01*
X162783626Y-104579697D01*
X162791814Y-104578619D01*
X162937893Y-104518111D01*
X163041581Y-104438549D01*
X163056788Y-104426880D01*
X163063334Y-104421857D01*
X163075014Y-104406636D01*
X163107057Y-104364876D01*
X163159588Y-104296416D01*
X163220096Y-104150337D01*
X163240734Y-103993575D01*
X163220096Y-103836813D01*
X163215116Y-103824789D01*
X163211564Y-103816214D01*
X163159588Y-103690734D01*
X163084060Y-103592304D01*
X163068357Y-103571839D01*
X163063334Y-103565293D01*
X162937893Y-103469039D01*
X162791814Y-103408531D01*
X162635052Y-103387893D01*
X162478290Y-103408531D01*
X162332211Y-103469039D01*
X162206770Y-103565293D01*
X162201747Y-103571839D01*
X162186044Y-103592304D01*
X162110516Y-103690734D01*
X162058540Y-103816214D01*
X162054989Y-103824789D01*
X162050008Y-103836813D01*
X162029370Y-103993575D01*
X141740167Y-103993575D01*
X141735044Y-103954663D01*
X141674536Y-103808584D01*
X141591394Y-103700231D01*
X141583305Y-103689689D01*
X141578282Y-103683143D01*
X141452841Y-103586889D01*
X141306762Y-103526381D01*
X141150000Y-103505743D01*
X140993238Y-103526381D01*
X140847159Y-103586889D01*
X140721718Y-103683143D01*
X140716695Y-103689689D01*
X140708606Y-103700231D01*
X140625464Y-103808584D01*
X140564956Y-103954663D01*
X140544318Y-104111425D01*
X137357185Y-104111425D01*
X137357185Y-98761400D01*
X137359099Y-98739520D01*
X137360627Y-98730856D01*
X137360627Y-98730855D01*
X137362541Y-98720000D01*
X137361300Y-98712963D01*
X137343747Y-98378018D01*
X137341780Y-98365595D01*
X137294902Y-98069627D01*
X137290175Y-98039782D01*
X137201542Y-97708999D01*
X137078819Y-97389292D01*
X136923349Y-97084165D01*
X136736836Y-96796961D01*
X136521324Y-96530826D01*
X136352778Y-96362280D01*
X136318752Y-96299968D01*
X136323817Y-96229153D01*
X136366364Y-96172317D01*
X136432884Y-96147506D01*
X136441873Y-96147185D01*
X154040350Y-96147185D01*
X154062229Y-96149099D01*
X154081750Y-96152541D01*
X154092606Y-96150627D01*
X154092607Y-96150627D01*
X154096022Y-96150025D01*
X154120991Y-96148149D01*
X154807111Y-96164992D01*
X154813288Y-96165295D01*
X155533850Y-96218447D01*
X155540005Y-96219054D01*
X155853142Y-96257675D01*
X156257063Y-96307494D01*
X156263141Y-96308395D01*
X156619097Y-96370160D01*
X156975034Y-96431921D01*
X156981080Y-96433123D01*
X157686072Y-96591434D01*
X157692004Y-96592921D01*
X158065401Y-96696253D01*
X158388350Y-96785625D01*
X158394268Y-96787420D01*
X159080311Y-97014058D01*
X159086134Y-97016142D01*
X159760218Y-97276165D01*
X159765931Y-97278532D01*
X160426427Y-97571310D01*
X160432018Y-97573954D01*
X161077371Y-97898798D01*
X161082825Y-97901713D01*
X161711461Y-98257830D01*
X161716746Y-98260997D01*
X162327172Y-98647545D01*
X162332307Y-98650977D01*
X162762010Y-98953608D01*
X162923014Y-99067000D01*
X162927981Y-99070684D01*
X163497559Y-99515187D01*
X163502340Y-99519111D01*
X164049417Y-99991023D01*
X164053999Y-99995176D01*
X164184313Y-100119245D01*
X164219857Y-100180703D01*
X164222353Y-100226946D01*
X164219318Y-100250000D01*
X164239956Y-100406762D01*
X164300464Y-100552841D01*
X164305491Y-100559392D01*
X164386012Y-100664329D01*
X164396718Y-100678282D01*
X164522159Y-100774536D01*
X164668238Y-100835044D01*
X164825000Y-100855682D01*
X164833188Y-100854604D01*
X164973574Y-100836122D01*
X164981762Y-100835044D01*
X165127841Y-100774536D01*
X165253282Y-100678282D01*
X165263989Y-100664329D01*
X165344509Y-100559392D01*
X165349536Y-100552841D01*
X165410044Y-100406762D01*
X165430682Y-100250000D01*
X165410044Y-100093238D01*
X165349536Y-99947159D01*
X165281059Y-99857918D01*
X165258305Y-99828264D01*
X165253282Y-99821718D01*
X165127841Y-99725464D01*
X164981762Y-99664956D01*
X164825000Y-99644318D01*
X164816811Y-99645396D01*
X164816810Y-99645396D01*
X164773989Y-99651033D01*
X164703840Y-99640093D01*
X164670662Y-99617366D01*
X164590268Y-99540825D01*
X164521212Y-99475078D01*
X163943468Y-98976712D01*
X163341965Y-98507295D01*
X162718154Y-98067958D01*
X162716867Y-98067143D01*
X162716855Y-98067135D01*
X162074859Y-97660595D01*
X162074855Y-97660592D01*
X162073537Y-97659758D01*
X161726042Y-97462905D01*
X161411009Y-97284441D01*
X161411002Y-97284437D01*
X161409667Y-97283681D01*
X160728144Y-96940631D01*
X160176838Y-96696253D01*
X160032006Y-96632053D01*
X160031997Y-96632049D01*
X160030609Y-96631434D01*
X160029204Y-96630892D01*
X160029187Y-96630885D01*
X159548940Y-96445634D01*
X159318742Y-96356837D01*
X158594259Y-96117500D01*
X158592782Y-96117091D01*
X158592768Y-96117087D01*
X158194169Y-96006781D01*
X157858905Y-95914001D01*
X157114452Y-95746828D01*
X156362692Y-95616385D01*
X155605438Y-95522987D01*
X154844513Y-95466858D01*
X154553647Y-95459718D01*
X154093862Y-95448430D01*
X154093861Y-95448430D01*
X154086191Y-95448242D01*
X154081750Y-95447459D01*
X154070895Y-95449373D01*
X154062230Y-95450901D01*
X154040350Y-95452815D01*
X134178852Y-95452815D01*
X134172258Y-95452642D01*
X134104959Y-95449115D01*
X134104958Y-95449115D01*
X134097037Y-95448700D01*
X134090000Y-95447459D01*
X134079145Y-95449373D01*
X134079144Y-95449373D01*
X134070480Y-95450901D01*
X134048600Y-95452815D01*
X119859295Y-95452815D01*
X119837415Y-95450901D01*
X119828750Y-95449373D01*
X119817895Y-95447459D01*
X119807526Y-95449287D01*
X119805775Y-95449373D01*
X119802318Y-95449373D01*
X119799626Y-95449675D01*
X119492508Y-95464763D01*
X119492504Y-95464763D01*
X119489418Y-95464915D01*
X119475551Y-95466972D01*
X119167170Y-95512716D01*
X119167166Y-95512717D01*
X119164104Y-95513171D01*
X119161105Y-95513922D01*
X119161101Y-95513923D01*
X119003150Y-95553488D01*
X118845086Y-95593081D01*
X118842189Y-95594118D01*
X118842181Y-95594120D01*
X118756468Y-95624789D01*
X118535438Y-95703875D01*
X118532655Y-95705191D01*
X118532646Y-95705195D01*
X118240922Y-95843171D01*
X118238140Y-95844487D01*
X118235498Y-95846070D01*
X118235499Y-95846070D01*
X117958706Y-96011972D01*
X117958696Y-96011978D01*
X117956056Y-96013561D01*
X117953571Y-96015404D01*
X117751773Y-96165068D01*
X117691902Y-96209471D01*
X117670186Y-96229153D01*
X117461783Y-96418038D01*
X117459653Y-96419738D01*
X117457191Y-96422200D01*
X117455918Y-96423354D01*
X117447290Y-96429396D01*
X117440969Y-96438424D01*
X117435920Y-96445634D01*
X117421802Y-96462458D01*
X116052097Y-97832164D01*
X116035277Y-97846279D01*
X116019034Y-97857652D01*
X116012712Y-97866680D01*
X116011110Y-97868282D01*
X116005171Y-97875723D01*
X115981615Y-97901713D01*
X115829427Y-98069627D01*
X115827583Y-98072113D01*
X115827580Y-98072117D01*
X115723180Y-98212885D01*
X115660068Y-98297982D01*
X115658485Y-98300623D01*
X115658479Y-98300632D01*
X115567005Y-98453248D01*
X115513907Y-98541837D01*
X115512593Y-98544616D01*
X115512591Y-98544619D01*
X115393671Y-98796053D01*
X115393667Y-98796062D01*
X115392351Y-98798845D01*
X115357132Y-98897275D01*
X115297612Y-99063621D01*
X115297609Y-99063630D01*
X115296572Y-99066529D01*
X115295822Y-99069525D01*
X115295820Y-99069530D01*
X115254265Y-99235429D01*
X115227492Y-99342312D01*
X115225962Y-99341929D01*
X115195924Y-99399412D01*
X115181920Y-99411922D01*
X115126214Y-99454667D01*
X115094218Y-99479218D01*
X115089195Y-99485764D01*
X115071644Y-99508637D01*
X114997964Y-99604659D01*
X114937456Y-99750738D01*
X114916818Y-99907500D01*
X108430062Y-99907500D01*
X107064905Y-98542343D01*
X107030879Y-98480031D01*
X107028000Y-98453248D01*
X107028000Y-96263684D01*
X107037591Y-96215466D01*
X107091884Y-96084392D01*
X107091885Y-96084389D01*
X107095044Y-96076762D01*
X107115682Y-95920000D01*
X107095044Y-95763238D01*
X107034536Y-95617159D01*
X106938282Y-95491718D01*
X106812841Y-95395464D01*
X106666762Y-95334956D01*
X106510000Y-95314318D01*
X106353238Y-95334956D01*
X106207159Y-95395464D01*
X106081718Y-95491718D01*
X105985464Y-95617159D01*
X105924956Y-95763238D01*
X105904318Y-95920000D01*
X93165787Y-95920000D01*
X93167396Y-95913997D01*
X93241974Y-95694298D01*
X93248281Y-95679071D01*
X93325252Y-95522987D01*
X93350900Y-95470979D01*
X93359139Y-95456708D01*
X93361741Y-95452815D01*
X93438380Y-95338116D01*
X93488038Y-95263798D01*
X93498071Y-95250722D01*
X93651052Y-95076281D01*
X93662706Y-95064627D01*
X93837147Y-94911646D01*
X93850223Y-94901613D01*
X93947252Y-94836780D01*
X94043137Y-94772712D01*
X94057404Y-94764475D01*
X94163953Y-94711931D01*
X94265496Y-94661856D01*
X94280723Y-94655549D01*
X94470822Y-94591019D01*
X94500425Y-94580970D01*
X94516339Y-94576706D01*
X94630122Y-94554073D01*
X94743902Y-94531441D01*
X94760242Y-94529290D01*
X94986821Y-94514439D01*
X94986832Y-94514602D01*
X94987108Y-94514532D01*
X95000000Y-94518721D01*
X95015838Y-94513575D01*
X162981122Y-94513575D01*
X163002028Y-94515322D01*
G37*
%TD.AperFunction*%
%TD*%
%TA.AperFunction,Conductor*%
%TO.N,GND*%
G36*
X192332121Y-106120002D02*
G01*
X192378614Y-106173658D01*
X192390000Y-106226000D01*
X192390000Y-109743378D01*
X192369998Y-109811499D01*
X192316342Y-109857992D01*
X192284847Y-109867641D01*
X174237868Y-112895324D01*
X174237867Y-112895325D01*
X174220000Y-112898322D01*
X174210000Y-112900000D01*
X174210000Y-106100000D01*
X192264000Y-106100000D01*
X192332121Y-106120002D01*
G37*
%TD.AperFunction*%
%TD*%
M02*
