%FSLAX45Y45*%
G04 Gerber Fmt 4.5, Leading zero omitted, Abs format (unit mm)*
G04 Created by KiCad (PCBNEW (6.0.2)) date 2022-06-19 20:52:34*
%MOMM*%
%LPD*%
G01*
G04 APERTURE LIST*
%TA.AperFunction,Profile*%
%ADD10C,0.100000*%
%TD*%
%ADD11C,0.200000*%
G04 APERTURE END LIST*
D10*
X19250000Y-9937715D02*
X19250000Y-10985000D01*
X9500000Y-9441358D02*
X16300000Y-9441358D01*
X9500000Y-11481357D02*
X16300000Y-11481357D01*
X9300000Y-11281357D02*
X9300000Y-9641358D01*
X16300000Y-9441358D02*
X19250000Y-9937715D01*
X16300000Y-11481357D02*
X19250000Y-10985000D01*
X9300000Y-11281357D02*
G75*
G03*
X9500000Y-11481357I200000J0D01*
G01*
X9500000Y-9441358D02*
G75*
G03*
X9300000Y-9641358I0J-200000D01*
G01*
D11*
X9552619Y-11796834D02*
X9552619Y-11596834D01*
X9600238Y-11596834D01*
X9628810Y-11606357D01*
X9647857Y-11625405D01*
X9657381Y-11644453D01*
X9666905Y-11682548D01*
X9666905Y-11711119D01*
X9657381Y-11749215D01*
X9647857Y-11768262D01*
X9628810Y-11787310D01*
X9600238Y-11796834D01*
X9552619Y-11796834D01*
X9752619Y-11796834D02*
X9752619Y-11663500D01*
X9752619Y-11701595D02*
X9762143Y-11682548D01*
X9771667Y-11673024D01*
X9790714Y-11663500D01*
X9809762Y-11663500D01*
X9876429Y-11796834D02*
X9876429Y-11663500D01*
X9876429Y-11596834D02*
X9866905Y-11606357D01*
X9876429Y-11615881D01*
X9885952Y-11606357D01*
X9876429Y-11596834D01*
X9876429Y-11615881D01*
X10000238Y-11796834D02*
X9981190Y-11787310D01*
X9971667Y-11768262D01*
X9971667Y-11596834D01*
X10105000Y-11796834D02*
X10085952Y-11787310D01*
X10076429Y-11768262D01*
X10076429Y-11596834D01*
X10333571Y-11796834D02*
X10333571Y-11596834D01*
X10400238Y-11739691D01*
X10466905Y-11596834D01*
X10466905Y-11796834D01*
X10647857Y-11796834D02*
X10647857Y-11692072D01*
X10638333Y-11673024D01*
X10619286Y-11663500D01*
X10581190Y-11663500D01*
X10562143Y-11673024D01*
X10647857Y-11787310D02*
X10628810Y-11796834D01*
X10581190Y-11796834D01*
X10562143Y-11787310D01*
X10552619Y-11768262D01*
X10552619Y-11749215D01*
X10562143Y-11730167D01*
X10581190Y-11720643D01*
X10628810Y-11720643D01*
X10647857Y-11711119D01*
X10743095Y-11663500D02*
X10743095Y-11863500D01*
X10743095Y-11673024D02*
X10762143Y-11663500D01*
X10800238Y-11663500D01*
X10819286Y-11673024D01*
X10828810Y-11682548D01*
X10838333Y-11701595D01*
X10838333Y-11758738D01*
X10828810Y-11777786D01*
X10819286Y-11787310D01*
X10800238Y-11796834D01*
X10762143Y-11796834D01*
X10743095Y-11787310D01*
X10924048Y-11777786D02*
X10933571Y-11787310D01*
X10924048Y-11796834D01*
X10914524Y-11787310D01*
X10924048Y-11777786D01*
X10924048Y-11796834D01*
X10924048Y-11673024D02*
X10933571Y-11682548D01*
X10924048Y-11692072D01*
X10914524Y-11682548D01*
X10924048Y-11673024D01*
X10924048Y-11692072D01*
M02*
