%TF.GenerationSoftware,KiCad,Pcbnew,(6.0.2)*%
%TF.CreationDate,2022-06-19T20:51:39-07:00*%
%TF.ProjectId,peregrine,70657265-6772-4696-9e65-2e6b69636164,5*%
%TF.SameCoordinates,Original*%
%TF.FileFunction,Soldermask,Top*%
%TF.FilePolarity,Negative*%
%FSLAX46Y46*%
G04 Gerber Fmt 4.6, Leading zero omitted, Abs format (unit mm)*
G04 Created by KiCad (PCBNEW (6.0.2)) date 2022-06-19 20:51:39*
%MOMM*%
%LPD*%
G01*
G04 APERTURE LIST*
G04 Aperture macros list*
%AMRoundRect*
0 Rectangle with rounded corners*
0 $1 Rounding radius*
0 $2 $3 $4 $5 $6 $7 $8 $9 X,Y pos of 4 corners*
0 Add a 4 corners polygon primitive as box body*
4,1,4,$2,$3,$4,$5,$6,$7,$8,$9,$2,$3,0*
0 Add four circle primitives for the rounded corners*
1,1,$1+$1,$2,$3*
1,1,$1+$1,$4,$5*
1,1,$1+$1,$6,$7*
1,1,$1+$1,$8,$9*
0 Add four rect primitives between the rounded corners*
20,1,$1+$1,$2,$3,$4,$5,0*
20,1,$1+$1,$4,$5,$6,$7,0*
20,1,$1+$1,$6,$7,$8,$9,0*
20,1,$1+$1,$8,$9,$2,$3,0*%
%AMOutline5P*
0 Free polygon, 5 corners , with rotation*
0 The origin of the aperture is its center*
0 number of corners: always 5*
0 $1 to $10 corner X, Y*
0 $11 Rotation angle, in degrees counterclockwise*
0 create outline with 5 corners*
4,1,5,$1,$2,$3,$4,$5,$6,$7,$8,$9,$10,$1,$2,$11*%
%AMOutline6P*
0 Free polygon, 6 corners , with rotation*
0 The origin of the aperture is its center*
0 number of corners: always 6*
0 $1 to $12 corner X, Y*
0 $13 Rotation angle, in degrees counterclockwise*
0 create outline with 6 corners*
4,1,6,$1,$2,$3,$4,$5,$6,$7,$8,$9,$10,$11,$12,$1,$2,$13*%
%AMOutline7P*
0 Free polygon, 7 corners , with rotation*
0 The origin of the aperture is its center*
0 number of corners: always 7*
0 $1 to $14 corner X, Y*
0 $15 Rotation angle, in degrees counterclockwise*
0 create outline with 7 corners*
4,1,7,$1,$2,$3,$4,$5,$6,$7,$8,$9,$10,$11,$12,$13,$14,$1,$2,$15*%
%AMOutline8P*
0 Free polygon, 8 corners , with rotation*
0 The origin of the aperture is its center*
0 number of corners: always 8*
0 $1 to $16 corner X, Y*
0 $17 Rotation angle, in degrees counterclockwise*
0 create outline with 8 corners*
4,1,8,$1,$2,$3,$4,$5,$6,$7,$8,$9,$10,$11,$12,$13,$14,$15,$16,$1,$2,$17*%
%AMFreePoly0*
4,1,9,3.862500,-0.866500,0.737500,-0.866500,0.737500,-0.450000,-0.737500,-0.450000,-0.737500,0.450000,0.737500,0.450000,0.737500,0.866500,3.862500,0.866500,3.862500,-0.866500,3.862500,-0.866500,$1*%
G04 Aperture macros list end*
%ADD10C,0.150000*%
%ADD11R,2.500000X1.800000*%
%ADD12R,1.300000X0.900000*%
%ADD13FreePoly0,180.000000*%
%ADD14R,1.500000X1.500000*%
%ADD15RoundRect,0.150000X0.150000X-0.587500X0.150000X0.587500X-0.150000X0.587500X-0.150000X-0.587500X0*%
%ADD16RoundRect,0.237500X-0.237500X0.287500X-0.237500X-0.287500X0.237500X-0.287500X0.237500X0.287500X0*%
%ADD17RoundRect,0.237500X-0.287500X-0.237500X0.287500X-0.237500X0.287500X0.237500X-0.287500X0.237500X0*%
%ADD18RoundRect,0.250000X-0.337500X-0.475000X0.337500X-0.475000X0.337500X0.475000X-0.337500X0.475000X0*%
%ADD19RoundRect,0.250000X0.475000X-0.337500X0.475000X0.337500X-0.475000X0.337500X-0.475000X-0.337500X0*%
%ADD20RoundRect,0.237500X-0.250000X-0.237500X0.250000X-0.237500X0.250000X0.237500X-0.250000X0.237500X0*%
%ADD21RoundRect,0.237500X0.287500X0.237500X-0.287500X0.237500X-0.287500X-0.237500X0.287500X-0.237500X0*%
%ADD22R,1.700000X1.700000*%
%ADD23O,1.700000X1.700000*%
%ADD24RoundRect,0.160000X0.197500X0.160000X-0.197500X0.160000X-0.197500X-0.160000X0.197500X-0.160000X0*%
%ADD25R,1.560000X0.650000*%
%ADD26RoundRect,0.237500X0.237500X-0.250000X0.237500X0.250000X-0.237500X0.250000X-0.237500X-0.250000X0*%
%ADD27RoundRect,0.237500X-0.237500X0.300000X-0.237500X-0.300000X0.237500X-0.300000X0.237500X0.300000X0*%
%ADD28R,2.000000X1.800000*%
%ADD29C,1.000000*%
%ADD30RoundRect,0.100000X0.100000X-0.637500X0.100000X0.637500X-0.100000X0.637500X-0.100000X-0.637500X0*%
%ADD31R,2.700000X1.000000*%
%ADD32RoundRect,0.237500X0.250000X0.237500X-0.250000X0.237500X-0.250000X-0.237500X0.250000X-0.237500X0*%
%ADD33RoundRect,0.237500X0.300000X0.237500X-0.300000X0.237500X-0.300000X-0.237500X0.300000X-0.237500X0*%
%ADD34RoundRect,0.237500X0.237500X-0.300000X0.237500X0.300000X-0.237500X0.300000X-0.237500X-0.300000X0*%
%ADD35Outline5P,-0.500000X2.300000X0.000000X2.800000X0.500000X2.300000X0.500000X-2.800000X-0.500000X-2.800000X90.000000*%
%ADD36R,4.900000X1.600000*%
%ADD37R,1.500000X0.400000*%
%ADD38O,1.500000X4.150000*%
%ADD39O,3.650000X1.500000*%
G04 APERTURE END LIST*
D10*
X179100000Y-103900000D02*
X180900000Y-103900000D01*
X180900000Y-103900000D02*
X180900000Y-105350000D01*
X180900000Y-105350000D02*
X179100000Y-105350000D01*
X179100000Y-105350000D02*
X179100000Y-103900000D01*
G36*
X179100000Y-103900000D02*
G01*
X180900000Y-103900000D01*
X180900000Y-105350000D01*
X179100000Y-105350000D01*
X179100000Y-103900000D01*
G37*
X189000000Y-104200000D02*
X189000000Y-105050000D01*
X189000000Y-105050000D02*
X188250000Y-105450000D01*
X188250000Y-105450000D02*
X188250000Y-103790000D01*
X188250000Y-103790000D02*
X189000000Y-104200000D01*
G36*
X189000000Y-104200000D02*
G01*
X189000000Y-105050000D01*
X188250000Y-105450000D01*
X188250000Y-103790000D01*
X189000000Y-104200000D01*
G37*
X189000000Y-104200000D02*
X189000000Y-105050000D01*
X188250000Y-105450000D01*
X188250000Y-103790000D01*
X189000000Y-104200000D01*
X176980000Y-103900000D02*
X176300000Y-103900000D01*
X176300000Y-103900000D02*
X176980000Y-103280000D01*
X176980000Y-103280000D02*
X176980000Y-103900000D01*
G36*
X176980000Y-103900000D02*
G01*
X176300000Y-103900000D01*
X176980000Y-103280000D01*
X176980000Y-103900000D01*
G37*
X176980000Y-103900000D02*
X176300000Y-103900000D01*
X176980000Y-103280000D01*
X176980000Y-103900000D01*
X150610000Y-106400000D02*
X149710000Y-106400000D01*
X149710000Y-106400000D02*
X149710000Y-114750000D01*
X149710000Y-114750000D02*
X150610000Y-114750000D01*
X150610000Y-114750000D02*
X150610000Y-106400000D01*
G36*
X150610000Y-106400000D02*
G01*
X149710000Y-106400000D01*
X149710000Y-114750000D01*
X150610000Y-114750000D01*
X150610000Y-106400000D01*
G37*
X171325000Y-106063575D02*
X168025000Y-106063575D01*
X168025000Y-106063575D02*
X168025000Y-103263575D01*
X168025000Y-103263575D02*
X171325000Y-103263575D01*
X171325000Y-103263575D02*
X171325000Y-106063575D01*
G36*
X171325000Y-106063575D02*
G01*
X168025000Y-106063575D01*
X168025000Y-103263575D01*
X171325000Y-103263575D01*
X171325000Y-106063575D01*
G37*
X149710000Y-113870000D02*
X163010000Y-113870000D01*
X163010000Y-113870000D02*
X163010000Y-114750000D01*
X163010000Y-114750000D02*
X149710000Y-114750000D01*
X149710000Y-114750000D02*
X149710000Y-113870000D01*
G36*
X149710000Y-113870000D02*
G01*
X163010000Y-113870000D01*
X163010000Y-114750000D01*
X149710000Y-114750000D01*
X149710000Y-113870000D01*
G37*
X176300000Y-105350000D02*
X177300000Y-105350000D01*
X177300000Y-105350000D02*
X177300000Y-103900000D01*
X177300000Y-103900000D02*
X176300000Y-103900000D01*
X176300000Y-103900000D02*
X176300000Y-105350000D01*
G36*
X176300000Y-105350000D02*
G01*
X177300000Y-105350000D01*
X177300000Y-103900000D01*
X176300000Y-103900000D01*
X176300000Y-105350000D01*
G37*
X176980000Y-105350000D02*
X176980000Y-106020000D01*
X176980000Y-106020000D02*
X176300000Y-105350000D01*
X176300000Y-105350000D02*
X176980000Y-105350000D01*
G36*
X176980000Y-106020000D02*
G01*
X176300000Y-105350000D01*
X176980000Y-105350000D01*
X176980000Y-106020000D01*
G37*
X176980000Y-106020000D02*
X176300000Y-105350000D01*
X176980000Y-105350000D01*
X176980000Y-106020000D01*
X183390000Y-103280000D02*
X188250000Y-103790000D01*
X188250000Y-103790000D02*
X176980000Y-103800000D01*
X176980000Y-103800000D02*
X176980000Y-103280000D01*
X176980000Y-103280000D02*
X182710000Y-103280000D01*
X182710000Y-103280000D02*
X183390000Y-103280000D01*
G36*
X188250000Y-103790000D02*
G01*
X176980000Y-103800000D01*
X176980000Y-103280000D01*
X183390000Y-103280000D01*
X188250000Y-103790000D01*
G37*
X188250000Y-103790000D02*
X176980000Y-103800000D01*
X176980000Y-103280000D01*
X183390000Y-103280000D01*
X188250000Y-103790000D01*
X192160000Y-99360000D02*
X163000000Y-94440000D01*
X163000000Y-94440000D02*
X163000000Y-95330000D01*
X163000000Y-95330000D02*
X192160000Y-100400000D01*
X192160000Y-100400000D02*
X192160000Y-99360000D01*
G36*
X192160000Y-99360000D02*
G01*
X192160000Y-100400000D01*
X163000000Y-95330000D01*
X163000000Y-94440000D01*
X192160000Y-99360000D01*
G37*
X192160000Y-99360000D02*
X192160000Y-100400000D01*
X163000000Y-95330000D01*
X163000000Y-94440000D01*
X192160000Y-99360000D01*
X188250000Y-105450000D02*
X182710000Y-105450000D01*
X182710000Y-105450000D02*
X182710000Y-103790000D01*
X182710000Y-103790000D02*
X188250000Y-103790000D01*
X188250000Y-103790000D02*
X188250000Y-105450000D01*
G36*
X188250000Y-105450000D02*
G01*
X182710000Y-105450000D01*
X182710000Y-103790000D01*
X188250000Y-103790000D01*
X188250000Y-105450000D01*
G37*
X188250000Y-105450000D02*
X182710000Y-105450000D01*
X182710000Y-103790000D01*
X188250000Y-103790000D01*
X188250000Y-105450000D01*
X183390000Y-106020000D02*
X188250000Y-105450000D01*
X188250000Y-105450000D02*
X176980000Y-105450000D01*
X176980000Y-105450000D02*
X176980000Y-106020000D01*
X176980000Y-106020000D02*
X182739983Y-106020624D01*
X182739983Y-106020624D02*
X183390000Y-106020000D01*
G36*
X183390000Y-106020000D02*
G01*
X182739983Y-106020624D01*
X176980000Y-106020000D01*
X176980000Y-105450000D01*
X188250000Y-105450000D01*
X183390000Y-106020000D01*
G37*
X183390000Y-106020000D02*
X182739983Y-106020624D01*
X176980000Y-106020000D01*
X176980000Y-105450000D01*
X188250000Y-105450000D01*
X183390000Y-106020000D01*
X150610000Y-94440000D02*
X149700000Y-94440000D01*
X149700000Y-94440000D02*
X149700000Y-104800000D01*
X149700000Y-104800000D02*
X150610000Y-104800000D01*
X150610000Y-104800000D02*
X150610000Y-94440000D01*
G36*
X150610000Y-94440000D02*
G01*
X149700000Y-94440000D01*
X149700000Y-104800000D01*
X150610000Y-104800000D01*
X150610000Y-94440000D01*
G37*
X168525000Y-103263575D02*
X168525000Y-103263575D01*
X168525000Y-103263575D02*
X168525000Y-103263575D01*
X168525000Y-103263575D02*
X168525000Y-103263575D01*
X168525000Y-103263575D02*
X168525000Y-103263575D01*
X149700000Y-94440000D02*
X163000000Y-94440000D01*
X163000000Y-94440000D02*
X163000000Y-95330000D01*
X163000000Y-95330000D02*
X149700000Y-95330000D01*
X149700000Y-95330000D02*
X149700000Y-94440000D01*
G36*
X149700000Y-94440000D02*
G01*
X163000000Y-94440000D01*
X163000000Y-95330000D01*
X149700000Y-95330000D01*
X149700000Y-94440000D01*
G37*
X192160000Y-109830000D02*
X163010000Y-114750000D01*
X163010000Y-114750000D02*
X163010070Y-113860402D01*
X163010070Y-113860402D02*
X192160070Y-108800402D01*
X192160070Y-108800402D02*
X192160000Y-109830000D01*
G36*
X192160000Y-109830000D02*
G01*
X163010000Y-114750000D01*
X163010070Y-113860402D01*
X192160070Y-108800402D01*
X192160000Y-109830000D01*
G37*
X192160000Y-109830000D02*
X163010000Y-114750000D01*
X163010070Y-113860402D01*
X192160070Y-108800402D01*
X192160000Y-109830000D01*
%TO.C,G\u002A\u002A\u002A*%
G36*
X153995773Y-95661702D02*
G01*
X154088334Y-95668208D01*
X154166746Y-95678014D01*
X154225041Y-95690268D01*
X154257252Y-95704122D01*
X154261714Y-95711554D01*
X154248684Y-95726423D01*
X154208479Y-95746149D01*
X154139423Y-95771325D01*
X154039842Y-95802547D01*
X153908062Y-95840410D01*
X153867340Y-95851685D01*
X153736722Y-95889051D01*
X153636140Y-95921576D01*
X153561203Y-95951292D01*
X153507519Y-95980234D01*
X153470699Y-96010435D01*
X153446350Y-96043928D01*
X153444452Y-96047498D01*
X153426763Y-96092907D01*
X153430084Y-96132540D01*
X153437721Y-96153318D01*
X153462259Y-96192194D01*
X153504361Y-96228009D01*
X153567709Y-96262551D01*
X153655985Y-96297604D01*
X153772869Y-96334957D01*
X153867050Y-96361620D01*
X154004275Y-96400468D01*
X154110298Y-96433955D01*
X154188351Y-96463561D01*
X154241668Y-96490770D01*
X154273479Y-96517062D01*
X154287018Y-96543918D01*
X154288044Y-96554576D01*
X154280475Y-96582221D01*
X154255619Y-96608741D01*
X154210250Y-96635619D01*
X154141145Y-96664341D01*
X154045077Y-96696389D01*
X153918824Y-96733249D01*
X153871306Y-96746361D01*
X153740072Y-96783602D01*
X153638896Y-96816007D01*
X153563401Y-96845590D01*
X153509212Y-96874364D01*
X153471953Y-96904341D01*
X153447249Y-96937535D01*
X153444452Y-96942729D01*
X153426763Y-96988139D01*
X153430084Y-97027771D01*
X153437721Y-97048549D01*
X153462259Y-97087425D01*
X153504361Y-97123241D01*
X153567709Y-97157782D01*
X153655985Y-97192836D01*
X153772869Y-97230188D01*
X153867050Y-97256852D01*
X154004275Y-97295700D01*
X154110298Y-97329186D01*
X154188351Y-97358793D01*
X154241668Y-97386002D01*
X154273479Y-97412293D01*
X154287018Y-97439150D01*
X154288044Y-97449808D01*
X154280475Y-97477452D01*
X154255619Y-97503972D01*
X154210250Y-97530851D01*
X154141145Y-97559572D01*
X154045077Y-97591621D01*
X153918824Y-97628481D01*
X153871306Y-97641593D01*
X153740072Y-97678833D01*
X153638896Y-97711239D01*
X153563401Y-97740822D01*
X153509212Y-97769595D01*
X153471953Y-97799573D01*
X153447249Y-97832766D01*
X153444452Y-97837961D01*
X153426763Y-97883370D01*
X153430084Y-97923003D01*
X153437721Y-97943781D01*
X153462433Y-97982829D01*
X153504921Y-98018849D01*
X153568861Y-98053636D01*
X153657928Y-98088986D01*
X153775799Y-98126693D01*
X153863085Y-98151528D01*
X154004131Y-98191341D01*
X154112625Y-98224320D01*
X154190323Y-98251087D01*
X154238980Y-98272264D01*
X154260351Y-98288474D01*
X154261714Y-98292830D01*
X154245156Y-98307174D01*
X154199460Y-98320353D01*
X154130594Y-98331517D01*
X154044527Y-98339817D01*
X153947226Y-98344404D01*
X153895033Y-98345039D01*
X153677873Y-98328480D01*
X153472100Y-98280153D01*
X153280326Y-98202082D01*
X153105164Y-98096289D01*
X152949227Y-97964799D01*
X152815127Y-97809636D01*
X152705477Y-97632823D01*
X152622890Y-97436385D01*
X152594023Y-97337290D01*
X152570483Y-97204818D01*
X152559713Y-97054000D01*
X152561693Y-96898556D01*
X152576407Y-96752209D01*
X152594945Y-96659897D01*
X152664921Y-96455731D01*
X152763183Y-96270195D01*
X152887078Y-96105332D01*
X153033951Y-95963184D01*
X153201147Y-95845795D01*
X153386013Y-95755208D01*
X153585892Y-95693465D01*
X153798132Y-95662609D01*
X153895033Y-95659345D01*
X153995773Y-95661702D01*
G37*
G36*
X154512831Y-95796517D02*
G01*
X154697831Y-95907496D01*
X154858416Y-96042647D01*
X154993146Y-96199599D01*
X155100580Y-96375980D01*
X155179278Y-96569415D01*
X155227801Y-96777535D01*
X155244707Y-96997965D01*
X155244713Y-97002192D01*
X155228412Y-97222830D01*
X155180467Y-97431201D01*
X155102321Y-97624933D01*
X154995411Y-97801654D01*
X154861179Y-97958992D01*
X154701065Y-98094573D01*
X154516509Y-98206026D01*
X154512831Y-98207867D01*
X154368994Y-98279594D01*
X154314406Y-98233661D01*
X154264320Y-98203258D01*
X154181227Y-98168014D01*
X154066806Y-98128514D01*
X153922735Y-98085345D01*
X153774173Y-98045153D01*
X153657862Y-98009027D01*
X153576526Y-97970654D01*
X153530165Y-97930830D01*
X153518779Y-97890349D01*
X153542368Y-97850006D01*
X153600933Y-97810598D01*
X153694472Y-97772919D01*
X153774173Y-97749694D01*
X153933911Y-97706787D01*
X154062400Y-97668883D01*
X154162943Y-97634766D01*
X154238845Y-97603220D01*
X154293407Y-97573031D01*
X154326653Y-97546361D01*
X154370067Y-97492206D01*
X154381611Y-97443742D01*
X154361889Y-97393322D01*
X154340940Y-97365521D01*
X154307064Y-97333514D01*
X154259055Y-97303456D01*
X154192622Y-97273605D01*
X154103472Y-97242220D01*
X153987312Y-97207559D01*
X153879490Y-97178261D01*
X153761844Y-97146094D01*
X153673563Y-97119030D01*
X153609628Y-97095086D01*
X153565017Y-97072284D01*
X153534710Y-97048643D01*
X153525611Y-97038680D01*
X153511078Y-96999964D01*
X153530729Y-96961213D01*
X153583647Y-96923100D01*
X153668915Y-96886298D01*
X153777267Y-96853628D01*
X153937080Y-96810690D01*
X154065585Y-96772673D01*
X154166045Y-96738374D01*
X154241721Y-96706591D01*
X154295876Y-96676121D01*
X154326653Y-96651130D01*
X154370067Y-96596974D01*
X154381611Y-96548511D01*
X154361889Y-96498091D01*
X154340940Y-96470289D01*
X154307119Y-96438322D01*
X154259208Y-96408304D01*
X154192915Y-96378493D01*
X154103948Y-96347149D01*
X153988015Y-96312530D01*
X153878899Y-96282872D01*
X153770988Y-96253782D01*
X153691178Y-96230459D01*
X153633396Y-96210621D01*
X153591571Y-96191986D01*
X153559630Y-96172273D01*
X153537630Y-96154645D01*
X153510078Y-96117852D01*
X153516761Y-96081934D01*
X153538272Y-96057690D01*
X153583421Y-96026740D01*
X153651021Y-95996837D01*
X153745551Y-95966253D01*
X153841067Y-95940760D01*
X153993164Y-95899883D01*
X154121192Y-95859698D01*
X154222086Y-95821308D01*
X154292779Y-95785822D01*
X154315960Y-95769415D01*
X154368994Y-95724790D01*
X154512831Y-95796517D01*
G37*
%TD*%
D11*
%TO.C,D1*%
X96010000Y-108720000D03*
X100010000Y-108720000D03*
%TD*%
D12*
%TO.C,U5*%
X107897500Y-106720000D03*
D13*
X107810000Y-108220000D03*
D12*
X107897500Y-109720000D03*
%TD*%
D14*
%TO.C,TP10*%
X95810000Y-111920000D03*
%TD*%
%TO.C,TP9*%
X100210000Y-111920000D03*
%TD*%
D15*
%TO.C,Q1*%
X104460000Y-103157500D03*
X106360000Y-103157500D03*
X105410000Y-101282500D03*
%TD*%
D16*
%TO.C,FB4*%
X114610000Y-98995000D03*
X114610000Y-97245000D03*
%TD*%
D17*
%TO.C,FB3*%
X111985000Y-107820000D03*
X110235000Y-107820000D03*
%TD*%
%TO.C,FB2*%
X123985000Y-104120000D03*
X122235000Y-104120000D03*
%TD*%
D16*
%TO.C,FB1*%
X116810000Y-106720000D03*
X116810000Y-108470000D03*
%TD*%
D18*
%TO.C,C12*%
X109935000Y-109720000D03*
X112010000Y-109720000D03*
%TD*%
D19*
%TO.C,C11*%
X111910000Y-103157500D03*
X111910000Y-101082500D03*
%TD*%
%TO.C,C10*%
X108510000Y-103157500D03*
X108510000Y-101082500D03*
%TD*%
D20*
%TO.C,R10*%
X129150000Y-96725000D03*
X130975000Y-96725000D03*
%TD*%
D21*
%TO.C,D2*%
X129200000Y-98525000D03*
X130950000Y-98525000D03*
%TD*%
D22*
%TO.C,J2*%
X119350000Y-101025000D03*
D23*
X119350000Y-98485000D03*
%TD*%
D24*
%TO.C,R1*%
X132947500Y-105725000D03*
X131752500Y-105725000D03*
%TD*%
%TO.C,R6*%
X132947500Y-111225000D03*
X131752500Y-111225000D03*
%TD*%
D25*
%TO.C,U4*%
X143630000Y-103781425D03*
X143630000Y-104731425D03*
X143630000Y-105681425D03*
X146330000Y-105681425D03*
X146330000Y-104731425D03*
X146330000Y-103781425D03*
%TD*%
%TO.C,U6*%
X109200000Y-97175000D03*
X109200000Y-99075000D03*
X106500000Y-99075000D03*
X106500000Y-98125000D03*
X106500000Y-97175000D03*
%TD*%
D26*
%TO.C,R9*%
X148430000Y-103443925D03*
X148430000Y-101618925D03*
%TD*%
D27*
%TO.C,C5*%
X140930000Y-105706425D03*
X140930000Y-107431425D03*
%TD*%
D28*
%TO.C,X1*%
X119310000Y-107020000D03*
X119310000Y-112100000D03*
X123310000Y-112100000D03*
X123310000Y-107020000D03*
%TD*%
D29*
%TO.C,TP4*%
X127537551Y-102762062D03*
%TD*%
D27*
%TO.C,C16*%
X112950000Y-97262500D03*
X112950000Y-98987500D03*
%TD*%
D30*
%TO.C,U1*%
X125862551Y-111224562D03*
X126512551Y-111224562D03*
X127162551Y-111224562D03*
X127812551Y-111224562D03*
X128462551Y-111224562D03*
X129112551Y-111224562D03*
X129762551Y-111224562D03*
X130412551Y-111224562D03*
X130412551Y-105499562D03*
X129762551Y-105499562D03*
X129112551Y-105499562D03*
X128462551Y-105499562D03*
X127812551Y-105499562D03*
X127162551Y-105499562D03*
X126512551Y-105499562D03*
X125862551Y-105499562D03*
%TD*%
D31*
%TO.C,SW1*%
X140700000Y-102025000D03*
X135000000Y-99525000D03*
X140700000Y-97025000D03*
%TD*%
D32*
%TO.C,R7*%
X179100000Y-104619598D03*
X177275000Y-104619598D03*
%TD*%
D24*
%TO.C,R2*%
X132937551Y-106825000D03*
X131742551Y-106825000D03*
%TD*%
D33*
%TO.C,C13*%
X111972500Y-106220000D03*
X110247500Y-106220000D03*
%TD*%
D29*
%TO.C,TP1*%
X129337551Y-102762062D03*
%TD*%
D27*
%TO.C,C15*%
X111250000Y-97262500D03*
X111250000Y-98987500D03*
%TD*%
%TO.C,C1*%
X116810000Y-110237500D03*
X116810000Y-111962500D03*
%TD*%
D29*
%TO.C,TP5*%
X125937551Y-113462062D03*
%TD*%
D34*
%TO.C,C8*%
X122750000Y-101012448D03*
X122750000Y-99287448D03*
%TD*%
D35*
%TO.C,J3*%
X189440000Y-104620000D03*
D36*
X189790000Y-108880000D03*
X189790000Y-100360000D03*
%TD*%
D34*
%TO.C,C3*%
X125737551Y-103562062D03*
X125737551Y-101837062D03*
%TD*%
D27*
%TO.C,C14*%
X104450000Y-98987500D03*
X104450000Y-97262500D03*
%TD*%
D32*
%TO.C,R8*%
X182700000Y-104619598D03*
X180875000Y-104619598D03*
%TD*%
D27*
%TO.C,C4*%
X138930000Y-105706425D03*
X138930000Y-107431425D03*
%TD*%
D29*
%TO.C,TP6*%
X128037551Y-113462062D03*
%TD*%
D24*
%TO.C,R4*%
X132937551Y-109025000D03*
X131742551Y-109025000D03*
%TD*%
D37*
%TO.C,U3*%
X175005000Y-103993575D03*
X175005000Y-104643575D03*
X175005000Y-105293575D03*
X172345000Y-105293575D03*
X172345000Y-104643575D03*
X172345000Y-103993575D03*
%TD*%
D34*
%TO.C,C2*%
X131550000Y-103562062D03*
X131550000Y-101837062D03*
%TD*%
D27*
%TO.C,C6*%
X167025000Y-99525000D03*
X167025000Y-101250000D03*
%TD*%
D33*
%TO.C,C7*%
X173787500Y-106919598D03*
X172062500Y-106919598D03*
%TD*%
D29*
%TO.C,TP2*%
X129337551Y-100962062D03*
%TD*%
D37*
%TO.C,U2*%
X164335052Y-103993575D03*
X164335052Y-104643575D03*
X164335052Y-105293575D03*
X166995052Y-105293575D03*
X166995052Y-103993575D03*
%TD*%
D24*
%TO.C,R3*%
X132937551Y-107925000D03*
X131742551Y-107925000D03*
%TD*%
D38*
%TO.C,J1*%
X101010000Y-100920000D03*
D39*
X98010000Y-105620000D03*
D38*
X95010000Y-100920000D03*
%TD*%
D27*
%TO.C,C9*%
X145230000Y-107531425D03*
X145230000Y-109256425D03*
%TD*%
D29*
%TO.C,TP8*%
X137100000Y-105700000D03*
%TD*%
%TO.C,TP7*%
X148500000Y-105640000D03*
%TD*%
%TO.C,TP3*%
X127537551Y-100962062D03*
%TD*%
D24*
%TO.C,R5*%
X132947500Y-110125000D03*
X131752500Y-110125000D03*
%TD*%
M02*
