%TF.GenerationSoftware,KiCad,Pcbnew,(6.0.2)*%
%TF.CreationDate,2022-05-29T21:50:20-07:00*%
%TF.ProjectId,peregrine,70657265-6772-4696-9e65-2e6b69636164,3*%
%TF.SameCoordinates,Original*%
%TF.FileFunction,Copper,L2,Inr*%
%TF.FilePolarity,Positive*%
%FSLAX46Y46*%
G04 Gerber Fmt 4.6, Leading zero omitted, Abs format (unit mm)*
G04 Created by KiCad (PCBNEW (6.0.2)) date 2022-05-29 21:50:20*
%MOMM*%
%LPD*%
G01*
G04 APERTURE LIST*
%TA.AperFunction,ComponentPad*%
%ADD10R,1.700000X1.700000*%
%TD*%
%TA.AperFunction,ComponentPad*%
%ADD11O,1.700000X1.700000*%
%TD*%
%TA.AperFunction,ComponentPad*%
%ADD12C,2.000000*%
%TD*%
%TA.AperFunction,ComponentPad*%
%ADD13C,2.200000*%
%TD*%
%TA.AperFunction,ComponentPad*%
%ADD14O,1.500000X4.150000*%
%TD*%
%TA.AperFunction,ComponentPad*%
%ADD15O,3.650000X1.500000*%
%TD*%
%TA.AperFunction,ViaPad*%
%ADD16C,0.800000*%
%TD*%
%TA.AperFunction,Conductor*%
%ADD17C,0.635000*%
%TD*%
%TA.AperFunction,Conductor*%
%ADD18C,0.293370*%
%TD*%
G04 APERTURE END LIST*
D10*
%TO.N,+VDC*%
%TO.C,J2*%
X100240000Y-109713575D03*
D11*
%TO.N,GND*%
X97700000Y-109713575D03*
%TD*%
D10*
%TO.N,Net-(C10-Pad1)*%
%TO.C,J3*%
X120800000Y-101013575D03*
D11*
%TO.N,GND*%
X120800000Y-98473575D03*
%TD*%
D12*
%TO.N,Net-(J4-Pad1)*%
%TO.C,J4*%
X201850000Y-108569598D03*
D13*
%TO.N,GND*%
X199275000Y-105994598D03*
X199275000Y-111144598D03*
X204425000Y-111144598D03*
X204425000Y-105994598D03*
%TD*%
D14*
%TO.N,+VDC*%
%TO.C,J1*%
X101600000Y-101713575D03*
D15*
%TO.N,GND*%
X98600000Y-106413575D03*
D14*
X95600000Y-101713575D03*
%TD*%
D16*
%TO.N,VCC*%
X179000000Y-104200000D03*
%TO.N,+3V3*%
X119432989Y-104167011D03*
%TO.N,VCC*%
X116500000Y-104100000D03*
%TO.N,GND*%
X125600000Y-98813575D03*
X154400000Y-112313575D03*
X113550000Y-105063575D03*
X141200000Y-106513575D03*
X114300000Y-105513575D03*
X133500000Y-100313575D03*
X153400000Y-114313575D03*
X153700000Y-102113575D03*
X115900000Y-99413575D03*
X115900000Y-98513575D03*
X115800000Y-109113575D03*
X118700000Y-112913575D03*
X109600000Y-103113575D03*
X154400000Y-109213575D03*
X120500000Y-112913575D03*
X109600000Y-98113575D03*
X179000000Y-103113575D03*
X151400000Y-114313575D03*
X152250000Y-100663575D03*
X154400000Y-111313575D03*
X154400000Y-103813575D03*
X152950000Y-101363575D03*
X154400000Y-104813575D03*
X152400000Y-114313575D03*
X154400000Y-113313575D03*
X146300000Y-112413575D03*
X113500000Y-108713575D03*
X115800000Y-110013575D03*
X149900000Y-104713575D03*
X178500000Y-112413575D03*
X154400000Y-114313575D03*
X154400000Y-110313575D03*
X149800000Y-103813575D03*
X113550000Y-106013575D03*
X125600000Y-99813575D03*
X154400000Y-102813575D03*
X132500000Y-100313575D03*
X132400000Y-113213575D03*
X142813575Y-109700000D03*
X119600000Y-112913575D03*
%TO.N,VCC*%
X177500000Y-113213575D03*
X116500000Y-103213575D03*
X154400000Y-105963575D03*
%TO.N,+3V3*%
X134400000Y-99513575D03*
X128407011Y-97106564D03*
X116600000Y-97213575D03*
X115700000Y-97213575D03*
X125428253Y-103513575D03*
X129307011Y-97106564D03*
%TO.N,Net-(C10-Pad1)*%
X125412551Y-102201023D03*
X144900000Y-106000000D03*
%TO.N,Net-(R3-Pad2)*%
X131212551Y-110025637D03*
X132037551Y-107100637D03*
%TO.N,Net-(R5-Pad2)*%
X129187551Y-109650637D03*
X131187551Y-108550637D03*
%TO.N,PWR*%
X107900000Y-100313575D03*
X107850000Y-106563575D03*
%TO.N,Trig*%
X154400000Y-107947448D03*
X177340052Y-107993575D03*
%TO.N,Net-(R7-Pad2)*%
X133187551Y-112150637D03*
X130787551Y-113050637D03*
%TD*%
D17*
%TO.N,VCC*%
X116500000Y-103213575D02*
X116500000Y-104100000D01*
D18*
X177185148Y-103213576D02*
G75*
G02*
X178599360Y-103799362I0J-1999999D01*
G01*
X155685534Y-104678041D02*
X154400000Y-105963575D01*
X177185148Y-103213575D02*
X159221068Y-103213575D01*
X179000000Y-104200000D02*
X178599361Y-103799361D01*
X155685534Y-104678041D02*
G75*
G02*
X159221068Y-103213575I3535533J-3535532D01*
G01*
D17*
X117085787Y-100254541D02*
X117224118Y-100116210D01*
X144564466Y-97078041D02*
X153157107Y-105670682D01*
D18*
X177500000Y-113213575D02*
X177292893Y-113420682D01*
D17*
X116500000Y-103213575D02*
X116500000Y-101668755D01*
D18*
X155500000Y-108713575D02*
X155500000Y-107842002D01*
X154450000Y-105963575D02*
X154400000Y-105963575D01*
X176585786Y-113713575D02*
X160500000Y-113713575D01*
D17*
X117517011Y-99409103D02*
X117517011Y-99224991D01*
X118102798Y-97810777D02*
X118835534Y-97078041D01*
D18*
X154914213Y-106427788D02*
X154450000Y-105963575D01*
D17*
X122371068Y-95613575D02*
X141028932Y-95613575D01*
X153864214Y-105963575D02*
X154350000Y-105963575D01*
X118835534Y-97078041D02*
G75*
G02*
X122371068Y-95613575I3535533J-3535532D01*
G01*
X144564466Y-97078041D02*
G75*
G03*
X141028932Y-95613575I-3535533J-3535532D01*
G01*
D18*
X177292893Y-113420682D02*
G75*
G02*
X176585786Y-113713575I-707106J707106D01*
G01*
D17*
X153864214Y-105963574D02*
G75*
G02*
X153157108Y-105670681I-1J999998D01*
G01*
X117517010Y-99409103D02*
G75*
G02*
X117224117Y-100116209I-999998J-1D01*
G01*
X117085787Y-100254541D02*
G75*
G03*
X116500000Y-101668755I1414213J-1414214D01*
G01*
X118102798Y-97810777D02*
G75*
G03*
X117517011Y-99224991I1414213J-1414214D01*
G01*
D18*
X154914213Y-106427788D02*
G75*
G02*
X155500000Y-107842002I-1414213J-1414214D01*
G01*
X155500000Y-108713575D02*
G75*
G03*
X160500000Y-113713575I5000000J0D01*
G01*
%TD*%
%TA.AperFunction,Conductor*%
%TO.N,GND*%
G36*
X147500000Y-94518721D02*
G01*
X147512602Y-94514627D01*
X147513262Y-94514821D01*
X147513288Y-94514404D01*
X147728219Y-94527806D01*
X147743776Y-94529755D01*
X147931483Y-94565240D01*
X147960730Y-94570769D01*
X147975931Y-94574636D01*
X148186119Y-94642291D01*
X148200713Y-94648014D01*
X148321941Y-94704489D01*
X148400860Y-94741254D01*
X148414637Y-94748749D01*
X148601643Y-94866129D01*
X148614383Y-94875278D01*
X148785367Y-95014991D01*
X148796868Y-95025648D01*
X148859514Y-95091409D01*
X148949171Y-95185524D01*
X148959261Y-95197532D01*
X149087268Y-95370690D01*
X149085806Y-95371771D01*
X149088157Y-95374030D01*
X149090862Y-95384193D01*
X149102648Y-95393769D01*
X149105325Y-95398178D01*
X149115928Y-95409120D01*
X153105230Y-100647233D01*
X153674240Y-101394366D01*
X153699600Y-101460679D01*
X153700000Y-101470708D01*
X153700000Y-105176822D01*
X153679998Y-105244943D01*
X153626342Y-105291436D01*
X153556068Y-105301540D01*
X153491488Y-105272046D01*
X153484905Y-105265917D01*
X144960602Y-96741615D01*
X144949734Y-96729224D01*
X144938931Y-96715145D01*
X144933908Y-96708599D01*
X144932064Y-96707184D01*
X144708887Y-96500882D01*
X144617171Y-96416100D01*
X144617165Y-96416095D01*
X144615351Y-96414418D01*
X144611153Y-96411108D01*
X144289423Y-96157477D01*
X144274833Y-96145975D01*
X144258359Y-96134967D01*
X144174223Y-96078750D01*
X143914303Y-95905077D01*
X143535984Y-95693208D01*
X143142208Y-95511675D01*
X142735403Y-95361596D01*
X142401551Y-95267440D01*
X142320457Y-95244569D01*
X142320452Y-95244568D01*
X142318077Y-95243898D01*
X141892803Y-95159306D01*
X141665755Y-95132433D01*
X141464656Y-95108631D01*
X141464648Y-95108630D01*
X141462203Y-95108341D01*
X141031238Y-95091409D01*
X141028932Y-95091105D01*
X141003168Y-95094497D01*
X140986721Y-95095575D01*
X122413279Y-95095575D01*
X122396832Y-95094497D01*
X122371068Y-95091105D01*
X122368762Y-95091409D01*
X121937797Y-95108341D01*
X121935352Y-95108630D01*
X121935344Y-95108631D01*
X121734245Y-95132433D01*
X121507197Y-95159306D01*
X121081923Y-95243898D01*
X121079548Y-95244568D01*
X121079543Y-95244569D01*
X120998449Y-95267440D01*
X120664597Y-95361596D01*
X120257792Y-95511675D01*
X119864016Y-95693208D01*
X119485697Y-95905077D01*
X119225777Y-96078750D01*
X119141642Y-96134967D01*
X119125167Y-96145975D01*
X119110577Y-96157477D01*
X118788848Y-96411108D01*
X118784649Y-96414418D01*
X118782835Y-96416095D01*
X118782829Y-96416100D01*
X118691113Y-96500882D01*
X118467936Y-96707184D01*
X118466092Y-96708599D01*
X118461064Y-96715152D01*
X118450275Y-96729212D01*
X118439409Y-96741603D01*
X117766369Y-97414644D01*
X117753977Y-97425512D01*
X117740532Y-97435829D01*
X117733356Y-97441335D01*
X117729273Y-97446656D01*
X117726878Y-97449336D01*
X117726562Y-97449652D01*
X117726135Y-97450168D01*
X117545257Y-97652569D01*
X117381600Y-97883223D01*
X117379891Y-97886315D01*
X117379888Y-97886320D01*
X117250490Y-98120450D01*
X117244797Y-98130750D01*
X117136568Y-98392037D01*
X117058274Y-98663800D01*
X117010901Y-98942620D01*
X117005444Y-99039793D01*
X116995680Y-99213640D01*
X116995618Y-99214300D01*
X116995618Y-99214745D01*
X116995416Y-99218342D01*
X116994541Y-99224991D01*
X116995619Y-99233177D01*
X116997933Y-99250755D01*
X116999011Y-99267202D01*
X116999011Y-99366893D01*
X116997933Y-99383338D01*
X116994541Y-99409104D01*
X116995619Y-99417291D01*
X116995619Y-99425553D01*
X116995392Y-99425553D01*
X116995677Y-99442951D01*
X116992708Y-99473102D01*
X116990966Y-99490785D01*
X116986148Y-99515009D01*
X116984099Y-99521763D01*
X116965923Y-99581679D01*
X116956472Y-99604496D01*
X116923629Y-99665943D01*
X116909906Y-99686481D01*
X116898931Y-99699854D01*
X116879409Y-99723641D01*
X116866906Y-99735741D01*
X116867066Y-99735901D01*
X116861222Y-99741745D01*
X116854676Y-99746768D01*
X116849653Y-99753314D01*
X116838855Y-99767386D01*
X116827989Y-99779776D01*
X116749354Y-99858412D01*
X116736961Y-99869280D01*
X116716345Y-99885099D01*
X116712262Y-99890420D01*
X116709858Y-99893110D01*
X116709545Y-99893423D01*
X116709124Y-99893932D01*
X116528246Y-100096333D01*
X116364589Y-100326987D01*
X116362880Y-100330079D01*
X116362877Y-100330084D01*
X116285362Y-100470337D01*
X116227786Y-100574514D01*
X116119557Y-100835801D01*
X116041263Y-101107564D01*
X115993890Y-101386384D01*
X115988433Y-101483557D01*
X115978669Y-101657404D01*
X115978607Y-101658064D01*
X115978607Y-101658509D01*
X115978405Y-101662106D01*
X115977530Y-101668755D01*
X115978608Y-101676941D01*
X115980922Y-101694519D01*
X115982000Y-101710966D01*
X115982000Y-102869891D01*
X115972409Y-102918109D01*
X115940947Y-102994066D01*
X115914956Y-103056813D01*
X115894318Y-103213575D01*
X115914956Y-103370337D01*
X115918115Y-103377964D01*
X115918116Y-103377967D01*
X115972409Y-103509041D01*
X115982000Y-103557259D01*
X115982000Y-103756316D01*
X115972409Y-103804534D01*
X115944547Y-103871800D01*
X115914956Y-103943238D01*
X115894318Y-104100000D01*
X115914956Y-104256762D01*
X115975464Y-104402841D01*
X116071718Y-104528282D01*
X116197159Y-104624536D01*
X116343238Y-104685044D01*
X116500000Y-104705682D01*
X116508188Y-104704604D01*
X116648574Y-104686122D01*
X116656762Y-104685044D01*
X116802841Y-104624536D01*
X116928282Y-104528282D01*
X117024536Y-104402841D01*
X117085044Y-104256762D01*
X117096860Y-104167011D01*
X118827307Y-104167011D01*
X118847945Y-104323773D01*
X118908453Y-104469852D01*
X119004707Y-104595293D01*
X119130148Y-104691547D01*
X119276227Y-104752055D01*
X119432989Y-104772693D01*
X119441177Y-104771615D01*
X119581563Y-104753133D01*
X119589751Y-104752055D01*
X119735830Y-104691547D01*
X119861271Y-104595293D01*
X119957525Y-104469852D01*
X120018033Y-104323773D01*
X120038671Y-104167011D01*
X120018033Y-104010249D01*
X119957525Y-103864170D01*
X119861271Y-103738729D01*
X119735830Y-103642475D01*
X119589751Y-103581967D01*
X119432989Y-103561329D01*
X119276227Y-103581967D01*
X119130148Y-103642475D01*
X119004707Y-103738729D01*
X118908453Y-103864170D01*
X118847945Y-104010249D01*
X118827307Y-104167011D01*
X117096860Y-104167011D01*
X117105682Y-104100000D01*
X117085044Y-103943238D01*
X117055454Y-103871800D01*
X117027591Y-103804534D01*
X117018000Y-103756316D01*
X117018000Y-103557259D01*
X117027591Y-103509041D01*
X117081884Y-103377967D01*
X117081885Y-103377964D01*
X117085044Y-103370337D01*
X117105682Y-103213575D01*
X117085044Y-103056813D01*
X117059054Y-102994066D01*
X117027591Y-102918109D01*
X117018000Y-102869891D01*
X117018000Y-102201023D01*
X124806869Y-102201023D01*
X124827507Y-102357785D01*
X124888015Y-102503864D01*
X124984269Y-102629305D01*
X125109710Y-102725559D01*
X125147470Y-102741200D01*
X125154573Y-102744142D01*
X125209854Y-102788691D01*
X125232275Y-102856054D01*
X125214717Y-102924845D01*
X125162754Y-102973224D01*
X125154581Y-102976957D01*
X125125412Y-102989039D01*
X124999971Y-103085293D01*
X124903717Y-103210734D01*
X124843209Y-103356813D01*
X124822571Y-103513575D01*
X124843209Y-103670337D01*
X124903717Y-103816416D01*
X124935333Y-103857619D01*
X124991824Y-103931239D01*
X124999971Y-103941857D01*
X125125412Y-104038111D01*
X125271491Y-104098619D01*
X125428253Y-104119257D01*
X125436441Y-104118179D01*
X125576827Y-104099697D01*
X125585015Y-104098619D01*
X125731094Y-104038111D01*
X125856535Y-103941857D01*
X125864683Y-103931239D01*
X125921173Y-103857619D01*
X125952789Y-103816416D01*
X126013297Y-103670337D01*
X126033935Y-103513575D01*
X126013297Y-103356813D01*
X125952789Y-103210734D01*
X125856535Y-103085293D01*
X125731094Y-102989039D01*
X125686231Y-102970456D01*
X125630950Y-102925907D01*
X125608529Y-102858544D01*
X125626087Y-102789753D01*
X125678050Y-102741374D01*
X125686223Y-102737641D01*
X125715392Y-102725559D01*
X125840833Y-102629305D01*
X125937087Y-102503864D01*
X125997595Y-102357785D01*
X126018233Y-102201023D01*
X125997595Y-102044261D01*
X125937087Y-101898182D01*
X125840833Y-101772741D01*
X125715392Y-101676487D01*
X125569313Y-101615979D01*
X125412551Y-101595341D01*
X125255789Y-101615979D01*
X125109710Y-101676487D01*
X124984269Y-101772741D01*
X124888015Y-101898182D01*
X124827507Y-102044261D01*
X124806869Y-102201023D01*
X117018000Y-102201023D01*
X117018000Y-101710966D01*
X117019078Y-101694519D01*
X117021392Y-101676943D01*
X117021392Y-101676941D01*
X117022470Y-101668755D01*
X117021105Y-101658386D01*
X117020298Y-101633705D01*
X117030139Y-101483557D01*
X117032290Y-101467217D01*
X117066887Y-101293285D01*
X117071153Y-101277364D01*
X117128156Y-101109440D01*
X117134463Y-101094213D01*
X117212900Y-100935159D01*
X117221141Y-100920886D01*
X117319664Y-100773435D01*
X117329697Y-100760360D01*
X117428906Y-100647233D01*
X117446936Y-100630346D01*
X117448681Y-100629007D01*
X117455229Y-100623983D01*
X117471052Y-100603362D01*
X117481919Y-100590971D01*
X117560548Y-100512342D01*
X117572941Y-100501473D01*
X117587011Y-100490677D01*
X117593560Y-100485652D01*
X117602315Y-100474242D01*
X117607546Y-100467867D01*
X117721186Y-100338285D01*
X117723905Y-100335185D01*
X117727314Y-100330084D01*
X117832164Y-100173164D01*
X117834458Y-100169731D01*
X117840829Y-100156813D01*
X117909141Y-100018289D01*
X117922469Y-99991262D01*
X117923795Y-99987356D01*
X117985106Y-99806740D01*
X117985107Y-99806737D01*
X117986432Y-99802833D01*
X117989805Y-99785879D01*
X118024449Y-99611709D01*
X118024449Y-99611706D01*
X118025253Y-99607666D01*
X118026254Y-99592406D01*
X118032620Y-99495276D01*
X118033487Y-99488189D01*
X118034272Y-99485485D01*
X118035011Y-99475421D01*
X118035011Y-99462909D01*
X118035281Y-99454671D01*
X118036794Y-99431579D01*
X118037599Y-99423400D01*
X118039481Y-99409102D01*
X118036089Y-99383338D01*
X118035011Y-99366891D01*
X118035011Y-99267202D01*
X118036089Y-99250755D01*
X118038403Y-99233179D01*
X118038403Y-99233177D01*
X118039481Y-99224991D01*
X118038116Y-99214622D01*
X118037309Y-99189941D01*
X118047150Y-99039793D01*
X118049301Y-99023453D01*
X118083898Y-98849521D01*
X118088164Y-98833600D01*
X118119414Y-98741541D01*
X119468257Y-98741541D01*
X119498565Y-98876021D01*
X119501645Y-98885850D01*
X119581770Y-99083178D01*
X119586413Y-99092369D01*
X119697694Y-99273963D01*
X119703777Y-99282274D01*
X119843213Y-99443242D01*
X119850580Y-99450458D01*
X120014434Y-99586491D01*
X120022881Y-99592406D01*
X120206756Y-99699854D01*
X120216043Y-99704304D01*
X120255484Y-99719365D01*
X120311987Y-99762353D01*
X120336280Y-99829064D01*
X120320650Y-99898318D01*
X120270059Y-99948129D01*
X120210535Y-99963075D01*
X119930252Y-99963075D01*
X119924184Y-99964282D01*
X119883939Y-99972287D01*
X119883938Y-99972287D01*
X119871769Y-99974708D01*
X119805448Y-100019023D01*
X119761133Y-100085344D01*
X119749500Y-100143827D01*
X119749500Y-101883323D01*
X119761133Y-101941806D01*
X119805448Y-102008127D01*
X119871769Y-102052442D01*
X119883938Y-102054863D01*
X119883939Y-102054863D01*
X119924184Y-102062868D01*
X119930252Y-102064075D01*
X121669748Y-102064075D01*
X121675816Y-102062868D01*
X121716061Y-102054863D01*
X121716062Y-102054863D01*
X121728231Y-102052442D01*
X121794552Y-102008127D01*
X121838867Y-101941806D01*
X121850500Y-101883323D01*
X121850500Y-100143827D01*
X121838867Y-100085344D01*
X121794552Y-100019023D01*
X121728231Y-99974708D01*
X121716062Y-99972287D01*
X121716061Y-99972287D01*
X121675816Y-99964282D01*
X121669748Y-99963075D01*
X121390107Y-99963075D01*
X121321986Y-99943073D01*
X121275493Y-99889417D01*
X121265389Y-99819143D01*
X121294883Y-99754563D01*
X121334675Y-99723924D01*
X121493090Y-99646317D01*
X121501945Y-99641039D01*
X121675328Y-99517367D01*
X121679815Y-99513575D01*
X133794318Y-99513575D01*
X133814956Y-99670337D01*
X133875464Y-99816416D01*
X133971718Y-99941857D01*
X134097159Y-100038111D01*
X134243238Y-100098619D01*
X134400000Y-100119257D01*
X134408188Y-100118179D01*
X134548574Y-100099697D01*
X134556762Y-100098619D01*
X134702841Y-100038111D01*
X134828282Y-99941857D01*
X134924536Y-99816416D01*
X134985044Y-99670337D01*
X135005682Y-99513575D01*
X134985044Y-99356813D01*
X134924536Y-99210734D01*
X134828282Y-99085293D01*
X134702841Y-98989039D01*
X134556762Y-98928531D01*
X134400000Y-98907893D01*
X134243238Y-98928531D01*
X134097159Y-98989039D01*
X133971718Y-99085293D01*
X133875464Y-99210734D01*
X133814956Y-99356813D01*
X133794318Y-99513575D01*
X121679815Y-99513575D01*
X121683200Y-99510714D01*
X121834052Y-99360387D01*
X121840730Y-99352540D01*
X121965003Y-99179595D01*
X121970313Y-99170758D01*
X122064670Y-98979842D01*
X122068469Y-98970247D01*
X122130377Y-98766485D01*
X122132555Y-98756412D01*
X122133986Y-98745537D01*
X122131775Y-98731353D01*
X122118617Y-98727575D01*
X119483225Y-98727575D01*
X119469694Y-98731548D01*
X119468257Y-98741541D01*
X118119414Y-98741541D01*
X118145167Y-98665676D01*
X118151474Y-98650449D01*
X118229911Y-98491395D01*
X118238152Y-98477122D01*
X118336675Y-98329671D01*
X118346708Y-98316596D01*
X118442156Y-98207758D01*
X119464389Y-98207758D01*
X119465912Y-98216182D01*
X119478292Y-98219575D01*
X120527885Y-98219575D01*
X120543124Y-98215100D01*
X120544329Y-98213710D01*
X120546000Y-98206027D01*
X120546000Y-98201460D01*
X121054000Y-98201460D01*
X121058475Y-98216699D01*
X121059865Y-98217904D01*
X121067548Y-98219575D01*
X122118344Y-98219575D01*
X122131875Y-98215602D01*
X122133180Y-98206522D01*
X122091214Y-98039450D01*
X122087894Y-98029699D01*
X122002972Y-97834389D01*
X121998105Y-97825314D01*
X121882426Y-97646501D01*
X121876136Y-97638332D01*
X121732806Y-97480815D01*
X121725273Y-97473790D01*
X121558139Y-97341797D01*
X121549552Y-97336092D01*
X121363117Y-97233174D01*
X121353705Y-97228944D01*
X121152959Y-97157855D01*
X121142988Y-97155221D01*
X121071837Y-97142547D01*
X121058540Y-97144007D01*
X121054000Y-97158564D01*
X121054000Y-98201460D01*
X120546000Y-98201460D01*
X120546000Y-97156677D01*
X120542082Y-97143333D01*
X120527806Y-97141346D01*
X120489324Y-97147235D01*
X120479288Y-97149626D01*
X120276868Y-97215787D01*
X120267359Y-97219784D01*
X120078463Y-97318117D01*
X120069738Y-97323611D01*
X119899433Y-97451480D01*
X119891726Y-97458323D01*
X119744590Y-97612292D01*
X119738104Y-97620302D01*
X119618098Y-97796224D01*
X119613000Y-97805198D01*
X119523338Y-97998358D01*
X119519775Y-98008045D01*
X119464389Y-98207758D01*
X118442156Y-98207758D01*
X118445917Y-98203469D01*
X118463947Y-98186582D01*
X118465689Y-98185246D01*
X118465691Y-98185244D01*
X118472240Y-98180219D01*
X118488067Y-98159593D01*
X118498934Y-98147203D01*
X119171960Y-97474177D01*
X119184351Y-97463309D01*
X119198425Y-97452510D01*
X119198426Y-97452509D01*
X119204976Y-97447483D01*
X119213927Y-97435818D01*
X119228753Y-97419638D01*
X119486040Y-97183879D01*
X119494460Y-97176814D01*
X119586011Y-97106564D01*
X127801329Y-97106564D01*
X127821967Y-97263326D01*
X127882475Y-97409405D01*
X127906669Y-97440935D01*
X127958733Y-97508786D01*
X127978729Y-97534846D01*
X128104170Y-97631100D01*
X128250249Y-97691608D01*
X128407011Y-97712246D01*
X128415199Y-97711168D01*
X128555585Y-97692686D01*
X128563773Y-97691608D01*
X128709852Y-97631100D01*
X128780307Y-97577038D01*
X128846527Y-97551438D01*
X128916076Y-97565703D01*
X128933714Y-97577037D01*
X129004170Y-97631100D01*
X129150249Y-97691608D01*
X129307011Y-97712246D01*
X129315199Y-97711168D01*
X129455585Y-97692686D01*
X129463773Y-97691608D01*
X129609852Y-97631100D01*
X129735293Y-97534846D01*
X129755290Y-97508786D01*
X129807353Y-97440935D01*
X129831547Y-97409405D01*
X129892055Y-97263326D01*
X129912693Y-97106564D01*
X129892055Y-96949802D01*
X129831547Y-96803723D01*
X129753622Y-96702169D01*
X129740316Y-96684828D01*
X129735293Y-96678282D01*
X129609852Y-96582028D01*
X129463773Y-96521520D01*
X129307011Y-96500882D01*
X129150249Y-96521520D01*
X129004170Y-96582028D01*
X128997619Y-96587055D01*
X128933715Y-96636090D01*
X128867495Y-96661690D01*
X128797946Y-96647425D01*
X128780307Y-96636090D01*
X128716403Y-96587055D01*
X128709852Y-96582028D01*
X128563773Y-96521520D01*
X128407011Y-96500882D01*
X128250249Y-96521520D01*
X128104170Y-96582028D01*
X127978729Y-96678282D01*
X127973706Y-96684828D01*
X127960400Y-96702169D01*
X127882475Y-96803723D01*
X127821967Y-96949802D01*
X127801329Y-97106564D01*
X119586011Y-97106564D01*
X119795931Y-96945486D01*
X119804935Y-96939181D01*
X120125431Y-96735003D01*
X120134940Y-96729513D01*
X120472025Y-96554037D01*
X120481960Y-96549404D01*
X120833064Y-96403972D01*
X120843377Y-96400219D01*
X121205796Y-96285949D01*
X121216413Y-96283104D01*
X121587402Y-96200859D01*
X121598226Y-96198950D01*
X121974983Y-96149348D01*
X121985934Y-96148390D01*
X122334556Y-96133169D01*
X122356499Y-96134127D01*
X122362879Y-96134967D01*
X122362880Y-96134967D01*
X122371068Y-96136045D01*
X122396832Y-96132653D01*
X122413279Y-96131575D01*
X140986721Y-96131575D01*
X141003168Y-96132653D01*
X141028932Y-96136045D01*
X141037120Y-96134967D01*
X141037121Y-96134967D01*
X141043501Y-96134127D01*
X141065444Y-96133169D01*
X141414066Y-96148390D01*
X141425017Y-96149348D01*
X141801774Y-96198950D01*
X141812598Y-96200859D01*
X142183587Y-96283104D01*
X142194204Y-96285949D01*
X142556623Y-96400219D01*
X142566936Y-96403972D01*
X142918040Y-96549404D01*
X142927975Y-96554037D01*
X143265060Y-96729513D01*
X143274569Y-96735003D01*
X143595065Y-96939181D01*
X143604069Y-96945486D01*
X143905540Y-97176814D01*
X143913960Y-97183879D01*
X144171247Y-97419638D01*
X144186073Y-97435818D01*
X144195024Y-97447483D01*
X144201574Y-97452509D01*
X144201575Y-97452510D01*
X144215649Y-97463309D01*
X144228040Y-97474177D01*
X152760978Y-106007116D01*
X152771845Y-106019507D01*
X152787665Y-106040124D01*
X152794214Y-106045149D01*
X152799074Y-106048878D01*
X152805450Y-106054110D01*
X152938132Y-106170469D01*
X152941558Y-106172758D01*
X152941563Y-106172762D01*
X152991037Y-106205819D01*
X153103586Y-106281022D01*
X153107285Y-106282846D01*
X153107290Y-106282849D01*
X153197548Y-106327359D01*
X153282055Y-106369033D01*
X153285960Y-106370358D01*
X153285961Y-106370359D01*
X153466577Y-106431670D01*
X153466580Y-106431671D01*
X153470484Y-106432996D01*
X153474523Y-106433799D01*
X153474529Y-106433801D01*
X153598581Y-106458476D01*
X153661491Y-106491383D01*
X153696623Y-106553078D01*
X153700000Y-106582055D01*
X153700000Y-114587575D01*
X153679998Y-114655696D01*
X153626342Y-114702189D01*
X153574000Y-114713575D01*
X95015838Y-114713575D01*
X95000000Y-114708429D01*
X94987635Y-114712447D01*
X94986853Y-114712217D01*
X94986821Y-114712711D01*
X94760242Y-114697860D01*
X94743902Y-114695709D01*
X94630122Y-114673077D01*
X94516339Y-114650444D01*
X94500425Y-114646180D01*
X94390572Y-114608890D01*
X94280723Y-114571601D01*
X94265496Y-114565294D01*
X94099008Y-114483192D01*
X94057404Y-114462675D01*
X94043137Y-114454438D01*
X93947252Y-114390370D01*
X93850223Y-114325537D01*
X93837147Y-114315504D01*
X93662706Y-114162523D01*
X93651052Y-114150869D01*
X93498071Y-113976428D01*
X93488038Y-113963352D01*
X93359139Y-113770442D01*
X93350898Y-113756168D01*
X93248281Y-113548079D01*
X93241974Y-113532852D01*
X93181085Y-113353478D01*
X93167395Y-113313150D01*
X93163130Y-113297233D01*
X93117866Y-113069673D01*
X93115715Y-113053333D01*
X93115538Y-113050637D01*
X130181869Y-113050637D01*
X130202507Y-113207399D01*
X130263015Y-113353478D01*
X130359269Y-113478919D01*
X130484710Y-113575173D01*
X130630789Y-113635681D01*
X130787551Y-113656319D01*
X130795739Y-113655241D01*
X130936125Y-113636759D01*
X130944313Y-113635681D01*
X131090392Y-113575173D01*
X131215833Y-113478919D01*
X131312087Y-113353478D01*
X131372595Y-113207399D01*
X131393233Y-113050637D01*
X131372595Y-112893875D01*
X131312087Y-112747796D01*
X131215833Y-112622355D01*
X131090392Y-112526101D01*
X130944313Y-112465593D01*
X130787551Y-112444955D01*
X130630789Y-112465593D01*
X130484710Y-112526101D01*
X130359269Y-112622355D01*
X130263015Y-112747796D01*
X130202507Y-112893875D01*
X130181869Y-113050637D01*
X93115538Y-113050637D01*
X93100864Y-112826754D01*
X93101027Y-112826743D01*
X93100957Y-112826467D01*
X93105146Y-112813575D01*
X93100000Y-112797737D01*
X93100000Y-112150637D01*
X132581869Y-112150637D01*
X132602507Y-112307399D01*
X132663015Y-112453478D01*
X132759269Y-112578919D01*
X132884710Y-112675173D01*
X133030789Y-112735681D01*
X133187551Y-112756319D01*
X133195739Y-112755241D01*
X133336125Y-112736759D01*
X133344313Y-112735681D01*
X133490392Y-112675173D01*
X133615833Y-112578919D01*
X133712087Y-112453478D01*
X133772595Y-112307399D01*
X133793233Y-112150637D01*
X133772595Y-111993875D01*
X133712087Y-111847796D01*
X133615833Y-111722355D01*
X133490392Y-111626101D01*
X133344313Y-111565593D01*
X133187551Y-111544955D01*
X133030789Y-111565593D01*
X132884710Y-111626101D01*
X132759269Y-111722355D01*
X132663015Y-111847796D01*
X132602507Y-111993875D01*
X132581869Y-112150637D01*
X93100000Y-112150637D01*
X93100000Y-109981541D01*
X96368257Y-109981541D01*
X96398565Y-110116021D01*
X96401645Y-110125850D01*
X96481770Y-110323178D01*
X96486413Y-110332369D01*
X96597694Y-110513963D01*
X96603777Y-110522274D01*
X96743213Y-110683242D01*
X96750580Y-110690458D01*
X96914434Y-110826491D01*
X96922881Y-110832406D01*
X97106756Y-110939854D01*
X97116042Y-110944304D01*
X97315001Y-111020278D01*
X97324899Y-111023154D01*
X97428250Y-111044181D01*
X97442299Y-111042985D01*
X97446000Y-111032640D01*
X97446000Y-111032092D01*
X97954000Y-111032092D01*
X97958064Y-111045934D01*
X97971478Y-111047968D01*
X97978184Y-111047109D01*
X97988262Y-111044967D01*
X98192255Y-110983766D01*
X98201842Y-110980008D01*
X98393095Y-110886314D01*
X98401945Y-110881039D01*
X98575328Y-110757367D01*
X98583200Y-110750714D01*
X98734052Y-110600387D01*
X98740730Y-110592540D01*
X98865003Y-110419595D01*
X98870313Y-110410758D01*
X98950543Y-110248426D01*
X98998657Y-110196219D01*
X99067358Y-110178312D01*
X99134834Y-110200391D01*
X99179663Y-110255445D01*
X99189500Y-110304253D01*
X99189500Y-110583323D01*
X99201133Y-110641806D01*
X99245448Y-110708127D01*
X99311769Y-110752442D01*
X99323938Y-110754863D01*
X99323939Y-110754863D01*
X99364184Y-110762868D01*
X99370252Y-110764075D01*
X101109748Y-110764075D01*
X101115816Y-110762868D01*
X101156061Y-110754863D01*
X101156062Y-110754863D01*
X101168231Y-110752442D01*
X101234552Y-110708127D01*
X101278867Y-110641806D01*
X101290500Y-110583323D01*
X101290500Y-109650637D01*
X128581869Y-109650637D01*
X128602507Y-109807399D01*
X128663015Y-109953478D01*
X128759269Y-110078919D01*
X128884710Y-110175173D01*
X129030789Y-110235681D01*
X129187551Y-110256319D01*
X129195739Y-110255241D01*
X129336125Y-110236759D01*
X129344313Y-110235681D01*
X129490392Y-110175173D01*
X129615833Y-110078919D01*
X129656718Y-110025637D01*
X130606869Y-110025637D01*
X130627507Y-110182399D01*
X130688015Y-110328478D01*
X130784269Y-110453919D01*
X130909710Y-110550173D01*
X131055789Y-110610681D01*
X131212551Y-110631319D01*
X131220739Y-110630241D01*
X131225335Y-110629636D01*
X131369313Y-110610681D01*
X131515392Y-110550173D01*
X131640833Y-110453919D01*
X131737087Y-110328478D01*
X131797595Y-110182399D01*
X131818233Y-110025637D01*
X131797595Y-109868875D01*
X131737087Y-109722796D01*
X131640833Y-109597355D01*
X131515392Y-109501101D01*
X131369313Y-109440593D01*
X131212551Y-109419955D01*
X131055789Y-109440593D01*
X130909710Y-109501101D01*
X130784269Y-109597355D01*
X130688015Y-109722796D01*
X130627507Y-109868875D01*
X130606869Y-110025637D01*
X129656718Y-110025637D01*
X129712087Y-109953478D01*
X129772595Y-109807399D01*
X129793233Y-109650637D01*
X129772595Y-109493875D01*
X129712087Y-109347796D01*
X129615833Y-109222355D01*
X129490392Y-109126101D01*
X129344313Y-109065593D01*
X129187551Y-109044955D01*
X129030789Y-109065593D01*
X128884710Y-109126101D01*
X128759269Y-109222355D01*
X128663015Y-109347796D01*
X128602507Y-109493875D01*
X128581869Y-109650637D01*
X101290500Y-109650637D01*
X101290500Y-108843827D01*
X101278867Y-108785344D01*
X101234552Y-108719023D01*
X101168231Y-108674708D01*
X101156062Y-108672287D01*
X101156061Y-108672287D01*
X101115816Y-108664282D01*
X101109748Y-108663075D01*
X99370252Y-108663075D01*
X99364184Y-108664282D01*
X99323939Y-108672287D01*
X99323938Y-108672287D01*
X99311769Y-108674708D01*
X99245448Y-108719023D01*
X99201133Y-108785344D01*
X99189500Y-108843827D01*
X99189500Y-109127591D01*
X99169498Y-109195712D01*
X99115842Y-109242205D01*
X99045568Y-109252309D01*
X98980988Y-109222815D01*
X98947950Y-109177833D01*
X98902972Y-109074389D01*
X98898105Y-109065314D01*
X98782426Y-108886501D01*
X98776136Y-108878332D01*
X98632806Y-108720815D01*
X98625273Y-108713790D01*
X98458139Y-108581797D01*
X98449552Y-108576092D01*
X98403441Y-108550637D01*
X130581869Y-108550637D01*
X130602507Y-108707399D01*
X130663015Y-108853478D01*
X130759269Y-108978919D01*
X130884710Y-109075173D01*
X131030789Y-109135681D01*
X131187551Y-109156319D01*
X131195739Y-109155241D01*
X131336125Y-109136759D01*
X131344313Y-109135681D01*
X131490392Y-109075173D01*
X131615833Y-108978919D01*
X131712087Y-108853478D01*
X131772595Y-108707399D01*
X131793233Y-108550637D01*
X131772595Y-108393875D01*
X131712087Y-108247796D01*
X131615833Y-108122355D01*
X131490392Y-108026101D01*
X131344313Y-107965593D01*
X131187551Y-107944955D01*
X131030789Y-107965593D01*
X130884710Y-108026101D01*
X130759269Y-108122355D01*
X130663015Y-108247796D01*
X130602507Y-108393875D01*
X130581869Y-108550637D01*
X98403441Y-108550637D01*
X98263117Y-108473174D01*
X98253705Y-108468944D01*
X98052959Y-108397855D01*
X98042988Y-108395221D01*
X97971837Y-108382547D01*
X97958540Y-108384007D01*
X97954000Y-108398564D01*
X97954000Y-111032092D01*
X97446000Y-111032092D01*
X97446000Y-109985690D01*
X97441525Y-109970451D01*
X97440135Y-109969246D01*
X97432452Y-109967575D01*
X96383225Y-109967575D01*
X96369694Y-109971548D01*
X96368257Y-109981541D01*
X93100000Y-109981541D01*
X93100000Y-109447758D01*
X96364389Y-109447758D01*
X96365912Y-109456182D01*
X96378292Y-109459575D01*
X97427885Y-109459575D01*
X97443124Y-109455100D01*
X97444329Y-109453710D01*
X97446000Y-109446027D01*
X97446000Y-108396677D01*
X97442082Y-108383333D01*
X97427806Y-108381346D01*
X97389324Y-108387235D01*
X97379288Y-108389626D01*
X97176868Y-108455787D01*
X97167359Y-108459784D01*
X96978463Y-108558117D01*
X96969738Y-108563611D01*
X96799433Y-108691480D01*
X96791726Y-108698323D01*
X96644590Y-108852292D01*
X96638104Y-108860302D01*
X96518098Y-109036224D01*
X96513000Y-109045198D01*
X96423338Y-109238358D01*
X96419775Y-109248045D01*
X96364389Y-109447758D01*
X93100000Y-109447758D01*
X93100000Y-106681303D01*
X96291114Y-106681303D01*
X96291166Y-106681548D01*
X96353898Y-106885458D01*
X96358119Y-106895804D01*
X96455971Y-107085389D01*
X96461957Y-107094820D01*
X96591832Y-107264076D01*
X96599393Y-107272299D01*
X96757194Y-107415887D01*
X96766094Y-107422642D01*
X96946815Y-107536009D01*
X96956781Y-107541086D01*
X97154714Y-107620655D01*
X97165429Y-107623890D01*
X97375301Y-107667352D01*
X97384438Y-107668555D01*
X97434990Y-107671470D01*
X97438637Y-107671575D01*
X98327885Y-107671575D01*
X98343124Y-107667100D01*
X98344329Y-107665710D01*
X98346000Y-107658027D01*
X98346000Y-107653460D01*
X98854000Y-107653460D01*
X98858475Y-107668699D01*
X98859865Y-107669904D01*
X98867548Y-107671575D01*
X99729175Y-107671575D01*
X99734770Y-107671326D01*
X99893078Y-107657197D01*
X99904092Y-107655215D01*
X100109860Y-107598924D01*
X100120341Y-107595026D01*
X100312903Y-107503178D01*
X100322516Y-107497493D01*
X100495767Y-107373000D01*
X100504233Y-107365692D01*
X100652692Y-107212493D01*
X100659735Y-107203796D01*
X100778719Y-107026731D01*
X100784105Y-107016933D01*
X100869857Y-106821585D01*
X100873422Y-106810993D01*
X100903624Y-106685191D01*
X100902919Y-106671105D01*
X100894040Y-106667575D01*
X98872115Y-106667575D01*
X98856876Y-106672050D01*
X98855671Y-106673440D01*
X98854000Y-106681123D01*
X98854000Y-107653460D01*
X98346000Y-107653460D01*
X98346000Y-106685690D01*
X98341525Y-106670451D01*
X98340135Y-106669246D01*
X98332452Y-106667575D01*
X96306589Y-106667575D01*
X96292607Y-106671680D01*
X96291114Y-106681303D01*
X93100000Y-106681303D01*
X93100000Y-106563575D01*
X107244318Y-106563575D01*
X107264956Y-106720337D01*
X107325464Y-106866416D01*
X107421718Y-106991857D01*
X107547159Y-107088111D01*
X107693238Y-107148619D01*
X107850000Y-107169257D01*
X107858188Y-107168179D01*
X107998574Y-107149697D01*
X108006762Y-107148619D01*
X108122601Y-107100637D01*
X131431869Y-107100637D01*
X131452507Y-107257399D01*
X131513015Y-107403478D01*
X131609269Y-107528919D01*
X131734710Y-107625173D01*
X131880789Y-107685681D01*
X132037551Y-107706319D01*
X132045739Y-107705241D01*
X132186125Y-107686759D01*
X132194313Y-107685681D01*
X132340392Y-107625173D01*
X132465833Y-107528919D01*
X132562087Y-107403478D01*
X132622595Y-107257399D01*
X132643233Y-107100637D01*
X132622595Y-106943875D01*
X132562087Y-106797796D01*
X132465833Y-106672355D01*
X132340392Y-106576101D01*
X132194313Y-106515593D01*
X132037551Y-106494955D01*
X131880789Y-106515593D01*
X131734710Y-106576101D01*
X131609269Y-106672355D01*
X131513015Y-106797796D01*
X131452507Y-106943875D01*
X131431869Y-107100637D01*
X108122601Y-107100637D01*
X108152841Y-107088111D01*
X108278282Y-106991857D01*
X108374536Y-106866416D01*
X108435044Y-106720337D01*
X108455682Y-106563575D01*
X108435044Y-106406813D01*
X108374536Y-106260734D01*
X108288473Y-106148574D01*
X108283305Y-106141839D01*
X108278282Y-106135293D01*
X108152841Y-106039039D01*
X108058593Y-106000000D01*
X144294318Y-106000000D01*
X144314956Y-106156762D01*
X144375464Y-106302841D01*
X144471718Y-106428282D01*
X144478264Y-106433305D01*
X144507918Y-106456059D01*
X144597159Y-106524536D01*
X144743238Y-106585044D01*
X144900000Y-106605682D01*
X144908188Y-106604604D01*
X145048574Y-106586122D01*
X145056762Y-106585044D01*
X145202841Y-106524536D01*
X145292082Y-106456059D01*
X145321736Y-106433305D01*
X145328282Y-106428282D01*
X145424536Y-106302841D01*
X145485044Y-106156762D01*
X145505682Y-106000000D01*
X145485044Y-105843238D01*
X145424536Y-105697159D01*
X145328282Y-105571718D01*
X145202841Y-105475464D01*
X145056762Y-105414956D01*
X144900000Y-105394318D01*
X144743238Y-105414956D01*
X144597159Y-105475464D01*
X144471718Y-105571718D01*
X144375464Y-105697159D01*
X144314956Y-105843238D01*
X144294318Y-106000000D01*
X108058593Y-106000000D01*
X108006762Y-105978531D01*
X107850000Y-105957893D01*
X107693238Y-105978531D01*
X107547159Y-106039039D01*
X107421718Y-106135293D01*
X107416695Y-106141839D01*
X107411527Y-106148574D01*
X107325464Y-106260734D01*
X107264956Y-106406813D01*
X107244318Y-106563575D01*
X93100000Y-106563575D01*
X93100000Y-106141959D01*
X96296376Y-106141959D01*
X96297081Y-106156045D01*
X96305960Y-106159575D01*
X98327885Y-106159575D01*
X98343124Y-106155100D01*
X98344329Y-106153710D01*
X98346000Y-106146027D01*
X98346000Y-106141460D01*
X98854000Y-106141460D01*
X98858475Y-106156699D01*
X98859865Y-106157904D01*
X98867548Y-106159575D01*
X100893411Y-106159575D01*
X100907393Y-106155470D01*
X100908886Y-106145847D01*
X100908834Y-106145602D01*
X100846102Y-105941692D01*
X100841881Y-105931346D01*
X100744029Y-105741761D01*
X100738043Y-105732330D01*
X100608168Y-105563074D01*
X100600607Y-105554851D01*
X100442806Y-105411263D01*
X100433906Y-105404508D01*
X100253185Y-105291141D01*
X100243219Y-105286064D01*
X100045286Y-105206495D01*
X100034571Y-105203260D01*
X99824699Y-105159798D01*
X99815562Y-105158595D01*
X99765010Y-105155680D01*
X99761363Y-105155575D01*
X98872115Y-105155575D01*
X98856876Y-105160050D01*
X98855671Y-105161440D01*
X98854000Y-105169123D01*
X98854000Y-106141460D01*
X98346000Y-106141460D01*
X98346000Y-105173690D01*
X98341525Y-105158451D01*
X98340135Y-105157246D01*
X98332452Y-105155575D01*
X97470825Y-105155575D01*
X97465230Y-105155824D01*
X97306922Y-105169953D01*
X97295908Y-105171935D01*
X97090140Y-105228226D01*
X97079659Y-105232124D01*
X96887097Y-105323972D01*
X96877484Y-105329657D01*
X96704233Y-105454150D01*
X96695767Y-105461458D01*
X96547308Y-105614657D01*
X96540265Y-105623354D01*
X96421281Y-105800419D01*
X96415895Y-105810217D01*
X96330143Y-106005565D01*
X96326578Y-106016157D01*
X96296376Y-106141959D01*
X93100000Y-106141959D01*
X93100000Y-103092750D01*
X94342000Y-103092750D01*
X94342249Y-103098345D01*
X94356378Y-103256653D01*
X94358360Y-103267667D01*
X94414651Y-103473435D01*
X94418549Y-103483916D01*
X94510397Y-103676478D01*
X94516082Y-103686091D01*
X94640575Y-103859342D01*
X94647883Y-103867808D01*
X94801082Y-104016267D01*
X94809779Y-104023310D01*
X94986844Y-104142294D01*
X94996642Y-104147680D01*
X95191990Y-104233432D01*
X95202582Y-104236997D01*
X95328384Y-104267199D01*
X95342470Y-104266494D01*
X95346000Y-104257615D01*
X95346000Y-104256986D01*
X95854000Y-104256986D01*
X95858105Y-104270968D01*
X95867728Y-104272461D01*
X95867973Y-104272409D01*
X96071883Y-104209677D01*
X96082229Y-104205456D01*
X96271814Y-104107604D01*
X96281245Y-104101618D01*
X96450501Y-103971743D01*
X96458724Y-103964182D01*
X96602312Y-103806381D01*
X96609067Y-103797481D01*
X96722434Y-103616760D01*
X96727511Y-103606794D01*
X96807080Y-103408861D01*
X96810315Y-103398146D01*
X96853777Y-103188274D01*
X96854980Y-103179137D01*
X96857895Y-103128585D01*
X96858000Y-103124938D01*
X96858000Y-103086834D01*
X100649500Y-103086834D01*
X100664112Y-103230685D01*
X100721856Y-103414948D01*
X100815472Y-103583836D01*
X100941136Y-103730450D01*
X100946178Y-103734361D01*
X100946179Y-103734362D01*
X101088665Y-103844886D01*
X101088668Y-103844888D01*
X101093714Y-103848802D01*
X101266974Y-103934056D01*
X101273144Y-103935663D01*
X101273149Y-103935665D01*
X101447655Y-103981120D01*
X101447658Y-103981120D01*
X101453837Y-103982730D01*
X101537203Y-103987099D01*
X101640290Y-103992502D01*
X101640294Y-103992502D01*
X101646671Y-103992836D01*
X101837599Y-103963961D01*
X101843595Y-103961755D01*
X102012832Y-103899489D01*
X102012836Y-103899487D01*
X102018821Y-103897285D01*
X102182934Y-103795530D01*
X102323235Y-103662854D01*
X102337505Y-103642475D01*
X102430327Y-103509910D01*
X102430328Y-103509909D01*
X102433991Y-103504677D01*
X102492125Y-103370337D01*
X102508146Y-103333316D01*
X102508146Y-103333315D01*
X102510680Y-103327460D01*
X102529625Y-103236776D01*
X102549177Y-103143187D01*
X102549177Y-103143183D01*
X102550168Y-103138442D01*
X102550500Y-103132107D01*
X102550500Y-100340316D01*
X102547784Y-100313575D01*
X107294318Y-100313575D01*
X107314956Y-100470337D01*
X107375464Y-100616416D01*
X107471718Y-100741857D01*
X107597159Y-100838111D01*
X107743238Y-100898619D01*
X107900000Y-100919257D01*
X107908188Y-100918179D01*
X108048574Y-100899697D01*
X108056762Y-100898619D01*
X108202841Y-100838111D01*
X108328282Y-100741857D01*
X108424536Y-100616416D01*
X108485044Y-100470337D01*
X108505682Y-100313575D01*
X108485044Y-100156813D01*
X108424536Y-100010734D01*
X108328282Y-99885293D01*
X108202841Y-99789039D01*
X108056762Y-99728531D01*
X107900000Y-99707893D01*
X107743238Y-99728531D01*
X107597159Y-99789039D01*
X107471718Y-99885293D01*
X107375464Y-100010734D01*
X107314956Y-100156813D01*
X107294318Y-100313575D01*
X102547784Y-100313575D01*
X102535888Y-100196465D01*
X102478144Y-100012202D01*
X102384528Y-99843314D01*
X102258864Y-99696700D01*
X102245694Y-99686484D01*
X102111335Y-99582264D01*
X102111332Y-99582262D01*
X102106286Y-99578348D01*
X101933026Y-99493094D01*
X101926856Y-99491487D01*
X101926851Y-99491485D01*
X101752345Y-99446030D01*
X101752342Y-99446030D01*
X101746163Y-99444420D01*
X101662797Y-99440051D01*
X101559710Y-99434648D01*
X101559706Y-99434648D01*
X101553329Y-99434314D01*
X101362401Y-99463189D01*
X101356406Y-99465395D01*
X101356405Y-99465395D01*
X101187168Y-99527661D01*
X101187164Y-99527663D01*
X101181179Y-99529865D01*
X101017066Y-99631620D01*
X100876765Y-99764296D01*
X100873103Y-99769526D01*
X100873102Y-99769527D01*
X100787459Y-99891839D01*
X100766009Y-99922473D01*
X100736241Y-99991262D01*
X100691913Y-100093699D01*
X100689320Y-100099690D01*
X100688015Y-100105937D01*
X100658334Y-100248013D01*
X100649832Y-100288708D01*
X100649500Y-100295043D01*
X100649500Y-103086834D01*
X96858000Y-103086834D01*
X96858000Y-101985690D01*
X96853525Y-101970451D01*
X96852135Y-101969246D01*
X96844452Y-101967575D01*
X95872115Y-101967575D01*
X95856876Y-101972050D01*
X95855671Y-101973440D01*
X95854000Y-101981123D01*
X95854000Y-104256986D01*
X95346000Y-104256986D01*
X95346000Y-101985690D01*
X95341525Y-101970451D01*
X95340135Y-101969246D01*
X95332452Y-101967575D01*
X94360115Y-101967575D01*
X94344876Y-101972050D01*
X94343671Y-101973440D01*
X94342000Y-101981123D01*
X94342000Y-103092750D01*
X93100000Y-103092750D01*
X93100000Y-101441460D01*
X94342000Y-101441460D01*
X94346475Y-101456699D01*
X94347865Y-101457904D01*
X94355548Y-101459575D01*
X95327885Y-101459575D01*
X95343124Y-101455100D01*
X95344329Y-101453710D01*
X95346000Y-101446027D01*
X95346000Y-101441460D01*
X95854000Y-101441460D01*
X95858475Y-101456699D01*
X95859865Y-101457904D01*
X95867548Y-101459575D01*
X96839885Y-101459575D01*
X96855124Y-101455100D01*
X96856329Y-101453710D01*
X96858000Y-101446027D01*
X96858000Y-100334400D01*
X96857751Y-100328805D01*
X96843622Y-100170497D01*
X96841640Y-100159483D01*
X96785349Y-99953715D01*
X96781451Y-99943234D01*
X96689603Y-99750672D01*
X96683918Y-99741059D01*
X96559425Y-99567808D01*
X96552117Y-99559342D01*
X96398918Y-99410883D01*
X96390221Y-99403840D01*
X96213156Y-99284856D01*
X96203358Y-99279470D01*
X96008010Y-99193718D01*
X95997418Y-99190153D01*
X95871616Y-99159951D01*
X95857530Y-99160656D01*
X95854000Y-99169535D01*
X95854000Y-101441460D01*
X95346000Y-101441460D01*
X95346000Y-99170164D01*
X95341895Y-99156182D01*
X95332272Y-99154689D01*
X95332027Y-99154741D01*
X95128117Y-99217473D01*
X95117771Y-99221694D01*
X94928186Y-99319546D01*
X94918755Y-99325532D01*
X94749499Y-99455407D01*
X94741276Y-99462968D01*
X94597688Y-99620769D01*
X94590933Y-99629669D01*
X94477566Y-99810390D01*
X94472489Y-99820356D01*
X94392920Y-100018289D01*
X94389685Y-100029004D01*
X94346223Y-100238876D01*
X94345020Y-100248013D01*
X94342105Y-100298565D01*
X94342000Y-100302212D01*
X94342000Y-101441460D01*
X93100000Y-101441460D01*
X93100000Y-97213575D01*
X115094318Y-97213575D01*
X115114956Y-97370337D01*
X115175464Y-97516416D01*
X115180491Y-97522967D01*
X115259607Y-97626073D01*
X115271718Y-97641857D01*
X115397159Y-97738111D01*
X115543238Y-97798619D01*
X115700000Y-97819257D01*
X115708188Y-97818179D01*
X115848574Y-97799697D01*
X115856762Y-97798619D01*
X116002841Y-97738111D01*
X116073296Y-97684049D01*
X116139516Y-97658449D01*
X116209065Y-97672714D01*
X116226703Y-97684048D01*
X116297159Y-97738111D01*
X116443238Y-97798619D01*
X116600000Y-97819257D01*
X116608188Y-97818179D01*
X116748574Y-97799697D01*
X116756762Y-97798619D01*
X116902841Y-97738111D01*
X117028282Y-97641857D01*
X117040394Y-97626073D01*
X117119509Y-97522967D01*
X117124536Y-97516416D01*
X117185044Y-97370337D01*
X117205682Y-97213575D01*
X117185044Y-97056813D01*
X117124536Y-96910734D01*
X117050000Y-96813597D01*
X117033305Y-96791839D01*
X117028282Y-96785293D01*
X116902841Y-96689039D01*
X116756762Y-96628531D01*
X116600000Y-96607893D01*
X116443238Y-96628531D01*
X116297159Y-96689039D01*
X116226704Y-96743101D01*
X116160484Y-96768701D01*
X116090935Y-96754436D01*
X116073296Y-96743101D01*
X116002841Y-96689039D01*
X115856762Y-96628531D01*
X115700000Y-96607893D01*
X115543238Y-96628531D01*
X115397159Y-96689039D01*
X115271718Y-96785293D01*
X115266695Y-96791839D01*
X115250000Y-96813597D01*
X115175464Y-96910734D01*
X115114956Y-97056813D01*
X115094318Y-97213575D01*
X93100000Y-97213575D01*
X93100000Y-96429413D01*
X93105146Y-96413575D01*
X93101128Y-96401210D01*
X93101358Y-96400428D01*
X93100864Y-96400396D01*
X93115715Y-96173817D01*
X93117866Y-96157477D01*
X93163130Y-95929917D01*
X93167396Y-95913997D01*
X93170836Y-95903865D01*
X93241974Y-95694298D01*
X93248281Y-95679071D01*
X93350898Y-95470982D01*
X93359139Y-95456708D01*
X93390937Y-95409120D01*
X93423205Y-95360827D01*
X93488038Y-95263798D01*
X93498071Y-95250722D01*
X93651052Y-95076281D01*
X93662706Y-95064627D01*
X93837147Y-94911646D01*
X93850223Y-94901613D01*
X93947252Y-94836780D01*
X94043137Y-94772712D01*
X94057404Y-94764475D01*
X94179044Y-94704489D01*
X94265496Y-94661856D01*
X94280723Y-94655549D01*
X94470822Y-94591019D01*
X94500425Y-94580970D01*
X94516339Y-94576706D01*
X94630122Y-94554073D01*
X94743902Y-94531441D01*
X94760242Y-94529290D01*
X94986821Y-94514439D01*
X94986832Y-94514602D01*
X94987108Y-94514532D01*
X95000000Y-94518721D01*
X95015838Y-94513575D01*
X147484162Y-94513575D01*
X147500000Y-94518721D01*
G37*
%TD.AperFunction*%
%TD*%
%TA.AperFunction,Conductor*%
%TO.N,GND*%
G36*
X189942121Y-102433577D02*
G01*
X189988614Y-102487233D01*
X190000000Y-102539575D01*
X190000000Y-114587575D01*
X189979998Y-114655696D01*
X189926342Y-114702189D01*
X189874000Y-114713575D01*
X155226000Y-114713575D01*
X155157879Y-114693573D01*
X155111386Y-114639917D01*
X155100000Y-114587575D01*
X155100000Y-110180052D01*
X155120002Y-110111931D01*
X155173658Y-110065438D01*
X155243932Y-110055334D01*
X155308512Y-110084828D01*
X155346762Y-110144100D01*
X155438216Y-110451288D01*
X155439160Y-110453707D01*
X155439163Y-110453716D01*
X155529343Y-110684826D01*
X155599004Y-110863351D01*
X155793270Y-111260730D01*
X156019688Y-111640709D01*
X156276712Y-112000692D01*
X156562584Y-112338221D01*
X156875354Y-112650991D01*
X157212883Y-112936863D01*
X157572866Y-113193887D01*
X157598296Y-113209040D01*
X157950604Y-113418970D01*
X157950610Y-113418973D01*
X157952845Y-113420305D01*
X158350224Y-113614571D01*
X158352653Y-113615519D01*
X158352658Y-113615521D01*
X158759859Y-113774412D01*
X158759868Y-113774415D01*
X158762287Y-113775359D01*
X158764777Y-113776100D01*
X158764779Y-113776101D01*
X158856498Y-113803407D01*
X159186221Y-113901570D01*
X159619130Y-113992341D01*
X160058055Y-114047053D01*
X160494191Y-114065092D01*
X160500000Y-114066116D01*
X160519521Y-114062674D01*
X160541400Y-114060760D01*
X176544386Y-114060760D01*
X176566265Y-114062674D01*
X176585786Y-114066116D01*
X176601264Y-114063387D01*
X176614901Y-114061743D01*
X176757891Y-114052371D01*
X176757895Y-114052370D01*
X176762006Y-114052101D01*
X176766046Y-114051297D01*
X176766049Y-114051297D01*
X176820075Y-114040551D01*
X176935211Y-114017649D01*
X176939115Y-114016324D01*
X176939118Y-114016323D01*
X177098523Y-113962212D01*
X177102438Y-113960883D01*
X177106134Y-113959060D01*
X177106142Y-113959057D01*
X177257121Y-113884601D01*
X177260824Y-113882775D01*
X177340176Y-113829754D01*
X177407929Y-113808539D01*
X177426624Y-113809597D01*
X177491812Y-113818179D01*
X177500000Y-113819257D01*
X177508188Y-113818179D01*
X177648574Y-113799697D01*
X177656762Y-113798619D01*
X177802841Y-113738111D01*
X177928282Y-113641857D01*
X178024536Y-113516416D01*
X178085044Y-113370337D01*
X178105682Y-113213575D01*
X178085044Y-113056813D01*
X178024536Y-112910734D01*
X177928282Y-112785293D01*
X177802841Y-112689039D01*
X177656762Y-112628531D01*
X177500000Y-112607893D01*
X177343238Y-112628531D01*
X177197159Y-112689039D01*
X177071718Y-112785293D01*
X176975464Y-112910734D01*
X176914956Y-113056813D01*
X176894318Y-113213575D01*
X176892964Y-113213397D01*
X176875394Y-113273234D01*
X176821738Y-113319727D01*
X176805976Y-113325687D01*
X176725010Y-113350247D01*
X176700797Y-113355062D01*
X176622476Y-113362776D01*
X176607663Y-113362209D01*
X176607663Y-113362948D01*
X176596642Y-113362948D01*
X176585786Y-113361034D01*
X176574931Y-113362948D01*
X176566266Y-113364476D01*
X176544386Y-113366390D01*
X160541400Y-113366390D01*
X160519520Y-113364476D01*
X160510855Y-113362948D01*
X160500000Y-113361034D01*
X160489145Y-113362948D01*
X160488981Y-113362948D01*
X160461865Y-113364725D01*
X160099977Y-113348925D01*
X160089026Y-113347967D01*
X159697496Y-113296420D01*
X159686672Y-113294511D01*
X159301135Y-113209040D01*
X159290517Y-113206195D01*
X158913887Y-113087444D01*
X158903574Y-113083691D01*
X158538702Y-112932556D01*
X158528758Y-112927918D01*
X158178475Y-112745572D01*
X158168956Y-112740077D01*
X157835900Y-112527897D01*
X157826896Y-112521593D01*
X157513587Y-112281183D01*
X157505167Y-112274117D01*
X157214019Y-112007329D01*
X157206246Y-111999556D01*
X156939458Y-111708408D01*
X156932392Y-111699988D01*
X156691982Y-111386679D01*
X156685678Y-111377675D01*
X156473498Y-111044620D01*
X156468002Y-111035100D01*
X156285657Y-110684817D01*
X156281015Y-110674864D01*
X156189413Y-110453716D01*
X156129884Y-110310001D01*
X156126128Y-110299680D01*
X156007380Y-109923058D01*
X156004535Y-109912440D01*
X155919064Y-109526903D01*
X155917155Y-109516079D01*
X155870701Y-109163233D01*
X155865608Y-109124548D01*
X155864650Y-109113598D01*
X155848850Y-108751710D01*
X155850627Y-108724594D01*
X155850627Y-108724430D01*
X155852541Y-108713575D01*
X155849099Y-108694054D01*
X155847185Y-108672175D01*
X155847185Y-107993575D01*
X176734370Y-107993575D01*
X176755008Y-108150337D01*
X176815516Y-108296416D01*
X176911770Y-108421857D01*
X177037211Y-108518111D01*
X177183290Y-108578619D01*
X177340052Y-108599257D01*
X177348240Y-108598179D01*
X177488626Y-108579697D01*
X177496814Y-108578619D01*
X177642893Y-108518111D01*
X177768334Y-108421857D01*
X177864588Y-108296416D01*
X177925096Y-108150337D01*
X177945734Y-107993575D01*
X177925096Y-107836813D01*
X177864588Y-107690734D01*
X177768334Y-107565293D01*
X177642893Y-107469039D01*
X177496814Y-107408531D01*
X177340052Y-107387893D01*
X177183290Y-107408531D01*
X177037211Y-107469039D01*
X176911770Y-107565293D01*
X176815516Y-107690734D01*
X176755008Y-107836813D01*
X176734370Y-107993575D01*
X155847185Y-107993575D01*
X155847185Y-107883402D01*
X155849099Y-107861522D01*
X155850627Y-107852858D01*
X155850627Y-107852857D01*
X155852541Y-107842002D01*
X155850626Y-107831143D01*
X155850626Y-107828838D01*
X155849689Y-107820751D01*
X155848461Y-107798874D01*
X155836101Y-107578786D01*
X155791941Y-107318881D01*
X155718959Y-107065554D01*
X155618072Y-106821992D01*
X155490549Y-106591256D01*
X155337994Y-106376250D01*
X155176508Y-106195546D01*
X155171447Y-106189160D01*
X155169818Y-106187531D01*
X155163497Y-106178504D01*
X155147262Y-106167136D01*
X155130438Y-106153019D01*
X155041509Y-106064091D01*
X155007484Y-106001779D01*
X155004604Y-105974995D01*
X155004604Y-105971763D01*
X155005682Y-105963575D01*
X155000450Y-105923833D01*
X155011390Y-105853684D01*
X155036277Y-105818292D01*
X155901756Y-104952813D01*
X155918580Y-104938695D01*
X155925792Y-104933645D01*
X155934818Y-104927325D01*
X155941138Y-104918299D01*
X155941252Y-104918185D01*
X155959173Y-104897750D01*
X156226235Y-104653033D01*
X156234655Y-104645967D01*
X156251157Y-104633305D01*
X156496567Y-104444995D01*
X156547964Y-104405557D01*
X156556968Y-104399253D01*
X156890023Y-104187073D01*
X156899532Y-104181583D01*
X157249835Y-103999226D01*
X157259770Y-103994593D01*
X157624640Y-103843459D01*
X157634954Y-103839706D01*
X158011586Y-103720955D01*
X158022203Y-103718110D01*
X158407740Y-103632639D01*
X158418564Y-103630730D01*
X158810094Y-103579183D01*
X158821045Y-103578225D01*
X159182933Y-103562425D01*
X159210049Y-103564202D01*
X159210213Y-103564202D01*
X159221068Y-103566116D01*
X159240589Y-103562674D01*
X159262468Y-103560760D01*
X177143748Y-103560760D01*
X177165627Y-103562674D01*
X177185148Y-103566116D01*
X177196002Y-103564202D01*
X177204204Y-103564202D01*
X177222450Y-103563206D01*
X177392641Y-103574361D01*
X177408981Y-103576512D01*
X177604828Y-103615468D01*
X177620749Y-103619734D01*
X177809833Y-103683920D01*
X177825059Y-103690227D01*
X178004147Y-103778543D01*
X178018421Y-103786784D01*
X178184447Y-103897719D01*
X178197522Y-103907752D01*
X178325762Y-104020215D01*
X178337952Y-104033813D01*
X178343755Y-104039616D01*
X178350077Y-104048645D01*
X178359106Y-104054967D01*
X178363157Y-104059018D01*
X178397183Y-104121330D01*
X178398984Y-104164558D01*
X178394318Y-104200000D01*
X178414956Y-104356762D01*
X178475464Y-104502841D01*
X178571718Y-104628282D01*
X178697159Y-104724536D01*
X178843238Y-104785044D01*
X179000000Y-104805682D01*
X179008188Y-104804604D01*
X179148574Y-104786122D01*
X179156762Y-104785044D01*
X179302841Y-104724536D01*
X179428282Y-104628282D01*
X179524536Y-104502841D01*
X179585044Y-104356762D01*
X179605682Y-104200000D01*
X179585044Y-104043238D01*
X179524536Y-103897159D01*
X179428282Y-103771718D01*
X179302841Y-103675464D01*
X179156762Y-103614956D01*
X179000000Y-103594318D01*
X178964559Y-103598984D01*
X178894411Y-103588045D01*
X178859016Y-103563156D01*
X178854969Y-103559109D01*
X178848645Y-103550077D01*
X178839615Y-103543754D01*
X178837983Y-103542122D01*
X178831597Y-103537062D01*
X178653531Y-103377933D01*
X178653521Y-103377925D01*
X178650898Y-103375581D01*
X178435892Y-103223026D01*
X178205157Y-103095503D01*
X178201894Y-103094152D01*
X178201889Y-103094149D01*
X177964865Y-102995971D01*
X177964858Y-102995968D01*
X177961595Y-102994617D01*
X177958190Y-102993636D01*
X177711671Y-102922614D01*
X177711664Y-102922612D01*
X177708268Y-102921634D01*
X177704790Y-102921043D01*
X177704781Y-102921041D01*
X177554881Y-102895573D01*
X177448363Y-102877475D01*
X177339395Y-102871355D01*
X177206405Y-102863886D01*
X177198304Y-102862948D01*
X177196004Y-102862948D01*
X177185148Y-102861034D01*
X177174293Y-102862948D01*
X177165628Y-102864476D01*
X177143748Y-102866390D01*
X159262468Y-102866390D01*
X159240588Y-102864476D01*
X159231924Y-102862948D01*
X159231923Y-102862948D01*
X159221068Y-102861034D01*
X159212092Y-102862617D01*
X159206743Y-102862827D01*
X159206351Y-102862843D01*
X159206108Y-102862852D01*
X159204134Y-102862891D01*
X159203564Y-102862952D01*
X159164775Y-102864476D01*
X158801209Y-102878760D01*
X158798766Y-102879049D01*
X158798755Y-102879050D01*
X158518791Y-102912186D01*
X158383939Y-102928147D01*
X158238981Y-102956981D01*
X157974260Y-103009637D01*
X157974249Y-103009640D01*
X157971829Y-103010121D01*
X157969453Y-103010791D01*
X157969441Y-103010794D01*
X157569811Y-103123502D01*
X157569806Y-103123504D01*
X157567422Y-103124176D01*
X157173210Y-103269608D01*
X157170975Y-103270638D01*
X157170971Y-103270640D01*
X156935515Y-103379187D01*
X156791624Y-103445522D01*
X156789485Y-103446720D01*
X156789475Y-103446725D01*
X156643635Y-103528400D01*
X156425016Y-103650832D01*
X156422963Y-103652204D01*
X156422961Y-103652205D01*
X156233883Y-103778543D01*
X156075646Y-103884273D01*
X155745669Y-104144406D01*
X155524802Y-104348574D01*
X155449987Y-104417733D01*
X155449535Y-104418098D01*
X155448098Y-104419479D01*
X155443718Y-104423528D01*
X155436250Y-104428757D01*
X155425353Y-104444320D01*
X155424880Y-104444995D01*
X155410762Y-104461819D01*
X155307295Y-104565286D01*
X155244983Y-104599312D01*
X155174168Y-104594247D01*
X155117332Y-104551700D01*
X155092521Y-104485180D01*
X155092201Y-104475737D01*
X155093262Y-104181577D01*
X155099186Y-102539119D01*
X155119433Y-102471072D01*
X155173256Y-102424773D01*
X155225185Y-102413575D01*
X189874000Y-102413575D01*
X189942121Y-102433577D01*
G37*
%TD.AperFunction*%
%TA.AperFunction,Conductor*%
G36*
X153634098Y-106465541D02*
G01*
X153661608Y-106471013D01*
X153661611Y-106471013D01*
X153665651Y-106471817D01*
X153669760Y-106472086D01*
X153669765Y-106472087D01*
X153778041Y-106479184D01*
X153785128Y-106480051D01*
X153787832Y-106480836D01*
X153797896Y-106481575D01*
X153810408Y-106481575D01*
X153818646Y-106481845D01*
X153828727Y-106482505D01*
X153841747Y-106483359D01*
X153849917Y-106484163D01*
X153864215Y-106486045D01*
X153889979Y-106482653D01*
X153906426Y-106481575D01*
X154056316Y-106481575D01*
X154104534Y-106491166D01*
X154235608Y-106545459D01*
X154235611Y-106545460D01*
X154243238Y-106548619D01*
X154400000Y-106569257D01*
X154483926Y-106558208D01*
X154554073Y-106569147D01*
X154589466Y-106594035D01*
X154639441Y-106644010D01*
X154653559Y-106660834D01*
X154664929Y-106677072D01*
X154673960Y-106683396D01*
X154679756Y-106689191D01*
X154693365Y-106701391D01*
X154805820Y-106829622D01*
X154815853Y-106842697D01*
X154926792Y-107008728D01*
X154935033Y-107023002D01*
X155023350Y-107202092D01*
X155029656Y-107217316D01*
X155093844Y-107406407D01*
X155098108Y-107422321D01*
X155113112Y-107497755D01*
X155106783Y-107568469D01*
X155063229Y-107624536D01*
X154996276Y-107648154D01*
X154927182Y-107631827D01*
X154889570Y-107599038D01*
X154833308Y-107525715D01*
X154833305Y-107525712D01*
X154828282Y-107519166D01*
X154702841Y-107422912D01*
X154556762Y-107362404D01*
X154400000Y-107341766D01*
X154243238Y-107362404D01*
X154097159Y-107422912D01*
X153971718Y-107519166D01*
X153875464Y-107644607D01*
X153814956Y-107790686D01*
X153794318Y-107947448D01*
X153814956Y-108104210D01*
X153875464Y-108250289D01*
X153880491Y-108256840D01*
X153921950Y-108310871D01*
X153947550Y-108377092D01*
X153933285Y-108446640D01*
X153883684Y-108497436D01*
X153821987Y-108513575D01*
X153600000Y-108513575D01*
X153600000Y-106458758D01*
X153634098Y-106465541D01*
G37*
%TD.AperFunction*%
%TD*%
%TA.AperFunction,NonConductor*%
G36*
X155104697Y-108223934D02*
G01*
X155145883Y-108281763D01*
X155152815Y-108322981D01*
X155152815Y-108387575D01*
X155132813Y-108455696D01*
X155079157Y-108502189D01*
X155026815Y-108513575D01*
X154978013Y-108513575D01*
X154909892Y-108493573D01*
X154863399Y-108439917D01*
X154853295Y-108369643D01*
X154878050Y-108310871D01*
X154924536Y-108250289D01*
X154926379Y-108251704D01*
X154969072Y-108210991D01*
X155038784Y-108197551D01*
X155104697Y-108223934D01*
G37*
%TD.AperFunction*%
M02*
