%FSLAX45Y45*%
G04 Gerber Fmt 4.5, Leading zero omitted, Abs format (unit mm)*
G04 Created by KiCad (PCBNEW (6.0.2)) date 2022-06-19 20:52:34*
%MOMM*%
%LPD*%
G01*
G04 APERTURE LIST*
%TA.AperFunction,Profile*%
%ADD10C,0.100000*%
%TD*%
%ADD11C,0.200000*%
%ADD12C,0.040000*%
%ADD13C,0.100000*%
G04 APERTURE END LIST*
D10*
X19250000Y-9937715D02*
X19250000Y-10985000D01*
X9500000Y-9441358D02*
X16300000Y-9441358D01*
X9500000Y-11481357D02*
X16300000Y-11481357D01*
X9300000Y-11281357D02*
X9300000Y-9641358D01*
X16300000Y-9441358D02*
X19250000Y-9937715D01*
X16300000Y-11481357D02*
X19250000Y-10985000D01*
X9300000Y-11281357D02*
G75*
G03*
X9500000Y-11481357I200000J0D01*
G01*
X9500000Y-9441358D02*
G75*
G03*
X9300000Y-9641358I0J-200000D01*
G01*
D11*
D12*
X10381000Y-10642000D02*
X10421000Y-10682000D01*
X10421000Y-10642000D02*
X10381000Y-10682000D01*
X10381000Y-10962000D02*
X10421000Y-11002000D01*
X10421000Y-10962000D02*
X10381000Y-11002000D01*
X10521000Y-10292000D02*
X10561000Y-10332000D01*
X10561000Y-10292000D02*
X10521000Y-10332000D01*
X10532750Y-10642000D02*
X10572750Y-10682000D01*
X10572750Y-10642000D02*
X10532750Y-10682000D01*
X10532750Y-10962000D02*
X10572750Y-11002000D01*
X10572750Y-10962000D02*
X10532750Y-11002000D01*
X10631000Y-9572000D02*
X10671000Y-9612000D01*
X10671000Y-9572000D02*
X10631000Y-9612000D01*
X10632750Y-10642000D02*
X10672750Y-10682000D01*
X10672750Y-10642000D02*
X10632750Y-10682000D01*
X10632750Y-10962000D02*
X10672750Y-11002000D01*
X10672750Y-10962000D02*
X10632750Y-11002000D01*
X10641000Y-10062000D02*
X10681000Y-10102000D01*
X10681000Y-10062000D02*
X10641000Y-10102000D01*
X10795000Y-9792500D02*
X10835000Y-9832500D01*
X10835000Y-9792500D02*
X10795000Y-9832500D01*
X11281000Y-10502000D02*
X11321000Y-10542000D01*
X11321000Y-10502000D02*
X11281000Y-10542000D01*
X11331000Y-10012000D02*
X11371000Y-10052000D01*
X11371000Y-10012000D02*
X11331000Y-10052000D01*
X11341000Y-10442000D02*
X11381000Y-10482000D01*
X11381000Y-10442000D02*
X11341000Y-10482000D01*
X11421000Y-10012000D02*
X11461000Y-10052000D01*
X11461000Y-10012000D02*
X11421000Y-10052000D01*
X11532250Y-9970750D02*
X11572250Y-10010750D01*
X11572250Y-9970750D02*
X11532250Y-10010750D01*
X11811000Y-10392000D02*
X11851000Y-10432000D01*
X11851000Y-10392000D02*
X11811000Y-10432000D01*
X11821000Y-11376000D02*
X11861000Y-11416000D01*
X11861000Y-11376000D02*
X11821000Y-11416000D01*
X11911000Y-10392000D02*
X11951000Y-10432000D01*
X11951000Y-10392000D02*
X11911000Y-10432000D01*
X11911000Y-11376000D02*
X11951000Y-11416000D01*
X11951000Y-11376000D02*
X11911000Y-11416000D01*
X12001000Y-11376000D02*
X12041000Y-11416000D01*
X12041000Y-11376000D02*
X12001000Y-11416000D01*
X12331000Y-9772000D02*
X12371000Y-9812000D01*
X12371000Y-9772000D02*
X12331000Y-9812000D01*
X12376255Y-10201245D02*
X12416255Y-10241245D01*
X12416255Y-10201245D02*
X12376255Y-10241245D01*
X12381000Y-9852000D02*
X12421000Y-9892000D01*
X12421000Y-9852000D02*
X12381000Y-9892000D01*
X12675701Y-9691799D02*
X12715701Y-9731799D01*
X12715701Y-9691799D02*
X12675701Y-9731799D01*
X12753755Y-10946206D02*
X12793755Y-10986206D01*
X12793755Y-10946206D02*
X12753755Y-10986206D01*
X12765701Y-9691799D02*
X12805701Y-9731799D01*
X12805701Y-9691799D02*
X12765701Y-9731799D01*
X12791000Y-10762000D02*
X12831000Y-10802000D01*
X12831000Y-10762000D02*
X12791000Y-10802000D01*
X12913755Y-11286206D02*
X12953755Y-11326206D01*
X12953755Y-11286206D02*
X12913755Y-11326206D01*
X12953755Y-10836206D02*
X12993755Y-10876206D01*
X12993755Y-10836206D02*
X12953755Y-10876206D01*
X12956255Y-10983706D02*
X12996255Y-11023706D01*
X12996255Y-10983706D02*
X12956255Y-11023706D01*
X13051000Y-11282000D02*
X13091000Y-11322000D01*
X13091000Y-11282000D02*
X13051000Y-11322000D01*
X13071000Y-9962000D02*
X13111000Y-10002000D01*
X13111000Y-9962000D02*
X13071000Y-10002000D01*
X13141000Y-10012000D02*
X13181000Y-10052000D01*
X13181000Y-10012000D02*
X13141000Y-10052000D01*
X13153755Y-11196206D02*
X13193755Y-11236206D01*
X13193755Y-11196206D02*
X13153755Y-11236206D01*
X13275000Y-9932500D02*
X13315000Y-9972500D01*
X13315000Y-9932500D02*
X13275000Y-9972500D01*
X13974357Y-10723143D02*
X14014357Y-10763143D01*
X14014357Y-10723143D02*
X13974357Y-10763143D01*
X14095000Y-10391143D02*
X14135000Y-10431143D01*
X14135000Y-10391143D02*
X14095000Y-10431143D01*
X14197000Y-10453143D02*
X14237000Y-10493143D01*
X14237000Y-10453143D02*
X14197000Y-10493143D01*
X14381000Y-10942000D02*
X14421000Y-10982000D01*
X14421000Y-10942000D02*
X14381000Y-10982000D01*
X14501000Y-11032000D02*
X14541000Y-11072000D01*
X14541000Y-11032000D02*
X14501000Y-11072000D01*
X14701000Y-10042000D02*
X14741000Y-10082000D01*
X14741000Y-10042000D02*
X14701000Y-10082000D01*
X14704250Y-10141893D02*
X14744250Y-10181893D01*
X14744250Y-10141893D02*
X14704250Y-10181893D01*
X14985000Y-10541143D02*
X15025000Y-10581143D01*
X15025000Y-10541143D02*
X14985000Y-10581143D01*
X14995000Y-9475000D02*
X15035000Y-9515000D01*
X15035000Y-9475000D02*
X14995000Y-9515000D01*
X14995000Y-9655000D02*
X15035000Y-9695000D01*
X15035000Y-9655000D02*
X14995000Y-9695000D01*
X14995000Y-9835000D02*
X15035000Y-9875000D01*
X15035000Y-9835000D02*
X14995000Y-9875000D01*
X14995000Y-10015000D02*
X15035000Y-10055000D01*
X15035000Y-10015000D02*
X14995000Y-10055000D01*
X14995000Y-10195000D02*
X15035000Y-10235000D01*
X15035000Y-10195000D02*
X14995000Y-10235000D01*
X14995000Y-10375000D02*
X15035000Y-10415000D01*
X15035000Y-10375000D02*
X14995000Y-10415000D01*
X14995000Y-10685000D02*
X15035000Y-10725000D01*
X15035000Y-10685000D02*
X14995000Y-10725000D01*
X14995000Y-10865000D02*
X15035000Y-10905000D01*
X15035000Y-10865000D02*
X14995000Y-10905000D01*
X14995000Y-11045000D02*
X15035000Y-11085000D01*
X15035000Y-11045000D02*
X14995000Y-11085000D01*
X14995000Y-11225000D02*
X15035000Y-11265000D01*
X15035000Y-11225000D02*
X14995000Y-11265000D01*
X14995000Y-11410000D02*
X15035000Y-11450000D01*
X15035000Y-11410000D02*
X14995000Y-11450000D01*
X16243505Y-10379358D02*
X16283505Y-10419358D01*
X16283505Y-10379358D02*
X16243505Y-10419358D01*
X16312500Y-10906358D02*
X16352500Y-10946358D01*
X16352500Y-10906358D02*
X16312500Y-10946358D01*
X16400000Y-9490000D02*
X16440000Y-9530000D01*
X16440000Y-9490000D02*
X16400000Y-9530000D01*
X16401078Y-11390000D02*
X16441078Y-11430000D01*
X16441078Y-11390000D02*
X16401078Y-11430000D01*
X16412500Y-10826358D02*
X16452500Y-10866358D01*
X16452500Y-10826358D02*
X16412500Y-10866358D01*
X16462500Y-10005000D02*
X16502500Y-10045000D01*
X16502500Y-10005000D02*
X16462500Y-10045000D01*
X16560000Y-9930000D02*
X16600000Y-9970000D01*
X16600000Y-9930000D02*
X16560000Y-9970000D01*
X16750000Y-9550000D02*
X16790000Y-9590000D01*
X16790000Y-9550000D02*
X16750000Y-9590000D01*
X16751078Y-11330000D02*
X16791078Y-11370000D01*
X16791078Y-11330000D02*
X16751078Y-11370000D01*
X17090000Y-9610000D02*
X17130000Y-9650000D01*
X17130000Y-9610000D02*
X17090000Y-9650000D01*
X17091078Y-11270000D02*
X17131078Y-11310000D01*
X17131078Y-11270000D02*
X17091078Y-11310000D01*
X17440000Y-9670000D02*
X17480000Y-9710000D01*
X17480000Y-9670000D02*
X17440000Y-9710000D01*
X17441078Y-11210000D02*
X17481078Y-11250000D01*
X17481078Y-11210000D02*
X17441078Y-11250000D01*
X17780000Y-9730000D02*
X17820000Y-9770000D01*
X17820000Y-9730000D02*
X17780000Y-9770000D01*
X17781078Y-11150000D02*
X17821078Y-11190000D01*
X17821078Y-11150000D02*
X17781078Y-11190000D01*
X18130000Y-9790000D02*
X18170000Y-9830000D01*
X18170000Y-9790000D02*
X18130000Y-9830000D01*
X18131078Y-11090000D02*
X18171078Y-11130000D01*
X18171078Y-11090000D02*
X18131078Y-11130000D01*
X18470000Y-9850000D02*
X18510000Y-9890000D01*
X18510000Y-9850000D02*
X18470000Y-9890000D01*
X18471078Y-11030000D02*
X18511078Y-11070000D01*
X18511078Y-11030000D02*
X18471078Y-11070000D01*
X18865000Y-10015000D02*
X18905000Y-10055000D01*
X18905000Y-10015000D02*
X18865000Y-10055000D01*
X18865000Y-10870000D02*
X18905000Y-10910000D01*
X18905000Y-10870000D02*
X18865000Y-10910000D01*
X19050000Y-10015000D02*
X19090000Y-10055000D01*
X19090000Y-10015000D02*
X19050000Y-10055000D01*
X19050000Y-10870000D02*
X19090000Y-10910000D01*
X19090000Y-10870000D02*
X19050000Y-10910000D01*
D13*
X9551000Y-10092000D02*
G75*
G03*
X9551000Y-10092000I-50000J0D01*
G01*
D11*
X9541000Y-10222000D02*
X9541000Y-9962000D01*
X9461000Y-10222000D02*
X9461000Y-9962000D01*
X9541000Y-9962000D02*
G75*
G03*
X9461000Y-9962000I-40000J0D01*
G01*
X9461000Y-10222000D02*
G75*
G03*
X9541000Y-10222000I40000J0D01*
G01*
D13*
X9851000Y-10562000D02*
G75*
G03*
X9851000Y-10562000I-50000J0D01*
G01*
D11*
X9696000Y-10602000D02*
X9906000Y-10602000D01*
X9696000Y-10522000D02*
X9906000Y-10522000D01*
X9906000Y-10602000D02*
G75*
G03*
X9906000Y-10522000I0J40000D01*
G01*
X9696000Y-10522000D02*
G75*
G03*
X9696000Y-10602000I0J-40000D01*
G01*
D13*
X10151000Y-10092000D02*
G75*
G03*
X10151000Y-10092000I-50000J0D01*
G01*
D11*
X10141000Y-10222000D02*
X10141000Y-9962000D01*
X10061000Y-10222000D02*
X10061000Y-9962000D01*
X10141000Y-9962000D02*
G75*
G03*
X10061000Y-9962000I-40000J0D01*
G01*
X10061000Y-10222000D02*
G75*
G03*
X10141000Y-10222000I40000J0D01*
G01*
D13*
X11985000Y-9848500D02*
G75*
G03*
X11985000Y-9848500I-50000J0D01*
G01*
X11985000Y-10102500D02*
G75*
G03*
X11985000Y-10102500I-50000J0D01*
G01*
D11*
X9552619Y-11796834D02*
X9552619Y-11596834D01*
X9600238Y-11596834D01*
X9628810Y-11606357D01*
X9647857Y-11625405D01*
X9657381Y-11644453D01*
X9666905Y-11682548D01*
X9666905Y-11711119D01*
X9657381Y-11749215D01*
X9647857Y-11768262D01*
X9628810Y-11787310D01*
X9600238Y-11796834D01*
X9552619Y-11796834D01*
X9752619Y-11796834D02*
X9752619Y-11663500D01*
X9752619Y-11701595D02*
X9762143Y-11682548D01*
X9771667Y-11673024D01*
X9790714Y-11663500D01*
X9809762Y-11663500D01*
X9876429Y-11796834D02*
X9876429Y-11663500D01*
X9876429Y-11596834D02*
X9866905Y-11606357D01*
X9876429Y-11615881D01*
X9885952Y-11606357D01*
X9876429Y-11596834D01*
X9876429Y-11615881D01*
X10000238Y-11796834D02*
X9981190Y-11787310D01*
X9971667Y-11768262D01*
X9971667Y-11596834D01*
X10105000Y-11796834D02*
X10085952Y-11787310D01*
X10076429Y-11768262D01*
X10076429Y-11596834D01*
X10333571Y-11796834D02*
X10333571Y-11596834D01*
X10400238Y-11739691D01*
X10466905Y-11596834D01*
X10466905Y-11796834D01*
X10647857Y-11796834D02*
X10647857Y-11692072D01*
X10638333Y-11673024D01*
X10619286Y-11663500D01*
X10581190Y-11663500D01*
X10562143Y-11673024D01*
X10647857Y-11787310D02*
X10628810Y-11796834D01*
X10581190Y-11796834D01*
X10562143Y-11787310D01*
X10552619Y-11768262D01*
X10552619Y-11749215D01*
X10562143Y-11730167D01*
X10581190Y-11720643D01*
X10628810Y-11720643D01*
X10647857Y-11711119D01*
X10743095Y-11663500D02*
X10743095Y-11863500D01*
X10743095Y-11673024D02*
X10762143Y-11663500D01*
X10800238Y-11663500D01*
X10819286Y-11673024D01*
X10828810Y-11682548D01*
X10838333Y-11701595D01*
X10838333Y-11758738D01*
X10828810Y-11777786D01*
X10819286Y-11787310D01*
X10800238Y-11796834D01*
X10762143Y-11796834D01*
X10743095Y-11787310D01*
X10924048Y-11777786D02*
X10933571Y-11787310D01*
X10924048Y-11796834D01*
X10914524Y-11787310D01*
X10924048Y-11777786D01*
X10924048Y-11796834D01*
X10924048Y-11673024D02*
X10933571Y-11682548D01*
X10924048Y-11692072D01*
X10914524Y-11682548D01*
X10924048Y-11673024D01*
X10924048Y-11692072D01*
D12*
X9255000Y-12106357D02*
X9295000Y-12146357D01*
X9295000Y-12106357D02*
X9255000Y-12146357D01*
D11*
X9590714Y-12016834D02*
X9609762Y-12016834D01*
X9628810Y-12026357D01*
X9638333Y-12035881D01*
X9647857Y-12054929D01*
X9657381Y-12093024D01*
X9657381Y-12140643D01*
X9647857Y-12178738D01*
X9638333Y-12197786D01*
X9628810Y-12207310D01*
X9609762Y-12216834D01*
X9590714Y-12216834D01*
X9571667Y-12207310D01*
X9562143Y-12197786D01*
X9552619Y-12178738D01*
X9543095Y-12140643D01*
X9543095Y-12093024D01*
X9552619Y-12054929D01*
X9562143Y-12035881D01*
X9571667Y-12026357D01*
X9590714Y-12016834D01*
X9743095Y-12197786D02*
X9752619Y-12207310D01*
X9743095Y-12216834D01*
X9733571Y-12207310D01*
X9743095Y-12197786D01*
X9743095Y-12216834D01*
X9924048Y-12083500D02*
X9924048Y-12216834D01*
X9876429Y-12007310D02*
X9828810Y-12150167D01*
X9952619Y-12150167D01*
X10066905Y-12016834D02*
X10085952Y-12016834D01*
X10105000Y-12026357D01*
X10114524Y-12035881D01*
X10124048Y-12054929D01*
X10133571Y-12093024D01*
X10133571Y-12140643D01*
X10124048Y-12178738D01*
X10114524Y-12197786D01*
X10105000Y-12207310D01*
X10085952Y-12216834D01*
X10066905Y-12216834D01*
X10047857Y-12207310D01*
X10038333Y-12197786D01*
X10028810Y-12178738D01*
X10019286Y-12140643D01*
X10019286Y-12093024D01*
X10028810Y-12054929D01*
X10038333Y-12035881D01*
X10047857Y-12026357D01*
X10066905Y-12016834D01*
X10257381Y-12016834D02*
X10276429Y-12016834D01*
X10295476Y-12026357D01*
X10305000Y-12035881D01*
X10314524Y-12054929D01*
X10324048Y-12093024D01*
X10324048Y-12140643D01*
X10314524Y-12178738D01*
X10305000Y-12197786D01*
X10295476Y-12207310D01*
X10276429Y-12216834D01*
X10257381Y-12216834D01*
X10238333Y-12207310D01*
X10228810Y-12197786D01*
X10219286Y-12178738D01*
X10209762Y-12140643D01*
X10209762Y-12093024D01*
X10219286Y-12054929D01*
X10228810Y-12035881D01*
X10238333Y-12026357D01*
X10257381Y-12016834D01*
X10409762Y-12216834D02*
X10409762Y-12083500D01*
X10409762Y-12102548D02*
X10419286Y-12093024D01*
X10438333Y-12083500D01*
X10466905Y-12083500D01*
X10485952Y-12093024D01*
X10495476Y-12112072D01*
X10495476Y-12216834D01*
X10495476Y-12112072D02*
X10505000Y-12093024D01*
X10524048Y-12083500D01*
X10552619Y-12083500D01*
X10571667Y-12093024D01*
X10581190Y-12112072D01*
X10581190Y-12216834D01*
X10676429Y-12216834D02*
X10676429Y-12083500D01*
X10676429Y-12102548D02*
X10685952Y-12093024D01*
X10705000Y-12083500D01*
X10733571Y-12083500D01*
X10752619Y-12093024D01*
X10762143Y-12112072D01*
X10762143Y-12216834D01*
X10762143Y-12112072D02*
X10771667Y-12093024D01*
X10790714Y-12083500D01*
X10819286Y-12083500D01*
X10838333Y-12093024D01*
X10847857Y-12112072D01*
X10847857Y-12216834D01*
X11238333Y-12007310D02*
X11066905Y-12264453D01*
X11495476Y-12016834D02*
X11514524Y-12016834D01*
X11533571Y-12026357D01*
X11543095Y-12035881D01*
X11552619Y-12054929D01*
X11562143Y-12093024D01*
X11562143Y-12140643D01*
X11552619Y-12178738D01*
X11543095Y-12197786D01*
X11533571Y-12207310D01*
X11514524Y-12216834D01*
X11495476Y-12216834D01*
X11476428Y-12207310D01*
X11466905Y-12197786D01*
X11457381Y-12178738D01*
X11447857Y-12140643D01*
X11447857Y-12093024D01*
X11457381Y-12054929D01*
X11466905Y-12035881D01*
X11476428Y-12026357D01*
X11495476Y-12016834D01*
X11647857Y-12197786D02*
X11657381Y-12207310D01*
X11647857Y-12216834D01*
X11638333Y-12207310D01*
X11647857Y-12197786D01*
X11647857Y-12216834D01*
X11781190Y-12016834D02*
X11800238Y-12016834D01*
X11819286Y-12026357D01*
X11828809Y-12035881D01*
X11838333Y-12054929D01*
X11847857Y-12093024D01*
X11847857Y-12140643D01*
X11838333Y-12178738D01*
X11828809Y-12197786D01*
X11819286Y-12207310D01*
X11800238Y-12216834D01*
X11781190Y-12216834D01*
X11762143Y-12207310D01*
X11752619Y-12197786D01*
X11743095Y-12178738D01*
X11733571Y-12140643D01*
X11733571Y-12093024D01*
X11743095Y-12054929D01*
X11752619Y-12035881D01*
X11762143Y-12026357D01*
X11781190Y-12016834D01*
X12038333Y-12216834D02*
X11924048Y-12216834D01*
X11981190Y-12216834D02*
X11981190Y-12016834D01*
X11962143Y-12045405D01*
X11943095Y-12064453D01*
X11924048Y-12073976D01*
X12219286Y-12016834D02*
X12124048Y-12016834D01*
X12114524Y-12112072D01*
X12124048Y-12102548D01*
X12143095Y-12093024D01*
X12190714Y-12093024D01*
X12209762Y-12102548D01*
X12219286Y-12112072D01*
X12228809Y-12131119D01*
X12228809Y-12178738D01*
X12219286Y-12197786D01*
X12209762Y-12207310D01*
X12190714Y-12216834D01*
X12143095Y-12216834D01*
X12124048Y-12207310D01*
X12114524Y-12197786D01*
X12295476Y-12016834D02*
X12428809Y-12016834D01*
X12343095Y-12216834D01*
X12495476Y-12016834D02*
X12495476Y-12054929D01*
X12571667Y-12016834D02*
X12571667Y-12054929D01*
X12866905Y-12293024D02*
X12857381Y-12283500D01*
X12838333Y-12254929D01*
X12828809Y-12235881D01*
X12819286Y-12207310D01*
X12809762Y-12159691D01*
X12809762Y-12121595D01*
X12819286Y-12073976D01*
X12828809Y-12045405D01*
X12838333Y-12026357D01*
X12857381Y-11997786D01*
X12866905Y-11988262D01*
X12924048Y-12016834D02*
X13057381Y-12016834D01*
X12971667Y-12216834D01*
X13114524Y-12016834D02*
X13247857Y-12016834D01*
X13162143Y-12216834D01*
X13476428Y-12216834D02*
X13476428Y-12016834D01*
X13562143Y-12216834D02*
X13562143Y-12112072D01*
X13552619Y-12093024D01*
X13533571Y-12083500D01*
X13505000Y-12083500D01*
X13485952Y-12093024D01*
X13476428Y-12102548D01*
X13685952Y-12216834D02*
X13666905Y-12207310D01*
X13657381Y-12197786D01*
X13647857Y-12178738D01*
X13647857Y-12121595D01*
X13657381Y-12102548D01*
X13666905Y-12093024D01*
X13685952Y-12083500D01*
X13714524Y-12083500D01*
X13733571Y-12093024D01*
X13743095Y-12102548D01*
X13752619Y-12121595D01*
X13752619Y-12178738D01*
X13743095Y-12197786D01*
X13733571Y-12207310D01*
X13714524Y-12216834D01*
X13685952Y-12216834D01*
X13866905Y-12216834D02*
X13847857Y-12207310D01*
X13838333Y-12188262D01*
X13838333Y-12016834D01*
X14019286Y-12207310D02*
X14000238Y-12216834D01*
X13962143Y-12216834D01*
X13943095Y-12207310D01*
X13933571Y-12188262D01*
X13933571Y-12112072D01*
X13943095Y-12093024D01*
X13962143Y-12083500D01*
X14000238Y-12083500D01*
X14019286Y-12093024D01*
X14028809Y-12112072D01*
X14028809Y-12131119D01*
X13933571Y-12150167D01*
X14105000Y-12207310D02*
X14124048Y-12216834D01*
X14162143Y-12216834D01*
X14181190Y-12207310D01*
X14190714Y-12188262D01*
X14190714Y-12178738D01*
X14181190Y-12159691D01*
X14162143Y-12150167D01*
X14133571Y-12150167D01*
X14114524Y-12140643D01*
X14105000Y-12121595D01*
X14105000Y-12112072D01*
X14114524Y-12093024D01*
X14133571Y-12083500D01*
X14162143Y-12083500D01*
X14181190Y-12093024D01*
X14257381Y-12293024D02*
X14266905Y-12283500D01*
X14285952Y-12254929D01*
X14295476Y-12235881D01*
X14305000Y-12207310D01*
X14314524Y-12159691D01*
X14314524Y-12121595D01*
X14305000Y-12073976D01*
X14295476Y-12045405D01*
X14285952Y-12026357D01*
X14266905Y-11997786D01*
X14257381Y-11988262D01*
D13*
X9295000Y-12390357D02*
G75*
G03*
X9295000Y-12390357I-50000J0D01*
G01*
D11*
X9657381Y-12480834D02*
X9543095Y-12480834D01*
X9600238Y-12480834D02*
X9600238Y-12280834D01*
X9581190Y-12309405D01*
X9562143Y-12328453D01*
X9543095Y-12337976D01*
X9743095Y-12461786D02*
X9752619Y-12471310D01*
X9743095Y-12480834D01*
X9733571Y-12471310D01*
X9743095Y-12461786D01*
X9743095Y-12480834D01*
X9876429Y-12280834D02*
X9895476Y-12280834D01*
X9914524Y-12290357D01*
X9924048Y-12299881D01*
X9933571Y-12318929D01*
X9943095Y-12357024D01*
X9943095Y-12404643D01*
X9933571Y-12442738D01*
X9924048Y-12461786D01*
X9914524Y-12471310D01*
X9895476Y-12480834D01*
X9876429Y-12480834D01*
X9857381Y-12471310D01*
X9847857Y-12461786D01*
X9838333Y-12442738D01*
X9828810Y-12404643D01*
X9828810Y-12357024D01*
X9838333Y-12318929D01*
X9847857Y-12299881D01*
X9857381Y-12290357D01*
X9876429Y-12280834D01*
X10066905Y-12280834D02*
X10085952Y-12280834D01*
X10105000Y-12290357D01*
X10114524Y-12299881D01*
X10124048Y-12318929D01*
X10133571Y-12357024D01*
X10133571Y-12404643D01*
X10124048Y-12442738D01*
X10114524Y-12461786D01*
X10105000Y-12471310D01*
X10085952Y-12480834D01*
X10066905Y-12480834D01*
X10047857Y-12471310D01*
X10038333Y-12461786D01*
X10028810Y-12442738D01*
X10019286Y-12404643D01*
X10019286Y-12357024D01*
X10028810Y-12318929D01*
X10038333Y-12299881D01*
X10047857Y-12290357D01*
X10066905Y-12280834D01*
X10257381Y-12280834D02*
X10276429Y-12280834D01*
X10295476Y-12290357D01*
X10305000Y-12299881D01*
X10314524Y-12318929D01*
X10324048Y-12357024D01*
X10324048Y-12404643D01*
X10314524Y-12442738D01*
X10305000Y-12461786D01*
X10295476Y-12471310D01*
X10276429Y-12480834D01*
X10257381Y-12480834D01*
X10238333Y-12471310D01*
X10228810Y-12461786D01*
X10219286Y-12442738D01*
X10209762Y-12404643D01*
X10209762Y-12357024D01*
X10219286Y-12318929D01*
X10228810Y-12299881D01*
X10238333Y-12290357D01*
X10257381Y-12280834D01*
X10409762Y-12480834D02*
X10409762Y-12347500D01*
X10409762Y-12366548D02*
X10419286Y-12357024D01*
X10438333Y-12347500D01*
X10466905Y-12347500D01*
X10485952Y-12357024D01*
X10495476Y-12376072D01*
X10495476Y-12480834D01*
X10495476Y-12376072D02*
X10505000Y-12357024D01*
X10524048Y-12347500D01*
X10552619Y-12347500D01*
X10571667Y-12357024D01*
X10581190Y-12376072D01*
X10581190Y-12480834D01*
X10676429Y-12480834D02*
X10676429Y-12347500D01*
X10676429Y-12366548D02*
X10685952Y-12357024D01*
X10705000Y-12347500D01*
X10733571Y-12347500D01*
X10752619Y-12357024D01*
X10762143Y-12376072D01*
X10762143Y-12480834D01*
X10762143Y-12376072D02*
X10771667Y-12357024D01*
X10790714Y-12347500D01*
X10819286Y-12347500D01*
X10838333Y-12357024D01*
X10847857Y-12376072D01*
X10847857Y-12480834D01*
X11238333Y-12271310D02*
X11066905Y-12528453D01*
X11495476Y-12280834D02*
X11514524Y-12280834D01*
X11533571Y-12290357D01*
X11543095Y-12299881D01*
X11552619Y-12318929D01*
X11562143Y-12357024D01*
X11562143Y-12404643D01*
X11552619Y-12442738D01*
X11543095Y-12461786D01*
X11533571Y-12471310D01*
X11514524Y-12480834D01*
X11495476Y-12480834D01*
X11476428Y-12471310D01*
X11466905Y-12461786D01*
X11457381Y-12442738D01*
X11447857Y-12404643D01*
X11447857Y-12357024D01*
X11457381Y-12318929D01*
X11466905Y-12299881D01*
X11476428Y-12290357D01*
X11495476Y-12280834D01*
X11647857Y-12461786D02*
X11657381Y-12471310D01*
X11647857Y-12480834D01*
X11638333Y-12471310D01*
X11647857Y-12461786D01*
X11647857Y-12480834D01*
X11781190Y-12280834D02*
X11800238Y-12280834D01*
X11819286Y-12290357D01*
X11828809Y-12299881D01*
X11838333Y-12318929D01*
X11847857Y-12357024D01*
X11847857Y-12404643D01*
X11838333Y-12442738D01*
X11828809Y-12461786D01*
X11819286Y-12471310D01*
X11800238Y-12480834D01*
X11781190Y-12480834D01*
X11762143Y-12471310D01*
X11752619Y-12461786D01*
X11743095Y-12442738D01*
X11733571Y-12404643D01*
X11733571Y-12357024D01*
X11743095Y-12318929D01*
X11752619Y-12299881D01*
X11762143Y-12290357D01*
X11781190Y-12280834D01*
X11914524Y-12280834D02*
X12038333Y-12280834D01*
X11971667Y-12357024D01*
X12000238Y-12357024D01*
X12019286Y-12366548D01*
X12028809Y-12376072D01*
X12038333Y-12395119D01*
X12038333Y-12442738D01*
X12028809Y-12461786D01*
X12019286Y-12471310D01*
X12000238Y-12480834D01*
X11943095Y-12480834D01*
X11924048Y-12471310D01*
X11914524Y-12461786D01*
X12133571Y-12480834D02*
X12171667Y-12480834D01*
X12190714Y-12471310D01*
X12200238Y-12461786D01*
X12219286Y-12433215D01*
X12228809Y-12395119D01*
X12228809Y-12318929D01*
X12219286Y-12299881D01*
X12209762Y-12290357D01*
X12190714Y-12280834D01*
X12152619Y-12280834D01*
X12133571Y-12290357D01*
X12124048Y-12299881D01*
X12114524Y-12318929D01*
X12114524Y-12366548D01*
X12124048Y-12385595D01*
X12133571Y-12395119D01*
X12152619Y-12404643D01*
X12190714Y-12404643D01*
X12209762Y-12395119D01*
X12219286Y-12385595D01*
X12228809Y-12366548D01*
X12400238Y-12347500D02*
X12400238Y-12480834D01*
X12352619Y-12271310D02*
X12305000Y-12414167D01*
X12428809Y-12414167D01*
X12495476Y-12280834D02*
X12495476Y-12318929D01*
X12571667Y-12280834D02*
X12571667Y-12318929D01*
X12866905Y-12557024D02*
X12857381Y-12547500D01*
X12838333Y-12518929D01*
X12828809Y-12499881D01*
X12819286Y-12471310D01*
X12809762Y-12423691D01*
X12809762Y-12385595D01*
X12819286Y-12337976D01*
X12828809Y-12309405D01*
X12838333Y-12290357D01*
X12857381Y-12261786D01*
X12866905Y-12252262D01*
X12933571Y-12299881D02*
X12943095Y-12290357D01*
X12962143Y-12280834D01*
X13009762Y-12280834D01*
X13028809Y-12290357D01*
X13038333Y-12299881D01*
X13047857Y-12318929D01*
X13047857Y-12337976D01*
X13038333Y-12366548D01*
X12924048Y-12480834D01*
X13047857Y-12480834D01*
X13285952Y-12480834D02*
X13285952Y-12280834D01*
X13371667Y-12480834D02*
X13371667Y-12376072D01*
X13362143Y-12357024D01*
X13343095Y-12347500D01*
X13314524Y-12347500D01*
X13295476Y-12357024D01*
X13285952Y-12366548D01*
X13495476Y-12480834D02*
X13476428Y-12471310D01*
X13466905Y-12461786D01*
X13457381Y-12442738D01*
X13457381Y-12385595D01*
X13466905Y-12366548D01*
X13476428Y-12357024D01*
X13495476Y-12347500D01*
X13524048Y-12347500D01*
X13543095Y-12357024D01*
X13552619Y-12366548D01*
X13562143Y-12385595D01*
X13562143Y-12442738D01*
X13552619Y-12461786D01*
X13543095Y-12471310D01*
X13524048Y-12480834D01*
X13495476Y-12480834D01*
X13676428Y-12480834D02*
X13657381Y-12471310D01*
X13647857Y-12452262D01*
X13647857Y-12280834D01*
X13828809Y-12471310D02*
X13809762Y-12480834D01*
X13771667Y-12480834D01*
X13752619Y-12471310D01*
X13743095Y-12452262D01*
X13743095Y-12376072D01*
X13752619Y-12357024D01*
X13771667Y-12347500D01*
X13809762Y-12347500D01*
X13828809Y-12357024D01*
X13838333Y-12376072D01*
X13838333Y-12395119D01*
X13743095Y-12414167D01*
X13914524Y-12471310D02*
X13933571Y-12480834D01*
X13971667Y-12480834D01*
X13990714Y-12471310D01*
X14000238Y-12452262D01*
X14000238Y-12442738D01*
X13990714Y-12423691D01*
X13971667Y-12414167D01*
X13943095Y-12414167D01*
X13924048Y-12404643D01*
X13914524Y-12385595D01*
X13914524Y-12376072D01*
X13924048Y-12357024D01*
X13943095Y-12347500D01*
X13971667Y-12347500D01*
X13990714Y-12357024D01*
X14238333Y-12404643D02*
X14390714Y-12404643D01*
X14314524Y-12480834D02*
X14314524Y-12328453D01*
X14619286Y-12280834D02*
X14743095Y-12280834D01*
X14676428Y-12357024D01*
X14705000Y-12357024D01*
X14724048Y-12366548D01*
X14733571Y-12376072D01*
X14743095Y-12395119D01*
X14743095Y-12442738D01*
X14733571Y-12461786D01*
X14724048Y-12471310D01*
X14705000Y-12480834D01*
X14647857Y-12480834D01*
X14628809Y-12471310D01*
X14619286Y-12461786D01*
X14971667Y-12471310D02*
X14990714Y-12480834D01*
X15028809Y-12480834D01*
X15047857Y-12471310D01*
X15057381Y-12452262D01*
X15057381Y-12442738D01*
X15047857Y-12423691D01*
X15028809Y-12414167D01*
X15000238Y-12414167D01*
X14981190Y-12404643D01*
X14971667Y-12385595D01*
X14971667Y-12376072D01*
X14981190Y-12357024D01*
X15000238Y-12347500D01*
X15028809Y-12347500D01*
X15047857Y-12357024D01*
X15171667Y-12480834D02*
X15152619Y-12471310D01*
X15143095Y-12452262D01*
X15143095Y-12280834D01*
X15276428Y-12480834D02*
X15257381Y-12471310D01*
X15247857Y-12461786D01*
X15238333Y-12442738D01*
X15238333Y-12385595D01*
X15247857Y-12366548D01*
X15257381Y-12357024D01*
X15276428Y-12347500D01*
X15305000Y-12347500D01*
X15324048Y-12357024D01*
X15333571Y-12366548D01*
X15343095Y-12385595D01*
X15343095Y-12442738D01*
X15333571Y-12461786D01*
X15324048Y-12471310D01*
X15305000Y-12480834D01*
X15276428Y-12480834D01*
X15400238Y-12347500D02*
X15476428Y-12347500D01*
X15428809Y-12280834D02*
X15428809Y-12452262D01*
X15438333Y-12471310D01*
X15457381Y-12480834D01*
X15476428Y-12480834D01*
X15533571Y-12471310D02*
X15552619Y-12480834D01*
X15590714Y-12480834D01*
X15609762Y-12471310D01*
X15619286Y-12452262D01*
X15619286Y-12442738D01*
X15609762Y-12423691D01*
X15590714Y-12414167D01*
X15562143Y-12414167D01*
X15543095Y-12404643D01*
X15533571Y-12385595D01*
X15533571Y-12376072D01*
X15543095Y-12357024D01*
X15562143Y-12347500D01*
X15590714Y-12347500D01*
X15609762Y-12357024D01*
X15685952Y-12557024D02*
X15695476Y-12547500D01*
X15714524Y-12518929D01*
X15724048Y-12499881D01*
X15733571Y-12471310D01*
X15743095Y-12423691D01*
X15743095Y-12385595D01*
X15733571Y-12337976D01*
X15724048Y-12309405D01*
X15714524Y-12290357D01*
X15695476Y-12261786D01*
X15685952Y-12252262D01*
M02*
