%TF.GenerationSoftware,KiCad,Pcbnew,(6.0.2)*%
%TF.CreationDate,2022-05-29T21:50:20-07:00*%
%TF.ProjectId,peregrine,70657265-6772-4696-9e65-2e6b69636164,3*%
%TF.SameCoordinates,Original*%
%TF.FileFunction,Copper,L4,Bot*%
%TF.FilePolarity,Positive*%
%FSLAX46Y46*%
G04 Gerber Fmt 4.6, Leading zero omitted, Abs format (unit mm)*
G04 Created by KiCad (PCBNEW (6.0.2)) date 2022-05-29 21:50:20*
%MOMM*%
%LPD*%
G01*
G04 APERTURE LIST*
%TA.AperFunction,SMDPad,CuDef*%
%ADD10R,1.500000X1.500000*%
%TD*%
%TA.AperFunction,ComponentPad*%
%ADD11R,1.700000X1.700000*%
%TD*%
%TA.AperFunction,ComponentPad*%
%ADD12O,1.700000X1.700000*%
%TD*%
%TA.AperFunction,ComponentPad*%
%ADD13C,2.000000*%
%TD*%
%TA.AperFunction,ComponentPad*%
%ADD14C,2.200000*%
%TD*%
%TA.AperFunction,ComponentPad*%
%ADD15O,1.500000X4.150000*%
%TD*%
%TA.AperFunction,ComponentPad*%
%ADD16O,3.650000X1.500000*%
%TD*%
%TA.AperFunction,ViaPad*%
%ADD17C,0.800000*%
%TD*%
%TA.AperFunction,Conductor*%
%ADD18C,0.293370*%
%TD*%
%TA.AperFunction,Conductor*%
%ADD19C,0.635000*%
%TD*%
%TA.AperFunction,Conductor*%
%ADD20C,0.250000*%
%TD*%
G04 APERTURE END LIST*
D10*
%TO.P,TP1,1,1*%
%TO.N,+VDC*%
X100300000Y-112413575D03*
%TD*%
%TO.P,TP2,1,1*%
%TO.N,GND*%
X97700000Y-112413575D03*
%TD*%
D11*
%TO.P,J2,1,Pin_1*%
%TO.N,+VDC*%
X100240000Y-109713575D03*
D12*
%TO.P,J2,2,Pin_2*%
%TO.N,GND*%
X97700000Y-109713575D03*
%TD*%
D11*
%TO.P,J3,1,Pin_1*%
%TO.N,Net-(C10-Pad1)*%
X120800000Y-101013575D03*
D12*
%TO.P,J3,2,Pin_2*%
%TO.N,GND*%
X120800000Y-98473575D03*
%TD*%
D13*
%TO.P,J4,1,In*%
%TO.N,Net-(J4-Pad1)*%
X201850000Y-108569598D03*
D14*
%TO.P,J4,2,Ext*%
%TO.N,GND*%
X199275000Y-105994598D03*
X199275000Y-111144598D03*
X204425000Y-111144598D03*
X204425000Y-105994598D03*
%TD*%
D15*
%TO.P,J1,1*%
%TO.N,+VDC*%
X101600000Y-101713575D03*
D16*
%TO.P,J1,2*%
%TO.N,GND*%
X98600000Y-106413575D03*
D15*
X95600000Y-101713575D03*
%TD*%
D17*
%TO.N,VCC*%
X179000000Y-104200000D03*
%TO.N,+3V3*%
X119432989Y-104167011D03*
%TO.N,VCC*%
X116500000Y-104100000D03*
%TO.N,GND*%
X125600000Y-98813575D03*
X154400000Y-112313575D03*
X113550000Y-105063575D03*
X141200000Y-106513575D03*
X114300000Y-105513575D03*
X133500000Y-100313575D03*
X153400000Y-114313575D03*
X153700000Y-102113575D03*
X115900000Y-99413575D03*
X115900000Y-98513575D03*
X115800000Y-109113575D03*
X118700000Y-112913575D03*
X109600000Y-103113575D03*
X154400000Y-109213575D03*
X120500000Y-112913575D03*
X109600000Y-98113575D03*
X179000000Y-103113575D03*
X151400000Y-114313575D03*
X152250000Y-100663575D03*
X154400000Y-111313575D03*
X154400000Y-103813575D03*
X152950000Y-101363575D03*
X154400000Y-104813575D03*
X152400000Y-114313575D03*
X154400000Y-113313575D03*
X146300000Y-112413575D03*
X113500000Y-108713575D03*
X115800000Y-110013575D03*
X149900000Y-104713575D03*
X178500000Y-112413575D03*
X154400000Y-114313575D03*
X154400000Y-110313575D03*
X149800000Y-103813575D03*
X113550000Y-106013575D03*
X125600000Y-99813575D03*
X154400000Y-102813575D03*
X132500000Y-100313575D03*
X132400000Y-113213575D03*
X142813575Y-109700000D03*
X119600000Y-112913575D03*
%TO.N,VCC*%
X177500000Y-113213575D03*
X116500000Y-103213575D03*
X154400000Y-105963575D03*
%TO.N,+3V3*%
X134400000Y-99513575D03*
X128407011Y-97106564D03*
X116600000Y-97213575D03*
X115700000Y-97213575D03*
X125428253Y-103513575D03*
X129307011Y-97106564D03*
%TO.N,Net-(C10-Pad1)*%
X125412551Y-102201023D03*
X144900000Y-106000000D03*
%TO.N,Net-(R3-Pad2)*%
X131212551Y-110025637D03*
X132037551Y-107100637D03*
%TO.N,Net-(R5-Pad2)*%
X129187551Y-109650637D03*
X131187551Y-108550637D03*
%TO.N,PWR*%
X107900000Y-100313575D03*
X107850000Y-106563575D03*
%TO.N,Trig*%
X154400000Y-107947448D03*
X177340052Y-107993575D03*
%TO.N,Net-(R7-Pad2)*%
X133187551Y-112150637D03*
X130787551Y-113050637D03*
%TD*%
D18*
%TO.N,Trig*%
X154400052Y-107947500D02*
X154400000Y-107947448D01*
X155592893Y-107947500D02*
X154400052Y-107947500D01*
D19*
%TO.N,GND*%
X97700000Y-112413575D02*
X97700000Y-109713575D01*
%TO.N,+VDC*%
X100240000Y-112353575D02*
X100300000Y-112413575D01*
X100240000Y-109713575D02*
X100240000Y-112353575D01*
D18*
%TO.N,Net-(C10-Pad1)*%
X144029955Y-105129955D02*
X144900000Y-106000000D01*
X125412551Y-102201023D02*
X136958887Y-102201023D01*
X144029955Y-105129955D02*
G75*
G03*
X136958887Y-102201023I-7071070J-7071075D01*
G01*
D20*
%TO.N,Net-(R3-Pad2)*%
X132037551Y-109200637D02*
X132037551Y-107100637D01*
X131212551Y-110025637D02*
X132037551Y-109200637D01*
%TO.N,Net-(R5-Pad2)*%
X130287551Y-108550637D02*
X129187551Y-109650637D01*
X131187551Y-108550637D02*
X130287551Y-108550637D01*
D19*
%TO.N,PWR*%
X107900000Y-106513575D02*
X107900000Y-100313575D01*
X107850000Y-106563575D02*
X107900000Y-106513575D01*
D18*
%TO.N,Trig*%
X170504415Y-104727786D02*
X170504415Y-112479260D01*
X164090605Y-112479260D02*
X164090605Y-104727786D01*
X157183425Y-112479260D02*
X157183425Y-104727786D01*
X175438115Y-104727786D02*
X175438115Y-112479260D01*
X168530935Y-104727786D02*
X168530935Y-112479260D01*
X169024305Y-112479260D02*
X169024305Y-104727786D01*
X170011045Y-112479260D02*
X170011045Y-104727786D01*
X174451375Y-104727786D02*
X174451375Y-112479260D01*
X156690055Y-104727786D02*
X156690055Y-112479260D01*
X165570715Y-104727786D02*
X165570715Y-112479260D01*
X157676795Y-104727786D02*
X157676795Y-112479260D01*
X161130385Y-112479260D02*
X161130385Y-104727786D01*
X160637015Y-104727786D02*
X160637015Y-112479260D01*
X171984525Y-112479260D02*
X171984525Y-104727786D01*
X159156905Y-112479260D02*
X159156905Y-104727786D01*
X167544195Y-104727786D02*
X167544195Y-112479260D01*
X173464635Y-104727786D02*
X173464635Y-112479260D01*
X156196685Y-112479260D02*
X156196685Y-108551292D01*
X172477895Y-104727786D02*
X172477895Y-112479260D01*
X174944745Y-112479260D02*
X174944745Y-104727786D01*
X164583975Y-104727786D02*
X164583975Y-112479260D01*
X158170165Y-112479260D02*
X158170165Y-104727786D01*
X163597235Y-104727786D02*
X163597235Y-112479260D01*
X176730104Y-108603523D02*
X176178170Y-108603523D01*
X159650275Y-104727786D02*
X159650275Y-112479260D01*
X169517675Y-104727786D02*
X169517675Y-112479260D01*
X163103865Y-112479260D02*
X163103865Y-104727786D01*
X177340052Y-107993575D02*
X176730104Y-108603523D01*
X167050825Y-112479260D02*
X167050825Y-104727786D01*
X158663535Y-104727786D02*
X158663535Y-112479260D01*
X175931485Y-108356838D02*
X175931485Y-104727786D01*
X173958005Y-112479260D02*
X173958005Y-104727786D01*
X162117125Y-112479260D02*
X162117125Y-104727786D01*
X156050238Y-108197738D02*
X155946446Y-108093946D01*
X161623755Y-104727786D02*
X161623755Y-112479260D01*
X171491155Y-104727786D02*
X171491155Y-112479260D01*
X165077345Y-112479260D02*
X165077345Y-104727786D01*
X166064085Y-112479260D02*
X166064085Y-104727786D01*
X168037565Y-112479260D02*
X168037565Y-104727786D01*
X160143645Y-112479260D02*
X160143645Y-104727786D01*
X172971265Y-112479260D02*
X172971265Y-104727786D01*
X170997785Y-112479260D02*
X170997785Y-104727786D01*
X166557455Y-104727786D02*
X166557455Y-112479260D01*
X162610495Y-104727786D02*
X162610495Y-112479260D01*
X156936740Y-104481101D02*
G75*
G02*
X157183425Y-104727786I1J-246684D01*
G01*
X166804140Y-104481101D02*
G75*
G02*
X167050825Y-104727786I1J-246684D01*
G01*
X167050825Y-112479260D02*
G75*
G03*
X167297510Y-112725945I246684J-1D01*
G01*
X173217950Y-112725945D02*
G75*
G03*
X173464635Y-112479260I1J246684D01*
G01*
X168777620Y-104481101D02*
G75*
G02*
X169024305Y-104727786I1J-246684D01*
G01*
X161623755Y-104727786D02*
G75*
G02*
X161870440Y-104481101I246684J1D01*
G01*
X166557455Y-104727786D02*
G75*
G02*
X166804140Y-104481101I246684J1D01*
G01*
X174204690Y-112725945D02*
G75*
G03*
X174451375Y-112479260I1J246684D01*
G01*
X175684800Y-104481101D02*
G75*
G02*
X175931485Y-104727786I1J-246684D01*
G01*
X161377070Y-112725945D02*
G75*
G03*
X161623755Y-112479260I1J246684D01*
G01*
X156690055Y-104727786D02*
G75*
G02*
X156936740Y-104481101I246684J1D01*
G01*
X170257730Y-112725945D02*
G75*
G03*
X170504415Y-112479260I1J246684D01*
G01*
X170997785Y-112479260D02*
G75*
G03*
X171244470Y-112725945I246684J-1D01*
G01*
X164090605Y-112479260D02*
G75*
G03*
X164337290Y-112725945I246684J-1D01*
G01*
X156196685Y-112479260D02*
G75*
G03*
X156443370Y-112725945I246684J-1D01*
G01*
X158170165Y-112479260D02*
G75*
G03*
X158416850Y-112725945I246684J-1D01*
G01*
X159896960Y-104481101D02*
G75*
G02*
X160143645Y-104727786I1J-246684D01*
G01*
X165324030Y-112725945D02*
G75*
G03*
X165570715Y-112479260I1J246684D01*
G01*
X172231210Y-112725945D02*
G75*
G03*
X172477895Y-112479260I1J246684D01*
G01*
X161870440Y-104481101D02*
G75*
G02*
X162117125Y-104727786I1J-246684D01*
G01*
X174944745Y-112479260D02*
G75*
G03*
X175191430Y-112725945I246684J-1D01*
G01*
X166310770Y-112725945D02*
G75*
G03*
X166557455Y-112479260I1J246684D01*
G01*
X160143645Y-112479260D02*
G75*
G03*
X160390330Y-112725945I246684J-1D01*
G01*
X175191430Y-112725945D02*
G75*
G03*
X175438115Y-112479260I1J246684D01*
G01*
X162363810Y-112725945D02*
G75*
G03*
X162610495Y-112479260I1J246684D01*
G01*
X171244470Y-112725945D02*
G75*
G03*
X171491155Y-112479260I1J246684D01*
G01*
X159650275Y-104727786D02*
G75*
G02*
X159896960Y-104481101I246684J1D01*
G01*
X165570715Y-104727786D02*
G75*
G02*
X165817400Y-104481101I246684J1D01*
G01*
X167544195Y-104727786D02*
G75*
G02*
X167790880Y-104481101I246684J1D01*
G01*
X172971265Y-112479260D02*
G75*
G03*
X173217950Y-112725945I246684J-1D01*
G01*
X164830660Y-104481101D02*
G75*
G02*
X165077345Y-104727786I1J-246684D01*
G01*
X167297510Y-112725945D02*
G75*
G03*
X167544195Y-112479260I1J246684D01*
G01*
X158663535Y-104727786D02*
G75*
G02*
X158910220Y-104481101I246684J1D01*
G01*
X162610495Y-104727786D02*
G75*
G02*
X162857180Y-104481101I246684J1D01*
G01*
X175438115Y-104727786D02*
G75*
G02*
X175684800Y-104481101I246684J1D01*
G01*
X163103865Y-112479260D02*
G75*
G03*
X163350550Y-112725945I246684J-1D01*
G01*
X163597235Y-104727786D02*
G75*
G02*
X163843920Y-104481101I246684J1D01*
G01*
X174698060Y-104481101D02*
G75*
G02*
X174944745Y-104727786I1J-246684D01*
G01*
X160883700Y-104481101D02*
G75*
G02*
X161130385Y-104727786I1J-246684D01*
G01*
X168530935Y-104727786D02*
G75*
G02*
X168777620Y-104481101I246684J1D01*
G01*
X168037565Y-112479260D02*
G75*
G03*
X168284250Y-112725945I246684J-1D01*
G01*
X157183425Y-112479260D02*
G75*
G03*
X157430110Y-112725945I246684J-1D01*
G01*
X157923480Y-104481101D02*
G75*
G02*
X158170165Y-104727786I1J-246684D01*
G01*
X162857180Y-104481101D02*
G75*
G02*
X163103865Y-104727786I1J-246684D01*
G01*
X159403590Y-112725945D02*
G75*
G03*
X159650275Y-112479260I1J246684D01*
G01*
X170011045Y-112479260D02*
G75*
G03*
X170257730Y-112725945I246684J-1D01*
G01*
X171737840Y-104481101D02*
G75*
G02*
X171984525Y-104727786I1J-246684D01*
G01*
X156196685Y-108551292D02*
G75*
G03*
X156050238Y-108197738I-499997J1D01*
G01*
X169517675Y-104727786D02*
G75*
G02*
X169764360Y-104481101I246684J1D01*
G01*
X171984525Y-112479260D02*
G75*
G03*
X172231210Y-112725945I246684J-1D01*
G01*
X170504415Y-104727786D02*
G75*
G02*
X170751100Y-104481101I246684J1D01*
G01*
X160390330Y-112725945D02*
G75*
G03*
X160637015Y-112479260I1J246684D01*
G01*
X173958005Y-112479260D02*
G75*
G03*
X174204690Y-112725945I246684J-1D01*
G01*
X165817400Y-104481101D02*
G75*
G02*
X166064085Y-104727786I1J-246684D01*
G01*
X175931485Y-108356838D02*
G75*
G03*
X176178170Y-108603523I246684J-1D01*
G01*
X172477895Y-104727786D02*
G75*
G02*
X172724580Y-104481101I246684J1D01*
G01*
X155946446Y-108093946D02*
G75*
G03*
X155592893Y-107947500I-353553J-353556D01*
G01*
X172724580Y-104481101D02*
G75*
G02*
X172971265Y-104727786I1J-246684D01*
G01*
X158910220Y-104481101D02*
G75*
G02*
X159156905Y-104727786I1J-246684D01*
G01*
X166064085Y-112479260D02*
G75*
G03*
X166310770Y-112725945I246684J-1D01*
G01*
X169024305Y-112479260D02*
G75*
G03*
X169270990Y-112725945I246684J-1D01*
G01*
X164583975Y-104727786D02*
G75*
G02*
X164830660Y-104481101I246684J1D01*
G01*
X161130385Y-112479260D02*
G75*
G03*
X161377070Y-112725945I246684J-1D01*
G01*
X171491155Y-104727786D02*
G75*
G02*
X171737840Y-104481101I246684J1D01*
G01*
X173464635Y-104727786D02*
G75*
G02*
X173711320Y-104481101I246684J1D01*
G01*
X165077345Y-112479260D02*
G75*
G03*
X165324030Y-112725945I246684J-1D01*
G01*
X174451375Y-104727786D02*
G75*
G02*
X174698060Y-104481101I246684J1D01*
G01*
X167790880Y-104481101D02*
G75*
G02*
X168037565Y-104727786I1J-246684D01*
G01*
X162117125Y-112479260D02*
G75*
G03*
X162363810Y-112725945I246684J-1D01*
G01*
X159156905Y-112479260D02*
G75*
G03*
X159403590Y-112725945I246684J-1D01*
G01*
X157676795Y-104727786D02*
G75*
G02*
X157923480Y-104481101I246684J1D01*
G01*
X158416850Y-112725945D02*
G75*
G03*
X158663535Y-112479260I1J246684D01*
G01*
X164337290Y-112725945D02*
G75*
G03*
X164583975Y-112479260I1J246684D01*
G01*
X169270990Y-112725945D02*
G75*
G03*
X169517675Y-112479260I1J246684D01*
G01*
X156443370Y-112725945D02*
G75*
G03*
X156690055Y-112479260I1J246684D01*
G01*
X168284250Y-112725945D02*
G75*
G03*
X168530935Y-112479260I1J246684D01*
G01*
X163350550Y-112725945D02*
G75*
G03*
X163597235Y-112479260I1J246684D01*
G01*
X173711320Y-104481101D02*
G75*
G02*
X173958005Y-104727786I1J-246684D01*
G01*
X163843920Y-104481101D02*
G75*
G02*
X164090605Y-104727786I1J-246684D01*
G01*
X170751100Y-104481101D02*
G75*
G02*
X170997785Y-104727786I1J-246684D01*
G01*
X160637015Y-104727786D02*
G75*
G02*
X160883700Y-104481101I246684J1D01*
G01*
X157430110Y-112725945D02*
G75*
G03*
X157676795Y-112479260I1J246684D01*
G01*
X169764360Y-104481101D02*
G75*
G02*
X170011045Y-104727786I1J-246684D01*
G01*
D20*
%TO.N,Net-(R7-Pad2)*%
X130936863Y-113050637D02*
X131586962Y-112400537D01*
X130787551Y-113050637D02*
X130936863Y-113050637D01*
X133187551Y-112150637D02*
X131836862Y-112150637D01*
X131836862Y-112150637D02*
X131586962Y-112400537D01*
%TD*%
%TA.AperFunction,Conductor*%
%TO.N,GND*%
G36*
X147500000Y-94518721D02*
G01*
X147512602Y-94514627D01*
X147513262Y-94514821D01*
X147513288Y-94514404D01*
X147728219Y-94527806D01*
X147743776Y-94529755D01*
X147931483Y-94565240D01*
X147960730Y-94570769D01*
X147975931Y-94574636D01*
X148186119Y-94642291D01*
X148200713Y-94648014D01*
X148321941Y-94704489D01*
X148400860Y-94741254D01*
X148414637Y-94748749D01*
X148601643Y-94866129D01*
X148614383Y-94875278D01*
X148785367Y-95014991D01*
X148796868Y-95025648D01*
X148896464Y-95130196D01*
X148949171Y-95185524D01*
X148959261Y-95197532D01*
X149087268Y-95370690D01*
X149085806Y-95371771D01*
X149088157Y-95374030D01*
X149090862Y-95384193D01*
X149102648Y-95393769D01*
X149105325Y-95398178D01*
X149115928Y-95409120D01*
X152702307Y-100118179D01*
X152874240Y-100343934D01*
X152899600Y-100410247D01*
X152900000Y-100420276D01*
X152900000Y-114587575D01*
X152879998Y-114655696D01*
X152826342Y-114702189D01*
X152774000Y-114713575D01*
X95015838Y-114713575D01*
X95000000Y-114708429D01*
X94987635Y-114712447D01*
X94986853Y-114712217D01*
X94986821Y-114712711D01*
X94760242Y-114697860D01*
X94743902Y-114695709D01*
X94630122Y-114673077D01*
X94516339Y-114650444D01*
X94500425Y-114646180D01*
X94390572Y-114608890D01*
X94280723Y-114571601D01*
X94265496Y-114565294D01*
X94099008Y-114483192D01*
X94057404Y-114462675D01*
X94043137Y-114454438D01*
X93947252Y-114390370D01*
X93850223Y-114325537D01*
X93837147Y-114315504D01*
X93662706Y-114162523D01*
X93651052Y-114150869D01*
X93498071Y-113976428D01*
X93488038Y-113963352D01*
X93359139Y-113770442D01*
X93350898Y-113756168D01*
X93248281Y-113548079D01*
X93241974Y-113532852D01*
X93180733Y-113352442D01*
X93167395Y-113313150D01*
X93163130Y-113297233D01*
X93145429Y-113208244D01*
X96442001Y-113208244D01*
X96442371Y-113215065D01*
X96447895Y-113265927D01*
X96451521Y-113281179D01*
X96496676Y-113401629D01*
X96505214Y-113417224D01*
X96581715Y-113519299D01*
X96594276Y-113531860D01*
X96696351Y-113608361D01*
X96711946Y-113616899D01*
X96832394Y-113662053D01*
X96847649Y-113665680D01*
X96898514Y-113671206D01*
X96905328Y-113671575D01*
X97427885Y-113671575D01*
X97443124Y-113667100D01*
X97444329Y-113665710D01*
X97446000Y-113658027D01*
X97446000Y-113653459D01*
X97954000Y-113653459D01*
X97958475Y-113668698D01*
X97959865Y-113669903D01*
X97967548Y-113671574D01*
X98494669Y-113671574D01*
X98501490Y-113671204D01*
X98552352Y-113665680D01*
X98567604Y-113662054D01*
X98688054Y-113616899D01*
X98703649Y-113608361D01*
X98805724Y-113531860D01*
X98818285Y-113519299D01*
X98894786Y-113417224D01*
X98903324Y-113401629D01*
X98948478Y-113281181D01*
X98952105Y-113265926D01*
X98957631Y-113215061D01*
X98958000Y-113208247D01*
X98958000Y-112685690D01*
X98953525Y-112670451D01*
X98952135Y-112669246D01*
X98944452Y-112667575D01*
X97972115Y-112667575D01*
X97956876Y-112672050D01*
X97955671Y-112673440D01*
X97954000Y-112681123D01*
X97954000Y-113653459D01*
X97446000Y-113653459D01*
X97446000Y-112685690D01*
X97441525Y-112670451D01*
X97440135Y-112669246D01*
X97432452Y-112667575D01*
X96460116Y-112667575D01*
X96444877Y-112672050D01*
X96443672Y-112673440D01*
X96442001Y-112681123D01*
X96442001Y-113208244D01*
X93145429Y-113208244D01*
X93117866Y-113069673D01*
X93115715Y-113053333D01*
X93100864Y-112826754D01*
X93101027Y-112826743D01*
X93100957Y-112826467D01*
X93105146Y-112813575D01*
X93100000Y-112797737D01*
X93100000Y-109981541D01*
X96368257Y-109981541D01*
X96398565Y-110116021D01*
X96401645Y-110125850D01*
X96481770Y-110323178D01*
X96486413Y-110332369D01*
X96597694Y-110513963D01*
X96603777Y-110522274D01*
X96743213Y-110683242D01*
X96750580Y-110690458D01*
X96914434Y-110826491D01*
X96922876Y-110832403D01*
X97074129Y-110920788D01*
X97122852Y-110972427D01*
X97135923Y-111042210D01*
X97109191Y-111107982D01*
X97051145Y-111148860D01*
X97010558Y-111155576D01*
X96905331Y-111155576D01*
X96898510Y-111155946D01*
X96847648Y-111161470D01*
X96832396Y-111165096D01*
X96711946Y-111210251D01*
X96696351Y-111218789D01*
X96594276Y-111295290D01*
X96581715Y-111307851D01*
X96505214Y-111409926D01*
X96496676Y-111425521D01*
X96451522Y-111545969D01*
X96447895Y-111561224D01*
X96442369Y-111612089D01*
X96442000Y-111618903D01*
X96442000Y-112141460D01*
X96446475Y-112156699D01*
X96447865Y-112157904D01*
X96455548Y-112159575D01*
X98939884Y-112159575D01*
X98955123Y-112155100D01*
X98956328Y-112153710D01*
X98957999Y-112146027D01*
X98957999Y-111618906D01*
X98957629Y-111612085D01*
X98952105Y-111561223D01*
X98948479Y-111545971D01*
X98903324Y-111425521D01*
X98894786Y-111409926D01*
X98818285Y-111307851D01*
X98805724Y-111295290D01*
X98703649Y-111218789D01*
X98688054Y-111210251D01*
X98567606Y-111165097D01*
X98552351Y-111161470D01*
X98501486Y-111155944D01*
X98494672Y-111155575D01*
X98387066Y-111155575D01*
X98318945Y-111135573D01*
X98272452Y-111081917D01*
X98262348Y-111011643D01*
X98291842Y-110947063D01*
X98331634Y-110916424D01*
X98393090Y-110886317D01*
X98401945Y-110881039D01*
X98575328Y-110757367D01*
X98583200Y-110750714D01*
X98734052Y-110600387D01*
X98740730Y-110592540D01*
X98865003Y-110419595D01*
X98870313Y-110410758D01*
X98950543Y-110248426D01*
X98998657Y-110196219D01*
X99067358Y-110178312D01*
X99134834Y-110200391D01*
X99179663Y-110255445D01*
X99189500Y-110304253D01*
X99189500Y-110583323D01*
X99201133Y-110641806D01*
X99245448Y-110708127D01*
X99311769Y-110752442D01*
X99323938Y-110754863D01*
X99323939Y-110754863D01*
X99364184Y-110762868D01*
X99370252Y-110764075D01*
X99596000Y-110764075D01*
X99664121Y-110784077D01*
X99710614Y-110837733D01*
X99722000Y-110890075D01*
X99722000Y-111337075D01*
X99701998Y-111405196D01*
X99648342Y-111451689D01*
X99596000Y-111463075D01*
X99530252Y-111463075D01*
X99524184Y-111464282D01*
X99483939Y-111472287D01*
X99483938Y-111472287D01*
X99471769Y-111474708D01*
X99405448Y-111519023D01*
X99361133Y-111585344D01*
X99349500Y-111643827D01*
X99349500Y-113183323D01*
X99350707Y-113189391D01*
X99355807Y-113215028D01*
X99361133Y-113241806D01*
X99405448Y-113308127D01*
X99471769Y-113352442D01*
X99483938Y-113354863D01*
X99483939Y-113354863D01*
X99509911Y-113360029D01*
X99530252Y-113364075D01*
X101069748Y-113364075D01*
X101090089Y-113360029D01*
X101116061Y-113354863D01*
X101116062Y-113354863D01*
X101128231Y-113352442D01*
X101194552Y-113308127D01*
X101238867Y-113241806D01*
X101244194Y-113215028D01*
X101249293Y-113189391D01*
X101250500Y-113183323D01*
X101250500Y-113050637D01*
X130181869Y-113050637D01*
X130202507Y-113207399D01*
X130263015Y-113353478D01*
X130359269Y-113478919D01*
X130484710Y-113575173D01*
X130630789Y-113635681D01*
X130787551Y-113656319D01*
X130795739Y-113655241D01*
X130936125Y-113636759D01*
X130944313Y-113635681D01*
X131090392Y-113575173D01*
X131215833Y-113478919D01*
X131312087Y-113353478D01*
X131372595Y-113207399D01*
X131387050Y-113097599D01*
X131415772Y-113032673D01*
X131422876Y-113024951D01*
X131837261Y-112610565D01*
X131837271Y-112610554D01*
X131934783Y-112513042D01*
X131997095Y-112479016D01*
X132023878Y-112476137D01*
X132618265Y-112476137D01*
X132686386Y-112496139D01*
X132718228Y-112525433D01*
X132759269Y-112578919D01*
X132884710Y-112675173D01*
X133030789Y-112735681D01*
X133187551Y-112756319D01*
X133195739Y-112755241D01*
X133336125Y-112736759D01*
X133344313Y-112735681D01*
X133490392Y-112675173D01*
X133615833Y-112578919D01*
X133712087Y-112453478D01*
X133772595Y-112307399D01*
X133793233Y-112150637D01*
X133772595Y-111993875D01*
X133712087Y-111847796D01*
X133615833Y-111722355D01*
X133490392Y-111626101D01*
X133344313Y-111565593D01*
X133311120Y-111561223D01*
X133195739Y-111546033D01*
X133187551Y-111544955D01*
X133179363Y-111546033D01*
X133063983Y-111561223D01*
X133030789Y-111565593D01*
X132884710Y-111626101D01*
X132759269Y-111722355D01*
X132754246Y-111728901D01*
X132718228Y-111775841D01*
X132660890Y-111817708D01*
X132618265Y-111825137D01*
X131856572Y-111825137D01*
X131845590Y-111824657D01*
X131819042Y-111822334D01*
X131819040Y-111822334D01*
X131808055Y-111821373D01*
X131771647Y-111831129D01*
X131760920Y-111833507D01*
X131757561Y-111834099D01*
X131723817Y-111840049D01*
X131714272Y-111845560D01*
X131710996Y-111846752D01*
X131707828Y-111848229D01*
X131697178Y-111851083D01*
X131688147Y-111857407D01*
X131666318Y-111872692D01*
X131657047Y-111878598D01*
X131633956Y-111891930D01*
X131624407Y-111897443D01*
X131617321Y-111905888D01*
X131600177Y-111926319D01*
X131592751Y-111934422D01*
X131376934Y-112150239D01*
X131212146Y-112315028D01*
X131086766Y-112440408D01*
X131024454Y-112474434D01*
X130960505Y-112468711D01*
X130959921Y-112470891D01*
X130951942Y-112468753D01*
X130944313Y-112465593D01*
X130787551Y-112444955D01*
X130630789Y-112465593D01*
X130623160Y-112468753D01*
X130612498Y-112473169D01*
X130484710Y-112526101D01*
X130359269Y-112622355D01*
X130263015Y-112747796D01*
X130202507Y-112893875D01*
X130181869Y-113050637D01*
X101250500Y-113050637D01*
X101250500Y-111643827D01*
X101238867Y-111585344D01*
X101194552Y-111519023D01*
X101128231Y-111474708D01*
X101116062Y-111472287D01*
X101116061Y-111472287D01*
X101075816Y-111464282D01*
X101069748Y-111463075D01*
X100884000Y-111463075D01*
X100815879Y-111443073D01*
X100769386Y-111389417D01*
X100758000Y-111337075D01*
X100758000Y-110890075D01*
X100778002Y-110821954D01*
X100831658Y-110775461D01*
X100884000Y-110764075D01*
X101109748Y-110764075D01*
X101115816Y-110762868D01*
X101156061Y-110754863D01*
X101156062Y-110754863D01*
X101168231Y-110752442D01*
X101234552Y-110708127D01*
X101278867Y-110641806D01*
X101290500Y-110583323D01*
X101290500Y-109650637D01*
X128581869Y-109650637D01*
X128602507Y-109807399D01*
X128663015Y-109953478D01*
X128759269Y-110078919D01*
X128884710Y-110175173D01*
X129030789Y-110235681D01*
X129187551Y-110256319D01*
X129195739Y-110255241D01*
X129336125Y-110236759D01*
X129344313Y-110235681D01*
X129490392Y-110175173D01*
X129615833Y-110078919D01*
X129712087Y-109953478D01*
X129772595Y-109807399D01*
X129793233Y-109650637D01*
X129784433Y-109583794D01*
X129795372Y-109513647D01*
X129820260Y-109478254D01*
X130385472Y-108913042D01*
X130447784Y-108879016D01*
X130474567Y-108876137D01*
X130618265Y-108876137D01*
X130686386Y-108896139D01*
X130718228Y-108925433D01*
X130759269Y-108978919D01*
X130884710Y-109075173D01*
X131030789Y-109135681D01*
X131038977Y-109136759D01*
X131109170Y-109146000D01*
X131187551Y-109156319D01*
X131195739Y-109155241D01*
X131319333Y-109138970D01*
X131389482Y-109149910D01*
X131442580Y-109197038D01*
X131461770Y-109265392D01*
X131440959Y-109333270D01*
X131424874Y-109352987D01*
X131384933Y-109392928D01*
X131322621Y-109426954D01*
X131279393Y-109428755D01*
X131212551Y-109419955D01*
X131055789Y-109440593D01*
X130909710Y-109501101D01*
X130784269Y-109597355D01*
X130688015Y-109722796D01*
X130627507Y-109868875D01*
X130606869Y-110025637D01*
X130627507Y-110182399D01*
X130688015Y-110328478D01*
X130784269Y-110453919D01*
X130909710Y-110550173D01*
X131055789Y-110610681D01*
X131212551Y-110631319D01*
X131220739Y-110630241D01*
X131225335Y-110629636D01*
X131369313Y-110610681D01*
X131515392Y-110550173D01*
X131640833Y-110453919D01*
X131737087Y-110328478D01*
X131797595Y-110182399D01*
X131818233Y-110025637D01*
X131809433Y-109958796D01*
X131820372Y-109888648D01*
X131845260Y-109853255D01*
X132253773Y-109444742D01*
X132261877Y-109437315D01*
X132262413Y-109436865D01*
X132290745Y-109413092D01*
X132296255Y-109403549D01*
X132296258Y-109403545D01*
X132309587Y-109380458D01*
X132315492Y-109371188D01*
X132330783Y-109349350D01*
X132337105Y-109340321D01*
X132339958Y-109329673D01*
X132341437Y-109326502D01*
X132342629Y-109323226D01*
X132348139Y-109313682D01*
X132354685Y-109276561D01*
X132357059Y-109265854D01*
X132366814Y-109229444D01*
X132365755Y-109217332D01*
X132363530Y-109191906D01*
X132363051Y-109180925D01*
X132363051Y-107669923D01*
X132383053Y-107601802D01*
X132412347Y-107569960D01*
X132459287Y-107533942D01*
X132465833Y-107528919D01*
X132562087Y-107403478D01*
X132622595Y-107257399D01*
X132643233Y-107100637D01*
X132622595Y-106943875D01*
X132562087Y-106797796D01*
X132465833Y-106672355D01*
X132340392Y-106576101D01*
X132194313Y-106515593D01*
X132037551Y-106494955D01*
X131880789Y-106515593D01*
X131734710Y-106576101D01*
X131609269Y-106672355D01*
X131513015Y-106797796D01*
X131452507Y-106943875D01*
X131431869Y-107100637D01*
X131452507Y-107257399D01*
X131513015Y-107403478D01*
X131609269Y-107528919D01*
X131615815Y-107533942D01*
X131662755Y-107569960D01*
X131704622Y-107627298D01*
X131712051Y-107669923D01*
X131712051Y-107940683D01*
X131692049Y-108008804D01*
X131638393Y-108055297D01*
X131568119Y-108065401D01*
X131509346Y-108040645D01*
X131496944Y-108031128D01*
X131496941Y-108031126D01*
X131490392Y-108026101D01*
X131344313Y-107965593D01*
X131187551Y-107944955D01*
X131030789Y-107965593D01*
X130884710Y-108026101D01*
X130759269Y-108122355D01*
X130754246Y-108128901D01*
X130718228Y-108175841D01*
X130660890Y-108217708D01*
X130618265Y-108225137D01*
X130307261Y-108225137D01*
X130296279Y-108224657D01*
X130269731Y-108222334D01*
X130269729Y-108222334D01*
X130258744Y-108221373D01*
X130222336Y-108231129D01*
X130211609Y-108233507D01*
X130208250Y-108234099D01*
X130174506Y-108240049D01*
X130164961Y-108245560D01*
X130161685Y-108246752D01*
X130158517Y-108248229D01*
X130147867Y-108251083D01*
X130138836Y-108257407D01*
X130117007Y-108272692D01*
X130107736Y-108278598D01*
X130084645Y-108291930D01*
X130075096Y-108297443D01*
X130068010Y-108305888D01*
X130050866Y-108326319D01*
X130043440Y-108334422D01*
X129359934Y-109017928D01*
X129297622Y-109051954D01*
X129254394Y-109053755D01*
X129187551Y-109044955D01*
X129030789Y-109065593D01*
X128884710Y-109126101D01*
X128759269Y-109222355D01*
X128663015Y-109347796D01*
X128602507Y-109493875D01*
X128581869Y-109650637D01*
X101290500Y-109650637D01*
X101290500Y-108843827D01*
X101278867Y-108785344D01*
X101234552Y-108719023D01*
X101168231Y-108674708D01*
X101156062Y-108672287D01*
X101156061Y-108672287D01*
X101115816Y-108664282D01*
X101109748Y-108663075D01*
X99370252Y-108663075D01*
X99364184Y-108664282D01*
X99323939Y-108672287D01*
X99323938Y-108672287D01*
X99311769Y-108674708D01*
X99245448Y-108719023D01*
X99201133Y-108785344D01*
X99189500Y-108843827D01*
X99189500Y-109127591D01*
X99169498Y-109195712D01*
X99115842Y-109242205D01*
X99045568Y-109252309D01*
X98980988Y-109222815D01*
X98947950Y-109177833D01*
X98902972Y-109074389D01*
X98898105Y-109065314D01*
X98782426Y-108886501D01*
X98776136Y-108878332D01*
X98632806Y-108720815D01*
X98625273Y-108713790D01*
X98458139Y-108581797D01*
X98449552Y-108576092D01*
X98263117Y-108473174D01*
X98253705Y-108468944D01*
X98052959Y-108397855D01*
X98042988Y-108395221D01*
X97971837Y-108382547D01*
X97958540Y-108384007D01*
X97954000Y-108398564D01*
X97954000Y-109841575D01*
X97933998Y-109909696D01*
X97880342Y-109956189D01*
X97828000Y-109967575D01*
X96383225Y-109967575D01*
X96369694Y-109971548D01*
X96368257Y-109981541D01*
X93100000Y-109981541D01*
X93100000Y-109447758D01*
X96364389Y-109447758D01*
X96365912Y-109456182D01*
X96378292Y-109459575D01*
X97427885Y-109459575D01*
X97443124Y-109455100D01*
X97444329Y-109453710D01*
X97446000Y-109446027D01*
X97446000Y-108396677D01*
X97442082Y-108383333D01*
X97427806Y-108381346D01*
X97389324Y-108387235D01*
X97379288Y-108389626D01*
X97176868Y-108455787D01*
X97167359Y-108459784D01*
X96978463Y-108558117D01*
X96969738Y-108563611D01*
X96799433Y-108691480D01*
X96791726Y-108698323D01*
X96644590Y-108852292D01*
X96638104Y-108860302D01*
X96518098Y-109036224D01*
X96513000Y-109045198D01*
X96423338Y-109238358D01*
X96419775Y-109248045D01*
X96364389Y-109447758D01*
X93100000Y-109447758D01*
X93100000Y-106681303D01*
X96291114Y-106681303D01*
X96291166Y-106681548D01*
X96353898Y-106885458D01*
X96358119Y-106895804D01*
X96455971Y-107085389D01*
X96461957Y-107094820D01*
X96591832Y-107264076D01*
X96599393Y-107272299D01*
X96757194Y-107415887D01*
X96766094Y-107422642D01*
X96946815Y-107536009D01*
X96956781Y-107541086D01*
X97154714Y-107620655D01*
X97165429Y-107623890D01*
X97375301Y-107667352D01*
X97384438Y-107668555D01*
X97434990Y-107671470D01*
X97438637Y-107671575D01*
X98327885Y-107671575D01*
X98343124Y-107667100D01*
X98344329Y-107665710D01*
X98346000Y-107658027D01*
X98346000Y-107653460D01*
X98854000Y-107653460D01*
X98858475Y-107668699D01*
X98859865Y-107669904D01*
X98867548Y-107671575D01*
X99729175Y-107671575D01*
X99734770Y-107671326D01*
X99893078Y-107657197D01*
X99904092Y-107655215D01*
X100109860Y-107598924D01*
X100120341Y-107595026D01*
X100312903Y-107503178D01*
X100322516Y-107497493D01*
X100495767Y-107373000D01*
X100504233Y-107365692D01*
X100652692Y-107212493D01*
X100659735Y-107203796D01*
X100778719Y-107026731D01*
X100784105Y-107016933D01*
X100869857Y-106821585D01*
X100873422Y-106810993D01*
X100903624Y-106685191D01*
X100902919Y-106671105D01*
X100894040Y-106667575D01*
X98872115Y-106667575D01*
X98856876Y-106672050D01*
X98855671Y-106673440D01*
X98854000Y-106681123D01*
X98854000Y-107653460D01*
X98346000Y-107653460D01*
X98346000Y-106685690D01*
X98341525Y-106670451D01*
X98340135Y-106669246D01*
X98332452Y-106667575D01*
X96306589Y-106667575D01*
X96292607Y-106671680D01*
X96291114Y-106681303D01*
X93100000Y-106681303D01*
X93100000Y-106563575D01*
X107244318Y-106563575D01*
X107264956Y-106720337D01*
X107325464Y-106866416D01*
X107421718Y-106991857D01*
X107547159Y-107088111D01*
X107693238Y-107148619D01*
X107850000Y-107169257D01*
X107858188Y-107168179D01*
X107998574Y-107149697D01*
X108006762Y-107148619D01*
X108152841Y-107088111D01*
X108278282Y-106991857D01*
X108374536Y-106866416D01*
X108435044Y-106720337D01*
X108455682Y-106563575D01*
X108435044Y-106406813D01*
X108427591Y-106388820D01*
X108418000Y-106340602D01*
X108418000Y-104100000D01*
X115894318Y-104100000D01*
X115914956Y-104256762D01*
X115975464Y-104402841D01*
X116071718Y-104528282D01*
X116197159Y-104624536D01*
X116343238Y-104685044D01*
X116500000Y-104705682D01*
X116508188Y-104704604D01*
X116648574Y-104686122D01*
X116656762Y-104685044D01*
X116802841Y-104624536D01*
X116928282Y-104528282D01*
X117024536Y-104402841D01*
X117085044Y-104256762D01*
X117096860Y-104167011D01*
X118827307Y-104167011D01*
X118847945Y-104323773D01*
X118908453Y-104469852D01*
X119004707Y-104595293D01*
X119130148Y-104691547D01*
X119276227Y-104752055D01*
X119432989Y-104772693D01*
X119441177Y-104771615D01*
X119581563Y-104753133D01*
X119589751Y-104752055D01*
X119735830Y-104691547D01*
X119861271Y-104595293D01*
X119957525Y-104469852D01*
X120018033Y-104323773D01*
X120038671Y-104167011D01*
X120018033Y-104010249D01*
X119957525Y-103864170D01*
X119861271Y-103738729D01*
X119735830Y-103642475D01*
X119589751Y-103581967D01*
X119432989Y-103561329D01*
X119276227Y-103581967D01*
X119130148Y-103642475D01*
X119004707Y-103738729D01*
X118908453Y-103864170D01*
X118847945Y-104010249D01*
X118827307Y-104167011D01*
X117096860Y-104167011D01*
X117105682Y-104100000D01*
X117085044Y-103943238D01*
X117024536Y-103797159D01*
X117019511Y-103790610D01*
X117019509Y-103790607D01*
X116976350Y-103734362D01*
X116975682Y-103733492D01*
X116950082Y-103667272D01*
X116964346Y-103597724D01*
X116975682Y-103580084D01*
X117019509Y-103522967D01*
X117024536Y-103516416D01*
X117085044Y-103370337D01*
X117105682Y-103213575D01*
X117085044Y-103056813D01*
X117024536Y-102910734D01*
X116928282Y-102785293D01*
X116802841Y-102689039D01*
X116656762Y-102628531D01*
X116500000Y-102607893D01*
X116343238Y-102628531D01*
X116197159Y-102689039D01*
X116071718Y-102785293D01*
X115975464Y-102910734D01*
X115914956Y-103056813D01*
X115894318Y-103213575D01*
X115914956Y-103370337D01*
X115975464Y-103516416D01*
X115980491Y-103522967D01*
X116024318Y-103580084D01*
X116049918Y-103646305D01*
X116035653Y-103715853D01*
X116024320Y-103733489D01*
X116023650Y-103734362D01*
X115980491Y-103790607D01*
X115980489Y-103790610D01*
X115975464Y-103797159D01*
X115914956Y-103943238D01*
X115894318Y-104100000D01*
X108418000Y-104100000D01*
X108418000Y-102201023D01*
X124806869Y-102201023D01*
X124827507Y-102357785D01*
X124888015Y-102503864D01*
X124984269Y-102629305D01*
X125109710Y-102725559D01*
X125147470Y-102741200D01*
X125154573Y-102744142D01*
X125209854Y-102788691D01*
X125232275Y-102856054D01*
X125214717Y-102924845D01*
X125162754Y-102973224D01*
X125154581Y-102976957D01*
X125125412Y-102989039D01*
X124999971Y-103085293D01*
X124903717Y-103210734D01*
X124843209Y-103356813D01*
X124822571Y-103513575D01*
X124843209Y-103670337D01*
X124903717Y-103816416D01*
X124935333Y-103857619D01*
X124991824Y-103931239D01*
X124999971Y-103941857D01*
X125125412Y-104038111D01*
X125271491Y-104098619D01*
X125428253Y-104119257D01*
X125436441Y-104118179D01*
X125576827Y-104099697D01*
X125585015Y-104098619D01*
X125731094Y-104038111D01*
X125856535Y-103941857D01*
X125864683Y-103931239D01*
X125921173Y-103857619D01*
X125952789Y-103816416D01*
X126013297Y-103670337D01*
X126033935Y-103513575D01*
X126013297Y-103356813D01*
X125952789Y-103210734D01*
X125856535Y-103085293D01*
X125731094Y-102989039D01*
X125686231Y-102970456D01*
X125630950Y-102925907D01*
X125608529Y-102858544D01*
X125626087Y-102789753D01*
X125678050Y-102741374D01*
X125686223Y-102737641D01*
X125715392Y-102725559D01*
X125840833Y-102629305D01*
X125845859Y-102622755D01*
X125845862Y-102622752D01*
X125865235Y-102597504D01*
X125922573Y-102555637D01*
X125965197Y-102548208D01*
X136917487Y-102548208D01*
X136939366Y-102550122D01*
X136958887Y-102553564D01*
X136969743Y-102551650D01*
X136969744Y-102551650D01*
X136972070Y-102551240D01*
X136997752Y-102549383D01*
X137252251Y-102557073D01*
X137537917Y-102565704D01*
X137545501Y-102566164D01*
X137832057Y-102592204D01*
X138118606Y-102618243D01*
X138126162Y-102619160D01*
X138695093Y-102705750D01*
X138702579Y-102707122D01*
X139265243Y-102827905D01*
X139272633Y-102829727D01*
X139826954Y-102984255D01*
X139834220Y-102986519D01*
X140378226Y-103174243D01*
X140385330Y-103176937D01*
X140515089Y-103230685D01*
X140917010Y-103397167D01*
X140923951Y-103400291D01*
X141441352Y-103652214D01*
X141448091Y-103655751D01*
X141949334Y-103938453D01*
X141955831Y-103942380D01*
X142439131Y-104254856D01*
X142445381Y-104259171D01*
X142902185Y-104595293D01*
X142908889Y-104600226D01*
X142914874Y-104604915D01*
X143092723Y-104753133D01*
X143356962Y-104973349D01*
X143362659Y-104978396D01*
X143536506Y-105142045D01*
X143756150Y-105348805D01*
X143772995Y-105368276D01*
X143780671Y-105379239D01*
X143796913Y-105390612D01*
X143813731Y-105404724D01*
X144263724Y-105854718D01*
X144297749Y-105917030D01*
X144299550Y-105960258D01*
X144294318Y-106000000D01*
X144314956Y-106156762D01*
X144375464Y-106302841D01*
X144471718Y-106428282D01*
X144597159Y-106524536D01*
X144743238Y-106585044D01*
X144900000Y-106605682D01*
X144908188Y-106604604D01*
X145048574Y-106586122D01*
X145056762Y-106585044D01*
X145202841Y-106524536D01*
X145328282Y-106428282D01*
X145424536Y-106302841D01*
X145485044Y-106156762D01*
X145505682Y-106000000D01*
X145485044Y-105843238D01*
X145424536Y-105697159D01*
X145328282Y-105571718D01*
X145202841Y-105475464D01*
X145056762Y-105414956D01*
X144900000Y-105394318D01*
X144860258Y-105399550D01*
X144790111Y-105388611D01*
X144754718Y-105363724D01*
X144304724Y-104913731D01*
X144290612Y-104896913D01*
X144279239Y-104880671D01*
X144272039Y-104875630D01*
X144268825Y-104872591D01*
X144268824Y-104872590D01*
X144067107Y-104681884D01*
X143856412Y-104482689D01*
X143412790Y-104108084D01*
X143404199Y-104101618D01*
X142950281Y-103760011D01*
X142948862Y-103758943D01*
X142947407Y-103757971D01*
X142947389Y-103757958D01*
X142467554Y-103437342D01*
X142467540Y-103437333D01*
X142466088Y-103436363D01*
X142464588Y-103435478D01*
X142464575Y-103435470D01*
X141967509Y-103142260D01*
X141967510Y-103142260D01*
X141965985Y-103141361D01*
X141802327Y-103056813D01*
X141451702Y-102875675D01*
X141451684Y-102875666D01*
X141450129Y-102874863D01*
X141349260Y-102829727D01*
X140921757Y-102638431D01*
X140921737Y-102638423D01*
X140920142Y-102637709D01*
X140918490Y-102637079D01*
X140918477Y-102637073D01*
X140549517Y-102496234D01*
X140377690Y-102430644D01*
X139824482Y-102254321D01*
X139262258Y-102109294D01*
X138848636Y-102027019D01*
X138694517Y-101996363D01*
X138694513Y-101996362D01*
X138692787Y-101996019D01*
X138691047Y-101995773D01*
X138691045Y-101995773D01*
X138119620Y-101915101D01*
X138119604Y-101915099D01*
X138117860Y-101914853D01*
X137744056Y-101883323D01*
X137541054Y-101866200D01*
X137541052Y-101866200D01*
X137539287Y-101866051D01*
X137537513Y-101866001D01*
X137537509Y-101866001D01*
X137327587Y-101860111D01*
X136967547Y-101850009D01*
X136958887Y-101848482D01*
X136948032Y-101850396D01*
X136939367Y-101851924D01*
X136917487Y-101853838D01*
X125965197Y-101853838D01*
X125897076Y-101833836D01*
X125865235Y-101804542D01*
X125845862Y-101779294D01*
X125845859Y-101779291D01*
X125840833Y-101772741D01*
X125715392Y-101676487D01*
X125569313Y-101615979D01*
X125412551Y-101595341D01*
X125255789Y-101615979D01*
X125109710Y-101676487D01*
X124984269Y-101772741D01*
X124888015Y-101898182D01*
X124827507Y-102044261D01*
X124806869Y-102201023D01*
X108418000Y-102201023D01*
X108418000Y-100657259D01*
X108427591Y-100609041D01*
X108481884Y-100477967D01*
X108481885Y-100477964D01*
X108485044Y-100470337D01*
X108505682Y-100313575D01*
X108485044Y-100156813D01*
X108424536Y-100010734D01*
X108328282Y-99885293D01*
X108202841Y-99789039D01*
X108056762Y-99728531D01*
X107900000Y-99707893D01*
X107743238Y-99728531D01*
X107597159Y-99789039D01*
X107471718Y-99885293D01*
X107375464Y-100010734D01*
X107314956Y-100156813D01*
X107294318Y-100313575D01*
X107314956Y-100470337D01*
X107318115Y-100477964D01*
X107318116Y-100477967D01*
X107372409Y-100609041D01*
X107382000Y-100657259D01*
X107382000Y-106144284D01*
X107361998Y-106212405D01*
X107355971Y-106220976D01*
X107325464Y-106260734D01*
X107264956Y-106406813D01*
X107244318Y-106563575D01*
X93100000Y-106563575D01*
X93100000Y-106141959D01*
X96296376Y-106141959D01*
X96297081Y-106156045D01*
X96305960Y-106159575D01*
X98327885Y-106159575D01*
X98343124Y-106155100D01*
X98344329Y-106153710D01*
X98346000Y-106146027D01*
X98346000Y-106141460D01*
X98854000Y-106141460D01*
X98858475Y-106156699D01*
X98859865Y-106157904D01*
X98867548Y-106159575D01*
X100893411Y-106159575D01*
X100907393Y-106155470D01*
X100908886Y-106145847D01*
X100908834Y-106145602D01*
X100846102Y-105941692D01*
X100841881Y-105931346D01*
X100744029Y-105741761D01*
X100738043Y-105732330D01*
X100608168Y-105563074D01*
X100600607Y-105554851D01*
X100442806Y-105411263D01*
X100433906Y-105404508D01*
X100253185Y-105291141D01*
X100243219Y-105286064D01*
X100045286Y-105206495D01*
X100034571Y-105203260D01*
X99824699Y-105159798D01*
X99815562Y-105158595D01*
X99765010Y-105155680D01*
X99761363Y-105155575D01*
X98872115Y-105155575D01*
X98856876Y-105160050D01*
X98855671Y-105161440D01*
X98854000Y-105169123D01*
X98854000Y-106141460D01*
X98346000Y-106141460D01*
X98346000Y-105173690D01*
X98341525Y-105158451D01*
X98340135Y-105157246D01*
X98332452Y-105155575D01*
X97470825Y-105155575D01*
X97465230Y-105155824D01*
X97306922Y-105169953D01*
X97295908Y-105171935D01*
X97090140Y-105228226D01*
X97079659Y-105232124D01*
X96887097Y-105323972D01*
X96877484Y-105329657D01*
X96704233Y-105454150D01*
X96695767Y-105461458D01*
X96547308Y-105614657D01*
X96540265Y-105623354D01*
X96421281Y-105800419D01*
X96415895Y-105810217D01*
X96330143Y-106005565D01*
X96326578Y-106016157D01*
X96296376Y-106141959D01*
X93100000Y-106141959D01*
X93100000Y-103092750D01*
X94342000Y-103092750D01*
X94342249Y-103098345D01*
X94356378Y-103256653D01*
X94358360Y-103267667D01*
X94414651Y-103473435D01*
X94418549Y-103483916D01*
X94510397Y-103676478D01*
X94516082Y-103686091D01*
X94640575Y-103859342D01*
X94647883Y-103867808D01*
X94801082Y-104016267D01*
X94809779Y-104023310D01*
X94986844Y-104142294D01*
X94996642Y-104147680D01*
X95191990Y-104233432D01*
X95202582Y-104236997D01*
X95328384Y-104267199D01*
X95342470Y-104266494D01*
X95346000Y-104257615D01*
X95346000Y-104256986D01*
X95854000Y-104256986D01*
X95858105Y-104270968D01*
X95867728Y-104272461D01*
X95867973Y-104272409D01*
X96071883Y-104209677D01*
X96082229Y-104205456D01*
X96271814Y-104107604D01*
X96281245Y-104101618D01*
X96450501Y-103971743D01*
X96458724Y-103964182D01*
X96602312Y-103806381D01*
X96609067Y-103797481D01*
X96722434Y-103616760D01*
X96727511Y-103606794D01*
X96807080Y-103408861D01*
X96810315Y-103398146D01*
X96853777Y-103188274D01*
X96854980Y-103179137D01*
X96857895Y-103128585D01*
X96858000Y-103124938D01*
X96858000Y-103086834D01*
X100649500Y-103086834D01*
X100664112Y-103230685D01*
X100721856Y-103414948D01*
X100724954Y-103420537D01*
X100734269Y-103437342D01*
X100815472Y-103583836D01*
X100941136Y-103730450D01*
X100946178Y-103734361D01*
X100946179Y-103734362D01*
X101088665Y-103844886D01*
X101088668Y-103844888D01*
X101093714Y-103848802D01*
X101266974Y-103934056D01*
X101273144Y-103935663D01*
X101273149Y-103935665D01*
X101447655Y-103981120D01*
X101447658Y-103981120D01*
X101453837Y-103982730D01*
X101537203Y-103987099D01*
X101640290Y-103992502D01*
X101640294Y-103992502D01*
X101646671Y-103992836D01*
X101837599Y-103963961D01*
X101843595Y-103961755D01*
X102012832Y-103899489D01*
X102012836Y-103899487D01*
X102018821Y-103897285D01*
X102182934Y-103795530D01*
X102323235Y-103662854D01*
X102337505Y-103642475D01*
X102430327Y-103509910D01*
X102430328Y-103509909D01*
X102433991Y-103504677D01*
X102492125Y-103370337D01*
X102508146Y-103333316D01*
X102508146Y-103333315D01*
X102510680Y-103327460D01*
X102529625Y-103236776D01*
X102549177Y-103143187D01*
X102549177Y-103143183D01*
X102550168Y-103138442D01*
X102550500Y-103132107D01*
X102550500Y-100340316D01*
X102535888Y-100196465D01*
X102478144Y-100012202D01*
X102384528Y-99843314D01*
X102258864Y-99696700D01*
X102253821Y-99692788D01*
X102111335Y-99582264D01*
X102111332Y-99582262D01*
X102106286Y-99578348D01*
X101933026Y-99493094D01*
X101926856Y-99491487D01*
X101926851Y-99491485D01*
X101752345Y-99446030D01*
X101752342Y-99446030D01*
X101746163Y-99444420D01*
X101662797Y-99440051D01*
X101559710Y-99434648D01*
X101559706Y-99434648D01*
X101553329Y-99434314D01*
X101362401Y-99463189D01*
X101356406Y-99465395D01*
X101356405Y-99465395D01*
X101187168Y-99527661D01*
X101187164Y-99527663D01*
X101181179Y-99529865D01*
X101017066Y-99631620D01*
X100876765Y-99764296D01*
X100873103Y-99769526D01*
X100873102Y-99769527D01*
X100789155Y-99889417D01*
X100766009Y-99922473D01*
X100689320Y-100099690D01*
X100688015Y-100105937D01*
X100658334Y-100248013D01*
X100649832Y-100288708D01*
X100649500Y-100295043D01*
X100649500Y-103086834D01*
X96858000Y-103086834D01*
X96858000Y-101985690D01*
X96853525Y-101970451D01*
X96852135Y-101969246D01*
X96844452Y-101967575D01*
X95872115Y-101967575D01*
X95856876Y-101972050D01*
X95855671Y-101973440D01*
X95854000Y-101981123D01*
X95854000Y-104256986D01*
X95346000Y-104256986D01*
X95346000Y-101985690D01*
X95341525Y-101970451D01*
X95340135Y-101969246D01*
X95332452Y-101967575D01*
X94360115Y-101967575D01*
X94344876Y-101972050D01*
X94343671Y-101973440D01*
X94342000Y-101981123D01*
X94342000Y-103092750D01*
X93100000Y-103092750D01*
X93100000Y-101441460D01*
X94342000Y-101441460D01*
X94346475Y-101456699D01*
X94347865Y-101457904D01*
X94355548Y-101459575D01*
X95327885Y-101459575D01*
X95343124Y-101455100D01*
X95344329Y-101453710D01*
X95346000Y-101446027D01*
X95346000Y-101441460D01*
X95854000Y-101441460D01*
X95858475Y-101456699D01*
X95859865Y-101457904D01*
X95867548Y-101459575D01*
X96839885Y-101459575D01*
X96855124Y-101455100D01*
X96856329Y-101453710D01*
X96858000Y-101446027D01*
X96858000Y-100334400D01*
X96857751Y-100328805D01*
X96843622Y-100170497D01*
X96841640Y-100159483D01*
X96785349Y-99953715D01*
X96781451Y-99943234D01*
X96689603Y-99750672D01*
X96683918Y-99741059D01*
X96559425Y-99567808D01*
X96552117Y-99559342D01*
X96398918Y-99410883D01*
X96390221Y-99403840D01*
X96213156Y-99284856D01*
X96203358Y-99279470D01*
X96008010Y-99193718D01*
X95997418Y-99190153D01*
X95871616Y-99159951D01*
X95857530Y-99160656D01*
X95854000Y-99169535D01*
X95854000Y-101441460D01*
X95346000Y-101441460D01*
X95346000Y-99170164D01*
X95341895Y-99156182D01*
X95332272Y-99154689D01*
X95332027Y-99154741D01*
X95128117Y-99217473D01*
X95117771Y-99221694D01*
X94928186Y-99319546D01*
X94918755Y-99325532D01*
X94749499Y-99455407D01*
X94741276Y-99462968D01*
X94597688Y-99620769D01*
X94590933Y-99629669D01*
X94477566Y-99810390D01*
X94472489Y-99820356D01*
X94392920Y-100018289D01*
X94389685Y-100029004D01*
X94346223Y-100238876D01*
X94345020Y-100248013D01*
X94342105Y-100298565D01*
X94342000Y-100302212D01*
X94342000Y-101441460D01*
X93100000Y-101441460D01*
X93100000Y-98741541D01*
X119468257Y-98741541D01*
X119498565Y-98876021D01*
X119501645Y-98885850D01*
X119581770Y-99083178D01*
X119586413Y-99092369D01*
X119697694Y-99273963D01*
X119703777Y-99282274D01*
X119843213Y-99443242D01*
X119850580Y-99450458D01*
X120014434Y-99586491D01*
X120022881Y-99592406D01*
X120206756Y-99699854D01*
X120216043Y-99704304D01*
X120255484Y-99719365D01*
X120311987Y-99762353D01*
X120336280Y-99829064D01*
X120320650Y-99898318D01*
X120270059Y-99948129D01*
X120210535Y-99963075D01*
X119930252Y-99963075D01*
X119924184Y-99964282D01*
X119883939Y-99972287D01*
X119883938Y-99972287D01*
X119871769Y-99974708D01*
X119805448Y-100019023D01*
X119761133Y-100085344D01*
X119749500Y-100143827D01*
X119749500Y-101883323D01*
X119761133Y-101941806D01*
X119805448Y-102008127D01*
X119871769Y-102052442D01*
X119883938Y-102054863D01*
X119883939Y-102054863D01*
X119924184Y-102062868D01*
X119930252Y-102064075D01*
X121669748Y-102064075D01*
X121675816Y-102062868D01*
X121716061Y-102054863D01*
X121716062Y-102054863D01*
X121728231Y-102052442D01*
X121794552Y-102008127D01*
X121838867Y-101941806D01*
X121850500Y-101883323D01*
X121850500Y-100143827D01*
X121838867Y-100085344D01*
X121794552Y-100019023D01*
X121728231Y-99974708D01*
X121716062Y-99972287D01*
X121716061Y-99972287D01*
X121675816Y-99964282D01*
X121669748Y-99963075D01*
X121390107Y-99963075D01*
X121321986Y-99943073D01*
X121275493Y-99889417D01*
X121265389Y-99819143D01*
X121294883Y-99754563D01*
X121334675Y-99723924D01*
X121493090Y-99646317D01*
X121501945Y-99641039D01*
X121675328Y-99517367D01*
X121679815Y-99513575D01*
X133794318Y-99513575D01*
X133814956Y-99670337D01*
X133875464Y-99816416D01*
X133971718Y-99941857D01*
X134097159Y-100038111D01*
X134243238Y-100098619D01*
X134400000Y-100119257D01*
X134408188Y-100118179D01*
X134548574Y-100099697D01*
X134556762Y-100098619D01*
X134702841Y-100038111D01*
X134828282Y-99941857D01*
X134924536Y-99816416D01*
X134985044Y-99670337D01*
X135005682Y-99513575D01*
X134985044Y-99356813D01*
X134924536Y-99210734D01*
X134828282Y-99085293D01*
X134702841Y-98989039D01*
X134556762Y-98928531D01*
X134400000Y-98907893D01*
X134243238Y-98928531D01*
X134097159Y-98989039D01*
X133971718Y-99085293D01*
X133875464Y-99210734D01*
X133814956Y-99356813D01*
X133794318Y-99513575D01*
X121679815Y-99513575D01*
X121683200Y-99510714D01*
X121834052Y-99360387D01*
X121840730Y-99352540D01*
X121965003Y-99179595D01*
X121970313Y-99170758D01*
X122064670Y-98979842D01*
X122068469Y-98970247D01*
X122130377Y-98766485D01*
X122132555Y-98756412D01*
X122133986Y-98745537D01*
X122131775Y-98731353D01*
X122118617Y-98727575D01*
X119483225Y-98727575D01*
X119469694Y-98731548D01*
X119468257Y-98741541D01*
X93100000Y-98741541D01*
X93100000Y-98207758D01*
X119464389Y-98207758D01*
X119465912Y-98216182D01*
X119478292Y-98219575D01*
X120527885Y-98219575D01*
X120543124Y-98215100D01*
X120544329Y-98213710D01*
X120546000Y-98206027D01*
X120546000Y-98201460D01*
X121054000Y-98201460D01*
X121058475Y-98216699D01*
X121059865Y-98217904D01*
X121067548Y-98219575D01*
X122118344Y-98219575D01*
X122131875Y-98215602D01*
X122133180Y-98206522D01*
X122091214Y-98039450D01*
X122087894Y-98029699D01*
X122002972Y-97834389D01*
X121998105Y-97825314D01*
X121882426Y-97646501D01*
X121876136Y-97638332D01*
X121732806Y-97480815D01*
X121725273Y-97473790D01*
X121558139Y-97341797D01*
X121549552Y-97336092D01*
X121363117Y-97233174D01*
X121353705Y-97228944D01*
X121152959Y-97157855D01*
X121142988Y-97155221D01*
X121071837Y-97142547D01*
X121058540Y-97144007D01*
X121054000Y-97158564D01*
X121054000Y-98201460D01*
X120546000Y-98201460D01*
X120546000Y-97156677D01*
X120542082Y-97143333D01*
X120527806Y-97141346D01*
X120489324Y-97147235D01*
X120479288Y-97149626D01*
X120276868Y-97215787D01*
X120267359Y-97219784D01*
X120078463Y-97318117D01*
X120069738Y-97323611D01*
X119899433Y-97451480D01*
X119891726Y-97458323D01*
X119744590Y-97612292D01*
X119738104Y-97620302D01*
X119618098Y-97796224D01*
X119613000Y-97805198D01*
X119523338Y-97998358D01*
X119519775Y-98008045D01*
X119464389Y-98207758D01*
X93100000Y-98207758D01*
X93100000Y-97213575D01*
X115094318Y-97213575D01*
X115114956Y-97370337D01*
X115175464Y-97516416D01*
X115180491Y-97522967D01*
X115259607Y-97626073D01*
X115271718Y-97641857D01*
X115397159Y-97738111D01*
X115543238Y-97798619D01*
X115700000Y-97819257D01*
X115708188Y-97818179D01*
X115848574Y-97799697D01*
X115856762Y-97798619D01*
X116002841Y-97738111D01*
X116073296Y-97684049D01*
X116139516Y-97658449D01*
X116209065Y-97672714D01*
X116226703Y-97684048D01*
X116297159Y-97738111D01*
X116443238Y-97798619D01*
X116600000Y-97819257D01*
X116608188Y-97818179D01*
X116748574Y-97799697D01*
X116756762Y-97798619D01*
X116902841Y-97738111D01*
X117028282Y-97641857D01*
X117040394Y-97626073D01*
X117119509Y-97522967D01*
X117124536Y-97516416D01*
X117185044Y-97370337D01*
X117205682Y-97213575D01*
X117191594Y-97106564D01*
X127801329Y-97106564D01*
X127821967Y-97263326D01*
X127882475Y-97409405D01*
X127887502Y-97415956D01*
X127958733Y-97508786D01*
X127978729Y-97534846D01*
X128104170Y-97631100D01*
X128250249Y-97691608D01*
X128407011Y-97712246D01*
X128415199Y-97711168D01*
X128555585Y-97692686D01*
X128563773Y-97691608D01*
X128709852Y-97631100D01*
X128780307Y-97577038D01*
X128846527Y-97551438D01*
X128916076Y-97565703D01*
X128933714Y-97577037D01*
X129004170Y-97631100D01*
X129150249Y-97691608D01*
X129307011Y-97712246D01*
X129315199Y-97711168D01*
X129455585Y-97692686D01*
X129463773Y-97691608D01*
X129609852Y-97631100D01*
X129735293Y-97534846D01*
X129755290Y-97508786D01*
X129826520Y-97415956D01*
X129831547Y-97409405D01*
X129892055Y-97263326D01*
X129912693Y-97106564D01*
X129892055Y-96949802D01*
X129831547Y-96803723D01*
X129757011Y-96706586D01*
X129740316Y-96684828D01*
X129735293Y-96678282D01*
X129609852Y-96582028D01*
X129463773Y-96521520D01*
X129307011Y-96500882D01*
X129150249Y-96521520D01*
X129004170Y-96582028D01*
X128997619Y-96587055D01*
X128933715Y-96636090D01*
X128867495Y-96661690D01*
X128797946Y-96647425D01*
X128780307Y-96636090D01*
X128716403Y-96587055D01*
X128709852Y-96582028D01*
X128563773Y-96521520D01*
X128407011Y-96500882D01*
X128250249Y-96521520D01*
X128104170Y-96582028D01*
X127978729Y-96678282D01*
X127973706Y-96684828D01*
X127957011Y-96706586D01*
X127882475Y-96803723D01*
X127821967Y-96949802D01*
X127801329Y-97106564D01*
X117191594Y-97106564D01*
X117185044Y-97056813D01*
X117124536Y-96910734D01*
X117050000Y-96813597D01*
X117033305Y-96791839D01*
X117028282Y-96785293D01*
X116902841Y-96689039D01*
X116756762Y-96628531D01*
X116600000Y-96607893D01*
X116443238Y-96628531D01*
X116297159Y-96689039D01*
X116226704Y-96743101D01*
X116160484Y-96768701D01*
X116090935Y-96754436D01*
X116073296Y-96743101D01*
X116002841Y-96689039D01*
X115856762Y-96628531D01*
X115700000Y-96607893D01*
X115543238Y-96628531D01*
X115397159Y-96689039D01*
X115271718Y-96785293D01*
X115266695Y-96791839D01*
X115250000Y-96813597D01*
X115175464Y-96910734D01*
X115114956Y-97056813D01*
X115094318Y-97213575D01*
X93100000Y-97213575D01*
X93100000Y-96429413D01*
X93105146Y-96413575D01*
X93101128Y-96401210D01*
X93101358Y-96400428D01*
X93100864Y-96400396D01*
X93115715Y-96173817D01*
X93117866Y-96157477D01*
X93163130Y-95929917D01*
X93167396Y-95913997D01*
X93241974Y-95694298D01*
X93248281Y-95679071D01*
X93350898Y-95470982D01*
X93359139Y-95456708D01*
X93390937Y-95409120D01*
X93423205Y-95360827D01*
X93488038Y-95263798D01*
X93498071Y-95250722D01*
X93651052Y-95076281D01*
X93662706Y-95064627D01*
X93837147Y-94911646D01*
X93850223Y-94901613D01*
X93947252Y-94836780D01*
X94043137Y-94772712D01*
X94057404Y-94764475D01*
X94179044Y-94704489D01*
X94265496Y-94661856D01*
X94280723Y-94655549D01*
X94470822Y-94591019D01*
X94500425Y-94580970D01*
X94516339Y-94576706D01*
X94630122Y-94554073D01*
X94743902Y-94531441D01*
X94760242Y-94529290D01*
X94986821Y-94514439D01*
X94986832Y-94514602D01*
X94987108Y-94514532D01*
X95000000Y-94518721D01*
X95015838Y-94513575D01*
X147484162Y-94513575D01*
X147500000Y-94518721D01*
G37*
%TD.AperFunction*%
%TD*%
M02*
