M48
; DRILL file {KiCad (6.0.2)} date Sun May 29 21:50:30 2022
; FORMAT={-:-/ absolute / metric / decimal}
; #@! TF.CreationDate,2022-05-29T21:50:30-07:00
; #@! TF.GenerationSoftware,Kicad,Pcbnew,(6.0.2)
; #@! TF.FileFunction,Plated,1,4,PTH
FMAT,2
METRIC
; #@! TA.AperFunction,Plated,PTH,ViaDrill
T1C0.400
; #@! TA.AperFunction,Plated,PTH,ComponentDrill
T2C1.000
; #@! TA.AperFunction,Plated,PTH,ComponentDrill
T3C1.400
; #@! TA.AperFunction,Plated,PTH,ComponentDrill
T4C1.600
%
G90
G05
T1
X107.85Y-106.564
X107.9Y-100.314
X109.6Y-98.114
X109.6Y-103.114
X113.5Y-108.714
X113.55Y-105.064
X113.55Y-106.014
X114.3Y-105.514
X115.7Y-97.214
X115.8Y-109.114
X115.8Y-110.014
X115.9Y-98.514
X115.9Y-99.414
X116.5Y-103.214
X116.5Y-104.1
X116.6Y-97.214
X118.7Y-112.914
X119.433Y-104.167
X119.6Y-112.914
X120.5Y-112.914
X125.413Y-102.201
X125.428Y-103.514
X125.6Y-98.814
X125.6Y-99.814
X128.407Y-97.107
X129.188Y-109.651
X129.307Y-97.107
X130.788Y-113.051
X131.188Y-108.551
X131.213Y-110.026
X132.038Y-107.101
X132.4Y-113.214
X132.5Y-100.314
X133.188Y-112.151
X133.5Y-100.314
X134.4Y-99.514
X141.2Y-106.514
X142.814Y-109.7
X144.9Y-106.0
X146.3Y-112.414
X149.8Y-103.814
X149.9Y-104.714
X151.4Y-114.314
X152.25Y-100.664
X152.4Y-114.314
X152.95Y-101.364
X153.4Y-114.314
X153.7Y-102.114
X154.4Y-102.814
X154.4Y-103.814
X154.4Y-104.814
X154.4Y-105.964
X154.4Y-107.947
X154.4Y-109.214
X154.4Y-110.314
X154.4Y-111.314
X154.4Y-112.314
X154.4Y-113.314
X154.4Y-114.314
X177.34Y-107.994
X177.5Y-113.214
X178.5Y-112.414
X179.0Y-103.114
X179.0Y-104.2
T2
X97.7Y-109.714
X100.24Y-109.714
X120.8Y-98.474
X120.8Y-101.014
T3
X201.85Y-108.57
T4
X199.275Y-105.995
X199.275Y-111.145
X204.425Y-105.995
X204.425Y-111.145
T2
X95.6Y-103.014G85X95.6Y-100.414
G05
X97.55Y-106.414G85X99.65Y-106.414
G05
X101.6Y-103.014G85X101.6Y-100.414
G05
T0
M30
