%TF.GenerationSoftware,KiCad,Pcbnew,(6.0.2)*%
%TF.CreationDate,2022-05-29T22:25:13-07:00*%
%TF.ProjectId,peregrine,70657265-6772-4696-9e65-2e6b69636164,3*%
%TF.SameCoordinates,Original*%
%TF.FileFunction,Copper,L3,Inr*%
%TF.FilePolarity,Positive*%
%FSLAX46Y46*%
G04 Gerber Fmt 4.6, Leading zero omitted, Abs format (unit mm)*
G04 Created by KiCad (PCBNEW (6.0.2)) date 2022-05-29 22:25:13*
%MOMM*%
%LPD*%
G01*
G04 APERTURE LIST*
%TA.AperFunction,ComponentPad*%
%ADD10R,1.700000X1.700000*%
%TD*%
%TA.AperFunction,ComponentPad*%
%ADD11O,1.700000X1.700000*%
%TD*%
%TA.AperFunction,ComponentPad*%
%ADD12C,2.000000*%
%TD*%
%TA.AperFunction,ComponentPad*%
%ADD13C,2.200000*%
%TD*%
%TA.AperFunction,ComponentPad*%
%ADD14O,1.500000X4.150000*%
%TD*%
%TA.AperFunction,ComponentPad*%
%ADD15O,3.650000X1.500000*%
%TD*%
%TA.AperFunction,ViaPad*%
%ADD16C,0.800000*%
%TD*%
%TA.AperFunction,Conductor*%
%ADD17C,0.635000*%
%TD*%
G04 APERTURE END LIST*
D10*
%TO.N,+VDC*%
%TO.C,J2*%
X100240000Y-109713575D03*
D11*
%TO.N,GND*%
X97700000Y-109713575D03*
%TD*%
D10*
%TO.N,Net-(C10-Pad1)*%
%TO.C,J3*%
X120800000Y-101013575D03*
D11*
%TO.N,GND*%
X120800000Y-98473575D03*
%TD*%
D12*
%TO.N,Net-(J4-Pad1)*%
%TO.C,J4*%
X201850000Y-108569598D03*
D13*
%TO.N,GND*%
X199275000Y-105994598D03*
X199275000Y-111144598D03*
X204425000Y-111144598D03*
X204425000Y-105994598D03*
%TD*%
D14*
%TO.N,+VDC*%
%TO.C,J1*%
X101600000Y-101713575D03*
D15*
%TO.N,GND*%
X98600000Y-106413575D03*
D14*
X95600000Y-101713575D03*
%TD*%
D16*
%TO.N,GND*%
X125600000Y-98813575D03*
X154400000Y-112313575D03*
X113550000Y-105063575D03*
X141200000Y-106513575D03*
X114300000Y-105513575D03*
X133500000Y-100313575D03*
X153400000Y-114313575D03*
X153700000Y-102113575D03*
X115900000Y-99413575D03*
X115900000Y-98513575D03*
X115800000Y-109113575D03*
X118700000Y-112913575D03*
X109600000Y-103113575D03*
X154400000Y-109213575D03*
X120500000Y-112913575D03*
X109600000Y-98113575D03*
X179000000Y-103113575D03*
X151400000Y-114313575D03*
X152250000Y-100663575D03*
X154400000Y-111313575D03*
X154400000Y-103813575D03*
X152950000Y-101363575D03*
X154400000Y-104813575D03*
X152400000Y-114313575D03*
X154400000Y-113313575D03*
X146300000Y-112413575D03*
X113500000Y-108713575D03*
X115800000Y-110013575D03*
X149900000Y-104713575D03*
X178500000Y-112413575D03*
X154400000Y-114313575D03*
X154400000Y-110313575D03*
X149800000Y-103813575D03*
X113550000Y-106013575D03*
X125600000Y-99813575D03*
X154400000Y-102813575D03*
X132500000Y-100313575D03*
X132400000Y-113213575D03*
X142813575Y-109700000D03*
X119600000Y-112913575D03*
%TO.N,VCC*%
X116500000Y-104100000D03*
X177500000Y-113213575D03*
X179000000Y-104200000D03*
X116500000Y-103213575D03*
X154400000Y-105963575D03*
%TO.N,+3V3*%
X134400000Y-99513575D03*
X128407011Y-97106564D03*
X116600000Y-97213575D03*
X115700000Y-97213575D03*
X119432989Y-104167011D03*
X125428253Y-103513575D03*
X129307011Y-97106564D03*
%TO.N,Net-(C10-Pad1)*%
X125412551Y-102201023D03*
X144900000Y-106000000D03*
%TO.N,Net-(R3-Pad2)*%
X131212551Y-110025637D03*
X132037551Y-107100637D03*
%TO.N,Net-(R5-Pad2)*%
X129187551Y-109650637D03*
X131187551Y-108550637D03*
%TO.N,PWR*%
X107900000Y-100313575D03*
X107850000Y-106563575D03*
%TO.N,Trig*%
X154400000Y-107947448D03*
X177340052Y-107993575D03*
%TO.N,Net-(R7-Pad2)*%
X133187551Y-112150637D03*
X130787551Y-113050637D03*
%TD*%
D17*
%TO.N,GND*%
X152950000Y-101363575D02*
X152550000Y-100963575D01*
X153400000Y-114313575D02*
X152400000Y-114313575D01*
X154400000Y-102813575D02*
X153800000Y-102213575D01*
X152400000Y-114313575D02*
X151400000Y-114313575D01*
X152600000Y-101013575D02*
X152250000Y-100663575D01*
X153800000Y-102213575D02*
X153200000Y-101613575D01*
X153200000Y-101613575D02*
X152950000Y-101363575D01*
%TO.N,+3V3*%
X128407011Y-97106564D02*
X129307011Y-97106564D01*
X116600000Y-97213575D02*
X118036850Y-97213575D01*
X118143861Y-97106564D02*
X122492989Y-97106564D01*
X131992989Y-97106564D02*
X134400000Y-99513575D01*
X122492989Y-97106564D02*
X128407011Y-97106564D01*
X129307011Y-97106564D02*
X131992989Y-97106564D01*
X118036850Y-97213575D02*
X119432989Y-98609714D01*
X119432989Y-98609714D02*
X119432989Y-104167011D01*
X122492989Y-100578311D02*
X125428253Y-103513575D01*
X118036850Y-97213575D02*
X118143861Y-97106564D01*
X122492989Y-97106564D02*
X122492989Y-100578311D01*
X116600000Y-97213575D02*
X115700000Y-97213575D01*
%TD*%
%TA.AperFunction,Conductor*%
%TO.N,GND*%
G36*
X147481100Y-94623735D02*
G01*
X147485796Y-94623743D01*
X147499628Y-94626924D01*
X147513471Y-94623791D01*
X147527657Y-94623816D01*
X147527656Y-94624530D01*
X147536267Y-94623836D01*
X147714803Y-94634970D01*
X147730359Y-94636919D01*
X147934102Y-94675435D01*
X147949303Y-94679302D01*
X148146693Y-94742838D01*
X148161288Y-94748561D01*
X148349249Y-94836124D01*
X148363019Y-94843615D01*
X148527288Y-94946724D01*
X148538652Y-94953857D01*
X148551391Y-94963006D01*
X148711954Y-95094204D01*
X148723459Y-95104865D01*
X148866489Y-95255006D01*
X148876579Y-95267014D01*
X148982562Y-95410379D01*
X148986574Y-95417857D01*
X148987286Y-95417398D01*
X148994973Y-95429324D01*
X148999816Y-95442662D01*
X149009964Y-95452580D01*
X149016311Y-95458783D01*
X149028481Y-95472549D01*
X152112993Y-99522638D01*
X153674240Y-101572619D01*
X153699600Y-101638932D01*
X153700000Y-101648961D01*
X153700000Y-114479575D01*
X153679998Y-114547696D01*
X153626342Y-114594189D01*
X153574000Y-114605575D01*
X95037933Y-114605575D01*
X95018900Y-114603415D01*
X95014204Y-114603407D01*
X95000372Y-114600226D01*
X94986529Y-114603359D01*
X94972343Y-114603334D01*
X94972344Y-114602520D01*
X94963728Y-114603198D01*
X94774339Y-114590784D01*
X94757999Y-114588633D01*
X94651146Y-114567379D01*
X94544291Y-114546124D01*
X94528381Y-114541861D01*
X94322050Y-114471821D01*
X94306826Y-114465515D01*
X94111408Y-114369146D01*
X94097134Y-114360905D01*
X93915964Y-114239851D01*
X93902889Y-114229818D01*
X93901146Y-114228290D01*
X93739066Y-114086150D01*
X93727425Y-114074509D01*
X93583757Y-113910686D01*
X93573724Y-113897611D01*
X93452670Y-113716441D01*
X93444429Y-113702167D01*
X93348060Y-113506749D01*
X93341753Y-113491523D01*
X93298487Y-113364065D01*
X93271714Y-113285194D01*
X93267450Y-113269281D01*
X93224942Y-113055576D01*
X93224292Y-113050637D01*
X130173800Y-113050637D01*
X130194713Y-113209487D01*
X130256027Y-113357512D01*
X130304796Y-113421068D01*
X130348535Y-113478071D01*
X130348538Y-113478074D01*
X130353564Y-113484624D01*
X130480675Y-113582161D01*
X130488301Y-113585320D01*
X130488303Y-113585321D01*
X130621071Y-113640315D01*
X130621074Y-113640316D01*
X130628701Y-113643475D01*
X130787551Y-113664388D01*
X130795739Y-113663310D01*
X130938213Y-113644553D01*
X130946401Y-113643475D01*
X130954028Y-113640316D01*
X130954031Y-113640315D01*
X131086799Y-113585321D01*
X131086801Y-113585320D01*
X131094427Y-113582161D01*
X131221538Y-113484624D01*
X131226564Y-113478074D01*
X131226567Y-113478071D01*
X131270306Y-113421068D01*
X131319075Y-113357512D01*
X131380389Y-113209487D01*
X131401302Y-113050637D01*
X131380389Y-112891787D01*
X131319075Y-112743762D01*
X131267950Y-112677135D01*
X131226567Y-112623203D01*
X131226564Y-112623200D01*
X131221538Y-112616650D01*
X131179802Y-112584624D01*
X131100977Y-112524139D01*
X131094427Y-112519113D01*
X131086801Y-112515954D01*
X131086799Y-112515953D01*
X130954031Y-112460959D01*
X130954028Y-112460958D01*
X130946401Y-112457799D01*
X130787551Y-112436886D01*
X130628701Y-112457799D01*
X130480676Y-112519113D01*
X130353564Y-112616650D01*
X130256027Y-112743762D01*
X130194713Y-112891787D01*
X130173800Y-113050637D01*
X93224292Y-113050637D01*
X93222791Y-113039236D01*
X93210414Y-112850411D01*
X93210144Y-112841950D01*
X93210169Y-112827775D01*
X93213349Y-112813947D01*
X93210217Y-112800106D01*
X93210224Y-112796137D01*
X93208000Y-112776231D01*
X93208000Y-112150637D01*
X132573800Y-112150637D01*
X132594713Y-112309487D01*
X132656027Y-112457512D01*
X132700871Y-112515953D01*
X132748535Y-112578071D01*
X132748538Y-112578074D01*
X132753564Y-112584624D01*
X132760114Y-112589650D01*
X132760115Y-112589651D01*
X132803840Y-112623203D01*
X132880675Y-112682161D01*
X132888301Y-112685320D01*
X132888303Y-112685321D01*
X133021071Y-112740315D01*
X133021074Y-112740316D01*
X133028701Y-112743475D01*
X133187551Y-112764388D01*
X133195739Y-112763310D01*
X133338213Y-112744553D01*
X133346401Y-112743475D01*
X133354028Y-112740316D01*
X133354031Y-112740315D01*
X133486799Y-112685321D01*
X133486801Y-112685320D01*
X133494427Y-112682161D01*
X133571262Y-112623203D01*
X133614987Y-112589651D01*
X133614988Y-112589650D01*
X133621538Y-112584624D01*
X133626564Y-112578074D01*
X133626567Y-112578071D01*
X133674231Y-112515953D01*
X133719075Y-112457512D01*
X133780389Y-112309487D01*
X133801302Y-112150637D01*
X133780389Y-111991787D01*
X133719075Y-111843762D01*
X133670306Y-111780206D01*
X133626567Y-111723203D01*
X133626564Y-111723200D01*
X133621538Y-111716650D01*
X133494427Y-111619113D01*
X133486801Y-111615954D01*
X133486799Y-111615953D01*
X133354031Y-111560959D01*
X133354028Y-111560958D01*
X133346401Y-111557799D01*
X133187551Y-111536886D01*
X133028701Y-111557799D01*
X132880676Y-111619113D01*
X132753564Y-111716650D01*
X132656027Y-111843762D01*
X132594713Y-111991787D01*
X132573800Y-112150637D01*
X93208000Y-112150637D01*
X93208000Y-109981541D01*
X96368257Y-109981541D01*
X96398565Y-110116021D01*
X96401645Y-110125850D01*
X96481770Y-110323178D01*
X96486413Y-110332369D01*
X96597694Y-110513963D01*
X96603777Y-110522274D01*
X96743213Y-110683242D01*
X96750580Y-110690458D01*
X96914434Y-110826491D01*
X96922881Y-110832406D01*
X97106756Y-110939854D01*
X97116042Y-110944304D01*
X97315001Y-111020278D01*
X97324899Y-111023154D01*
X97428250Y-111044181D01*
X97442299Y-111042985D01*
X97446000Y-111032640D01*
X97446000Y-111032092D01*
X97954000Y-111032092D01*
X97958064Y-111045934D01*
X97971478Y-111047968D01*
X97978184Y-111047109D01*
X97988262Y-111044967D01*
X98192255Y-110983766D01*
X98201842Y-110980008D01*
X98393095Y-110886314D01*
X98401945Y-110881039D01*
X98575328Y-110757367D01*
X98583200Y-110750714D01*
X98734052Y-110600387D01*
X98740730Y-110592540D01*
X98865003Y-110419595D01*
X98870313Y-110410758D01*
X98942544Y-110264611D01*
X98990658Y-110212404D01*
X99059359Y-110194497D01*
X99126835Y-110216576D01*
X99171664Y-110271630D01*
X99181501Y-110320437D01*
X99181501Y-110584111D01*
X99193597Y-110644928D01*
X99239680Y-110713895D01*
X99308647Y-110759978D01*
X99320816Y-110762399D01*
X99320817Y-110762399D01*
X99362519Y-110770694D01*
X99369463Y-110772075D01*
X100239859Y-110772075D01*
X101110536Y-110772074D01*
X101171353Y-110759978D01*
X101181670Y-110753085D01*
X101181671Y-110753084D01*
X101230007Y-110720786D01*
X101240320Y-110713895D01*
X101286403Y-110644928D01*
X101288825Y-110632755D01*
X101297293Y-110590180D01*
X101298500Y-110584112D01*
X101298499Y-109650637D01*
X128573800Y-109650637D01*
X128594713Y-109809487D01*
X128656027Y-109957512D01*
X128677649Y-109985690D01*
X128748535Y-110078071D01*
X128748538Y-110078074D01*
X128753564Y-110084624D01*
X128880675Y-110182161D01*
X128888301Y-110185320D01*
X128888303Y-110185321D01*
X129021071Y-110240315D01*
X129021074Y-110240316D01*
X129028701Y-110243475D01*
X129187551Y-110264388D01*
X129195739Y-110263310D01*
X129338213Y-110244553D01*
X129346401Y-110243475D01*
X129354028Y-110240316D01*
X129354031Y-110240315D01*
X129486799Y-110185321D01*
X129486801Y-110185320D01*
X129494427Y-110182161D01*
X129621538Y-110084624D01*
X129626564Y-110078074D01*
X129626567Y-110078071D01*
X129666801Y-110025637D01*
X130598800Y-110025637D01*
X130619713Y-110184487D01*
X130681027Y-110332512D01*
X130729796Y-110396068D01*
X130773535Y-110453071D01*
X130773538Y-110453074D01*
X130778564Y-110459624D01*
X130905675Y-110557161D01*
X130913301Y-110560320D01*
X130913303Y-110560321D01*
X131046071Y-110615315D01*
X131046074Y-110615316D01*
X131053701Y-110618475D01*
X131212551Y-110639388D01*
X131220739Y-110638310D01*
X131363213Y-110619553D01*
X131371401Y-110618475D01*
X131379028Y-110615316D01*
X131379031Y-110615315D01*
X131511799Y-110560321D01*
X131511801Y-110560320D01*
X131519427Y-110557161D01*
X131646538Y-110459624D01*
X131651564Y-110453074D01*
X131651567Y-110453071D01*
X131695307Y-110396068D01*
X131744075Y-110332512D01*
X131805389Y-110184487D01*
X131826302Y-110025637D01*
X131805389Y-109866787D01*
X131744075Y-109718762D01*
X131685518Y-109642449D01*
X131651567Y-109598203D01*
X131651564Y-109598200D01*
X131646538Y-109591650D01*
X131519427Y-109494113D01*
X131511801Y-109490954D01*
X131511799Y-109490953D01*
X131379031Y-109435959D01*
X131379028Y-109435958D01*
X131371401Y-109432799D01*
X131212551Y-109411886D01*
X131212743Y-109410426D01*
X131194730Y-109414232D01*
X131053701Y-109432799D01*
X130905676Y-109494113D01*
X130778564Y-109591650D01*
X130681027Y-109718762D01*
X130619713Y-109866787D01*
X130598800Y-110025637D01*
X129666801Y-110025637D01*
X129697453Y-109985690D01*
X129719075Y-109957512D01*
X129780389Y-109809487D01*
X129801302Y-109650637D01*
X129780389Y-109491787D01*
X129719075Y-109343762D01*
X129670306Y-109280206D01*
X129626567Y-109223203D01*
X129626564Y-109223200D01*
X129621538Y-109216650D01*
X129555333Y-109165848D01*
X129500977Y-109124139D01*
X129494427Y-109119113D01*
X129486801Y-109115954D01*
X129486799Y-109115953D01*
X129354031Y-109060959D01*
X129354028Y-109060958D01*
X129346401Y-109057799D01*
X129187551Y-109036886D01*
X129028701Y-109057799D01*
X128880676Y-109119113D01*
X128753564Y-109216650D01*
X128656027Y-109343762D01*
X128594713Y-109491787D01*
X128573800Y-109650637D01*
X101298499Y-109650637D01*
X101298499Y-108843039D01*
X101286403Y-108782222D01*
X101240320Y-108713255D01*
X101171353Y-108667172D01*
X101159184Y-108664751D01*
X101159183Y-108664751D01*
X101116605Y-108656282D01*
X101110537Y-108655075D01*
X100240141Y-108655075D01*
X99369464Y-108655076D01*
X99308647Y-108667172D01*
X99298330Y-108674065D01*
X99298329Y-108674066D01*
X99272268Y-108691480D01*
X99239680Y-108713255D01*
X99193597Y-108782222D01*
X99191176Y-108794391D01*
X99191176Y-108794392D01*
X99182881Y-108836094D01*
X99181500Y-108843038D01*
X99181500Y-109109192D01*
X99161498Y-109177313D01*
X99107842Y-109223806D01*
X99037568Y-109233910D01*
X98972988Y-109204416D01*
X98939950Y-109159434D01*
X98902972Y-109074389D01*
X98898105Y-109065314D01*
X98782426Y-108886501D01*
X98776136Y-108878332D01*
X98632806Y-108720815D01*
X98625273Y-108713790D01*
X98458139Y-108581797D01*
X98449552Y-108576092D01*
X98403441Y-108550637D01*
X130573800Y-108550637D01*
X130594713Y-108709487D01*
X130656027Y-108857512D01*
X130704795Y-108921068D01*
X130748535Y-108978071D01*
X130748538Y-108978074D01*
X130753564Y-108984624D01*
X130760114Y-108989650D01*
X130760115Y-108989651D01*
X130847521Y-109056721D01*
X130880675Y-109082161D01*
X130888301Y-109085320D01*
X130888303Y-109085321D01*
X131021071Y-109140315D01*
X131021074Y-109140316D01*
X131028701Y-109143475D01*
X131036889Y-109144553D01*
X131187551Y-109164388D01*
X131187359Y-109165848D01*
X131205371Y-109162042D01*
X131338213Y-109144553D01*
X131346401Y-109143475D01*
X131354028Y-109140316D01*
X131354031Y-109140315D01*
X131486799Y-109085321D01*
X131486801Y-109085320D01*
X131494427Y-109082161D01*
X131527581Y-109056721D01*
X131614987Y-108989651D01*
X131614988Y-108989650D01*
X131621538Y-108984624D01*
X131626564Y-108978074D01*
X131626567Y-108978071D01*
X131670307Y-108921068D01*
X131719075Y-108857512D01*
X131780389Y-108709487D01*
X131801302Y-108550637D01*
X131780389Y-108391787D01*
X131719075Y-108243762D01*
X131670307Y-108180206D01*
X131626567Y-108123203D01*
X131626564Y-108123200D01*
X131621538Y-108116650D01*
X131494427Y-108019113D01*
X131486801Y-108015954D01*
X131486799Y-108015953D01*
X131354031Y-107960959D01*
X131354028Y-107960958D01*
X131346401Y-107957799D01*
X131187551Y-107936886D01*
X131028701Y-107957799D01*
X130880676Y-108019113D01*
X130753564Y-108116650D01*
X130656027Y-108243762D01*
X130594713Y-108391787D01*
X130573800Y-108550637D01*
X98403441Y-108550637D01*
X98263117Y-108473174D01*
X98253705Y-108468944D01*
X98052959Y-108397855D01*
X98042988Y-108395221D01*
X97971837Y-108382547D01*
X97958540Y-108384007D01*
X97954000Y-108398564D01*
X97954000Y-111032092D01*
X97446000Y-111032092D01*
X97446000Y-109985690D01*
X97441525Y-109970451D01*
X97440135Y-109969246D01*
X97432452Y-109967575D01*
X96383225Y-109967575D01*
X96369694Y-109971548D01*
X96368257Y-109981541D01*
X93208000Y-109981541D01*
X93208000Y-109447758D01*
X96364389Y-109447758D01*
X96365912Y-109456182D01*
X96378292Y-109459575D01*
X97427885Y-109459575D01*
X97443124Y-109455100D01*
X97444329Y-109453710D01*
X97446000Y-109446027D01*
X97446000Y-108396677D01*
X97442082Y-108383333D01*
X97427806Y-108381346D01*
X97389324Y-108387235D01*
X97379288Y-108389626D01*
X97176868Y-108455787D01*
X97167359Y-108459784D01*
X96978463Y-108558117D01*
X96969738Y-108563611D01*
X96799433Y-108691480D01*
X96791726Y-108698323D01*
X96644590Y-108852292D01*
X96638104Y-108860302D01*
X96518098Y-109036224D01*
X96513000Y-109045198D01*
X96423338Y-109238358D01*
X96419775Y-109248045D01*
X96364389Y-109447758D01*
X93208000Y-109447758D01*
X93208000Y-106681303D01*
X96291114Y-106681303D01*
X96291166Y-106681548D01*
X96353898Y-106885458D01*
X96358119Y-106895804D01*
X96455971Y-107085389D01*
X96461957Y-107094820D01*
X96591832Y-107264076D01*
X96599393Y-107272299D01*
X96757194Y-107415887D01*
X96766094Y-107422642D01*
X96946815Y-107536009D01*
X96956781Y-107541086D01*
X97154714Y-107620655D01*
X97165429Y-107623890D01*
X97375301Y-107667352D01*
X97384438Y-107668555D01*
X97434990Y-107671470D01*
X97438637Y-107671575D01*
X98327885Y-107671575D01*
X98343124Y-107667100D01*
X98344329Y-107665710D01*
X98346000Y-107658027D01*
X98346000Y-107653460D01*
X98854000Y-107653460D01*
X98858475Y-107668699D01*
X98859865Y-107669904D01*
X98867548Y-107671575D01*
X99729175Y-107671575D01*
X99734770Y-107671326D01*
X99893078Y-107657197D01*
X99904092Y-107655215D01*
X100109860Y-107598924D01*
X100120341Y-107595026D01*
X100312903Y-107503178D01*
X100322516Y-107497493D01*
X100495767Y-107373000D01*
X100504233Y-107365692D01*
X100652692Y-107212493D01*
X100659735Y-107203796D01*
X100778719Y-107026731D01*
X100784105Y-107016933D01*
X100869857Y-106821585D01*
X100873422Y-106810993D01*
X100903624Y-106685191D01*
X100902919Y-106671105D01*
X100894040Y-106667575D01*
X98872115Y-106667575D01*
X98856876Y-106672050D01*
X98855671Y-106673440D01*
X98854000Y-106681123D01*
X98854000Y-107653460D01*
X98346000Y-107653460D01*
X98346000Y-106685690D01*
X98341525Y-106670451D01*
X98340135Y-106669246D01*
X98332452Y-106667575D01*
X96306589Y-106667575D01*
X96292607Y-106671680D01*
X96291114Y-106681303D01*
X93208000Y-106681303D01*
X93208000Y-106563575D01*
X107236249Y-106563575D01*
X107257162Y-106722425D01*
X107318476Y-106870450D01*
X107337931Y-106895804D01*
X107410984Y-106991009D01*
X107410987Y-106991012D01*
X107416013Y-106997562D01*
X107543124Y-107095099D01*
X107550750Y-107098258D01*
X107550752Y-107098259D01*
X107683520Y-107153253D01*
X107683523Y-107153254D01*
X107691150Y-107156413D01*
X107850000Y-107177326D01*
X107858188Y-107176248D01*
X108000662Y-107157491D01*
X108008850Y-107156413D01*
X108016477Y-107153254D01*
X108016480Y-107153253D01*
X108143507Y-107100637D01*
X131423800Y-107100637D01*
X131444713Y-107259487D01*
X131506027Y-107407512D01*
X131517637Y-107422642D01*
X131598535Y-107528071D01*
X131598538Y-107528074D01*
X131603564Y-107534624D01*
X131730675Y-107632161D01*
X131738301Y-107635320D01*
X131738303Y-107635321D01*
X131871071Y-107690315D01*
X131871074Y-107690316D01*
X131878701Y-107693475D01*
X132037551Y-107714388D01*
X132045739Y-107713310D01*
X132188213Y-107694553D01*
X132196401Y-107693475D01*
X132204028Y-107690316D01*
X132204031Y-107690315D01*
X132336799Y-107635321D01*
X132336801Y-107635320D01*
X132344427Y-107632161D01*
X132471538Y-107534624D01*
X132476564Y-107528074D01*
X132476567Y-107528071D01*
X132557465Y-107422642D01*
X132569075Y-107407512D01*
X132630389Y-107259487D01*
X132651302Y-107100637D01*
X132630389Y-106941787D01*
X132569075Y-106793762D01*
X132508053Y-106714237D01*
X132476567Y-106673203D01*
X132476564Y-106673200D01*
X132471538Y-106666650D01*
X132376751Y-106593916D01*
X132350977Y-106574139D01*
X132344427Y-106569113D01*
X132336801Y-106565954D01*
X132336799Y-106565953D01*
X132204031Y-106510959D01*
X132204028Y-106510958D01*
X132196401Y-106507799D01*
X132037551Y-106486886D01*
X131878701Y-106507799D01*
X131730676Y-106569113D01*
X131603564Y-106666650D01*
X131506027Y-106793762D01*
X131444713Y-106941787D01*
X131423800Y-107100637D01*
X108143507Y-107100637D01*
X108149248Y-107098259D01*
X108149250Y-107098258D01*
X108156876Y-107095099D01*
X108283987Y-106997562D01*
X108289013Y-106991012D01*
X108289016Y-106991009D01*
X108362069Y-106895804D01*
X108381524Y-106870450D01*
X108442838Y-106722425D01*
X108463751Y-106563575D01*
X108442838Y-106404725D01*
X108381524Y-106256700D01*
X108305715Y-106157904D01*
X108289016Y-106136141D01*
X108289013Y-106136138D01*
X108283987Y-106129588D01*
X108156876Y-106032051D01*
X108149250Y-106028892D01*
X108149248Y-106028891D01*
X108079499Y-106000000D01*
X144286249Y-106000000D01*
X144307162Y-106158850D01*
X144368476Y-106306875D01*
X144417244Y-106370431D01*
X144460984Y-106427434D01*
X144460987Y-106427437D01*
X144466013Y-106433987D01*
X144472563Y-106439013D01*
X144472564Y-106439014D01*
X144586574Y-106526498D01*
X144593124Y-106531524D01*
X144600750Y-106534683D01*
X144600752Y-106534684D01*
X144733520Y-106589678D01*
X144733523Y-106589679D01*
X144741150Y-106592838D01*
X144900000Y-106613751D01*
X144908188Y-106612673D01*
X145050662Y-106593916D01*
X145058850Y-106592838D01*
X145066477Y-106589679D01*
X145066480Y-106589678D01*
X145199248Y-106534684D01*
X145199250Y-106534683D01*
X145206876Y-106531524D01*
X145213426Y-106526498D01*
X145327436Y-106439014D01*
X145327437Y-106439013D01*
X145333987Y-106433987D01*
X145339013Y-106427437D01*
X145339016Y-106427434D01*
X145382756Y-106370431D01*
X145431524Y-106306875D01*
X145492838Y-106158850D01*
X145513751Y-106000000D01*
X145492838Y-105841150D01*
X145431524Y-105693125D01*
X145371313Y-105614657D01*
X145339016Y-105572566D01*
X145339013Y-105572563D01*
X145333987Y-105566013D01*
X145206876Y-105468476D01*
X145199250Y-105465317D01*
X145199248Y-105465316D01*
X145066480Y-105410322D01*
X145066477Y-105410321D01*
X145058850Y-105407162D01*
X144900000Y-105386249D01*
X144741150Y-105407162D01*
X144593125Y-105468476D01*
X144466013Y-105566013D01*
X144368476Y-105693125D01*
X144307162Y-105841150D01*
X144286249Y-106000000D01*
X108079499Y-106000000D01*
X108016480Y-105973897D01*
X108016477Y-105973896D01*
X108008850Y-105970737D01*
X107850000Y-105949824D01*
X107691150Y-105970737D01*
X107543125Y-106032051D01*
X107416013Y-106129588D01*
X107318476Y-106256700D01*
X107257162Y-106404725D01*
X107236249Y-106563575D01*
X93208000Y-106563575D01*
X93208000Y-106141959D01*
X96296376Y-106141959D01*
X96297081Y-106156045D01*
X96305960Y-106159575D01*
X98327885Y-106159575D01*
X98343124Y-106155100D01*
X98344329Y-106153710D01*
X98346000Y-106146027D01*
X98346000Y-106141460D01*
X98854000Y-106141460D01*
X98858475Y-106156699D01*
X98859865Y-106157904D01*
X98867548Y-106159575D01*
X100893411Y-106159575D01*
X100907393Y-106155470D01*
X100908886Y-106145847D01*
X100908834Y-106145602D01*
X100846102Y-105941692D01*
X100841881Y-105931346D01*
X100744029Y-105741761D01*
X100738043Y-105732330D01*
X100608168Y-105563074D01*
X100600607Y-105554851D01*
X100442806Y-105411263D01*
X100433906Y-105404508D01*
X100253185Y-105291141D01*
X100243219Y-105286064D01*
X100045286Y-105206495D01*
X100034571Y-105203260D01*
X99824699Y-105159798D01*
X99815562Y-105158595D01*
X99765010Y-105155680D01*
X99761363Y-105155575D01*
X98872115Y-105155575D01*
X98856876Y-105160050D01*
X98855671Y-105161440D01*
X98854000Y-105169123D01*
X98854000Y-106141460D01*
X98346000Y-106141460D01*
X98346000Y-105173690D01*
X98341525Y-105158451D01*
X98340135Y-105157246D01*
X98332452Y-105155575D01*
X97470825Y-105155575D01*
X97465230Y-105155824D01*
X97306922Y-105169953D01*
X97295908Y-105171935D01*
X97090140Y-105228226D01*
X97079659Y-105232124D01*
X96887097Y-105323972D01*
X96877484Y-105329657D01*
X96704233Y-105454150D01*
X96695767Y-105461458D01*
X96547308Y-105614657D01*
X96540265Y-105623354D01*
X96421281Y-105800419D01*
X96415895Y-105810217D01*
X96330143Y-106005565D01*
X96326578Y-106016157D01*
X96296376Y-106141959D01*
X93208000Y-106141959D01*
X93208000Y-103092750D01*
X94342000Y-103092750D01*
X94342249Y-103098345D01*
X94356378Y-103256653D01*
X94358360Y-103267667D01*
X94414651Y-103473435D01*
X94418549Y-103483916D01*
X94510397Y-103676478D01*
X94516082Y-103686091D01*
X94640575Y-103859342D01*
X94647883Y-103867808D01*
X94801082Y-104016267D01*
X94809779Y-104023310D01*
X94986844Y-104142294D01*
X94996642Y-104147680D01*
X95191990Y-104233432D01*
X95202582Y-104236997D01*
X95328384Y-104267199D01*
X95342470Y-104266494D01*
X95346000Y-104257615D01*
X95346000Y-104256986D01*
X95854000Y-104256986D01*
X95858105Y-104270968D01*
X95867728Y-104272461D01*
X95867973Y-104272409D01*
X96071883Y-104209677D01*
X96082229Y-104205456D01*
X96271814Y-104107604D01*
X96281245Y-104101618D01*
X96283354Y-104100000D01*
X115886249Y-104100000D01*
X115907162Y-104258850D01*
X115968476Y-104406875D01*
X116014041Y-104466256D01*
X116060984Y-104527434D01*
X116060987Y-104527437D01*
X116066013Y-104533987D01*
X116193124Y-104631524D01*
X116200750Y-104634683D01*
X116200752Y-104634684D01*
X116333520Y-104689678D01*
X116333523Y-104689679D01*
X116341150Y-104692838D01*
X116500000Y-104713751D01*
X116508188Y-104712673D01*
X116650662Y-104693916D01*
X116658850Y-104692838D01*
X116666477Y-104689679D01*
X116666480Y-104689678D01*
X116799248Y-104634684D01*
X116799250Y-104634683D01*
X116806876Y-104631524D01*
X116933987Y-104533987D01*
X116939013Y-104527437D01*
X116939016Y-104527434D01*
X116985959Y-104466256D01*
X117031524Y-104406875D01*
X117092838Y-104258850D01*
X117113751Y-104100000D01*
X117092838Y-103941150D01*
X117031524Y-103793125D01*
X116985763Y-103733489D01*
X116960164Y-103667273D01*
X116974428Y-103597724D01*
X116985765Y-103580084D01*
X116987331Y-103578043D01*
X117031524Y-103520450D01*
X117092838Y-103372425D01*
X117113751Y-103213575D01*
X117092838Y-103054725D01*
X117031524Y-102906700D01*
X116955561Y-102807703D01*
X116939016Y-102786141D01*
X116939013Y-102786138D01*
X116933987Y-102779588D01*
X116879318Y-102737638D01*
X116813426Y-102687077D01*
X116806876Y-102682051D01*
X116799250Y-102678892D01*
X116799248Y-102678891D01*
X116666480Y-102623897D01*
X116666477Y-102623896D01*
X116658850Y-102620737D01*
X116500000Y-102599824D01*
X116341150Y-102620737D01*
X116193125Y-102682051D01*
X116066013Y-102779588D01*
X115968476Y-102906700D01*
X115907162Y-103054725D01*
X115886249Y-103213575D01*
X115907162Y-103372425D01*
X115968476Y-103520450D01*
X116012669Y-103578043D01*
X116014235Y-103580084D01*
X116039836Y-103646304D01*
X116025571Y-103715853D01*
X116014243Y-103733481D01*
X115968476Y-103793125D01*
X115907162Y-103941150D01*
X115886249Y-104100000D01*
X96283354Y-104100000D01*
X96450501Y-103971743D01*
X96458724Y-103964182D01*
X96602312Y-103806381D01*
X96609067Y-103797481D01*
X96722434Y-103616760D01*
X96727511Y-103606794D01*
X96807080Y-103408861D01*
X96810315Y-103398146D01*
X96853777Y-103188274D01*
X96854980Y-103179137D01*
X96857895Y-103128585D01*
X96858000Y-103124938D01*
X96858000Y-103087238D01*
X100641500Y-103087238D01*
X100656235Y-103232302D01*
X100658144Y-103238393D01*
X100712556Y-103412026D01*
X100712558Y-103412031D01*
X100714465Y-103418116D01*
X100808870Y-103588425D01*
X100813019Y-103593266D01*
X100813022Y-103593270D01*
X100892580Y-103686091D01*
X100935591Y-103736273D01*
X101089453Y-103855621D01*
X101095176Y-103858437D01*
X101095179Y-103858439D01*
X101258444Y-103938775D01*
X101264171Y-103941593D01*
X101270349Y-103943202D01*
X101270351Y-103943203D01*
X101446425Y-103989067D01*
X101446428Y-103989067D01*
X101452607Y-103990677D01*
X101536597Y-103995079D01*
X101640683Y-104000534D01*
X101640687Y-104000534D01*
X101647064Y-104000868D01*
X101802413Y-103977374D01*
X101833285Y-103972705D01*
X101833286Y-103972705D01*
X101839599Y-103971750D01*
X101845585Y-103969547D01*
X101845591Y-103969546D01*
X102016360Y-103906715D01*
X102016365Y-103906713D01*
X102022346Y-103904512D01*
X102187840Y-103801901D01*
X102197121Y-103793125D01*
X102324685Y-103672494D01*
X102329322Y-103668109D01*
X102441011Y-103508600D01*
X102499939Y-103372425D01*
X102515810Y-103335750D01*
X102515811Y-103335746D01*
X102518345Y-103329891D01*
X102519651Y-103323641D01*
X102557176Y-103144018D01*
X102557177Y-103144013D01*
X102558165Y-103139282D01*
X102558500Y-103132890D01*
X102558500Y-100339912D01*
X102555825Y-100313575D01*
X107286249Y-100313575D01*
X107307162Y-100472425D01*
X107368476Y-100620450D01*
X107409778Y-100674276D01*
X107460984Y-100741009D01*
X107460987Y-100741012D01*
X107466013Y-100747562D01*
X107593124Y-100845099D01*
X107600750Y-100848258D01*
X107600752Y-100848259D01*
X107733520Y-100903253D01*
X107733523Y-100903254D01*
X107741150Y-100906413D01*
X107900000Y-100927326D01*
X107908188Y-100926248D01*
X108050662Y-100907491D01*
X108058850Y-100906413D01*
X108066477Y-100903254D01*
X108066480Y-100903253D01*
X108199248Y-100848259D01*
X108199250Y-100848258D01*
X108206876Y-100845099D01*
X108333987Y-100747562D01*
X108339013Y-100741012D01*
X108339016Y-100741009D01*
X108390222Y-100674276D01*
X108431524Y-100620450D01*
X108492838Y-100472425D01*
X108513751Y-100313575D01*
X108492838Y-100154725D01*
X108487998Y-100143039D01*
X108473273Y-100107491D01*
X108431524Y-100006700D01*
X108359868Y-99913316D01*
X108339016Y-99886141D01*
X108339013Y-99886138D01*
X108333987Y-99879588D01*
X108268160Y-99829076D01*
X108213426Y-99787077D01*
X108206876Y-99782051D01*
X108199250Y-99778892D01*
X108199248Y-99778891D01*
X108066480Y-99723897D01*
X108066477Y-99723896D01*
X108058850Y-99720737D01*
X107900000Y-99699824D01*
X107741150Y-99720737D01*
X107593125Y-99782051D01*
X107466013Y-99879588D01*
X107368476Y-100006700D01*
X107326727Y-100107491D01*
X107312003Y-100143039D01*
X107307162Y-100154725D01*
X107286249Y-100313575D01*
X102555825Y-100313575D01*
X102543765Y-100194848D01*
X102516389Y-100107491D01*
X102487444Y-100015124D01*
X102487442Y-100015119D01*
X102485535Y-100009034D01*
X102432477Y-99913316D01*
X102394223Y-99844304D01*
X102394221Y-99844301D01*
X102391130Y-99838725D01*
X102386981Y-99833884D01*
X102386978Y-99833880D01*
X102268560Y-99695720D01*
X102264409Y-99690877D01*
X102229024Y-99663429D01*
X102115594Y-99575444D01*
X102110547Y-99571529D01*
X102104824Y-99568713D01*
X102104821Y-99568711D01*
X101941556Y-99488375D01*
X101935829Y-99485557D01*
X101929651Y-99483948D01*
X101929649Y-99483947D01*
X101753575Y-99438083D01*
X101753572Y-99438083D01*
X101747393Y-99436473D01*
X101663403Y-99432071D01*
X101559317Y-99426616D01*
X101559313Y-99426616D01*
X101552936Y-99426282D01*
X101397587Y-99449776D01*
X101366715Y-99454445D01*
X101366714Y-99454445D01*
X101360401Y-99455400D01*
X101354415Y-99457603D01*
X101354409Y-99457604D01*
X101183640Y-99520435D01*
X101183635Y-99520437D01*
X101177654Y-99522638D01*
X101012160Y-99625249D01*
X101007527Y-99629630D01*
X101007526Y-99629631D01*
X100933299Y-99699824D01*
X100870678Y-99759041D01*
X100758989Y-99918550D01*
X100749651Y-99940130D01*
X100704227Y-100045099D01*
X100681655Y-100097259D01*
X100680350Y-100103506D01*
X100680349Y-100103509D01*
X100661268Y-100194848D01*
X100641835Y-100287868D01*
X100641500Y-100294260D01*
X100641500Y-103087238D01*
X96858000Y-103087238D01*
X96858000Y-101985690D01*
X96853525Y-101970451D01*
X96852135Y-101969246D01*
X96844452Y-101967575D01*
X95872115Y-101967575D01*
X95856876Y-101972050D01*
X95855671Y-101973440D01*
X95854000Y-101981123D01*
X95854000Y-104256986D01*
X95346000Y-104256986D01*
X95346000Y-101985690D01*
X95341525Y-101970451D01*
X95340135Y-101969246D01*
X95332452Y-101967575D01*
X94360115Y-101967575D01*
X94344876Y-101972050D01*
X94343671Y-101973440D01*
X94342000Y-101981123D01*
X94342000Y-103092750D01*
X93208000Y-103092750D01*
X93208000Y-101441460D01*
X94342000Y-101441460D01*
X94346475Y-101456699D01*
X94347865Y-101457904D01*
X94355548Y-101459575D01*
X95327885Y-101459575D01*
X95343124Y-101455100D01*
X95344329Y-101453710D01*
X95346000Y-101446027D01*
X95346000Y-101441460D01*
X95854000Y-101441460D01*
X95858475Y-101456699D01*
X95859865Y-101457904D01*
X95867548Y-101459575D01*
X96839885Y-101459575D01*
X96855124Y-101455100D01*
X96856329Y-101453710D01*
X96858000Y-101446027D01*
X96858000Y-100334400D01*
X96857751Y-100328805D01*
X96843622Y-100170497D01*
X96841640Y-100159483D01*
X96785349Y-99953715D01*
X96781451Y-99943234D01*
X96689603Y-99750672D01*
X96683918Y-99741059D01*
X96559425Y-99567808D01*
X96552117Y-99559342D01*
X96398918Y-99410883D01*
X96390221Y-99403840D01*
X96213156Y-99284856D01*
X96203358Y-99279470D01*
X96008010Y-99193718D01*
X95997418Y-99190153D01*
X95871616Y-99159951D01*
X95857530Y-99160656D01*
X95854000Y-99169535D01*
X95854000Y-101441460D01*
X95346000Y-101441460D01*
X95346000Y-99170164D01*
X95341895Y-99156182D01*
X95332272Y-99154689D01*
X95332027Y-99154741D01*
X95128117Y-99217473D01*
X95117771Y-99221694D01*
X94928186Y-99319546D01*
X94918755Y-99325532D01*
X94749499Y-99455407D01*
X94741276Y-99462968D01*
X94597688Y-99620769D01*
X94590933Y-99629669D01*
X94477566Y-99810390D01*
X94472489Y-99820356D01*
X94392920Y-100018289D01*
X94389685Y-100029004D01*
X94346223Y-100238876D01*
X94345020Y-100248013D01*
X94342105Y-100298565D01*
X94342000Y-100302212D01*
X94342000Y-101441460D01*
X93208000Y-101441460D01*
X93208000Y-97213575D01*
X115086249Y-97213575D01*
X115107162Y-97372425D01*
X115168476Y-97520450D01*
X115217245Y-97584006D01*
X115260984Y-97641009D01*
X115260987Y-97641012D01*
X115266013Y-97647562D01*
X115393124Y-97745099D01*
X115400750Y-97748258D01*
X115400752Y-97748259D01*
X115533520Y-97803253D01*
X115533523Y-97803254D01*
X115541150Y-97806413D01*
X115700000Y-97827326D01*
X115708188Y-97826248D01*
X115850662Y-97807491D01*
X115858850Y-97806413D01*
X115866477Y-97803254D01*
X115866480Y-97803253D01*
X115997057Y-97749166D01*
X116045275Y-97739575D01*
X116254725Y-97739575D01*
X116302943Y-97749166D01*
X116433520Y-97803253D01*
X116433523Y-97803254D01*
X116441150Y-97806413D01*
X116600000Y-97827326D01*
X116608188Y-97826248D01*
X116750662Y-97807491D01*
X116758850Y-97806413D01*
X116766477Y-97803254D01*
X116766480Y-97803253D01*
X116897057Y-97749166D01*
X116945275Y-97739575D01*
X117766784Y-97739575D01*
X117834905Y-97759577D01*
X117855879Y-97776480D01*
X118870084Y-98790685D01*
X118904110Y-98852997D01*
X118906989Y-98879780D01*
X118906989Y-103821737D01*
X118897398Y-103869954D01*
X118840151Y-104008161D01*
X118819238Y-104167011D01*
X118840151Y-104325861D01*
X118901465Y-104473886D01*
X118942554Y-104527434D01*
X118993973Y-104594445D01*
X118993976Y-104594448D01*
X118999002Y-104600998D01*
X119126113Y-104698535D01*
X119133739Y-104701694D01*
X119133741Y-104701695D01*
X119266509Y-104756689D01*
X119266512Y-104756690D01*
X119274139Y-104759849D01*
X119432989Y-104780762D01*
X119441177Y-104779684D01*
X119583651Y-104760927D01*
X119591839Y-104759849D01*
X119599466Y-104756690D01*
X119599469Y-104756689D01*
X119732237Y-104701695D01*
X119732239Y-104701694D01*
X119739865Y-104698535D01*
X119866976Y-104600998D01*
X119872002Y-104594448D01*
X119872005Y-104594445D01*
X119923424Y-104527434D01*
X119964513Y-104473886D01*
X120025827Y-104325861D01*
X120046740Y-104167011D01*
X120025827Y-104008161D01*
X119968580Y-103869954D01*
X119958989Y-103821737D01*
X119958989Y-102198075D01*
X119978991Y-102129954D01*
X120032647Y-102083461D01*
X120084989Y-102072075D01*
X121590403Y-102072074D01*
X121670536Y-102072074D01*
X121731353Y-102059978D01*
X121741670Y-102053085D01*
X121741671Y-102053084D01*
X121790007Y-102020786D01*
X121800320Y-102013895D01*
X121846403Y-101944928D01*
X121858500Y-101884112D01*
X121858499Y-100991885D01*
X121878501Y-100923766D01*
X121932157Y-100877273D01*
X122002431Y-100867169D01*
X122067011Y-100896662D01*
X122073594Y-100902792D01*
X122096667Y-100925865D01*
X122105492Y-100935666D01*
X122129532Y-100965353D01*
X122136534Y-100970329D01*
X122136536Y-100970331D01*
X122143799Y-100975492D01*
X122159905Y-100989103D01*
X124812168Y-103641366D01*
X124839481Y-103682242D01*
X124896729Y-103820450D01*
X124933068Y-103867808D01*
X124989237Y-103941009D01*
X124989240Y-103941012D01*
X124994266Y-103947562D01*
X125000816Y-103952588D01*
X125000817Y-103952589D01*
X125063735Y-104000868D01*
X125121377Y-104045099D01*
X125129003Y-104048258D01*
X125129005Y-104048259D01*
X125261773Y-104103253D01*
X125261776Y-104103254D01*
X125269403Y-104106413D01*
X125277591Y-104107491D01*
X125282885Y-104108188D01*
X125428253Y-104127326D01*
X125436441Y-104126248D01*
X125578915Y-104107491D01*
X125587103Y-104106413D01*
X125594730Y-104103254D01*
X125594733Y-104103253D01*
X125727501Y-104048259D01*
X125727503Y-104048258D01*
X125735129Y-104045099D01*
X125792771Y-104000868D01*
X125855689Y-103952589D01*
X125855690Y-103952588D01*
X125862240Y-103947562D01*
X125867266Y-103941012D01*
X125867269Y-103941009D01*
X125923438Y-103867808D01*
X125959777Y-103820450D01*
X126021091Y-103672425D01*
X126042004Y-103513575D01*
X126021091Y-103354725D01*
X125959777Y-103206700D01*
X125899837Y-103128585D01*
X125867269Y-103086141D01*
X125867266Y-103086138D01*
X125862240Y-103079588D01*
X125829839Y-103054725D01*
X125741679Y-102987077D01*
X125735129Y-102982051D01*
X125727503Y-102978892D01*
X125727501Y-102978891D01*
X125707136Y-102970456D01*
X125651855Y-102925908D01*
X125629434Y-102858545D01*
X125646992Y-102789753D01*
X125698954Y-102741375D01*
X125707137Y-102737638D01*
X125711797Y-102735708D01*
X125711800Y-102735706D01*
X125719427Y-102732547D01*
X125846538Y-102635010D01*
X125851564Y-102628460D01*
X125851567Y-102628457D01*
X125895307Y-102571454D01*
X125944075Y-102507898D01*
X126005389Y-102359873D01*
X126026302Y-102201023D01*
X126005389Y-102042173D01*
X125944075Y-101894148D01*
X125895307Y-101830592D01*
X125851567Y-101773589D01*
X125851564Y-101773586D01*
X125846538Y-101767036D01*
X125719427Y-101669499D01*
X125711801Y-101666340D01*
X125711799Y-101666339D01*
X125579031Y-101611345D01*
X125579028Y-101611344D01*
X125571401Y-101608185D01*
X125412551Y-101587272D01*
X125253701Y-101608185D01*
X125105676Y-101669499D01*
X124978564Y-101767036D01*
X124881027Y-101894148D01*
X124877867Y-101901778D01*
X124857026Y-101952091D01*
X124812477Y-102007372D01*
X124745114Y-102029793D01*
X124676323Y-102012235D01*
X124651526Y-101992971D01*
X123055894Y-100397340D01*
X123021868Y-100335028D01*
X123018989Y-100308245D01*
X123018989Y-97758564D01*
X123038991Y-97690443D01*
X123092647Y-97643950D01*
X123144989Y-97632564D01*
X128061736Y-97632564D01*
X128109953Y-97642155D01*
X128135088Y-97652566D01*
X128240531Y-97696242D01*
X128240534Y-97696243D01*
X128248161Y-97699402D01*
X128407011Y-97720315D01*
X128415199Y-97719237D01*
X128557673Y-97700480D01*
X128565861Y-97699402D01*
X128573488Y-97696243D01*
X128573491Y-97696242D01*
X128678934Y-97652566D01*
X128704069Y-97642155D01*
X128752286Y-97632564D01*
X128961736Y-97632564D01*
X129009953Y-97642155D01*
X129035088Y-97652566D01*
X129140531Y-97696242D01*
X129140534Y-97696243D01*
X129148161Y-97699402D01*
X129307011Y-97720315D01*
X129315199Y-97719237D01*
X129457673Y-97700480D01*
X129465861Y-97699402D01*
X129473488Y-97696243D01*
X129473491Y-97696242D01*
X129578934Y-97652566D01*
X129604069Y-97642155D01*
X129652286Y-97632564D01*
X131722923Y-97632564D01*
X131791044Y-97652566D01*
X131812018Y-97669469D01*
X133783915Y-99641366D01*
X133811228Y-99682242D01*
X133868476Y-99820450D01*
X133886780Y-99844304D01*
X133960984Y-99941009D01*
X133960987Y-99941012D01*
X133966013Y-99947562D01*
X133972563Y-99952588D01*
X133972564Y-99952589D01*
X134054060Y-100015124D01*
X134093124Y-100045099D01*
X134100750Y-100048258D01*
X134100752Y-100048259D01*
X134233520Y-100103253D01*
X134233523Y-100103254D01*
X134241150Y-100106413D01*
X134400000Y-100127326D01*
X134408188Y-100126248D01*
X134550662Y-100107491D01*
X134558850Y-100106413D01*
X134566477Y-100103254D01*
X134566480Y-100103253D01*
X134699248Y-100048259D01*
X134699250Y-100048258D01*
X134706876Y-100045099D01*
X134745940Y-100015124D01*
X134827436Y-99952589D01*
X134827437Y-99952588D01*
X134833987Y-99947562D01*
X134839013Y-99941012D01*
X134839016Y-99941009D01*
X134913220Y-99844304D01*
X134931524Y-99820450D01*
X134992838Y-99672425D01*
X135013751Y-99513575D01*
X134992838Y-99354725D01*
X134931524Y-99206700D01*
X134882755Y-99143144D01*
X134839016Y-99086141D01*
X134839013Y-99086138D01*
X134833987Y-99079588D01*
X134706876Y-98982051D01*
X134568667Y-98924803D01*
X134527791Y-98897490D01*
X132375154Y-96744853D01*
X132371501Y-96741045D01*
X132337241Y-96703788D01*
X132331426Y-96697464D01*
X132296316Y-96675695D01*
X132286540Y-96668976D01*
X132260474Y-96649191D01*
X132260473Y-96649191D01*
X132253631Y-96643997D01*
X132240735Y-96638891D01*
X132220729Y-96628829D01*
X132208944Y-96621522D01*
X132200696Y-96619126D01*
X132200690Y-96619123D01*
X132169273Y-96609995D01*
X132158050Y-96606153D01*
X132119637Y-96590945D01*
X132106575Y-96589572D01*
X132105842Y-96589495D01*
X132083863Y-96585182D01*
X132076895Y-96583158D01*
X132070551Y-96581315D01*
X132063195Y-96580775D01*
X132062630Y-96580733D01*
X132062622Y-96580733D01*
X132060325Y-96580564D01*
X132027474Y-96580564D01*
X132014303Y-96579874D01*
X131984856Y-96576779D01*
X131976312Y-96575881D01*
X131967840Y-96577314D01*
X131967839Y-96577314D01*
X131959060Y-96578799D01*
X131938047Y-96580564D01*
X129652286Y-96580564D01*
X129604068Y-96570973D01*
X129473491Y-96516886D01*
X129473488Y-96516885D01*
X129465861Y-96513726D01*
X129307011Y-96492813D01*
X129148161Y-96513726D01*
X129140532Y-96516886D01*
X129009955Y-96570973D01*
X128961737Y-96580564D01*
X128752286Y-96580564D01*
X128704068Y-96570973D01*
X128573491Y-96516886D01*
X128573488Y-96516885D01*
X128565861Y-96513726D01*
X128407011Y-96492813D01*
X128248161Y-96513726D01*
X128240532Y-96516886D01*
X128109955Y-96570973D01*
X128061737Y-96580564D01*
X122517346Y-96580564D01*
X122508119Y-96580226D01*
X122503325Y-96579874D01*
X122459651Y-96576667D01*
X122451229Y-96578365D01*
X122447307Y-96578612D01*
X122427748Y-96580564D01*
X118158302Y-96580564D01*
X118153026Y-96580454D01*
X118093894Y-96577976D01*
X118085530Y-96579938D01*
X118085529Y-96579938D01*
X118053675Y-96587409D01*
X118042004Y-96589572D01*
X118026450Y-96591703D01*
X118001079Y-96595178D01*
X117988354Y-96600685D01*
X117967080Y-96607720D01*
X117961950Y-96608923D01*
X117961946Y-96608925D01*
X117953587Y-96610885D01*
X117946065Y-96615020D01*
X117946063Y-96615021D01*
X117917389Y-96630785D01*
X117906729Y-96636007D01*
X117868817Y-96652413D01*
X117862139Y-96657821D01*
X117860074Y-96659493D01*
X117857838Y-96660426D01*
X117854794Y-96662269D01*
X117854516Y-96661811D01*
X117794548Y-96686820D01*
X117780777Y-96687575D01*
X116945275Y-96687575D01*
X116897057Y-96677984D01*
X116883975Y-96672565D01*
X116835323Y-96652413D01*
X116766480Y-96623897D01*
X116766477Y-96623896D01*
X116758850Y-96620737D01*
X116746591Y-96619123D01*
X116608188Y-96600902D01*
X116600000Y-96599824D01*
X116591812Y-96600902D01*
X116453410Y-96619123D01*
X116441150Y-96620737D01*
X116316027Y-96672565D01*
X116302944Y-96677984D01*
X116254726Y-96687575D01*
X116045275Y-96687575D01*
X115997057Y-96677984D01*
X115983975Y-96672565D01*
X115935323Y-96652413D01*
X115866480Y-96623897D01*
X115866477Y-96623896D01*
X115858850Y-96620737D01*
X115846591Y-96619123D01*
X115708188Y-96600902D01*
X115700000Y-96599824D01*
X115691812Y-96600902D01*
X115553410Y-96619123D01*
X115541150Y-96620737D01*
X115393125Y-96682051D01*
X115266013Y-96779588D01*
X115168476Y-96906700D01*
X115107162Y-97054725D01*
X115086249Y-97213575D01*
X93208000Y-97213575D01*
X93208000Y-96451508D01*
X93210160Y-96432475D01*
X93210168Y-96427779D01*
X93213349Y-96413947D01*
X93210216Y-96400104D01*
X93210241Y-96385918D01*
X93211055Y-96385919D01*
X93210377Y-96377303D01*
X93222791Y-96187914D01*
X93224942Y-96171574D01*
X93267450Y-95957869D01*
X93271714Y-95941956D01*
X93341754Y-95735625D01*
X93348060Y-95720401D01*
X93444429Y-95524983D01*
X93452670Y-95510709D01*
X93573724Y-95329539D01*
X93583757Y-95316464D01*
X93637654Y-95255006D01*
X93727425Y-95152641D01*
X93739066Y-95141000D01*
X93902889Y-94997332D01*
X93915964Y-94987299D01*
X94097134Y-94866245D01*
X94111408Y-94858004D01*
X94306826Y-94761635D01*
X94322052Y-94755328D01*
X94341984Y-94748562D01*
X94528381Y-94685289D01*
X94544291Y-94681026D01*
X94651146Y-94659771D01*
X94757999Y-94638517D01*
X94774339Y-94636366D01*
X94963164Y-94623989D01*
X94971625Y-94623719D01*
X94985800Y-94623744D01*
X94999628Y-94626924D01*
X95013469Y-94623792D01*
X95017438Y-94623799D01*
X95037344Y-94621575D01*
X147462067Y-94621575D01*
X147481100Y-94623735D01*
G37*
%TD.AperFunction*%
%TD*%
%TA.AperFunction,Conductor*%
%TO.N,GND*%
G36*
X189942121Y-102433577D02*
G01*
X189988614Y-102487233D01*
X190000000Y-102539575D01*
X190000000Y-114587575D01*
X189979998Y-114655696D01*
X189926342Y-114702189D01*
X189874000Y-114713575D01*
X155226000Y-114713575D01*
X155157879Y-114693573D01*
X155111386Y-114639917D01*
X155100000Y-114587575D01*
X155100000Y-113213575D01*
X176894318Y-113213575D01*
X176914956Y-113370337D01*
X176975464Y-113516416D01*
X177071718Y-113641857D01*
X177197159Y-113738111D01*
X177343238Y-113798619D01*
X177500000Y-113819257D01*
X177508188Y-113818179D01*
X177648574Y-113799697D01*
X177656762Y-113798619D01*
X177802841Y-113738111D01*
X177928282Y-113641857D01*
X178024536Y-113516416D01*
X178085044Y-113370337D01*
X178105682Y-113213575D01*
X178085044Y-113056813D01*
X178024536Y-112910734D01*
X177928282Y-112785293D01*
X177802841Y-112689039D01*
X177656762Y-112628531D01*
X177500000Y-112607893D01*
X177343238Y-112628531D01*
X177197159Y-112689039D01*
X177071718Y-112785293D01*
X176975464Y-112910734D01*
X176914956Y-113056813D01*
X176894318Y-113213575D01*
X155100000Y-113213575D01*
X155100000Y-108513575D01*
X154978013Y-108513575D01*
X154909892Y-108493573D01*
X154863399Y-108439917D01*
X154853295Y-108369643D01*
X154878050Y-108310871D01*
X154919509Y-108256840D01*
X154924536Y-108250289D01*
X154985044Y-108104210D01*
X154999609Y-107993575D01*
X176734370Y-107993575D01*
X176755008Y-108150337D01*
X176815516Y-108296416D01*
X176911770Y-108421857D01*
X177037211Y-108518111D01*
X177183290Y-108578619D01*
X177340052Y-108599257D01*
X177348240Y-108598179D01*
X177488626Y-108579697D01*
X177496814Y-108578619D01*
X177642893Y-108518111D01*
X177768334Y-108421857D01*
X177864588Y-108296416D01*
X177925096Y-108150337D01*
X177945734Y-107993575D01*
X177925096Y-107836813D01*
X177864588Y-107690734D01*
X177768334Y-107565293D01*
X177642893Y-107469039D01*
X177496814Y-107408531D01*
X177340052Y-107387893D01*
X177183290Y-107408531D01*
X177037211Y-107469039D01*
X176911770Y-107565293D01*
X176815516Y-107690734D01*
X176755008Y-107836813D01*
X176734370Y-107993575D01*
X154999609Y-107993575D01*
X155005682Y-107947448D01*
X154985044Y-107790686D01*
X154924536Y-107644607D01*
X154828282Y-107519166D01*
X154702841Y-107422912D01*
X154556762Y-107362404D01*
X154400000Y-107341766D01*
X154243238Y-107362404D01*
X154097159Y-107422912D01*
X153971718Y-107519166D01*
X153875464Y-107644607D01*
X153814956Y-107790686D01*
X153794318Y-107947448D01*
X153814956Y-108104210D01*
X153875464Y-108250289D01*
X153880491Y-108256840D01*
X153921950Y-108310871D01*
X153947550Y-108377092D01*
X153933285Y-108446640D01*
X153883684Y-108497436D01*
X153821987Y-108513575D01*
X153600000Y-108513575D01*
X153600000Y-105513575D01*
X153747847Y-105513575D01*
X153815968Y-105533577D01*
X153862461Y-105587233D01*
X153872565Y-105657507D01*
X153864256Y-105687791D01*
X153814956Y-105806813D01*
X153794318Y-105963575D01*
X153814956Y-106120337D01*
X153875464Y-106266416D01*
X153971718Y-106391857D01*
X154097159Y-106488111D01*
X154243238Y-106548619D01*
X154400000Y-106569257D01*
X154408188Y-106568179D01*
X154548574Y-106549697D01*
X154556762Y-106548619D01*
X154702841Y-106488111D01*
X154828282Y-106391857D01*
X154924536Y-106266416D01*
X154985044Y-106120337D01*
X155005682Y-105963575D01*
X154985044Y-105806813D01*
X154935744Y-105687792D01*
X154928155Y-105617204D01*
X154959934Y-105553717D01*
X155020992Y-105517489D01*
X155052153Y-105513575D01*
X155100000Y-105513575D01*
X155100000Y-104200000D01*
X178394318Y-104200000D01*
X178414956Y-104356762D01*
X178475464Y-104502841D01*
X178571718Y-104628282D01*
X178697159Y-104724536D01*
X178843238Y-104785044D01*
X179000000Y-104805682D01*
X179008188Y-104804604D01*
X179148574Y-104786122D01*
X179156762Y-104785044D01*
X179302841Y-104724536D01*
X179428282Y-104628282D01*
X179524536Y-104502841D01*
X179585044Y-104356762D01*
X179605682Y-104200000D01*
X179585044Y-104043238D01*
X179524536Y-103897159D01*
X179428282Y-103771718D01*
X179302841Y-103675464D01*
X179156762Y-103614956D01*
X179000000Y-103594318D01*
X178843238Y-103614956D01*
X178697159Y-103675464D01*
X178571718Y-103771718D01*
X178475464Y-103897159D01*
X178414956Y-104043238D01*
X178394318Y-104200000D01*
X155100000Y-104200000D01*
X155100000Y-102539575D01*
X155120002Y-102471454D01*
X155173658Y-102424961D01*
X155226000Y-102413575D01*
X189874000Y-102413575D01*
X189942121Y-102433577D01*
G37*
%TD.AperFunction*%
%TD*%
M02*
