%TF.GenerationSoftware,KiCad,Pcbnew,(6.0.2)*%
%TF.CreationDate,2022-06-19T20:51:39-07:00*%
%TF.ProjectId,peregrine,70657265-6772-4696-9e65-2e6b69636164,5*%
%TF.SameCoordinates,Original*%
%TF.FileFunction,Legend,Top*%
%TF.FilePolarity,Positive*%
%FSLAX46Y46*%
G04 Gerber Fmt 4.6, Leading zero omitted, Abs format (unit mm)*
G04 Created by KiCad (PCBNEW (6.0.2)) date 2022-06-19 20:51:39*
%MOMM*%
%LPD*%
G01*
G04 APERTURE LIST*
G04 Aperture macros list*
%AMRoundRect*
0 Rectangle with rounded corners*
0 $1 Rounding radius*
0 $2 $3 $4 $5 $6 $7 $8 $9 X,Y pos of 4 corners*
0 Add a 4 corners polygon primitive as box body*
4,1,4,$2,$3,$4,$5,$6,$7,$8,$9,$2,$3,0*
0 Add four circle primitives for the rounded corners*
1,1,$1+$1,$2,$3*
1,1,$1+$1,$4,$5*
1,1,$1+$1,$6,$7*
1,1,$1+$1,$8,$9*
0 Add four rect primitives between the rounded corners*
20,1,$1+$1,$2,$3,$4,$5,0*
20,1,$1+$1,$4,$5,$6,$7,0*
20,1,$1+$1,$6,$7,$8,$9,0*
20,1,$1+$1,$8,$9,$2,$3,0*%
%AMOutline5P*
0 Free polygon, 5 corners , with rotation*
0 The origin of the aperture is its center*
0 number of corners: always 5*
0 $1 to $10 corner X, Y*
0 $11 Rotation angle, in degrees counterclockwise*
0 create outline with 5 corners*
4,1,5,$1,$2,$3,$4,$5,$6,$7,$8,$9,$10,$1,$2,$11*%
%AMOutline6P*
0 Free polygon, 6 corners , with rotation*
0 The origin of the aperture is its center*
0 number of corners: always 6*
0 $1 to $12 corner X, Y*
0 $13 Rotation angle, in degrees counterclockwise*
0 create outline with 6 corners*
4,1,6,$1,$2,$3,$4,$5,$6,$7,$8,$9,$10,$11,$12,$1,$2,$13*%
%AMOutline7P*
0 Free polygon, 7 corners , with rotation*
0 The origin of the aperture is its center*
0 number of corners: always 7*
0 $1 to $14 corner X, Y*
0 $15 Rotation angle, in degrees counterclockwise*
0 create outline with 7 corners*
4,1,7,$1,$2,$3,$4,$5,$6,$7,$8,$9,$10,$11,$12,$13,$14,$1,$2,$15*%
%AMOutline8P*
0 Free polygon, 8 corners , with rotation*
0 The origin of the aperture is its center*
0 number of corners: always 8*
0 $1 to $16 corner X, Y*
0 $17 Rotation angle, in degrees counterclockwise*
0 create outline with 8 corners*
4,1,8,$1,$2,$3,$4,$5,$6,$7,$8,$9,$10,$11,$12,$13,$14,$15,$16,$1,$2,$17*%
%AMFreePoly0*
4,1,9,3.862500,-0.866500,0.737500,-0.866500,0.737500,-0.450000,-0.737500,-0.450000,-0.737500,0.450000,0.737500,0.450000,0.737500,0.866500,3.862500,0.866500,3.862500,-0.866500,3.862500,-0.866500,$1*%
G04 Aperture macros list end*
%ADD10C,0.150000*%
%ADD11C,0.120000*%
%ADD12R,2.500000X1.800000*%
%ADD13R,1.300000X0.900000*%
%ADD14FreePoly0,180.000000*%
%ADD15R,1.500000X1.500000*%
%ADD16RoundRect,0.150000X0.150000X-0.587500X0.150000X0.587500X-0.150000X0.587500X-0.150000X-0.587500X0*%
%ADD17RoundRect,0.237500X-0.237500X0.287500X-0.237500X-0.287500X0.237500X-0.287500X0.237500X0.287500X0*%
%ADD18RoundRect,0.237500X-0.287500X-0.237500X0.287500X-0.237500X0.287500X0.237500X-0.287500X0.237500X0*%
%ADD19RoundRect,0.250000X-0.337500X-0.475000X0.337500X-0.475000X0.337500X0.475000X-0.337500X0.475000X0*%
%ADD20RoundRect,0.250000X0.475000X-0.337500X0.475000X0.337500X-0.475000X0.337500X-0.475000X-0.337500X0*%
%ADD21RoundRect,0.237500X-0.250000X-0.237500X0.250000X-0.237500X0.250000X0.237500X-0.250000X0.237500X0*%
%ADD22RoundRect,0.237500X0.287500X0.237500X-0.287500X0.237500X-0.287500X-0.237500X0.287500X-0.237500X0*%
%ADD23R,1.700000X1.700000*%
%ADD24O,1.700000X1.700000*%
%ADD25RoundRect,0.160000X0.197500X0.160000X-0.197500X0.160000X-0.197500X-0.160000X0.197500X-0.160000X0*%
%ADD26R,1.560000X0.650000*%
%ADD27RoundRect,0.237500X0.237500X-0.250000X0.237500X0.250000X-0.237500X0.250000X-0.237500X-0.250000X0*%
%ADD28RoundRect,0.237500X-0.237500X0.300000X-0.237500X-0.300000X0.237500X-0.300000X0.237500X0.300000X0*%
%ADD29R,2.000000X1.800000*%
%ADD30C,1.000000*%
%ADD31RoundRect,0.100000X0.100000X-0.637500X0.100000X0.637500X-0.100000X0.637500X-0.100000X-0.637500X0*%
%ADD32R,2.700000X1.000000*%
%ADD33RoundRect,0.237500X0.250000X0.237500X-0.250000X0.237500X-0.250000X-0.237500X0.250000X-0.237500X0*%
%ADD34RoundRect,0.237500X0.300000X0.237500X-0.300000X0.237500X-0.300000X-0.237500X0.300000X-0.237500X0*%
%ADD35RoundRect,0.237500X0.237500X-0.300000X0.237500X0.300000X-0.237500X0.300000X-0.237500X-0.300000X0*%
%ADD36Outline5P,-0.500000X2.300000X0.000000X2.800000X0.500000X2.300000X0.500000X-2.800000X-0.500000X-2.800000X90.000000*%
%ADD37R,4.900000X1.600000*%
%ADD38R,1.500000X0.400000*%
%ADD39O,1.500000X4.150000*%
%ADD40O,3.650000X1.500000*%
G04 APERTURE END LIST*
D10*
X116881428Y-99977142D02*
X116881428Y-100310476D01*
X116357619Y-100453333D02*
X116357619Y-99977142D01*
X117357619Y-99977142D01*
X117357619Y-100453333D01*
X116357619Y-100786666D02*
X117024285Y-101310476D01*
X117024285Y-100786666D02*
X116357619Y-101310476D01*
X117024285Y-101548571D02*
X117024285Y-101929523D01*
X117357619Y-101691428D02*
X116500476Y-101691428D01*
X116405238Y-101739047D01*
X116357619Y-101834285D01*
X116357619Y-101929523D01*
X116452857Y-102262857D02*
X116405238Y-102310476D01*
X116357619Y-102262857D01*
X116405238Y-102215238D01*
X116452857Y-102262857D01*
X116357619Y-102262857D01*
X133850000Y-104525000D02*
X136150000Y-104525000D01*
X136150000Y-104525000D02*
X136150000Y-112525000D01*
X136150000Y-112525000D02*
X133850000Y-112525000D01*
X133850000Y-112525000D02*
X133850000Y-104525000D01*
X142181428Y-98377142D02*
X142181428Y-98710476D01*
X141657619Y-98853333D02*
X141657619Y-98377142D01*
X142657619Y-98377142D01*
X142657619Y-98853333D01*
X141657619Y-99186666D02*
X142324285Y-99710476D01*
X142324285Y-99186666D02*
X141657619Y-99710476D01*
X142324285Y-99948571D02*
X142324285Y-100329523D01*
X142657619Y-100091428D02*
X141800476Y-100091428D01*
X141705238Y-100139047D01*
X141657619Y-100234285D01*
X141657619Y-100329523D01*
X141752857Y-100662857D02*
X141705238Y-100710476D01*
X141657619Y-100662857D01*
X141705238Y-100615238D01*
X141752857Y-100662857D01*
X141657619Y-100662857D01*
%TO.C,D1*%
X97271904Y-111572380D02*
X97271904Y-110572380D01*
X97510000Y-110572380D01*
X97652857Y-110620000D01*
X97748095Y-110715238D01*
X97795714Y-110810476D01*
X97843333Y-111000952D01*
X97843333Y-111143809D01*
X97795714Y-111334285D01*
X97748095Y-111429523D01*
X97652857Y-111524761D01*
X97510000Y-111572380D01*
X97271904Y-111572380D01*
X98795714Y-111572380D02*
X98224285Y-111572380D01*
X98510000Y-111572380D02*
X98510000Y-110572380D01*
X98414761Y-110715238D01*
X98319523Y-110810476D01*
X98224285Y-110858095D01*
%TO.C,U5*%
X106857619Y-110958095D02*
X106048095Y-110958095D01*
X105952857Y-111005714D01*
X105905238Y-111053333D01*
X105857619Y-111148571D01*
X105857619Y-111339047D01*
X105905238Y-111434285D01*
X105952857Y-111481904D01*
X106048095Y-111529523D01*
X106857619Y-111529523D01*
X106857619Y-112481904D02*
X106857619Y-112005714D01*
X106381428Y-111958095D01*
X106429047Y-112005714D01*
X106476666Y-112100952D01*
X106476666Y-112339047D01*
X106429047Y-112434285D01*
X106381428Y-112481904D01*
X106286190Y-112529523D01*
X106048095Y-112529523D01*
X105952857Y-112481904D01*
X105905238Y-112434285D01*
X105857619Y-112339047D01*
X105857619Y-112100952D01*
X105905238Y-112005714D01*
X105952857Y-111958095D01*
%TO.C,Q1*%
X102362380Y-102824761D02*
X102410000Y-102729523D01*
X102505238Y-102634285D01*
X102648095Y-102491428D01*
X102695714Y-102396190D01*
X102695714Y-102300952D01*
X102457619Y-102348571D02*
X102505238Y-102253333D01*
X102600476Y-102158095D01*
X102790952Y-102110476D01*
X103124285Y-102110476D01*
X103314761Y-102158095D01*
X103410000Y-102253333D01*
X103457619Y-102348571D01*
X103457619Y-102539047D01*
X103410000Y-102634285D01*
X103314761Y-102729523D01*
X103124285Y-102777142D01*
X102790952Y-102777142D01*
X102600476Y-102729523D01*
X102505238Y-102634285D01*
X102457619Y-102539047D01*
X102457619Y-102348571D01*
X102457619Y-103729523D02*
X102457619Y-103158095D01*
X102457619Y-103443809D02*
X103457619Y-103443809D01*
X103314761Y-103348571D01*
X103219523Y-103253333D01*
X103171904Y-103158095D01*
%TO.C,FB4*%
X116081428Y-97286666D02*
X116081428Y-96953333D01*
X115557619Y-96953333D02*
X116557619Y-96953333D01*
X116557619Y-97429523D01*
X116081428Y-98143809D02*
X116033809Y-98286666D01*
X115986190Y-98334285D01*
X115890952Y-98381904D01*
X115748095Y-98381904D01*
X115652857Y-98334285D01*
X115605238Y-98286666D01*
X115557619Y-98191428D01*
X115557619Y-97810476D01*
X116557619Y-97810476D01*
X116557619Y-98143809D01*
X116510000Y-98239047D01*
X116462380Y-98286666D01*
X116367142Y-98334285D01*
X116271904Y-98334285D01*
X116176666Y-98286666D01*
X116129047Y-98239047D01*
X116081428Y-98143809D01*
X116081428Y-97810476D01*
X116224285Y-99239047D02*
X115557619Y-99239047D01*
X116605238Y-99000952D02*
X115890952Y-98762857D01*
X115890952Y-99381904D01*
%TO.C,FB3*%
X113581428Y-108686666D02*
X113581428Y-108353333D01*
X113057619Y-108353333D02*
X114057619Y-108353333D01*
X114057619Y-108829523D01*
X113581428Y-109543809D02*
X113533809Y-109686666D01*
X113486190Y-109734285D01*
X113390952Y-109781904D01*
X113248095Y-109781904D01*
X113152857Y-109734285D01*
X113105238Y-109686666D01*
X113057619Y-109591428D01*
X113057619Y-109210476D01*
X114057619Y-109210476D01*
X114057619Y-109543809D01*
X114010000Y-109639047D01*
X113962380Y-109686666D01*
X113867142Y-109734285D01*
X113771904Y-109734285D01*
X113676666Y-109686666D01*
X113629047Y-109639047D01*
X113581428Y-109543809D01*
X113581428Y-109210476D01*
X114057619Y-110115238D02*
X114057619Y-110734285D01*
X113676666Y-110400952D01*
X113676666Y-110543809D01*
X113629047Y-110639047D01*
X113581428Y-110686666D01*
X113486190Y-110734285D01*
X113248095Y-110734285D01*
X113152857Y-110686666D01*
X113105238Y-110639047D01*
X113057619Y-110543809D01*
X113057619Y-110258095D01*
X113105238Y-110162857D01*
X113152857Y-110115238D01*
%TO.C,FB2*%
X120681428Y-103286666D02*
X120681428Y-102953333D01*
X120157619Y-102953333D02*
X121157619Y-102953333D01*
X121157619Y-103429523D01*
X120681428Y-104143809D02*
X120633809Y-104286666D01*
X120586190Y-104334285D01*
X120490952Y-104381904D01*
X120348095Y-104381904D01*
X120252857Y-104334285D01*
X120205238Y-104286666D01*
X120157619Y-104191428D01*
X120157619Y-103810476D01*
X121157619Y-103810476D01*
X121157619Y-104143809D01*
X121110000Y-104239047D01*
X121062380Y-104286666D01*
X120967142Y-104334285D01*
X120871904Y-104334285D01*
X120776666Y-104286666D01*
X120729047Y-104239047D01*
X120681428Y-104143809D01*
X120681428Y-103810476D01*
X121062380Y-104762857D02*
X121110000Y-104810476D01*
X121157619Y-104905714D01*
X121157619Y-105143809D01*
X121110000Y-105239047D01*
X121062380Y-105286666D01*
X120967142Y-105334285D01*
X120871904Y-105334285D01*
X120729047Y-105286666D01*
X120157619Y-104715238D01*
X120157619Y-105334285D01*
%TO.C,FB1*%
X115381428Y-106761666D02*
X115381428Y-106428333D01*
X114857619Y-106428333D02*
X115857619Y-106428333D01*
X115857619Y-106904523D01*
X115381428Y-107618809D02*
X115333809Y-107761666D01*
X115286190Y-107809285D01*
X115190952Y-107856904D01*
X115048095Y-107856904D01*
X114952857Y-107809285D01*
X114905238Y-107761666D01*
X114857619Y-107666428D01*
X114857619Y-107285476D01*
X115857619Y-107285476D01*
X115857619Y-107618809D01*
X115810000Y-107714047D01*
X115762380Y-107761666D01*
X115667142Y-107809285D01*
X115571904Y-107809285D01*
X115476666Y-107761666D01*
X115429047Y-107714047D01*
X115381428Y-107618809D01*
X115381428Y-107285476D01*
X114857619Y-108809285D02*
X114857619Y-108237857D01*
X114857619Y-108523571D02*
X115857619Y-108523571D01*
X115714761Y-108428333D01*
X115619523Y-108333095D01*
X115571904Y-108237857D01*
%TO.C,C12*%
X110615357Y-111577142D02*
X110567738Y-111529523D01*
X110520119Y-111386666D01*
X110520119Y-111291428D01*
X110567738Y-111148571D01*
X110662976Y-111053333D01*
X110758214Y-111005714D01*
X110948690Y-110958095D01*
X111091547Y-110958095D01*
X111282023Y-111005714D01*
X111377261Y-111053333D01*
X111472500Y-111148571D01*
X111520119Y-111291428D01*
X111520119Y-111386666D01*
X111472500Y-111529523D01*
X111424880Y-111577142D01*
X110520119Y-112529523D02*
X110520119Y-111958095D01*
X110520119Y-112243809D02*
X111520119Y-112243809D01*
X111377261Y-112148571D01*
X111282023Y-112053333D01*
X111234404Y-111958095D01*
X111424880Y-112910476D02*
X111472500Y-112958095D01*
X111520119Y-113053333D01*
X111520119Y-113291428D01*
X111472500Y-113386666D01*
X111424880Y-113434285D01*
X111329642Y-113481904D01*
X111234404Y-113481904D01*
X111091547Y-113434285D01*
X110520119Y-112862857D01*
X110520119Y-113481904D01*
%TO.C,C11*%
X113252857Y-101477142D02*
X113205238Y-101429523D01*
X113157619Y-101286666D01*
X113157619Y-101191428D01*
X113205238Y-101048571D01*
X113300476Y-100953333D01*
X113395714Y-100905714D01*
X113586190Y-100858095D01*
X113729047Y-100858095D01*
X113919523Y-100905714D01*
X114014761Y-100953333D01*
X114110000Y-101048571D01*
X114157619Y-101191428D01*
X114157619Y-101286666D01*
X114110000Y-101429523D01*
X114062380Y-101477142D01*
X113157619Y-102429523D02*
X113157619Y-101858095D01*
X113157619Y-102143809D02*
X114157619Y-102143809D01*
X114014761Y-102048571D01*
X113919523Y-101953333D01*
X113871904Y-101858095D01*
X113157619Y-103381904D02*
X113157619Y-102810476D01*
X113157619Y-103096190D02*
X114157619Y-103096190D01*
X114014761Y-103000952D01*
X113919523Y-102905714D01*
X113871904Y-102810476D01*
%TO.C,C10*%
X109752857Y-101477142D02*
X109705238Y-101429523D01*
X109657619Y-101286666D01*
X109657619Y-101191428D01*
X109705238Y-101048571D01*
X109800476Y-100953333D01*
X109895714Y-100905714D01*
X110086190Y-100858095D01*
X110229047Y-100858095D01*
X110419523Y-100905714D01*
X110514761Y-100953333D01*
X110610000Y-101048571D01*
X110657619Y-101191428D01*
X110657619Y-101286666D01*
X110610000Y-101429523D01*
X110562380Y-101477142D01*
X109657619Y-102429523D02*
X109657619Y-101858095D01*
X109657619Y-102143809D02*
X110657619Y-102143809D01*
X110514761Y-102048571D01*
X110419523Y-101953333D01*
X110371904Y-101858095D01*
X110657619Y-103048571D02*
X110657619Y-103143809D01*
X110610000Y-103239047D01*
X110562380Y-103286666D01*
X110467142Y-103334285D01*
X110276666Y-103381904D01*
X110038571Y-103381904D01*
X109848095Y-103334285D01*
X109752857Y-103286666D01*
X109705238Y-103239047D01*
X109657619Y-103143809D01*
X109657619Y-103048571D01*
X109705238Y-102953333D01*
X109752857Y-102905714D01*
X109848095Y-102858095D01*
X110038571Y-102810476D01*
X110276666Y-102810476D01*
X110467142Y-102858095D01*
X110562380Y-102905714D01*
X110610000Y-102953333D01*
X110657619Y-103048571D01*
%TO.C,R10*%
X132047619Y-96057142D02*
X132523809Y-95723809D01*
X132047619Y-95485714D02*
X133047619Y-95485714D01*
X133047619Y-95866666D01*
X133000000Y-95961904D01*
X132952380Y-96009523D01*
X132857142Y-96057142D01*
X132714285Y-96057142D01*
X132619047Y-96009523D01*
X132571428Y-95961904D01*
X132523809Y-95866666D01*
X132523809Y-95485714D01*
X132047619Y-97009523D02*
X132047619Y-96438095D01*
X132047619Y-96723809D02*
X133047619Y-96723809D01*
X132904761Y-96628571D01*
X132809523Y-96533333D01*
X132761904Y-96438095D01*
X133047619Y-97628571D02*
X133047619Y-97723809D01*
X133000000Y-97819047D01*
X132952380Y-97866666D01*
X132857142Y-97914285D01*
X132666666Y-97961904D01*
X132428571Y-97961904D01*
X132238095Y-97914285D01*
X132142857Y-97866666D01*
X132095238Y-97819047D01*
X132047619Y-97723809D01*
X132047619Y-97628571D01*
X132095238Y-97533333D01*
X132142857Y-97485714D01*
X132238095Y-97438095D01*
X132428571Y-97390476D01*
X132666666Y-97390476D01*
X132857142Y-97438095D01*
X132952380Y-97485714D01*
X133000000Y-97533333D01*
X133047619Y-97628571D01*
%TO.C,D2*%
X127297619Y-97786904D02*
X128297619Y-97786904D01*
X128297619Y-98025000D01*
X128250000Y-98167857D01*
X128154761Y-98263095D01*
X128059523Y-98310714D01*
X127869047Y-98358333D01*
X127726190Y-98358333D01*
X127535714Y-98310714D01*
X127440476Y-98263095D01*
X127345238Y-98167857D01*
X127297619Y-98025000D01*
X127297619Y-97786904D01*
X128202380Y-98739285D02*
X128250000Y-98786904D01*
X128297619Y-98882142D01*
X128297619Y-99120238D01*
X128250000Y-99215476D01*
X128202380Y-99263095D01*
X128107142Y-99310714D01*
X128011904Y-99310714D01*
X127869047Y-99263095D01*
X127297619Y-98691666D01*
X127297619Y-99310714D01*
%TO.C,R1*%
X134783333Y-105877380D02*
X134450000Y-105401190D01*
X134211904Y-105877380D02*
X134211904Y-104877380D01*
X134592857Y-104877380D01*
X134688095Y-104925000D01*
X134735714Y-104972619D01*
X134783333Y-105067857D01*
X134783333Y-105210714D01*
X134735714Y-105305952D01*
X134688095Y-105353571D01*
X134592857Y-105401190D01*
X134211904Y-105401190D01*
X135735714Y-105877380D02*
X135164285Y-105877380D01*
X135450000Y-105877380D02*
X135450000Y-104877380D01*
X135354761Y-105020238D01*
X135259523Y-105115476D01*
X135164285Y-105163095D01*
%TO.C,R6*%
X134783333Y-112177380D02*
X134450000Y-111701190D01*
X134211904Y-112177380D02*
X134211904Y-111177380D01*
X134592857Y-111177380D01*
X134688095Y-111225000D01*
X134735714Y-111272619D01*
X134783333Y-111367857D01*
X134783333Y-111510714D01*
X134735714Y-111605952D01*
X134688095Y-111653571D01*
X134592857Y-111701190D01*
X134211904Y-111701190D01*
X135640476Y-111177380D02*
X135450000Y-111177380D01*
X135354761Y-111225000D01*
X135307142Y-111272619D01*
X135211904Y-111415476D01*
X135164285Y-111605952D01*
X135164285Y-111986904D01*
X135211904Y-112082142D01*
X135259523Y-112129761D01*
X135354761Y-112177380D01*
X135545238Y-112177380D01*
X135640476Y-112129761D01*
X135688095Y-112082142D01*
X135735714Y-111986904D01*
X135735714Y-111748809D01*
X135688095Y-111653571D01*
X135640476Y-111605952D01*
X135545238Y-111558333D01*
X135354761Y-111558333D01*
X135259523Y-111605952D01*
X135211904Y-111653571D01*
X135164285Y-111748809D01*
%TO.C,U4*%
X145527619Y-101058095D02*
X144718095Y-101058095D01*
X144622857Y-101105714D01*
X144575238Y-101153333D01*
X144527619Y-101248571D01*
X144527619Y-101439047D01*
X144575238Y-101534285D01*
X144622857Y-101581904D01*
X144718095Y-101629523D01*
X145527619Y-101629523D01*
X145194285Y-102534285D02*
X144527619Y-102534285D01*
X145575238Y-102296190D02*
X144860952Y-102058095D01*
X144860952Y-102677142D01*
%TO.C,U6*%
X108057619Y-94749520D02*
X107248095Y-94749520D01*
X107152857Y-94797139D01*
X107105238Y-94844758D01*
X107057619Y-94939996D01*
X107057619Y-95130472D01*
X107105238Y-95225710D01*
X107152857Y-95273329D01*
X107248095Y-95320948D01*
X108057619Y-95320948D01*
X108057619Y-96225710D02*
X108057619Y-96035234D01*
X108010000Y-95939996D01*
X107962380Y-95892377D01*
X107819523Y-95797139D01*
X107629047Y-95749520D01*
X107248095Y-95749520D01*
X107152857Y-95797139D01*
X107105238Y-95844758D01*
X107057619Y-95939996D01*
X107057619Y-96130472D01*
X107105238Y-96225710D01*
X107152857Y-96273329D01*
X107248095Y-96320948D01*
X107486190Y-96320948D01*
X107581428Y-96273329D01*
X107629047Y-96225710D01*
X107676666Y-96130472D01*
X107676666Y-95939996D01*
X107629047Y-95844758D01*
X107581428Y-95797139D01*
X107486190Y-95749520D01*
%TO.C,R9*%
X147997619Y-99583333D02*
X148473809Y-99250000D01*
X147997619Y-99011904D02*
X148997619Y-99011904D01*
X148997619Y-99392857D01*
X148950000Y-99488095D01*
X148902380Y-99535714D01*
X148807142Y-99583333D01*
X148664285Y-99583333D01*
X148569047Y-99535714D01*
X148521428Y-99488095D01*
X148473809Y-99392857D01*
X148473809Y-99011904D01*
X147997619Y-100059523D02*
X147997619Y-100250000D01*
X148045238Y-100345238D01*
X148092857Y-100392857D01*
X148235714Y-100488095D01*
X148426190Y-100535714D01*
X148807142Y-100535714D01*
X148902380Y-100488095D01*
X148950000Y-100440476D01*
X148997619Y-100345238D01*
X148997619Y-100154761D01*
X148950000Y-100059523D01*
X148902380Y-100011904D01*
X148807142Y-99964285D01*
X148569047Y-99964285D01*
X148473809Y-100011904D01*
X148426190Y-100059523D01*
X148378571Y-100154761D01*
X148378571Y-100345238D01*
X148426190Y-100440476D01*
X148473809Y-100488095D01*
X148569047Y-100535714D01*
%TO.C,C5*%
X140572857Y-109539758D02*
X140525238Y-109492139D01*
X140477619Y-109349282D01*
X140477619Y-109254044D01*
X140525238Y-109111186D01*
X140620476Y-109015948D01*
X140715714Y-108968329D01*
X140906190Y-108920710D01*
X141049047Y-108920710D01*
X141239523Y-108968329D01*
X141334761Y-109015948D01*
X141430000Y-109111186D01*
X141477619Y-109254044D01*
X141477619Y-109349282D01*
X141430000Y-109492139D01*
X141382380Y-109539758D01*
X141477619Y-110444520D02*
X141477619Y-109968329D01*
X141001428Y-109920710D01*
X141049047Y-109968329D01*
X141096666Y-110063567D01*
X141096666Y-110301663D01*
X141049047Y-110396901D01*
X141001428Y-110444520D01*
X140906190Y-110492139D01*
X140668095Y-110492139D01*
X140572857Y-110444520D01*
X140525238Y-110396901D01*
X140477619Y-110301663D01*
X140477619Y-110063567D01*
X140525238Y-109968329D01*
X140572857Y-109920710D01*
%TO.C,X1*%
X121957619Y-108750476D02*
X120957619Y-109417142D01*
X121957619Y-109417142D02*
X120957619Y-108750476D01*
X120957619Y-110321904D02*
X120957619Y-109750476D01*
X120957619Y-110036190D02*
X121957619Y-110036190D01*
X121814761Y-109940952D01*
X121719523Y-109845714D01*
X121671904Y-109750476D01*
%TO.C,C16*%
X113267142Y-95977142D02*
X113219523Y-96024761D01*
X113076666Y-96072380D01*
X112981428Y-96072380D01*
X112838571Y-96024761D01*
X112743333Y-95929523D01*
X112695714Y-95834285D01*
X112648095Y-95643809D01*
X112648095Y-95500952D01*
X112695714Y-95310476D01*
X112743333Y-95215238D01*
X112838571Y-95120000D01*
X112981428Y-95072380D01*
X113076666Y-95072380D01*
X113219523Y-95120000D01*
X113267142Y-95167619D01*
X114219523Y-96072380D02*
X113648095Y-96072380D01*
X113933809Y-96072380D02*
X113933809Y-95072380D01*
X113838571Y-95215238D01*
X113743333Y-95310476D01*
X113648095Y-95358095D01*
X115076666Y-95072380D02*
X114886190Y-95072380D01*
X114790952Y-95120000D01*
X114743333Y-95167619D01*
X114648095Y-95310476D01*
X114600476Y-95500952D01*
X114600476Y-95881904D01*
X114648095Y-95977142D01*
X114695714Y-96024761D01*
X114790952Y-96072380D01*
X114981428Y-96072380D01*
X115076666Y-96024761D01*
X115124285Y-95977142D01*
X115171904Y-95881904D01*
X115171904Y-95643809D01*
X115124285Y-95548571D01*
X115076666Y-95500952D01*
X114981428Y-95453333D01*
X114790952Y-95453333D01*
X114695714Y-95500952D01*
X114648095Y-95548571D01*
X114600476Y-95643809D01*
%TO.C,U1*%
X127257619Y-107600157D02*
X126448095Y-107600157D01*
X126352857Y-107647776D01*
X126305238Y-107695395D01*
X126257619Y-107790633D01*
X126257619Y-107981109D01*
X126305238Y-108076347D01*
X126352857Y-108123966D01*
X126448095Y-108171585D01*
X127257619Y-108171585D01*
X126257619Y-109171585D02*
X126257619Y-108600157D01*
X126257619Y-108885871D02*
X127257619Y-108885871D01*
X127114761Y-108790633D01*
X127019523Y-108695395D01*
X126971904Y-108600157D01*
%TO.C,SW1*%
X137445238Y-98191666D02*
X137397619Y-98334523D01*
X137397619Y-98572619D01*
X137445238Y-98667857D01*
X137492857Y-98715476D01*
X137588095Y-98763095D01*
X137683333Y-98763095D01*
X137778571Y-98715476D01*
X137826190Y-98667857D01*
X137873809Y-98572619D01*
X137921428Y-98382142D01*
X137969047Y-98286904D01*
X138016666Y-98239285D01*
X138111904Y-98191666D01*
X138207142Y-98191666D01*
X138302380Y-98239285D01*
X138350000Y-98286904D01*
X138397619Y-98382142D01*
X138397619Y-98620238D01*
X138350000Y-98763095D01*
X138397619Y-99096428D02*
X137397619Y-99334523D01*
X138111904Y-99525000D01*
X137397619Y-99715476D01*
X138397619Y-99953571D01*
X137397619Y-100858333D02*
X137397619Y-100286904D01*
X137397619Y-100572619D02*
X138397619Y-100572619D01*
X138254761Y-100477380D01*
X138159523Y-100382142D01*
X138111904Y-100286904D01*
%TO.C,R7*%
X177757619Y-100953333D02*
X178233809Y-100620000D01*
X177757619Y-100381904D02*
X178757619Y-100381904D01*
X178757619Y-100762857D01*
X178710000Y-100858095D01*
X178662380Y-100905714D01*
X178567142Y-100953333D01*
X178424285Y-100953333D01*
X178329047Y-100905714D01*
X178281428Y-100858095D01*
X178233809Y-100762857D01*
X178233809Y-100381904D01*
X178757619Y-101286666D02*
X178757619Y-101953333D01*
X177757619Y-101524761D01*
%TO.C,R2*%
X134768384Y-107177380D02*
X134435051Y-106701190D01*
X134196955Y-107177380D02*
X134196955Y-106177380D01*
X134577908Y-106177380D01*
X134673146Y-106225000D01*
X134720765Y-106272619D01*
X134768384Y-106367857D01*
X134768384Y-106510714D01*
X134720765Y-106605952D01*
X134673146Y-106653571D01*
X134577908Y-106701190D01*
X134196955Y-106701190D01*
X135149336Y-106272619D02*
X135196955Y-106225000D01*
X135292193Y-106177380D01*
X135530289Y-106177380D01*
X135625527Y-106225000D01*
X135673146Y-106272619D01*
X135720765Y-106367857D01*
X135720765Y-106463095D01*
X135673146Y-106605952D01*
X135101717Y-107177380D01*
X135720765Y-107177380D01*
%TO.C,C13*%
X113252857Y-105577142D02*
X113205238Y-105529523D01*
X113157619Y-105386666D01*
X113157619Y-105291428D01*
X113205238Y-105148571D01*
X113300476Y-105053333D01*
X113395714Y-105005714D01*
X113586190Y-104958095D01*
X113729047Y-104958095D01*
X113919523Y-105005714D01*
X114014761Y-105053333D01*
X114110000Y-105148571D01*
X114157619Y-105291428D01*
X114157619Y-105386666D01*
X114110000Y-105529523D01*
X114062380Y-105577142D01*
X113157619Y-106529523D02*
X113157619Y-105958095D01*
X113157619Y-106243809D02*
X114157619Y-106243809D01*
X114014761Y-106148571D01*
X113919523Y-106053333D01*
X113871904Y-105958095D01*
X114157619Y-106862857D02*
X114157619Y-107481904D01*
X113776666Y-107148571D01*
X113776666Y-107291428D01*
X113729047Y-107386666D01*
X113681428Y-107434285D01*
X113586190Y-107481904D01*
X113348095Y-107481904D01*
X113252857Y-107434285D01*
X113205238Y-107386666D01*
X113157619Y-107291428D01*
X113157619Y-107005714D01*
X113205238Y-106910476D01*
X113252857Y-106862857D01*
%TO.C,C15*%
X109967142Y-95977142D02*
X109919523Y-96024761D01*
X109776666Y-96072380D01*
X109681428Y-96072380D01*
X109538571Y-96024761D01*
X109443333Y-95929523D01*
X109395714Y-95834285D01*
X109348095Y-95643809D01*
X109348095Y-95500952D01*
X109395714Y-95310476D01*
X109443333Y-95215238D01*
X109538571Y-95120000D01*
X109681428Y-95072380D01*
X109776666Y-95072380D01*
X109919523Y-95120000D01*
X109967142Y-95167619D01*
X110919523Y-96072380D02*
X110348095Y-96072380D01*
X110633809Y-96072380D02*
X110633809Y-95072380D01*
X110538571Y-95215238D01*
X110443333Y-95310476D01*
X110348095Y-95358095D01*
X111824285Y-95072380D02*
X111348095Y-95072380D01*
X111300476Y-95548571D01*
X111348095Y-95500952D01*
X111443333Y-95453333D01*
X111681428Y-95453333D01*
X111776666Y-95500952D01*
X111824285Y-95548571D01*
X111871904Y-95643809D01*
X111871904Y-95881904D01*
X111824285Y-95977142D01*
X111776666Y-96024761D01*
X111681428Y-96072380D01*
X111443333Y-96072380D01*
X111348095Y-96024761D01*
X111300476Y-95977142D01*
%TO.C,C1*%
X114952857Y-110953333D02*
X114905238Y-110905714D01*
X114857619Y-110762857D01*
X114857619Y-110667619D01*
X114905238Y-110524761D01*
X115000476Y-110429523D01*
X115095714Y-110381904D01*
X115286190Y-110334285D01*
X115429047Y-110334285D01*
X115619523Y-110381904D01*
X115714761Y-110429523D01*
X115810000Y-110524761D01*
X115857619Y-110667619D01*
X115857619Y-110762857D01*
X115810000Y-110905714D01*
X115762380Y-110953333D01*
X114857619Y-111905714D02*
X114857619Y-111334285D01*
X114857619Y-111620000D02*
X115857619Y-111620000D01*
X115714761Y-111524761D01*
X115619523Y-111429523D01*
X115571904Y-111334285D01*
%TO.C,C8*%
X123852857Y-99983281D02*
X123805238Y-99935662D01*
X123757619Y-99792805D01*
X123757619Y-99697567D01*
X123805238Y-99554709D01*
X123900476Y-99459471D01*
X123995714Y-99411852D01*
X124186190Y-99364233D01*
X124329047Y-99364233D01*
X124519523Y-99411852D01*
X124614761Y-99459471D01*
X124710000Y-99554709D01*
X124757619Y-99697567D01*
X124757619Y-99792805D01*
X124710000Y-99935662D01*
X124662380Y-99983281D01*
X124329047Y-100554709D02*
X124376666Y-100459471D01*
X124424285Y-100411852D01*
X124519523Y-100364233D01*
X124567142Y-100364233D01*
X124662380Y-100411852D01*
X124710000Y-100459471D01*
X124757619Y-100554709D01*
X124757619Y-100745186D01*
X124710000Y-100840424D01*
X124662380Y-100888043D01*
X124567142Y-100935662D01*
X124519523Y-100935662D01*
X124424285Y-100888043D01*
X124376666Y-100840424D01*
X124329047Y-100745186D01*
X124329047Y-100554709D01*
X124281428Y-100459471D01*
X124233809Y-100411852D01*
X124138571Y-100364233D01*
X123948095Y-100364233D01*
X123852857Y-100411852D01*
X123805238Y-100459471D01*
X123757619Y-100554709D01*
X123757619Y-100745186D01*
X123805238Y-100840424D01*
X123852857Y-100888043D01*
X123948095Y-100935662D01*
X124138571Y-100935662D01*
X124233809Y-100888043D01*
X124281428Y-100840424D01*
X124329047Y-100745186D01*
%TO.C,J3*%
X180547619Y-107440476D02*
X180547619Y-106964285D01*
X180071428Y-106916666D01*
X180119047Y-106964285D01*
X180166666Y-107059523D01*
X180166666Y-107297619D01*
X180119047Y-107392857D01*
X180071428Y-107440476D01*
X179976190Y-107488095D01*
X179738095Y-107488095D01*
X179642857Y-107440476D01*
X179595238Y-107392857D01*
X179547619Y-107297619D01*
X179547619Y-107059523D01*
X179595238Y-106964285D01*
X179642857Y-106916666D01*
X180547619Y-108107142D02*
X180547619Y-108202380D01*
X180500000Y-108297619D01*
X180452380Y-108345238D01*
X180357142Y-108392857D01*
X180166666Y-108440476D01*
X179928571Y-108440476D01*
X179738095Y-108392857D01*
X179642857Y-108345238D01*
X179595238Y-108297619D01*
X179547619Y-108202380D01*
X179547619Y-108107142D01*
X179595238Y-108011904D01*
X179642857Y-107964285D01*
X179738095Y-107916666D01*
X179928571Y-107869047D01*
X180166666Y-107869047D01*
X180357142Y-107916666D01*
X180452380Y-107964285D01*
X180500000Y-108011904D01*
X180547619Y-108107142D01*
X179547619Y-108821428D02*
X179547619Y-109059523D01*
X179738095Y-109059523D01*
X179785714Y-108964285D01*
X179880952Y-108869047D01*
X180023809Y-108821428D01*
X180261904Y-108821428D01*
X180404761Y-108869047D01*
X180500000Y-108964285D01*
X180547619Y-109107142D01*
X180547619Y-109297619D01*
X180500000Y-109440476D01*
X180404761Y-109535714D01*
X180261904Y-109583333D01*
X180023809Y-109583333D01*
X179880952Y-109535714D01*
X179785714Y-109440476D01*
X179738095Y-109345238D01*
X179547619Y-109345238D01*
X179547619Y-109583333D01*
%TO.C,C3*%
X125380408Y-99883333D02*
X125332789Y-99835714D01*
X125285170Y-99692857D01*
X125285170Y-99597619D01*
X125332789Y-99454761D01*
X125428027Y-99359523D01*
X125523265Y-99311904D01*
X125713741Y-99264285D01*
X125856598Y-99264285D01*
X126047074Y-99311904D01*
X126142312Y-99359523D01*
X126237551Y-99454761D01*
X126285170Y-99597619D01*
X126285170Y-99692857D01*
X126237551Y-99835714D01*
X126189931Y-99883333D01*
X126285170Y-100216666D02*
X126285170Y-100835714D01*
X125904217Y-100502380D01*
X125904217Y-100645238D01*
X125856598Y-100740476D01*
X125808979Y-100788095D01*
X125713741Y-100835714D01*
X125475646Y-100835714D01*
X125380408Y-100788095D01*
X125332789Y-100740476D01*
X125285170Y-100645238D01*
X125285170Y-100359523D01*
X125332789Y-100264285D01*
X125380408Y-100216666D01*
%TO.C,C14*%
X102552857Y-97477142D02*
X102505238Y-97429523D01*
X102457619Y-97286666D01*
X102457619Y-97191428D01*
X102505238Y-97048571D01*
X102600476Y-96953333D01*
X102695714Y-96905714D01*
X102886190Y-96858095D01*
X103029047Y-96858095D01*
X103219523Y-96905714D01*
X103314761Y-96953333D01*
X103410000Y-97048571D01*
X103457619Y-97191428D01*
X103457619Y-97286666D01*
X103410000Y-97429523D01*
X103362380Y-97477142D01*
X102457619Y-98429523D02*
X102457619Y-97858095D01*
X102457619Y-98143809D02*
X103457619Y-98143809D01*
X103314761Y-98048571D01*
X103219523Y-97953333D01*
X103171904Y-97858095D01*
X103124285Y-99286666D02*
X102457619Y-99286666D01*
X103505238Y-99048571D02*
X102790952Y-98810476D01*
X102790952Y-99429523D01*
%TO.C,R8*%
X181335119Y-100953333D02*
X181811309Y-100620000D01*
X181335119Y-100381904D02*
X182335119Y-100381904D01*
X182335119Y-100762857D01*
X182287500Y-100858095D01*
X182239880Y-100905714D01*
X182144642Y-100953333D01*
X182001785Y-100953333D01*
X181906547Y-100905714D01*
X181858928Y-100858095D01*
X181811309Y-100762857D01*
X181811309Y-100381904D01*
X181906547Y-101524761D02*
X181954166Y-101429523D01*
X182001785Y-101381904D01*
X182097023Y-101334285D01*
X182144642Y-101334285D01*
X182239880Y-101381904D01*
X182287500Y-101429523D01*
X182335119Y-101524761D01*
X182335119Y-101715238D01*
X182287500Y-101810476D01*
X182239880Y-101858095D01*
X182144642Y-101905714D01*
X182097023Y-101905714D01*
X182001785Y-101858095D01*
X181954166Y-101810476D01*
X181906547Y-101715238D01*
X181906547Y-101524761D01*
X181858928Y-101429523D01*
X181811309Y-101381904D01*
X181716071Y-101334285D01*
X181525595Y-101334285D01*
X181430357Y-101381904D01*
X181382738Y-101429523D01*
X181335119Y-101524761D01*
X181335119Y-101715238D01*
X181382738Y-101810476D01*
X181430357Y-101858095D01*
X181525595Y-101905714D01*
X181716071Y-101905714D01*
X181811309Y-101858095D01*
X181858928Y-101810476D01*
X181906547Y-101715238D01*
%TO.C,C4*%
X138572857Y-109564758D02*
X138525238Y-109517139D01*
X138477619Y-109374282D01*
X138477619Y-109279044D01*
X138525238Y-109136186D01*
X138620476Y-109040948D01*
X138715714Y-108993329D01*
X138906190Y-108945710D01*
X139049047Y-108945710D01*
X139239523Y-108993329D01*
X139334761Y-109040948D01*
X139430000Y-109136186D01*
X139477619Y-109279044D01*
X139477619Y-109374282D01*
X139430000Y-109517139D01*
X139382380Y-109564758D01*
X139144285Y-110421901D02*
X138477619Y-110421901D01*
X139525238Y-110183805D02*
X138810952Y-109945710D01*
X138810952Y-110564758D01*
%TO.C,R4*%
X134773384Y-109777380D02*
X134440051Y-109301190D01*
X134201955Y-109777380D02*
X134201955Y-108777380D01*
X134582908Y-108777380D01*
X134678146Y-108825000D01*
X134725765Y-108872619D01*
X134773384Y-108967857D01*
X134773384Y-109110714D01*
X134725765Y-109205952D01*
X134678146Y-109253571D01*
X134582908Y-109301190D01*
X134201955Y-109301190D01*
X135630527Y-109110714D02*
X135630527Y-109777380D01*
X135392431Y-108729761D02*
X135154336Y-109444047D01*
X135773384Y-109444047D01*
%TO.C,U3*%
X174222619Y-100358095D02*
X173413095Y-100358095D01*
X173317857Y-100405714D01*
X173270238Y-100453333D01*
X173222619Y-100548571D01*
X173222619Y-100739047D01*
X173270238Y-100834285D01*
X173317857Y-100881904D01*
X173413095Y-100929523D01*
X174222619Y-100929523D01*
X174222619Y-101310476D02*
X174222619Y-101929523D01*
X173841666Y-101596190D01*
X173841666Y-101739047D01*
X173794047Y-101834285D01*
X173746428Y-101881904D01*
X173651190Y-101929523D01*
X173413095Y-101929523D01*
X173317857Y-101881904D01*
X173270238Y-101834285D01*
X173222619Y-101739047D01*
X173222619Y-101453333D01*
X173270238Y-101358095D01*
X173317857Y-101310476D01*
%TO.C,C2*%
X133307142Y-102866666D02*
X133354761Y-102914285D01*
X133402380Y-103057142D01*
X133402380Y-103152380D01*
X133354761Y-103295238D01*
X133259523Y-103390476D01*
X133164285Y-103438095D01*
X132973809Y-103485714D01*
X132830952Y-103485714D01*
X132640476Y-103438095D01*
X132545238Y-103390476D01*
X132450000Y-103295238D01*
X132402380Y-103152380D01*
X132402380Y-103057142D01*
X132450000Y-102914285D01*
X132497619Y-102866666D01*
X132497619Y-102485714D02*
X132450000Y-102438095D01*
X132402380Y-102342857D01*
X132402380Y-102104761D01*
X132450000Y-102009523D01*
X132497619Y-101961904D01*
X132592857Y-101914285D01*
X132688095Y-101914285D01*
X132830952Y-101961904D01*
X133402380Y-102533333D01*
X133402380Y-101914285D01*
%TO.C,C6*%
X168097857Y-100220833D02*
X168050238Y-100173214D01*
X168002619Y-100030357D01*
X168002619Y-99935119D01*
X168050238Y-99792261D01*
X168145476Y-99697023D01*
X168240714Y-99649404D01*
X168431190Y-99601785D01*
X168574047Y-99601785D01*
X168764523Y-99649404D01*
X168859761Y-99697023D01*
X168955000Y-99792261D01*
X169002619Y-99935119D01*
X169002619Y-100030357D01*
X168955000Y-100173214D01*
X168907380Y-100220833D01*
X169002619Y-101077976D02*
X169002619Y-100887500D01*
X168955000Y-100792261D01*
X168907380Y-100744642D01*
X168764523Y-100649404D01*
X168574047Y-100601785D01*
X168193095Y-100601785D01*
X168097857Y-100649404D01*
X168050238Y-100697023D01*
X168002619Y-100792261D01*
X168002619Y-100982738D01*
X168050238Y-101077976D01*
X168097857Y-101125595D01*
X168193095Y-101173214D01*
X168431190Y-101173214D01*
X168526428Y-101125595D01*
X168574047Y-101077976D01*
X168621666Y-100982738D01*
X168621666Y-100792261D01*
X168574047Y-100697023D01*
X168526428Y-100649404D01*
X168431190Y-100601785D01*
%TO.C,C7*%
X172552857Y-108653333D02*
X172505238Y-108605714D01*
X172457619Y-108462857D01*
X172457619Y-108367619D01*
X172505238Y-108224761D01*
X172600476Y-108129523D01*
X172695714Y-108081904D01*
X172886190Y-108034285D01*
X173029047Y-108034285D01*
X173219523Y-108081904D01*
X173314761Y-108129523D01*
X173410000Y-108224761D01*
X173457619Y-108367619D01*
X173457619Y-108462857D01*
X173410000Y-108605714D01*
X173362380Y-108653333D01*
X173457619Y-108986666D02*
X173457619Y-109653333D01*
X172457619Y-109224761D01*
%TO.C,U2*%
X166257619Y-108058095D02*
X165448095Y-108058095D01*
X165352857Y-108105714D01*
X165305238Y-108153333D01*
X165257619Y-108248571D01*
X165257619Y-108439047D01*
X165305238Y-108534285D01*
X165352857Y-108581904D01*
X165448095Y-108629523D01*
X166257619Y-108629523D01*
X166162380Y-109058095D02*
X166210000Y-109105714D01*
X166257619Y-109200952D01*
X166257619Y-109439047D01*
X166210000Y-109534285D01*
X166162380Y-109581904D01*
X166067142Y-109629523D01*
X165971904Y-109629523D01*
X165829047Y-109581904D01*
X165257619Y-109010476D01*
X165257619Y-109629523D01*
%TO.C,R3*%
X134770884Y-108477380D02*
X134437551Y-108001190D01*
X134199455Y-108477380D02*
X134199455Y-107477380D01*
X134580408Y-107477380D01*
X134675646Y-107525000D01*
X134723265Y-107572619D01*
X134770884Y-107667857D01*
X134770884Y-107810714D01*
X134723265Y-107905952D01*
X134675646Y-107953571D01*
X134580408Y-108001190D01*
X134199455Y-108001190D01*
X135104217Y-107477380D02*
X135723265Y-107477380D01*
X135389931Y-107858333D01*
X135532789Y-107858333D01*
X135628027Y-107905952D01*
X135675646Y-107953571D01*
X135723265Y-108048809D01*
X135723265Y-108286904D01*
X135675646Y-108382142D01*
X135628027Y-108429761D01*
X135532789Y-108477380D01*
X135247074Y-108477380D01*
X135151836Y-108429761D01*
X135104217Y-108382142D01*
%TO.C,J1*%
X97462380Y-101253333D02*
X98176666Y-101253333D01*
X98319523Y-101300952D01*
X98414761Y-101396190D01*
X98462380Y-101539047D01*
X98462380Y-101634285D01*
X98462380Y-100253333D02*
X98462380Y-100824761D01*
X98462380Y-100539047D02*
X97462380Y-100539047D01*
X97605238Y-100634285D01*
X97700476Y-100729523D01*
X97748095Y-100824761D01*
%TO.C,C9*%
X146302857Y-108227258D02*
X146255238Y-108179639D01*
X146207619Y-108036782D01*
X146207619Y-107941544D01*
X146255238Y-107798686D01*
X146350476Y-107703448D01*
X146445714Y-107655829D01*
X146636190Y-107608210D01*
X146779047Y-107608210D01*
X146969523Y-107655829D01*
X147064761Y-107703448D01*
X147160000Y-107798686D01*
X147207619Y-107941544D01*
X147207619Y-108036782D01*
X147160000Y-108179639D01*
X147112380Y-108227258D01*
X146207619Y-108703448D02*
X146207619Y-108893925D01*
X146255238Y-108989163D01*
X146302857Y-109036782D01*
X146445714Y-109132020D01*
X146636190Y-109179639D01*
X147017142Y-109179639D01*
X147112380Y-109132020D01*
X147160000Y-109084401D01*
X147207619Y-108989163D01*
X147207619Y-108798686D01*
X147160000Y-108703448D01*
X147112380Y-108655829D01*
X147017142Y-108608210D01*
X146779047Y-108608210D01*
X146683809Y-108655829D01*
X146636190Y-108703448D01*
X146588571Y-108798686D01*
X146588571Y-108989163D01*
X146636190Y-109084401D01*
X146683809Y-109132020D01*
X146779047Y-109179639D01*
%TO.C,R5*%
X134783333Y-110977380D02*
X134450000Y-110501190D01*
X134211904Y-110977380D02*
X134211904Y-109977380D01*
X134592857Y-109977380D01*
X134688095Y-110025000D01*
X134735714Y-110072619D01*
X134783333Y-110167857D01*
X134783333Y-110310714D01*
X134735714Y-110405952D01*
X134688095Y-110453571D01*
X134592857Y-110501190D01*
X134211904Y-110501190D01*
X135688095Y-109977380D02*
X135211904Y-109977380D01*
X135164285Y-110453571D01*
X135211904Y-110405952D01*
X135307142Y-110358333D01*
X135545238Y-110358333D01*
X135640476Y-110405952D01*
X135688095Y-110453571D01*
X135735714Y-110548809D01*
X135735714Y-110786904D01*
X135688095Y-110882142D01*
X135640476Y-110929761D01*
X135545238Y-110977380D01*
X135307142Y-110977380D01*
X135211904Y-110929761D01*
X135164285Y-110882142D01*
D11*
%TO.C,D1*%
X94610000Y-107070000D02*
X100010000Y-107070000D01*
X94610000Y-110370000D02*
X100010000Y-110370000D01*
X94610000Y-107070000D02*
X94610000Y-110370000D01*
%TO.C,U5*%
X104587500Y-105860000D02*
X107307500Y-105860000D01*
X107307500Y-105860000D02*
X107307500Y-106090000D01*
X108447500Y-110350000D02*
X107307500Y-110350000D01*
X104587500Y-107170000D02*
X104587500Y-105860000D01*
X107307500Y-110580000D02*
X107307500Y-110350000D01*
X107307500Y-110580000D02*
X104587500Y-110580000D01*
X104587500Y-110580000D02*
X104587500Y-109270000D01*
%TO.C,TP10*%
X94860000Y-110970000D02*
X96760000Y-110970000D01*
X94860000Y-112870000D02*
X94860000Y-110970000D01*
X96760000Y-112870000D02*
X94860000Y-112870000D01*
X96760000Y-110970000D02*
X96760000Y-112870000D01*
%TO.C,TP9*%
X99260000Y-110970000D02*
X101160000Y-110970000D01*
X99260000Y-112870000D02*
X99260000Y-110970000D01*
X101160000Y-112870000D02*
X99260000Y-112870000D01*
X101160000Y-110970000D02*
X101160000Y-112870000D01*
%TO.C,Q1*%
X103850000Y-102220000D02*
X103850000Y-101570000D01*
X106970000Y-102220000D02*
X106970000Y-101570000D01*
X103850000Y-102220000D02*
X103850000Y-103895000D01*
X106970000Y-102220000D02*
X106970000Y-102870000D01*
%TO.C,FB4*%
X115120000Y-97948733D02*
X115120000Y-98291267D01*
X114100000Y-97948733D02*
X114100000Y-98291267D01*
%TO.C,FB3*%
X110938733Y-107310000D02*
X111281267Y-107310000D01*
X110938733Y-108330000D02*
X111281267Y-108330000D01*
%TO.C,FB2*%
X122938733Y-103610000D02*
X123281267Y-103610000D01*
X122938733Y-104630000D02*
X123281267Y-104630000D01*
%TO.C,FB1*%
X116300000Y-107423733D02*
X116300000Y-107766267D01*
X117320000Y-107423733D02*
X117320000Y-107766267D01*
%TO.C,C12*%
X110711248Y-108985000D02*
X111233752Y-108985000D01*
X110711248Y-110455000D02*
X111233752Y-110455000D01*
%TO.C,C11*%
X111175000Y-102381252D02*
X111175000Y-101858748D01*
X112645000Y-102381252D02*
X112645000Y-101858748D01*
%TO.C,C10*%
X107775000Y-102381252D02*
X107775000Y-101858748D01*
X109245000Y-102381252D02*
X109245000Y-101858748D01*
%TO.C,R10*%
X129807776Y-96202500D02*
X130317224Y-96202500D01*
X129807776Y-97247500D02*
X130317224Y-97247500D01*
%TO.C,D2*%
X131735000Y-99260000D02*
X131735000Y-97790000D01*
X129275000Y-99260000D02*
X131735000Y-99260000D01*
X131735000Y-97790000D02*
X129275000Y-97790000D01*
%TO.C,J2*%
X120680000Y-101025000D02*
X120680000Y-102355000D01*
X120680000Y-99755000D02*
X118020000Y-99755000D01*
X120680000Y-102355000D02*
X119350000Y-102355000D01*
X120680000Y-99755000D02*
X120680000Y-97155000D01*
X118020000Y-99755000D02*
X118020000Y-97155000D01*
X120680000Y-97155000D02*
X118020000Y-97155000D01*
%TO.C,R1*%
X132517621Y-105345000D02*
X132182379Y-105345000D01*
X132517621Y-106105000D02*
X132182379Y-106105000D01*
%TO.C,R6*%
X132517621Y-111605000D02*
X132182379Y-111605000D01*
X132517621Y-110845000D02*
X132182379Y-110845000D01*
%TO.C,U4*%
X144080000Y-106341425D02*
X145880000Y-106341425D01*
X145880000Y-103121425D02*
X142930000Y-103121425D01*
%TO.C,U6*%
X106950000Y-99735000D02*
X108750000Y-99735000D01*
X108750000Y-96515000D02*
X106300000Y-96515000D01*
%TO.C,R9*%
X147907500Y-102786149D02*
X147907500Y-102276701D01*
X148952500Y-102786149D02*
X148952500Y-102276701D01*
%TO.C,C5*%
X141440000Y-106422658D02*
X141440000Y-106715192D01*
X140420000Y-106422658D02*
X140420000Y-106715192D01*
%TO.C,G\u002A\u002A\u002A*%
G36*
X160239603Y-108667756D02*
G01*
X160026045Y-108667756D01*
X159922404Y-108611360D01*
X159869257Y-108582774D01*
X159812419Y-108552796D01*
X159753796Y-108522392D01*
X159695295Y-108492526D01*
X159638822Y-108464164D01*
X159586283Y-108438270D01*
X159539584Y-108415810D01*
X159500633Y-108397749D01*
X159498304Y-108396700D01*
X159324559Y-108323667D01*
X159152530Y-108261464D01*
X158981753Y-108209949D01*
X158811767Y-108168975D01*
X158698260Y-108147378D01*
X158670986Y-108142694D01*
X158646794Y-108138447D01*
X158628362Y-108135115D01*
X158618535Y-108133210D01*
X158605947Y-108130450D01*
X158605947Y-107940337D01*
X158606107Y-107884973D01*
X158606577Y-107838476D01*
X158607346Y-107801300D01*
X158608399Y-107773902D01*
X158609723Y-107756738D01*
X158611305Y-107750265D01*
X158611455Y-107750223D01*
X158618598Y-107751270D01*
X158634683Y-107754160D01*
X158657689Y-107758512D01*
X158685591Y-107763947D01*
X158702369Y-107767276D01*
X158872468Y-107806283D01*
X159042173Y-107855354D01*
X159211895Y-107914653D01*
X159382045Y-107984347D01*
X159553033Y-108064599D01*
X159725269Y-108155576D01*
X159857192Y-108231954D01*
X159882824Y-108247221D01*
X159905017Y-108260203D01*
X159922037Y-108269903D01*
X159932149Y-108275326D01*
X159934119Y-108276126D01*
X159934691Y-108270684D01*
X159935232Y-108254967D01*
X159935735Y-108229891D01*
X159936191Y-108196372D01*
X159936591Y-108155322D01*
X159936928Y-108107659D01*
X159937193Y-108054297D01*
X159937379Y-107996152D01*
X159937476Y-107934137D01*
X159937489Y-107901280D01*
X159937489Y-107526434D01*
X160239603Y-107526434D01*
X160239603Y-108667756D01*
G37*
G36*
X157710793Y-110900047D02*
G01*
X157612885Y-110900541D01*
X157634541Y-110911963D01*
X157660742Y-110929889D01*
X157684927Y-110953748D01*
X157704019Y-110980097D01*
X157713412Y-111000217D01*
X157719916Y-111032610D01*
X157720830Y-111071472D01*
X157719185Y-111115443D01*
X157625473Y-111116977D01*
X157594509Y-111117357D01*
X157567859Y-111117442D01*
X157547355Y-111117245D01*
X157534825Y-111116781D01*
X157531762Y-111116262D01*
X157533713Y-111110153D01*
X157538560Y-111097782D01*
X157540154Y-111093927D01*
X157544633Y-111077410D01*
X157547672Y-111055062D01*
X157548546Y-111036266D01*
X157544709Y-110998023D01*
X157532948Y-110967227D01*
X157512891Y-110943067D01*
X157501836Y-110934659D01*
X157489311Y-110926325D01*
X157478371Y-110919589D01*
X157467684Y-110914270D01*
X157455916Y-110910186D01*
X157441736Y-110907155D01*
X157423810Y-110904996D01*
X157400805Y-110903525D01*
X157371389Y-110902561D01*
X157334230Y-110901923D01*
X157287994Y-110901429D01*
X157256222Y-110901133D01*
X157067401Y-110899370D01*
X157067401Y-110693042D01*
X157710793Y-110693042D01*
X157710793Y-110900047D01*
G37*
G36*
X157430659Y-98683351D02*
G01*
X157467306Y-98686746D01*
X157498218Y-98691880D01*
X157515247Y-98696619D01*
X157550899Y-98710862D01*
X157579802Y-98726216D01*
X157606292Y-98745297D01*
X157628786Y-98765120D01*
X157665841Y-98807392D01*
X157694641Y-98857176D01*
X157715217Y-98914526D01*
X157716544Y-98919580D01*
X157722676Y-98952942D01*
X157726418Y-98993291D01*
X157727728Y-99036803D01*
X157726564Y-99079655D01*
X157722884Y-99118024D01*
X157718956Y-99139465D01*
X157700309Y-99195687D01*
X157672677Y-99245526D01*
X157636651Y-99288387D01*
X157592821Y-99323676D01*
X157541778Y-99350799D01*
X157492666Y-99367115D01*
X157465559Y-99371681D01*
X157431347Y-99374104D01*
X157393189Y-99374491D01*
X157354244Y-99372948D01*
X157317669Y-99369581D01*
X157286623Y-99364499D01*
X157268685Y-99359559D01*
X157213225Y-99335376D01*
X157166852Y-99305546D01*
X157128480Y-99268983D01*
X157097022Y-99224601D01*
X157071393Y-99171315D01*
X157065912Y-99156868D01*
X157060002Y-99133469D01*
X157055605Y-99101858D01*
X157052778Y-99064917D01*
X157051757Y-99031380D01*
X157207710Y-99031380D01*
X157208482Y-99057062D01*
X157212085Y-99076455D01*
X157219437Y-99094292D01*
X157220175Y-99095720D01*
X157240258Y-99123184D01*
X157268403Y-99143941D01*
X157304908Y-99158104D01*
X157350072Y-99165785D01*
X157404193Y-99167095D01*
X157409555Y-99166902D01*
X157458482Y-99161926D01*
X157498048Y-99151122D01*
X157528637Y-99134169D01*
X157550631Y-99110743D01*
X157564412Y-99080521D01*
X157570363Y-99043182D01*
X157570679Y-99030862D01*
X157566785Y-98990961D01*
X157554694Y-98958324D01*
X157533793Y-98931986D01*
X157503469Y-98910984D01*
X157490373Y-98904653D01*
X157454388Y-98892855D01*
X157414781Y-98886824D01*
X157373768Y-98886253D01*
X157333567Y-98890835D01*
X157296394Y-98900260D01*
X157264467Y-98914221D01*
X157240002Y-98932410D01*
X157233112Y-98940382D01*
X157220192Y-98961006D01*
X157212329Y-98982937D01*
X157208507Y-99009819D01*
X157207710Y-99031380D01*
X157051757Y-99031380D01*
X157051579Y-99025530D01*
X157052068Y-98986579D01*
X157054303Y-98950946D01*
X157058343Y-98921515D01*
X157060902Y-98910575D01*
X157082286Y-98853284D01*
X157111842Y-98803434D01*
X157149184Y-98761399D01*
X157193927Y-98727554D01*
X157245685Y-98702273D01*
X157288753Y-98689187D01*
X157317325Y-98684611D01*
X157352567Y-98682182D01*
X157373768Y-98681971D01*
X157391379Y-98681795D01*
X157430659Y-98683351D01*
G37*
G36*
X159775242Y-102742954D02*
G01*
X158605947Y-102742954D01*
X158605947Y-102631060D01*
X159775242Y-102631060D01*
X159775242Y-102742954D01*
G37*
G36*
X157487155Y-100039072D02*
G01*
X157509509Y-100044873D01*
X157567715Y-100071023D01*
X157617457Y-100104406D01*
X157658635Y-100144921D01*
X157691151Y-100192468D01*
X157714908Y-100246945D01*
X157718556Y-100258518D01*
X157723617Y-100283895D01*
X157726635Y-100316660D01*
X157727603Y-100353201D01*
X157726512Y-100389902D01*
X157723353Y-100423149D01*
X157719001Y-100446129D01*
X157700557Y-100495342D01*
X157672714Y-100539164D01*
X157636464Y-100576333D01*
X157593522Y-100605206D01*
X157568479Y-100617836D01*
X157545880Y-100627176D01*
X157523105Y-100633798D01*
X157497533Y-100638275D01*
X157466545Y-100641176D01*
X157427519Y-100643074D01*
X157418469Y-100643385D01*
X157330352Y-100646273D01*
X157330352Y-100229454D01*
X157307410Y-100232532D01*
X157275434Y-100242211D01*
X157246287Y-100261370D01*
X157222333Y-100288309D01*
X157216281Y-100298064D01*
X157208517Y-100312677D01*
X157203360Y-100325647D01*
X157200168Y-100340055D01*
X157198298Y-100358983D01*
X157197107Y-100385512D01*
X157196932Y-100390802D01*
X157197376Y-100439364D01*
X157202616Y-100481425D01*
X157213373Y-100520907D01*
X157227087Y-100554698D01*
X157234432Y-100571080D01*
X157239421Y-100582839D01*
X157240837Y-100586868D01*
X157235588Y-100587656D01*
X157221222Y-100588311D01*
X157199813Y-100588773D01*
X157173434Y-100588983D01*
X157167791Y-100588989D01*
X157094745Y-100588989D01*
X157084072Y-100564862D01*
X157073459Y-100538596D01*
X157065537Y-100512852D01*
X157059890Y-100485166D01*
X157056101Y-100453075D01*
X157053755Y-100414115D01*
X157052697Y-100379188D01*
X157052071Y-100341996D01*
X157052157Y-100313557D01*
X157053115Y-100291448D01*
X157055105Y-100273246D01*
X157058286Y-100256527D01*
X157061634Y-100243183D01*
X157067979Y-100225936D01*
X157453436Y-100225936D01*
X157453436Y-100454716D01*
X157474416Y-100454685D01*
X157511082Y-100449989D01*
X157542803Y-100436499D01*
X157556402Y-100426463D01*
X157574500Y-100406461D01*
X157584402Y-100384043D01*
X157587224Y-100356142D01*
X157586666Y-100343382D01*
X157579024Y-100309556D01*
X157561523Y-100280765D01*
X157534439Y-100257296D01*
X157498046Y-100239439D01*
X157482808Y-100234465D01*
X157453436Y-100225936D01*
X157067979Y-100225936D01*
X157081536Y-100189087D01*
X157109966Y-100142126D01*
X157146555Y-100102653D01*
X157190933Y-100071022D01*
X157242728Y-100047584D01*
X157277564Y-100037518D01*
X157305566Y-100033025D01*
X157340356Y-100030561D01*
X157378923Y-100030029D01*
X157418253Y-100031334D01*
X157453436Y-100034224D01*
X157455334Y-100034380D01*
X157487155Y-100039072D01*
G37*
G36*
X157710793Y-109428637D02*
G01*
X157625970Y-109428637D01*
X157657057Y-109457049D01*
X157689536Y-109494052D01*
X157706413Y-109522571D01*
X157714843Y-109540711D01*
X157720361Y-109556322D01*
X157723709Y-109572935D01*
X157725627Y-109594085D01*
X157726725Y-109619357D01*
X157725425Y-109671774D01*
X157717233Y-109715856D01*
X157701553Y-109752517D01*
X157677791Y-109782673D01*
X157645349Y-109807237D01*
X157603633Y-109827124D01*
X157587709Y-109832823D01*
X157578447Y-109835770D01*
X157569156Y-109838213D01*
X157558697Y-109840210D01*
X157545931Y-109841819D01*
X157529720Y-109843098D01*
X157508924Y-109844106D01*
X157482405Y-109844899D01*
X157449024Y-109845536D01*
X157407642Y-109846075D01*
X157357120Y-109846573D01*
X157309372Y-109846982D01*
X157067401Y-109848986D01*
X157067401Y-109647670D01*
X157276214Y-109645852D01*
X157485028Y-109644033D01*
X157517587Y-109627249D01*
X157542582Y-109611635D01*
X157558125Y-109595057D01*
X157560535Y-109590971D01*
X157567904Y-109568989D01*
X157570724Y-109542401D01*
X157568882Y-109516176D01*
X157562679Y-109496057D01*
X157548841Y-109477206D01*
X157528426Y-109458385D01*
X157505546Y-109442940D01*
X157487796Y-109435130D01*
X157475284Y-109433076D01*
X157452655Y-109431420D01*
X157419689Y-109430154D01*
X157376167Y-109429274D01*
X157321869Y-109428771D01*
X157266763Y-109428637D01*
X157067401Y-109428637D01*
X157067401Y-109221633D01*
X157710793Y-109221633D01*
X157710793Y-109428637D01*
G37*
G36*
X157544839Y-107585774D02*
G01*
X157582986Y-107587721D01*
X157615282Y-107591584D01*
X157644379Y-107597848D01*
X157672925Y-107606996D01*
X157703571Y-107619509D01*
X157715494Y-107624870D01*
X157777386Y-107659093D01*
X157831830Y-107701573D01*
X157878551Y-107751977D01*
X157917272Y-107809973D01*
X157947718Y-107875228D01*
X157963542Y-107923541D01*
X157968483Y-107944259D01*
X157972174Y-107967236D01*
X157974861Y-107994841D01*
X157976789Y-108029444D01*
X157977907Y-108062182D01*
X157978620Y-108117910D01*
X157977172Y-108165610D01*
X157973278Y-108208282D01*
X157966656Y-108248930D01*
X157957022Y-108290554D01*
X157956035Y-108294309D01*
X157944545Y-108337668D01*
X157847250Y-108337668D01*
X157807751Y-108337340D01*
X157778188Y-108336370D01*
X157758940Y-108334781D01*
X157750384Y-108332596D01*
X157749956Y-108331887D01*
X157752327Y-108323981D01*
X157758419Y-108309860D01*
X157763785Y-108298815D01*
X157779949Y-108261725D01*
X157791627Y-108222116D01*
X157799374Y-108177419D01*
X157803744Y-108125064D01*
X157804368Y-108110642D01*
X157804727Y-108059702D01*
X157801245Y-108017317D01*
X157793234Y-107981306D01*
X157780007Y-107949490D01*
X157760876Y-107919686D01*
X157735153Y-107889714D01*
X157734488Y-107889015D01*
X157700219Y-107857436D01*
X157664421Y-107833871D01*
X157624898Y-107817405D01*
X157579454Y-107807124D01*
X157526026Y-107802119D01*
X157494141Y-107801082D01*
X157469350Y-107801583D01*
X157447625Y-107803945D01*
X157424938Y-107808490D01*
X157414359Y-107811075D01*
X157361953Y-107829232D01*
X157317327Y-107855054D01*
X157280851Y-107888180D01*
X157252893Y-107928253D01*
X157233820Y-107974912D01*
X157229645Y-107991214D01*
X157226723Y-108011895D01*
X157225235Y-108038846D01*
X157225095Y-108068934D01*
X157226214Y-108099028D01*
X157228505Y-108125998D01*
X157231879Y-108146711D01*
X157234222Y-108154441D01*
X157240560Y-108169826D01*
X157414273Y-108169826D01*
X157414273Y-107990796D01*
X157576520Y-107990796D01*
X157576520Y-108376831D01*
X157118797Y-108376831D01*
X157100842Y-108333700D01*
X157086810Y-108298382D01*
X157076449Y-108267671D01*
X157068356Y-108236729D01*
X157061129Y-108200714D01*
X157059245Y-108190074D01*
X157055485Y-108160498D01*
X157052895Y-108123734D01*
X157051479Y-108082650D01*
X157051236Y-108040116D01*
X157052168Y-107999002D01*
X157054276Y-107962178D01*
X157057561Y-107932513D01*
X157059130Y-107923659D01*
X157074114Y-107865061D01*
X157093989Y-107814358D01*
X157120216Y-107768796D01*
X157154251Y-107725619D01*
X157176211Y-107702505D01*
X157213374Y-107668483D01*
X157249941Y-107642118D01*
X157289379Y-107621391D01*
X157335156Y-107604284D01*
X157355528Y-107598143D01*
X157373789Y-107593310D01*
X157391092Y-107589845D01*
X157409883Y-107587529D01*
X157432606Y-107586140D01*
X157461708Y-107585458D01*
X157498194Y-107585262D01*
X157544839Y-107585774D01*
G37*
G36*
X157487155Y-108503874D02*
G01*
X157509509Y-108509675D01*
X157567715Y-108535825D01*
X157617457Y-108569208D01*
X157658635Y-108609723D01*
X157691151Y-108657270D01*
X157714908Y-108711747D01*
X157718556Y-108723320D01*
X157723617Y-108748696D01*
X157726635Y-108781462D01*
X157727603Y-108818002D01*
X157726512Y-108854703D01*
X157723353Y-108887951D01*
X157719001Y-108910930D01*
X157700557Y-108960144D01*
X157672714Y-109003966D01*
X157636464Y-109041135D01*
X157593522Y-109070007D01*
X157568479Y-109082637D01*
X157545880Y-109091978D01*
X157523105Y-109098600D01*
X157497533Y-109103076D01*
X157466545Y-109105978D01*
X157427519Y-109107876D01*
X157418469Y-109108187D01*
X157330352Y-109111075D01*
X157330352Y-108694256D01*
X157307410Y-108697333D01*
X157275434Y-108707013D01*
X157246287Y-108726172D01*
X157222333Y-108753111D01*
X157216281Y-108762866D01*
X157208517Y-108777479D01*
X157203360Y-108790449D01*
X157200168Y-108804857D01*
X157198298Y-108823784D01*
X157197107Y-108850314D01*
X157196932Y-108855604D01*
X157197376Y-108904166D01*
X157202616Y-108946227D01*
X157213373Y-108985709D01*
X157227087Y-109019500D01*
X157234432Y-109035882D01*
X157239421Y-109047640D01*
X157240837Y-109051670D01*
X157235588Y-109052457D01*
X157221222Y-109053113D01*
X157199813Y-109053575D01*
X157173434Y-109053785D01*
X157167791Y-109053791D01*
X157094745Y-109053791D01*
X157084072Y-109029663D01*
X157073459Y-109003398D01*
X157065537Y-108977654D01*
X157059890Y-108949968D01*
X157056101Y-108917877D01*
X157053755Y-108878917D01*
X157052697Y-108843989D01*
X157052071Y-108806798D01*
X157052157Y-108778359D01*
X157053115Y-108756250D01*
X157055105Y-108738048D01*
X157058286Y-108721328D01*
X157061634Y-108707985D01*
X157067979Y-108690738D01*
X157453436Y-108690738D01*
X157453436Y-108919518D01*
X157474416Y-108919487D01*
X157511082Y-108914791D01*
X157542803Y-108901301D01*
X157556402Y-108891265D01*
X157574500Y-108871263D01*
X157584402Y-108848845D01*
X157587224Y-108820944D01*
X157586666Y-108808184D01*
X157579024Y-108774358D01*
X157561523Y-108745567D01*
X157534439Y-108722098D01*
X157498046Y-108704241D01*
X157482808Y-108699267D01*
X157453436Y-108690738D01*
X157067979Y-108690738D01*
X157081536Y-108653889D01*
X157109966Y-108606928D01*
X157146555Y-108567455D01*
X157190933Y-108535823D01*
X157242728Y-108512385D01*
X157277564Y-108502320D01*
X157305566Y-108497827D01*
X157340356Y-108495363D01*
X157378923Y-108494831D01*
X157418253Y-108496135D01*
X157453436Y-108499026D01*
X157455334Y-108499182D01*
X157487155Y-108503874D01*
G37*
G36*
X159324922Y-104283896D02*
G01*
X159341652Y-104286461D01*
X159422709Y-104307525D01*
X159498508Y-104337335D01*
X159568205Y-104375382D01*
X159630956Y-104421157D01*
X159685915Y-104474150D01*
X159717965Y-104513449D01*
X159739098Y-104544136D01*
X159755777Y-104573664D01*
X159770047Y-104606122D01*
X159783808Y-104645157D01*
X159789908Y-104665108D01*
X159794316Y-104683331D01*
X159797390Y-104702545D01*
X159799486Y-104725468D01*
X159800963Y-104754822D01*
X159801879Y-104782692D01*
X159802726Y-104818613D01*
X159802768Y-104846058D01*
X159801822Y-104867722D01*
X159799707Y-104886302D01*
X159796239Y-104904493D01*
X159792627Y-104919563D01*
X159772430Y-104981949D01*
X159745008Y-105036634D01*
X159709646Y-105084474D01*
X159665631Y-105126325D01*
X159612248Y-105163042D01*
X159571035Y-105185124D01*
X159500156Y-105213972D01*
X159421677Y-105235303D01*
X159336438Y-105248946D01*
X159245278Y-105254732D01*
X159225561Y-105254933D01*
X159187797Y-105254981D01*
X159187797Y-104393674D01*
X159282907Y-104393674D01*
X159282907Y-105137492D01*
X159303887Y-105137469D01*
X159324149Y-105136184D01*
X159351681Y-105132761D01*
X159382902Y-105127804D01*
X159414234Y-105121912D01*
X159442097Y-105115689D01*
X159456301Y-105111855D01*
X159514007Y-105089470D01*
X159567183Y-105058603D01*
X159613279Y-105020756D01*
X159616219Y-105017840D01*
X159649367Y-104980058D01*
X159673711Y-104941308D01*
X159690102Y-104899391D01*
X159699394Y-104852109D01*
X159702441Y-104797267D01*
X159702444Y-104795710D01*
X159698720Y-104732664D01*
X159686993Y-104676415D01*
X159666652Y-104625363D01*
X159637089Y-104577907D01*
X159605184Y-104540180D01*
X159564308Y-104502200D01*
X159518958Y-104470335D01*
X159467758Y-104443937D01*
X159409335Y-104422358D01*
X159342313Y-104404951D01*
X159301090Y-104396886D01*
X159282907Y-104393674D01*
X159187797Y-104393674D01*
X159187797Y-104387333D01*
X159144438Y-104390732D01*
X159081550Y-104396999D01*
X159027351Y-104405511D01*
X158979466Y-104416829D01*
X158935522Y-104431510D01*
X158893643Y-104449873D01*
X158836117Y-104483689D01*
X158786663Y-104524740D01*
X158745772Y-104572422D01*
X158713933Y-104626130D01*
X158691636Y-104685259D01*
X158686497Y-104705669D01*
X158682305Y-104728520D01*
X158679925Y-104752811D01*
X158679189Y-104781637D01*
X158679929Y-104818091D01*
X158680120Y-104823400D01*
X158685132Y-104885056D01*
X158695911Y-104942082D01*
X158713294Y-104996937D01*
X158738115Y-105052080D01*
X158771213Y-105109969D01*
X158784849Y-105131246D01*
X158798456Y-105152193D01*
X158809430Y-105169519D01*
X158816517Y-105181213D01*
X158818546Y-105185204D01*
X158813339Y-105186292D01*
X158799266Y-105187163D01*
X158778649Y-105187710D01*
X158760385Y-105187844D01*
X158702223Y-105187844D01*
X158685203Y-105161269D01*
X158648379Y-105095599D01*
X158617929Y-105024513D01*
X158595344Y-104951812D01*
X158586159Y-104908828D01*
X158582619Y-104880942D01*
X158580205Y-104846257D01*
X158578918Y-104807656D01*
X158578762Y-104768023D01*
X158579739Y-104730242D01*
X158581852Y-104697198D01*
X158585102Y-104671773D01*
X158585959Y-104667536D01*
X158606908Y-104598287D01*
X158637580Y-104534235D01*
X158677480Y-104476024D01*
X158726111Y-104424296D01*
X158782976Y-104379692D01*
X158830092Y-104351636D01*
X158870167Y-104333211D01*
X158917561Y-104315719D01*
X158968412Y-104300451D01*
X159017158Y-104289036D01*
X159044473Y-104285056D01*
X159080011Y-104281990D01*
X159121255Y-104279857D01*
X159165686Y-104278678D01*
X159210786Y-104278472D01*
X159254038Y-104279260D01*
X159282907Y-104280597D01*
X159292922Y-104281061D01*
X159324922Y-104283896D01*
G37*
G36*
X157710793Y-113378505D02*
G01*
X157612885Y-113378999D01*
X157634541Y-113390422D01*
X157660742Y-113408347D01*
X157684927Y-113432206D01*
X157704019Y-113458555D01*
X157713412Y-113478675D01*
X157719916Y-113511068D01*
X157720830Y-113549930D01*
X157719185Y-113593901D01*
X157625473Y-113595435D01*
X157594509Y-113595815D01*
X157567859Y-113595900D01*
X157547355Y-113595703D01*
X157534825Y-113595239D01*
X157531762Y-113594720D01*
X157533713Y-113588611D01*
X157538560Y-113576240D01*
X157540154Y-113572385D01*
X157544633Y-113555868D01*
X157547672Y-113533520D01*
X157548546Y-113514724D01*
X157544709Y-113476481D01*
X157532948Y-113445685D01*
X157512891Y-113421525D01*
X157501836Y-113413117D01*
X157489311Y-113404783D01*
X157478371Y-113398047D01*
X157467684Y-113392728D01*
X157455916Y-113388645D01*
X157441736Y-113385614D01*
X157423810Y-113383454D01*
X157400805Y-113381983D01*
X157371389Y-113381020D01*
X157334230Y-113380381D01*
X157287994Y-113379887D01*
X157256222Y-113379591D01*
X157067401Y-113377828D01*
X157067401Y-113171500D01*
X157710793Y-113171500D01*
X157710793Y-113378505D01*
G37*
G36*
X157430659Y-101340840D02*
G01*
X157467306Y-101344235D01*
X157498218Y-101349369D01*
X157515247Y-101354108D01*
X157550899Y-101368351D01*
X157579802Y-101383705D01*
X157606292Y-101402786D01*
X157628786Y-101422609D01*
X157665841Y-101464881D01*
X157694641Y-101514665D01*
X157715217Y-101572015D01*
X157716544Y-101577069D01*
X157722676Y-101610431D01*
X157726418Y-101650780D01*
X157727728Y-101694292D01*
X157726564Y-101737144D01*
X157722884Y-101775513D01*
X157718956Y-101796954D01*
X157700309Y-101853176D01*
X157672677Y-101903015D01*
X157636651Y-101945876D01*
X157592821Y-101981165D01*
X157541778Y-102008288D01*
X157492666Y-102024604D01*
X157465559Y-102029170D01*
X157431347Y-102031593D01*
X157393189Y-102031980D01*
X157354244Y-102030437D01*
X157317669Y-102027070D01*
X157286623Y-102021988D01*
X157268685Y-102017048D01*
X157213225Y-101992865D01*
X157166852Y-101963035D01*
X157128480Y-101926472D01*
X157097022Y-101882090D01*
X157071393Y-101828804D01*
X157065912Y-101814357D01*
X157060002Y-101790958D01*
X157055605Y-101759347D01*
X157052778Y-101722406D01*
X157051757Y-101688869D01*
X157207710Y-101688869D01*
X157208482Y-101714551D01*
X157212085Y-101733944D01*
X157219437Y-101751781D01*
X157220175Y-101753209D01*
X157240258Y-101780673D01*
X157268403Y-101801430D01*
X157304908Y-101815593D01*
X157350072Y-101823274D01*
X157404193Y-101824584D01*
X157409555Y-101824391D01*
X157458482Y-101819415D01*
X157498048Y-101808611D01*
X157528637Y-101791658D01*
X157550631Y-101768232D01*
X157564412Y-101738010D01*
X157570363Y-101700671D01*
X157570679Y-101688351D01*
X157566785Y-101648450D01*
X157554694Y-101615813D01*
X157533793Y-101589475D01*
X157503469Y-101568473D01*
X157490373Y-101562142D01*
X157454388Y-101550344D01*
X157414781Y-101544313D01*
X157373768Y-101543742D01*
X157333567Y-101548324D01*
X157296394Y-101557749D01*
X157264467Y-101571710D01*
X157240002Y-101589899D01*
X157233112Y-101597871D01*
X157220192Y-101618495D01*
X157212329Y-101640426D01*
X157208507Y-101667308D01*
X157207710Y-101688869D01*
X157051757Y-101688869D01*
X157051579Y-101683019D01*
X157052068Y-101644068D01*
X157054303Y-101608435D01*
X157058343Y-101579004D01*
X157060902Y-101568064D01*
X157082286Y-101510773D01*
X157111842Y-101460923D01*
X157149184Y-101418888D01*
X157193927Y-101385043D01*
X157245685Y-101359762D01*
X157288753Y-101346676D01*
X157317325Y-101342100D01*
X157352567Y-101339671D01*
X157373768Y-101339460D01*
X157391379Y-101339284D01*
X157430659Y-101340840D01*
G37*
G36*
X157710793Y-98149694D02*
G01*
X157625970Y-98149694D01*
X157657057Y-98178106D01*
X157689536Y-98215109D01*
X157706413Y-98243628D01*
X157714843Y-98261768D01*
X157720361Y-98277379D01*
X157723709Y-98293993D01*
X157725627Y-98315142D01*
X157726725Y-98340414D01*
X157725425Y-98392831D01*
X157717233Y-98436913D01*
X157701553Y-98473575D01*
X157677791Y-98503730D01*
X157645349Y-98528294D01*
X157603633Y-98548181D01*
X157587709Y-98553881D01*
X157578447Y-98556827D01*
X157569156Y-98559270D01*
X157558697Y-98561267D01*
X157545931Y-98562876D01*
X157529720Y-98564156D01*
X157508924Y-98565163D01*
X157482405Y-98565956D01*
X157449024Y-98566593D01*
X157407642Y-98567132D01*
X157357120Y-98567631D01*
X157309372Y-98568039D01*
X157067401Y-98570043D01*
X157067401Y-98368727D01*
X157276214Y-98366909D01*
X157485028Y-98365091D01*
X157517587Y-98348307D01*
X157542582Y-98332693D01*
X157558125Y-98316115D01*
X157560535Y-98312028D01*
X157567904Y-98290046D01*
X157570724Y-98263458D01*
X157568882Y-98237233D01*
X157562679Y-98217114D01*
X157548841Y-98198263D01*
X157528426Y-98179442D01*
X157505546Y-98163997D01*
X157487796Y-98156187D01*
X157475284Y-98154133D01*
X157452655Y-98152477D01*
X157419689Y-98151212D01*
X157376167Y-98150331D01*
X157321869Y-98149829D01*
X157266763Y-98149694D01*
X157067401Y-98149694D01*
X157067401Y-97942690D01*
X157710793Y-97942690D01*
X157710793Y-98149694D01*
G37*
G36*
X157961272Y-96371729D02*
G01*
X157959757Y-96484777D01*
X157755550Y-96618220D01*
X157708210Y-96649143D01*
X157659995Y-96680614D01*
X157612538Y-96711569D01*
X157567474Y-96740944D01*
X157526435Y-96767673D01*
X157491054Y-96790692D01*
X157462967Y-96808937D01*
X157456883Y-96812881D01*
X157362423Y-96874100D01*
X157962555Y-96874100D01*
X157962555Y-97069914D01*
X157067401Y-97069914D01*
X157067401Y-96858684D01*
X157369112Y-96660786D01*
X157421604Y-96626362D01*
X157471480Y-96593668D01*
X157517927Y-96563235D01*
X157560134Y-96535594D01*
X157597288Y-96511276D01*
X157628579Y-96490813D01*
X157653194Y-96474736D01*
X157670320Y-96463576D01*
X157679148Y-96457865D01*
X157680056Y-96457293D01*
X157677135Y-96455949D01*
X157663484Y-96454850D01*
X157639033Y-96453997D01*
X157603715Y-96453387D01*
X157557462Y-96453021D01*
X157500205Y-96452897D01*
X157431876Y-96453014D01*
X157378345Y-96453235D01*
X157067401Y-96454771D01*
X157067401Y-96258681D01*
X157962786Y-96258681D01*
X157961272Y-96371729D01*
G37*
G36*
X157487155Y-109975284D02*
G01*
X157509509Y-109981085D01*
X157567715Y-110007235D01*
X157617457Y-110040618D01*
X157658635Y-110081133D01*
X157691151Y-110128679D01*
X157714908Y-110183157D01*
X157718556Y-110194729D01*
X157723617Y-110220106D01*
X157726635Y-110252872D01*
X157727603Y-110289412D01*
X157726512Y-110326113D01*
X157723353Y-110359361D01*
X157719001Y-110382340D01*
X157700557Y-110431554D01*
X157672714Y-110475375D01*
X157636464Y-110512544D01*
X157593522Y-110541417D01*
X157568479Y-110554047D01*
X157545880Y-110563387D01*
X157523105Y-110570010D01*
X157497533Y-110574486D01*
X157466545Y-110577387D01*
X157427519Y-110579285D01*
X157418469Y-110579596D01*
X157330352Y-110582485D01*
X157330352Y-110165666D01*
X157307410Y-110168743D01*
X157275434Y-110178423D01*
X157246287Y-110197582D01*
X157222333Y-110224521D01*
X157216281Y-110234276D01*
X157208517Y-110248889D01*
X157203360Y-110261858D01*
X157200168Y-110276266D01*
X157198298Y-110295194D01*
X157197107Y-110321724D01*
X157196932Y-110327014D01*
X157197376Y-110375575D01*
X157202616Y-110417637D01*
X157213373Y-110457119D01*
X157227087Y-110490910D01*
X157234432Y-110507291D01*
X157239421Y-110519050D01*
X157240837Y-110523080D01*
X157235588Y-110523867D01*
X157221222Y-110524522D01*
X157199813Y-110524985D01*
X157173434Y-110525195D01*
X157167791Y-110525201D01*
X157094745Y-110525201D01*
X157084072Y-110501073D01*
X157073459Y-110474807D01*
X157065537Y-110449063D01*
X157059890Y-110421378D01*
X157056101Y-110389287D01*
X157053755Y-110350327D01*
X157052697Y-110315399D01*
X157052071Y-110278208D01*
X157052157Y-110249769D01*
X157053115Y-110227660D01*
X157055105Y-110209457D01*
X157058286Y-110192738D01*
X157061634Y-110179395D01*
X157067979Y-110162148D01*
X157453436Y-110162148D01*
X157453436Y-110390928D01*
X157474416Y-110390896D01*
X157511082Y-110386201D01*
X157542803Y-110372710D01*
X157556402Y-110362675D01*
X157574500Y-110342673D01*
X157584402Y-110320255D01*
X157587224Y-110292353D01*
X157586666Y-110279593D01*
X157579024Y-110245767D01*
X157561523Y-110216976D01*
X157534439Y-110193508D01*
X157498046Y-110175650D01*
X157482808Y-110170676D01*
X157453436Y-110162148D01*
X157067979Y-110162148D01*
X157081536Y-110125298D01*
X157109966Y-110078337D01*
X157146555Y-110038865D01*
X157190933Y-110007233D01*
X157242728Y-109983795D01*
X157277564Y-109973729D01*
X157305566Y-109969237D01*
X157340356Y-109966772D01*
X157378923Y-109966240D01*
X157418253Y-109967545D01*
X157453436Y-109970436D01*
X157455334Y-109970592D01*
X157487155Y-109975284D01*
G37*
G36*
X157710793Y-105064760D02*
G01*
X157507601Y-105064760D01*
X157448432Y-105064856D01*
X157399348Y-105065231D01*
X157359243Y-105066014D01*
X157327014Y-105067335D01*
X157301556Y-105069323D01*
X157281765Y-105072107D01*
X157266536Y-105075817D01*
X157254766Y-105080582D01*
X157245351Y-105086532D01*
X157237184Y-105093797D01*
X157234301Y-105096798D01*
X157219249Y-105115380D01*
X157210921Y-105133484D01*
X157207607Y-105155697D01*
X157207297Y-105169293D01*
X157212160Y-105204080D01*
X157226767Y-105233413D01*
X157248121Y-105255191D01*
X157257719Y-105262122D01*
X157267849Y-105267800D01*
X157279686Y-105272350D01*
X157294408Y-105275895D01*
X157313190Y-105278558D01*
X157337207Y-105280462D01*
X157367636Y-105281731D01*
X157405652Y-105282487D01*
X157452431Y-105282853D01*
X157509149Y-105282954D01*
X157710793Y-105282954D01*
X157710793Y-105484364D01*
X157067401Y-105484364D01*
X157067401Y-105282954D01*
X157151606Y-105282954D01*
X157117818Y-105249892D01*
X157091626Y-105221554D01*
X157073165Y-105194177D01*
X157061209Y-105164790D01*
X157054536Y-105130418D01*
X157051962Y-105089937D01*
X157051736Y-105058163D01*
X157053000Y-105034367D01*
X157056060Y-105015401D01*
X157060799Y-104999301D01*
X157077762Y-104961408D01*
X157099906Y-104931507D01*
X157129431Y-104907105D01*
X157155513Y-104892040D01*
X157169276Y-104885396D01*
X157182969Y-104879863D01*
X157197738Y-104875341D01*
X157214729Y-104871729D01*
X157235088Y-104868926D01*
X157259961Y-104866830D01*
X157290495Y-104865341D01*
X157327834Y-104864357D01*
X157373125Y-104863779D01*
X157427514Y-104863503D01*
X157480011Y-104863433D01*
X157710793Y-104863351D01*
X157710793Y-105064760D01*
G37*
G36*
X157195065Y-105965902D02*
G01*
X157220542Y-105967054D01*
X157235988Y-105968921D01*
X157240837Y-105971290D01*
X157238470Y-105979245D01*
X157232410Y-105993319D01*
X157227487Y-106003459D01*
X157211634Y-106040520D01*
X157200088Y-106079412D01*
X157192847Y-106118490D01*
X157189909Y-106156105D01*
X157191272Y-106190610D01*
X157196934Y-106220358D01*
X157206894Y-106243701D01*
X157221150Y-106258993D01*
X157227775Y-106262381D01*
X157245298Y-106266054D01*
X157260820Y-106262296D01*
X157275036Y-106250339D01*
X157288642Y-106229413D01*
X157302335Y-106198746D01*
X157313532Y-106167543D01*
X157334452Y-106110995D01*
X157356253Y-106064914D01*
X157379727Y-106028581D01*
X157405663Y-106001275D01*
X157434850Y-105982274D01*
X157468080Y-105970858D01*
X157506141Y-105966306D01*
X157533653Y-105966676D01*
X157563387Y-105969482D01*
X157586485Y-105974775D01*
X157607405Y-105983578D01*
X157607515Y-105983635D01*
X157636676Y-106003130D01*
X157664492Y-106029815D01*
X157687278Y-106059936D01*
X157693956Y-106071705D01*
X157709669Y-106111771D01*
X157720654Y-106159689D01*
X157726797Y-106213118D01*
X157727983Y-106269717D01*
X157724096Y-106327143D01*
X157715022Y-106383055D01*
X157710222Y-106403296D01*
X157704767Y-106424276D01*
X157626656Y-106424276D01*
X157592187Y-106423867D01*
X157567335Y-106422666D01*
X157552642Y-106420714D01*
X157548546Y-106418458D01*
X157550920Y-106410169D01*
X157556856Y-106396505D01*
X157559307Y-106391548D01*
X157573473Y-106355442D01*
X157583200Y-106313030D01*
X157587562Y-106268627D01*
X157587709Y-106259270D01*
X157585202Y-106222501D01*
X157577558Y-106195269D01*
X157564593Y-106177078D01*
X157554785Y-106170580D01*
X157538028Y-106165311D01*
X157523072Y-106167222D01*
X157509200Y-106177075D01*
X157495693Y-106195630D01*
X157481833Y-106223650D01*
X157466902Y-106261895D01*
X157465851Y-106264826D01*
X157449418Y-106308689D01*
X157434445Y-106343552D01*
X157419947Y-106371333D01*
X157404941Y-106393952D01*
X157391289Y-106410297D01*
X157367559Y-106432456D01*
X157342685Y-106447377D01*
X157313850Y-106456159D01*
X157278236Y-106459901D01*
X157263209Y-106460226D01*
X157236672Y-106459992D01*
X157217582Y-106458496D01*
X157202211Y-106455065D01*
X157186833Y-106449030D01*
X157178155Y-106444913D01*
X157140595Y-106420388D01*
X157108840Y-106386700D01*
X157083358Y-106344523D01*
X157064619Y-106294529D01*
X157059651Y-106274911D01*
X157055284Y-106246989D01*
X157052474Y-106211269D01*
X157051227Y-106171036D01*
X157051547Y-106129574D01*
X157053441Y-106090165D01*
X157056913Y-106056096D01*
X157059284Y-106041880D01*
X157064169Y-106019148D01*
X157069328Y-105998003D01*
X157073179Y-105984534D01*
X157079458Y-105965509D01*
X157160147Y-105965509D01*
X157195065Y-105965902D01*
G37*
G36*
X157430659Y-112356831D02*
G01*
X157467306Y-112360226D01*
X157498218Y-112365360D01*
X157515247Y-112370099D01*
X157550899Y-112384342D01*
X157579802Y-112399696D01*
X157606292Y-112418777D01*
X157628786Y-112438600D01*
X157665841Y-112480872D01*
X157694641Y-112530657D01*
X157715217Y-112588006D01*
X157716544Y-112593060D01*
X157722676Y-112626423D01*
X157726418Y-112666771D01*
X157727728Y-112710283D01*
X157726564Y-112753135D01*
X157722884Y-112791504D01*
X157718956Y-112812945D01*
X157700309Y-112869168D01*
X157672677Y-112919006D01*
X157636651Y-112961867D01*
X157592821Y-112997156D01*
X157541778Y-113024279D01*
X157492666Y-113040595D01*
X157465559Y-113045161D01*
X157431347Y-113047584D01*
X157393189Y-113047971D01*
X157354244Y-113046428D01*
X157317669Y-113043062D01*
X157286623Y-113037979D01*
X157268685Y-113033039D01*
X157213225Y-113008856D01*
X157166852Y-112979026D01*
X157128480Y-112942463D01*
X157097022Y-112898082D01*
X157071393Y-112844795D01*
X157065912Y-112830349D01*
X157060002Y-112806949D01*
X157055605Y-112775338D01*
X157052778Y-112738397D01*
X157051757Y-112704861D01*
X157207710Y-112704861D01*
X157208482Y-112730543D01*
X157212085Y-112749935D01*
X157219437Y-112767772D01*
X157220175Y-112769200D01*
X157240258Y-112796664D01*
X157268403Y-112817422D01*
X157304908Y-112831585D01*
X157350072Y-112839265D01*
X157404193Y-112840575D01*
X157409555Y-112840383D01*
X157458482Y-112835406D01*
X157498048Y-112824603D01*
X157528637Y-112807649D01*
X157550631Y-112784223D01*
X157564412Y-112754002D01*
X157570363Y-112716662D01*
X157570679Y-112704342D01*
X157566785Y-112664441D01*
X157554694Y-112631804D01*
X157533793Y-112605467D01*
X157503469Y-112584465D01*
X157490373Y-112578133D01*
X157454388Y-112566335D01*
X157414781Y-112560304D01*
X157373768Y-112559734D01*
X157333567Y-112564315D01*
X157296394Y-112573740D01*
X157264467Y-112587701D01*
X157240002Y-112605890D01*
X157233112Y-112613862D01*
X157220192Y-112634487D01*
X157212329Y-112656417D01*
X157208507Y-112683299D01*
X157207710Y-112704861D01*
X157051757Y-112704861D01*
X157051579Y-112699010D01*
X157052068Y-112660059D01*
X157054303Y-112624426D01*
X157058343Y-112594995D01*
X157060902Y-112584055D01*
X157082286Y-112526764D01*
X157111842Y-112476914D01*
X157149184Y-112434879D01*
X157193927Y-112401034D01*
X157245685Y-112375753D01*
X157288753Y-112362667D01*
X157317325Y-112358092D01*
X157352567Y-112355662D01*
X157373768Y-112355451D01*
X157391379Y-112355275D01*
X157430659Y-112356831D01*
G37*
G36*
X160238134Y-106543163D02*
G01*
X160237715Y-106616802D01*
X160237317Y-106680169D01*
X160236906Y-106734184D01*
X160236451Y-106779764D01*
X160235922Y-106817827D01*
X160235285Y-106849292D01*
X160234511Y-106875078D01*
X160233567Y-106896101D01*
X160232421Y-106913281D01*
X160231042Y-106927536D01*
X160229399Y-106939783D01*
X160227460Y-106950942D01*
X160225193Y-106961930D01*
X160223471Y-106969673D01*
X160202324Y-107046830D01*
X160175657Y-107114593D01*
X160143084Y-107173510D01*
X160104220Y-107224130D01*
X160058680Y-107267000D01*
X160006078Y-107302668D01*
X159979449Y-107316785D01*
X159943545Y-107333258D01*
X159910072Y-107345831D01*
X159876607Y-107354969D01*
X159840728Y-107361135D01*
X159800013Y-107364794D01*
X159752038Y-107366408D01*
X159719295Y-107366590D01*
X159679618Y-107366370D01*
X159648918Y-107365754D01*
X159624984Y-107364559D01*
X159605606Y-107362605D01*
X159588572Y-107359712D01*
X159571673Y-107355698D01*
X159565440Y-107354012D01*
X159493237Y-107328434D01*
X159426877Y-107293357D01*
X159366676Y-107249012D01*
X159312951Y-107195630D01*
X159268833Y-107137712D01*
X159240012Y-107090802D01*
X159216275Y-107043679D01*
X159197251Y-106994787D01*
X159182570Y-106942572D01*
X159171862Y-106885481D01*
X159164757Y-106821958D01*
X159160885Y-106750450D01*
X159159856Y-106680234D01*
X159159824Y-106547359D01*
X159443386Y-106547359D01*
X159447133Y-106652260D01*
X159448905Y-106690545D01*
X159451321Y-106726553D01*
X159454171Y-106757839D01*
X159457243Y-106781957D01*
X159459239Y-106792547D01*
X159476254Y-106844212D01*
X159500822Y-106887681D01*
X159532704Y-106922792D01*
X159571662Y-106949381D01*
X159617460Y-106967287D01*
X159669857Y-106976344D01*
X159727580Y-106976466D01*
X159780797Y-106968248D01*
X159826671Y-106951591D01*
X159865271Y-106926436D01*
X159896667Y-106892726D01*
X159920926Y-106850406D01*
X159937404Y-106802249D01*
X159942311Y-106779368D01*
X159946138Y-106752497D01*
X159949087Y-106719600D01*
X159951364Y-106678644D01*
X159952377Y-106652693D01*
X159956040Y-106547359D01*
X159443386Y-106547359D01*
X159159824Y-106547359D01*
X158605947Y-106547359D01*
X158605947Y-106172514D01*
X160240190Y-106172514D01*
X160238134Y-106543163D01*
G37*
G36*
X157710793Y-102362514D02*
G01*
X157625970Y-102362514D01*
X157657057Y-102390925D01*
X157689536Y-102427928D01*
X157706413Y-102456447D01*
X157714843Y-102474588D01*
X157720361Y-102490198D01*
X157723709Y-102506812D01*
X157725627Y-102527962D01*
X157726725Y-102553234D01*
X157725425Y-102605651D01*
X157717233Y-102649733D01*
X157701553Y-102686394D01*
X157677791Y-102716549D01*
X157645349Y-102741113D01*
X157603633Y-102761001D01*
X157587709Y-102766700D01*
X157578447Y-102769647D01*
X157569156Y-102772089D01*
X157558697Y-102774086D01*
X157545931Y-102775696D01*
X157529720Y-102776975D01*
X157508924Y-102777982D01*
X157482405Y-102778775D01*
X157449024Y-102779413D01*
X157407642Y-102779951D01*
X157357120Y-102780450D01*
X157309372Y-102780859D01*
X157067401Y-102782862D01*
X157067401Y-102581547D01*
X157276214Y-102579728D01*
X157485028Y-102577910D01*
X157517587Y-102561126D01*
X157542582Y-102545512D01*
X157558125Y-102528934D01*
X157560535Y-102524848D01*
X157567904Y-102502865D01*
X157570724Y-102476277D01*
X157568882Y-102450052D01*
X157562679Y-102429934D01*
X157548841Y-102411083D01*
X157528426Y-102392262D01*
X157505546Y-102376816D01*
X157487796Y-102369007D01*
X157475284Y-102366953D01*
X157452655Y-102365296D01*
X157419689Y-102364031D01*
X157376167Y-102363150D01*
X157321869Y-102362648D01*
X157266763Y-102362514D01*
X157067401Y-102362514D01*
X157067401Y-102155509D01*
X157710793Y-102155509D01*
X157710793Y-102362514D01*
G37*
G36*
X157394028Y-100723448D02*
G01*
X157436201Y-100726319D01*
X157473670Y-100732002D01*
X157483670Y-100734315D01*
X157540849Y-100754416D01*
X157591780Y-100783504D01*
X157635746Y-100820838D01*
X157672033Y-100865680D01*
X157699925Y-100917291D01*
X157718708Y-100974930D01*
X157719393Y-100977949D01*
X157723575Y-101005114D01*
X157726080Y-101039344D01*
X157726970Y-101077733D01*
X157726309Y-101117373D01*
X157724158Y-101155358D01*
X157720580Y-101188780D01*
X157715639Y-101214733D01*
X157714172Y-101219793D01*
X157704764Y-101249166D01*
X157618263Y-101249166D01*
X157588584Y-101249033D01*
X157563296Y-101248668D01*
X157544304Y-101248118D01*
X157533513Y-101247430D01*
X157531762Y-101246996D01*
X157533984Y-101241267D01*
X157539864Y-101228085D01*
X157548219Y-101210086D01*
X157549943Y-101206435D01*
X157559389Y-101184801D01*
X157565181Y-101165889D01*
X157568368Y-101145068D01*
X157569994Y-101117704D01*
X157569995Y-101117690D01*
X157570399Y-101089553D01*
X157568814Y-101068280D01*
X157564717Y-101049642D01*
X157559827Y-101035231D01*
X157540636Y-100999395D01*
X157512929Y-100969235D01*
X157478788Y-100946835D01*
X157465961Y-100941309D01*
X157430731Y-100932303D01*
X157390469Y-100928787D01*
X157349940Y-100930842D01*
X157313905Y-100938548D01*
X157313413Y-100938711D01*
X157283941Y-100953282D01*
X157256069Y-100975558D01*
X157232877Y-101002527D01*
X157217442Y-101031175D01*
X157216647Y-101033415D01*
X157209108Y-101068277D01*
X157207547Y-101107889D01*
X157211562Y-101148664D01*
X157220751Y-101187012D01*
X157234711Y-101219345D01*
X157238116Y-101224892D01*
X157243619Y-101234064D01*
X157245330Y-101240589D01*
X157241950Y-101244872D01*
X157232180Y-101247318D01*
X157214720Y-101248331D01*
X157188271Y-101248315D01*
X157164136Y-101247916D01*
X157081840Y-101246368D01*
X157068053Y-101207205D01*
X157062731Y-101190900D01*
X157058879Y-101175313D01*
X157056209Y-101158016D01*
X157054433Y-101136578D01*
X157053264Y-101108568D01*
X157052493Y-101075729D01*
X157052064Y-101035475D01*
X157052595Y-101004397D01*
X157054193Y-100980517D01*
X157056967Y-100961855D01*
X157059155Y-100952646D01*
X157079514Y-100898161D01*
X157108718Y-100849110D01*
X157145699Y-100806569D01*
X157189389Y-100771613D01*
X157238721Y-100745318D01*
X157278010Y-100732126D01*
X157311060Y-100726310D01*
X157351023Y-100723432D01*
X157394028Y-100723448D01*
G37*
G36*
X159324922Y-99304600D02*
G01*
X159341652Y-99307166D01*
X159422709Y-99328230D01*
X159498508Y-99358040D01*
X159568205Y-99396087D01*
X159630956Y-99441862D01*
X159685915Y-99494855D01*
X159717965Y-99534153D01*
X159739098Y-99564840D01*
X159755777Y-99594369D01*
X159770047Y-99626827D01*
X159783808Y-99665862D01*
X159789908Y-99685813D01*
X159794316Y-99704036D01*
X159797390Y-99723249D01*
X159799486Y-99746173D01*
X159800963Y-99775527D01*
X159801879Y-99803397D01*
X159802726Y-99839318D01*
X159802768Y-99866763D01*
X159801822Y-99888427D01*
X159799707Y-99907007D01*
X159796239Y-99925198D01*
X159792627Y-99940268D01*
X159772430Y-100002654D01*
X159745008Y-100057339D01*
X159709646Y-100105179D01*
X159665631Y-100147030D01*
X159612248Y-100183747D01*
X159571035Y-100205828D01*
X159500156Y-100234677D01*
X159421677Y-100256008D01*
X159336438Y-100269651D01*
X159245278Y-100275437D01*
X159225561Y-100275638D01*
X159187797Y-100275685D01*
X159187797Y-99414379D01*
X159282907Y-99414379D01*
X159282907Y-100158196D01*
X159303887Y-100158174D01*
X159324149Y-100156888D01*
X159351681Y-100153466D01*
X159382902Y-100148508D01*
X159414234Y-100142617D01*
X159442097Y-100136394D01*
X159456301Y-100132560D01*
X159514007Y-100110175D01*
X159567183Y-100079308D01*
X159613279Y-100041461D01*
X159616219Y-100038544D01*
X159649367Y-100000763D01*
X159673711Y-99962013D01*
X159690102Y-99920095D01*
X159699394Y-99872814D01*
X159702441Y-99817972D01*
X159702444Y-99816415D01*
X159698720Y-99753369D01*
X159686993Y-99697120D01*
X159666652Y-99646067D01*
X159637089Y-99598612D01*
X159605184Y-99560885D01*
X159564308Y-99522905D01*
X159518958Y-99491040D01*
X159467758Y-99464642D01*
X159409335Y-99443063D01*
X159342313Y-99425656D01*
X159301090Y-99417591D01*
X159282907Y-99414379D01*
X159187797Y-99414379D01*
X159187797Y-99408038D01*
X159144438Y-99411437D01*
X159081550Y-99417704D01*
X159027351Y-99426216D01*
X158979466Y-99437533D01*
X158935522Y-99452215D01*
X158893643Y-99470578D01*
X158836117Y-99504394D01*
X158786663Y-99545445D01*
X158745772Y-99593127D01*
X158713933Y-99646835D01*
X158691636Y-99705963D01*
X158686497Y-99726374D01*
X158682305Y-99749225D01*
X158679925Y-99773516D01*
X158679189Y-99802342D01*
X158679929Y-99838796D01*
X158680120Y-99844105D01*
X158685132Y-99905761D01*
X158695911Y-99962787D01*
X158713294Y-100017642D01*
X158738115Y-100072785D01*
X158771213Y-100130674D01*
X158784849Y-100151950D01*
X158798456Y-100172898D01*
X158809430Y-100190224D01*
X158816517Y-100201918D01*
X158818546Y-100205908D01*
X158813339Y-100206997D01*
X158799266Y-100207868D01*
X158778649Y-100208415D01*
X158760385Y-100208549D01*
X158702223Y-100208549D01*
X158685203Y-100181974D01*
X158648379Y-100116304D01*
X158617929Y-100045218D01*
X158595344Y-99972516D01*
X158586159Y-99929533D01*
X158582619Y-99901647D01*
X158580205Y-99866962D01*
X158578918Y-99828361D01*
X158578762Y-99788728D01*
X158579739Y-99750947D01*
X158581852Y-99717902D01*
X158585102Y-99692478D01*
X158585959Y-99688240D01*
X158606908Y-99618991D01*
X158637580Y-99554940D01*
X158677480Y-99496729D01*
X158726111Y-99445000D01*
X158782976Y-99400397D01*
X158830092Y-99372341D01*
X158870167Y-99353916D01*
X158917561Y-99336424D01*
X158968412Y-99321156D01*
X159017158Y-99309741D01*
X159044473Y-99305761D01*
X159080011Y-99302695D01*
X159121255Y-99300562D01*
X159165686Y-99299383D01*
X159210786Y-99299177D01*
X159254038Y-99299965D01*
X159282907Y-99301302D01*
X159292922Y-99301766D01*
X159324922Y-99304600D01*
G37*
G36*
X157312245Y-97211666D02*
G01*
X157333150Y-97217748D01*
X157372958Y-97239879D01*
X157405545Y-97270202D01*
X157431233Y-97309087D01*
X157447874Y-97349112D01*
X157451489Y-97363153D01*
X157456186Y-97385885D01*
X157461578Y-97414923D01*
X157467281Y-97447884D01*
X157472908Y-97482384D01*
X157478073Y-97516039D01*
X157482390Y-97546465D01*
X157485473Y-97571278D01*
X157486937Y-97588095D01*
X157487004Y-97590821D01*
X157491670Y-97595130D01*
X157503540Y-97595705D01*
X157519424Y-97592954D01*
X157536131Y-97587283D01*
X157543588Y-97583598D01*
X157563353Y-97568452D01*
X157576845Y-97547947D01*
X157584724Y-97520495D01*
X157587655Y-97484507D01*
X157587709Y-97477848D01*
X157582253Y-97417430D01*
X157566265Y-97357892D01*
X157545359Y-97310670D01*
X157535997Y-97292460D01*
X157529164Y-97278102D01*
X157526200Y-97270425D01*
X157526167Y-97270109D01*
X157531421Y-97268507D01*
X157545825Y-97267168D01*
X157567338Y-97266211D01*
X157593922Y-97265752D01*
X157601621Y-97265729D01*
X157677074Y-97265729D01*
X157686039Y-97286710D01*
X157700089Y-97326589D01*
X157711565Y-97373039D01*
X157720185Y-97423313D01*
X157725670Y-97474662D01*
X157727738Y-97524338D01*
X157726109Y-97569592D01*
X157720504Y-97607677D01*
X157719302Y-97612602D01*
X157702147Y-97661354D01*
X157677907Y-97701705D01*
X157645998Y-97734246D01*
X157605837Y-97759571D01*
X157556839Y-97778272D01*
X157555710Y-97778598D01*
X157545833Y-97781001D01*
X157533663Y-97783011D01*
X157518076Y-97784678D01*
X157497948Y-97786053D01*
X157472155Y-97787186D01*
X157439572Y-97788127D01*
X157399076Y-97788926D01*
X157349542Y-97789634D01*
X157295385Y-97790245D01*
X157067401Y-97792599D01*
X157067401Y-97595818D01*
X157147528Y-97595818D01*
X157127970Y-97580573D01*
X157100205Y-97553630D01*
X157076615Y-97520695D01*
X157060966Y-97487639D01*
X157057694Y-97473482D01*
X157196079Y-97473482D01*
X157197841Y-97498094D01*
X157202491Y-97519597D01*
X157205196Y-97526622D01*
X157220066Y-97548318D01*
X157241803Y-97568668D01*
X157266292Y-97584184D01*
X157279208Y-97589325D01*
X157292797Y-97592103D01*
X157311077Y-97594227D01*
X157330963Y-97595564D01*
X157349373Y-97595982D01*
X157363223Y-97595348D01*
X157369430Y-97593528D01*
X157369515Y-97593213D01*
X157368488Y-97579971D01*
X157365752Y-97559266D01*
X157361821Y-97534054D01*
X157357211Y-97507291D01*
X157352437Y-97481934D01*
X157348016Y-97460939D01*
X157344461Y-97447262D01*
X157343707Y-97445181D01*
X157327769Y-97418773D01*
X157306790Y-97401010D01*
X157282654Y-97392259D01*
X157257243Y-97392885D01*
X157232442Y-97403254D01*
X157213374Y-97419857D01*
X157203410Y-97432629D01*
X157198205Y-97444765D01*
X157196278Y-97460855D01*
X157196079Y-97473482D01*
X157057694Y-97473482D01*
X157054391Y-97459193D01*
X157051118Y-97424299D01*
X157051140Y-97387196D01*
X157054449Y-97352125D01*
X157061042Y-97323327D01*
X157061214Y-97322823D01*
X157079963Y-97284857D01*
X157107173Y-97252622D01*
X157141048Y-97227710D01*
X157179793Y-97211712D01*
X157189141Y-97209473D01*
X157217170Y-97205907D01*
X157249657Y-97205234D01*
X157282654Y-97207229D01*
X157282662Y-97207229D01*
X157312245Y-97211666D01*
G37*
G36*
X159336674Y-100485857D02*
G01*
X159410528Y-100502813D01*
X159482007Y-100528310D01*
X159548680Y-100561952D01*
X159609541Y-100602862D01*
X159663586Y-100650166D01*
X159709809Y-100702987D01*
X159747207Y-100760450D01*
X159774015Y-100819563D01*
X159786850Y-100859606D01*
X159795619Y-100898805D01*
X159800726Y-100940231D01*
X159802575Y-100986957D01*
X159801939Y-101031593D01*
X159800506Y-101066798D01*
X159798491Y-101093854D01*
X159795476Y-101115799D01*
X159791040Y-101135675D01*
X159784765Y-101156519D01*
X159784655Y-101156853D01*
X159759015Y-101217982D01*
X159724657Y-101272540D01*
X159682078Y-101319873D01*
X159631777Y-101359324D01*
X159630171Y-101360368D01*
X159594476Y-101383439D01*
X159775242Y-101383439D01*
X159775242Y-101495932D01*
X159175209Y-101493887D01*
X159079038Y-101493546D01*
X158993376Y-101493208D01*
X158917541Y-101492860D01*
X158850855Y-101492490D01*
X158792635Y-101492087D01*
X158742201Y-101491637D01*
X158698872Y-101491129D01*
X158661969Y-101490550D01*
X158630809Y-101489888D01*
X158604713Y-101489132D01*
X158583000Y-101488269D01*
X158564989Y-101487286D01*
X158549999Y-101486171D01*
X158537350Y-101484913D01*
X158526362Y-101483499D01*
X158517427Y-101482100D01*
X158433761Y-101464283D01*
X158359525Y-101440615D01*
X158294561Y-101411017D01*
X158238714Y-101375410D01*
X158191825Y-101333713D01*
X158166636Y-101304045D01*
X158131056Y-101248602D01*
X158101690Y-101184772D01*
X158079010Y-101113774D01*
X158063707Y-101038292D01*
X158061842Y-101019514D01*
X158060371Y-100992327D01*
X158059318Y-100959418D01*
X158058705Y-100923474D01*
X158058557Y-100887182D01*
X158058895Y-100853230D01*
X158059745Y-100824305D01*
X158061128Y-100803093D01*
X158061629Y-100798791D01*
X158069591Y-100756554D01*
X158082446Y-100708040D01*
X158099191Y-100656485D01*
X158118827Y-100605122D01*
X158128756Y-100581996D01*
X158143114Y-100549826D01*
X158201560Y-100549826D01*
X158225331Y-100550197D01*
X158244025Y-100551201D01*
X158255437Y-100552672D01*
X158257873Y-100554022D01*
X158220276Y-100633610D01*
X158191551Y-100707060D01*
X158171762Y-100774200D01*
X158163815Y-100813780D01*
X158160258Y-100847608D01*
X158158824Y-100888390D01*
X158159373Y-100932804D01*
X158161765Y-100977532D01*
X158165862Y-101019252D01*
X158171523Y-101054645D01*
X158174468Y-101067337D01*
X158197023Y-101132937D01*
X158228077Y-101191423D01*
X158267384Y-101242512D01*
X158314699Y-101285921D01*
X158369777Y-101321369D01*
X158412857Y-101341310D01*
X158444049Y-101352753D01*
X158475023Y-101361820D01*
X158507751Y-101368805D01*
X158544202Y-101374003D01*
X158586349Y-101377709D01*
X158636160Y-101380219D01*
X158681475Y-101381532D01*
X158810154Y-101384414D01*
X158781363Y-101364587D01*
X158723163Y-101318338D01*
X158674451Y-101266204D01*
X158635060Y-101207962D01*
X158604827Y-101143391D01*
X158593731Y-101110785D01*
X158587748Y-101083785D01*
X158583171Y-101048688D01*
X158580098Y-101008511D01*
X158579062Y-100978830D01*
X158679200Y-100978830D01*
X158680358Y-101017360D01*
X158683475Y-101052786D01*
X158687575Y-101077422D01*
X158706399Y-101137476D01*
X158734823Y-101192789D01*
X158771978Y-101242570D01*
X158816996Y-101286027D01*
X158869006Y-101322368D01*
X158927140Y-101350803D01*
X158990529Y-101370540D01*
X159014794Y-101375420D01*
X159039052Y-101378407D01*
X159071516Y-101380644D01*
X159110320Y-101382157D01*
X159153600Y-101382970D01*
X159199488Y-101383109D01*
X159246121Y-101382599D01*
X159291632Y-101381467D01*
X159334156Y-101379736D01*
X159371828Y-101377433D01*
X159402783Y-101374583D01*
X159425153Y-101371211D01*
X159431167Y-101369755D01*
X159491347Y-101346607D01*
X159547120Y-101313254D01*
X159598073Y-101269946D01*
X159599088Y-101268931D01*
X159637467Y-101225320D01*
X159666258Y-101180293D01*
X159686194Y-101132003D01*
X159698010Y-101078605D01*
X159702438Y-101018252D01*
X159702511Y-101008593D01*
X159697866Y-100941433D01*
X159683783Y-100880029D01*
X159660036Y-100823787D01*
X159626398Y-100772113D01*
X159601866Y-100743574D01*
X159551195Y-100696984D01*
X159494850Y-100658881D01*
X159432340Y-100629084D01*
X159363172Y-100607415D01*
X159286858Y-100593692D01*
X159202905Y-100587734D01*
X159176608Y-100587434D01*
X159093984Y-100590702D01*
X159019837Y-100600498D01*
X158953372Y-100617091D01*
X158893791Y-100640749D01*
X158840297Y-100671740D01*
X158792095Y-100710332D01*
X158781601Y-100720383D01*
X158741665Y-100766044D01*
X158711782Y-100814598D01*
X158690868Y-100867884D01*
X158687496Y-100879914D01*
X158682768Y-100906577D01*
X158680003Y-100940726D01*
X158679200Y-100978830D01*
X158579062Y-100978830D01*
X158578624Y-100966268D01*
X158578847Y-100924976D01*
X158580864Y-100887650D01*
X158584770Y-100857307D01*
X158585483Y-100853742D01*
X158605124Y-100787295D01*
X158634573Y-100725411D01*
X158673124Y-100668812D01*
X158720076Y-100618221D01*
X158774725Y-100574362D01*
X158836367Y-100537957D01*
X158904299Y-100509729D01*
X158927087Y-100502589D01*
X159003075Y-100485203D01*
X159084901Y-100474838D01*
X159169692Y-100471493D01*
X159176608Y-100471792D01*
X159254574Y-100475167D01*
X159336674Y-100485857D01*
G37*
G36*
X160228414Y-95771941D02*
G01*
X157050616Y-95771941D01*
X157050616Y-95604100D01*
X160228414Y-95604100D01*
X160228414Y-95771941D01*
G37*
G36*
X159775242Y-103224100D02*
G01*
X159572397Y-103224100D01*
X159613676Y-103251169D01*
X159667734Y-103293173D01*
X159714128Y-103342891D01*
X159752018Y-103399219D01*
X159780565Y-103461052D01*
X159786597Y-103478659D01*
X159793905Y-103509704D01*
X159799149Y-103548435D01*
X159802215Y-103591520D01*
X159802988Y-103635629D01*
X159801353Y-103677427D01*
X159797195Y-103713584D01*
X159795074Y-103724512D01*
X159776532Y-103783660D01*
X159748720Y-103836666D01*
X159711888Y-103883266D01*
X159666288Y-103923195D01*
X159612169Y-103956190D01*
X159550986Y-103981585D01*
X159533642Y-103987269D01*
X159517184Y-103992222D01*
X159500737Y-103996494D01*
X159483424Y-104000135D01*
X159464369Y-104003196D01*
X159442696Y-104005726D01*
X159417529Y-104007777D01*
X159387992Y-104009397D01*
X159353209Y-104010639D01*
X159312303Y-104011551D01*
X159264398Y-104012184D01*
X159208618Y-104012588D01*
X159144088Y-104012814D01*
X159069930Y-104012912D01*
X159004570Y-104012932D01*
X158605947Y-104012954D01*
X158605947Y-103906655D01*
X158946412Y-103906655D01*
X159031412Y-103906560D01*
X159106085Y-103906252D01*
X159171293Y-103905694D01*
X159227897Y-103904847D01*
X159276759Y-103903677D01*
X159318740Y-103902144D01*
X159354701Y-103900212D01*
X159385504Y-103897845D01*
X159412010Y-103895004D01*
X159435081Y-103891654D01*
X159455578Y-103887757D01*
X159471277Y-103884073D01*
X159531074Y-103864442D01*
X159582482Y-103838299D01*
X159625175Y-103805924D01*
X159658826Y-103767599D01*
X159683111Y-103723608D01*
X159693882Y-103691481D01*
X159699059Y-103662016D01*
X159701806Y-103625784D01*
X159702120Y-103586941D01*
X159699998Y-103549644D01*
X159695435Y-103518047D01*
X159694035Y-103512004D01*
X159673964Y-103455226D01*
X159644190Y-103402625D01*
X159605707Y-103355090D01*
X159559505Y-103313511D01*
X159506578Y-103278776D01*
X159447917Y-103251773D01*
X159384516Y-103233392D01*
X159382449Y-103232962D01*
X159372299Y-103231149D01*
X159360233Y-103229593D01*
X159345379Y-103228278D01*
X159326866Y-103227183D01*
X159303821Y-103226290D01*
X159275372Y-103225579D01*
X159240647Y-103225033D01*
X159198774Y-103224632D01*
X159148881Y-103224358D01*
X159090095Y-103224190D01*
X159021546Y-103224112D01*
X158972636Y-103224100D01*
X158605947Y-103224100D01*
X158605947Y-103112205D01*
X159775242Y-103112205D01*
X159775242Y-103224100D01*
G37*
G36*
X158018502Y-105848020D02*
G01*
X157067401Y-105848020D01*
X157067401Y-105641016D01*
X158018502Y-105641016D01*
X158018502Y-105848020D01*
G37*
G36*
X159775242Y-101970884D02*
G01*
X159650760Y-101970952D01*
X159526277Y-101971020D01*
X159570219Y-101990204D01*
X159612945Y-102010326D01*
X159647829Y-102030454D01*
X159678020Y-102052699D01*
X159706665Y-102079173D01*
X159713671Y-102086403D01*
X159748613Y-102129277D01*
X159774820Y-102174785D01*
X159791137Y-102220909D01*
X159791582Y-102222801D01*
X159795260Y-102247246D01*
X159797135Y-102278202D01*
X159797265Y-102311977D01*
X159795705Y-102344876D01*
X159792513Y-102373206D01*
X159789012Y-102389472D01*
X159780403Y-102418461D01*
X159721409Y-102418461D01*
X159697517Y-102418093D01*
X159678690Y-102417098D01*
X159667125Y-102415638D01*
X159664566Y-102414265D01*
X159677332Y-102388874D01*
X159685766Y-102369677D01*
X159690764Y-102352975D01*
X159693223Y-102335070D01*
X159694042Y-102312265D01*
X159694119Y-102292447D01*
X159693911Y-102264645D01*
X159692887Y-102244761D01*
X159690445Y-102229527D01*
X159685985Y-102215673D01*
X159678905Y-102199930D01*
X159676020Y-102194024D01*
X159646138Y-102145956D01*
X159606606Y-102103312D01*
X159557632Y-102066220D01*
X159499423Y-102034810D01*
X159432187Y-102009209D01*
X159356130Y-101989547D01*
X159341652Y-101986674D01*
X159328151Y-101984224D01*
X159314753Y-101982125D01*
X159300460Y-101980342D01*
X159284276Y-101978840D01*
X159265203Y-101977583D01*
X159242243Y-101976535D01*
X159214401Y-101975661D01*
X159180677Y-101974926D01*
X159140076Y-101974294D01*
X159091599Y-101973729D01*
X159034250Y-101973196D01*
X158967031Y-101972660D01*
X158943028Y-101972480D01*
X158605947Y-101969977D01*
X158605947Y-101864584D01*
X159775242Y-101864584D01*
X159775242Y-101970884D01*
G37*
G36*
X157426288Y-102902113D02*
G01*
X157466643Y-102906025D01*
X157501067Y-102911802D01*
X157517775Y-102916188D01*
X157571983Y-102938316D01*
X157619588Y-102967700D01*
X157659659Y-103003452D01*
X157691266Y-103044683D01*
X157713480Y-103090504D01*
X157719162Y-103108553D01*
X157724122Y-103131362D01*
X157726656Y-103155949D01*
X157727042Y-103185985D01*
X157726477Y-103205223D01*
X157723586Y-103244176D01*
X157717671Y-103274888D01*
X157707699Y-103300128D01*
X157692634Y-103322668D01*
X157675734Y-103341099D01*
X157652637Y-103363967D01*
X158018502Y-103363967D01*
X158018502Y-103565377D01*
X157067401Y-103565377D01*
X157067401Y-103363967D01*
X157142568Y-103363967D01*
X157115371Y-103337392D01*
X157095958Y-103314855D01*
X157078057Y-103287982D01*
X157070866Y-103274452D01*
X157063195Y-103257415D01*
X157058097Y-103242635D01*
X157055474Y-103229423D01*
X157207696Y-103229423D01*
X157208983Y-103257977D01*
X157214952Y-103282012D01*
X157214991Y-103282104D01*
X157229910Y-103305907D01*
X157252954Y-103328359D01*
X157281133Y-103346822D01*
X157296108Y-103353691D01*
X157311910Y-103359181D01*
X157328054Y-103362840D01*
X157347428Y-103365029D01*
X157372921Y-103366110D01*
X157397873Y-103366411D01*
X157427475Y-103366424D01*
X157448642Y-103365821D01*
X157464125Y-103364163D01*
X157476677Y-103361009D01*
X157489051Y-103355920D01*
X157501158Y-103349910D01*
X157532060Y-103330144D01*
X157553092Y-103306729D01*
X157565410Y-103277942D01*
X157569937Y-103247151D01*
X157570352Y-103222893D01*
X157567849Y-103205000D01*
X157561715Y-103188866D01*
X157560560Y-103186554D01*
X157540067Y-103157428D01*
X157511369Y-103134756D01*
X157473986Y-103118257D01*
X157427435Y-103107655D01*
X157422878Y-103106994D01*
X157373445Y-103103817D01*
X157328107Y-103108207D01*
X157288092Y-103119734D01*
X157254627Y-103137968D01*
X157228936Y-103162480D01*
X157218491Y-103178620D01*
X157210921Y-103201315D01*
X157207696Y-103229423D01*
X157055474Y-103229423D01*
X157054972Y-103226893D01*
X157053220Y-103206973D01*
X157052241Y-103179657D01*
X157052102Y-103173747D01*
X157051873Y-103140870D01*
X157053093Y-103116025D01*
X157056046Y-103096118D01*
X157060820Y-103078637D01*
X157081843Y-103032339D01*
X157112003Y-102991940D01*
X157150590Y-102958021D01*
X157196894Y-102931166D01*
X157250205Y-102911959D01*
X157269337Y-102907372D01*
X157301527Y-102902695D01*
X157340541Y-102900335D01*
X157373445Y-102900215D01*
X157383191Y-102900179D01*
X157426288Y-102902113D01*
G37*
G36*
X157312245Y-111164881D02*
G01*
X157333150Y-111170964D01*
X157372958Y-111193095D01*
X157405545Y-111223418D01*
X157431233Y-111262303D01*
X157447874Y-111302328D01*
X157451489Y-111316369D01*
X157456186Y-111339101D01*
X157461578Y-111368139D01*
X157467281Y-111401100D01*
X157472908Y-111435600D01*
X157478073Y-111469255D01*
X157482390Y-111499681D01*
X157485473Y-111524494D01*
X157486937Y-111541310D01*
X157487004Y-111544037D01*
X157491670Y-111548346D01*
X157503540Y-111548921D01*
X157519424Y-111546170D01*
X157536131Y-111540499D01*
X157543588Y-111536814D01*
X157563353Y-111521668D01*
X157576845Y-111501163D01*
X157584724Y-111473711D01*
X157587655Y-111437722D01*
X157587709Y-111431064D01*
X157582253Y-111370646D01*
X157566265Y-111311108D01*
X157545359Y-111263886D01*
X157535997Y-111245676D01*
X157529164Y-111231318D01*
X157526200Y-111223641D01*
X157526167Y-111223324D01*
X157531421Y-111221723D01*
X157545825Y-111220384D01*
X157567338Y-111219426D01*
X157593922Y-111218968D01*
X157601621Y-111218945D01*
X157677074Y-111218945D01*
X157686039Y-111239925D01*
X157700089Y-111279805D01*
X157711565Y-111326255D01*
X157720185Y-111376529D01*
X157725670Y-111427878D01*
X157727738Y-111477554D01*
X157726109Y-111522808D01*
X157720504Y-111560893D01*
X157719302Y-111565818D01*
X157702147Y-111614570D01*
X157677907Y-111654921D01*
X157645998Y-111687462D01*
X157605837Y-111712787D01*
X157556839Y-111731488D01*
X157555710Y-111731814D01*
X157545833Y-111734217D01*
X157533663Y-111736227D01*
X157518076Y-111737894D01*
X157497948Y-111739269D01*
X157472155Y-111740401D01*
X157439572Y-111741342D01*
X157399076Y-111742142D01*
X157349542Y-111742850D01*
X157295385Y-111743461D01*
X157067401Y-111745815D01*
X157067401Y-111549033D01*
X157147528Y-111549033D01*
X157127970Y-111533789D01*
X157100205Y-111506846D01*
X157076615Y-111473911D01*
X157060966Y-111440854D01*
X157057694Y-111426698D01*
X157196079Y-111426698D01*
X157197841Y-111451310D01*
X157202491Y-111472813D01*
X157205196Y-111479837D01*
X157220066Y-111501534D01*
X157241803Y-111521884D01*
X157266292Y-111537400D01*
X157279208Y-111542540D01*
X157292797Y-111545319D01*
X157311077Y-111547443D01*
X157330963Y-111548780D01*
X157349373Y-111549198D01*
X157363223Y-111548564D01*
X157369430Y-111546744D01*
X157369515Y-111546428D01*
X157368488Y-111533187D01*
X157365752Y-111512482D01*
X157361821Y-111487270D01*
X157357211Y-111460507D01*
X157352437Y-111435150D01*
X157348016Y-111414155D01*
X157344461Y-111400477D01*
X157343707Y-111398397D01*
X157327769Y-111371989D01*
X157306790Y-111354226D01*
X157282654Y-111345475D01*
X157257243Y-111346101D01*
X157232442Y-111356470D01*
X157213374Y-111373073D01*
X157203410Y-111385845D01*
X157198205Y-111397981D01*
X157196278Y-111414071D01*
X157196079Y-111426698D01*
X157057694Y-111426698D01*
X157054391Y-111412409D01*
X157051118Y-111377515D01*
X157051140Y-111340412D01*
X157054449Y-111305341D01*
X157061042Y-111276543D01*
X157061214Y-111276039D01*
X157079963Y-111238072D01*
X157107173Y-111205838D01*
X157141048Y-111180926D01*
X157179793Y-111164927D01*
X157189141Y-111162689D01*
X157217170Y-111159123D01*
X157249657Y-111158450D01*
X157282654Y-111160445D01*
X157282662Y-111160445D01*
X157312245Y-111164881D01*
G37*
G36*
X159324922Y-97402398D02*
G01*
X159341652Y-97404963D01*
X159422709Y-97426027D01*
X159498508Y-97455837D01*
X159568205Y-97493884D01*
X159630956Y-97539659D01*
X159685915Y-97592653D01*
X159717965Y-97631951D01*
X159739098Y-97662638D01*
X159755777Y-97692166D01*
X159770047Y-97724624D01*
X159783808Y-97763659D01*
X159789908Y-97783611D01*
X159794316Y-97801833D01*
X159797390Y-97821047D01*
X159799486Y-97843971D01*
X159800963Y-97873324D01*
X159801879Y-97901194D01*
X159802726Y-97937115D01*
X159802768Y-97964560D01*
X159801822Y-97986224D01*
X159799707Y-98004804D01*
X159796239Y-98022995D01*
X159792627Y-98038066D01*
X159772430Y-98100451D01*
X159745008Y-98155136D01*
X159709646Y-98202977D01*
X159665631Y-98244827D01*
X159612248Y-98281544D01*
X159571035Y-98303626D01*
X159500156Y-98332474D01*
X159421677Y-98353805D01*
X159336438Y-98367448D01*
X159245278Y-98373234D01*
X159225561Y-98373435D01*
X159187797Y-98373483D01*
X159187797Y-97512177D01*
X159282907Y-97512177D01*
X159282907Y-98255994D01*
X159303887Y-98255971D01*
X159324149Y-98254686D01*
X159351681Y-98251263D01*
X159382902Y-98246306D01*
X159414234Y-98240414D01*
X159442097Y-98234191D01*
X159456301Y-98230358D01*
X159514007Y-98207972D01*
X159567183Y-98177106D01*
X159613279Y-98139258D01*
X159616219Y-98136342D01*
X159649367Y-98098560D01*
X159673711Y-98059810D01*
X159690102Y-98017893D01*
X159699394Y-97970612D01*
X159702441Y-97915769D01*
X159702444Y-97914213D01*
X159698720Y-97851166D01*
X159686993Y-97794917D01*
X159666652Y-97743865D01*
X159637089Y-97696409D01*
X159605184Y-97658682D01*
X159564308Y-97620702D01*
X159518958Y-97588837D01*
X159467758Y-97562439D01*
X159409335Y-97540860D01*
X159342313Y-97523453D01*
X159301090Y-97515388D01*
X159282907Y-97512177D01*
X159187797Y-97512177D01*
X159187797Y-97505836D01*
X159144438Y-97509234D01*
X159081550Y-97515501D01*
X159027351Y-97524014D01*
X158979466Y-97535331D01*
X158935522Y-97550013D01*
X158893643Y-97568375D01*
X158836117Y-97602191D01*
X158786663Y-97643243D01*
X158745772Y-97690925D01*
X158713933Y-97744632D01*
X158691636Y-97803761D01*
X158686497Y-97824172D01*
X158682305Y-97847023D01*
X158679925Y-97871313D01*
X158679189Y-97900139D01*
X158679929Y-97936594D01*
X158680120Y-97941903D01*
X158685132Y-98003559D01*
X158695911Y-98060585D01*
X158713294Y-98115439D01*
X158738115Y-98170582D01*
X158771213Y-98228472D01*
X158784849Y-98249748D01*
X158798456Y-98270695D01*
X158809430Y-98288022D01*
X158816517Y-98299715D01*
X158818546Y-98303706D01*
X158813339Y-98304795D01*
X158799266Y-98305665D01*
X158778649Y-98306212D01*
X158760385Y-98306346D01*
X158702223Y-98306346D01*
X158685203Y-98279771D01*
X158648379Y-98214101D01*
X158617929Y-98143015D01*
X158595344Y-98070314D01*
X158586159Y-98027330D01*
X158582619Y-97999444D01*
X158580205Y-97964759D01*
X158578918Y-97926158D01*
X158578762Y-97886525D01*
X158579739Y-97848744D01*
X158581852Y-97815700D01*
X158585102Y-97790275D01*
X158585959Y-97786038D01*
X158606908Y-97716789D01*
X158637580Y-97652737D01*
X158677480Y-97594526D01*
X158726111Y-97542798D01*
X158782976Y-97498194D01*
X158830092Y-97470138D01*
X158870167Y-97451714D01*
X158917561Y-97434221D01*
X158968412Y-97418954D01*
X159017158Y-97407538D01*
X159044473Y-97403558D01*
X159080011Y-97400492D01*
X159121255Y-97398359D01*
X159165686Y-97397180D01*
X159210786Y-97396975D01*
X159254038Y-97397762D01*
X159282907Y-97399099D01*
X159292922Y-97399563D01*
X159324922Y-97402398D01*
G37*
G36*
X160186519Y-102601385D02*
G01*
X160210508Y-102613227D01*
X160227048Y-102633301D01*
X160236402Y-102661869D01*
X160238583Y-102681382D01*
X160239064Y-102703110D01*
X160237030Y-102718094D01*
X160231617Y-102730657D01*
X160227388Y-102737359D01*
X160207397Y-102758185D01*
X160181815Y-102771912D01*
X160156050Y-102776514D01*
X160131759Y-102772334D01*
X160107096Y-102761328D01*
X160086459Y-102745826D01*
X160077568Y-102734903D01*
X160068631Y-102711525D01*
X160066013Y-102683747D01*
X160069724Y-102656411D01*
X160077326Y-102638002D01*
X160097104Y-102615334D01*
X160123230Y-102601853D01*
X160154819Y-102597512D01*
X160186519Y-102601385D01*
G37*
G36*
X160239603Y-96610415D02*
G01*
X160239526Y-96673729D01*
X160239274Y-96726973D01*
X160238814Y-96771264D01*
X160238113Y-96807719D01*
X160237139Y-96837458D01*
X160235859Y-96861597D01*
X160234240Y-96881255D01*
X160232249Y-96897549D01*
X160230975Y-96905536D01*
X160218932Y-96963449D01*
X160203958Y-97013252D01*
X160184990Y-97057867D01*
X160160964Y-97100215D01*
X160159129Y-97103074D01*
X160119442Y-97154662D01*
X160072802Y-97197490D01*
X160019227Y-97231550D01*
X159958738Y-97256834D01*
X159891351Y-97273333D01*
X159817087Y-97281040D01*
X159750066Y-97280744D01*
X159672093Y-97272503D01*
X159600794Y-97255476D01*
X159535626Y-97229429D01*
X159476047Y-97194127D01*
X159421513Y-97149335D01*
X159402873Y-97130696D01*
X159361836Y-97082343D01*
X159328671Y-97031081D01*
X159302033Y-96974447D01*
X159280579Y-96909973D01*
X159278596Y-96902738D01*
X159274608Y-96887498D01*
X159271404Y-96873603D01*
X159268881Y-96859569D01*
X159266933Y-96843911D01*
X159265455Y-96825144D01*
X159264343Y-96801783D01*
X159263492Y-96772343D01*
X159262797Y-96735339D01*
X159262153Y-96689287D01*
X159261857Y-96665696D01*
X159259602Y-96482470D01*
X159361233Y-96482470D01*
X159361431Y-96584573D01*
X159361814Y-96624177D01*
X159362743Y-96666408D01*
X159364098Y-96707379D01*
X159365760Y-96743203D01*
X159366770Y-96759408D01*
X159375860Y-96835781D01*
X159391803Y-96903495D01*
X159414740Y-96962845D01*
X159444812Y-97014127D01*
X159482162Y-97057635D01*
X159526931Y-97093665D01*
X159527445Y-97094007D01*
X159576687Y-97122030D01*
X159628589Y-97141872D01*
X159685143Y-97154078D01*
X159748343Y-97159194D01*
X159766850Y-97159430D01*
X159836675Y-97155145D01*
X159899338Y-97142318D01*
X159954779Y-97120995D01*
X160002939Y-97091220D01*
X160043757Y-97053036D01*
X160077172Y-97006490D01*
X160103126Y-96951624D01*
X160119033Y-96899483D01*
X160125303Y-96865752D01*
X160130433Y-96821621D01*
X160134373Y-96767823D01*
X160137075Y-96705095D01*
X160138493Y-96634171D01*
X160138701Y-96598560D01*
X160138898Y-96482470D01*
X159361233Y-96482470D01*
X159259602Y-96482470D01*
X158605947Y-96482470D01*
X158605947Y-96364981D01*
X160239603Y-96364981D01*
X160239603Y-96610415D01*
G37*
G36*
X159775242Y-98765113D02*
G01*
X159650760Y-98765181D01*
X159526277Y-98765249D01*
X159570219Y-98784433D01*
X159612945Y-98804555D01*
X159647829Y-98824683D01*
X159678020Y-98846928D01*
X159706665Y-98873402D01*
X159713671Y-98880632D01*
X159748613Y-98923506D01*
X159774820Y-98969015D01*
X159791137Y-99015138D01*
X159791582Y-99017030D01*
X159795260Y-99041475D01*
X159797135Y-99072431D01*
X159797265Y-99106206D01*
X159795705Y-99139105D01*
X159792513Y-99167435D01*
X159789012Y-99183701D01*
X159780403Y-99212690D01*
X159721409Y-99212690D01*
X159697517Y-99212322D01*
X159678690Y-99211327D01*
X159667125Y-99209867D01*
X159664566Y-99208494D01*
X159677332Y-99183103D01*
X159685766Y-99163906D01*
X159690764Y-99147204D01*
X159693223Y-99129299D01*
X159694042Y-99106494D01*
X159694119Y-99086676D01*
X159693911Y-99058874D01*
X159692887Y-99038990D01*
X159690445Y-99023756D01*
X159685985Y-99009902D01*
X159678905Y-98994159D01*
X159676020Y-98988253D01*
X159646138Y-98940185D01*
X159606606Y-98897541D01*
X159557632Y-98860449D01*
X159499423Y-98829039D01*
X159432187Y-98803438D01*
X159356130Y-98783776D01*
X159341652Y-98780903D01*
X159328151Y-98778453D01*
X159314753Y-98776354D01*
X159300460Y-98774571D01*
X159284276Y-98773069D01*
X159265203Y-98771812D01*
X159242243Y-98770764D01*
X159214401Y-98769890D01*
X159180677Y-98769155D01*
X159140076Y-98768523D01*
X159091599Y-98767958D01*
X159034250Y-98767425D01*
X158967031Y-98766889D01*
X158943028Y-98766709D01*
X158605947Y-98764206D01*
X158605947Y-98658813D01*
X159775242Y-98658813D01*
X159775242Y-98765113D01*
G37*
G36*
X157710793Y-111940663D02*
G01*
X157853593Y-111940663D01*
X157880311Y-112034375D01*
X157889030Y-112065384D01*
X157896533Y-112092884D01*
X157902320Y-112114974D01*
X157905892Y-112129758D01*
X157906818Y-112135080D01*
X157903977Y-112137745D01*
X157894864Y-112139693D01*
X157878319Y-112141007D01*
X157853180Y-112141769D01*
X157818287Y-112142063D01*
X157808700Y-112142073D01*
X157710793Y-112142073D01*
X157710793Y-112287536D01*
X157565330Y-112287536D01*
X157565330Y-112142073D01*
X157421266Y-112142104D01*
X157379707Y-112142335D01*
X157341470Y-112142971D01*
X157308231Y-112143952D01*
X157281665Y-112145220D01*
X157263446Y-112146717D01*
X157256582Y-112147863D01*
X157239056Y-112156177D01*
X157223035Y-112169078D01*
X157221179Y-112171157D01*
X157212893Y-112182322D01*
X157208869Y-112193087D01*
X157208107Y-112207685D01*
X157209002Y-112222745D01*
X157211105Y-112243955D01*
X157213787Y-112262863D01*
X157215685Y-112272150D01*
X157219762Y-112287536D01*
X157068875Y-112287536D01*
X157059746Y-112254999D01*
X157055445Y-112232576D01*
X157052561Y-112203097D01*
X157051115Y-112169766D01*
X157051131Y-112135791D01*
X157052629Y-112104377D01*
X157055633Y-112078729D01*
X157058442Y-112066544D01*
X157070553Y-112035290D01*
X157085998Y-112010655D01*
X157107687Y-111988077D01*
X157109484Y-111986482D01*
X157121953Y-111975798D01*
X157133549Y-111967071D01*
X157145543Y-111960088D01*
X157159201Y-111954638D01*
X157175795Y-111950509D01*
X157196593Y-111947490D01*
X157222863Y-111945369D01*
X157255875Y-111943935D01*
X157296898Y-111942975D01*
X157347201Y-111942279D01*
X157376509Y-111941960D01*
X157565330Y-111939987D01*
X157565330Y-111834364D01*
X157710793Y-111834364D01*
X157710793Y-111940663D01*
G37*
G36*
X157487155Y-106545724D02*
G01*
X157509509Y-106551525D01*
X157567715Y-106577675D01*
X157617457Y-106611058D01*
X157658635Y-106651573D01*
X157691151Y-106699120D01*
X157714908Y-106753597D01*
X157718556Y-106765170D01*
X157723617Y-106790547D01*
X157726635Y-106823312D01*
X157727603Y-106859853D01*
X157726512Y-106896554D01*
X157723353Y-106929801D01*
X157719001Y-106952781D01*
X157700557Y-107001994D01*
X157672714Y-107045816D01*
X157636464Y-107082985D01*
X157593522Y-107111858D01*
X157568479Y-107124488D01*
X157545880Y-107133828D01*
X157523105Y-107140450D01*
X157497533Y-107144927D01*
X157466545Y-107147828D01*
X157427519Y-107149726D01*
X157418469Y-107150037D01*
X157330352Y-107152925D01*
X157330352Y-106736106D01*
X157307410Y-106739184D01*
X157275434Y-106748863D01*
X157246287Y-106768022D01*
X157222333Y-106794961D01*
X157216281Y-106804716D01*
X157208517Y-106819329D01*
X157203360Y-106832299D01*
X157200168Y-106846707D01*
X157198298Y-106865635D01*
X157197107Y-106892164D01*
X157196932Y-106897454D01*
X157197376Y-106946016D01*
X157202616Y-106988077D01*
X157213373Y-107027559D01*
X157227087Y-107061350D01*
X157234432Y-107077732D01*
X157239421Y-107089491D01*
X157240837Y-107093520D01*
X157235588Y-107094308D01*
X157221222Y-107094963D01*
X157199813Y-107095425D01*
X157173434Y-107095635D01*
X157167791Y-107095641D01*
X157094745Y-107095641D01*
X157084072Y-107071514D01*
X157073459Y-107045248D01*
X157065537Y-107019504D01*
X157059890Y-106991818D01*
X157056101Y-106959727D01*
X157053755Y-106920767D01*
X157052697Y-106885840D01*
X157052071Y-106848648D01*
X157052157Y-106820209D01*
X157053115Y-106798100D01*
X157055105Y-106779898D01*
X157058286Y-106763179D01*
X157061634Y-106749835D01*
X157067979Y-106732588D01*
X157453436Y-106732588D01*
X157453436Y-106961368D01*
X157474416Y-106961337D01*
X157511082Y-106956641D01*
X157542803Y-106943151D01*
X157556402Y-106933115D01*
X157574500Y-106913113D01*
X157584402Y-106890695D01*
X157587224Y-106862794D01*
X157586666Y-106850034D01*
X157579024Y-106816208D01*
X157561523Y-106787417D01*
X157534439Y-106763948D01*
X157498046Y-106746091D01*
X157482808Y-106741117D01*
X157453436Y-106732588D01*
X157067979Y-106732588D01*
X157081536Y-106695739D01*
X157109966Y-106648778D01*
X157146555Y-106609305D01*
X157190933Y-106577674D01*
X157242728Y-106554236D01*
X157277564Y-106544170D01*
X157305566Y-106539677D01*
X157340356Y-106537213D01*
X157378923Y-106536681D01*
X157418253Y-106537986D01*
X157453436Y-106540876D01*
X157455334Y-106541032D01*
X157487155Y-106545724D01*
G37*
G36*
X157195065Y-99459250D02*
G01*
X157220542Y-99460402D01*
X157235988Y-99462269D01*
X157240837Y-99464638D01*
X157238470Y-99472593D01*
X157232410Y-99486667D01*
X157227487Y-99496808D01*
X157211634Y-99533868D01*
X157200088Y-99572760D01*
X157192847Y-99611838D01*
X157189909Y-99649453D01*
X157191272Y-99683958D01*
X157196934Y-99713706D01*
X157206894Y-99737050D01*
X157221150Y-99752341D01*
X157227775Y-99755729D01*
X157245298Y-99759402D01*
X157260820Y-99755644D01*
X157275036Y-99743687D01*
X157288642Y-99722761D01*
X157302335Y-99692094D01*
X157313532Y-99660891D01*
X157334452Y-99604343D01*
X157356253Y-99558262D01*
X157379727Y-99521929D01*
X157405663Y-99494623D01*
X157434850Y-99475622D01*
X157468080Y-99464206D01*
X157506141Y-99459654D01*
X157533653Y-99460024D01*
X157563387Y-99462830D01*
X157586485Y-99468123D01*
X157607405Y-99476926D01*
X157607515Y-99476983D01*
X157636676Y-99496478D01*
X157664492Y-99523163D01*
X157687278Y-99553284D01*
X157693956Y-99565053D01*
X157709669Y-99605119D01*
X157720654Y-99653037D01*
X157726797Y-99706466D01*
X157727983Y-99763065D01*
X157724096Y-99820491D01*
X157715022Y-99876403D01*
X157710222Y-99896644D01*
X157704767Y-99917624D01*
X157626656Y-99917624D01*
X157592187Y-99917215D01*
X157567335Y-99916014D01*
X157552642Y-99914062D01*
X157548546Y-99911806D01*
X157550920Y-99903517D01*
X157556856Y-99889853D01*
X157559307Y-99884896D01*
X157573473Y-99848790D01*
X157583200Y-99806378D01*
X157587562Y-99761975D01*
X157587709Y-99752618D01*
X157585202Y-99715849D01*
X157577558Y-99688617D01*
X157564593Y-99670426D01*
X157554785Y-99663928D01*
X157538028Y-99658659D01*
X157523072Y-99660570D01*
X157509200Y-99670423D01*
X157495693Y-99688978D01*
X157481833Y-99716998D01*
X157466902Y-99755243D01*
X157465851Y-99758174D01*
X157449418Y-99802037D01*
X157434445Y-99836900D01*
X157419947Y-99864681D01*
X157404941Y-99887300D01*
X157391289Y-99903645D01*
X157367559Y-99925804D01*
X157342685Y-99940725D01*
X157313850Y-99949507D01*
X157278236Y-99953249D01*
X157263209Y-99953574D01*
X157236672Y-99953340D01*
X157217582Y-99951844D01*
X157202211Y-99948413D01*
X157186833Y-99942378D01*
X157178155Y-99938261D01*
X157140595Y-99913736D01*
X157108840Y-99880048D01*
X157083358Y-99837871D01*
X157064619Y-99787877D01*
X157059651Y-99768259D01*
X157055284Y-99740337D01*
X157052474Y-99704617D01*
X157051227Y-99664384D01*
X157051547Y-99622922D01*
X157053441Y-99583513D01*
X157056913Y-99549444D01*
X157059284Y-99535228D01*
X157064169Y-99512496D01*
X157069328Y-99491351D01*
X157073179Y-99477882D01*
X157079458Y-99458857D01*
X157160147Y-99458857D01*
X157195065Y-99459250D01*
G37*
G36*
X157961362Y-104319265D02*
G01*
X157960868Y-104374202D01*
X157960392Y-104419197D01*
X157959856Y-104455493D01*
X157959181Y-104484336D01*
X157958286Y-104506971D01*
X157957093Y-104524644D01*
X157955523Y-104538601D01*
X157953497Y-104550086D01*
X157950935Y-104560345D01*
X157947759Y-104570624D01*
X157944827Y-104579385D01*
X157922615Y-104631652D01*
X157894232Y-104674690D01*
X157859319Y-104708832D01*
X157817520Y-104734411D01*
X157768477Y-104751759D01*
X157756284Y-104754588D01*
X157694576Y-104762767D01*
X157635917Y-104760838D01*
X157581080Y-104749147D01*
X157530840Y-104728040D01*
X157485969Y-104697864D01*
X157447242Y-104658963D01*
X157415432Y-104611684D01*
X157408983Y-104599273D01*
X157394314Y-104566528D01*
X157383573Y-104534689D01*
X157376254Y-104501095D01*
X157371852Y-104463086D01*
X157369861Y-104418000D01*
X157369612Y-104391996D01*
X157369515Y-104309474D01*
X157524575Y-104309474D01*
X157528468Y-104371011D01*
X157530857Y-104399442D01*
X157534174Y-104426764D01*
X157537911Y-104449194D01*
X157540369Y-104459509D01*
X157555161Y-104490433D01*
X157578651Y-104515457D01*
X157609223Y-104533021D01*
X157620571Y-104536908D01*
X157658548Y-104543289D01*
X157696364Y-104541173D01*
X157730636Y-104530875D01*
X157740772Y-104525630D01*
X157760898Y-104511362D01*
X157776258Y-104494078D01*
X157787560Y-104472068D01*
X157795512Y-104443621D01*
X157800823Y-104407027D01*
X157803429Y-104374349D01*
X157807424Y-104309474D01*
X157524575Y-104309474D01*
X157369515Y-104309474D01*
X157067401Y-104309474D01*
X157067401Y-104102470D01*
X157963266Y-104102470D01*
X157961362Y-104319265D01*
G37*
%TO.C,X1*%
X118570000Y-105860000D02*
X124050000Y-105860000D01*
X118570000Y-113260000D02*
X118570000Y-113200000D01*
X118570000Y-111000000D02*
X118570000Y-108120000D01*
X124050000Y-105860000D02*
X124050000Y-105920000D01*
X124050000Y-113200000D02*
X124050000Y-113260000D01*
X118110000Y-105920000D02*
X118570000Y-105920000D01*
X118570000Y-105920000D02*
X118570000Y-105860000D01*
X118570000Y-108120000D02*
X118110000Y-108120000D01*
X124050000Y-108120000D02*
X124050000Y-111000000D01*
X124050000Y-113260000D02*
X118570000Y-113260000D01*
%TO.C,TP4*%
X128237551Y-102762062D02*
G75*
G03*
X128237551Y-102762062I-700000J0D01*
G01*
%TO.C,C16*%
X112440000Y-97978733D02*
X112440000Y-98271267D01*
X113460000Y-97978733D02*
X113460000Y-98271267D01*
%TO.C,U1*%
X130872551Y-108362062D02*
X130872551Y-110562062D01*
X125402551Y-108362062D02*
X125402551Y-106162062D01*
X130872551Y-108362062D02*
X130872551Y-106162062D01*
X125402551Y-108362062D02*
X125402551Y-111962062D01*
%TO.C,SW1*%
X135970400Y-103906500D02*
X139729600Y-103906500D01*
X135970400Y-100137140D02*
X135970400Y-103906500D01*
X139729600Y-96412860D02*
X139729600Y-95143500D01*
X135970400Y-95143500D02*
X135970400Y-98912860D01*
X139729600Y-95143500D02*
X135970400Y-95143500D01*
X139729600Y-103906500D02*
X139729600Y-102637140D01*
X139729600Y-101412860D02*
X139729600Y-97637140D01*
%TO.C,R7*%
X178442224Y-104097098D02*
X177932776Y-104097098D01*
X178442224Y-105142098D02*
X177932776Y-105142098D01*
%TO.C,R2*%
X132507672Y-106445000D02*
X132172430Y-106445000D01*
X132507672Y-107205000D02*
X132172430Y-107205000D01*
%TO.C,C13*%
X111256267Y-105710000D02*
X110963733Y-105710000D01*
X111256267Y-106730000D02*
X110963733Y-106730000D01*
%TO.C,TP1*%
X130037551Y-102762062D02*
G75*
G03*
X130037551Y-102762062I-700000J0D01*
G01*
%TO.C,G\u002A\u002A\u002A*%
G36*
X152911520Y-105894176D02*
G01*
X152960042Y-105910201D01*
X153013519Y-105937107D01*
X153106439Y-106004193D01*
X153168368Y-106086933D01*
X153200511Y-106186986D01*
X153201923Y-106196449D01*
X153202045Y-106275793D01*
X153184329Y-106355202D01*
X153152636Y-106422765D01*
X153115364Y-106463590D01*
X153091916Y-106481592D01*
X153095942Y-106488652D01*
X153131145Y-106489890D01*
X153134380Y-106489890D01*
X153173712Y-106493797D01*
X153188934Y-106511215D01*
X153190947Y-106535302D01*
X153190947Y-106580714D01*
X152738943Y-106574798D01*
X152600587Y-106572853D01*
X152492557Y-106570800D01*
X152410073Y-106568218D01*
X152348354Y-106564687D01*
X152302620Y-106559786D01*
X152268091Y-106553095D01*
X152239987Y-106544194D01*
X152213528Y-106532662D01*
X152203311Y-106527700D01*
X152120831Y-106470060D01*
X152063735Y-106390058D01*
X152031001Y-106285972D01*
X152023442Y-106224244D01*
X152020196Y-106163405D01*
X152019740Y-106116230D01*
X152021781Y-106094935D01*
X152030460Y-106068341D01*
X152044686Y-106022421D01*
X152050644Y-106002779D01*
X152068779Y-105954744D01*
X152089652Y-105932800D01*
X152115675Y-105928177D01*
X152146520Y-105935205D01*
X152149020Y-105950119D01*
X152107025Y-106079474D01*
X152093669Y-106195301D01*
X152107808Y-106295257D01*
X152148298Y-106376998D01*
X152213995Y-106438182D01*
X152303755Y-106476466D01*
X152412468Y-106489505D01*
X152502890Y-106489890D01*
X152452211Y-106435639D01*
X152400350Y-106355986D01*
X152373472Y-106259964D01*
X152373906Y-106189414D01*
X152445566Y-106189414D01*
X152445906Y-106273409D01*
X152474924Y-106350963D01*
X152484744Y-106365496D01*
X152535372Y-106422869D01*
X152591552Y-106460319D01*
X152661893Y-106481347D01*
X152755004Y-106489454D01*
X152790683Y-106489890D01*
X152892186Y-106486209D01*
X152967069Y-106473409D01*
X153023213Y-106448852D01*
X153068501Y-106409903D01*
X153083614Y-106391916D01*
X153122587Y-106316773D01*
X153131513Y-106235247D01*
X153112923Y-106154045D01*
X153069347Y-106079872D01*
X153003315Y-106019433D01*
X152929412Y-105983191D01*
X152834291Y-105964182D01*
X152732657Y-105964912D01*
X152635687Y-105983798D01*
X152554558Y-106019257D01*
X152526062Y-106040318D01*
X152472689Y-106108533D01*
X152445566Y-106189414D01*
X152373906Y-106189414D01*
X152374067Y-106163295D01*
X152404686Y-106063870D01*
X152462796Y-105985424D01*
X152547092Y-105928856D01*
X152656268Y-105895066D01*
X152778438Y-105884871D01*
X152834291Y-105886235D01*
X152855587Y-105886755D01*
X152911520Y-105894176D01*
G37*
G36*
X153010527Y-102648473D02*
G01*
X153099852Y-102712594D01*
X153103220Y-102715917D01*
X153167231Y-102800800D01*
X153200086Y-102891300D01*
X153204020Y-102982192D01*
X153181269Y-103068251D01*
X153134069Y-103144251D01*
X153064655Y-103204969D01*
X152975261Y-103245178D01*
X152870594Y-103259650D01*
X152787215Y-103260036D01*
X152787215Y-102683219D01*
X152857429Y-102683219D01*
X152857429Y-103188944D01*
X152914478Y-103178099D01*
X153010469Y-103146603D01*
X153079996Y-103095517D01*
X153121035Y-103028035D01*
X153131562Y-102947353D01*
X153112865Y-102865019D01*
X153064861Y-102787185D01*
X152988235Y-102729143D01*
X152910713Y-102698500D01*
X152857429Y-102683219D01*
X152787215Y-102683219D01*
X152787215Y-102676281D01*
X152712612Y-102688053D01*
X152609307Y-102715819D01*
X152532302Y-102763695D01*
X152477440Y-102834329D01*
X152474544Y-102839767D01*
X152446020Y-102918037D01*
X152444388Y-102997469D01*
X152470188Y-103085828D01*
X152495357Y-103139297D01*
X152539784Y-103224928D01*
X152495754Y-103224928D01*
X152465211Y-103218168D01*
X152440688Y-103192666D01*
X152416199Y-103144620D01*
X152387806Y-103056236D01*
X152374164Y-102960351D01*
X152376589Y-102871264D01*
X152386829Y-102825442D01*
X152410960Y-102780869D01*
X152451605Y-102729150D01*
X152480040Y-102700184D01*
X152570367Y-102639520D01*
X152676665Y-102604220D01*
X152790848Y-102594082D01*
X152857429Y-102602738D01*
X152904830Y-102608901D01*
X153010527Y-102648473D01*
G37*
G36*
X154870920Y-102815938D02*
G01*
X154944499Y-102858371D01*
X154989130Y-102896839D01*
X155059957Y-102984704D01*
X155096561Y-103078132D01*
X155098655Y-103175686D01*
X155065955Y-103275929D01*
X155064789Y-103278258D01*
X155008145Y-103352337D01*
X154924005Y-103407108D01*
X154815218Y-103440915D01*
X154773615Y-103447283D01*
X154682999Y-103458015D01*
X154682999Y-102870051D01*
X154753214Y-102870051D01*
X154753214Y-103117704D01*
X154753407Y-103215271D01*
X154754543Y-103283123D01*
X154757457Y-103326655D01*
X154762985Y-103351259D01*
X154771960Y-103362329D01*
X154785218Y-103365257D01*
X154791555Y-103365357D01*
X154830482Y-103357844D01*
X154883085Y-103338948D01*
X154904022Y-103329474D01*
X154973709Y-103280034D01*
X155015415Y-103216968D01*
X155030451Y-103146003D01*
X155020128Y-103072861D01*
X154985759Y-103003270D01*
X154928655Y-102942952D01*
X154850128Y-102897634D01*
X154801486Y-102881951D01*
X154753214Y-102870051D01*
X154682999Y-102870051D01*
X154682999Y-102869391D01*
X154593924Y-102877950D01*
X154496725Y-102902137D01*
X154420975Y-102950900D01*
X154368904Y-103019432D01*
X154342742Y-103102930D01*
X154344721Y-103196588D01*
X154377069Y-103295602D01*
X154389220Y-103318951D01*
X154436015Y-103402677D01*
X154388360Y-103397182D01*
X154346525Y-103375962D01*
X154311574Y-103327816D01*
X154285538Y-103260590D01*
X154270450Y-103182128D01*
X154268340Y-103100275D01*
X154281242Y-103022875D01*
X154286916Y-103005509D01*
X154336665Y-102918071D01*
X154413008Y-102851585D01*
X154513331Y-102807523D01*
X154635020Y-102787357D01*
X154676259Y-102786187D01*
X154753214Y-102791070D01*
X154784913Y-102793081D01*
X154870920Y-102815938D01*
G37*
G36*
X152911520Y-100557894D02*
G01*
X152960042Y-100573919D01*
X153013519Y-100600825D01*
X153106439Y-100667911D01*
X153168368Y-100750651D01*
X153200511Y-100850704D01*
X153201923Y-100860167D01*
X153202045Y-100939511D01*
X153184329Y-101018920D01*
X153152636Y-101086483D01*
X153115364Y-101127308D01*
X153091916Y-101145310D01*
X153095942Y-101152370D01*
X153131145Y-101153608D01*
X153134380Y-101153608D01*
X153173712Y-101157515D01*
X153188934Y-101174933D01*
X153190947Y-101199020D01*
X153190947Y-101244432D01*
X152738943Y-101238516D01*
X152600587Y-101236571D01*
X152492557Y-101234518D01*
X152410073Y-101231936D01*
X152348354Y-101228405D01*
X152302620Y-101223504D01*
X152268091Y-101216813D01*
X152239987Y-101207912D01*
X152213528Y-101196380D01*
X152203311Y-101191418D01*
X152120831Y-101133778D01*
X152063735Y-101053776D01*
X152031001Y-100949690D01*
X152023442Y-100887962D01*
X152020196Y-100827123D01*
X152019740Y-100779948D01*
X152021781Y-100758653D01*
X152030460Y-100732059D01*
X152044686Y-100686139D01*
X152050644Y-100666497D01*
X152068779Y-100618462D01*
X152089652Y-100596518D01*
X152115675Y-100591895D01*
X152146520Y-100598923D01*
X152149020Y-100613837D01*
X152107025Y-100743192D01*
X152093669Y-100859019D01*
X152107808Y-100958975D01*
X152148298Y-101040716D01*
X152213995Y-101101900D01*
X152303755Y-101140184D01*
X152412468Y-101153223D01*
X152502890Y-101153608D01*
X152452211Y-101099357D01*
X152400350Y-101019704D01*
X152373472Y-100923682D01*
X152373906Y-100853133D01*
X152445566Y-100853133D01*
X152445906Y-100937127D01*
X152474924Y-101014681D01*
X152484744Y-101029214D01*
X152535372Y-101086587D01*
X152591552Y-101124037D01*
X152661893Y-101145065D01*
X152755004Y-101153172D01*
X152790683Y-101153608D01*
X152892186Y-101149927D01*
X152967069Y-101137127D01*
X153023213Y-101112570D01*
X153068501Y-101073621D01*
X153083614Y-101055634D01*
X153122587Y-100980491D01*
X153131513Y-100898965D01*
X153112923Y-100817763D01*
X153069347Y-100743590D01*
X153003315Y-100683151D01*
X152929412Y-100646909D01*
X152834291Y-100627900D01*
X152732657Y-100628630D01*
X152635687Y-100647516D01*
X152554558Y-100682975D01*
X152526062Y-100704036D01*
X152472689Y-100772251D01*
X152445566Y-100853133D01*
X152373906Y-100853133D01*
X152374067Y-100827013D01*
X152404686Y-100727588D01*
X152462796Y-100649142D01*
X152547092Y-100592574D01*
X152656268Y-100558784D01*
X152778438Y-100548589D01*
X152834291Y-100549953D01*
X152855587Y-100550473D01*
X152911520Y-100557894D01*
G37*
G36*
X153190947Y-105129490D02*
G01*
X153186216Y-105159405D01*
X153165094Y-105171471D01*
X153130860Y-105173374D01*
X153070772Y-105173374D01*
X153120659Y-105223260D01*
X153170083Y-105294119D01*
X153197644Y-105379610D01*
X153202245Y-105469077D01*
X153182789Y-105551864D01*
X153158851Y-105594247D01*
X153127315Y-105632273D01*
X153093388Y-105661009D01*
X153051635Y-105681868D01*
X152996622Y-105696263D01*
X152922912Y-105705608D01*
X152825073Y-105711315D01*
X152697668Y-105714799D01*
X152695059Y-105714850D01*
X152383483Y-105720944D01*
X152383483Y-105629766D01*
X152674852Y-105629766D01*
X152805382Y-105628462D01*
X152905604Y-105623714D01*
X152980248Y-105614266D01*
X153034046Y-105598863D01*
X153071729Y-105576250D01*
X153098027Y-105545171D01*
X153114115Y-105513207D01*
X153133383Y-105456296D01*
X153134926Y-105408527D01*
X153117861Y-105354488D01*
X153103177Y-105322576D01*
X153049807Y-105249176D01*
X152999854Y-105211712D01*
X152970786Y-105196989D01*
X152940144Y-105186579D01*
X152901365Y-105179749D01*
X152847884Y-105175762D01*
X152773136Y-105173883D01*
X152670559Y-105173377D01*
X152657562Y-105173374D01*
X152383483Y-105173374D01*
X152383483Y-105085606D01*
X153190947Y-105085606D01*
X153190947Y-105129490D01*
G37*
G36*
X152916240Y-104243143D02*
G01*
X153014379Y-104243712D01*
X153085852Y-104245109D01*
X153134880Y-104247701D01*
X153165682Y-104251855D01*
X153182480Y-104257938D01*
X153189494Y-104266316D01*
X153190945Y-104277358D01*
X153190947Y-104278142D01*
X153185426Y-104300588D01*
X153162815Y-104310901D01*
X153116344Y-104313365D01*
X153041742Y-104313480D01*
X153094402Y-104348137D01*
X153144425Y-104392625D01*
X153180932Y-104447216D01*
X153202669Y-104504871D01*
X153208379Y-104558555D01*
X153196806Y-104601231D01*
X153166695Y-104625863D01*
X153144567Y-104629213D01*
X153114925Y-104625490D01*
X153113991Y-104607970D01*
X153121284Y-104593077D01*
X153133998Y-104535726D01*
X153117046Y-104475978D01*
X153074947Y-104419421D01*
X153012222Y-104371645D01*
X152933391Y-104338240D01*
X152910610Y-104332554D01*
X152856865Y-104324896D01*
X152778878Y-104318675D01*
X152687503Y-104314572D01*
X152602039Y-104313249D01*
X152511188Y-104312927D01*
X152449729Y-104311349D01*
X152411947Y-104307597D01*
X152392129Y-104300753D01*
X152384560Y-104289900D01*
X152383483Y-104278142D01*
X152384727Y-104266922D01*
X152391271Y-104258389D01*
X152407336Y-104252174D01*
X152437143Y-104247910D01*
X152484913Y-104245232D01*
X152554865Y-104243771D01*
X152651220Y-104243161D01*
X152778199Y-104243035D01*
X152787215Y-104243035D01*
X152916240Y-104243143D01*
G37*
G36*
X152916240Y-104769750D02*
G01*
X153014379Y-104770319D01*
X153085852Y-104771716D01*
X153134880Y-104774308D01*
X153165682Y-104778462D01*
X153182480Y-104784544D01*
X153189494Y-104792923D01*
X153190945Y-104803965D01*
X153190947Y-104804749D01*
X153189703Y-104815968D01*
X153183159Y-104824502D01*
X153167094Y-104830717D01*
X153137286Y-104834981D01*
X153089517Y-104837659D01*
X153019565Y-104839120D01*
X152923210Y-104839730D01*
X152796231Y-104839856D01*
X152787215Y-104839856D01*
X152658189Y-104839748D01*
X152560050Y-104839179D01*
X152488577Y-104837782D01*
X152439550Y-104835190D01*
X152408748Y-104831036D01*
X152391950Y-104824953D01*
X152384936Y-104816574D01*
X152383485Y-104805533D01*
X152383483Y-104804749D01*
X152384727Y-104793529D01*
X152391271Y-104784995D01*
X152407336Y-104778780D01*
X152437143Y-104774517D01*
X152484913Y-104771839D01*
X152554865Y-104770378D01*
X152651220Y-104769768D01*
X152778199Y-104769642D01*
X152787215Y-104769642D01*
X152916240Y-104769750D01*
G37*
G36*
X154567250Y-105446415D02*
G01*
X154632901Y-105477597D01*
X154683658Y-105533169D01*
X154721853Y-105616081D01*
X154749819Y-105729280D01*
X154758615Y-105783362D01*
X154780854Y-105936953D01*
X154856007Y-105935349D01*
X154931334Y-105919615D01*
X154985889Y-105879282D01*
X155018004Y-105819206D01*
X155026015Y-105744240D01*
X155008255Y-105659238D01*
X154975053Y-105588428D01*
X154927269Y-105506891D01*
X154979218Y-105506891D01*
X155011996Y-105510942D01*
X155034336Y-105528739D01*
X155054778Y-105568748D01*
X155063337Y-105590271D01*
X155085697Y-105672749D01*
X155094260Y-105760731D01*
X155089000Y-105842464D01*
X155069892Y-105906195D01*
X155064055Y-105916286D01*
X155037536Y-105951645D01*
X155007006Y-105978558D01*
X154967379Y-105998275D01*
X154913574Y-106012047D01*
X154840504Y-106021124D01*
X154743086Y-106026756D01*
X154616236Y-106030194D01*
X154599620Y-106030504D01*
X154279267Y-106036286D01*
X154279267Y-105991008D01*
X154283307Y-105961028D01*
X154302235Y-105948312D01*
X154344148Y-105945730D01*
X154409029Y-105945730D01*
X154352632Y-105887543D01*
X154294004Y-105804806D01*
X154266013Y-105712733D01*
X154266200Y-105708355D01*
X154337864Y-105708355D01*
X154355926Y-105779247D01*
X154380827Y-105821359D01*
X154443045Y-105886765D01*
X154516039Y-105925240D01*
X154609967Y-105942127D01*
X154610431Y-105942161D01*
X154713871Y-105949643D01*
X154689057Y-105794686D01*
X154667585Y-105686254D01*
X154641702Y-105608309D01*
X154609061Y-105556292D01*
X154567319Y-105525643D01*
X154546823Y-105518135D01*
X154476788Y-105512983D01*
X154417377Y-105535819D01*
X154372087Y-105580252D01*
X154344417Y-105639894D01*
X154337864Y-105708355D01*
X154266200Y-105708355D01*
X154270049Y-105618090D01*
X154286665Y-105566840D01*
X154335156Y-105494911D01*
X154404135Y-105450721D01*
X154476788Y-105438004D01*
X154484372Y-105436677D01*
X154567250Y-105446415D01*
G37*
G36*
X153506911Y-99503574D02*
G01*
X153419143Y-99503574D01*
X153419143Y-99064735D01*
X152980304Y-99064735D01*
X152980304Y-99266601D01*
X152979932Y-99353335D01*
X152978126Y-99410903D01*
X152973854Y-99445245D01*
X152966083Y-99462302D01*
X152953780Y-99468011D01*
X152945197Y-99468467D01*
X152930113Y-99466326D01*
X152920101Y-99455944D01*
X152914128Y-99431380D01*
X152911162Y-99386697D01*
X152910169Y-99315953D01*
X152910090Y-99266601D01*
X152910090Y-99064735D01*
X152471251Y-99064735D01*
X152471251Y-99521127D01*
X152383483Y-99521127D01*
X152383483Y-98976967D01*
X153506911Y-98976967D01*
X153506911Y-99503574D01*
G37*
G36*
X155086731Y-101811867D02*
G01*
X155082274Y-101841312D01*
X155062062Y-101853539D01*
X155023947Y-101855751D01*
X154961163Y-101855751D01*
X155013998Y-101900209D01*
X155057293Y-101948826D01*
X155086126Y-102005072D01*
X155099595Y-102061330D01*
X155096800Y-102109978D01*
X155076839Y-102143398D01*
X155044038Y-102154161D01*
X155015950Y-102151082D01*
X155010908Y-102134960D01*
X155021014Y-102103823D01*
X155025731Y-102044885D01*
X154999984Y-101984837D01*
X154947580Y-101930179D01*
X154902419Y-101901347D01*
X154870963Y-101886954D01*
X154835686Y-101876522D01*
X154790018Y-101869248D01*
X154727387Y-101864327D01*
X154641225Y-101860956D01*
X154555736Y-101858931D01*
X154279267Y-101853335D01*
X154279267Y-101767983D01*
X155086731Y-101767983D01*
X155086731Y-101811867D01*
G37*
G36*
X152916240Y-101803198D02*
G01*
X153014379Y-101803767D01*
X153085852Y-101805164D01*
X153134880Y-101807756D01*
X153165682Y-101811910D01*
X153182480Y-101817993D01*
X153189494Y-101826372D01*
X153190945Y-101837413D01*
X153190947Y-101838197D01*
X153185116Y-101861088D01*
X153161500Y-101871259D01*
X153120122Y-101873304D01*
X153049297Y-101873304D01*
X153111100Y-101927569D01*
X153167269Y-101998754D01*
X153198372Y-102085750D01*
X153203273Y-102178673D01*
X153180832Y-102267644D01*
X153155452Y-102312687D01*
X153124922Y-102347860D01*
X153086747Y-102374466D01*
X153035989Y-102393598D01*
X152967708Y-102406347D01*
X152876967Y-102413806D01*
X152758826Y-102417066D01*
X152681538Y-102417465D01*
X152572887Y-102417280D01*
X152494437Y-102416342D01*
X152441282Y-102414072D01*
X152408516Y-102409892D01*
X152391234Y-102403224D01*
X152384529Y-102393491D01*
X152383483Y-102382358D01*
X152385250Y-102368692D01*
X152394080Y-102359123D01*
X152415264Y-102352923D01*
X152454097Y-102349365D01*
X152515870Y-102347721D01*
X152605876Y-102347265D01*
X152639013Y-102347251D01*
X152786946Y-102344663D01*
X152903397Y-102335951D01*
X152991677Y-102319694D01*
X153055094Y-102294469D01*
X153096960Y-102258854D01*
X153120582Y-102211427D01*
X153129272Y-102150765D01*
X153129509Y-102136481D01*
X153115940Y-102049180D01*
X153073465Y-101978210D01*
X152999435Y-101919218D01*
X152996023Y-101917188D01*
X152968496Y-101903455D01*
X152935560Y-101893454D01*
X152890925Y-101886416D01*
X152828303Y-101881575D01*
X152741406Y-101878162D01*
X152659952Y-101876151D01*
X152555710Y-101873652D01*
X152481506Y-101870864D01*
X152432276Y-101867063D01*
X152402952Y-101861525D01*
X152388470Y-101853525D01*
X152383763Y-101842341D01*
X152383483Y-101836655D01*
X152385038Y-101825921D01*
X152392512Y-101817755D01*
X152410115Y-101811808D01*
X152442061Y-101807729D01*
X152492560Y-101805167D01*
X152565825Y-101803774D01*
X152666068Y-101803199D01*
X152787215Y-101803090D01*
X152916240Y-101803198D01*
G37*
G36*
X154990680Y-98940915D02*
G01*
X155090516Y-98965869D01*
X155117047Y-98976157D01*
X155203518Y-99027645D01*
X155285766Y-99100859D01*
X155352362Y-99184506D01*
X155380906Y-99236942D01*
X155401742Y-99312719D01*
X155410791Y-99407834D01*
X155408253Y-99508626D01*
X155394329Y-99601436D01*
X155374671Y-99661753D01*
X155306508Y-99768291D01*
X155210107Y-99855074D01*
X155121945Y-99905354D01*
X155070497Y-99926940D01*
X155022011Y-99940355D01*
X154965348Y-99947436D01*
X154889368Y-99950017D01*
X154849758Y-99950201D01*
X154763600Y-99949043D01*
X154701052Y-99944246D01*
X154650656Y-99933823D01*
X154600954Y-99915788D01*
X154568901Y-99901506D01*
X154501292Y-99865015D01*
X154436602Y-99821595D01*
X154400574Y-99791482D01*
X154337568Y-99730153D01*
X154243539Y-99853836D01*
X154201167Y-99908836D01*
X154167413Y-99951264D01*
X154147366Y-99974788D01*
X154144174Y-99977520D01*
X154140791Y-99961956D01*
X154138951Y-99923210D01*
X154138839Y-99909322D01*
X154143871Y-99864254D01*
X154162447Y-99820615D01*
X154199788Y-99767503D01*
X154216897Y-99746309D01*
X154294955Y-99651493D01*
X154275104Y-99535604D01*
X154269918Y-99444647D01*
X154351729Y-99444647D01*
X154358685Y-99533046D01*
X154368301Y-99579419D01*
X154411724Y-99672735D01*
X154483455Y-99750060D01*
X154579397Y-99808903D01*
X154695451Y-99846775D01*
X154827519Y-99861186D01*
X154832205Y-99861234D01*
X154954369Y-99855979D01*
X155051475Y-99836687D01*
X155131586Y-99800951D01*
X155195791Y-99752768D01*
X155271787Y-99665568D01*
X155316335Y-99567004D01*
X155332015Y-99451214D01*
X155332095Y-99443290D01*
X155317004Y-99323620D01*
X155272547Y-99220460D01*
X155201361Y-99135886D01*
X155106082Y-99071977D01*
X154989349Y-99030808D01*
X154853798Y-99014458D01*
X154789140Y-99015645D01*
X154657122Y-99036738D01*
X154544447Y-99082349D01*
X154454360Y-99150394D01*
X154390106Y-99238794D01*
X154370661Y-99284154D01*
X154355766Y-99356084D01*
X154351729Y-99444647D01*
X154269918Y-99444647D01*
X154267294Y-99398624D01*
X154290422Y-99271789D01*
X154341990Y-99158990D01*
X154419502Y-99064119D01*
X154520462Y-98991069D01*
X154642372Y-98943732D01*
X154657002Y-98940251D01*
X154759884Y-98927011D01*
X154853798Y-98927486D01*
X154875789Y-98927597D01*
X154990680Y-98940915D01*
G37*
G36*
X155086731Y-100223270D02*
G01*
X154806229Y-100223270D01*
X154687528Y-100224209D01*
X154598155Y-100227329D01*
X154532373Y-100233084D01*
X154484444Y-100241930D01*
X154456511Y-100250965D01*
X154392003Y-100292449D01*
X154352845Y-100350420D01*
X154337984Y-100418223D01*
X154346371Y-100489204D01*
X154376953Y-100556709D01*
X154428680Y-100614084D01*
X154500499Y-100654673D01*
X154521354Y-100661386D01*
X154562705Y-100668019D01*
X154630580Y-100673573D01*
X154716403Y-100677554D01*
X154811596Y-100679467D01*
X154836593Y-100679565D01*
X154934840Y-100679856D01*
X155003330Y-100681141D01*
X155047410Y-100684173D01*
X155072429Y-100689704D01*
X155083734Y-100698488D01*
X155086675Y-100711277D01*
X155086731Y-100714770D01*
X155085488Y-100725989D01*
X155078943Y-100734523D01*
X155062878Y-100740738D01*
X155033071Y-100745001D01*
X154985302Y-100747680D01*
X154915349Y-100749140D01*
X154818994Y-100749750D01*
X154692015Y-100749876D01*
X154682999Y-100749877D01*
X154553974Y-100749769D01*
X154455835Y-100749199D01*
X154384362Y-100747802D01*
X154335334Y-100745211D01*
X154304532Y-100741057D01*
X154287734Y-100734974D01*
X154280720Y-100726595D01*
X154279270Y-100715554D01*
X154279267Y-100714770D01*
X154285627Y-100691191D01*
X154310901Y-100681214D01*
X154344914Y-100679662D01*
X154410560Y-100679662D01*
X154360521Y-100633263D01*
X154297838Y-100553578D01*
X154267933Y-100461704D01*
X154271071Y-100358697D01*
X154280975Y-100316881D01*
X154317751Y-100250153D01*
X154382574Y-100196180D01*
X154469307Y-100159720D01*
X154490262Y-100154620D01*
X154540920Y-100147589D01*
X154617244Y-100141722D01*
X154709797Y-100137545D01*
X154809142Y-100135584D01*
X154833069Y-100135502D01*
X155086731Y-100135502D01*
X155086731Y-100223270D01*
G37*
G36*
X153190947Y-101557340D02*
G01*
X152383483Y-101557340D01*
X152383483Y-101469573D01*
X153190947Y-101469573D01*
X153190947Y-101557340D01*
G37*
G36*
X153469717Y-101459014D02*
G01*
X153497034Y-101484647D01*
X153498755Y-101489083D01*
X153497628Y-101532146D01*
X153471473Y-101562091D01*
X153430227Y-101568982D01*
X153421100Y-101566738D01*
X153393529Y-101542412D01*
X153382552Y-101503261D01*
X153392602Y-101467281D01*
X153395738Y-101463721D01*
X153429953Y-101450562D01*
X153469717Y-101459014D01*
G37*
G36*
X155083866Y-106171337D02*
G01*
X155086731Y-106197522D01*
X155084238Y-106212143D01*
X155074043Y-106226218D01*
X155052071Y-106241739D01*
X155014248Y-106260695D01*
X154956498Y-106285079D01*
X154874748Y-106316881D01*
X154764923Y-106358091D01*
X154736449Y-106368670D01*
X154634534Y-106407105D01*
X154546240Y-106441587D01*
X154475984Y-106470289D01*
X154428182Y-106491388D01*
X154407253Y-106503057D01*
X154407320Y-106504656D01*
X154429596Y-106512470D01*
X154479358Y-106530762D01*
X154551270Y-106557541D01*
X154639997Y-106590822D01*
X154740204Y-106628615D01*
X154757602Y-106635196D01*
X154870222Y-106678153D01*
X154954017Y-106711222D01*
X155013161Y-106736498D01*
X155051829Y-106756077D01*
X155074196Y-106772051D01*
X155084434Y-106786517D01*
X155086731Y-106800354D01*
X155081689Y-106831761D01*
X155073026Y-106840962D01*
X155053518Y-106834690D01*
X155006149Y-106817084D01*
X154935611Y-106789961D01*
X154846594Y-106755134D01*
X154743790Y-106714421D01*
X154673683Y-106686416D01*
X154547371Y-106635304D01*
X154450420Y-106594771D01*
X154379307Y-106563102D01*
X154330508Y-106538579D01*
X154300500Y-106519488D01*
X154285760Y-106504113D01*
X154282792Y-106496052D01*
X154284332Y-106483439D01*
X154295175Y-106470029D01*
X154319017Y-106454029D01*
X154359557Y-106433645D01*
X154420489Y-106407081D01*
X154505513Y-106372545D01*
X154618324Y-106328241D01*
X154669685Y-106308303D01*
X154779894Y-106265797D01*
X154879168Y-106227878D01*
X154962844Y-106196296D01*
X155026260Y-106172802D01*
X155064754Y-106159146D01*
X155074280Y-106156373D01*
X155083866Y-106171337D01*
G37*
G36*
X152916240Y-99749432D02*
G01*
X153014379Y-99750001D01*
X153085852Y-99751398D01*
X153134880Y-99753990D01*
X153165682Y-99758144D01*
X153182480Y-99764227D01*
X153189494Y-99772605D01*
X153190945Y-99783647D01*
X153190947Y-99784431D01*
X153185116Y-99807322D01*
X153161500Y-99817493D01*
X153120122Y-99819538D01*
X153049297Y-99819538D01*
X153111100Y-99873802D01*
X153167269Y-99944988D01*
X153198372Y-100031983D01*
X153203273Y-100124907D01*
X153180832Y-100213877D01*
X153155452Y-100258921D01*
X153124922Y-100294094D01*
X153086747Y-100320700D01*
X153035989Y-100339832D01*
X152967708Y-100352581D01*
X152876967Y-100360040D01*
X152758826Y-100363299D01*
X152681538Y-100363698D01*
X152572887Y-100363514D01*
X152494437Y-100362576D01*
X152441282Y-100360305D01*
X152408516Y-100356125D01*
X152391234Y-100349458D01*
X152384529Y-100339725D01*
X152383483Y-100328591D01*
X152385250Y-100314926D01*
X152394080Y-100305357D01*
X152415264Y-100299157D01*
X152454097Y-100295598D01*
X152515870Y-100293955D01*
X152605876Y-100293498D01*
X152639013Y-100293484D01*
X152786946Y-100290896D01*
X152903397Y-100282185D01*
X152991677Y-100265928D01*
X153055094Y-100240703D01*
X153096960Y-100205088D01*
X153120582Y-100157660D01*
X153129272Y-100096998D01*
X153129509Y-100082714D01*
X153115940Y-99995413D01*
X153073465Y-99924443D01*
X152999435Y-99865451D01*
X152996023Y-99863422D01*
X152968496Y-99849689D01*
X152935560Y-99839687D01*
X152890925Y-99832650D01*
X152828303Y-99827809D01*
X152741406Y-99824395D01*
X152659952Y-99822384D01*
X152555710Y-99819886D01*
X152481506Y-99817098D01*
X152432276Y-99813297D01*
X152402952Y-99807758D01*
X152388470Y-99799759D01*
X152383763Y-99788575D01*
X152383483Y-99782889D01*
X152385038Y-99772154D01*
X152392512Y-99763989D01*
X152410115Y-99758041D01*
X152442061Y-99753962D01*
X152492560Y-99751401D01*
X152565825Y-99750008D01*
X152666068Y-99749432D01*
X152787215Y-99749324D01*
X152916240Y-99749432D01*
G37*
G36*
X155074705Y-102265455D02*
G01*
X155084826Y-102289521D01*
X155086731Y-102328821D01*
X155086731Y-102398159D01*
X155185732Y-102403424D01*
X155244306Y-102408602D01*
X155277429Y-102418747D01*
X155294736Y-102437656D01*
X155299264Y-102448183D01*
X155305237Y-102469417D01*
X155298791Y-102481238D01*
X155273026Y-102486399D01*
X155221041Y-102487653D01*
X155200264Y-102487679D01*
X155086731Y-102487679D01*
X155086731Y-102593000D01*
X155085450Y-102651824D01*
X155079823Y-102683610D01*
X155067174Y-102696385D01*
X155051624Y-102698322D01*
X155032016Y-102694479D01*
X155021421Y-102677597D01*
X155017162Y-102639649D01*
X155016517Y-102593000D01*
X155016517Y-102487679D01*
X154709330Y-102487679D01*
X154597699Y-102487954D01*
X154515754Y-102489149D01*
X154458075Y-102491820D01*
X154419240Y-102496524D01*
X154393831Y-102503815D01*
X154376427Y-102514250D01*
X154367035Y-102522786D01*
X154338756Y-102560913D01*
X154334342Y-102602501D01*
X154349047Y-102653295D01*
X154357897Y-102685816D01*
X154346475Y-102697306D01*
X154331059Y-102698322D01*
X154295776Y-102682999D01*
X154273232Y-102642737D01*
X154265656Y-102586090D01*
X154275277Y-102521616D01*
X154280723Y-102505023D01*
X154295070Y-102473422D01*
X154314899Y-102449467D01*
X154344954Y-102431990D01*
X154389979Y-102419826D01*
X154454719Y-102411809D01*
X154543919Y-102406772D01*
X154662322Y-102403549D01*
X154696164Y-102402905D01*
X155016517Y-102397123D01*
X155016517Y-102328303D01*
X155019590Y-102282925D01*
X155031949Y-102263120D01*
X155051624Y-102259483D01*
X155074705Y-102265455D01*
G37*
G36*
X155086731Y-103672544D02*
G01*
X155082274Y-103701990D01*
X155062062Y-103714216D01*
X155023947Y-103716428D01*
X154961163Y-103716428D01*
X155013998Y-103760886D01*
X155057293Y-103809503D01*
X155086126Y-103865750D01*
X155099595Y-103922007D01*
X155096800Y-103970655D01*
X155076839Y-104004075D01*
X155044038Y-104014839D01*
X155015950Y-104011759D01*
X155010908Y-103995637D01*
X155021014Y-103964500D01*
X155025731Y-103905563D01*
X154999984Y-103845514D01*
X154947580Y-103790856D01*
X154902419Y-103762024D01*
X154870963Y-103747631D01*
X154835686Y-103737200D01*
X154790018Y-103729925D01*
X154727387Y-103725005D01*
X154641225Y-103721633D01*
X154555736Y-103719609D01*
X154279267Y-103714012D01*
X154279267Y-103628660D01*
X155086731Y-103628660D01*
X155086731Y-103672544D01*
G37*
G36*
X154870920Y-106958578D02*
G01*
X154944499Y-107001011D01*
X154989130Y-107039479D01*
X155059957Y-107127344D01*
X155096561Y-107220772D01*
X155098655Y-107318325D01*
X155065955Y-107418569D01*
X155064789Y-107420898D01*
X155008145Y-107494977D01*
X154924005Y-107549747D01*
X154815218Y-107583555D01*
X154773615Y-107589923D01*
X154682999Y-107600655D01*
X154682999Y-107012691D01*
X154753214Y-107012691D01*
X154753214Y-107260344D01*
X154753407Y-107357911D01*
X154754543Y-107425763D01*
X154757457Y-107469295D01*
X154762985Y-107493899D01*
X154771960Y-107504969D01*
X154785218Y-107507897D01*
X154791555Y-107507997D01*
X154830482Y-107500484D01*
X154883085Y-107481588D01*
X154904022Y-107472114D01*
X154973709Y-107422674D01*
X155015415Y-107359608D01*
X155030451Y-107288642D01*
X155020128Y-107215501D01*
X154985759Y-107145910D01*
X154928655Y-107085592D01*
X154850128Y-107040274D01*
X154801486Y-107024591D01*
X154753214Y-107012691D01*
X154682999Y-107012691D01*
X154682999Y-107012031D01*
X154593924Y-107020590D01*
X154496725Y-107044777D01*
X154420975Y-107093540D01*
X154368904Y-107162072D01*
X154342742Y-107245570D01*
X154344721Y-107339228D01*
X154377069Y-107438242D01*
X154389220Y-107461591D01*
X154436015Y-107545317D01*
X154388360Y-107539822D01*
X154346525Y-107518602D01*
X154311574Y-107470456D01*
X154285538Y-107403230D01*
X154270450Y-107324768D01*
X154268340Y-107242915D01*
X154281242Y-107165515D01*
X154286916Y-107148149D01*
X154336665Y-107060711D01*
X154413008Y-106994225D01*
X154513331Y-106950163D01*
X154635020Y-106929997D01*
X154676259Y-106928827D01*
X154753214Y-106933710D01*
X154784913Y-106935721D01*
X154870920Y-106958578D01*
G37*
G36*
X152975136Y-103430313D02*
G01*
X153048715Y-103472746D01*
X153093345Y-103511213D01*
X153164173Y-103599078D01*
X153200776Y-103692506D01*
X153202871Y-103790060D01*
X153170170Y-103890303D01*
X153169005Y-103892633D01*
X153112361Y-103966712D01*
X153028221Y-104021482D01*
X152919434Y-104055290D01*
X152877831Y-104061657D01*
X152787215Y-104072389D01*
X152787215Y-103484426D01*
X152857429Y-103484426D01*
X152857429Y-103732079D01*
X152857622Y-103829645D01*
X152858759Y-103897498D01*
X152861673Y-103941030D01*
X152867200Y-103965634D01*
X152876176Y-103976704D01*
X152889434Y-103979632D01*
X152895771Y-103979732D01*
X152934698Y-103972219D01*
X152987301Y-103953323D01*
X153008237Y-103943848D01*
X153077925Y-103894408D01*
X153119630Y-103831343D01*
X153134666Y-103760377D01*
X153124344Y-103687236D01*
X153089975Y-103617644D01*
X153032871Y-103557327D01*
X152954344Y-103512008D01*
X152905701Y-103496325D01*
X152857429Y-103484426D01*
X152787215Y-103484426D01*
X152787215Y-103483765D01*
X152698140Y-103492324D01*
X152600941Y-103516512D01*
X152525191Y-103565274D01*
X152473120Y-103633807D01*
X152446958Y-103717304D01*
X152448936Y-103810963D01*
X152481284Y-103909977D01*
X152493435Y-103933325D01*
X152540230Y-104017051D01*
X152492575Y-104011557D01*
X152450741Y-103990337D01*
X152415789Y-103942191D01*
X152389754Y-103874965D01*
X152374665Y-103796503D01*
X152372556Y-103714649D01*
X152385457Y-103637250D01*
X152391132Y-103619884D01*
X152440881Y-103532446D01*
X152517224Y-103465960D01*
X152617547Y-103421898D01*
X152739236Y-103401732D01*
X152780475Y-103400562D01*
X152857429Y-103405445D01*
X152889128Y-103407456D01*
X152975136Y-103430313D01*
G37*
G36*
X154630880Y-100991377D02*
G01*
X154690201Y-101052270D01*
X154692713Y-101056031D01*
X154708806Y-101092928D01*
X154726793Y-101153125D01*
X154743381Y-101225201D01*
X154747060Y-101244487D01*
X154760382Y-101317321D01*
X154772156Y-101381050D01*
X154780311Y-101424479D01*
X154781634Y-101431329D01*
X154791591Y-101458468D01*
X154814050Y-101465138D01*
X154846018Y-101459934D01*
X154928342Y-101434240D01*
X154982432Y-101396531D01*
X155014355Y-101342266D01*
X155017947Y-101331293D01*
X155025995Y-101245063D01*
X155002181Y-101153419D01*
X154961420Y-101080685D01*
X154935624Y-101040296D01*
X154933206Y-101020248D01*
X154955415Y-101013624D01*
X154973620Y-101013180D01*
X155012902Y-101029286D01*
X155046275Y-101072341D01*
X155072115Y-101134447D01*
X155088796Y-101207708D01*
X155094693Y-101284227D01*
X155088180Y-101356108D01*
X155067632Y-101415454D01*
X155059153Y-101428735D01*
X155028714Y-101465666D01*
X154995281Y-101493477D01*
X154953546Y-101513426D01*
X154898204Y-101526771D01*
X154823949Y-101534769D01*
X154725474Y-101538678D01*
X154597473Y-101539757D01*
X154590843Y-101539760D01*
X154479407Y-101539599D01*
X154398278Y-101538734D01*
X154342657Y-101536626D01*
X154307745Y-101532732D01*
X154288743Y-101526514D01*
X154280850Y-101517430D01*
X154279268Y-101504940D01*
X154279267Y-101504680D01*
X154284801Y-101482225D01*
X154307449Y-101471887D01*
X154353870Y-101469378D01*
X154428473Y-101469183D01*
X154373457Y-101425813D01*
X154322251Y-101368097D01*
X154282869Y-101291756D01*
X154263074Y-101213037D01*
X154262099Y-101192749D01*
X154264312Y-101179208D01*
X154339126Y-101179208D01*
X154345077Y-101247288D01*
X154364090Y-101312308D01*
X154378033Y-101338848D01*
X154435801Y-101397618D01*
X154517962Y-101440859D01*
X154615518Y-101463884D01*
X154618714Y-101464226D01*
X154713046Y-101473962D01*
X154689625Y-101318174D01*
X154679179Y-101247716D01*
X154671042Y-101190982D01*
X154666428Y-101156531D01*
X154665825Y-101150567D01*
X154655260Y-101130818D01*
X154629413Y-101096172D01*
X154620001Y-101084741D01*
X154578296Y-101046098D01*
X154531733Y-101031657D01*
X154509809Y-101030734D01*
X154435709Y-101044606D01*
X154377142Y-101082616D01*
X154348538Y-101124768D01*
X154339126Y-101179208D01*
X154264312Y-101179208D01*
X154269681Y-101146349D01*
X154288105Y-101089487D01*
X154294980Y-101073286D01*
X154342208Y-101006481D01*
X154406970Y-100964560D01*
X154481707Y-100947850D01*
X154509809Y-100951066D01*
X154558862Y-100956680D01*
X154630880Y-100991377D01*
G37*
G36*
X153464024Y-104743707D02*
G01*
X153494111Y-104769732D01*
X153500836Y-104811585D01*
X153498431Y-104821366D01*
X153475190Y-104851298D01*
X153440777Y-104857439D01*
X153407634Y-104841971D01*
X153388203Y-104807080D01*
X153387404Y-104801867D01*
X153391268Y-104762989D01*
X153419018Y-104743357D01*
X153420080Y-104743014D01*
X153464024Y-104743707D01*
G37*
G36*
X155401469Y-104082784D02*
G01*
X155399690Y-104111854D01*
X155397141Y-104126396D01*
X155390786Y-104139032D01*
X155376901Y-104151196D01*
X155351763Y-104164320D01*
X155311650Y-104179839D01*
X155252836Y-104199184D01*
X155171600Y-104223791D01*
X155064217Y-104255091D01*
X154926965Y-104294518D01*
X154919972Y-104296522D01*
X154798913Y-104331829D01*
X154691101Y-104364463D01*
X154600501Y-104393128D01*
X154531078Y-104416525D01*
X154486799Y-104433356D01*
X154471630Y-104442323D01*
X154472357Y-104443027D01*
X154495640Y-104450896D01*
X154547786Y-104467602D01*
X154624095Y-104491670D01*
X154719873Y-104521626D01*
X154830421Y-104555994D01*
X154946303Y-104591838D01*
X155090147Y-104637075D01*
X155208944Y-104676218D01*
X155300697Y-104708550D01*
X155363408Y-104733355D01*
X155395079Y-104749915D01*
X155398635Y-104754188D01*
X155389612Y-104764964D01*
X155357703Y-104780434D01*
X155300712Y-104801340D01*
X155216441Y-104828423D01*
X155102694Y-104862426D01*
X154957276Y-104904090D01*
X154942242Y-104908330D01*
X154820486Y-104942904D01*
X154709827Y-104974845D01*
X154614768Y-105002810D01*
X154539811Y-105025459D01*
X154489458Y-105041450D01*
X154468213Y-105049443D01*
X154468003Y-105049601D01*
X154480749Y-105056992D01*
X154523260Y-105072229D01*
X154591402Y-105094036D01*
X154681040Y-105121138D01*
X154788038Y-105152258D01*
X154908262Y-105186121D01*
X154928672Y-105191769D01*
X155402471Y-105322579D01*
X155402583Y-105372034D01*
X155399059Y-105406242D01*
X155382516Y-105413633D01*
X155363200Y-105408672D01*
X155336905Y-105400634D01*
X155281417Y-105384030D01*
X155201227Y-105360190D01*
X155100824Y-105330446D01*
X154984698Y-105296130D01*
X154857339Y-105258572D01*
X154805874Y-105243416D01*
X154658358Y-105199759D01*
X154541191Y-105164421D01*
X154450940Y-105136161D01*
X154384174Y-105113740D01*
X154337461Y-105095917D01*
X154307369Y-105081452D01*
X154290465Y-105069104D01*
X154283318Y-105057633D01*
X154282582Y-105054306D01*
X154286970Y-105025973D01*
X154315876Y-105007394D01*
X154335243Y-105001187D01*
X154433593Y-104972979D01*
X154541733Y-104941327D01*
X154654502Y-104907809D01*
X154766742Y-104874005D01*
X154873294Y-104841493D01*
X154968998Y-104811853D01*
X155048696Y-104786662D01*
X155107228Y-104767501D01*
X155139435Y-104755947D01*
X155143899Y-104753717D01*
X155131494Y-104745395D01*
X155089739Y-104728287D01*
X155022851Y-104703884D01*
X154935050Y-104673676D01*
X154830554Y-104639154D01*
X154718225Y-104603270D01*
X154581383Y-104559834D01*
X154474864Y-104524975D01*
X154395301Y-104497395D01*
X154339327Y-104475797D01*
X154303575Y-104458885D01*
X154284678Y-104445361D01*
X154279267Y-104434155D01*
X154285758Y-104403554D01*
X154292433Y-104395273D01*
X154311752Y-104388563D01*
X154359747Y-104373373D01*
X154431434Y-104351204D01*
X154521830Y-104323555D01*
X154625950Y-104291925D01*
X154738812Y-104257815D01*
X154855431Y-104222722D01*
X154970825Y-104188148D01*
X155080008Y-104155591D01*
X155177999Y-104126551D01*
X155259813Y-104102527D01*
X155320467Y-104085019D01*
X155354977Y-104075527D01*
X155355806Y-104075319D01*
X155390511Y-104069663D01*
X155401469Y-104082784D01*
G37*
%TO.C,C15*%
X110740000Y-97978733D02*
X110740000Y-98271267D01*
X111760000Y-97978733D02*
X111760000Y-98271267D01*
%TO.C,C1*%
X117320000Y-110953733D02*
X117320000Y-111246267D01*
X116300000Y-110953733D02*
X116300000Y-111246267D01*
%TO.C,TP5*%
X126637551Y-113462062D02*
G75*
G03*
X126637551Y-113462062I-700000J0D01*
G01*
%TO.C,C8*%
X123260000Y-100296215D02*
X123260000Y-100003681D01*
X122240000Y-100296215D02*
X122240000Y-100003681D01*
%TO.C,C3*%
X125227551Y-102845829D02*
X125227551Y-102553295D01*
X126247551Y-102845829D02*
X126247551Y-102553295D01*
%TO.C,C14*%
X103940000Y-97978733D02*
X103940000Y-98271267D01*
X104960000Y-97978733D02*
X104960000Y-98271267D01*
%TO.C,R8*%
X182042224Y-104097098D02*
X181532776Y-104097098D01*
X182042224Y-105142098D02*
X181532776Y-105142098D01*
%TO.C,C4*%
X139440000Y-106422658D02*
X139440000Y-106715192D01*
X138420000Y-106422658D02*
X138420000Y-106715192D01*
%TO.C,TP6*%
X128737551Y-113462062D02*
G75*
G03*
X128737551Y-113462062I-700000J0D01*
G01*
%TO.C,R4*%
X132507672Y-109405000D02*
X132172430Y-109405000D01*
X132507672Y-108645000D02*
X132172430Y-108645000D01*
%TO.C,U3*%
X172975000Y-105803575D02*
X174375000Y-105803575D01*
X174375000Y-103483575D02*
X172475000Y-103483575D01*
%TO.C,C2*%
X132060000Y-102845829D02*
X132060000Y-102553295D01*
X131040000Y-102845829D02*
X131040000Y-102553295D01*
%TO.C,C6*%
X167535000Y-100241233D02*
X167535000Y-100533767D01*
X166515000Y-100241233D02*
X166515000Y-100533767D01*
%TO.C,C7*%
X173071267Y-107429598D02*
X172778733Y-107429598D01*
X173071267Y-106409598D02*
X172778733Y-106409598D01*
%TO.C,TP2*%
X130037551Y-100962062D02*
G75*
G03*
X130037551Y-100962062I-700000J0D01*
G01*
%TO.C,U2*%
X164965052Y-105803575D02*
X166365052Y-105803575D01*
X166365052Y-103483575D02*
X164465052Y-103483575D01*
%TO.C,R3*%
X132507672Y-107545000D02*
X132172430Y-107545000D01*
X132507672Y-108305000D02*
X132172430Y-108305000D01*
%TO.C,J1*%
X95010000Y-105420000D02*
X95010000Y-103420000D01*
X95010000Y-96420000D02*
X101710000Y-96420000D01*
X95010000Y-98520000D02*
X95010000Y-96420000D01*
X101710000Y-96420000D02*
X101710000Y-99020000D01*
X101710000Y-102920000D02*
X101710000Y-105420000D01*
X96110000Y-105420000D02*
X95010000Y-105420000D01*
X101710000Y-105420000D02*
X99910000Y-105420000D01*
%TO.C,C9*%
X145740000Y-108247658D02*
X145740000Y-108540192D01*
X144720000Y-108247658D02*
X144720000Y-108540192D01*
%TO.C,TP8*%
X137800000Y-105700000D02*
G75*
G03*
X137800000Y-105700000I-700000J0D01*
G01*
%TO.C,TP7*%
X149200000Y-105640000D02*
G75*
G03*
X149200000Y-105640000I-700000J0D01*
G01*
%TO.C,TP3*%
X128237551Y-100962062D02*
G75*
G03*
X128237551Y-100962062I-700000J0D01*
G01*
%TO.C,R5*%
X132517621Y-109745000D02*
X132182379Y-109745000D01*
X132517621Y-110505000D02*
X132182379Y-110505000D01*
%TD*%
%LPC*%
D10*
X179100000Y-103900000D02*
X180900000Y-103900000D01*
X180900000Y-103900000D02*
X180900000Y-105350000D01*
X180900000Y-105350000D02*
X179100000Y-105350000D01*
X179100000Y-105350000D02*
X179100000Y-103900000D01*
G36*
X179100000Y-103900000D02*
G01*
X180900000Y-103900000D01*
X180900000Y-105350000D01*
X179100000Y-105350000D01*
X179100000Y-103900000D01*
G37*
X189000000Y-104200000D02*
X189000000Y-105050000D01*
X189000000Y-105050000D02*
X188250000Y-105450000D01*
X188250000Y-105450000D02*
X188250000Y-103790000D01*
X188250000Y-103790000D02*
X189000000Y-104200000D01*
G36*
X189000000Y-104200000D02*
G01*
X189000000Y-105050000D01*
X188250000Y-105450000D01*
X188250000Y-103790000D01*
X189000000Y-104200000D01*
G37*
X189000000Y-104200000D02*
X189000000Y-105050000D01*
X188250000Y-105450000D01*
X188250000Y-103790000D01*
X189000000Y-104200000D01*
X176980000Y-103900000D02*
X176300000Y-103900000D01*
X176300000Y-103900000D02*
X176980000Y-103280000D01*
X176980000Y-103280000D02*
X176980000Y-103900000D01*
G36*
X176980000Y-103900000D02*
G01*
X176300000Y-103900000D01*
X176980000Y-103280000D01*
X176980000Y-103900000D01*
G37*
X176980000Y-103900000D02*
X176300000Y-103900000D01*
X176980000Y-103280000D01*
X176980000Y-103900000D01*
X150610000Y-106400000D02*
X149710000Y-106400000D01*
X149710000Y-106400000D02*
X149710000Y-114750000D01*
X149710000Y-114750000D02*
X150610000Y-114750000D01*
X150610000Y-114750000D02*
X150610000Y-106400000D01*
G36*
X150610000Y-106400000D02*
G01*
X149710000Y-106400000D01*
X149710000Y-114750000D01*
X150610000Y-114750000D01*
X150610000Y-106400000D01*
G37*
X171325000Y-106063575D02*
X168025000Y-106063575D01*
X168025000Y-106063575D02*
X168025000Y-103263575D01*
X168025000Y-103263575D02*
X171325000Y-103263575D01*
X171325000Y-103263575D02*
X171325000Y-106063575D01*
G36*
X171325000Y-106063575D02*
G01*
X168025000Y-106063575D01*
X168025000Y-103263575D01*
X171325000Y-103263575D01*
X171325000Y-106063575D01*
G37*
X149710000Y-113870000D02*
X163010000Y-113870000D01*
X163010000Y-113870000D02*
X163010000Y-114750000D01*
X163010000Y-114750000D02*
X149710000Y-114750000D01*
X149710000Y-114750000D02*
X149710000Y-113870000D01*
G36*
X149710000Y-113870000D02*
G01*
X163010000Y-113870000D01*
X163010000Y-114750000D01*
X149710000Y-114750000D01*
X149710000Y-113870000D01*
G37*
X176300000Y-105350000D02*
X177300000Y-105350000D01*
X177300000Y-105350000D02*
X177300000Y-103900000D01*
X177300000Y-103900000D02*
X176300000Y-103900000D01*
X176300000Y-103900000D02*
X176300000Y-105350000D01*
G36*
X176300000Y-105350000D02*
G01*
X177300000Y-105350000D01*
X177300000Y-103900000D01*
X176300000Y-103900000D01*
X176300000Y-105350000D01*
G37*
X176980000Y-105350000D02*
X176980000Y-106020000D01*
X176980000Y-106020000D02*
X176300000Y-105350000D01*
X176300000Y-105350000D02*
X176980000Y-105350000D01*
G36*
X176980000Y-106020000D02*
G01*
X176300000Y-105350000D01*
X176980000Y-105350000D01*
X176980000Y-106020000D01*
G37*
X176980000Y-106020000D02*
X176300000Y-105350000D01*
X176980000Y-105350000D01*
X176980000Y-106020000D01*
X183390000Y-103280000D02*
X188250000Y-103790000D01*
X188250000Y-103790000D02*
X176980000Y-103800000D01*
X176980000Y-103800000D02*
X176980000Y-103280000D01*
X176980000Y-103280000D02*
X182710000Y-103280000D01*
X182710000Y-103280000D02*
X183390000Y-103280000D01*
G36*
X188250000Y-103790000D02*
G01*
X176980000Y-103800000D01*
X176980000Y-103280000D01*
X183390000Y-103280000D01*
X188250000Y-103790000D01*
G37*
X188250000Y-103790000D02*
X176980000Y-103800000D01*
X176980000Y-103280000D01*
X183390000Y-103280000D01*
X188250000Y-103790000D01*
X192160000Y-99360000D02*
X163000000Y-94440000D01*
X163000000Y-94440000D02*
X163000000Y-95330000D01*
X163000000Y-95330000D02*
X192160000Y-100400000D01*
X192160000Y-100400000D02*
X192160000Y-99360000D01*
G36*
X192160000Y-99360000D02*
G01*
X192160000Y-100400000D01*
X163000000Y-95330000D01*
X163000000Y-94440000D01*
X192160000Y-99360000D01*
G37*
X192160000Y-99360000D02*
X192160000Y-100400000D01*
X163000000Y-95330000D01*
X163000000Y-94440000D01*
X192160000Y-99360000D01*
X188250000Y-105450000D02*
X182710000Y-105450000D01*
X182710000Y-105450000D02*
X182710000Y-103790000D01*
X182710000Y-103790000D02*
X188250000Y-103790000D01*
X188250000Y-103790000D02*
X188250000Y-105450000D01*
G36*
X188250000Y-105450000D02*
G01*
X182710000Y-105450000D01*
X182710000Y-103790000D01*
X188250000Y-103790000D01*
X188250000Y-105450000D01*
G37*
X188250000Y-105450000D02*
X182710000Y-105450000D01*
X182710000Y-103790000D01*
X188250000Y-103790000D01*
X188250000Y-105450000D01*
X183390000Y-106020000D02*
X188250000Y-105450000D01*
X188250000Y-105450000D02*
X176980000Y-105450000D01*
X176980000Y-105450000D02*
X176980000Y-106020000D01*
X176980000Y-106020000D02*
X182739983Y-106020624D01*
X182739983Y-106020624D02*
X183390000Y-106020000D01*
G36*
X183390000Y-106020000D02*
G01*
X182739983Y-106020624D01*
X176980000Y-106020000D01*
X176980000Y-105450000D01*
X188250000Y-105450000D01*
X183390000Y-106020000D01*
G37*
X183390000Y-106020000D02*
X182739983Y-106020624D01*
X176980000Y-106020000D01*
X176980000Y-105450000D01*
X188250000Y-105450000D01*
X183390000Y-106020000D01*
X150610000Y-94440000D02*
X149700000Y-94440000D01*
X149700000Y-94440000D02*
X149700000Y-104800000D01*
X149700000Y-104800000D02*
X150610000Y-104800000D01*
X150610000Y-104800000D02*
X150610000Y-94440000D01*
G36*
X150610000Y-94440000D02*
G01*
X149700000Y-94440000D01*
X149700000Y-104800000D01*
X150610000Y-104800000D01*
X150610000Y-94440000D01*
G37*
X168525000Y-103263575D02*
X168525000Y-103263575D01*
X168525000Y-103263575D02*
X168525000Y-103263575D01*
X168525000Y-103263575D02*
X168525000Y-103263575D01*
X168525000Y-103263575D02*
X168525000Y-103263575D01*
X149700000Y-94440000D02*
X163000000Y-94440000D01*
X163000000Y-94440000D02*
X163000000Y-95330000D01*
X163000000Y-95330000D02*
X149700000Y-95330000D01*
X149700000Y-95330000D02*
X149700000Y-94440000D01*
G36*
X149700000Y-94440000D02*
G01*
X163000000Y-94440000D01*
X163000000Y-95330000D01*
X149700000Y-95330000D01*
X149700000Y-94440000D01*
G37*
X192160000Y-109830000D02*
X163010000Y-114750000D01*
X163010000Y-114750000D02*
X163010070Y-113860402D01*
X163010070Y-113860402D02*
X192160070Y-108800402D01*
X192160070Y-108800402D02*
X192160000Y-109830000D01*
G36*
X192160000Y-109830000D02*
G01*
X163010000Y-114750000D01*
X163010070Y-113860402D01*
X192160070Y-108800402D01*
X192160000Y-109830000D01*
G37*
X192160000Y-109830000D02*
X163010000Y-114750000D01*
X163010070Y-113860402D01*
X192160070Y-108800402D01*
X192160000Y-109830000D01*
%TO.C,G\u002A\u002A\u002A*%
G36*
X153995773Y-95661702D02*
G01*
X154088334Y-95668208D01*
X154166746Y-95678014D01*
X154225041Y-95690268D01*
X154257252Y-95704122D01*
X154261714Y-95711554D01*
X154248684Y-95726423D01*
X154208479Y-95746149D01*
X154139423Y-95771325D01*
X154039842Y-95802547D01*
X153908062Y-95840410D01*
X153867340Y-95851685D01*
X153736722Y-95889051D01*
X153636140Y-95921576D01*
X153561203Y-95951292D01*
X153507519Y-95980234D01*
X153470699Y-96010435D01*
X153446350Y-96043928D01*
X153444452Y-96047498D01*
X153426763Y-96092907D01*
X153430084Y-96132540D01*
X153437721Y-96153318D01*
X153462259Y-96192194D01*
X153504361Y-96228009D01*
X153567709Y-96262551D01*
X153655985Y-96297604D01*
X153772869Y-96334957D01*
X153867050Y-96361620D01*
X154004275Y-96400468D01*
X154110298Y-96433955D01*
X154188351Y-96463561D01*
X154241668Y-96490770D01*
X154273479Y-96517062D01*
X154287018Y-96543918D01*
X154288044Y-96554576D01*
X154280475Y-96582221D01*
X154255619Y-96608741D01*
X154210250Y-96635619D01*
X154141145Y-96664341D01*
X154045077Y-96696389D01*
X153918824Y-96733249D01*
X153871306Y-96746361D01*
X153740072Y-96783602D01*
X153638896Y-96816007D01*
X153563401Y-96845590D01*
X153509212Y-96874364D01*
X153471953Y-96904341D01*
X153447249Y-96937535D01*
X153444452Y-96942729D01*
X153426763Y-96988139D01*
X153430084Y-97027771D01*
X153437721Y-97048549D01*
X153462259Y-97087425D01*
X153504361Y-97123241D01*
X153567709Y-97157782D01*
X153655985Y-97192836D01*
X153772869Y-97230188D01*
X153867050Y-97256852D01*
X154004275Y-97295700D01*
X154110298Y-97329186D01*
X154188351Y-97358793D01*
X154241668Y-97386002D01*
X154273479Y-97412293D01*
X154287018Y-97439150D01*
X154288044Y-97449808D01*
X154280475Y-97477452D01*
X154255619Y-97503972D01*
X154210250Y-97530851D01*
X154141145Y-97559572D01*
X154045077Y-97591621D01*
X153918824Y-97628481D01*
X153871306Y-97641593D01*
X153740072Y-97678833D01*
X153638896Y-97711239D01*
X153563401Y-97740822D01*
X153509212Y-97769595D01*
X153471953Y-97799573D01*
X153447249Y-97832766D01*
X153444452Y-97837961D01*
X153426763Y-97883370D01*
X153430084Y-97923003D01*
X153437721Y-97943781D01*
X153462433Y-97982829D01*
X153504921Y-98018849D01*
X153568861Y-98053636D01*
X153657928Y-98088986D01*
X153775799Y-98126693D01*
X153863085Y-98151528D01*
X154004131Y-98191341D01*
X154112625Y-98224320D01*
X154190323Y-98251087D01*
X154238980Y-98272264D01*
X154260351Y-98288474D01*
X154261714Y-98292830D01*
X154245156Y-98307174D01*
X154199460Y-98320353D01*
X154130594Y-98331517D01*
X154044527Y-98339817D01*
X153947226Y-98344404D01*
X153895033Y-98345039D01*
X153677873Y-98328480D01*
X153472100Y-98280153D01*
X153280326Y-98202082D01*
X153105164Y-98096289D01*
X152949227Y-97964799D01*
X152815127Y-97809636D01*
X152705477Y-97632823D01*
X152622890Y-97436385D01*
X152594023Y-97337290D01*
X152570483Y-97204818D01*
X152559713Y-97054000D01*
X152561693Y-96898556D01*
X152576407Y-96752209D01*
X152594945Y-96659897D01*
X152664921Y-96455731D01*
X152763183Y-96270195D01*
X152887078Y-96105332D01*
X153033951Y-95963184D01*
X153201147Y-95845795D01*
X153386013Y-95755208D01*
X153585892Y-95693465D01*
X153798132Y-95662609D01*
X153895033Y-95659345D01*
X153995773Y-95661702D01*
G37*
G36*
X154512831Y-95796517D02*
G01*
X154697831Y-95907496D01*
X154858416Y-96042647D01*
X154993146Y-96199599D01*
X155100580Y-96375980D01*
X155179278Y-96569415D01*
X155227801Y-96777535D01*
X155244707Y-96997965D01*
X155244713Y-97002192D01*
X155228412Y-97222830D01*
X155180467Y-97431201D01*
X155102321Y-97624933D01*
X154995411Y-97801654D01*
X154861179Y-97958992D01*
X154701065Y-98094573D01*
X154516509Y-98206026D01*
X154512831Y-98207867D01*
X154368994Y-98279594D01*
X154314406Y-98233661D01*
X154264320Y-98203258D01*
X154181227Y-98168014D01*
X154066806Y-98128514D01*
X153922735Y-98085345D01*
X153774173Y-98045153D01*
X153657862Y-98009027D01*
X153576526Y-97970654D01*
X153530165Y-97930830D01*
X153518779Y-97890349D01*
X153542368Y-97850006D01*
X153600933Y-97810598D01*
X153694472Y-97772919D01*
X153774173Y-97749694D01*
X153933911Y-97706787D01*
X154062400Y-97668883D01*
X154162943Y-97634766D01*
X154238845Y-97603220D01*
X154293407Y-97573031D01*
X154326653Y-97546361D01*
X154370067Y-97492206D01*
X154381611Y-97443742D01*
X154361889Y-97393322D01*
X154340940Y-97365521D01*
X154307064Y-97333514D01*
X154259055Y-97303456D01*
X154192622Y-97273605D01*
X154103472Y-97242220D01*
X153987312Y-97207559D01*
X153879490Y-97178261D01*
X153761844Y-97146094D01*
X153673563Y-97119030D01*
X153609628Y-97095086D01*
X153565017Y-97072284D01*
X153534710Y-97048643D01*
X153525611Y-97038680D01*
X153511078Y-96999964D01*
X153530729Y-96961213D01*
X153583647Y-96923100D01*
X153668915Y-96886298D01*
X153777267Y-96853628D01*
X153937080Y-96810690D01*
X154065585Y-96772673D01*
X154166045Y-96738374D01*
X154241721Y-96706591D01*
X154295876Y-96676121D01*
X154326653Y-96651130D01*
X154370067Y-96596974D01*
X154381611Y-96548511D01*
X154361889Y-96498091D01*
X154340940Y-96470289D01*
X154307119Y-96438322D01*
X154259208Y-96408304D01*
X154192915Y-96378493D01*
X154103948Y-96347149D01*
X153988015Y-96312530D01*
X153878899Y-96282872D01*
X153770988Y-96253782D01*
X153691178Y-96230459D01*
X153633396Y-96210621D01*
X153591571Y-96191986D01*
X153559630Y-96172273D01*
X153537630Y-96154645D01*
X153510078Y-96117852D01*
X153516761Y-96081934D01*
X153538272Y-96057690D01*
X153583421Y-96026740D01*
X153651021Y-95996837D01*
X153745551Y-95966253D01*
X153841067Y-95940760D01*
X153993164Y-95899883D01*
X154121192Y-95859698D01*
X154222086Y-95821308D01*
X154292779Y-95785822D01*
X154315960Y-95769415D01*
X154368994Y-95724790D01*
X154512831Y-95796517D01*
G37*
%TD*%
D12*
%TO.C,D1*%
X96010000Y-108720000D03*
X100010000Y-108720000D03*
%TD*%
D13*
%TO.C,U5*%
X107897500Y-106720000D03*
D14*
X107810000Y-108220000D03*
D13*
X107897500Y-109720000D03*
%TD*%
D15*
%TO.C,TP10*%
X95810000Y-111920000D03*
%TD*%
%TO.C,TP9*%
X100210000Y-111920000D03*
%TD*%
D16*
%TO.C,Q1*%
X104460000Y-103157500D03*
X106360000Y-103157500D03*
X105410000Y-101282500D03*
%TD*%
D17*
%TO.C,FB4*%
X114610000Y-98995000D03*
X114610000Y-97245000D03*
%TD*%
D18*
%TO.C,FB3*%
X111985000Y-107820000D03*
X110235000Y-107820000D03*
%TD*%
%TO.C,FB2*%
X123985000Y-104120000D03*
X122235000Y-104120000D03*
%TD*%
D17*
%TO.C,FB1*%
X116810000Y-106720000D03*
X116810000Y-108470000D03*
%TD*%
D19*
%TO.C,C12*%
X109935000Y-109720000D03*
X112010000Y-109720000D03*
%TD*%
D20*
%TO.C,C11*%
X111910000Y-103157500D03*
X111910000Y-101082500D03*
%TD*%
%TO.C,C10*%
X108510000Y-103157500D03*
X108510000Y-101082500D03*
%TD*%
D21*
%TO.C,R10*%
X129150000Y-96725000D03*
X130975000Y-96725000D03*
%TD*%
D22*
%TO.C,D2*%
X129200000Y-98525000D03*
X130950000Y-98525000D03*
%TD*%
D23*
%TO.C,J2*%
X119350000Y-101025000D03*
D24*
X119350000Y-98485000D03*
%TD*%
D25*
%TO.C,R1*%
X132947500Y-105725000D03*
X131752500Y-105725000D03*
%TD*%
%TO.C,R6*%
X132947500Y-111225000D03*
X131752500Y-111225000D03*
%TD*%
D26*
%TO.C,U4*%
X143630000Y-103781425D03*
X143630000Y-104731425D03*
X143630000Y-105681425D03*
X146330000Y-105681425D03*
X146330000Y-104731425D03*
X146330000Y-103781425D03*
%TD*%
%TO.C,U6*%
X109200000Y-97175000D03*
X109200000Y-99075000D03*
X106500000Y-99075000D03*
X106500000Y-98125000D03*
X106500000Y-97175000D03*
%TD*%
D27*
%TO.C,R9*%
X148430000Y-103443925D03*
X148430000Y-101618925D03*
%TD*%
D28*
%TO.C,C5*%
X140930000Y-105706425D03*
X140930000Y-107431425D03*
%TD*%
D29*
%TO.C,X1*%
X119310000Y-107020000D03*
X119310000Y-112100000D03*
X123310000Y-112100000D03*
X123310000Y-107020000D03*
%TD*%
D30*
%TO.C,TP4*%
X127537551Y-102762062D03*
%TD*%
D28*
%TO.C,C16*%
X112950000Y-97262500D03*
X112950000Y-98987500D03*
%TD*%
D31*
%TO.C,U1*%
X125862551Y-111224562D03*
X126512551Y-111224562D03*
X127162551Y-111224562D03*
X127812551Y-111224562D03*
X128462551Y-111224562D03*
X129112551Y-111224562D03*
X129762551Y-111224562D03*
X130412551Y-111224562D03*
X130412551Y-105499562D03*
X129762551Y-105499562D03*
X129112551Y-105499562D03*
X128462551Y-105499562D03*
X127812551Y-105499562D03*
X127162551Y-105499562D03*
X126512551Y-105499562D03*
X125862551Y-105499562D03*
%TD*%
D32*
%TO.C,SW1*%
X140700000Y-102025000D03*
X135000000Y-99525000D03*
X140700000Y-97025000D03*
%TD*%
D33*
%TO.C,R7*%
X179100000Y-104619598D03*
X177275000Y-104619598D03*
%TD*%
D25*
%TO.C,R2*%
X132937551Y-106825000D03*
X131742551Y-106825000D03*
%TD*%
D34*
%TO.C,C13*%
X111972500Y-106220000D03*
X110247500Y-106220000D03*
%TD*%
D30*
%TO.C,TP1*%
X129337551Y-102762062D03*
%TD*%
D28*
%TO.C,C15*%
X111250000Y-97262500D03*
X111250000Y-98987500D03*
%TD*%
%TO.C,C1*%
X116810000Y-110237500D03*
X116810000Y-111962500D03*
%TD*%
D30*
%TO.C,TP5*%
X125937551Y-113462062D03*
%TD*%
D35*
%TO.C,C8*%
X122750000Y-101012448D03*
X122750000Y-99287448D03*
%TD*%
D36*
%TO.C,J3*%
X189440000Y-104620000D03*
D37*
X189790000Y-108880000D03*
X189790000Y-100360000D03*
%TD*%
D35*
%TO.C,C3*%
X125737551Y-103562062D03*
X125737551Y-101837062D03*
%TD*%
D28*
%TO.C,C14*%
X104450000Y-98987500D03*
X104450000Y-97262500D03*
%TD*%
D33*
%TO.C,R8*%
X182700000Y-104619598D03*
X180875000Y-104619598D03*
%TD*%
D28*
%TO.C,C4*%
X138930000Y-105706425D03*
X138930000Y-107431425D03*
%TD*%
D30*
%TO.C,TP6*%
X128037551Y-113462062D03*
%TD*%
D25*
%TO.C,R4*%
X132937551Y-109025000D03*
X131742551Y-109025000D03*
%TD*%
D38*
%TO.C,U3*%
X175005000Y-103993575D03*
X175005000Y-104643575D03*
X175005000Y-105293575D03*
X172345000Y-105293575D03*
X172345000Y-104643575D03*
X172345000Y-103993575D03*
%TD*%
D35*
%TO.C,C2*%
X131550000Y-103562062D03*
X131550000Y-101837062D03*
%TD*%
D28*
%TO.C,C6*%
X167025000Y-99525000D03*
X167025000Y-101250000D03*
%TD*%
D34*
%TO.C,C7*%
X173787500Y-106919598D03*
X172062500Y-106919598D03*
%TD*%
D30*
%TO.C,TP2*%
X129337551Y-100962062D03*
%TD*%
D38*
%TO.C,U2*%
X164335052Y-103993575D03*
X164335052Y-104643575D03*
X164335052Y-105293575D03*
X166995052Y-105293575D03*
X166995052Y-103993575D03*
%TD*%
D25*
%TO.C,R3*%
X132937551Y-107925000D03*
X131742551Y-107925000D03*
%TD*%
D39*
%TO.C,J1*%
X101010000Y-100920000D03*
D40*
X98010000Y-105620000D03*
D39*
X95010000Y-100920000D03*
%TD*%
D28*
%TO.C,C9*%
X145230000Y-107531425D03*
X145230000Y-109256425D03*
%TD*%
D30*
%TO.C,TP8*%
X137100000Y-105700000D03*
%TD*%
%TO.C,TP7*%
X148500000Y-105640000D03*
%TD*%
%TO.C,TP3*%
X127537551Y-100962062D03*
%TD*%
D25*
%TO.C,R5*%
X132947500Y-110125000D03*
X131752500Y-110125000D03*
%TD*%
M02*
