%TF.GenerationSoftware,KiCad,Pcbnew,(6.0.2)*%
%TF.CreationDate,2022-05-29T21:50:20-07:00*%
%TF.ProjectId,peregrine,70657265-6772-4696-9e65-2e6b69636164,3*%
%TF.SameCoordinates,Original*%
%TF.FileFunction,Legend,Top*%
%TF.FilePolarity,Positive*%
%FSLAX46Y46*%
G04 Gerber Fmt 4.6, Leading zero omitted, Abs format (unit mm)*
G04 Created by KiCad (PCBNEW (6.0.2)) date 2022-05-29 21:50:20*
%MOMM*%
%LPD*%
G01*
G04 APERTURE LIST*
G04 Aperture macros list*
%AMRoundRect*
0 Rectangle with rounded corners*
0 $1 Rounding radius*
0 $2 $3 $4 $5 $6 $7 $8 $9 X,Y pos of 4 corners*
0 Add a 4 corners polygon primitive as box body*
4,1,4,$2,$3,$4,$5,$6,$7,$8,$9,$2,$3,0*
0 Add four circle primitives for the rounded corners*
1,1,$1+$1,$2,$3*
1,1,$1+$1,$4,$5*
1,1,$1+$1,$6,$7*
1,1,$1+$1,$8,$9*
0 Add four rect primitives between the rounded corners*
20,1,$1+$1,$2,$3,$4,$5,0*
20,1,$1+$1,$4,$5,$6,$7,0*
20,1,$1+$1,$6,$7,$8,$9,0*
20,1,$1+$1,$8,$9,$2,$3,0*%
G04 Aperture macros list end*
%ADD10C,0.150000*%
%ADD11C,0.120000*%
%ADD12C,0.610000*%
%ADD13R,2.700000X1.000000*%
%ADD14RoundRect,0.237500X-0.237500X0.300000X-0.237500X-0.300000X0.237500X-0.300000X0.237500X0.300000X0*%
%ADD15RoundRect,0.237500X0.237500X-0.300000X0.237500X0.300000X-0.237500X0.300000X-0.237500X-0.300000X0*%
%ADD16RoundRect,0.237500X0.287500X0.237500X-0.287500X0.237500X-0.287500X-0.237500X0.287500X-0.237500X0*%
%ADD17RoundRect,0.160000X0.197500X0.160000X-0.197500X0.160000X-0.197500X-0.160000X0.197500X-0.160000X0*%
%ADD18R,1.560000X0.650000*%
%ADD19RoundRect,0.237500X0.237500X-0.250000X0.237500X0.250000X-0.237500X0.250000X-0.237500X-0.250000X0*%
%ADD20RoundRect,0.237500X-0.250000X-0.237500X0.250000X-0.237500X0.250000X0.237500X-0.250000X0.237500X0*%
%ADD21R,2.000000X1.800000*%
%ADD22C,1.000000*%
%ADD23RoundRect,0.100000X0.100000X-0.637500X0.100000X0.637500X-0.100000X0.637500X-0.100000X-0.637500X0*%
%ADD24RoundRect,0.237500X0.250000X0.237500X-0.250000X0.237500X-0.250000X-0.237500X0.250000X-0.237500X0*%
%ADD25R,1.700000X1.700000*%
%ADD26O,1.700000X1.700000*%
%ADD27C,2.000000*%
%ADD28C,2.200000*%
%ADD29R,1.500000X0.400000*%
%ADD30RoundRect,0.237500X0.300000X0.237500X-0.300000X0.237500X-0.300000X-0.237500X0.300000X-0.237500X0*%
%ADD31O,1.500000X4.150000*%
%ADD32O,3.650000X1.500000*%
G04 APERTURE END LIST*
D10*
X104323809Y-111665955D02*
X104323809Y-110665955D01*
X104704761Y-110665955D01*
X104800000Y-110713575D01*
X104847619Y-110761194D01*
X104895238Y-110856432D01*
X104895238Y-110999289D01*
X104847619Y-111094527D01*
X104800000Y-111142146D01*
X104704761Y-111189765D01*
X104323809Y-111189765D01*
X105466666Y-111665955D02*
X105371428Y-111618336D01*
X105323809Y-111570717D01*
X105276190Y-111475479D01*
X105276190Y-111189765D01*
X105323809Y-111094527D01*
X105371428Y-111046908D01*
X105466666Y-110999289D01*
X105609523Y-110999289D01*
X105704761Y-111046908D01*
X105752380Y-111094527D01*
X105800000Y-111189765D01*
X105800000Y-111475479D01*
X105752380Y-111570717D01*
X105704761Y-111618336D01*
X105609523Y-111665955D01*
X105466666Y-111665955D01*
X106133333Y-110999289D02*
X106323809Y-111665955D01*
X106514285Y-111189765D01*
X106704761Y-111665955D01*
X106895238Y-110999289D01*
X107657142Y-111618336D02*
X107561904Y-111665955D01*
X107371428Y-111665955D01*
X107276190Y-111618336D01*
X107228571Y-111523098D01*
X107228571Y-111142146D01*
X107276190Y-111046908D01*
X107371428Y-110999289D01*
X107561904Y-110999289D01*
X107657142Y-111046908D01*
X107704761Y-111142146D01*
X107704761Y-111237384D01*
X107228571Y-111332622D01*
X108133333Y-111665955D02*
X108133333Y-110999289D01*
X108133333Y-111189765D02*
X108180952Y-111094527D01*
X108228571Y-111046908D01*
X108323809Y-110999289D01*
X108419047Y-110999289D01*
X141752380Y-99965955D02*
X141752380Y-98965955D01*
X142228571Y-99299289D02*
X142228571Y-99965955D01*
X142228571Y-99394527D02*
X142276190Y-99346908D01*
X142371428Y-99299289D01*
X142514285Y-99299289D01*
X142609523Y-99346908D01*
X142657142Y-99442146D01*
X142657142Y-99965955D01*
X142990476Y-99299289D02*
X143371428Y-99299289D01*
X143133333Y-98965955D02*
X143133333Y-99823098D01*
X143180952Y-99918336D01*
X143276190Y-99965955D01*
X143371428Y-99965955D01*
X144085714Y-99918336D02*
X143990476Y-99965955D01*
X143800000Y-99965955D01*
X143704761Y-99918336D01*
X143657142Y-99823098D01*
X143657142Y-99442146D01*
X143704761Y-99346908D01*
X143800000Y-99299289D01*
X143990476Y-99299289D01*
X144085714Y-99346908D01*
X144133333Y-99442146D01*
X144133333Y-99537384D01*
X143657142Y-99632622D01*
X144561904Y-99965955D02*
X144561904Y-99299289D01*
X144561904Y-99489765D02*
X144609523Y-99394527D01*
X144657142Y-99346908D01*
X144752380Y-99299289D01*
X144847619Y-99299289D01*
X145180952Y-99299289D02*
X145180952Y-99965955D01*
X145180952Y-99394527D02*
X145228571Y-99346908D01*
X145323809Y-99299289D01*
X145466666Y-99299289D01*
X145561904Y-99346908D01*
X145609523Y-99442146D01*
X145609523Y-99965955D01*
X146514285Y-99965955D02*
X146514285Y-99442146D01*
X146466666Y-99346908D01*
X146371428Y-99299289D01*
X146180952Y-99299289D01*
X146085714Y-99346908D01*
X146514285Y-99918336D02*
X146419047Y-99965955D01*
X146180952Y-99965955D01*
X146085714Y-99918336D01*
X146038095Y-99823098D01*
X146038095Y-99727860D01*
X146085714Y-99632622D01*
X146180952Y-99585003D01*
X146419047Y-99585003D01*
X146514285Y-99537384D01*
X147133333Y-99965955D02*
X147038095Y-99918336D01*
X146990476Y-99823098D01*
X146990476Y-98965955D01*
X148228571Y-98918336D02*
X147371428Y-100204051D01*
X148561904Y-99442146D02*
X148895238Y-99442146D01*
X149038095Y-99965955D02*
X148561904Y-99965955D01*
X148561904Y-98965955D01*
X149038095Y-98965955D01*
X149371428Y-99965955D02*
X149895238Y-99299289D01*
X149371428Y-99299289D02*
X149895238Y-99965955D01*
X150133333Y-99299289D02*
X150514285Y-99299289D01*
X150276190Y-98965955D02*
X150276190Y-99823098D01*
X150323809Y-99918336D01*
X150419047Y-99965955D01*
X150514285Y-99965955D01*
X150847619Y-99870717D02*
X150895238Y-99918336D01*
X150847619Y-99965955D01*
X150800000Y-99918336D01*
X150847619Y-99870717D01*
X150847619Y-99965955D01*
X116704761Y-95842146D02*
X117038095Y-95842146D01*
X117180952Y-96365955D02*
X116704761Y-96365955D01*
X116704761Y-95365955D01*
X117180952Y-95365955D01*
X117514285Y-96365955D02*
X118038095Y-95699289D01*
X117514285Y-95699289D02*
X118038095Y-96365955D01*
X118276190Y-95699289D02*
X118657142Y-95699289D01*
X118419047Y-95365955D02*
X118419047Y-96223098D01*
X118466666Y-96318336D01*
X118561904Y-96365955D01*
X118657142Y-96365955D01*
X118990476Y-96270717D02*
X119038095Y-96318336D01*
X118990476Y-96365955D01*
X118942857Y-96318336D01*
X118990476Y-96270717D01*
X118990476Y-96365955D01*
X120085714Y-95365955D02*
X120657142Y-95365955D01*
X120371428Y-96365955D02*
X120371428Y-95365955D01*
X120990476Y-96365955D02*
X120990476Y-95699289D01*
X120990476Y-95889765D02*
X121038095Y-95794527D01*
X121085714Y-95746908D01*
X121180952Y-95699289D01*
X121276190Y-95699289D01*
X121609523Y-96365955D02*
X121609523Y-95699289D01*
X121609523Y-95365955D02*
X121561904Y-95413575D01*
X121609523Y-95461194D01*
X121657142Y-95413575D01*
X121609523Y-95365955D01*
X121609523Y-95461194D01*
X122514285Y-95699289D02*
X122514285Y-96508813D01*
X122466666Y-96604051D01*
X122419047Y-96651670D01*
X122323809Y-96699289D01*
X122180952Y-96699289D01*
X122085714Y-96651670D01*
X122514285Y-96318336D02*
X122419047Y-96365955D01*
X122228571Y-96365955D01*
X122133333Y-96318336D01*
X122085714Y-96270717D01*
X122038095Y-96175479D01*
X122038095Y-95889765D01*
X122085714Y-95794527D01*
X122133333Y-95746908D01*
X122228571Y-95699289D01*
X122419047Y-95699289D01*
X122514285Y-95746908D01*
X123419047Y-95699289D02*
X123419047Y-96508813D01*
X123371428Y-96604051D01*
X123323809Y-96651670D01*
X123228571Y-96699289D01*
X123085714Y-96699289D01*
X122990476Y-96651670D01*
X123419047Y-96318336D02*
X123323809Y-96365955D01*
X123133333Y-96365955D01*
X123038095Y-96318336D01*
X122990476Y-96270717D01*
X122942857Y-96175479D01*
X122942857Y-95889765D01*
X122990476Y-95794527D01*
X123038095Y-95746908D01*
X123133333Y-95699289D01*
X123323809Y-95699289D01*
X123419047Y-95746908D01*
X124276190Y-96318336D02*
X124180952Y-96365955D01*
X123990476Y-96365955D01*
X123895238Y-96318336D01*
X123847619Y-96223098D01*
X123847619Y-95842146D01*
X123895238Y-95746908D01*
X123990476Y-95699289D01*
X124180952Y-95699289D01*
X124276190Y-95746908D01*
X124323809Y-95842146D01*
X124323809Y-95937384D01*
X123847619Y-96032622D01*
X124752380Y-96365955D02*
X124752380Y-95699289D01*
X124752380Y-95889765D02*
X124800000Y-95794527D01*
X124847619Y-95746908D01*
X124942857Y-95699289D01*
X125038095Y-95699289D01*
X96000000Y-112913575D02*
X102000000Y-112913575D01*
X96738095Y-113213575D02*
X96642857Y-113165955D01*
X96500000Y-113165955D01*
X96357142Y-113213575D01*
X96261904Y-113308813D01*
X96214285Y-113404051D01*
X96166666Y-113594527D01*
X96166666Y-113737384D01*
X96214285Y-113927860D01*
X96261904Y-114023098D01*
X96357142Y-114118336D01*
X96500000Y-114165955D01*
X96595238Y-114165955D01*
X96738095Y-114118336D01*
X96785714Y-114070717D01*
X96785714Y-113737384D01*
X96595238Y-113737384D01*
X97214285Y-114165955D02*
X97214285Y-113165955D01*
X97785714Y-114165955D01*
X97785714Y-113165955D01*
X98261904Y-114165955D02*
X98261904Y-113165955D01*
X98500000Y-113165955D01*
X98642857Y-113213575D01*
X98738095Y-113308813D01*
X98785714Y-113404051D01*
X98833333Y-113594527D01*
X98833333Y-113737384D01*
X98785714Y-113927860D01*
X98738095Y-114023098D01*
X98642857Y-114118336D01*
X98500000Y-114165955D01*
X98261904Y-114165955D01*
X100147619Y-113165955D02*
X100480952Y-114165955D01*
X100814285Y-113165955D01*
X101147619Y-113785003D02*
X101909523Y-113785003D01*
X101528571Y-114165955D02*
X101528571Y-113404051D01*
X96242857Y-112042146D02*
X96576190Y-112042146D01*
X96719047Y-112565955D02*
X96242857Y-112565955D01*
X96242857Y-111565955D01*
X96719047Y-111565955D01*
X97052380Y-112565955D02*
X97576190Y-111899289D01*
X97052380Y-111899289D02*
X97576190Y-112565955D01*
X97814285Y-111899289D02*
X98195238Y-111899289D01*
X97957142Y-111565955D02*
X97957142Y-112423098D01*
X98004761Y-112518336D01*
X98100000Y-112565955D01*
X98195238Y-112565955D01*
X99290476Y-112565955D02*
X99290476Y-111565955D01*
X99671428Y-111565955D01*
X99766666Y-111613575D01*
X99814285Y-111661194D01*
X99861904Y-111756432D01*
X99861904Y-111899289D01*
X99814285Y-111994527D01*
X99766666Y-112042146D01*
X99671428Y-112089765D01*
X99290476Y-112089765D01*
X100195238Y-111899289D02*
X100385714Y-112565955D01*
X100576190Y-112089765D01*
X100766666Y-112565955D01*
X100957142Y-111899289D01*
X101338095Y-112565955D02*
X101338095Y-111899289D01*
X101338095Y-112089765D02*
X101385714Y-111994527D01*
X101433333Y-111946908D01*
X101528571Y-111899289D01*
X101623809Y-111899289D01*
X101957142Y-112470717D02*
X102004761Y-112518336D01*
X101957142Y-112565955D01*
X101909523Y-112518336D01*
X101957142Y-112470717D01*
X101957142Y-112565955D01*
X135300000Y-104513575D02*
X137600000Y-104513575D01*
X137600000Y-104513575D02*
X137600000Y-112513575D01*
X137600000Y-112513575D02*
X135300000Y-112513575D01*
X135300000Y-112513575D02*
X135300000Y-104513575D01*
%TO.C,SW2*%
X137966666Y-99918336D02*
X138109523Y-99965955D01*
X138347619Y-99965955D01*
X138442857Y-99918336D01*
X138490476Y-99870717D01*
X138538095Y-99775479D01*
X138538095Y-99680241D01*
X138490476Y-99585003D01*
X138442857Y-99537384D01*
X138347619Y-99489765D01*
X138157142Y-99442146D01*
X138061904Y-99394527D01*
X138014285Y-99346908D01*
X137966666Y-99251670D01*
X137966666Y-99156432D01*
X138014285Y-99061194D01*
X138061904Y-99013575D01*
X138157142Y-98965955D01*
X138395238Y-98965955D01*
X138538095Y-99013575D01*
X138871428Y-98965955D02*
X139109523Y-99965955D01*
X139300000Y-99251670D01*
X139490476Y-99965955D01*
X139728571Y-98965955D01*
X140061904Y-99061194D02*
X140109523Y-99013575D01*
X140204761Y-98965955D01*
X140442857Y-98965955D01*
X140538095Y-99013575D01*
X140585714Y-99061194D01*
X140633333Y-99156432D01*
X140633333Y-99251670D01*
X140585714Y-99394527D01*
X140014285Y-99965955D01*
X140633333Y-99965955D01*
%TO.C,SW1*%
X109566666Y-110018336D02*
X109709523Y-110065955D01*
X109947619Y-110065955D01*
X110042857Y-110018336D01*
X110090476Y-109970717D01*
X110138095Y-109875479D01*
X110138095Y-109780241D01*
X110090476Y-109685003D01*
X110042857Y-109637384D01*
X109947619Y-109589765D01*
X109757142Y-109542146D01*
X109661904Y-109494527D01*
X109614285Y-109446908D01*
X109566666Y-109351670D01*
X109566666Y-109256432D01*
X109614285Y-109161194D01*
X109661904Y-109113575D01*
X109757142Y-109065955D01*
X109995238Y-109065955D01*
X110138095Y-109113575D01*
X110471428Y-109065955D02*
X110709523Y-110065955D01*
X110900000Y-109351670D01*
X111090476Y-110065955D01*
X111328571Y-109065955D01*
X112233333Y-110065955D02*
X111661904Y-110065955D01*
X111947619Y-110065955D02*
X111947619Y-109065955D01*
X111852380Y-109208813D01*
X111757142Y-109304051D01*
X111661904Y-109351670D01*
%TO.C,C12*%
X142157142Y-112642857D02*
X142204761Y-112690476D01*
X142252380Y-112833333D01*
X142252380Y-112928571D01*
X142204761Y-113071428D01*
X142109523Y-113166666D01*
X142014285Y-113214285D01*
X141823809Y-113261904D01*
X141680952Y-113261904D01*
X141490476Y-113214285D01*
X141395238Y-113166666D01*
X141300000Y-113071428D01*
X141252380Y-112928571D01*
X141252380Y-112833333D01*
X141300000Y-112690476D01*
X141347619Y-112642857D01*
X142252380Y-111690476D02*
X142252380Y-112261904D01*
X142252380Y-111976190D02*
X141252380Y-111976190D01*
X141395238Y-112071428D01*
X141490476Y-112166666D01*
X141538095Y-112261904D01*
X141347619Y-111309523D02*
X141300000Y-111261904D01*
X141252380Y-111166666D01*
X141252380Y-110928571D01*
X141300000Y-110833333D01*
X141347619Y-110785714D01*
X141442857Y-110738095D01*
X141538095Y-110738095D01*
X141680952Y-110785714D01*
X142252380Y-111357142D01*
X142252380Y-110738095D01*
%TO.C,C11*%
X149887142Y-111305357D02*
X149934761Y-111352976D01*
X149982380Y-111495833D01*
X149982380Y-111591071D01*
X149934761Y-111733928D01*
X149839523Y-111829166D01*
X149744285Y-111876785D01*
X149553809Y-111924404D01*
X149410952Y-111924404D01*
X149220476Y-111876785D01*
X149125238Y-111829166D01*
X149030000Y-111733928D01*
X148982380Y-111591071D01*
X148982380Y-111495833D01*
X149030000Y-111352976D01*
X149077619Y-111305357D01*
X149982380Y-110352976D02*
X149982380Y-110924404D01*
X149982380Y-110638690D02*
X148982380Y-110638690D01*
X149125238Y-110733928D01*
X149220476Y-110829166D01*
X149268095Y-110924404D01*
X149982380Y-109400595D02*
X149982380Y-109972023D01*
X149982380Y-109686309D02*
X148982380Y-109686309D01*
X149125238Y-109781547D01*
X149220476Y-109876785D01*
X149268095Y-109972023D01*
%TO.C,C10*%
X123557142Y-98057142D02*
X123509523Y-98104761D01*
X123366666Y-98152380D01*
X123271428Y-98152380D01*
X123128571Y-98104761D01*
X123033333Y-98009523D01*
X122985714Y-97914285D01*
X122938095Y-97723809D01*
X122938095Y-97580952D01*
X122985714Y-97390476D01*
X123033333Y-97295238D01*
X123128571Y-97200000D01*
X123271428Y-97152380D01*
X123366666Y-97152380D01*
X123509523Y-97200000D01*
X123557142Y-97247619D01*
X124509523Y-98152380D02*
X123938095Y-98152380D01*
X124223809Y-98152380D02*
X124223809Y-97152380D01*
X124128571Y-97295238D01*
X124033333Y-97390476D01*
X123938095Y-97438095D01*
X125128571Y-97152380D02*
X125223809Y-97152380D01*
X125319047Y-97200000D01*
X125366666Y-97247619D01*
X125414285Y-97342857D01*
X125461904Y-97533333D01*
X125461904Y-97771428D01*
X125414285Y-97961904D01*
X125366666Y-98057142D01*
X125319047Y-98104761D01*
X125223809Y-98152380D01*
X125128571Y-98152380D01*
X125033333Y-98104761D01*
X124985714Y-98057142D01*
X124938095Y-97961904D01*
X124890476Y-97771428D01*
X124890476Y-97533333D01*
X124938095Y-97342857D01*
X124985714Y-97247619D01*
X125033333Y-97200000D01*
X125128571Y-97152380D01*
%TO.C,C9*%
X134733333Y-103045279D02*
X134685714Y-103092898D01*
X134542857Y-103140517D01*
X134447619Y-103140517D01*
X134304761Y-103092898D01*
X134209523Y-102997660D01*
X134161904Y-102902422D01*
X134114285Y-102711946D01*
X134114285Y-102569089D01*
X134161904Y-102378613D01*
X134209523Y-102283375D01*
X134304761Y-102188137D01*
X134447619Y-102140517D01*
X134542857Y-102140517D01*
X134685714Y-102188137D01*
X134733333Y-102235756D01*
X135209523Y-103140517D02*
X135400000Y-103140517D01*
X135495238Y-103092898D01*
X135542857Y-103045279D01*
X135638095Y-102902422D01*
X135685714Y-102711946D01*
X135685714Y-102330994D01*
X135638095Y-102235756D01*
X135590476Y-102188137D01*
X135495238Y-102140517D01*
X135304761Y-102140517D01*
X135209523Y-102188137D01*
X135161904Y-102235756D01*
X135114285Y-102330994D01*
X135114285Y-102569089D01*
X135161904Y-102664327D01*
X135209523Y-102711946D01*
X135304761Y-102759565D01*
X135495238Y-102759565D01*
X135590476Y-102711946D01*
X135638095Y-102664327D01*
X135685714Y-102569089D01*
%TO.C,D1*%
X127961904Y-98965955D02*
X127961904Y-97965955D01*
X128200000Y-97965955D01*
X128342857Y-98013575D01*
X128438095Y-98108813D01*
X128485714Y-98204051D01*
X128533333Y-98394527D01*
X128533333Y-98537384D01*
X128485714Y-98727860D01*
X128438095Y-98823098D01*
X128342857Y-98918336D01*
X128200000Y-98965955D01*
X127961904Y-98965955D01*
X129485714Y-98965955D02*
X128914285Y-98965955D01*
X129200000Y-98965955D02*
X129200000Y-97965955D01*
X129104761Y-98108813D01*
X129009523Y-98204051D01*
X128914285Y-98251670D01*
%TO.C,R2*%
X136233333Y-105865955D02*
X135900000Y-105389765D01*
X135661904Y-105865955D02*
X135661904Y-104865955D01*
X136042857Y-104865955D01*
X136138095Y-104913575D01*
X136185714Y-104961194D01*
X136233333Y-105056432D01*
X136233333Y-105199289D01*
X136185714Y-105294527D01*
X136138095Y-105342146D01*
X136042857Y-105389765D01*
X135661904Y-105389765D01*
X136614285Y-104961194D02*
X136661904Y-104913575D01*
X136757142Y-104865955D01*
X136995238Y-104865955D01*
X137090476Y-104913575D01*
X137138095Y-104961194D01*
X137185714Y-105056432D01*
X137185714Y-105151670D01*
X137138095Y-105294527D01*
X136566666Y-105865955D01*
X137185714Y-105865955D01*
%TO.C,R7*%
X136233333Y-112165955D02*
X135900000Y-111689765D01*
X135661904Y-112165955D02*
X135661904Y-111165955D01*
X136042857Y-111165955D01*
X136138095Y-111213575D01*
X136185714Y-111261194D01*
X136233333Y-111356432D01*
X136233333Y-111499289D01*
X136185714Y-111594527D01*
X136138095Y-111642146D01*
X136042857Y-111689765D01*
X135661904Y-111689765D01*
X136566666Y-111165955D02*
X137233333Y-111165955D01*
X136804761Y-112165955D01*
%TO.C,U4*%
X147088095Y-104052380D02*
X147088095Y-104861904D01*
X147135714Y-104957142D01*
X147183333Y-105004761D01*
X147278571Y-105052380D01*
X147469047Y-105052380D01*
X147564285Y-105004761D01*
X147611904Y-104957142D01*
X147659523Y-104861904D01*
X147659523Y-104052380D01*
X148564285Y-104385714D02*
X148564285Y-105052380D01*
X148326190Y-104004761D02*
X148088095Y-104719047D01*
X148707142Y-104719047D01*
%TO.C,C1*%
X105633333Y-101057142D02*
X105585714Y-101104761D01*
X105442857Y-101152380D01*
X105347619Y-101152380D01*
X105204761Y-101104761D01*
X105109523Y-101009523D01*
X105061904Y-100914285D01*
X105014285Y-100723809D01*
X105014285Y-100580952D01*
X105061904Y-100390476D01*
X105109523Y-100295238D01*
X105204761Y-100200000D01*
X105347619Y-100152380D01*
X105442857Y-100152380D01*
X105585714Y-100200000D01*
X105633333Y-100247619D01*
X106585714Y-101152380D02*
X106014285Y-101152380D01*
X106300000Y-101152380D02*
X106300000Y-100152380D01*
X106204761Y-100295238D01*
X106109523Y-100390476D01*
X106014285Y-100438095D01*
%TO.C,U1*%
X108438095Y-100152380D02*
X108438095Y-100961904D01*
X108485714Y-101057142D01*
X108533333Y-101104761D01*
X108628571Y-101152380D01*
X108819047Y-101152380D01*
X108914285Y-101104761D01*
X108961904Y-101057142D01*
X109009523Y-100961904D01*
X109009523Y-100152380D01*
X110009523Y-101152380D02*
X109438095Y-101152380D01*
X109723809Y-101152380D02*
X109723809Y-100152380D01*
X109628571Y-100295238D01*
X109533333Y-100390476D01*
X109438095Y-100438095D01*
%TO.C,U2*%
X108538095Y-94952380D02*
X108538095Y-95761904D01*
X108585714Y-95857142D01*
X108633333Y-95904761D01*
X108728571Y-95952380D01*
X108919047Y-95952380D01*
X109014285Y-95904761D01*
X109061904Y-95857142D01*
X109109523Y-95761904D01*
X109109523Y-94952380D01*
X109538095Y-95047619D02*
X109585714Y-95000000D01*
X109680952Y-94952380D01*
X109919047Y-94952380D01*
X110014285Y-95000000D01*
X110061904Y-95047619D01*
X110109523Y-95142857D01*
X110109523Y-95238095D01*
X110061904Y-95380952D01*
X109490476Y-95952380D01*
X110109523Y-95952380D01*
%TO.C,R8*%
X151133333Y-102865955D02*
X150800000Y-102389765D01*
X150561904Y-102865955D02*
X150561904Y-101865955D01*
X150942857Y-101865955D01*
X151038095Y-101913575D01*
X151085714Y-101961194D01*
X151133333Y-102056432D01*
X151133333Y-102199289D01*
X151085714Y-102294527D01*
X151038095Y-102342146D01*
X150942857Y-102389765D01*
X150561904Y-102389765D01*
X151704761Y-102294527D02*
X151609523Y-102246908D01*
X151561904Y-102199289D01*
X151514285Y-102104051D01*
X151514285Y-102056432D01*
X151561904Y-101961194D01*
X151609523Y-101913575D01*
X151704761Y-101865955D01*
X151895238Y-101865955D01*
X151990476Y-101913575D01*
X152038095Y-101961194D01*
X152085714Y-102056432D01*
X152085714Y-102104051D01*
X152038095Y-102199289D01*
X151990476Y-102246908D01*
X151895238Y-102294527D01*
X151704761Y-102294527D01*
X151609523Y-102342146D01*
X151561904Y-102389765D01*
X151514285Y-102485003D01*
X151514285Y-102675479D01*
X151561904Y-102770717D01*
X151609523Y-102818336D01*
X151704761Y-102865955D01*
X151895238Y-102865955D01*
X151990476Y-102818336D01*
X152038095Y-102770717D01*
X152085714Y-102675479D01*
X152085714Y-102485003D01*
X152038095Y-102389765D01*
X151990476Y-102342146D01*
X151895238Y-102294527D01*
%TO.C,C13*%
X144157142Y-112617857D02*
X144204761Y-112665476D01*
X144252380Y-112808333D01*
X144252380Y-112903571D01*
X144204761Y-113046428D01*
X144109523Y-113141666D01*
X144014285Y-113189285D01*
X143823809Y-113236904D01*
X143680952Y-113236904D01*
X143490476Y-113189285D01*
X143395238Y-113141666D01*
X143300000Y-113046428D01*
X143252380Y-112903571D01*
X143252380Y-112808333D01*
X143300000Y-112665476D01*
X143347619Y-112617857D01*
X144252380Y-111665476D02*
X144252380Y-112236904D01*
X144252380Y-111951190D02*
X143252380Y-111951190D01*
X143395238Y-112046428D01*
X143490476Y-112141666D01*
X143538095Y-112236904D01*
X143252380Y-111332142D02*
X143252380Y-110713095D01*
X143633333Y-111046428D01*
X143633333Y-110903571D01*
X143680952Y-110808333D01*
X143728571Y-110760714D01*
X143823809Y-110713095D01*
X144061904Y-110713095D01*
X144157142Y-110760714D01*
X144204761Y-110808333D01*
X144252380Y-110903571D01*
X144252380Y-111189285D01*
X144204761Y-111284523D01*
X144157142Y-111332142D01*
%TO.C,R1*%
X131333333Y-95752380D02*
X131000000Y-95276190D01*
X130761904Y-95752380D02*
X130761904Y-94752380D01*
X131142857Y-94752380D01*
X131238095Y-94800000D01*
X131285714Y-94847619D01*
X131333333Y-94942857D01*
X131333333Y-95085714D01*
X131285714Y-95180952D01*
X131238095Y-95228571D01*
X131142857Y-95276190D01*
X130761904Y-95276190D01*
X132285714Y-95752380D02*
X131714285Y-95752380D01*
X132000000Y-95752380D02*
X132000000Y-94752380D01*
X131904761Y-94895238D01*
X131809523Y-94990476D01*
X131714285Y-95038095D01*
%TO.C,X1*%
X120890476Y-107965955D02*
X121557142Y-108965955D01*
X121557142Y-107965955D02*
X120890476Y-108965955D01*
X122461904Y-108965955D02*
X121890476Y-108965955D01*
X122176190Y-108965955D02*
X122176190Y-107965955D01*
X122080952Y-108108813D01*
X121985714Y-108204051D01*
X121890476Y-108251670D01*
%TO.C,C6*%
X114433333Y-95857142D02*
X114385714Y-95904761D01*
X114242857Y-95952380D01*
X114147619Y-95952380D01*
X114004761Y-95904761D01*
X113909523Y-95809523D01*
X113861904Y-95714285D01*
X113814285Y-95523809D01*
X113814285Y-95380952D01*
X113861904Y-95190476D01*
X113909523Y-95095238D01*
X114004761Y-95000000D01*
X114147619Y-94952380D01*
X114242857Y-94952380D01*
X114385714Y-95000000D01*
X114433333Y-95047619D01*
X115290476Y-94952380D02*
X115100000Y-94952380D01*
X115004761Y-95000000D01*
X114957142Y-95047619D01*
X114861904Y-95190476D01*
X114814285Y-95380952D01*
X114814285Y-95761904D01*
X114861904Y-95857142D01*
X114909523Y-95904761D01*
X115004761Y-95952380D01*
X115195238Y-95952380D01*
X115290476Y-95904761D01*
X115338095Y-95857142D01*
X115385714Y-95761904D01*
X115385714Y-95523809D01*
X115338095Y-95428571D01*
X115290476Y-95380952D01*
X115195238Y-95333333D01*
X115004761Y-95333333D01*
X114909523Y-95380952D01*
X114861904Y-95428571D01*
X114814285Y-95523809D01*
%TO.C,U3*%
X128825646Y-107803017D02*
X128825646Y-108612541D01*
X128873265Y-108707779D01*
X128920884Y-108755398D01*
X129016122Y-108803017D01*
X129206598Y-108803017D01*
X129301836Y-108755398D01*
X129349455Y-108707779D01*
X129397074Y-108612541D01*
X129397074Y-107803017D01*
X129778027Y-107803017D02*
X130397074Y-107803017D01*
X130063741Y-108183970D01*
X130206598Y-108183970D01*
X130301836Y-108231589D01*
X130349455Y-108279208D01*
X130397074Y-108374446D01*
X130397074Y-108612541D01*
X130349455Y-108707779D01*
X130301836Y-108755398D01*
X130206598Y-108803017D01*
X129920884Y-108803017D01*
X129825646Y-108755398D01*
X129778027Y-108707779D01*
%TO.C,R3*%
X136218384Y-107165955D02*
X135885051Y-106689765D01*
X135646955Y-107165955D02*
X135646955Y-106165955D01*
X136027908Y-106165955D01*
X136123146Y-106213575D01*
X136170765Y-106261194D01*
X136218384Y-106356432D01*
X136218384Y-106499289D01*
X136170765Y-106594527D01*
X136123146Y-106642146D01*
X136027908Y-106689765D01*
X135646955Y-106689765D01*
X136551717Y-106165955D02*
X137170765Y-106165955D01*
X136837431Y-106546908D01*
X136980289Y-106546908D01*
X137075527Y-106594527D01*
X137123146Y-106642146D01*
X137170765Y-106737384D01*
X137170765Y-106975479D01*
X137123146Y-107070717D01*
X137075527Y-107118336D01*
X136980289Y-107165955D01*
X136694574Y-107165955D01*
X136599336Y-107118336D01*
X136551717Y-107070717D01*
%TO.C,C3*%
X114333333Y-101057142D02*
X114285714Y-101104761D01*
X114142857Y-101152380D01*
X114047619Y-101152380D01*
X113904761Y-101104761D01*
X113809523Y-101009523D01*
X113761904Y-100914285D01*
X113714285Y-100723809D01*
X113714285Y-100580952D01*
X113761904Y-100390476D01*
X113809523Y-100295238D01*
X113904761Y-100200000D01*
X114047619Y-100152380D01*
X114142857Y-100152380D01*
X114285714Y-100200000D01*
X114333333Y-100247619D01*
X114666666Y-100152380D02*
X115285714Y-100152380D01*
X114952380Y-100533333D01*
X115095238Y-100533333D01*
X115190476Y-100580952D01*
X115238095Y-100628571D01*
X115285714Y-100723809D01*
X115285714Y-100961904D01*
X115238095Y-101057142D01*
X115190476Y-101104761D01*
X115095238Y-101152380D01*
X114809523Y-101152380D01*
X114714285Y-101104761D01*
X114666666Y-101057142D01*
%TO.C,C5*%
X112333333Y-95857142D02*
X112285714Y-95904761D01*
X112142857Y-95952380D01*
X112047619Y-95952380D01*
X111904761Y-95904761D01*
X111809523Y-95809523D01*
X111761904Y-95714285D01*
X111714285Y-95523809D01*
X111714285Y-95380952D01*
X111761904Y-95190476D01*
X111809523Y-95095238D01*
X111904761Y-95000000D01*
X112047619Y-94952380D01*
X112142857Y-94952380D01*
X112285714Y-95000000D01*
X112333333Y-95047619D01*
X113238095Y-94952380D02*
X112761904Y-94952380D01*
X112714285Y-95428571D01*
X112761904Y-95380952D01*
X112857142Y-95333333D01*
X113095238Y-95333333D01*
X113190476Y-95380952D01*
X113238095Y-95428571D01*
X113285714Y-95523809D01*
X113285714Y-95761904D01*
X113238095Y-95857142D01*
X113190476Y-95904761D01*
X113095238Y-95952380D01*
X112857142Y-95952380D01*
X112761904Y-95904761D01*
X112714285Y-95857142D01*
%TO.C,C7*%
X117033333Y-111870717D02*
X116985714Y-111918336D01*
X116842857Y-111965955D01*
X116747619Y-111965955D01*
X116604761Y-111918336D01*
X116509523Y-111823098D01*
X116461904Y-111727860D01*
X116414285Y-111537384D01*
X116414285Y-111394527D01*
X116461904Y-111204051D01*
X116509523Y-111108813D01*
X116604761Y-111013575D01*
X116747619Y-110965955D01*
X116842857Y-110965955D01*
X116985714Y-111013575D01*
X117033333Y-111061194D01*
X117366666Y-110965955D02*
X118033333Y-110965955D01*
X117604761Y-111965955D01*
%TO.C,C2*%
X112233333Y-101057142D02*
X112185714Y-101104761D01*
X112042857Y-101152380D01*
X111947619Y-101152380D01*
X111804761Y-101104761D01*
X111709523Y-101009523D01*
X111661904Y-100914285D01*
X111614285Y-100723809D01*
X111614285Y-100580952D01*
X111661904Y-100390476D01*
X111709523Y-100295238D01*
X111804761Y-100200000D01*
X111947619Y-100152380D01*
X112042857Y-100152380D01*
X112185714Y-100200000D01*
X112233333Y-100247619D01*
X112614285Y-100247619D02*
X112661904Y-100200000D01*
X112757142Y-100152380D01*
X112995238Y-100152380D01*
X113090476Y-100200000D01*
X113138095Y-100247619D01*
X113185714Y-100342857D01*
X113185714Y-100438095D01*
X113138095Y-100580952D01*
X112566666Y-101152380D01*
X113185714Y-101152380D01*
%TO.C,C8*%
X127020884Y-100707779D02*
X126973265Y-100755398D01*
X126830408Y-100803017D01*
X126735170Y-100803017D01*
X126592312Y-100755398D01*
X126497074Y-100660160D01*
X126449455Y-100564922D01*
X126401836Y-100374446D01*
X126401836Y-100231589D01*
X126449455Y-100041113D01*
X126497074Y-99945875D01*
X126592312Y-99850637D01*
X126735170Y-99803017D01*
X126830408Y-99803017D01*
X126973265Y-99850637D01*
X127020884Y-99898256D01*
X127592312Y-100231589D02*
X127497074Y-100183970D01*
X127449455Y-100136351D01*
X127401836Y-100041113D01*
X127401836Y-99993494D01*
X127449455Y-99898256D01*
X127497074Y-99850637D01*
X127592312Y-99803017D01*
X127782789Y-99803017D01*
X127878027Y-99850637D01*
X127925646Y-99898256D01*
X127973265Y-99993494D01*
X127973265Y-100041113D01*
X127925646Y-100136351D01*
X127878027Y-100183970D01*
X127782789Y-100231589D01*
X127592312Y-100231589D01*
X127497074Y-100279208D01*
X127449455Y-100326827D01*
X127401836Y-100422065D01*
X127401836Y-100612541D01*
X127449455Y-100707779D01*
X127497074Y-100755398D01*
X127592312Y-100803017D01*
X127782789Y-100803017D01*
X127878027Y-100755398D01*
X127925646Y-100707779D01*
X127973265Y-100612541D01*
X127973265Y-100422065D01*
X127925646Y-100326827D01*
X127878027Y-100279208D01*
X127782789Y-100231589D01*
%TO.C,C4*%
X105733333Y-95857142D02*
X105685714Y-95904761D01*
X105542857Y-95952380D01*
X105447619Y-95952380D01*
X105304761Y-95904761D01*
X105209523Y-95809523D01*
X105161904Y-95714285D01*
X105114285Y-95523809D01*
X105114285Y-95380952D01*
X105161904Y-95190476D01*
X105209523Y-95095238D01*
X105304761Y-95000000D01*
X105447619Y-94952380D01*
X105542857Y-94952380D01*
X105685714Y-95000000D01*
X105733333Y-95047619D01*
X106590476Y-95285714D02*
X106590476Y-95952380D01*
X106352380Y-94904761D02*
X106114285Y-95619047D01*
X106733333Y-95619047D01*
%TO.C,R5*%
X136223384Y-109765955D02*
X135890051Y-109289765D01*
X135651955Y-109765955D02*
X135651955Y-108765955D01*
X136032908Y-108765955D01*
X136128146Y-108813575D01*
X136175765Y-108861194D01*
X136223384Y-108956432D01*
X136223384Y-109099289D01*
X136175765Y-109194527D01*
X136128146Y-109242146D01*
X136032908Y-109289765D01*
X135651955Y-109289765D01*
X137128146Y-108765955D02*
X136651955Y-108765955D01*
X136604336Y-109242146D01*
X136651955Y-109194527D01*
X136747193Y-109146908D01*
X136985289Y-109146908D01*
X137080527Y-109194527D01*
X137128146Y-109242146D01*
X137175765Y-109337384D01*
X137175765Y-109575479D01*
X137128146Y-109670717D01*
X137080527Y-109718336D01*
X136985289Y-109765955D01*
X136747193Y-109765955D01*
X136651955Y-109718336D01*
X136604336Y-109670717D01*
%TO.C,R4*%
X136220884Y-108465955D02*
X135887551Y-107989765D01*
X135649455Y-108465955D02*
X135649455Y-107465955D01*
X136030408Y-107465955D01*
X136125646Y-107513575D01*
X136173265Y-107561194D01*
X136220884Y-107656432D01*
X136220884Y-107799289D01*
X136173265Y-107894527D01*
X136125646Y-107942146D01*
X136030408Y-107989765D01*
X135649455Y-107989765D01*
X137078027Y-107799289D02*
X137078027Y-108465955D01*
X136839931Y-107418336D02*
X136601836Y-108132622D01*
X137220884Y-108132622D01*
%TO.C,J1*%
X98052380Y-102046908D02*
X98766666Y-102046908D01*
X98909523Y-102094527D01*
X99004761Y-102189765D01*
X99052380Y-102332622D01*
X99052380Y-102427860D01*
X99052380Y-101046908D02*
X99052380Y-101618336D01*
X99052380Y-101332622D02*
X98052380Y-101332622D01*
X98195238Y-101427860D01*
X98290476Y-101523098D01*
X98338095Y-101618336D01*
%TO.C,R6*%
X136233333Y-110965955D02*
X135900000Y-110489765D01*
X135661904Y-110965955D02*
X135661904Y-109965955D01*
X136042857Y-109965955D01*
X136138095Y-110013575D01*
X136185714Y-110061194D01*
X136233333Y-110156432D01*
X136233333Y-110299289D01*
X136185714Y-110394527D01*
X136138095Y-110442146D01*
X136042857Y-110489765D01*
X135661904Y-110489765D01*
X137090476Y-109965955D02*
X136900000Y-109965955D01*
X136804761Y-110013575D01*
X136757142Y-110061194D01*
X136661904Y-110204051D01*
X136614285Y-110394527D01*
X136614285Y-110775479D01*
X136661904Y-110870717D01*
X136709523Y-110918336D01*
X136804761Y-110965955D01*
X136995238Y-110965955D01*
X137090476Y-110918336D01*
X137138095Y-110870717D01*
X137185714Y-110775479D01*
X137185714Y-110537384D01*
X137138095Y-110442146D01*
X137090476Y-110394527D01*
X136995238Y-110346908D01*
X136804761Y-110346908D01*
X136709523Y-110394527D01*
X136661904Y-110442146D01*
X136614285Y-110537384D01*
D11*
%TO.C,SW2*%
X141179600Y-96401435D02*
X141179600Y-95132075D01*
X141179600Y-101401435D02*
X141179600Y-97625715D01*
X141179600Y-103895075D02*
X141179600Y-102625715D01*
X137420400Y-103895075D02*
X141179600Y-103895075D01*
X141179600Y-95132075D02*
X137420400Y-95132075D01*
X137420400Y-95132075D02*
X137420400Y-98901435D01*
X137420400Y-100125715D02*
X137420400Y-103895075D01*
%TO.C,SW1*%
X112579600Y-106501435D02*
X112579600Y-105232075D01*
X112579600Y-111501435D02*
X112579600Y-107725715D01*
X112579600Y-113995075D02*
X112579600Y-112725715D01*
X108820400Y-113995075D02*
X112579600Y-113995075D01*
X112579600Y-105232075D02*
X108820400Y-105232075D01*
X108820400Y-105232075D02*
X108820400Y-109001435D01*
X108820400Y-110225715D02*
X108820400Y-113995075D01*
%TO.C,C12*%
X142310000Y-108691233D02*
X142310000Y-108983767D01*
X141290000Y-108691233D02*
X141290000Y-108983767D01*
%TO.C,C11*%
X148610000Y-110516233D02*
X148610000Y-110808767D01*
X147590000Y-110516233D02*
X147590000Y-110808767D01*
%TO.C,C10*%
X123690000Y-100284790D02*
X123690000Y-99992256D01*
X124710000Y-100284790D02*
X124710000Y-99992256D01*
%TO.C,C9*%
X132490000Y-102834404D02*
X132490000Y-102541870D01*
X133510000Y-102834404D02*
X133510000Y-102541870D01*
%TO.C,G\u002A\u002A\u002A*%
G36*
X155951191Y-113868218D02*
G01*
X155765970Y-113868218D01*
X155765970Y-110361363D01*
X155951191Y-110361363D01*
X155951191Y-113868218D01*
G37*
G36*
X157539997Y-113579497D02*
G01*
X157546710Y-113556429D01*
X157571132Y-113512498D01*
X157604595Y-113476537D01*
X157647507Y-113448188D01*
X157691676Y-113429825D01*
X157707171Y-113425835D01*
X157732257Y-113420652D01*
X157764302Y-113414701D01*
X157800676Y-113408408D01*
X157838748Y-113402199D01*
X157875888Y-113396499D01*
X157909465Y-113391735D01*
X157936847Y-113388332D01*
X157955405Y-113386717D01*
X157958414Y-113386643D01*
X157963169Y-113381494D01*
X157963804Y-113368394D01*
X157960767Y-113350866D01*
X157954509Y-113332428D01*
X157950443Y-113324200D01*
X157933729Y-113302387D01*
X157911101Y-113287499D01*
X157880806Y-113278804D01*
X157841091Y-113275569D01*
X157833743Y-113275510D01*
X157767068Y-113281531D01*
X157701365Y-113299174D01*
X157649254Y-113322245D01*
X157629158Y-113332576D01*
X157613313Y-113340117D01*
X157604841Y-113343388D01*
X157604492Y-113343424D01*
X157602725Y-113337626D01*
X157601247Y-113321731D01*
X157600190Y-113297990D01*
X157599684Y-113268653D01*
X157599659Y-113260158D01*
X157599659Y-113176891D01*
X157622812Y-113166998D01*
X157666821Y-113151493D01*
X157718081Y-113138829D01*
X157773561Y-113129316D01*
X157830227Y-113123263D01*
X157885047Y-113120981D01*
X157934987Y-113122778D01*
X157977015Y-113128964D01*
X157982450Y-113130290D01*
X158036250Y-113149222D01*
X158080779Y-113175972D01*
X158116691Y-113211185D01*
X158144638Y-113255505D01*
X158165275Y-113309576D01*
X158165635Y-113310822D01*
X158168287Y-113321722D01*
X158170505Y-113335152D01*
X158172345Y-113352353D01*
X158173862Y-113374566D01*
X158175112Y-113403030D01*
X158176150Y-113438986D01*
X158177032Y-113483676D01*
X158177814Y-113538338D01*
X158178487Y-113598103D01*
X158181086Y-113849696D01*
X157963928Y-113849696D01*
X157963928Y-113761271D01*
X157947104Y-113782854D01*
X157917372Y-113813495D01*
X157881026Y-113839527D01*
X157844547Y-113856796D01*
X157813156Y-113864052D01*
X157774648Y-113867664D01*
X157733704Y-113867640D01*
X157695002Y-113863988D01*
X157663221Y-113856713D01*
X157662665Y-113856523D01*
X157620767Y-113835832D01*
X157585195Y-113805804D01*
X157557703Y-113768422D01*
X157540048Y-113725665D01*
X157537578Y-113715349D01*
X157533642Y-113684418D01*
X157532900Y-113648567D01*
X157535101Y-113612153D01*
X157739291Y-113612153D01*
X157739982Y-113640195D01*
X157751425Y-113667564D01*
X157769746Y-113688607D01*
X157783841Y-113699602D01*
X157797233Y-113705347D01*
X157814990Y-113707473D01*
X157828924Y-113707693D01*
X157856085Y-113705749D01*
X157879814Y-113700617D01*
X157887566Y-113697631D01*
X157911510Y-113681222D01*
X157933967Y-113657234D01*
X157951090Y-113630209D01*
X157956762Y-113615956D01*
X157959828Y-113600959D01*
X157962173Y-113580787D01*
X157963648Y-113558841D01*
X157964109Y-113538525D01*
X157963409Y-113523241D01*
X157961401Y-113516391D01*
X157961053Y-113516297D01*
X157946440Y-113517430D01*
X157923591Y-113520450D01*
X157895769Y-113524788D01*
X157866235Y-113529876D01*
X157838252Y-113535143D01*
X157815082Y-113540023D01*
X157799989Y-113543945D01*
X157797693Y-113544779D01*
X157768550Y-113562366D01*
X157748948Y-113585517D01*
X157739291Y-113612153D01*
X157535101Y-113612153D01*
X157535102Y-113612144D01*
X157539997Y-113579497D01*
G37*
G36*
X159164074Y-113448822D02*
G01*
X159167821Y-113408380D01*
X159173486Y-113374268D01*
X159178716Y-113355475D01*
X159194434Y-113316131D01*
X159211377Y-113284236D01*
X159232434Y-113255002D01*
X159254310Y-113230179D01*
X159300959Y-113189287D01*
X159355899Y-113157505D01*
X159419187Y-113134798D01*
X159424764Y-113133334D01*
X159461581Y-113126567D01*
X159506108Y-113122437D01*
X159554125Y-113120992D01*
X159601415Y-113122276D01*
X159643757Y-113126338D01*
X159667418Y-113130673D01*
X159729462Y-113151251D01*
X159784462Y-113181744D01*
X159831761Y-113221500D01*
X159870704Y-113269869D01*
X159900636Y-113326197D01*
X159918641Y-113380394D01*
X159923680Y-113410309D01*
X159926354Y-113448063D01*
X159926780Y-113490172D01*
X159925078Y-113533150D01*
X159921363Y-113573512D01*
X159915754Y-113607773D01*
X159910302Y-113627569D01*
X159883616Y-113688771D01*
X159850697Y-113739946D01*
X159810348Y-113782291D01*
X159761370Y-113817007D01*
X159702566Y-113845290D01*
X159686624Y-113851339D01*
X159660801Y-113857860D01*
X159625917Y-113862713D01*
X159585151Y-113865833D01*
X159541685Y-113867155D01*
X159498700Y-113866616D01*
X159459378Y-113864149D01*
X159426900Y-113859691D01*
X159414827Y-113856867D01*
X159351603Y-113833269D01*
X159296591Y-113800653D01*
X159250204Y-113759444D01*
X159212854Y-113710068D01*
X159184956Y-113652950D01*
X159170514Y-113605422D01*
X159165465Y-113573892D01*
X159162783Y-113535000D01*
X159162550Y-113511604D01*
X159387987Y-113511604D01*
X159393042Y-113555968D01*
X159403443Y-113596990D01*
X159418850Y-113632223D01*
X159438923Y-113659221D01*
X159447720Y-113666825D01*
X159470480Y-113681083D01*
X159494682Y-113689760D01*
X159524347Y-113693978D01*
X159548141Y-113694857D01*
X159576483Y-113694006D01*
X159597883Y-113690030D01*
X159617567Y-113681916D01*
X159619143Y-113681101D01*
X159649451Y-113658939D01*
X159672358Y-113627880D01*
X159687988Y-113587595D01*
X159696463Y-113537754D01*
X159697909Y-113478029D01*
X159697697Y-113472111D01*
X159692205Y-113418119D01*
X159680283Y-113374455D01*
X159661574Y-113340699D01*
X159635722Y-113316427D01*
X159602371Y-113301219D01*
X159561165Y-113294652D01*
X159547569Y-113294303D01*
X159503537Y-113298600D01*
X159467520Y-113311943D01*
X159438455Y-113335008D01*
X159415279Y-113368473D01*
X159408291Y-113382925D01*
X159395272Y-113422636D01*
X159388617Y-113466344D01*
X159387987Y-113511604D01*
X159162550Y-113511604D01*
X159162357Y-113492169D01*
X159164074Y-113448822D01*
G37*
G36*
X160418963Y-113125000D02*
G01*
X160480665Y-113135013D01*
X160503002Y-113140311D01*
X160526154Y-113146331D01*
X160526154Y-113232530D01*
X160525703Y-113270569D01*
X160524378Y-113297994D01*
X160522224Y-113314208D01*
X160519734Y-113318728D01*
X160510587Y-113316108D01*
X160495508Y-113309558D01*
X160490037Y-113306853D01*
X160450193Y-113291220D01*
X160403389Y-113280486D01*
X160354388Y-113275673D01*
X160344062Y-113275510D01*
X160303486Y-113278276D01*
X160273434Y-113286712D01*
X160253360Y-113301020D01*
X160246189Y-113311843D01*
X160240374Y-113330336D01*
X160242483Y-113346840D01*
X160253356Y-113362148D01*
X160273833Y-113377053D01*
X160304754Y-113392349D01*
X160346959Y-113408827D01*
X160350194Y-113409986D01*
X160398599Y-113428120D01*
X160437071Y-113444644D01*
X160467729Y-113460643D01*
X160492691Y-113477203D01*
X160510729Y-113492269D01*
X160535181Y-113518456D01*
X160551647Y-113545905D01*
X160561339Y-113577726D01*
X160565469Y-113617029D01*
X160565827Y-113633611D01*
X160565569Y-113662896D01*
X160563918Y-113683963D01*
X160560132Y-113700925D01*
X160553472Y-113717896D01*
X160548929Y-113727472D01*
X160521864Y-113768922D01*
X160484687Y-113803966D01*
X160438143Y-113832086D01*
X160382972Y-113852765D01*
X160361323Y-113858248D01*
X160330510Y-113863067D01*
X160291091Y-113866168D01*
X160246692Y-113867544D01*
X160200936Y-113867190D01*
X160157447Y-113865100D01*
X160119849Y-113861269D01*
X160104161Y-113858652D01*
X160079076Y-113853262D01*
X160055742Y-113847568D01*
X160040878Y-113843319D01*
X160019883Y-113836390D01*
X160019883Y-113747345D01*
X160020317Y-113708812D01*
X160021587Y-113680697D01*
X160023648Y-113663651D01*
X160026262Y-113658300D01*
X160035041Y-113660912D01*
X160050573Y-113667600D01*
X160061763Y-113673032D01*
X160102661Y-113690527D01*
X160145581Y-113703268D01*
X160188705Y-113711259D01*
X160230215Y-113714502D01*
X160268293Y-113712998D01*
X160301121Y-113706749D01*
X160326882Y-113695758D01*
X160343756Y-113680026D01*
X160347495Y-113672714D01*
X160351548Y-113653377D01*
X160347402Y-113636248D01*
X160334207Y-113620560D01*
X160311113Y-113605545D01*
X160277272Y-113590434D01*
X160242837Y-113578077D01*
X160180433Y-113554991D01*
X160129581Y-113530932D01*
X160089486Y-113505028D01*
X160059352Y-113476407D01*
X160038384Y-113444197D01*
X160025786Y-113407526D01*
X160020762Y-113365524D01*
X160021170Y-113335163D01*
X160024268Y-113302350D01*
X160030109Y-113276860D01*
X160039823Y-113253775D01*
X160039886Y-113253653D01*
X160061400Y-113221472D01*
X160090848Y-113190777D01*
X160124088Y-113165631D01*
X160137076Y-113158261D01*
X160181290Y-113140921D01*
X160234170Y-113128798D01*
X160293132Y-113122019D01*
X160355591Y-113120711D01*
X160418963Y-113125000D01*
G37*
G36*
X160660179Y-113386476D02*
G01*
X160666580Y-113361808D01*
X160695438Y-113297574D01*
X160732278Y-113242682D01*
X160776988Y-113197240D01*
X160829458Y-113161356D01*
X160889577Y-113135140D01*
X160902348Y-113131114D01*
X160930352Y-113125529D01*
X160966510Y-113122198D01*
X161006835Y-113121130D01*
X161047336Y-113122334D01*
X161084026Y-113125820D01*
X161109385Y-113130623D01*
X161163695Y-113150976D01*
X161212054Y-113181703D01*
X161253072Y-113221706D01*
X161284935Y-113269095D01*
X161298872Y-113296732D01*
X161309180Y-113321671D01*
X161316488Y-113346804D01*
X161321428Y-113375023D01*
X161324629Y-113409221D01*
X161326724Y-113452288D01*
X161327067Y-113462275D01*
X161330255Y-113559516D01*
X160870275Y-113559516D01*
X160873670Y-113584834D01*
X160884352Y-113620121D01*
X160905495Y-113652286D01*
X160935224Y-113678720D01*
X160945989Y-113685399D01*
X160962115Y-113693967D01*
X160976428Y-113699658D01*
X160992328Y-113703180D01*
X161013215Y-113705244D01*
X161042492Y-113706559D01*
X161048330Y-113706752D01*
X161101920Y-113706261D01*
X161148337Y-113700479D01*
X161191907Y-113688608D01*
X161229197Y-113673474D01*
X161247275Y-113665369D01*
X161260251Y-113659863D01*
X161264698Y-113658300D01*
X161265567Y-113664093D01*
X161266290Y-113679946D01*
X161266801Y-113703572D01*
X161267032Y-113732683D01*
X161267039Y-113738910D01*
X161267039Y-113819520D01*
X161240413Y-113831298D01*
X161211427Y-113843010D01*
X161183018Y-113851752D01*
X161152465Y-113857984D01*
X161117051Y-113862165D01*
X161074057Y-113864754D01*
X161035513Y-113865922D01*
X160994470Y-113866613D01*
X160963086Y-113866518D01*
X160938688Y-113865460D01*
X160918601Y-113863264D01*
X160900150Y-113859754D01*
X160885425Y-113856059D01*
X160825727Y-113834097D01*
X160773903Y-113802722D01*
X160730343Y-113762344D01*
X160695436Y-113713372D01*
X160669571Y-113656213D01*
X160658463Y-113617770D01*
X160653506Y-113586869D01*
X160650786Y-113548476D01*
X160650199Y-113505916D01*
X160651639Y-113462513D01*
X160654829Y-113423687D01*
X160866392Y-113423687D01*
X161118862Y-113423687D01*
X161118828Y-113400534D01*
X161113646Y-113360071D01*
X161098758Y-113325066D01*
X161087683Y-113310059D01*
X161065610Y-113290086D01*
X161040871Y-113279159D01*
X161010080Y-113276045D01*
X160995999Y-113276661D01*
X160958671Y-113285094D01*
X160926898Y-113304407D01*
X160901000Y-113334296D01*
X160881293Y-113374457D01*
X160875804Y-113391273D01*
X160866392Y-113423687D01*
X160654829Y-113423687D01*
X160655001Y-113421592D01*
X160660179Y-113386476D01*
G37*
G36*
X161850136Y-113122558D02*
G01*
X161892054Y-113124932D01*
X161928938Y-113128880D01*
X161957578Y-113134333D01*
X161963162Y-113135951D01*
X161995576Y-113146333D01*
X161995576Y-113241792D01*
X161995430Y-113274545D01*
X161995027Y-113302451D01*
X161994420Y-113323410D01*
X161993661Y-113335318D01*
X161993182Y-113337250D01*
X161986860Y-113334798D01*
X161972312Y-113328309D01*
X161952449Y-113319089D01*
X161948420Y-113317186D01*
X161924546Y-113306763D01*
X161903676Y-113300370D01*
X161880699Y-113296854D01*
X161850502Y-113295059D01*
X161850486Y-113295058D01*
X161819435Y-113294612D01*
X161795960Y-113296362D01*
X161775392Y-113300882D01*
X161759489Y-113306279D01*
X161719942Y-113327458D01*
X161686659Y-113358033D01*
X161661939Y-113395709D01*
X161655841Y-113409865D01*
X161645903Y-113448743D01*
X161642022Y-113493174D01*
X161644290Y-113537900D01*
X161652794Y-113577666D01*
X161652973Y-113578209D01*
X161669053Y-113610733D01*
X161693636Y-113641491D01*
X161723398Y-113667084D01*
X161755013Y-113684117D01*
X161757484Y-113684995D01*
X161795956Y-113693315D01*
X161839671Y-113695037D01*
X161884667Y-113690606D01*
X161926986Y-113680466D01*
X161962668Y-113665061D01*
X161968789Y-113661302D01*
X161978910Y-113655230D01*
X161986111Y-113653342D01*
X161990838Y-113657072D01*
X161993537Y-113667854D01*
X161994655Y-113687121D01*
X161994637Y-113716309D01*
X161994197Y-113742944D01*
X161992489Y-113833761D01*
X161949270Y-113848976D01*
X161931276Y-113854849D01*
X161914076Y-113859100D01*
X161894988Y-113862046D01*
X161871330Y-113864006D01*
X161840420Y-113865296D01*
X161804180Y-113866147D01*
X161759757Y-113866621D01*
X161725461Y-113866035D01*
X161699109Y-113864270D01*
X161678514Y-113861210D01*
X161668352Y-113858795D01*
X161608225Y-113836328D01*
X161554095Y-113804100D01*
X161507149Y-113763290D01*
X161468573Y-113715076D01*
X161439556Y-113660635D01*
X161424997Y-113617278D01*
X161418580Y-113580806D01*
X161415403Y-113536704D01*
X161415421Y-113489247D01*
X161418589Y-113442707D01*
X161424861Y-113401357D01*
X161427412Y-113390322D01*
X161449596Y-113327222D01*
X161481695Y-113271017D01*
X161522896Y-113222498D01*
X161572381Y-113182454D01*
X161629335Y-113151674D01*
X161692943Y-113130946D01*
X161696275Y-113130190D01*
X161726253Y-113125575D01*
X161764028Y-113122810D01*
X161806391Y-113121828D01*
X161850136Y-113122558D01*
G37*
G36*
X162096743Y-113448822D02*
G01*
X162100490Y-113408380D01*
X162106155Y-113374268D01*
X162111385Y-113355475D01*
X162127103Y-113316131D01*
X162144046Y-113284236D01*
X162165103Y-113255002D01*
X162186979Y-113230179D01*
X162233628Y-113189287D01*
X162288568Y-113157505D01*
X162351856Y-113134798D01*
X162357433Y-113133334D01*
X162394250Y-113126567D01*
X162438777Y-113122437D01*
X162486794Y-113120992D01*
X162534084Y-113122276D01*
X162576426Y-113126338D01*
X162600087Y-113130673D01*
X162662131Y-113151251D01*
X162717131Y-113181744D01*
X162764430Y-113221500D01*
X162803373Y-113269869D01*
X162833305Y-113326197D01*
X162851310Y-113380394D01*
X162856349Y-113410309D01*
X162859023Y-113448063D01*
X162859449Y-113490172D01*
X162857747Y-113533150D01*
X162854032Y-113573512D01*
X162848423Y-113607773D01*
X162842971Y-113627569D01*
X162816285Y-113688771D01*
X162783366Y-113739946D01*
X162743017Y-113782291D01*
X162694039Y-113817007D01*
X162635235Y-113845290D01*
X162619293Y-113851339D01*
X162593470Y-113857860D01*
X162558586Y-113862713D01*
X162517820Y-113865833D01*
X162474354Y-113867155D01*
X162431369Y-113866616D01*
X162392047Y-113864149D01*
X162359569Y-113859691D01*
X162347496Y-113856867D01*
X162284272Y-113833269D01*
X162229260Y-113800653D01*
X162182873Y-113759444D01*
X162145523Y-113710068D01*
X162117624Y-113652950D01*
X162103183Y-113605422D01*
X162098134Y-113573892D01*
X162095452Y-113535000D01*
X162095219Y-113511604D01*
X162320656Y-113511604D01*
X162325711Y-113555968D01*
X162336112Y-113596990D01*
X162351519Y-113632223D01*
X162371592Y-113659221D01*
X162380389Y-113666825D01*
X162403149Y-113681083D01*
X162427351Y-113689760D01*
X162457016Y-113693978D01*
X162480810Y-113694857D01*
X162509152Y-113694006D01*
X162530552Y-113690030D01*
X162550236Y-113681916D01*
X162551812Y-113681101D01*
X162582120Y-113658939D01*
X162605027Y-113627880D01*
X162620656Y-113587595D01*
X162629132Y-113537754D01*
X162630578Y-113478029D01*
X162630365Y-113472111D01*
X162624874Y-113418119D01*
X162612952Y-113374455D01*
X162594243Y-113340699D01*
X162568391Y-113316427D01*
X162535040Y-113301219D01*
X162493834Y-113294652D01*
X162480238Y-113294303D01*
X162436206Y-113298600D01*
X162400189Y-113311943D01*
X162371124Y-113335008D01*
X162347947Y-113368473D01*
X162340960Y-113382925D01*
X162327940Y-113422636D01*
X162321285Y-113466344D01*
X162320656Y-113511604D01*
X162095219Y-113511604D01*
X162095026Y-113492169D01*
X162096743Y-113448822D01*
G37*
G36*
X163819684Y-113453646D02*
G01*
X163824001Y-113409112D01*
X163830376Y-113371124D01*
X163835216Y-113352685D01*
X163859636Y-113292864D01*
X163892063Y-113240330D01*
X163931516Y-113196110D01*
X163977016Y-113161229D01*
X164027583Y-113136715D01*
X164047500Y-113130445D01*
X164072672Y-113124971D01*
X164099804Y-113122175D01*
X164132951Y-113121749D01*
X164154181Y-113122372D01*
X164197167Y-113125563D01*
X164231059Y-113132090D01*
X164258913Y-113143095D01*
X164283787Y-113159720D01*
X164304127Y-113178370D01*
X164329363Y-113203858D01*
X164329363Y-112800109D01*
X164551628Y-112800109D01*
X164551628Y-113849696D01*
X164329363Y-113849696D01*
X164329363Y-113766745D01*
X164300036Y-113796758D01*
X164275165Y-113818181D01*
X164245509Y-113837936D01*
X164230578Y-113845872D01*
X164211777Y-113854336D01*
X164195466Y-113859962D01*
X164178095Y-113863411D01*
X164156112Y-113865345D01*
X164125967Y-113866425D01*
X164119445Y-113866579D01*
X164083164Y-113866831D01*
X164055746Y-113865484D01*
X164033777Y-113862226D01*
X164014487Y-113856958D01*
X163963395Y-113833758D01*
X163918812Y-113800474D01*
X163881381Y-113757892D01*
X163851746Y-113706793D01*
X163830549Y-113647962D01*
X163825487Y-113626849D01*
X163820326Y-113591326D01*
X163817722Y-113548271D01*
X163817589Y-113511961D01*
X164042275Y-113511961D01*
X164047119Y-113561993D01*
X164059840Y-113606151D01*
X164079962Y-113643083D01*
X164107012Y-113671433D01*
X164124823Y-113682960D01*
X164149868Y-113691314D01*
X164180886Y-113694873D01*
X164212398Y-113693452D01*
X164238921Y-113686865D01*
X164239022Y-113686823D01*
X164265290Y-113670359D01*
X164290067Y-113644928D01*
X164310442Y-113613832D01*
X164318022Y-113597306D01*
X164324080Y-113579867D01*
X164328118Y-113562052D01*
X164330534Y-113540671D01*
X164331727Y-113512539D01*
X164332059Y-113485003D01*
X164332074Y-113452336D01*
X164331409Y-113428977D01*
X164329579Y-113411891D01*
X164326098Y-113398039D01*
X164320482Y-113384384D01*
X164313850Y-113371023D01*
X164292037Y-113336921D01*
X164266197Y-113313711D01*
X164234429Y-113300118D01*
X164200450Y-113295123D01*
X164173681Y-113294664D01*
X164153935Y-113297426D01*
X164136130Y-113304196D01*
X164133578Y-113305470D01*
X164101437Y-113328085D01*
X164076416Y-113359755D01*
X164058210Y-113401009D01*
X164046510Y-113452380D01*
X164045780Y-113457409D01*
X164042275Y-113511961D01*
X163817589Y-113511961D01*
X163817549Y-113501205D01*
X163819684Y-113453646D01*
G37*
G36*
X166206271Y-113363913D02*
G01*
X166206377Y-113429208D01*
X166206791Y-113483376D01*
X166207655Y-113527633D01*
X166209112Y-113563200D01*
X166211306Y-113591294D01*
X166214378Y-113613134D01*
X166218472Y-113629940D01*
X166223731Y-113642928D01*
X166230297Y-113653319D01*
X166238314Y-113662331D01*
X166241627Y-113665513D01*
X166262132Y-113682123D01*
X166282111Y-113691314D01*
X166306624Y-113694971D01*
X166321628Y-113695313D01*
X166360017Y-113689946D01*
X166392387Y-113673827D01*
X166416421Y-113650261D01*
X166424069Y-113639670D01*
X166430335Y-113628492D01*
X166435357Y-113615428D01*
X166439269Y-113599182D01*
X166442207Y-113578455D01*
X166444309Y-113551951D01*
X166445708Y-113518371D01*
X166446542Y-113476419D01*
X166446947Y-113424796D01*
X166447058Y-113362205D01*
X166447058Y-113139681D01*
X166669324Y-113139681D01*
X166669324Y-113849696D01*
X166447058Y-113849696D01*
X166447058Y-113756770D01*
X166410573Y-113794058D01*
X166379301Y-113822961D01*
X166349089Y-113843335D01*
X166316658Y-113856528D01*
X166278728Y-113863892D01*
X166234054Y-113866733D01*
X166198990Y-113866982D01*
X166172731Y-113865588D01*
X166151801Y-113862211D01*
X166134034Y-113856981D01*
X166092216Y-113838261D01*
X166059219Y-113813825D01*
X166032290Y-113781242D01*
X166015666Y-113752459D01*
X166008333Y-113737271D01*
X166002228Y-113722161D01*
X165997238Y-113705862D01*
X165993251Y-113687112D01*
X165990158Y-113664644D01*
X165987845Y-113637195D01*
X165986202Y-113603500D01*
X165985117Y-113562295D01*
X165984478Y-113512314D01*
X165984174Y-113452292D01*
X165984097Y-113394360D01*
X165984005Y-113139681D01*
X166206271Y-113139681D01*
X166206271Y-113363913D01*
G37*
G36*
X167599372Y-113125000D02*
G01*
X167661073Y-113135013D01*
X167683410Y-113140311D01*
X167706563Y-113146331D01*
X167706563Y-113232530D01*
X167706111Y-113270569D01*
X167704786Y-113297994D01*
X167702632Y-113314208D01*
X167700143Y-113318728D01*
X167690995Y-113316108D01*
X167675916Y-113309558D01*
X167670446Y-113306853D01*
X167630602Y-113291220D01*
X167583797Y-113280486D01*
X167534797Y-113275673D01*
X167524470Y-113275510D01*
X167483894Y-113278276D01*
X167453842Y-113286712D01*
X167433768Y-113301020D01*
X167426597Y-113311843D01*
X167420783Y-113330336D01*
X167422892Y-113346840D01*
X167433764Y-113362148D01*
X167454241Y-113377053D01*
X167485162Y-113392349D01*
X167527368Y-113408827D01*
X167530602Y-113409986D01*
X167579007Y-113428120D01*
X167617480Y-113444644D01*
X167648138Y-113460643D01*
X167673099Y-113477203D01*
X167691137Y-113492269D01*
X167715590Y-113518456D01*
X167732056Y-113545905D01*
X167741747Y-113577726D01*
X167745877Y-113617029D01*
X167746236Y-113633611D01*
X167745978Y-113662896D01*
X167744326Y-113683963D01*
X167740540Y-113700925D01*
X167733880Y-113717896D01*
X167729337Y-113727472D01*
X167702272Y-113768922D01*
X167665096Y-113803966D01*
X167618551Y-113832086D01*
X167563380Y-113852765D01*
X167541732Y-113858248D01*
X167510918Y-113863067D01*
X167471500Y-113866168D01*
X167427100Y-113867544D01*
X167381344Y-113867190D01*
X167337856Y-113865100D01*
X167300258Y-113861269D01*
X167284570Y-113858652D01*
X167259484Y-113853262D01*
X167236150Y-113847568D01*
X167221286Y-113843319D01*
X167200291Y-113836390D01*
X167200291Y-113747345D01*
X167200725Y-113708812D01*
X167201996Y-113680697D01*
X167204056Y-113663651D01*
X167206671Y-113658300D01*
X167215449Y-113660912D01*
X167230981Y-113667600D01*
X167242171Y-113673032D01*
X167283069Y-113690527D01*
X167325989Y-113703268D01*
X167369113Y-113711259D01*
X167410623Y-113714502D01*
X167448701Y-113712998D01*
X167481530Y-113706749D01*
X167507290Y-113695758D01*
X167524165Y-113680026D01*
X167527904Y-113672714D01*
X167531957Y-113653377D01*
X167527811Y-113636248D01*
X167514615Y-113620560D01*
X167491522Y-113605545D01*
X167457680Y-113590434D01*
X167423246Y-113578077D01*
X167360842Y-113554991D01*
X167309990Y-113530932D01*
X167269894Y-113505028D01*
X167239760Y-113476407D01*
X167218792Y-113444197D01*
X167206194Y-113407526D01*
X167201171Y-113365524D01*
X167201579Y-113335163D01*
X167204676Y-113302350D01*
X167210517Y-113276860D01*
X167220232Y-113253775D01*
X167220294Y-113253653D01*
X167241808Y-113221472D01*
X167271256Y-113190777D01*
X167304496Y-113165631D01*
X167317484Y-113158261D01*
X167361698Y-113140921D01*
X167414578Y-113128798D01*
X167473540Y-113122019D01*
X167535999Y-113120711D01*
X167599372Y-113125000D01*
G37*
G36*
X167840587Y-113386476D02*
G01*
X167846989Y-113361808D01*
X167875847Y-113297574D01*
X167912686Y-113242682D01*
X167957397Y-113197240D01*
X168009867Y-113161356D01*
X168069985Y-113135140D01*
X168082756Y-113131114D01*
X168110760Y-113125529D01*
X168146919Y-113122198D01*
X168187243Y-113121130D01*
X168227744Y-113122334D01*
X168264435Y-113125820D01*
X168289794Y-113130623D01*
X168344103Y-113150976D01*
X168392463Y-113181703D01*
X168433480Y-113221706D01*
X168465343Y-113269095D01*
X168479281Y-113296732D01*
X168489588Y-113321671D01*
X168496896Y-113346804D01*
X168501836Y-113375023D01*
X168505038Y-113409221D01*
X168507132Y-113452288D01*
X168507476Y-113462275D01*
X168510663Y-113559516D01*
X168050683Y-113559516D01*
X168054079Y-113584834D01*
X168064761Y-113620121D01*
X168085904Y-113652286D01*
X168115632Y-113678720D01*
X168126397Y-113685399D01*
X168142524Y-113693967D01*
X168156836Y-113699658D01*
X168172736Y-113703180D01*
X168193624Y-113705244D01*
X168222901Y-113706559D01*
X168228738Y-113706752D01*
X168282328Y-113706261D01*
X168328745Y-113700479D01*
X168372315Y-113688608D01*
X168409606Y-113673474D01*
X168427683Y-113665369D01*
X168440660Y-113659863D01*
X168445106Y-113658300D01*
X168445976Y-113664093D01*
X168446699Y-113679946D01*
X168447209Y-113703572D01*
X168447440Y-113732683D01*
X168447447Y-113738910D01*
X168447447Y-113819520D01*
X168420821Y-113831298D01*
X168391836Y-113843010D01*
X168363426Y-113851752D01*
X168332873Y-113857984D01*
X168297459Y-113862165D01*
X168254465Y-113864754D01*
X168215921Y-113865922D01*
X168174878Y-113866613D01*
X168143495Y-113866518D01*
X168119096Y-113865460D01*
X168099009Y-113863264D01*
X168080559Y-113859754D01*
X168065834Y-113856059D01*
X168006135Y-113834097D01*
X167954312Y-113802722D01*
X167910752Y-113762344D01*
X167875845Y-113713372D01*
X167849980Y-113656213D01*
X167838872Y-113617770D01*
X167833914Y-113586869D01*
X167831194Y-113548476D01*
X167830607Y-113505916D01*
X167832047Y-113462513D01*
X167835237Y-113423687D01*
X168046800Y-113423687D01*
X168299270Y-113423687D01*
X168299236Y-113400534D01*
X168294054Y-113360071D01*
X168279167Y-113325066D01*
X168268092Y-113310059D01*
X168246019Y-113290086D01*
X168221280Y-113279159D01*
X168190489Y-113276045D01*
X168176408Y-113276661D01*
X168139079Y-113285094D01*
X168107307Y-113304407D01*
X168081408Y-113334296D01*
X168061701Y-113374457D01*
X168056212Y-113391273D01*
X168046800Y-113423687D01*
X167835237Y-113423687D01*
X167835409Y-113421592D01*
X167840587Y-113386476D01*
G37*
G36*
X169628210Y-112845719D02*
G01*
X169675301Y-112850016D01*
X169720158Y-112857324D01*
X169766092Y-112867955D01*
X169770235Y-112869044D01*
X169818084Y-112881724D01*
X169818084Y-112989093D01*
X169817722Y-113032683D01*
X169816652Y-113065307D01*
X169814899Y-113086548D01*
X169812487Y-113095990D01*
X169811705Y-113096463D01*
X169802980Y-113093846D01*
X169787397Y-113087123D01*
X169775208Y-113081201D01*
X169734278Y-113063364D01*
X169690568Y-113050477D01*
X169641242Y-113041927D01*
X169583466Y-113037104D01*
X169567551Y-113036416D01*
X169511335Y-113036020D01*
X169464562Y-113039863D01*
X169424822Y-113048703D01*
X169389711Y-113063300D01*
X169356821Y-113084412D01*
X169323746Y-113112798D01*
X169322974Y-113113532D01*
X169288125Y-113151349D01*
X169262120Y-113190854D01*
X169243949Y-113234470D01*
X169232604Y-113284620D01*
X169227080Y-113343580D01*
X169225936Y-113378767D01*
X169226489Y-113406125D01*
X169229095Y-113430099D01*
X169234110Y-113455135D01*
X169236964Y-113466810D01*
X169257001Y-113524643D01*
X169285496Y-113573889D01*
X169322053Y-113614143D01*
X169366275Y-113644996D01*
X169417766Y-113666044D01*
X169435755Y-113670651D01*
X169458579Y-113673876D01*
X169488320Y-113675517D01*
X169521523Y-113675672D01*
X169554734Y-113674437D01*
X169584496Y-113671910D01*
X169607354Y-113668186D01*
X169615884Y-113665600D01*
X169632863Y-113658606D01*
X169632863Y-113466905D01*
X169435294Y-113466905D01*
X169435294Y-113287858D01*
X169861303Y-113287858D01*
X169861303Y-113792977D01*
X169813706Y-113812791D01*
X169774730Y-113828276D01*
X169740840Y-113839710D01*
X169706693Y-113848642D01*
X169666949Y-113856617D01*
X169655207Y-113858696D01*
X169622569Y-113862846D01*
X169581997Y-113865703D01*
X169536659Y-113867266D01*
X169489721Y-113867535D01*
X169444350Y-113866506D01*
X169403713Y-113864180D01*
X169370976Y-113860554D01*
X169361205Y-113858822D01*
X169296540Y-113842287D01*
X169240587Y-113820354D01*
X169190306Y-113791412D01*
X169142658Y-113753852D01*
X169117151Y-113729618D01*
X169079607Y-113688607D01*
X169050511Y-113648254D01*
X169027637Y-113604731D01*
X169008759Y-113554215D01*
X169001982Y-113531733D01*
X168996649Y-113511581D01*
X168992826Y-113492486D01*
X168990270Y-113471750D01*
X168988737Y-113446673D01*
X168987984Y-113414559D01*
X168987768Y-113374295D01*
X168988333Y-113322819D01*
X168990481Y-113280722D01*
X168994745Y-113245081D01*
X169001657Y-113212972D01*
X169011752Y-113181470D01*
X169025561Y-113147651D01*
X169031477Y-113134493D01*
X169069243Y-113066192D01*
X169116122Y-113006110D01*
X169171746Y-112954551D01*
X169235747Y-112911820D01*
X169307759Y-112878222D01*
X169361075Y-112860759D01*
X169383939Y-112855307D01*
X169409295Y-112851234D01*
X169439758Y-112848269D01*
X169477944Y-112846141D01*
X169514072Y-112844908D01*
X169575571Y-112844120D01*
X169628210Y-112845719D01*
G37*
G36*
X170001501Y-113386476D02*
G01*
X170007903Y-113361808D01*
X170036761Y-113297574D01*
X170073600Y-113242682D01*
X170118310Y-113197240D01*
X170170780Y-113161356D01*
X170230899Y-113135140D01*
X170243670Y-113131114D01*
X170271674Y-113125529D01*
X170307833Y-113122198D01*
X170348157Y-113121130D01*
X170388658Y-113122334D01*
X170425348Y-113125820D01*
X170450707Y-113130623D01*
X170505017Y-113150976D01*
X170553377Y-113181703D01*
X170594394Y-113221706D01*
X170626257Y-113269095D01*
X170640194Y-113296732D01*
X170650502Y-113321671D01*
X170657810Y-113346804D01*
X170662750Y-113375023D01*
X170665952Y-113409221D01*
X170668046Y-113452288D01*
X170668390Y-113462275D01*
X170671577Y-113559516D01*
X170211597Y-113559516D01*
X170214993Y-113584834D01*
X170225675Y-113620121D01*
X170246818Y-113652286D01*
X170276546Y-113678720D01*
X170287311Y-113685399D01*
X170303438Y-113693967D01*
X170317750Y-113699658D01*
X170333650Y-113703180D01*
X170354538Y-113705244D01*
X170383815Y-113706559D01*
X170389652Y-113706752D01*
X170443242Y-113706261D01*
X170489659Y-113700479D01*
X170533229Y-113688608D01*
X170570520Y-113673474D01*
X170588597Y-113665369D01*
X170601574Y-113659863D01*
X170606020Y-113658300D01*
X170606889Y-113664093D01*
X170607612Y-113679946D01*
X170608123Y-113703572D01*
X170608354Y-113732683D01*
X170608361Y-113738910D01*
X170608361Y-113819520D01*
X170581735Y-113831298D01*
X170552750Y-113843010D01*
X170524340Y-113851752D01*
X170493787Y-113857984D01*
X170458373Y-113862165D01*
X170415379Y-113864754D01*
X170376835Y-113865922D01*
X170335792Y-113866613D01*
X170304409Y-113866518D01*
X170280010Y-113865460D01*
X170259923Y-113863264D01*
X170241473Y-113859754D01*
X170226748Y-113856059D01*
X170167049Y-113834097D01*
X170115226Y-113802722D01*
X170071666Y-113762344D01*
X170036759Y-113713372D01*
X170010894Y-113656213D01*
X169999786Y-113617770D01*
X169994828Y-113586869D01*
X169992108Y-113548476D01*
X169991521Y-113505916D01*
X169992961Y-113462513D01*
X169996151Y-113423687D01*
X170207714Y-113423687D01*
X170460184Y-113423687D01*
X170460150Y-113400534D01*
X170454968Y-113360071D01*
X170440080Y-113325066D01*
X170429006Y-113310059D01*
X170406933Y-113290086D01*
X170382193Y-113279159D01*
X170351403Y-113276045D01*
X170337322Y-113276661D01*
X170299993Y-113285094D01*
X170268220Y-113304407D01*
X170242322Y-113334296D01*
X170222615Y-113374457D01*
X170217126Y-113391273D01*
X170207714Y-113423687D01*
X169996151Y-113423687D01*
X169996323Y-113421592D01*
X170001501Y-113386476D01*
G37*
G36*
X171625274Y-113386476D02*
G01*
X171631675Y-113361808D01*
X171660533Y-113297574D01*
X171697373Y-113242682D01*
X171742083Y-113197240D01*
X171794553Y-113161356D01*
X171854671Y-113135140D01*
X171867443Y-113131114D01*
X171895447Y-113125529D01*
X171931605Y-113122198D01*
X171971929Y-113121130D01*
X172012431Y-113122334D01*
X172049121Y-113125820D01*
X172074480Y-113130623D01*
X172128789Y-113150976D01*
X172177149Y-113181703D01*
X172218167Y-113221706D01*
X172250029Y-113269095D01*
X172263967Y-113296732D01*
X172274275Y-113321671D01*
X172281583Y-113346804D01*
X172286522Y-113375023D01*
X172289724Y-113409221D01*
X172291819Y-113452288D01*
X172292162Y-113462275D01*
X172295350Y-113559516D01*
X171835369Y-113559516D01*
X171838765Y-113584834D01*
X171849447Y-113620121D01*
X171870590Y-113652286D01*
X171900319Y-113678720D01*
X171911084Y-113685399D01*
X171927210Y-113693967D01*
X171941523Y-113699658D01*
X171957422Y-113703180D01*
X171978310Y-113705244D01*
X172007587Y-113706559D01*
X172013425Y-113706752D01*
X172067015Y-113706261D01*
X172113432Y-113700479D01*
X172157002Y-113688608D01*
X172194292Y-113673474D01*
X172212370Y-113665369D01*
X172225346Y-113659863D01*
X172229793Y-113658300D01*
X172230662Y-113664093D01*
X172231385Y-113679946D01*
X172231895Y-113703572D01*
X172232127Y-113732683D01*
X172232134Y-113738910D01*
X172232134Y-113819520D01*
X172205508Y-113831298D01*
X172176522Y-113843010D01*
X172148113Y-113851752D01*
X172117560Y-113857984D01*
X172082146Y-113862165D01*
X172039151Y-113864754D01*
X172000607Y-113865922D01*
X171959565Y-113866613D01*
X171928181Y-113866518D01*
X171903783Y-113865460D01*
X171883695Y-113863264D01*
X171865245Y-113859754D01*
X171850520Y-113856059D01*
X171790822Y-113834097D01*
X171738998Y-113802722D01*
X171695438Y-113762344D01*
X171660531Y-113713372D01*
X171634666Y-113656213D01*
X171623558Y-113617770D01*
X171618600Y-113586869D01*
X171615881Y-113548476D01*
X171615293Y-113505916D01*
X171616734Y-113462513D01*
X171619923Y-113423687D01*
X171831487Y-113423687D01*
X172083957Y-113423687D01*
X172083922Y-113400534D01*
X172078741Y-113360071D01*
X172063853Y-113325066D01*
X172052778Y-113310059D01*
X172030705Y-113290086D01*
X172005966Y-113279159D01*
X171975175Y-113276045D01*
X171961094Y-113276661D01*
X171923765Y-113285094D01*
X171891993Y-113304407D01*
X171866094Y-113334296D01*
X171846388Y-113374457D01*
X171840899Y-113391273D01*
X171831487Y-113423687D01*
X171619923Y-113423687D01*
X171620095Y-113421592D01*
X171625274Y-113386476D01*
G37*
G36*
X172938053Y-113579497D02*
G01*
X172944765Y-113556429D01*
X172969188Y-113512498D01*
X173002651Y-113476537D01*
X173045562Y-113448188D01*
X173089732Y-113429825D01*
X173105227Y-113425835D01*
X173130312Y-113420652D01*
X173162357Y-113414701D01*
X173198732Y-113408408D01*
X173236804Y-113402199D01*
X173273944Y-113396499D01*
X173307520Y-113391735D01*
X173334903Y-113388332D01*
X173353460Y-113386717D01*
X173356470Y-113386643D01*
X173361225Y-113381494D01*
X173361859Y-113368394D01*
X173358823Y-113350866D01*
X173352565Y-113332428D01*
X173348498Y-113324200D01*
X173331784Y-113302387D01*
X173309156Y-113287499D01*
X173278861Y-113278804D01*
X173239146Y-113275569D01*
X173231798Y-113275510D01*
X173165124Y-113281531D01*
X173099420Y-113299174D01*
X173047309Y-113322245D01*
X173027214Y-113332576D01*
X173011368Y-113340117D01*
X173002897Y-113343388D01*
X173002547Y-113343424D01*
X173000780Y-113337626D01*
X172999303Y-113321731D01*
X172998246Y-113297990D01*
X172997740Y-113268653D01*
X172997715Y-113260158D01*
X172997715Y-113176891D01*
X173020867Y-113166998D01*
X173064876Y-113151493D01*
X173116137Y-113138829D01*
X173171616Y-113129316D01*
X173228282Y-113123263D01*
X173283102Y-113120981D01*
X173333042Y-113122778D01*
X173375070Y-113128964D01*
X173380505Y-113130290D01*
X173434306Y-113149222D01*
X173478835Y-113175972D01*
X173514746Y-113211185D01*
X173542693Y-113255505D01*
X173563331Y-113309576D01*
X173563691Y-113310822D01*
X173566342Y-113321722D01*
X173568560Y-113335152D01*
X173570400Y-113352353D01*
X173571917Y-113374566D01*
X173573167Y-113403030D01*
X173574205Y-113438986D01*
X173575088Y-113483676D01*
X173575869Y-113538338D01*
X173576543Y-113598103D01*
X173579141Y-113849696D01*
X173361983Y-113849696D01*
X173361983Y-113761271D01*
X173345160Y-113782854D01*
X173315427Y-113813495D01*
X173279082Y-113839527D01*
X173242602Y-113856796D01*
X173211211Y-113864052D01*
X173172704Y-113867664D01*
X173131759Y-113867640D01*
X173093057Y-113863988D01*
X173061277Y-113856713D01*
X173060721Y-113856523D01*
X173018822Y-113835832D01*
X172983250Y-113805804D01*
X172955758Y-113768422D01*
X172938103Y-113725665D01*
X172935633Y-113715349D01*
X172931697Y-113684418D01*
X172930955Y-113648567D01*
X172933156Y-113612153D01*
X173137346Y-113612153D01*
X173138037Y-113640195D01*
X173149480Y-113667564D01*
X173167802Y-113688607D01*
X173181896Y-113699602D01*
X173195289Y-113705347D01*
X173213045Y-113707473D01*
X173226980Y-113707693D01*
X173254141Y-113705749D01*
X173277870Y-113700617D01*
X173285622Y-113697631D01*
X173309565Y-113681222D01*
X173332022Y-113657234D01*
X173349145Y-113630209D01*
X173354818Y-113615956D01*
X173357884Y-113600959D01*
X173360228Y-113580787D01*
X173361704Y-113558841D01*
X173362165Y-113538525D01*
X173361465Y-113523241D01*
X173359457Y-113516391D01*
X173359108Y-113516297D01*
X173344496Y-113517430D01*
X173321647Y-113520450D01*
X173293824Y-113524788D01*
X173264290Y-113529876D01*
X173236307Y-113535143D01*
X173213138Y-113540023D01*
X173198044Y-113543945D01*
X173195748Y-113544779D01*
X173166606Y-113562366D01*
X173147004Y-113585517D01*
X173137346Y-113612153D01*
X172933156Y-113612153D01*
X172933157Y-113612144D01*
X172938053Y-113579497D01*
G37*
G36*
X174011655Y-112926493D02*
G01*
X174013805Y-112936549D01*
X174015255Y-112954808D01*
X174016096Y-112982550D01*
X174016420Y-113021056D01*
X174016431Y-113031635D01*
X174016431Y-113139681D01*
X174176956Y-113139681D01*
X174176956Y-113300206D01*
X174016431Y-113300206D01*
X174016466Y-113459188D01*
X174016721Y-113505050D01*
X174017422Y-113547246D01*
X174018504Y-113583927D01*
X174019904Y-113613245D01*
X174021556Y-113633350D01*
X174022820Y-113640925D01*
X174031995Y-113660265D01*
X174046233Y-113677945D01*
X174048527Y-113679993D01*
X174060848Y-113689138D01*
X174072727Y-113693579D01*
X174088837Y-113694419D01*
X174105456Y-113693431D01*
X174128863Y-113691111D01*
X174149729Y-113688151D01*
X174159978Y-113686057D01*
X174176956Y-113681557D01*
X174176956Y-113848068D01*
X174141051Y-113858143D01*
X174116306Y-113862889D01*
X174083774Y-113866072D01*
X174046992Y-113867667D01*
X174009499Y-113867650D01*
X173974831Y-113865996D01*
X173946528Y-113862682D01*
X173933082Y-113859581D01*
X173898591Y-113846217D01*
X173871405Y-113829172D01*
X173846489Y-113805238D01*
X173844729Y-113803255D01*
X173832939Y-113789495D01*
X173823308Y-113776697D01*
X173815602Y-113763462D01*
X173809588Y-113748389D01*
X173805031Y-113730077D01*
X173801700Y-113707126D01*
X173799359Y-113678135D01*
X173797776Y-113641705D01*
X173796717Y-113596434D01*
X173795949Y-113540923D01*
X173795597Y-113508580D01*
X173793419Y-113300206D01*
X173676859Y-113300206D01*
X173676859Y-113139681D01*
X173794166Y-113139681D01*
X173794166Y-112982094D01*
X173897581Y-112952610D01*
X173931802Y-112942987D01*
X173962148Y-112934707D01*
X173986526Y-112928321D01*
X174002841Y-112924379D01*
X174008714Y-112923358D01*
X174011655Y-112926493D01*
G37*
G36*
X174253427Y-113448822D02*
G01*
X174257174Y-113408380D01*
X174262840Y-113374268D01*
X174268069Y-113355475D01*
X174283787Y-113316131D01*
X174300731Y-113284236D01*
X174321788Y-113255002D01*
X174343663Y-113230179D01*
X174390312Y-113189287D01*
X174445252Y-113157505D01*
X174508541Y-113134798D01*
X174514117Y-113133334D01*
X174550935Y-113126567D01*
X174595461Y-113122437D01*
X174643479Y-113120992D01*
X174690768Y-113122276D01*
X174733111Y-113126338D01*
X174756772Y-113130673D01*
X174818816Y-113151251D01*
X174873815Y-113181744D01*
X174921114Y-113221500D01*
X174960057Y-113269869D01*
X174989989Y-113326197D01*
X175007995Y-113380394D01*
X175013033Y-113410309D01*
X175015707Y-113448063D01*
X175016134Y-113490172D01*
X175014431Y-113533150D01*
X175010716Y-113573512D01*
X175005107Y-113607773D01*
X174999656Y-113627569D01*
X174972969Y-113688771D01*
X174940050Y-113739946D01*
X174899701Y-113782291D01*
X174850724Y-113817007D01*
X174791920Y-113845290D01*
X174775977Y-113851339D01*
X174750155Y-113857860D01*
X174715270Y-113862713D01*
X174674504Y-113865833D01*
X174631038Y-113867155D01*
X174588054Y-113866616D01*
X174548732Y-113864149D01*
X174516253Y-113859691D01*
X174504180Y-113856867D01*
X174440957Y-113833269D01*
X174385945Y-113800653D01*
X174339557Y-113759444D01*
X174302208Y-113710068D01*
X174274309Y-113652950D01*
X174259867Y-113605422D01*
X174254818Y-113573892D01*
X174252137Y-113535000D01*
X174251904Y-113511604D01*
X174477340Y-113511604D01*
X174482396Y-113555968D01*
X174492797Y-113596990D01*
X174508204Y-113632223D01*
X174528277Y-113659221D01*
X174537073Y-113666825D01*
X174559834Y-113681083D01*
X174584036Y-113689760D01*
X174613701Y-113693978D01*
X174637495Y-113694857D01*
X174665836Y-113694006D01*
X174687237Y-113690030D01*
X174706921Y-113681916D01*
X174708496Y-113681101D01*
X174738805Y-113658939D01*
X174761711Y-113627880D01*
X174777341Y-113587595D01*
X174785817Y-113537754D01*
X174787262Y-113478029D01*
X174787050Y-113472111D01*
X174781558Y-113418119D01*
X174769636Y-113374455D01*
X174750927Y-113340699D01*
X174725075Y-113316427D01*
X174691724Y-113301219D01*
X174650518Y-113294652D01*
X174636922Y-113294303D01*
X174592890Y-113298600D01*
X174556874Y-113311943D01*
X174527809Y-113335008D01*
X174504632Y-113368473D01*
X174497645Y-113382925D01*
X174484625Y-113422636D01*
X174477970Y-113466344D01*
X174477340Y-113511604D01*
X174251904Y-113511604D01*
X174251711Y-113492169D01*
X174253427Y-113448822D01*
G37*
G36*
X156737840Y-112864936D02*
G01*
X156885101Y-113090289D01*
X156919226Y-113142531D01*
X156953956Y-113195739D01*
X156988117Y-113248109D01*
X157020533Y-113297840D01*
X157050030Y-113343129D01*
X157075433Y-113382173D01*
X157095566Y-113413169D01*
X157099919Y-113419882D01*
X157167477Y-113524123D01*
X157167477Y-112861849D01*
X157383568Y-112861849D01*
X157383568Y-113849696D01*
X157150465Y-113849696D01*
X156932075Y-113516742D01*
X156894086Y-113458814D01*
X156858007Y-113403774D01*
X156824422Y-113352518D01*
X156793919Y-113305940D01*
X156767083Y-113264938D01*
X156744501Y-113230408D01*
X156726759Y-113203244D01*
X156714444Y-113184344D01*
X156708141Y-113174603D01*
X156707511Y-113173600D01*
X156706027Y-113176824D01*
X156704815Y-113191889D01*
X156703873Y-113218871D01*
X156703200Y-113257846D01*
X156702796Y-113308889D01*
X156702659Y-113372075D01*
X156702788Y-113447479D01*
X156703032Y-113506554D01*
X156704727Y-113849696D01*
X156488332Y-113849696D01*
X156488332Y-112861594D01*
X156737840Y-112864936D01*
G37*
G36*
X158843472Y-113123533D02*
G01*
X158892118Y-113132574D01*
X158932576Y-113149877D01*
X158965854Y-113176100D01*
X158992961Y-113211901D01*
X159014908Y-113257937D01*
X159021197Y-113275510D01*
X159024449Y-113285731D01*
X159027145Y-113295984D01*
X159029348Y-113307526D01*
X159031124Y-113321614D01*
X159032536Y-113339504D01*
X159033648Y-113362453D01*
X159034523Y-113391718D01*
X159035226Y-113428556D01*
X159035821Y-113474223D01*
X159036371Y-113529976D01*
X159036822Y-113582668D01*
X159039033Y-113849696D01*
X158816871Y-113849696D01*
X158814865Y-113619259D01*
X158812858Y-113388823D01*
X158794336Y-113352893D01*
X158777105Y-113325310D01*
X158758811Y-113308158D01*
X158754301Y-113305497D01*
X158730042Y-113297366D01*
X158700702Y-113294254D01*
X158671761Y-113296286D01*
X158649559Y-113303131D01*
X158628756Y-113318402D01*
X158607986Y-113340931D01*
X158590942Y-113366181D01*
X158582323Y-113385769D01*
X158580056Y-113399576D01*
X158578228Y-113424548D01*
X158576832Y-113460928D01*
X158575860Y-113508957D01*
X158575306Y-113568878D01*
X158575158Y-113629690D01*
X158575158Y-113849696D01*
X158346718Y-113849696D01*
X158346718Y-113139681D01*
X158575158Y-113139681D01*
X158575158Y-113233287D01*
X158606511Y-113198981D01*
X158647346Y-113163139D01*
X158678818Y-113144514D01*
X158698837Y-113135211D01*
X158716064Y-113129122D01*
X158734398Y-113125428D01*
X158757738Y-113123311D01*
X158785627Y-113122099D01*
X158843472Y-113123533D01*
G37*
G36*
X163492524Y-113123533D02*
G01*
X163541170Y-113132574D01*
X163581628Y-113149877D01*
X163614906Y-113176100D01*
X163642013Y-113211901D01*
X163663960Y-113257937D01*
X163670249Y-113275510D01*
X163673501Y-113285731D01*
X163676197Y-113295984D01*
X163678400Y-113307526D01*
X163680176Y-113321614D01*
X163681588Y-113339504D01*
X163682700Y-113362453D01*
X163683575Y-113391718D01*
X163684278Y-113428556D01*
X163684873Y-113474223D01*
X163685423Y-113529976D01*
X163685874Y-113582668D01*
X163688085Y-113849696D01*
X163465923Y-113849696D01*
X163463917Y-113619259D01*
X163461910Y-113388823D01*
X163443388Y-113352893D01*
X163426157Y-113325310D01*
X163407863Y-113308158D01*
X163403353Y-113305497D01*
X163379095Y-113297366D01*
X163349754Y-113294254D01*
X163320813Y-113296286D01*
X163298611Y-113303131D01*
X163277808Y-113318402D01*
X163257038Y-113340931D01*
X163239994Y-113366181D01*
X163231375Y-113385769D01*
X163229108Y-113399576D01*
X163227280Y-113424548D01*
X163225884Y-113460928D01*
X163224912Y-113508957D01*
X163224358Y-113568878D01*
X163224210Y-113629690D01*
X163224210Y-113849696D01*
X162995770Y-113849696D01*
X162995770Y-113139681D01*
X163224210Y-113139681D01*
X163224210Y-113233287D01*
X163255563Y-113198981D01*
X163296398Y-113163139D01*
X163327870Y-113144514D01*
X163347889Y-113135211D01*
X163365116Y-113129122D01*
X163383450Y-113125428D01*
X163406790Y-113123311D01*
X163434679Y-113122099D01*
X163492524Y-113123533D01*
G37*
G36*
X165383580Y-112863165D02*
G01*
X165444207Y-112863711D01*
X165493860Y-112864236D01*
X165533914Y-112864827D01*
X165565744Y-112865573D01*
X165590723Y-112866560D01*
X165610227Y-112867876D01*
X165625628Y-112869609D01*
X165638303Y-112871845D01*
X165649624Y-112874672D01*
X165660967Y-112878177D01*
X165670636Y-112881412D01*
X165728314Y-112905925D01*
X165775809Y-112937247D01*
X165813487Y-112975775D01*
X165841714Y-113021902D01*
X165860859Y-113076024D01*
X165863981Y-113089479D01*
X165873006Y-113157577D01*
X165870878Y-113222310D01*
X165857976Y-113282825D01*
X165834684Y-113338268D01*
X165801383Y-113387784D01*
X165758454Y-113430522D01*
X165706279Y-113465626D01*
X165692583Y-113472742D01*
X165656447Y-113488930D01*
X165621311Y-113500784D01*
X165584239Y-113508861D01*
X165542294Y-113513719D01*
X165492540Y-113515915D01*
X165463843Y-113516190D01*
X165372776Y-113516297D01*
X165372776Y-113849696D01*
X165144336Y-113849696D01*
X165144336Y-113345182D01*
X165372776Y-113345182D01*
X165440685Y-113340885D01*
X165472060Y-113338249D01*
X165502211Y-113334589D01*
X165526963Y-113330465D01*
X165538346Y-113327752D01*
X165572473Y-113311428D01*
X165600088Y-113285506D01*
X165619470Y-113251769D01*
X165623761Y-113239245D01*
X165630802Y-113197335D01*
X165628466Y-113155603D01*
X165617102Y-113117783D01*
X165611314Y-113106597D01*
X165595569Y-113084387D01*
X165576495Y-113067437D01*
X165552206Y-113054965D01*
X165520813Y-113046189D01*
X165480430Y-113040328D01*
X165444368Y-113037452D01*
X165372776Y-113033044D01*
X165372776Y-113345182D01*
X165144336Y-113345182D01*
X165144336Y-112861064D01*
X165383580Y-112863165D01*
G37*
G36*
X167070636Y-113849696D02*
G01*
X166842197Y-113849696D01*
X166842197Y-112800109D01*
X167070636Y-112800109D01*
X167070636Y-113849696D01*
G37*
G36*
X171290336Y-113123533D02*
G01*
X171338982Y-113132574D01*
X171379440Y-113149877D01*
X171412718Y-113176100D01*
X171439825Y-113211901D01*
X171461772Y-113257937D01*
X171468061Y-113275510D01*
X171471313Y-113285731D01*
X171474009Y-113295984D01*
X171476213Y-113307526D01*
X171477989Y-113321614D01*
X171479400Y-113339504D01*
X171480512Y-113362453D01*
X171481387Y-113391718D01*
X171482090Y-113428556D01*
X171482685Y-113474223D01*
X171483235Y-113529976D01*
X171483686Y-113582668D01*
X171485897Y-113849696D01*
X171263736Y-113849696D01*
X171261729Y-113619259D01*
X171259723Y-113388823D01*
X171241200Y-113352893D01*
X171223970Y-113325310D01*
X171205675Y-113308158D01*
X171201165Y-113305497D01*
X171176907Y-113297366D01*
X171147566Y-113294254D01*
X171118625Y-113296286D01*
X171096424Y-113303131D01*
X171075620Y-113318402D01*
X171054851Y-113340931D01*
X171037806Y-113366181D01*
X171029187Y-113385769D01*
X171026921Y-113399576D01*
X171025093Y-113424548D01*
X171023696Y-113460928D01*
X171022725Y-113508957D01*
X171022170Y-113568878D01*
X171022022Y-113629690D01*
X171022022Y-113849696D01*
X170793583Y-113849696D01*
X170793583Y-113139681D01*
X171022022Y-113139681D01*
X171022022Y-113233287D01*
X171053376Y-113198981D01*
X171094210Y-113163139D01*
X171125682Y-113144514D01*
X171145701Y-113135211D01*
X171162928Y-113129122D01*
X171181262Y-113125428D01*
X171204602Y-113123311D01*
X171232491Y-113122099D01*
X171290336Y-113123533D01*
G37*
G36*
X172883495Y-113130420D02*
G01*
X172885188Y-113233835D01*
X172885607Y-113268006D01*
X172885701Y-113297415D01*
X172885484Y-113320042D01*
X172884972Y-113333869D01*
X172884398Y-113337250D01*
X172877657Y-113335097D01*
X172864005Y-113329748D01*
X172859751Y-113327989D01*
X172841524Y-113323047D01*
X172816862Y-113319692D01*
X172796119Y-113318728D01*
X172753916Y-113322963D01*
X172719931Y-113335941D01*
X172693270Y-113358075D01*
X172683991Y-113370274D01*
X172674794Y-113384097D01*
X172667361Y-113396169D01*
X172661491Y-113407963D01*
X172656984Y-113420950D01*
X172653639Y-113436599D01*
X172651256Y-113456381D01*
X172649633Y-113481767D01*
X172648570Y-113514229D01*
X172647866Y-113555236D01*
X172647320Y-113606260D01*
X172646994Y-113641322D01*
X172645048Y-113849696D01*
X172417355Y-113849696D01*
X172417355Y-113139681D01*
X172645794Y-113139681D01*
X172646340Y-113247727D01*
X172658945Y-113223829D01*
X172678727Y-113194915D01*
X172705056Y-113168225D01*
X172734134Y-113147156D01*
X172756337Y-113136790D01*
X172792085Y-113129613D01*
X172834971Y-113128605D01*
X172883495Y-113130420D01*
G37*
G36*
X175618595Y-113130420D02*
G01*
X175620287Y-113233835D01*
X175620707Y-113268006D01*
X175620800Y-113297415D01*
X175620583Y-113320042D01*
X175620071Y-113333869D01*
X175619498Y-113337250D01*
X175612757Y-113335097D01*
X175599105Y-113329748D01*
X175594851Y-113327989D01*
X175576624Y-113323047D01*
X175551961Y-113319692D01*
X175531219Y-113318728D01*
X175489015Y-113322963D01*
X175455031Y-113335941D01*
X175428370Y-113358075D01*
X175419091Y-113370274D01*
X175409893Y-113384097D01*
X175402460Y-113396169D01*
X175396591Y-113407963D01*
X175392084Y-113420950D01*
X175388739Y-113436599D01*
X175386356Y-113456381D01*
X175384733Y-113481767D01*
X175383669Y-113514229D01*
X175382965Y-113555236D01*
X175382419Y-113606260D01*
X175382093Y-113641322D01*
X175380148Y-113849696D01*
X175152455Y-113849696D01*
X175152455Y-113139681D01*
X175380894Y-113139681D01*
X175381440Y-113247727D01*
X175394045Y-113223829D01*
X175413826Y-113194915D01*
X175440156Y-113168225D01*
X175469234Y-113147156D01*
X175491437Y-113136790D01*
X175527185Y-113129613D01*
X175570070Y-113128605D01*
X175618595Y-113130420D01*
G37*
G36*
X161153227Y-111345442D02*
G01*
X161171939Y-111263940D01*
X161200076Y-111185059D01*
X161237201Y-111111483D01*
X161282348Y-111044319D01*
X161334550Y-110984679D01*
X161392841Y-110933669D01*
X161456255Y-110892398D01*
X161521489Y-110862814D01*
X161565678Y-110848650D01*
X161608935Y-110838974D01*
X161654651Y-110833338D01*
X161706215Y-110831297D01*
X161755474Y-110831999D01*
X161794324Y-110833581D01*
X161824181Y-110835804D01*
X161848400Y-110839131D01*
X161870333Y-110844026D01*
X161893336Y-110850951D01*
X161893704Y-110851072D01*
X161961163Y-110879367D01*
X162021371Y-110917283D01*
X162073605Y-110964271D01*
X162117141Y-111019781D01*
X162118293Y-111021553D01*
X162143753Y-111060944D01*
X162143753Y-110861460D01*
X162267895Y-110861460D01*
X162265638Y-111523626D01*
X162265262Y-111629755D01*
X162264888Y-111724288D01*
X162264504Y-111807975D01*
X162264096Y-111881567D01*
X162263651Y-111945815D01*
X162263154Y-112001472D01*
X162262594Y-112049287D01*
X162261955Y-112090012D01*
X162261225Y-112124398D01*
X162260390Y-112153196D01*
X162259438Y-112177158D01*
X162258353Y-112197034D01*
X162257123Y-112213576D01*
X162255735Y-112227534D01*
X162254174Y-112239661D01*
X162252630Y-112249521D01*
X162232968Y-112341850D01*
X162206849Y-112423773D01*
X162174187Y-112495464D01*
X162134892Y-112557094D01*
X162088878Y-112608838D01*
X162056138Y-112636636D01*
X161994954Y-112675900D01*
X161924515Y-112708307D01*
X161846165Y-112733335D01*
X161762867Y-112750223D01*
X161742144Y-112752281D01*
X161712141Y-112753904D01*
X161675825Y-112755066D01*
X161636159Y-112755742D01*
X161596109Y-112755906D01*
X161558642Y-112755533D01*
X161526721Y-112754595D01*
X161503313Y-112753069D01*
X161498566Y-112752516D01*
X161451955Y-112743729D01*
X161398417Y-112729544D01*
X161341523Y-112711064D01*
X161284842Y-112689395D01*
X161259321Y-112678438D01*
X161223821Y-112662594D01*
X161223821Y-112598095D01*
X161224230Y-112571862D01*
X161225337Y-112551233D01*
X161226961Y-112538639D01*
X161228451Y-112535951D01*
X161316280Y-112577442D01*
X161397336Y-112609141D01*
X161471427Y-112630979D01*
X161515106Y-112639749D01*
X161552438Y-112643674D01*
X161597442Y-112645256D01*
X161646456Y-112644651D01*
X161695815Y-112642010D01*
X161741855Y-112637490D01*
X161780912Y-112631243D01*
X161794919Y-112627992D01*
X161867312Y-112603102D01*
X161931854Y-112568833D01*
X161988233Y-112525455D01*
X162036137Y-112473240D01*
X162075256Y-112412460D01*
X162097261Y-112364919D01*
X162109890Y-112330497D01*
X162119896Y-112296315D01*
X162127604Y-112260199D01*
X162133340Y-112219973D01*
X162137430Y-112173462D01*
X162140199Y-112118492D01*
X162141649Y-112068485D01*
X162144829Y-111926482D01*
X162122949Y-111958255D01*
X162071910Y-112022481D01*
X162014378Y-112076237D01*
X161950106Y-112119707D01*
X161878848Y-112153071D01*
X161842866Y-112165315D01*
X161813070Y-112171918D01*
X161774339Y-112176968D01*
X161730001Y-112180360D01*
X161683384Y-112181987D01*
X161637816Y-112181740D01*
X161596626Y-112179515D01*
X161563140Y-112175204D01*
X161559206Y-112174417D01*
X161485879Y-112152742D01*
X161417587Y-112120245D01*
X161355127Y-112077701D01*
X161299298Y-112025888D01*
X161250897Y-111965580D01*
X161210723Y-111897555D01*
X161179572Y-111822588D01*
X161171692Y-111797440D01*
X161152506Y-111713584D01*
X161141068Y-111623285D01*
X161137376Y-111529715D01*
X161137706Y-111522083D01*
X161265323Y-111522083D01*
X161268929Y-111613262D01*
X161279739Y-111695086D01*
X161298050Y-111768434D01*
X161324158Y-111834185D01*
X161358358Y-111893217D01*
X161400946Y-111946411D01*
X161412038Y-111957991D01*
X161462428Y-112002063D01*
X161516009Y-112035040D01*
X161574813Y-112058120D01*
X161588089Y-112061841D01*
X161617513Y-112067059D01*
X161655197Y-112070110D01*
X161697247Y-112070996D01*
X161739767Y-112069718D01*
X161778861Y-112066279D01*
X161806049Y-112061754D01*
X161872321Y-112040981D01*
X161933362Y-112009613D01*
X161988297Y-111968611D01*
X162036254Y-111918932D01*
X162076358Y-111861536D01*
X162107738Y-111797382D01*
X162129518Y-111727430D01*
X162134903Y-111700651D01*
X162138200Y-111673882D01*
X162140669Y-111638056D01*
X162142338Y-111595234D01*
X162143235Y-111547473D01*
X162143389Y-111496833D01*
X162142826Y-111445371D01*
X162141576Y-111395148D01*
X162139667Y-111348220D01*
X162137125Y-111306647D01*
X162133980Y-111272487D01*
X162130259Y-111247800D01*
X162128652Y-111241164D01*
X162103107Y-111174752D01*
X162066301Y-111113204D01*
X162018507Y-111056975D01*
X162017388Y-111055855D01*
X161969261Y-111013502D01*
X161919571Y-110981730D01*
X161866281Y-110959729D01*
X161807354Y-110946690D01*
X161740751Y-110941803D01*
X161730092Y-110941723D01*
X161655978Y-110946848D01*
X161588215Y-110962389D01*
X161526149Y-110988596D01*
X161469125Y-111025717D01*
X161437631Y-111052789D01*
X161386216Y-111108707D01*
X161344167Y-111170886D01*
X161311286Y-111239870D01*
X161287372Y-111316199D01*
X161272228Y-111400416D01*
X161265654Y-111493062D01*
X161265323Y-111522083D01*
X161137706Y-111522083D01*
X161141430Y-111436043D01*
X161153227Y-111345442D01*
G37*
G36*
X157750480Y-111358411D02*
G01*
X157753310Y-111339948D01*
X157776556Y-111250497D01*
X157809453Y-111166849D01*
X157851439Y-111089935D01*
X157901954Y-111020687D01*
X157960435Y-110960037D01*
X158003803Y-110924668D01*
X158037667Y-110901347D01*
X158070253Y-110882941D01*
X158106072Y-110867193D01*
X158149149Y-110852007D01*
X158171167Y-110845276D01*
X158191276Y-110840411D01*
X158212479Y-110837019D01*
X158237777Y-110834706D01*
X158270170Y-110833076D01*
X158300926Y-110832065D01*
X158340566Y-110831130D01*
X158370853Y-110831084D01*
X158394761Y-110832128D01*
X158415264Y-110834462D01*
X158435339Y-110838289D01*
X158451970Y-110842276D01*
X158520815Y-110864564D01*
X158581163Y-110894825D01*
X158633957Y-110933849D01*
X158680142Y-110982422D01*
X158720660Y-111041332D01*
X158745029Y-111086813D01*
X158776864Y-111165032D01*
X158800404Y-111251637D01*
X158815460Y-111345702D01*
X158821845Y-111446302D01*
X158822066Y-111468060D01*
X158822119Y-111509734D01*
X157864628Y-111509734D01*
X157868378Y-111557583D01*
X157875295Y-111626983D01*
X157884689Y-111686795D01*
X157897178Y-111739638D01*
X157913380Y-111788133D01*
X157933644Y-111834348D01*
X157970961Y-111897831D01*
X158016263Y-111952405D01*
X158068883Y-111997531D01*
X158128152Y-112032667D01*
X158193403Y-112057273D01*
X158215928Y-112062944D01*
X158241145Y-112067569D01*
X158267951Y-112070196D01*
X158299761Y-112071008D01*
X158339991Y-112070191D01*
X158345849Y-112069981D01*
X158413890Y-112064450D01*
X158476821Y-112052554D01*
X158537356Y-112033372D01*
X158598208Y-112005980D01*
X158662092Y-111969455D01*
X158685572Y-111954407D01*
X158708688Y-111939392D01*
X158727809Y-111927281D01*
X158740713Y-111919461D01*
X158745117Y-111917221D01*
X158746319Y-111922968D01*
X158747279Y-111938498D01*
X158747883Y-111961249D01*
X158748031Y-111981405D01*
X158748031Y-112045589D01*
X158718704Y-112064372D01*
X158646234Y-112105009D01*
X158567787Y-112138612D01*
X158487557Y-112163535D01*
X158440123Y-112173671D01*
X158409350Y-112177578D01*
X158371073Y-112180242D01*
X158328474Y-112181662D01*
X158284738Y-112181834D01*
X158243045Y-112180756D01*
X158206579Y-112178425D01*
X158178521Y-112174838D01*
X158173845Y-112173892D01*
X158097425Y-112150774D01*
X158026742Y-112116925D01*
X157962503Y-112072894D01*
X157905418Y-112019228D01*
X157856196Y-111956475D01*
X157825234Y-111904479D01*
X157804902Y-111860255D01*
X157785598Y-111807953D01*
X157768750Y-111751837D01*
X157756152Y-111698043D01*
X157751760Y-111667900D01*
X157748377Y-111628681D01*
X157746023Y-111583167D01*
X157744722Y-111534135D01*
X157744495Y-111484365D01*
X157745364Y-111436635D01*
X157746840Y-111404776D01*
X157871626Y-111404776D01*
X158692464Y-111404776D01*
X158692440Y-111381623D01*
X158691021Y-111359263D01*
X158687244Y-111328881D01*
X158681773Y-111294426D01*
X158675272Y-111259850D01*
X158668404Y-111229102D01*
X158664174Y-111213427D01*
X158639470Y-111149746D01*
X158605408Y-111091063D01*
X158563641Y-111040194D01*
X158560423Y-111036950D01*
X158518729Y-111000369D01*
X158475966Y-110973505D01*
X158429708Y-110955416D01*
X158377531Y-110945162D01*
X158317010Y-110941800D01*
X158315292Y-110941796D01*
X158245717Y-110945906D01*
X158183644Y-110958848D01*
X158127305Y-110981295D01*
X158074935Y-111013919D01*
X158033302Y-111049128D01*
X157991389Y-111094236D01*
X157956224Y-111144283D01*
X157927093Y-111200784D01*
X157903280Y-111265257D01*
X157884070Y-111339218D01*
X157875170Y-111384710D01*
X157871626Y-111404776D01*
X157746840Y-111404776D01*
X157747352Y-111393724D01*
X157750480Y-111358411D01*
G37*
G36*
X159849653Y-111358411D02*
G01*
X159852484Y-111339948D01*
X159875729Y-111250497D01*
X159908626Y-111166849D01*
X159950613Y-111089935D01*
X160001128Y-111020687D01*
X160059608Y-110960037D01*
X160102976Y-110924668D01*
X160136841Y-110901347D01*
X160169427Y-110882941D01*
X160205246Y-110867193D01*
X160248322Y-110852007D01*
X160270340Y-110845276D01*
X160290450Y-110840411D01*
X160311653Y-110837019D01*
X160336950Y-110834706D01*
X160369344Y-110833076D01*
X160400099Y-110832065D01*
X160439740Y-110831130D01*
X160470026Y-110831084D01*
X160493934Y-110832128D01*
X160514438Y-110834462D01*
X160534512Y-110838289D01*
X160551144Y-110842276D01*
X160619989Y-110864564D01*
X160680337Y-110894825D01*
X160733131Y-110933849D01*
X160779315Y-110982422D01*
X160819834Y-111041332D01*
X160844202Y-111086813D01*
X160876038Y-111165032D01*
X160899577Y-111251637D01*
X160914633Y-111345702D01*
X160921018Y-111446302D01*
X160921240Y-111468060D01*
X160921293Y-111509734D01*
X159963802Y-111509734D01*
X159967552Y-111557583D01*
X159974468Y-111626983D01*
X159983862Y-111686795D01*
X159996351Y-111739638D01*
X160012553Y-111788133D01*
X160032817Y-111834348D01*
X160070135Y-111897831D01*
X160115437Y-111952405D01*
X160168056Y-111997531D01*
X160227326Y-112032667D01*
X160292577Y-112057273D01*
X160315101Y-112062944D01*
X160340318Y-112067569D01*
X160367124Y-112070196D01*
X160398935Y-112071008D01*
X160439164Y-112070191D01*
X160445023Y-112069981D01*
X160513063Y-112064450D01*
X160575994Y-112052554D01*
X160636529Y-112033372D01*
X160697382Y-112005980D01*
X160761266Y-111969455D01*
X160784745Y-111954407D01*
X160807862Y-111939392D01*
X160826982Y-111927281D01*
X160839887Y-111919461D01*
X160844291Y-111917221D01*
X160845492Y-111922968D01*
X160846453Y-111938498D01*
X160847056Y-111961249D01*
X160847204Y-111981405D01*
X160847204Y-112045589D01*
X160817878Y-112064372D01*
X160745408Y-112105009D01*
X160666960Y-112138612D01*
X160586731Y-112163535D01*
X160539297Y-112173671D01*
X160508523Y-112177578D01*
X160470246Y-112180242D01*
X160427648Y-112181662D01*
X160383911Y-112181834D01*
X160342218Y-112180756D01*
X160305752Y-112178425D01*
X160277695Y-112174838D01*
X160273019Y-112173892D01*
X160196599Y-112150774D01*
X160125915Y-112116925D01*
X160061676Y-112072894D01*
X160004591Y-112019228D01*
X159955369Y-111956475D01*
X159924408Y-111904479D01*
X159904075Y-111860255D01*
X159884772Y-111807953D01*
X159867923Y-111751837D01*
X159855325Y-111698043D01*
X159850934Y-111667900D01*
X159847550Y-111628681D01*
X159845197Y-111583167D01*
X159843895Y-111534135D01*
X159843668Y-111484365D01*
X159844537Y-111436635D01*
X159846013Y-111404776D01*
X159970799Y-111404776D01*
X160791638Y-111404776D01*
X160791613Y-111381623D01*
X160790195Y-111359263D01*
X160786418Y-111328881D01*
X160780947Y-111294426D01*
X160774445Y-111259850D01*
X160767578Y-111229102D01*
X160763347Y-111213427D01*
X160738644Y-111149746D01*
X160704581Y-111091063D01*
X160662814Y-111040194D01*
X160659596Y-111036950D01*
X160617903Y-111000369D01*
X160575139Y-110973505D01*
X160528882Y-110955416D01*
X160476705Y-110945162D01*
X160416183Y-110941800D01*
X160414466Y-110941796D01*
X160344891Y-110945906D01*
X160282817Y-110958848D01*
X160226479Y-110981295D01*
X160174109Y-111013919D01*
X160132475Y-111049128D01*
X160090563Y-111094236D01*
X160055398Y-111144283D01*
X160026266Y-111200784D01*
X160002453Y-111265257D01*
X159983244Y-111339218D01*
X159974343Y-111384710D01*
X159970799Y-111404776D01*
X159846013Y-111404776D01*
X159846525Y-111393724D01*
X159849653Y-111358411D01*
G37*
G36*
X165344549Y-111358411D02*
G01*
X165347379Y-111339948D01*
X165370625Y-111250497D01*
X165403522Y-111166849D01*
X165445508Y-111089935D01*
X165496023Y-111020687D01*
X165554504Y-110960037D01*
X165597872Y-110924668D01*
X165631736Y-110901347D01*
X165664322Y-110882941D01*
X165700141Y-110867193D01*
X165743218Y-110852007D01*
X165765236Y-110845276D01*
X165785345Y-110840411D01*
X165806548Y-110837019D01*
X165831846Y-110834706D01*
X165864239Y-110833076D01*
X165894995Y-110832065D01*
X165934635Y-110831130D01*
X165964922Y-110831084D01*
X165988830Y-110832128D01*
X166009333Y-110834462D01*
X166029408Y-110838289D01*
X166046039Y-110842276D01*
X166114884Y-110864564D01*
X166175232Y-110894825D01*
X166228026Y-110933849D01*
X166274211Y-110982422D01*
X166314729Y-111041332D01*
X166339098Y-111086813D01*
X166370934Y-111165032D01*
X166394473Y-111251637D01*
X166409529Y-111345702D01*
X166415914Y-111446302D01*
X166416135Y-111468060D01*
X166416188Y-111509734D01*
X165458697Y-111509734D01*
X165462447Y-111557583D01*
X165469364Y-111626983D01*
X165478758Y-111686795D01*
X165491247Y-111739638D01*
X165507449Y-111788133D01*
X165527713Y-111834348D01*
X165565030Y-111897831D01*
X165610332Y-111952405D01*
X165662952Y-111997531D01*
X165722221Y-112032667D01*
X165787472Y-112057273D01*
X165809997Y-112062944D01*
X165835214Y-112067569D01*
X165862020Y-112070196D01*
X165893830Y-112071008D01*
X165934060Y-112070191D01*
X165939919Y-112069981D01*
X166007959Y-112064450D01*
X166070890Y-112052554D01*
X166131425Y-112033372D01*
X166192277Y-112005980D01*
X166256161Y-111969455D01*
X166279641Y-111954407D01*
X166302757Y-111939392D01*
X166321878Y-111927281D01*
X166334782Y-111919461D01*
X166339186Y-111917221D01*
X166340388Y-111922968D01*
X166341348Y-111938498D01*
X166341952Y-111961249D01*
X166342100Y-111981405D01*
X166342100Y-112045589D01*
X166312773Y-112064372D01*
X166240303Y-112105009D01*
X166161856Y-112138612D01*
X166081626Y-112163535D01*
X166034192Y-112173671D01*
X166003419Y-112177578D01*
X165965142Y-112180242D01*
X165922544Y-112181662D01*
X165878807Y-112181834D01*
X165837114Y-112180756D01*
X165800648Y-112178425D01*
X165772590Y-112174838D01*
X165767914Y-112173892D01*
X165691494Y-112150774D01*
X165620811Y-112116925D01*
X165556572Y-112072894D01*
X165499487Y-112019228D01*
X165450265Y-111956475D01*
X165419303Y-111904479D01*
X165398971Y-111860255D01*
X165379667Y-111807953D01*
X165362819Y-111751837D01*
X165350221Y-111698043D01*
X165345829Y-111667900D01*
X165342446Y-111628681D01*
X165340092Y-111583167D01*
X165338791Y-111534135D01*
X165338564Y-111484365D01*
X165339433Y-111436635D01*
X165340909Y-111404776D01*
X165465695Y-111404776D01*
X166286533Y-111404776D01*
X166286509Y-111381623D01*
X166285090Y-111359263D01*
X166281313Y-111328881D01*
X166275842Y-111294426D01*
X166269341Y-111259850D01*
X166262473Y-111229102D01*
X166258243Y-111213427D01*
X166233539Y-111149746D01*
X166199477Y-111091063D01*
X166157710Y-111040194D01*
X166154492Y-111036950D01*
X166112798Y-111000369D01*
X166070035Y-110973505D01*
X166023777Y-110955416D01*
X165971600Y-110945162D01*
X165911079Y-110941800D01*
X165909361Y-110941796D01*
X165839786Y-110945906D01*
X165777713Y-110958848D01*
X165721374Y-110981295D01*
X165669004Y-111013919D01*
X165627371Y-111049128D01*
X165585458Y-111094236D01*
X165550293Y-111144283D01*
X165521162Y-111200784D01*
X165497349Y-111265257D01*
X165478139Y-111339218D01*
X165469239Y-111384710D01*
X165465695Y-111404776D01*
X165340909Y-111404776D01*
X165341421Y-111393724D01*
X165344549Y-111358411D01*
G37*
G36*
X156876488Y-110349015D02*
G01*
X156946358Y-110349100D01*
X157005115Y-110349378D01*
X157053992Y-110349886D01*
X157094223Y-110350659D01*
X157127041Y-110351734D01*
X157153680Y-110353147D01*
X157175373Y-110354934D01*
X157193354Y-110357131D01*
X157202169Y-110358537D01*
X157266079Y-110371826D01*
X157321038Y-110388351D01*
X157370273Y-110409283D01*
X157417007Y-110435797D01*
X157420161Y-110437823D01*
X157477091Y-110481619D01*
X157524354Y-110533089D01*
X157561941Y-110592210D01*
X157589843Y-110658964D01*
X157608050Y-110733328D01*
X157616555Y-110815283D01*
X157616229Y-110889243D01*
X157607134Y-110975290D01*
X157588344Y-111053972D01*
X157559600Y-111125888D01*
X157520642Y-111191637D01*
X157471213Y-111251818D01*
X157450644Y-111272388D01*
X157397283Y-111317674D01*
X157340714Y-111354274D01*
X157278215Y-111383669D01*
X157207065Y-111407345D01*
X157199081Y-111409533D01*
X157182262Y-111413935D01*
X157166929Y-111417470D01*
X157151442Y-111420255D01*
X157134162Y-111422404D01*
X157113452Y-111424035D01*
X157087671Y-111425262D01*
X157055183Y-111426201D01*
X157014348Y-111426969D01*
X156963527Y-111427680D01*
X156937494Y-111428005D01*
X156735294Y-111430494D01*
X156735294Y-112151835D01*
X156605639Y-112151835D01*
X156605639Y-111318339D01*
X156735294Y-111318339D01*
X156847970Y-111318121D01*
X156891675Y-111317698D01*
X156938279Y-111316673D01*
X156983492Y-111315178D01*
X157023025Y-111313344D01*
X157040909Y-111312230D01*
X157125190Y-111302198D01*
X157199916Y-111284604D01*
X157265412Y-111259292D01*
X157322004Y-111226105D01*
X157370017Y-111184888D01*
X157409778Y-111135484D01*
X157410156Y-111134916D01*
X157441080Y-111080575D01*
X157462976Y-111023299D01*
X157476447Y-110960889D01*
X157482092Y-110891145D01*
X157482353Y-110870721D01*
X157477624Y-110793666D01*
X157463469Y-110724515D01*
X157439938Y-110663332D01*
X157407079Y-110610186D01*
X157364942Y-110565141D01*
X157313576Y-110528266D01*
X157253028Y-110499625D01*
X157195488Y-110482070D01*
X157158265Y-110475150D01*
X157109564Y-110469490D01*
X157050196Y-110465142D01*
X156980972Y-110462159D01*
X156902704Y-110460595D01*
X156863405Y-110460366D01*
X156735294Y-110460148D01*
X156735294Y-111318339D01*
X156605639Y-111318339D01*
X156605639Y-110349015D01*
X156876488Y-110349015D01*
G37*
G36*
X159667021Y-110838878D02*
G01*
X159698284Y-110842401D01*
X159716234Y-110846264D01*
X159748225Y-110855765D01*
X159748225Y-110920867D01*
X159747819Y-110947234D01*
X159746721Y-110968010D01*
X159745110Y-110980772D01*
X159743595Y-110983597D01*
X159715575Y-110969509D01*
X159694390Y-110960202D01*
X159675958Y-110954686D01*
X159656200Y-110951972D01*
X159631033Y-110951069D01*
X159609163Y-110950984D01*
X159578482Y-110951213D01*
X159556539Y-110952343D01*
X159539727Y-110955038D01*
X159524439Y-110959960D01*
X159507066Y-110967773D01*
X159500549Y-110970956D01*
X159447503Y-111003933D01*
X159400443Y-111047558D01*
X159359511Y-111101603D01*
X159324848Y-111165840D01*
X159296596Y-111240039D01*
X159274898Y-111323971D01*
X159271727Y-111339948D01*
X159269023Y-111354847D01*
X159266707Y-111369633D01*
X159264740Y-111385405D01*
X159263082Y-111403265D01*
X159261695Y-111424314D01*
X159260539Y-111449650D01*
X159259575Y-111480376D01*
X159258763Y-111517592D01*
X159258065Y-111562397D01*
X159257442Y-111615894D01*
X159256854Y-111679181D01*
X159256262Y-111753361D01*
X159256063Y-111779849D01*
X159253302Y-112151835D01*
X159136995Y-112151835D01*
X159136995Y-110861460D01*
X159254302Y-110861460D01*
X159254377Y-110998833D01*
X159254453Y-111136205D01*
X159275623Y-111087713D01*
X159297828Y-111040563D01*
X159320041Y-111002067D01*
X159344590Y-110968750D01*
X159373805Y-110937138D01*
X159381783Y-110929406D01*
X159429097Y-110890846D01*
X159479318Y-110861926D01*
X159530217Y-110843920D01*
X159532305Y-110843428D01*
X159559281Y-110839369D01*
X159593443Y-110837300D01*
X159630715Y-110837157D01*
X159667021Y-110838878D01*
G37*
G36*
X163204746Y-110838878D02*
G01*
X163236009Y-110842401D01*
X163253959Y-110846264D01*
X163285950Y-110855765D01*
X163285950Y-110920867D01*
X163285544Y-110947234D01*
X163284446Y-110968010D01*
X163282835Y-110980772D01*
X163281320Y-110983597D01*
X163253299Y-110969509D01*
X163232114Y-110960202D01*
X163213683Y-110954686D01*
X163193925Y-110951972D01*
X163168758Y-110951069D01*
X163146888Y-110950984D01*
X163116207Y-110951213D01*
X163094264Y-110952343D01*
X163077452Y-110955038D01*
X163062163Y-110959960D01*
X163044791Y-110967773D01*
X163038274Y-110970956D01*
X162985228Y-111003933D01*
X162938168Y-111047558D01*
X162897235Y-111101603D01*
X162862573Y-111165840D01*
X162834321Y-111240039D01*
X162812623Y-111323971D01*
X162809452Y-111339948D01*
X162806748Y-111354847D01*
X162804432Y-111369633D01*
X162802465Y-111385405D01*
X162800807Y-111403265D01*
X162799420Y-111424314D01*
X162798264Y-111449650D01*
X162797299Y-111480376D01*
X162796488Y-111517592D01*
X162795790Y-111562397D01*
X162795167Y-111615894D01*
X162794579Y-111679181D01*
X162793987Y-111753361D01*
X162793788Y-111779849D01*
X162791027Y-112151835D01*
X162674720Y-112151835D01*
X162674720Y-110861460D01*
X162792027Y-110861460D01*
X162792102Y-110998833D01*
X162792178Y-111136205D01*
X162813347Y-111087713D01*
X162835553Y-111040563D01*
X162857765Y-111002067D01*
X162882314Y-110968750D01*
X162911530Y-110937138D01*
X162919508Y-110929406D01*
X162966822Y-110890846D01*
X163017042Y-110861926D01*
X163067942Y-110843920D01*
X163070030Y-110843428D01*
X163097006Y-110839369D01*
X163131168Y-110837300D01*
X163168440Y-110837157D01*
X163204746Y-110838878D01*
G37*
G36*
X163644044Y-112151835D02*
G01*
X163520564Y-112151835D01*
X163520564Y-110861460D01*
X163644044Y-110861460D01*
X163644044Y-112151835D01*
G37*
G36*
X164675281Y-110832646D02*
G01*
X164715182Y-110837234D01*
X164727241Y-110839575D01*
X164792514Y-110860037D01*
X164851009Y-110890729D01*
X164902434Y-110931375D01*
X164946498Y-110981697D01*
X164982910Y-111041419D01*
X165010934Y-111108938D01*
X165017207Y-111128078D01*
X165022673Y-111146240D01*
X165027387Y-111164390D01*
X165031405Y-111183496D01*
X165034783Y-111204524D01*
X165037575Y-111228441D01*
X165039838Y-111256214D01*
X165041626Y-111288809D01*
X165042996Y-111327195D01*
X165044003Y-111372336D01*
X165044701Y-111425202D01*
X165045147Y-111486757D01*
X165045397Y-111557970D01*
X165045505Y-111639806D01*
X165045527Y-111711934D01*
X165045551Y-112151835D01*
X164928245Y-112151835D01*
X164928245Y-111776115D01*
X164928140Y-111682313D01*
X164927801Y-111599908D01*
X164927184Y-111527948D01*
X164926250Y-111465482D01*
X164924958Y-111411561D01*
X164923267Y-111365233D01*
X164921135Y-111325548D01*
X164918523Y-111291555D01*
X164915388Y-111262304D01*
X164911691Y-111236845D01*
X164907390Y-111214225D01*
X164903325Y-111196900D01*
X164881662Y-111130911D01*
X164852811Y-111074180D01*
X164817083Y-111027067D01*
X164774790Y-110989931D01*
X164726243Y-110963131D01*
X164690790Y-110951245D01*
X164658275Y-110945532D01*
X164618291Y-110942500D01*
X164575426Y-110942154D01*
X164534266Y-110944496D01*
X164499398Y-110949532D01*
X164492728Y-110951077D01*
X164430071Y-110973226D01*
X164372023Y-111006082D01*
X164319567Y-111048551D01*
X164273682Y-111099537D01*
X164235350Y-111157944D01*
X164205551Y-111222679D01*
X164185267Y-111292645D01*
X164184792Y-111294926D01*
X164182791Y-111306128D01*
X164181075Y-111319443D01*
X164179623Y-111335835D01*
X164178414Y-111356265D01*
X164177429Y-111381697D01*
X164176645Y-111413091D01*
X164176042Y-111451412D01*
X164175600Y-111497621D01*
X164175297Y-111552681D01*
X164175112Y-111617553D01*
X164175025Y-111693201D01*
X164175012Y-111747175D01*
X164175012Y-112151835D01*
X164051531Y-112151835D01*
X164051531Y-110861460D01*
X164175012Y-110861460D01*
X164175012Y-111085310D01*
X164204884Y-111039756D01*
X164251238Y-110980100D01*
X164306104Y-110928903D01*
X164368265Y-110887089D01*
X164436500Y-110855586D01*
X164455931Y-110848929D01*
X164490190Y-110840865D01*
X164532932Y-110835078D01*
X164580479Y-110831695D01*
X164629154Y-110830842D01*
X164675281Y-110832646D01*
G37*
G36*
X167837761Y-110350636D02*
G01*
X167919025Y-110351098D01*
X167988954Y-110351538D01*
X168048561Y-110351992D01*
X168098861Y-110352493D01*
X168140866Y-110353078D01*
X168175589Y-110353780D01*
X168204044Y-110354635D01*
X168227245Y-110355677D01*
X168246204Y-110356941D01*
X168261935Y-110358462D01*
X168275450Y-110360276D01*
X168287765Y-110362416D01*
X168299891Y-110364918D01*
X168308436Y-110366818D01*
X168393581Y-110390154D01*
X168468361Y-110419582D01*
X168533380Y-110455528D01*
X168589241Y-110498417D01*
X168636550Y-110548673D01*
X168675912Y-110606722D01*
X168691491Y-110636108D01*
X168709669Y-110675729D01*
X168723544Y-110712669D01*
X168733628Y-110749599D01*
X168740433Y-110789193D01*
X168744470Y-110834125D01*
X168746252Y-110887067D01*
X168746452Y-110923201D01*
X168746210Y-110966986D01*
X168745529Y-111000865D01*
X168744211Y-111027277D01*
X168742055Y-111048662D01*
X168738862Y-111067459D01*
X168734433Y-111086108D01*
X168732572Y-111092987D01*
X168704345Y-111172666D01*
X168665636Y-111245898D01*
X168616699Y-111312333D01*
X168557789Y-111371621D01*
X168493875Y-111420307D01*
X168442107Y-111452112D01*
X168390104Y-111478308D01*
X168336149Y-111499302D01*
X168278528Y-111515503D01*
X168215525Y-111527319D01*
X168145424Y-111535160D01*
X168066511Y-111539434D01*
X167989025Y-111540568D01*
X167842391Y-111540605D01*
X167842391Y-112151835D01*
X167428731Y-112151835D01*
X167428731Y-111227679D01*
X167842391Y-111227679D01*
X167958155Y-111223544D01*
X168000404Y-111221589D01*
X168040141Y-111218923D01*
X168074666Y-111215778D01*
X168101281Y-111212388D01*
X168112968Y-111210185D01*
X168169983Y-111191408D01*
X168217953Y-111164296D01*
X168256700Y-111129113D01*
X168286042Y-111086120D01*
X168305802Y-111035581D01*
X168315797Y-110977757D01*
X168315931Y-110914058D01*
X168306863Y-110855330D01*
X168288480Y-110804706D01*
X168260720Y-110762108D01*
X168223521Y-110727462D01*
X168176818Y-110700691D01*
X168123674Y-110682506D01*
X168098425Y-110677091D01*
X168068771Y-110672869D01*
X168032468Y-110669613D01*
X167987270Y-110667101D01*
X167958632Y-110665983D01*
X167842391Y-110661940D01*
X167842391Y-111227679D01*
X167428731Y-111227679D01*
X167428731Y-110348367D01*
X167837761Y-110350636D01*
G37*
G36*
X170182353Y-110584687D02*
G01*
X170120117Y-110699060D01*
X170088571Y-110757710D01*
X170055489Y-110820433D01*
X170021936Y-110885127D01*
X169988978Y-110949686D01*
X169957679Y-111012007D01*
X169929104Y-111069986D01*
X169904318Y-111121520D01*
X169884386Y-111164504D01*
X169883229Y-111167075D01*
X169802633Y-111358811D01*
X169733990Y-111548654D01*
X169677140Y-111737114D01*
X169631924Y-111924702D01*
X169608090Y-112049963D01*
X169602921Y-112080060D01*
X169598234Y-112106758D01*
X169594557Y-112127099D01*
X169592455Y-112137943D01*
X169589409Y-112151835D01*
X169379610Y-112151835D01*
X169318514Y-112151658D01*
X169267201Y-112151139D01*
X169226176Y-112150291D01*
X169195941Y-112149129D01*
X169177000Y-112147667D01*
X169169857Y-112145921D01*
X169169810Y-112145756D01*
X169170966Y-112137874D01*
X169174155Y-112120122D01*
X169178957Y-112094735D01*
X169184955Y-112063944D01*
X169188629Y-112045428D01*
X169231675Y-111857716D01*
X169285827Y-111670438D01*
X169351267Y-111483141D01*
X169428177Y-111295372D01*
X169516740Y-111106679D01*
X169617137Y-110916608D01*
X169701424Y-110771025D01*
X169718272Y-110742738D01*
X169732598Y-110718247D01*
X169743303Y-110699465D01*
X169749287Y-110688305D01*
X169750170Y-110686132D01*
X169744164Y-110685501D01*
X169726820Y-110684903D01*
X169699148Y-110684348D01*
X169662157Y-110683845D01*
X169616857Y-110683403D01*
X169564259Y-110683032D01*
X169505371Y-110682739D01*
X169441204Y-110682535D01*
X169372768Y-110682427D01*
X169336509Y-110682413D01*
X168922848Y-110682413D01*
X168922848Y-110349015D01*
X170182353Y-110349015D01*
X170182353Y-110584687D01*
G37*
G36*
X163616610Y-110351855D02*
G01*
X163630474Y-110357829D01*
X163637870Y-110362496D01*
X163660852Y-110384556D01*
X163676001Y-110412787D01*
X163681079Y-110441220D01*
X163676466Y-110468027D01*
X163664320Y-110495243D01*
X163647213Y-110518017D01*
X163635160Y-110527829D01*
X163609361Y-110537691D01*
X163578706Y-110540580D01*
X163548539Y-110536485D01*
X163528225Y-110528095D01*
X163503210Y-110506270D01*
X163488332Y-110477439D01*
X163483542Y-110442578D01*
X163487816Y-110407596D01*
X163500884Y-110381123D01*
X163523036Y-110362870D01*
X163554563Y-110352548D01*
X163576096Y-110350141D01*
X163600074Y-110349610D01*
X163616610Y-110351855D01*
G37*
%TO.C,D1*%
X130725000Y-99248575D02*
X133185000Y-99248575D01*
X133185000Y-97778575D02*
X130725000Y-97778575D01*
X133185000Y-99248575D02*
X133185000Y-97778575D01*
%TO.C,R2*%
X133967621Y-105333575D02*
X133632379Y-105333575D01*
X133967621Y-106093575D02*
X133632379Y-106093575D01*
%TO.C,R7*%
X133967621Y-111593575D02*
X133632379Y-111593575D01*
X133967621Y-110833575D02*
X133632379Y-110833575D01*
%TO.C,U4*%
X146950000Y-108610000D02*
X148750000Y-108610000D01*
X148750000Y-105390000D02*
X145800000Y-105390000D01*
%TO.C,C1*%
X106310000Y-102967308D02*
X106310000Y-103259842D01*
X105290000Y-102967308D02*
X105290000Y-103259842D01*
%TO.C,U1*%
X110100000Y-101503575D02*
X107650000Y-101503575D01*
X108300000Y-104723575D02*
X110100000Y-104723575D01*
%TO.C,U2*%
X108400000Y-99723575D02*
X110200000Y-99723575D01*
X110200000Y-96503575D02*
X107750000Y-96503575D01*
%TO.C,R8*%
X150777500Y-105054724D02*
X150777500Y-104545276D01*
X151822500Y-105054724D02*
X151822500Y-104545276D01*
%TO.C,C13*%
X144310000Y-108691233D02*
X144310000Y-108983767D01*
X143290000Y-108691233D02*
X143290000Y-108983767D01*
%TO.C,R1*%
X131257776Y-96191075D02*
X131767224Y-96191075D01*
X131257776Y-97236075D02*
X131767224Y-97236075D01*
%TO.C,X1*%
X118860000Y-104813575D02*
X124340000Y-104813575D01*
X118860000Y-112213575D02*
X118860000Y-112153575D01*
X118860000Y-109953575D02*
X118860000Y-107073575D01*
X124340000Y-104813575D02*
X124340000Y-104873575D01*
X124340000Y-112153575D02*
X124340000Y-112213575D01*
X118400000Y-104873575D02*
X118860000Y-104873575D01*
X118860000Y-104873575D02*
X118860000Y-104813575D01*
X118860000Y-107073575D02*
X118400000Y-107073575D01*
X124340000Y-107073575D02*
X124340000Y-109953575D01*
X124340000Y-112213575D02*
X118860000Y-112213575D01*
%TO.C,TP8*%
X129687551Y-102750637D02*
G75*
G03*
X129687551Y-102750637I-700000J0D01*
G01*
%TO.C,C6*%
X114910000Y-97967308D02*
X114910000Y-98259842D01*
X113890000Y-97967308D02*
X113890000Y-98259842D01*
%TO.C,U3*%
X132322551Y-108350637D02*
X132322551Y-110550637D01*
X126852551Y-108350637D02*
X126852551Y-106150637D01*
X132322551Y-108350637D02*
X132322551Y-106150637D01*
X126852551Y-108350637D02*
X126852551Y-111950637D01*
%TO.C,R9*%
X192617224Y-108047098D02*
X192107776Y-108047098D01*
X192617224Y-109092098D02*
X192107776Y-109092098D01*
%TO.C,R3*%
X133957672Y-106433575D02*
X133622430Y-106433575D01*
X133957672Y-107193575D02*
X133622430Y-107193575D01*
%TO.C,C3*%
X113790000Y-102967308D02*
X113790000Y-103259842D01*
X114810000Y-102967308D02*
X114810000Y-103259842D01*
%TO.C,TP5*%
X131487551Y-102750637D02*
G75*
G03*
X131487551Y-102750637I-700000J0D01*
G01*
%TO.C,C5*%
X113210000Y-97967308D02*
X113210000Y-98259842D01*
X112190000Y-97967308D02*
X112190000Y-98259842D01*
%TO.C,C7*%
X117710000Y-108567308D02*
X117710000Y-108859842D01*
X116690000Y-108567308D02*
X116690000Y-108859842D01*
%TO.C,J2*%
X98970000Y-108383575D02*
X98970000Y-111043575D01*
X98970000Y-111043575D02*
X96370000Y-111043575D01*
X98970000Y-108383575D02*
X96370000Y-108383575D01*
X100240000Y-108383575D02*
X101570000Y-108383575D01*
X101570000Y-108383575D02*
X101570000Y-109713575D01*
X96370000Y-108383575D02*
X96370000Y-111043575D01*
%TO.C,C2*%
X112090000Y-102967308D02*
X112090000Y-103259842D01*
X113110000Y-102967308D02*
X113110000Y-103259842D01*
%TO.C,TP9*%
X128087551Y-113450637D02*
G75*
G03*
X128087551Y-113450637I-700000J0D01*
G01*
%TO.C,J3*%
X122130000Y-101013575D02*
X122130000Y-102343575D01*
X122130000Y-99743575D02*
X119470000Y-99743575D01*
X122130000Y-102343575D02*
X120800000Y-102343575D01*
X122130000Y-99743575D02*
X122130000Y-97143575D01*
X119470000Y-99743575D02*
X119470000Y-97143575D01*
X122130000Y-97143575D02*
X119470000Y-97143575D01*
%TO.C,C8*%
X127697551Y-102834404D02*
X127697551Y-102541870D01*
X126677551Y-102834404D02*
X126677551Y-102541870D01*
%TO.C,C4*%
X105390000Y-97967308D02*
X105390000Y-98259842D01*
X106410000Y-97967308D02*
X106410000Y-98259842D01*
%TO.C,R10*%
X196217224Y-108047098D02*
X195707776Y-108047098D01*
X196217224Y-109092098D02*
X195707776Y-109092098D01*
%TO.C,TP10*%
X130187551Y-113450637D02*
G75*
G03*
X130187551Y-113450637I-700000J0D01*
G01*
%TO.C,R5*%
X133957672Y-109393575D02*
X133622430Y-109393575D01*
X133957672Y-108633575D02*
X133622430Y-108633575D01*
%TO.C,U6*%
X188550000Y-107433575D02*
X186650000Y-107433575D01*
X187150000Y-109753575D02*
X188550000Y-109753575D01*
%TO.C,C14*%
X181710000Y-104191233D02*
X181710000Y-104483767D01*
X180690000Y-104191233D02*
X180690000Y-104483767D01*
%TO.C,C15*%
X187246267Y-111379598D02*
X186953733Y-111379598D01*
X187246267Y-110359598D02*
X186953733Y-110359598D01*
%TO.C,TP6*%
X131487551Y-100950637D02*
G75*
G03*
X131487551Y-100950637I-700000J0D01*
G01*
%TO.C,U5*%
X179140052Y-109753575D02*
X180540052Y-109753575D01*
X180540052Y-107433575D02*
X178640052Y-107433575D01*
%TO.C,R4*%
X133957672Y-107533575D02*
X133622430Y-107533575D01*
X133957672Y-108293575D02*
X133622430Y-108293575D01*
%TO.C,J1*%
X95600000Y-106213575D02*
X95600000Y-104213575D01*
X95600000Y-97213575D02*
X102300000Y-97213575D01*
X95600000Y-99313575D02*
X95600000Y-97213575D01*
X102300000Y-97213575D02*
X102300000Y-99813575D01*
X102300000Y-103713575D02*
X102300000Y-106213575D01*
X96700000Y-106213575D02*
X95600000Y-106213575D01*
X102300000Y-106213575D02*
X100500000Y-106213575D01*
%TO.C,TP4*%
X140000000Y-108000000D02*
G75*
G03*
X140000000Y-108000000I-700000J0D01*
G01*
%TO.C,TP3*%
X152900000Y-107947448D02*
G75*
G03*
X152900000Y-107947448I-700000J0D01*
G01*
%TO.C,TP7*%
X129687551Y-100950637D02*
G75*
G03*
X129687551Y-100950637I-700000J0D01*
G01*
%TO.C,R6*%
X133967621Y-109733575D02*
X133632379Y-109733575D01*
X133967621Y-110493575D02*
X133632379Y-110493575D01*
%TD*%
%LPC*%
D10*
X194000000Y-107763575D02*
X194300000Y-107763575D01*
X194300000Y-107763575D02*
X194300000Y-109363575D01*
X194300000Y-109363575D02*
X194000000Y-109363575D01*
X194000000Y-109363575D02*
X194000000Y-107763575D01*
G36*
X194000000Y-107763575D02*
G01*
X194300000Y-107763575D01*
X194300000Y-109363575D01*
X194000000Y-109363575D01*
X194000000Y-107763575D01*
G37*
X197700000Y-107800000D02*
X201800000Y-107800000D01*
X201800000Y-107800000D02*
X201800000Y-109300000D01*
X201800000Y-109300000D02*
X197700000Y-109300000D01*
X197700000Y-109300000D02*
X197700000Y-107800000D01*
G36*
X197700000Y-107800000D02*
G01*
X201800000Y-107800000D01*
X201800000Y-109300000D01*
X197700000Y-109300000D01*
X197700000Y-107800000D01*
G37*
D12*
X155590000Y-107943575D02*
X153400000Y-107943575D01*
D10*
X190300000Y-107763575D02*
X190600000Y-107763575D01*
X190600000Y-107763575D02*
X190600000Y-109363575D01*
X190600000Y-109363575D02*
X190300000Y-109363575D01*
X190300000Y-109363575D02*
X190300000Y-107763575D01*
G36*
X190300000Y-107763575D02*
G01*
X190600000Y-107763575D01*
X190600000Y-109363575D01*
X190300000Y-109363575D01*
X190300000Y-107763575D01*
G37*
X154400000Y-102473575D02*
X155020000Y-102473575D01*
X155020000Y-102473575D02*
X155020000Y-107143575D01*
X155020000Y-107143575D02*
X153770000Y-107143575D01*
X153770000Y-107143575D02*
X153770000Y-101633575D01*
X153770000Y-101633575D02*
X154400000Y-102473575D01*
G36*
X154400000Y-102473575D02*
G01*
X155020000Y-102473575D01*
X155020000Y-107143575D01*
X153770000Y-107143575D01*
X153770000Y-101633575D01*
X154400000Y-102473575D01*
G37*
X154400000Y-102473575D02*
X155020000Y-102473575D01*
X155020000Y-107143575D01*
X153770000Y-107143575D01*
X153770000Y-101633575D01*
X154400000Y-102473575D01*
X185500000Y-110013575D02*
X182200000Y-110013575D01*
X182200000Y-110013575D02*
X182200000Y-107213575D01*
X182200000Y-107213575D02*
X185500000Y-107213575D01*
X185500000Y-107213575D02*
X185500000Y-110013575D01*
G36*
X185500000Y-110013575D02*
G01*
X182200000Y-110013575D01*
X182200000Y-107213575D01*
X185500000Y-107213575D01*
X185500000Y-110013575D01*
G37*
X182700000Y-107213575D02*
X182700000Y-107213575D01*
X182700000Y-107213575D02*
X182700000Y-107213575D01*
X182700000Y-107213575D02*
X182700000Y-107213575D01*
X182700000Y-107213575D02*
X182700000Y-107213575D01*
X155030000Y-114713575D02*
X153770000Y-114713575D01*
X153770000Y-114713575D02*
X153770000Y-108583575D01*
X153770000Y-108583575D02*
X155030000Y-108583575D01*
X155030000Y-108583575D02*
X155030000Y-114713575D01*
G36*
X155030000Y-114713575D02*
G01*
X153770000Y-114713575D01*
X153770000Y-108583575D01*
X155030000Y-108583575D01*
X155030000Y-114713575D01*
G37*
X155030000Y-114713575D02*
X153770000Y-114713575D01*
X153770000Y-108583575D01*
X155030000Y-108583575D01*
X155030000Y-114713575D01*
X155600000Y-107713575D02*
X176800000Y-107713575D01*
X176800000Y-107713575D02*
X176800000Y-109513575D01*
X176800000Y-109513575D02*
X155600000Y-109513575D01*
X155600000Y-109513575D02*
X155600000Y-107713575D01*
G36*
X155600000Y-107713575D02*
G01*
X176800000Y-107713575D01*
X176800000Y-109513575D01*
X155600000Y-109513575D01*
X155600000Y-107713575D01*
G37*
%TO.C,G\u002A\u002A\u002A*%
G36*
X160695232Y-105502055D02*
G01*
X160711257Y-105453533D01*
X160738163Y-105400056D01*
X160805249Y-105307136D01*
X160887989Y-105245207D01*
X160988042Y-105213064D01*
X160997505Y-105211652D01*
X161076849Y-105211530D01*
X161156258Y-105229246D01*
X161223821Y-105260939D01*
X161264646Y-105298211D01*
X161282648Y-105321659D01*
X161289708Y-105317633D01*
X161290946Y-105282430D01*
X161290946Y-105279195D01*
X161294853Y-105239863D01*
X161312271Y-105224641D01*
X161336358Y-105222628D01*
X161381770Y-105222628D01*
X161375854Y-105674632D01*
X161373909Y-105812988D01*
X161371856Y-105921018D01*
X161369274Y-106003502D01*
X161365743Y-106065221D01*
X161360842Y-106110955D01*
X161354151Y-106145484D01*
X161345250Y-106173588D01*
X161333718Y-106200047D01*
X161328756Y-106210264D01*
X161271116Y-106292744D01*
X161191114Y-106349840D01*
X161087028Y-106382574D01*
X161025300Y-106390133D01*
X160964461Y-106393379D01*
X160917286Y-106393835D01*
X160895991Y-106391794D01*
X160869397Y-106383115D01*
X160823477Y-106368889D01*
X160803835Y-106362931D01*
X160755800Y-106344796D01*
X160733856Y-106323923D01*
X160729233Y-106297900D01*
X160736261Y-106267055D01*
X160751175Y-106264555D01*
X160880530Y-106306550D01*
X160996357Y-106319906D01*
X161096313Y-106305767D01*
X161178054Y-106265277D01*
X161239238Y-106199580D01*
X161277522Y-106109820D01*
X161290561Y-106001107D01*
X161290946Y-105910685D01*
X161236695Y-105961364D01*
X161157042Y-106013225D01*
X161061020Y-106040103D01*
X160964351Y-106039508D01*
X160864926Y-106008889D01*
X160786480Y-105950779D01*
X160729912Y-105866483D01*
X160696122Y-105757307D01*
X160685927Y-105635137D01*
X160687291Y-105579284D01*
X160765238Y-105579284D01*
X160765968Y-105680918D01*
X160784854Y-105777888D01*
X160820313Y-105859017D01*
X160841374Y-105887513D01*
X160909589Y-105940886D01*
X160990471Y-105968009D01*
X161074465Y-105967669D01*
X161152019Y-105938651D01*
X161166552Y-105928831D01*
X161223925Y-105878203D01*
X161261375Y-105822023D01*
X161282403Y-105751682D01*
X161290510Y-105658571D01*
X161290946Y-105622892D01*
X161287265Y-105521389D01*
X161274465Y-105446506D01*
X161249908Y-105390362D01*
X161210959Y-105345074D01*
X161192972Y-105329961D01*
X161117829Y-105290988D01*
X161036303Y-105282062D01*
X160955101Y-105300652D01*
X160880928Y-105344228D01*
X160820489Y-105410260D01*
X160784247Y-105484163D01*
X160765238Y-105579284D01*
X160687291Y-105579284D01*
X160687811Y-105557988D01*
X160695232Y-105502055D01*
G37*
G36*
X166031514Y-105502055D02*
G01*
X166047539Y-105453533D01*
X166074445Y-105400056D01*
X166141531Y-105307136D01*
X166224271Y-105245207D01*
X166324324Y-105213064D01*
X166333787Y-105211652D01*
X166413131Y-105211530D01*
X166492540Y-105229246D01*
X166560103Y-105260939D01*
X166600928Y-105298211D01*
X166618930Y-105321659D01*
X166625990Y-105317633D01*
X166627228Y-105282430D01*
X166627228Y-105279195D01*
X166631135Y-105239863D01*
X166648553Y-105224641D01*
X166672640Y-105222628D01*
X166718052Y-105222628D01*
X166712136Y-105674632D01*
X166710191Y-105812988D01*
X166708138Y-105921018D01*
X166705556Y-106003502D01*
X166702025Y-106065221D01*
X166697124Y-106110955D01*
X166690433Y-106145484D01*
X166681532Y-106173588D01*
X166670000Y-106200047D01*
X166665038Y-106210264D01*
X166607398Y-106292744D01*
X166527396Y-106349840D01*
X166423310Y-106382574D01*
X166361582Y-106390133D01*
X166300743Y-106393379D01*
X166253568Y-106393835D01*
X166232273Y-106391794D01*
X166205679Y-106383115D01*
X166159759Y-106368889D01*
X166140117Y-106362931D01*
X166092082Y-106344796D01*
X166070138Y-106323923D01*
X166065515Y-106297900D01*
X166072543Y-106267055D01*
X166087457Y-106264555D01*
X166216812Y-106306550D01*
X166332639Y-106319906D01*
X166432595Y-106305767D01*
X166514336Y-106265277D01*
X166575520Y-106199580D01*
X166613804Y-106109820D01*
X166626843Y-106001107D01*
X166627228Y-105910685D01*
X166572977Y-105961364D01*
X166493324Y-106013225D01*
X166397302Y-106040103D01*
X166300633Y-106039508D01*
X166201208Y-106008889D01*
X166122762Y-105950779D01*
X166066194Y-105866483D01*
X166032404Y-105757307D01*
X166022209Y-105635137D01*
X166023573Y-105579284D01*
X166101520Y-105579284D01*
X166102250Y-105680918D01*
X166121136Y-105777888D01*
X166156595Y-105859017D01*
X166177656Y-105887513D01*
X166245871Y-105940886D01*
X166326752Y-105968009D01*
X166410747Y-105967669D01*
X166488301Y-105938651D01*
X166502834Y-105928831D01*
X166560207Y-105878203D01*
X166597657Y-105822023D01*
X166618685Y-105751682D01*
X166626792Y-105658571D01*
X166627228Y-105622892D01*
X166623547Y-105521389D01*
X166610747Y-105446506D01*
X166586190Y-105390362D01*
X166547241Y-105345074D01*
X166529254Y-105329961D01*
X166454111Y-105290988D01*
X166372585Y-105282062D01*
X166291383Y-105300652D01*
X166217210Y-105344228D01*
X166156771Y-105410260D01*
X166120529Y-105484163D01*
X166101520Y-105579284D01*
X166023573Y-105579284D01*
X166024093Y-105557988D01*
X166031514Y-105502055D01*
G37*
G36*
X162785811Y-105403048D02*
G01*
X162849932Y-105313723D01*
X162853255Y-105310355D01*
X162938138Y-105246344D01*
X163028638Y-105213489D01*
X163119530Y-105209555D01*
X163205589Y-105232306D01*
X163281589Y-105279506D01*
X163342307Y-105348920D01*
X163382516Y-105438314D01*
X163396988Y-105542981D01*
X163397374Y-105626360D01*
X162813619Y-105626360D01*
X162825391Y-105700963D01*
X162853157Y-105804268D01*
X162901033Y-105881273D01*
X162971667Y-105936135D01*
X162977105Y-105939031D01*
X163055375Y-105967555D01*
X163134807Y-105969187D01*
X163223166Y-105943387D01*
X163276635Y-105918218D01*
X163362266Y-105873791D01*
X163362266Y-105917821D01*
X163355506Y-105948364D01*
X163330004Y-105972887D01*
X163281958Y-105997376D01*
X163193574Y-106025769D01*
X163097689Y-106039411D01*
X163008602Y-106036986D01*
X162962780Y-106026746D01*
X162918207Y-106002615D01*
X162866488Y-105961970D01*
X162837522Y-105933535D01*
X162776858Y-105843208D01*
X162741558Y-105736910D01*
X162731420Y-105622727D01*
X162740076Y-105556146D01*
X162820557Y-105556146D01*
X163326282Y-105556146D01*
X163315437Y-105499097D01*
X163283941Y-105403106D01*
X163232855Y-105333579D01*
X163165373Y-105292540D01*
X163084691Y-105282013D01*
X163002357Y-105300710D01*
X162924523Y-105348714D01*
X162866481Y-105425340D01*
X162835838Y-105502862D01*
X162820557Y-105556146D01*
X162740076Y-105556146D01*
X162746239Y-105508745D01*
X162785811Y-105403048D01*
G37*
G36*
X163567651Y-105438439D02*
G01*
X163610084Y-105364860D01*
X163648551Y-105320230D01*
X163736416Y-105249402D01*
X163829844Y-105212799D01*
X163927398Y-105210704D01*
X164027641Y-105243405D01*
X164029971Y-105244570D01*
X164104050Y-105301214D01*
X164158820Y-105385354D01*
X164192628Y-105494141D01*
X164198995Y-105535744D01*
X164209727Y-105626360D01*
X163621103Y-105626360D01*
X163629662Y-105715435D01*
X163653850Y-105812634D01*
X163702612Y-105888384D01*
X163771145Y-105940455D01*
X163854642Y-105966617D01*
X163948301Y-105964639D01*
X164047315Y-105932291D01*
X164070663Y-105920140D01*
X164154389Y-105873345D01*
X164148895Y-105921000D01*
X164127675Y-105962834D01*
X164079529Y-105997786D01*
X164012303Y-106023821D01*
X163933841Y-106038910D01*
X163851987Y-106041019D01*
X163774588Y-106028118D01*
X163757222Y-106022443D01*
X163669784Y-105972694D01*
X163603298Y-105896351D01*
X163559236Y-105796028D01*
X163539070Y-105674339D01*
X163537900Y-105633100D01*
X163542783Y-105556146D01*
X163621764Y-105556146D01*
X163869417Y-105556146D01*
X163966983Y-105555953D01*
X164034836Y-105554816D01*
X164078368Y-105551902D01*
X164102972Y-105546375D01*
X164114042Y-105537399D01*
X164116970Y-105524141D01*
X164117070Y-105517804D01*
X164109557Y-105478877D01*
X164090661Y-105426274D01*
X164081186Y-105405338D01*
X164031746Y-105335650D01*
X163968681Y-105293945D01*
X163897715Y-105278909D01*
X163824574Y-105289231D01*
X163754982Y-105323600D01*
X163694665Y-105380704D01*
X163649346Y-105459231D01*
X163633663Y-105507874D01*
X163621764Y-105556146D01*
X163542783Y-105556146D01*
X163544794Y-105524447D01*
X163567651Y-105438439D01*
G37*
G36*
X159640912Y-104994432D02*
G01*
X159202073Y-104994432D01*
X159202073Y-105433271D01*
X159403939Y-105433271D01*
X159490673Y-105433643D01*
X159548241Y-105435449D01*
X159582583Y-105439721D01*
X159599640Y-105447492D01*
X159605349Y-105459795D01*
X159605805Y-105468378D01*
X159603664Y-105483462D01*
X159593282Y-105493474D01*
X159568718Y-105499447D01*
X159524035Y-105502413D01*
X159453291Y-105503406D01*
X159403939Y-105503485D01*
X159202073Y-105503485D01*
X159202073Y-105942324D01*
X159658465Y-105942324D01*
X159658465Y-106030092D01*
X159114305Y-106030092D01*
X159114305Y-104906664D01*
X159640912Y-104906664D01*
X159640912Y-104994432D01*
G37*
G36*
X160351215Y-105232743D02*
G01*
X160396259Y-105258123D01*
X160431432Y-105288653D01*
X160458038Y-105326828D01*
X160477170Y-105377586D01*
X160489919Y-105445867D01*
X160497378Y-105536608D01*
X160500637Y-105654749D01*
X160501036Y-105732037D01*
X160500852Y-105840688D01*
X160499914Y-105919138D01*
X160497643Y-105972293D01*
X160493463Y-106005059D01*
X160486796Y-106022341D01*
X160477063Y-106029046D01*
X160465929Y-106030092D01*
X160452264Y-106028325D01*
X160442695Y-106019495D01*
X160436495Y-105998311D01*
X160432936Y-105959478D01*
X160431293Y-105897705D01*
X160430836Y-105807699D01*
X160430822Y-105774562D01*
X160428234Y-105626629D01*
X160419523Y-105510178D01*
X160403266Y-105421898D01*
X160378041Y-105358481D01*
X160342426Y-105316615D01*
X160294998Y-105292993D01*
X160234336Y-105284303D01*
X160220052Y-105284066D01*
X160132751Y-105297635D01*
X160061781Y-105340110D01*
X160002789Y-105414140D01*
X160000760Y-105417552D01*
X159987027Y-105445079D01*
X159977025Y-105478015D01*
X159969988Y-105522650D01*
X159965147Y-105585272D01*
X159961733Y-105672169D01*
X159959722Y-105753623D01*
X159957224Y-105857865D01*
X159954436Y-105932069D01*
X159950635Y-105981299D01*
X159945096Y-106010623D01*
X159937097Y-106025105D01*
X159925913Y-106029812D01*
X159920227Y-106030092D01*
X159909492Y-106028537D01*
X159901327Y-106021063D01*
X159895379Y-106003460D01*
X159891300Y-105971514D01*
X159888739Y-105921015D01*
X159887346Y-105847750D01*
X159886770Y-105747507D01*
X159886662Y-105626360D01*
X159886770Y-105497335D01*
X159887339Y-105399196D01*
X159888736Y-105327723D01*
X159891328Y-105278695D01*
X159895482Y-105247893D01*
X159901565Y-105231095D01*
X159909943Y-105224081D01*
X159920985Y-105222630D01*
X159921769Y-105222628D01*
X159944660Y-105228459D01*
X159954831Y-105252075D01*
X159956876Y-105293453D01*
X159956876Y-105364278D01*
X160011140Y-105302475D01*
X160082326Y-105246306D01*
X160169321Y-105215203D01*
X160262245Y-105210302D01*
X160351215Y-105232743D01*
G37*
G36*
X161694678Y-106030092D02*
G01*
X161606911Y-106030092D01*
X161606911Y-105222628D01*
X161694678Y-105222628D01*
X161694678Y-106030092D01*
G37*
G36*
X162404982Y-105232743D02*
G01*
X162450025Y-105258123D01*
X162485198Y-105288653D01*
X162511804Y-105326828D01*
X162530936Y-105377586D01*
X162543685Y-105445867D01*
X162551144Y-105536608D01*
X162554404Y-105654749D01*
X162554803Y-105732037D01*
X162554618Y-105840688D01*
X162553680Y-105919138D01*
X162551410Y-105972293D01*
X162547230Y-106005059D01*
X162540562Y-106022341D01*
X162530829Y-106029046D01*
X162519696Y-106030092D01*
X162506030Y-106028325D01*
X162496461Y-106019495D01*
X162490261Y-105998311D01*
X162486703Y-105959478D01*
X162485059Y-105897705D01*
X162484603Y-105807699D01*
X162484589Y-105774562D01*
X162482001Y-105626629D01*
X162473289Y-105510178D01*
X162457032Y-105421898D01*
X162431807Y-105358481D01*
X162396192Y-105316615D01*
X162348765Y-105292993D01*
X162288103Y-105284303D01*
X162273819Y-105284066D01*
X162186518Y-105297635D01*
X162115548Y-105340110D01*
X162056556Y-105414140D01*
X162054526Y-105417552D01*
X162040793Y-105445079D01*
X162030792Y-105478015D01*
X162023754Y-105522650D01*
X162018913Y-105585272D01*
X162015500Y-105672169D01*
X162013489Y-105753623D01*
X162010990Y-105857865D01*
X162008202Y-105932069D01*
X162004401Y-105981299D01*
X161998863Y-106010623D01*
X161990863Y-106025105D01*
X161979679Y-106029812D01*
X161973993Y-106030092D01*
X161963259Y-106028537D01*
X161955093Y-106021063D01*
X161949146Y-106003460D01*
X161945067Y-105971514D01*
X161942505Y-105921015D01*
X161941112Y-105847750D01*
X161940537Y-105747507D01*
X161940428Y-105626360D01*
X161940536Y-105497335D01*
X161941105Y-105399196D01*
X161942502Y-105327723D01*
X161945094Y-105278695D01*
X161949248Y-105247893D01*
X161955331Y-105231095D01*
X161963710Y-105224081D01*
X161974751Y-105222630D01*
X161975535Y-105222628D01*
X161998426Y-105228459D01*
X162008597Y-105252075D01*
X162010642Y-105293453D01*
X162010642Y-105364278D01*
X162064907Y-105302475D01*
X162136092Y-105246306D01*
X162223088Y-105215203D01*
X162316011Y-105210302D01*
X162404982Y-105232743D01*
G37*
G36*
X164738569Y-105216769D02*
G01*
X164763201Y-105246880D01*
X164766551Y-105269008D01*
X164762828Y-105298650D01*
X164745308Y-105299584D01*
X164730415Y-105292291D01*
X164673064Y-105279577D01*
X164613316Y-105296529D01*
X164556759Y-105338628D01*
X164508983Y-105401353D01*
X164475578Y-105480184D01*
X164469892Y-105502965D01*
X164462234Y-105556710D01*
X164456013Y-105634697D01*
X164451910Y-105726072D01*
X164450587Y-105811536D01*
X164450265Y-105902387D01*
X164448687Y-105963846D01*
X164444935Y-106001628D01*
X164438091Y-106021446D01*
X164427238Y-106029015D01*
X164415480Y-106030092D01*
X164404260Y-106028848D01*
X164395727Y-106022304D01*
X164389512Y-106006239D01*
X164385248Y-105976432D01*
X164382570Y-105928662D01*
X164381109Y-105858710D01*
X164380499Y-105762355D01*
X164380373Y-105635376D01*
X164380373Y-105626360D01*
X164380481Y-105497335D01*
X164381050Y-105399196D01*
X164382447Y-105327723D01*
X164385039Y-105278695D01*
X164389193Y-105247893D01*
X164395276Y-105231095D01*
X164403654Y-105224081D01*
X164414696Y-105222630D01*
X164415480Y-105222628D01*
X164437926Y-105228149D01*
X164448239Y-105250760D01*
X164450703Y-105297231D01*
X164450818Y-105371833D01*
X164485475Y-105319173D01*
X164529963Y-105269150D01*
X164584554Y-105232643D01*
X164642209Y-105210906D01*
X164695893Y-105205196D01*
X164738569Y-105216769D01*
G37*
G36*
X164953306Y-105223872D02*
G01*
X164961840Y-105230416D01*
X164968055Y-105246481D01*
X164972319Y-105276289D01*
X164974997Y-105324058D01*
X164976458Y-105394010D01*
X164977068Y-105490365D01*
X164977194Y-105617344D01*
X164977194Y-105626360D01*
X164977086Y-105755386D01*
X164976517Y-105853525D01*
X164975120Y-105924998D01*
X164972528Y-105974025D01*
X164968374Y-106004827D01*
X164962291Y-106021625D01*
X164953912Y-106028639D01*
X164942871Y-106030090D01*
X164942087Y-106030092D01*
X164930867Y-106028848D01*
X164922333Y-106022304D01*
X164916118Y-106006239D01*
X164911855Y-105976432D01*
X164909177Y-105928662D01*
X164907716Y-105858710D01*
X164907106Y-105762355D01*
X164906980Y-105635376D01*
X164906980Y-105626360D01*
X164907088Y-105497335D01*
X164907657Y-105399196D01*
X164909054Y-105327723D01*
X164911646Y-105278695D01*
X164915800Y-105247893D01*
X164921882Y-105231095D01*
X164930261Y-105224081D01*
X164941303Y-105222630D01*
X164942087Y-105222628D01*
X164953306Y-105223872D01*
G37*
G36*
X165689202Y-105230786D02*
G01*
X165731585Y-105254724D01*
X165769611Y-105286260D01*
X165798347Y-105320187D01*
X165819206Y-105361940D01*
X165833601Y-105416953D01*
X165842946Y-105490663D01*
X165848653Y-105588502D01*
X165852137Y-105715907D01*
X165852188Y-105718516D01*
X165858282Y-106030092D01*
X165767104Y-106030092D01*
X165767104Y-105738723D01*
X165765800Y-105608193D01*
X165761052Y-105507971D01*
X165751604Y-105433327D01*
X165736201Y-105379529D01*
X165713588Y-105341846D01*
X165682509Y-105315548D01*
X165650545Y-105299460D01*
X165593634Y-105280192D01*
X165545865Y-105278649D01*
X165491826Y-105295714D01*
X165459914Y-105310398D01*
X165386514Y-105363768D01*
X165349050Y-105413721D01*
X165334327Y-105442789D01*
X165323917Y-105473431D01*
X165317087Y-105512210D01*
X165313100Y-105565691D01*
X165311221Y-105640439D01*
X165310715Y-105743016D01*
X165310712Y-105756013D01*
X165310712Y-106030092D01*
X165222944Y-106030092D01*
X165222944Y-105222628D01*
X165266828Y-105222628D01*
X165296743Y-105227359D01*
X165308809Y-105248481D01*
X165310712Y-105282715D01*
X165310712Y-105342803D01*
X165360598Y-105292916D01*
X165431457Y-105243492D01*
X165516948Y-105215931D01*
X165606415Y-105211330D01*
X165689202Y-105230786D01*
G37*
G36*
X157614790Y-104133100D02*
G01*
X157641310Y-104157956D01*
X157668189Y-104203325D01*
X157696910Y-104272430D01*
X157728959Y-104368498D01*
X157765819Y-104494751D01*
X157778931Y-104542269D01*
X157816171Y-104673503D01*
X157848577Y-104774679D01*
X157878160Y-104850174D01*
X157906933Y-104904363D01*
X157936911Y-104941622D01*
X157970104Y-104966326D01*
X157975299Y-104969123D01*
X158020708Y-104986812D01*
X158060341Y-104983491D01*
X158081119Y-104975854D01*
X158120167Y-104951142D01*
X158156187Y-104908654D01*
X158190974Y-104844714D01*
X158226324Y-104755647D01*
X158264031Y-104637776D01*
X158288866Y-104550490D01*
X158328679Y-104409444D01*
X158361658Y-104300950D01*
X158388425Y-104223252D01*
X158409602Y-104174595D01*
X158425812Y-104153224D01*
X158430168Y-104151861D01*
X158444512Y-104168419D01*
X158457691Y-104214115D01*
X158468855Y-104282981D01*
X158477155Y-104369048D01*
X158481742Y-104466349D01*
X158482377Y-104518542D01*
X158465818Y-104735702D01*
X158417491Y-104941475D01*
X158339420Y-105133249D01*
X158233627Y-105308411D01*
X158102137Y-105464348D01*
X157946974Y-105598448D01*
X157770161Y-105708098D01*
X157573723Y-105790685D01*
X157474628Y-105819552D01*
X157342156Y-105843092D01*
X157191338Y-105853862D01*
X157035894Y-105851882D01*
X156889547Y-105837168D01*
X156797235Y-105818630D01*
X156593069Y-105748654D01*
X156407533Y-105650392D01*
X156242670Y-105526497D01*
X156100522Y-105379624D01*
X155983133Y-105212428D01*
X155892546Y-105027562D01*
X155830803Y-104827683D01*
X155799947Y-104615443D01*
X155796683Y-104518542D01*
X155799040Y-104417802D01*
X155805546Y-104325241D01*
X155815352Y-104246829D01*
X155827606Y-104188534D01*
X155841460Y-104156323D01*
X155848892Y-104151861D01*
X155863761Y-104164891D01*
X155883487Y-104205096D01*
X155908663Y-104274152D01*
X155939885Y-104373733D01*
X155977748Y-104505513D01*
X155989023Y-104546235D01*
X156026389Y-104676853D01*
X156058914Y-104777435D01*
X156088630Y-104852372D01*
X156117572Y-104906056D01*
X156147773Y-104942876D01*
X156181266Y-104967225D01*
X156184836Y-104969123D01*
X156230245Y-104986812D01*
X156269878Y-104983491D01*
X156290656Y-104975854D01*
X156329532Y-104951316D01*
X156365347Y-104909214D01*
X156399889Y-104845866D01*
X156434942Y-104757590D01*
X156472295Y-104640706D01*
X156498958Y-104546525D01*
X156537806Y-104409300D01*
X156571293Y-104303277D01*
X156600899Y-104225224D01*
X156628108Y-104171907D01*
X156654400Y-104140096D01*
X156681256Y-104126557D01*
X156691914Y-104125531D01*
X156719559Y-104133100D01*
X156746079Y-104157956D01*
X156772957Y-104203325D01*
X156801679Y-104272430D01*
X156833727Y-104368498D01*
X156870587Y-104494751D01*
X156883699Y-104542269D01*
X156920940Y-104673503D01*
X156953345Y-104774679D01*
X156982928Y-104850174D01*
X157011702Y-104904363D01*
X157041679Y-104941622D01*
X157074873Y-104966326D01*
X157080067Y-104969123D01*
X157125477Y-104986812D01*
X157165109Y-104983491D01*
X157185887Y-104975854D01*
X157224763Y-104951316D01*
X157260579Y-104909214D01*
X157295120Y-104845866D01*
X157330174Y-104757590D01*
X157367526Y-104640706D01*
X157394190Y-104546525D01*
X157433038Y-104409300D01*
X157466524Y-104303277D01*
X157496131Y-104225224D01*
X157523340Y-104171907D01*
X157549631Y-104140096D01*
X157576488Y-104126557D01*
X157587146Y-104125531D01*
X157614790Y-104133100D01*
G37*
G36*
X161669484Y-104915947D02*
G01*
X161699429Y-104942102D01*
X161706320Y-104983348D01*
X161704076Y-104992475D01*
X161679750Y-105020046D01*
X161640599Y-105031023D01*
X161604619Y-105020973D01*
X161601059Y-105017837D01*
X161587900Y-104983622D01*
X161596352Y-104943858D01*
X161621985Y-104916541D01*
X161626421Y-104914820D01*
X161669484Y-104915947D01*
G37*
G36*
X164958704Y-104915144D02*
G01*
X164988636Y-104938385D01*
X164994777Y-104972798D01*
X164979309Y-105005941D01*
X164944418Y-105025372D01*
X164939205Y-105026171D01*
X164900327Y-105022307D01*
X164880695Y-104994557D01*
X164880352Y-104993495D01*
X164881045Y-104949551D01*
X164907070Y-104919464D01*
X164948923Y-104912739D01*
X164958704Y-104915144D01*
G37*
G36*
X157360168Y-103185163D02*
G01*
X157568539Y-103233108D01*
X157762271Y-103311254D01*
X157938992Y-103418164D01*
X158096330Y-103552396D01*
X158231911Y-103712510D01*
X158343364Y-103897066D01*
X158345205Y-103900744D01*
X158416932Y-104044581D01*
X158370999Y-104099169D01*
X158340596Y-104149255D01*
X158305352Y-104232348D01*
X158265852Y-104346769D01*
X158222683Y-104490840D01*
X158182491Y-104639402D01*
X158146365Y-104755713D01*
X158107992Y-104837049D01*
X158068168Y-104883410D01*
X158027687Y-104894796D01*
X157987344Y-104871207D01*
X157947936Y-104812642D01*
X157910257Y-104719103D01*
X157887032Y-104639402D01*
X157844125Y-104479664D01*
X157806221Y-104351175D01*
X157772104Y-104250632D01*
X157740558Y-104174730D01*
X157710369Y-104120168D01*
X157683699Y-104086922D01*
X157629544Y-104043508D01*
X157581080Y-104031964D01*
X157530660Y-104051686D01*
X157502859Y-104072635D01*
X157470852Y-104106511D01*
X157440794Y-104154520D01*
X157410943Y-104220953D01*
X157379558Y-104310103D01*
X157344897Y-104426263D01*
X157315599Y-104534085D01*
X157283432Y-104651731D01*
X157256368Y-104740012D01*
X157232424Y-104803947D01*
X157209622Y-104848558D01*
X157185981Y-104878865D01*
X157176018Y-104887964D01*
X157137302Y-104902497D01*
X157098551Y-104882846D01*
X157060438Y-104829928D01*
X157023636Y-104744660D01*
X156990966Y-104636308D01*
X156948028Y-104476495D01*
X156910011Y-104347990D01*
X156875712Y-104247530D01*
X156843929Y-104171854D01*
X156813459Y-104117699D01*
X156788468Y-104086922D01*
X156734312Y-104043508D01*
X156685849Y-104031964D01*
X156635429Y-104051686D01*
X156607627Y-104072635D01*
X156575660Y-104106456D01*
X156545642Y-104154367D01*
X156515831Y-104220660D01*
X156484487Y-104309627D01*
X156449868Y-104425560D01*
X156420210Y-104534676D01*
X156391120Y-104642587D01*
X156367797Y-104722397D01*
X156347959Y-104780179D01*
X156329324Y-104822004D01*
X156309611Y-104853945D01*
X156291983Y-104875945D01*
X156255190Y-104903497D01*
X156219272Y-104896814D01*
X156195028Y-104875303D01*
X156164078Y-104830154D01*
X156134175Y-104762554D01*
X156103591Y-104668024D01*
X156078098Y-104572508D01*
X156037221Y-104420411D01*
X155997036Y-104292383D01*
X155958646Y-104191489D01*
X155923160Y-104120796D01*
X155906753Y-104097615D01*
X155862128Y-104044581D01*
X155933855Y-103900744D01*
X156044834Y-103715744D01*
X156179985Y-103555159D01*
X156336937Y-103420429D01*
X156513318Y-103312995D01*
X156706753Y-103234297D01*
X156914873Y-103185774D01*
X157135303Y-103168868D01*
X157139530Y-103168862D01*
X157360168Y-103185163D01*
G37*
G36*
X159078253Y-103422895D02*
G01*
X159103207Y-103323059D01*
X159113495Y-103296528D01*
X159164983Y-103210057D01*
X159238197Y-103127809D01*
X159321844Y-103061213D01*
X159374280Y-103032669D01*
X159450057Y-103011833D01*
X159545172Y-103002784D01*
X159645964Y-103005322D01*
X159738774Y-103019246D01*
X159799091Y-103038904D01*
X159905629Y-103107067D01*
X159992412Y-103203468D01*
X160042692Y-103291630D01*
X160064278Y-103343078D01*
X160077693Y-103391564D01*
X160084774Y-103448227D01*
X160087355Y-103524207D01*
X160087539Y-103563817D01*
X160086381Y-103649975D01*
X160081584Y-103712523D01*
X160071161Y-103762919D01*
X160053126Y-103812621D01*
X160038844Y-103844674D01*
X160002353Y-103912283D01*
X159958933Y-103976973D01*
X159928820Y-104013001D01*
X159867491Y-104076007D01*
X159991174Y-104170036D01*
X160046174Y-104212408D01*
X160088602Y-104246162D01*
X160112126Y-104266209D01*
X160114858Y-104269401D01*
X160099294Y-104272784D01*
X160060548Y-104274624D01*
X160046660Y-104274736D01*
X160001592Y-104269704D01*
X159957953Y-104251128D01*
X159904841Y-104213787D01*
X159883647Y-104196678D01*
X159788831Y-104118620D01*
X159672942Y-104138471D01*
X159535962Y-104146281D01*
X159409127Y-104123153D01*
X159296328Y-104071585D01*
X159201457Y-103994073D01*
X159128407Y-103893113D01*
X159081070Y-103771203D01*
X159077589Y-103756573D01*
X159064349Y-103653691D01*
X159064824Y-103559777D01*
X159151796Y-103559777D01*
X159152983Y-103624435D01*
X159174076Y-103756453D01*
X159219687Y-103869128D01*
X159287732Y-103959215D01*
X159376132Y-104023469D01*
X159421492Y-104042914D01*
X159493422Y-104057809D01*
X159581985Y-104061846D01*
X159670384Y-104054890D01*
X159716757Y-104045274D01*
X159810073Y-104001851D01*
X159887398Y-103930120D01*
X159946241Y-103834178D01*
X159984113Y-103718124D01*
X159998524Y-103586056D01*
X159998572Y-103581370D01*
X159993317Y-103459206D01*
X159974025Y-103362100D01*
X159938289Y-103281989D01*
X159890106Y-103217784D01*
X159802906Y-103141788D01*
X159704342Y-103097240D01*
X159588552Y-103081560D01*
X159580628Y-103081480D01*
X159460958Y-103096571D01*
X159357798Y-103141028D01*
X159273224Y-103212214D01*
X159209315Y-103307493D01*
X159168146Y-103424226D01*
X159151796Y-103559777D01*
X159064824Y-103559777D01*
X159064935Y-103537786D01*
X159078253Y-103422895D01*
G37*
G36*
X160360608Y-103607346D02*
G01*
X160361547Y-103726047D01*
X160364667Y-103815420D01*
X160370422Y-103881202D01*
X160379268Y-103929131D01*
X160388303Y-103957064D01*
X160429787Y-104021572D01*
X160487758Y-104060730D01*
X160555561Y-104075591D01*
X160626542Y-104067204D01*
X160694047Y-104036622D01*
X160751422Y-103984895D01*
X160792011Y-103913076D01*
X160798724Y-103892221D01*
X160805357Y-103850870D01*
X160810911Y-103782995D01*
X160814892Y-103697172D01*
X160816805Y-103601979D01*
X160816903Y-103576982D01*
X160817194Y-103478735D01*
X160818479Y-103410245D01*
X160821511Y-103366165D01*
X160827042Y-103341146D01*
X160835826Y-103329841D01*
X160848615Y-103326900D01*
X160852108Y-103326844D01*
X160863327Y-103328087D01*
X160871861Y-103334632D01*
X160878076Y-103350697D01*
X160882339Y-103380504D01*
X160885018Y-103428273D01*
X160886478Y-103498226D01*
X160887088Y-103594581D01*
X160887214Y-103721560D01*
X160887215Y-103730576D01*
X160887107Y-103859601D01*
X160886537Y-103957740D01*
X160885140Y-104029213D01*
X160882549Y-104078241D01*
X160878395Y-104109043D01*
X160872312Y-104125841D01*
X160863933Y-104132855D01*
X160852892Y-104134305D01*
X160852108Y-104134308D01*
X160828529Y-104127948D01*
X160818552Y-104102674D01*
X160817000Y-104068661D01*
X160817000Y-104003015D01*
X160770601Y-104053054D01*
X160690916Y-104115737D01*
X160599042Y-104145642D01*
X160496035Y-104142504D01*
X160454219Y-104132600D01*
X160387491Y-104095824D01*
X160333518Y-104031001D01*
X160297058Y-103944268D01*
X160291958Y-103923313D01*
X160284927Y-103872655D01*
X160279060Y-103796331D01*
X160274883Y-103703778D01*
X160272922Y-103604433D01*
X160272840Y-103580506D01*
X160272840Y-103326844D01*
X160360608Y-103326844D01*
X160360608Y-103607346D01*
G37*
G36*
X161128715Y-103782695D02*
G01*
X161189608Y-103723374D01*
X161193369Y-103720862D01*
X161230266Y-103704769D01*
X161290463Y-103686782D01*
X161362539Y-103670194D01*
X161381825Y-103666515D01*
X161454659Y-103653193D01*
X161518388Y-103641419D01*
X161561817Y-103633264D01*
X161568667Y-103631941D01*
X161595806Y-103621984D01*
X161602476Y-103599525D01*
X161597272Y-103567557D01*
X161571578Y-103485233D01*
X161533869Y-103431143D01*
X161479604Y-103399220D01*
X161468631Y-103395628D01*
X161382401Y-103387580D01*
X161290757Y-103411394D01*
X161218023Y-103452155D01*
X161177634Y-103477951D01*
X161157586Y-103480369D01*
X161150962Y-103458160D01*
X161150518Y-103439955D01*
X161166624Y-103400673D01*
X161209679Y-103367300D01*
X161271785Y-103341460D01*
X161345046Y-103324779D01*
X161421565Y-103318882D01*
X161493446Y-103325395D01*
X161552792Y-103345943D01*
X161566073Y-103354422D01*
X161603004Y-103384861D01*
X161630815Y-103418294D01*
X161650764Y-103460029D01*
X161664109Y-103515371D01*
X161672107Y-103589626D01*
X161676016Y-103688101D01*
X161677095Y-103816102D01*
X161677098Y-103822732D01*
X161676937Y-103934168D01*
X161676072Y-104015297D01*
X161673964Y-104070918D01*
X161670070Y-104105830D01*
X161663852Y-104124832D01*
X161654768Y-104132725D01*
X161642278Y-104134307D01*
X161642018Y-104134308D01*
X161619563Y-104128774D01*
X161609225Y-104106126D01*
X161606716Y-104059705D01*
X161606521Y-103985102D01*
X161563151Y-104040118D01*
X161505435Y-104091324D01*
X161429094Y-104130706D01*
X161350375Y-104150501D01*
X161330087Y-104151476D01*
X161283687Y-104143894D01*
X161226825Y-104125470D01*
X161210624Y-104118595D01*
X161143819Y-104071367D01*
X161101898Y-104006605D01*
X161085188Y-103931868D01*
X161088404Y-103903766D01*
X161168072Y-103903766D01*
X161181944Y-103977866D01*
X161219954Y-104036433D01*
X161262106Y-104065037D01*
X161316546Y-104074449D01*
X161384626Y-104068498D01*
X161449646Y-104049485D01*
X161476186Y-104035542D01*
X161534956Y-103977774D01*
X161578197Y-103895613D01*
X161601222Y-103798057D01*
X161601564Y-103794861D01*
X161611300Y-103700529D01*
X161455512Y-103723950D01*
X161385054Y-103734396D01*
X161328320Y-103742533D01*
X161293869Y-103747147D01*
X161287905Y-103747750D01*
X161268156Y-103758315D01*
X161233510Y-103784162D01*
X161222079Y-103793574D01*
X161183436Y-103835279D01*
X161168995Y-103881842D01*
X161168072Y-103903766D01*
X161088404Y-103903766D01*
X161094018Y-103854713D01*
X161128715Y-103782695D01*
G37*
G36*
X162618576Y-103114784D02*
G01*
X162623737Y-103140549D01*
X162624991Y-103192534D01*
X162625017Y-103213311D01*
X162625017Y-103326844D01*
X162730338Y-103326844D01*
X162789162Y-103328125D01*
X162820948Y-103333752D01*
X162833723Y-103346401D01*
X162835660Y-103361951D01*
X162831817Y-103381559D01*
X162814935Y-103392154D01*
X162776987Y-103396413D01*
X162730338Y-103397058D01*
X162625017Y-103397058D01*
X162625017Y-103704245D01*
X162625292Y-103815876D01*
X162626487Y-103897821D01*
X162629158Y-103955500D01*
X162633862Y-103994335D01*
X162641153Y-104019744D01*
X162651588Y-104037148D01*
X162660124Y-104046540D01*
X162698251Y-104074819D01*
X162739839Y-104079233D01*
X162790633Y-104064528D01*
X162823154Y-104055678D01*
X162834644Y-104067100D01*
X162835660Y-104082516D01*
X162820337Y-104117799D01*
X162780075Y-104140343D01*
X162723428Y-104147919D01*
X162658954Y-104138298D01*
X162642361Y-104132852D01*
X162610760Y-104118505D01*
X162586805Y-104098676D01*
X162569328Y-104068621D01*
X162557164Y-104023596D01*
X162549147Y-103958856D01*
X162544110Y-103869656D01*
X162540887Y-103751253D01*
X162540243Y-103717411D01*
X162534461Y-103397058D01*
X162465641Y-103397058D01*
X162420263Y-103393985D01*
X162400458Y-103381626D01*
X162396821Y-103361951D01*
X162402793Y-103338870D01*
X162426859Y-103328749D01*
X162466159Y-103326844D01*
X162535497Y-103326844D01*
X162540762Y-103227843D01*
X162545940Y-103169269D01*
X162556085Y-103136146D01*
X162574994Y-103118839D01*
X162585521Y-103114311D01*
X162606755Y-103108338D01*
X162618576Y-103114784D01*
G37*
G36*
X162953276Y-103542655D02*
G01*
X162995709Y-103469076D01*
X163034177Y-103424445D01*
X163122042Y-103353618D01*
X163215470Y-103317014D01*
X163313024Y-103314920D01*
X163413267Y-103347620D01*
X163415596Y-103348786D01*
X163489675Y-103405430D01*
X163544446Y-103489570D01*
X163578253Y-103598357D01*
X163584621Y-103639960D01*
X163595353Y-103730576D01*
X163006729Y-103730576D01*
X163015288Y-103819651D01*
X163039475Y-103916850D01*
X163088238Y-103992600D01*
X163156770Y-104044671D01*
X163240268Y-104070833D01*
X163333926Y-104068854D01*
X163432940Y-104036506D01*
X163456289Y-104024355D01*
X163540015Y-103977560D01*
X163534520Y-104025215D01*
X163513300Y-104067050D01*
X163465154Y-104102001D01*
X163397928Y-104128037D01*
X163319466Y-104143125D01*
X163237613Y-104145235D01*
X163160213Y-104132333D01*
X163142847Y-104126659D01*
X163055409Y-104076910D01*
X162988923Y-104000567D01*
X162944861Y-103900244D01*
X162924695Y-103778555D01*
X162923525Y-103737316D01*
X162928408Y-103660361D01*
X163007389Y-103660361D01*
X163255042Y-103660361D01*
X163352609Y-103660168D01*
X163420461Y-103659032D01*
X163463993Y-103656118D01*
X163488597Y-103650590D01*
X163499667Y-103641615D01*
X163502595Y-103628357D01*
X163502695Y-103622020D01*
X163495182Y-103583093D01*
X163476286Y-103530490D01*
X163466812Y-103509553D01*
X163417372Y-103439866D01*
X163354306Y-103398160D01*
X163283341Y-103383124D01*
X163210199Y-103393447D01*
X163140608Y-103427816D01*
X163080290Y-103484920D01*
X163034972Y-103563447D01*
X163019289Y-103612089D01*
X163007389Y-103660361D01*
X162928408Y-103660361D01*
X162930419Y-103628662D01*
X162953276Y-103542655D01*
G37*
G36*
X165583753Y-103846325D02*
G01*
X165614935Y-103780674D01*
X165670507Y-103729917D01*
X165753419Y-103691722D01*
X165866618Y-103663756D01*
X165920700Y-103654960D01*
X166074291Y-103632721D01*
X166072687Y-103557568D01*
X166056953Y-103482241D01*
X166016620Y-103427686D01*
X165956544Y-103395571D01*
X165881578Y-103387560D01*
X165796576Y-103405320D01*
X165725766Y-103438522D01*
X165644229Y-103486306D01*
X165644229Y-103434357D01*
X165648280Y-103401579D01*
X165666077Y-103379239D01*
X165706086Y-103358797D01*
X165727609Y-103350238D01*
X165810087Y-103327878D01*
X165898069Y-103319315D01*
X165979802Y-103324575D01*
X166043533Y-103343683D01*
X166053624Y-103349520D01*
X166088983Y-103376039D01*
X166115896Y-103406569D01*
X166135613Y-103446196D01*
X166149385Y-103500001D01*
X166158462Y-103573071D01*
X166164094Y-103670489D01*
X166167532Y-103797339D01*
X166167842Y-103813955D01*
X166173624Y-104134308D01*
X166128346Y-104134308D01*
X166098366Y-104130268D01*
X166085650Y-104111340D01*
X166083068Y-104069427D01*
X166083068Y-104004546D01*
X166024881Y-104060943D01*
X165942144Y-104119571D01*
X165850071Y-104147562D01*
X165755428Y-104143526D01*
X165704178Y-104126910D01*
X165632249Y-104078419D01*
X165588059Y-104009440D01*
X165575342Y-103936787D01*
X165650321Y-103936787D01*
X165673157Y-103996198D01*
X165717590Y-104041488D01*
X165777232Y-104069158D01*
X165845693Y-104075711D01*
X165916585Y-104057649D01*
X165958697Y-104032748D01*
X166024103Y-103970530D01*
X166062578Y-103897536D01*
X166079465Y-103803608D01*
X166079499Y-103803144D01*
X166086981Y-103699704D01*
X165932024Y-103724518D01*
X165823592Y-103745990D01*
X165745647Y-103771873D01*
X165693630Y-103804514D01*
X165662981Y-103846256D01*
X165655473Y-103866752D01*
X165650321Y-103936787D01*
X165575342Y-103936787D01*
X165574015Y-103929203D01*
X165583753Y-103846325D01*
G37*
G36*
X167095916Y-103542655D02*
G01*
X167138349Y-103469076D01*
X167176817Y-103424445D01*
X167264682Y-103353618D01*
X167358110Y-103317014D01*
X167455663Y-103314920D01*
X167555907Y-103347620D01*
X167558236Y-103348786D01*
X167632315Y-103405430D01*
X167687085Y-103489570D01*
X167720893Y-103598357D01*
X167727261Y-103639960D01*
X167737993Y-103730576D01*
X167149369Y-103730576D01*
X167157928Y-103819651D01*
X167182115Y-103916850D01*
X167230878Y-103992600D01*
X167299410Y-104044671D01*
X167382908Y-104070833D01*
X167476566Y-104068854D01*
X167575580Y-104036506D01*
X167598929Y-104024355D01*
X167682655Y-103977560D01*
X167677160Y-104025215D01*
X167655940Y-104067050D01*
X167607794Y-104102001D01*
X167540568Y-104128037D01*
X167462106Y-104143125D01*
X167380253Y-104145235D01*
X167302853Y-104132333D01*
X167285487Y-104126659D01*
X167198049Y-104076910D01*
X167131563Y-104000567D01*
X167087501Y-103900244D01*
X167067335Y-103778555D01*
X167066165Y-103737316D01*
X167071048Y-103660361D01*
X167150029Y-103660361D01*
X167397682Y-103660361D01*
X167495249Y-103660168D01*
X167563101Y-103659032D01*
X167606633Y-103656118D01*
X167631237Y-103650590D01*
X167642307Y-103641615D01*
X167645235Y-103628357D01*
X167645335Y-103622020D01*
X167637822Y-103583093D01*
X167618926Y-103530490D01*
X167609452Y-103509553D01*
X167560012Y-103439866D01*
X167496946Y-103398160D01*
X167425980Y-103383124D01*
X167352839Y-103393447D01*
X167283248Y-103427816D01*
X167222930Y-103484920D01*
X167177612Y-103563447D01*
X167161929Y-103612089D01*
X167150029Y-103660361D01*
X167071048Y-103660361D01*
X167073059Y-103628662D01*
X167095916Y-103542655D01*
G37*
G36*
X162247316Y-103316775D02*
G01*
X162280736Y-103336736D01*
X162291499Y-103369537D01*
X162288420Y-103397625D01*
X162272298Y-103402667D01*
X162241161Y-103392561D01*
X162182223Y-103387844D01*
X162122175Y-103413591D01*
X162067517Y-103465995D01*
X162038685Y-103511156D01*
X162024292Y-103542612D01*
X162013860Y-103577889D01*
X162006586Y-103623557D01*
X162001665Y-103686188D01*
X161998294Y-103772350D01*
X161996269Y-103857839D01*
X161990673Y-104134308D01*
X161905321Y-104134308D01*
X161905321Y-103326844D01*
X161949205Y-103326844D01*
X161978650Y-103331301D01*
X161990877Y-103351513D01*
X161993089Y-103389628D01*
X161993089Y-103452412D01*
X162037547Y-103399577D01*
X162086164Y-103356282D01*
X162142410Y-103327449D01*
X162198668Y-103313980D01*
X162247316Y-103316775D01*
G37*
G36*
X164107993Y-103316775D02*
G01*
X164141413Y-103336736D01*
X164152177Y-103369537D01*
X164149097Y-103397625D01*
X164132975Y-103402667D01*
X164101838Y-103392561D01*
X164042901Y-103387844D01*
X163982852Y-103413591D01*
X163928194Y-103465995D01*
X163899362Y-103511156D01*
X163884969Y-103542612D01*
X163874538Y-103577889D01*
X163867263Y-103623557D01*
X163862343Y-103686188D01*
X163858971Y-103772350D01*
X163856947Y-103857839D01*
X163851350Y-104134308D01*
X163765998Y-104134308D01*
X163765998Y-103326844D01*
X163809882Y-103326844D01*
X163839328Y-103331301D01*
X163851554Y-103351513D01*
X163853766Y-103389628D01*
X163853766Y-103452412D01*
X163898224Y-103399577D01*
X163946841Y-103356282D01*
X164003088Y-103327449D01*
X164059345Y-103313980D01*
X164107993Y-103316775D01*
G37*
G36*
X165543580Y-103014516D02*
G01*
X165550971Y-103031059D01*
X165546010Y-103050375D01*
X165537972Y-103076670D01*
X165521368Y-103132158D01*
X165497528Y-103212348D01*
X165467784Y-103312751D01*
X165433468Y-103428877D01*
X165395910Y-103556236D01*
X165380754Y-103607701D01*
X165337097Y-103755217D01*
X165301759Y-103872384D01*
X165273499Y-103962635D01*
X165251078Y-104029401D01*
X165233255Y-104076114D01*
X165218790Y-104106206D01*
X165206442Y-104123110D01*
X165194971Y-104130257D01*
X165191644Y-104130993D01*
X165163311Y-104126605D01*
X165144732Y-104097699D01*
X165138525Y-104078332D01*
X165110317Y-103979982D01*
X165078665Y-103871842D01*
X165045147Y-103759073D01*
X165011343Y-103646833D01*
X164978831Y-103540281D01*
X164949191Y-103444577D01*
X164924000Y-103364879D01*
X164904839Y-103306347D01*
X164893285Y-103274140D01*
X164891055Y-103269676D01*
X164882733Y-103282081D01*
X164865625Y-103323836D01*
X164841222Y-103390724D01*
X164811014Y-103478525D01*
X164776492Y-103583021D01*
X164740608Y-103695350D01*
X164697172Y-103832192D01*
X164662313Y-103938711D01*
X164634733Y-104018274D01*
X164613135Y-104074248D01*
X164596223Y-104110000D01*
X164582699Y-104128897D01*
X164571493Y-104134308D01*
X164540892Y-104127817D01*
X164532611Y-104121142D01*
X164525901Y-104101823D01*
X164510711Y-104053828D01*
X164488542Y-103982141D01*
X164460893Y-103891745D01*
X164429263Y-103787625D01*
X164395153Y-103674763D01*
X164360060Y-103558144D01*
X164325486Y-103442750D01*
X164292929Y-103333567D01*
X164263889Y-103235576D01*
X164239865Y-103153762D01*
X164222357Y-103093108D01*
X164212865Y-103058598D01*
X164212657Y-103057769D01*
X164207001Y-103023064D01*
X164220122Y-103012106D01*
X164249192Y-103013885D01*
X164263734Y-103016434D01*
X164276370Y-103022789D01*
X164288534Y-103036674D01*
X164301658Y-103061812D01*
X164317177Y-103101925D01*
X164336522Y-103160739D01*
X164361129Y-103241975D01*
X164392429Y-103349358D01*
X164431856Y-103486610D01*
X164433860Y-103493603D01*
X164469167Y-103614662D01*
X164501801Y-103722474D01*
X164530466Y-103813074D01*
X164553863Y-103882497D01*
X164570694Y-103926776D01*
X164579661Y-103941945D01*
X164580365Y-103941218D01*
X164588234Y-103917935D01*
X164604940Y-103865789D01*
X164629008Y-103789480D01*
X164658964Y-103693702D01*
X164693332Y-103583154D01*
X164729176Y-103467272D01*
X164774413Y-103323428D01*
X164813556Y-103204631D01*
X164845888Y-103112878D01*
X164870693Y-103050167D01*
X164887253Y-103018496D01*
X164891526Y-103014940D01*
X164902302Y-103023963D01*
X164917772Y-103055872D01*
X164938678Y-103112863D01*
X164965761Y-103197134D01*
X164999764Y-103310881D01*
X165041428Y-103456299D01*
X165045668Y-103471333D01*
X165080242Y-103593089D01*
X165112183Y-103703748D01*
X165140148Y-103798807D01*
X165162797Y-103873764D01*
X165178788Y-103924117D01*
X165186781Y-103945362D01*
X165186939Y-103945572D01*
X165194330Y-103932826D01*
X165209567Y-103890315D01*
X165231374Y-103822173D01*
X165258476Y-103732535D01*
X165289596Y-103625537D01*
X165323459Y-103505313D01*
X165329107Y-103484903D01*
X165459917Y-103011104D01*
X165509372Y-103010992D01*
X165543580Y-103014516D01*
G37*
G36*
X166969099Y-103331886D02*
G01*
X166978300Y-103340549D01*
X166972028Y-103360057D01*
X166954422Y-103407426D01*
X166927299Y-103477964D01*
X166892472Y-103566981D01*
X166851759Y-103669785D01*
X166823754Y-103739892D01*
X166772642Y-103866204D01*
X166732109Y-103963155D01*
X166700440Y-104034268D01*
X166675917Y-104083067D01*
X166656826Y-104113075D01*
X166641451Y-104127815D01*
X166633390Y-104130783D01*
X166620777Y-104129243D01*
X166607367Y-104118400D01*
X166591367Y-104094558D01*
X166570983Y-104054018D01*
X166544419Y-103993086D01*
X166509883Y-103908062D01*
X166465579Y-103795251D01*
X166445641Y-103743890D01*
X166403135Y-103633681D01*
X166365216Y-103534407D01*
X166333634Y-103450731D01*
X166310140Y-103387315D01*
X166296484Y-103348821D01*
X166293711Y-103339295D01*
X166308675Y-103329709D01*
X166334860Y-103326844D01*
X166349481Y-103329337D01*
X166363556Y-103339532D01*
X166379077Y-103361504D01*
X166398033Y-103399327D01*
X166422417Y-103457077D01*
X166454219Y-103538827D01*
X166495429Y-103648652D01*
X166506008Y-103677126D01*
X166544443Y-103779041D01*
X166578925Y-103867335D01*
X166607627Y-103937591D01*
X166628726Y-103985393D01*
X166640395Y-104006322D01*
X166641994Y-104006255D01*
X166649808Y-103983979D01*
X166668100Y-103934217D01*
X166694879Y-103862305D01*
X166728160Y-103773578D01*
X166765953Y-103673371D01*
X166772534Y-103655973D01*
X166815491Y-103543353D01*
X166848560Y-103459558D01*
X166873836Y-103400414D01*
X166893415Y-103361746D01*
X166909389Y-103339379D01*
X166923855Y-103329141D01*
X166937692Y-103326844D01*
X166969099Y-103331886D01*
G37*
%TD*%
D13*
%TO.C,SW2*%
X142150000Y-102013575D03*
X136450000Y-99513575D03*
X142150000Y-97013575D03*
%TD*%
%TO.C,SW1*%
X113550000Y-112113575D03*
X107850000Y-109613575D03*
X113550000Y-107113575D03*
%TD*%
D14*
%TO.C,C12*%
X141800000Y-107975000D03*
X141800000Y-109700000D03*
%TD*%
%TO.C,C11*%
X148100000Y-109800000D03*
X148100000Y-111525000D03*
%TD*%
D15*
%TO.C,C10*%
X124200000Y-101001023D03*
X124200000Y-99276023D03*
%TD*%
%TO.C,C9*%
X133000000Y-103550637D03*
X133000000Y-101825637D03*
%TD*%
D16*
%TO.C,D1*%
X132400000Y-98513575D03*
X130650000Y-98513575D03*
%TD*%
D17*
%TO.C,R2*%
X134397500Y-105713575D03*
X133202500Y-105713575D03*
%TD*%
%TO.C,R7*%
X134397500Y-111213575D03*
X133202500Y-111213575D03*
%TD*%
D18*
%TO.C,U4*%
X146500000Y-106050000D03*
X146500000Y-107000000D03*
X146500000Y-107950000D03*
X149200000Y-107950000D03*
X149200000Y-107000000D03*
X149200000Y-106050000D03*
%TD*%
D14*
%TO.C,C1*%
X105800000Y-102251075D03*
X105800000Y-103976075D03*
%TD*%
D18*
%TO.C,U1*%
X107850000Y-102163575D03*
X107850000Y-103113575D03*
X107850000Y-104063575D03*
X110550000Y-104063575D03*
X110550000Y-102163575D03*
%TD*%
%TO.C,U2*%
X110650000Y-97163575D03*
X110650000Y-99063575D03*
X107950000Y-99063575D03*
X107950000Y-98113575D03*
X107950000Y-97163575D03*
%TD*%
D19*
%TO.C,R8*%
X151300000Y-105712500D03*
X151300000Y-103887500D03*
%TD*%
D14*
%TO.C,C13*%
X143800000Y-107975000D03*
X143800000Y-109700000D03*
%TD*%
D20*
%TO.C,R1*%
X130600000Y-96713575D03*
X132425000Y-96713575D03*
%TD*%
D21*
%TO.C,X1*%
X119600000Y-105973575D03*
X119600000Y-111053575D03*
X123600000Y-111053575D03*
X123600000Y-105973575D03*
%TD*%
D22*
%TO.C,TP8*%
X128987551Y-102750637D03*
%TD*%
D14*
%TO.C,C6*%
X114400000Y-98976075D03*
X114400000Y-97251075D03*
%TD*%
D23*
%TO.C,U3*%
X127312551Y-111213137D03*
X127962551Y-111213137D03*
X128612551Y-111213137D03*
X129262551Y-111213137D03*
X129912551Y-111213137D03*
X130562551Y-111213137D03*
X131212551Y-111213137D03*
X131862551Y-111213137D03*
X131862551Y-105488137D03*
X131212551Y-105488137D03*
X130562551Y-105488137D03*
X129912551Y-105488137D03*
X129262551Y-105488137D03*
X128612551Y-105488137D03*
X127962551Y-105488137D03*
X127312551Y-105488137D03*
%TD*%
D24*
%TO.C,R9*%
X193275000Y-108569598D03*
X191450000Y-108569598D03*
%TD*%
D17*
%TO.C,R3*%
X134387551Y-106813575D03*
X133192551Y-106813575D03*
%TD*%
D14*
%TO.C,C3*%
X114300000Y-102251075D03*
X114300000Y-103976075D03*
%TD*%
D22*
%TO.C,TP5*%
X130787551Y-102750637D03*
%TD*%
D14*
%TO.C,C5*%
X112700000Y-98976075D03*
X112700000Y-97251075D03*
%TD*%
%TO.C,C7*%
X117200000Y-107851075D03*
X117200000Y-109576075D03*
%TD*%
D25*
%TO.C,J2*%
X100240000Y-109713575D03*
D26*
X97700000Y-109713575D03*
%TD*%
D14*
%TO.C,C2*%
X112600000Y-102251075D03*
X112600000Y-103976075D03*
%TD*%
D22*
%TO.C,TP9*%
X127387551Y-113450637D03*
%TD*%
D25*
%TO.C,J3*%
X120800000Y-101013575D03*
D26*
X120800000Y-98473575D03*
%TD*%
D27*
%TO.C,J4*%
X201850000Y-108569598D03*
D28*
X199275000Y-105994598D03*
X199275000Y-111144598D03*
X204425000Y-111144598D03*
X204425000Y-105994598D03*
%TD*%
D15*
%TO.C,C8*%
X127187551Y-101825637D03*
X127187551Y-103550637D03*
%TD*%
D14*
%TO.C,C4*%
X105900000Y-98976075D03*
X105900000Y-97251075D03*
%TD*%
D24*
%TO.C,R10*%
X196875000Y-108569598D03*
X195050000Y-108569598D03*
%TD*%
D22*
%TO.C,TP10*%
X129487551Y-113450637D03*
%TD*%
D17*
%TO.C,R5*%
X134387551Y-109013575D03*
X133192551Y-109013575D03*
%TD*%
D29*
%TO.C,U6*%
X186520000Y-107943575D03*
X186520000Y-108593575D03*
X186520000Y-109243575D03*
X189180000Y-109243575D03*
X189180000Y-108593575D03*
X189180000Y-107943575D03*
%TD*%
D14*
%TO.C,C14*%
X181200000Y-103475000D03*
X181200000Y-105200000D03*
%TD*%
D30*
%TO.C,C15*%
X187962500Y-110869598D03*
X186237500Y-110869598D03*
%TD*%
D22*
%TO.C,TP6*%
X130787551Y-100950637D03*
%TD*%
D29*
%TO.C,U5*%
X178510052Y-107943575D03*
X178510052Y-108593575D03*
X178510052Y-109243575D03*
X181170052Y-109243575D03*
X181170052Y-107943575D03*
%TD*%
D17*
%TO.C,R4*%
X134387551Y-107913575D03*
X133192551Y-107913575D03*
%TD*%
D31*
%TO.C,J1*%
X101600000Y-101713575D03*
D32*
X98600000Y-106413575D03*
D31*
X95600000Y-101713575D03*
%TD*%
D22*
%TO.C,TP4*%
X139300000Y-108000000D03*
%TD*%
%TO.C,TP3*%
X152200000Y-107947448D03*
%TD*%
%TO.C,TP7*%
X128987551Y-100950637D03*
%TD*%
D17*
%TO.C,R6*%
X134397500Y-110113575D03*
X133202500Y-110113575D03*
%TD*%
M02*
