%TF.GenerationSoftware,KiCad,Pcbnew,(6.0.2)*%
%TF.CreationDate,2022-06-19T20:51:40-07:00*%
%TF.ProjectId,peregrine,70657265-6772-4696-9e65-2e6b69636164,5*%
%TF.SameCoordinates,Original*%
%TF.FileFunction,Soldermask,Bot*%
%TF.FilePolarity,Negative*%
%FSLAX46Y46*%
G04 Gerber Fmt 4.6, Leading zero omitted, Abs format (unit mm)*
G04 Created by KiCad (PCBNEW (6.0.2)) date 2022-06-19 20:51:40*
%MOMM*%
%LPD*%
G01*
G04 APERTURE LIST*
%ADD10C,0.150000*%
%ADD11R,1.700000X1.700000*%
%ADD12O,1.700000X1.700000*%
%ADD13R,4.900000X1.600000*%
%ADD14O,1.500000X4.150000*%
%ADD15O,3.650000X1.500000*%
G04 APERTURE END LIST*
D10*
X163076711Y-113871639D02*
X192166711Y-108741639D01*
X192166711Y-108741639D02*
X192166711Y-109851639D01*
X192166711Y-109851639D02*
X163076711Y-114791639D01*
X163076711Y-114791639D02*
X163076711Y-113871639D01*
G36*
X192166711Y-109851639D02*
G01*
X163076711Y-114791639D01*
X163076711Y-113871639D01*
X192166711Y-108741639D01*
X192166711Y-109851639D01*
G37*
X192166711Y-109851639D02*
X163076711Y-114791639D01*
X163076711Y-113871639D01*
X192166711Y-108741639D01*
X192166711Y-109851639D01*
X163070000Y-95340000D02*
X192160000Y-100470000D01*
X192160000Y-100470000D02*
X192160000Y-99360000D01*
X192160000Y-99360000D02*
X163070000Y-94420000D01*
X163070000Y-94420000D02*
X163070000Y-95340000D01*
G36*
X192160000Y-99360000D02*
G01*
X192160000Y-100470000D01*
X163070000Y-95340000D01*
X163070000Y-94420000D01*
X192160000Y-99360000D01*
G37*
X192160000Y-99360000D02*
X192160000Y-100470000D01*
X163070000Y-95340000D01*
X163070000Y-94420000D01*
X192160000Y-99360000D01*
D11*
%TO.C,J2*%
X119350000Y-101025000D03*
D12*
X119350000Y-98485000D03*
%TD*%
D13*
%TO.C,J3*%
X189790000Y-108880000D03*
X189790000Y-100360000D03*
%TD*%
D14*
%TO.C,J1*%
X101010000Y-100920000D03*
D15*
X98010000Y-105620000D03*
D14*
X95010000Y-100920000D03*
%TD*%
M02*
