%TF.GenerationSoftware,KiCad,Pcbnew,(6.0.2)*%
%TF.CreationDate,2022-06-19T20:51:39-07:00*%
%TF.ProjectId,peregrine,70657265-6772-4696-9e65-2e6b69636164,5*%
%TF.SameCoordinates,Original*%
%TF.FileFunction,Copper,L1,Top*%
%TF.FilePolarity,Positive*%
%FSLAX46Y46*%
G04 Gerber Fmt 4.6, Leading zero omitted, Abs format (unit mm)*
G04 Created by KiCad (PCBNEW (6.0.2)) date 2022-06-19 20:51:39*
%MOMM*%
%LPD*%
G01*
G04 APERTURE LIST*
G04 Aperture macros list*
%AMRoundRect*
0 Rectangle with rounded corners*
0 $1 Rounding radius*
0 $2 $3 $4 $5 $6 $7 $8 $9 X,Y pos of 4 corners*
0 Add a 4 corners polygon primitive as box body*
4,1,4,$2,$3,$4,$5,$6,$7,$8,$9,$2,$3,0*
0 Add four circle primitives for the rounded corners*
1,1,$1+$1,$2,$3*
1,1,$1+$1,$4,$5*
1,1,$1+$1,$6,$7*
1,1,$1+$1,$8,$9*
0 Add four rect primitives between the rounded corners*
20,1,$1+$1,$2,$3,$4,$5,0*
20,1,$1+$1,$4,$5,$6,$7,0*
20,1,$1+$1,$6,$7,$8,$9,0*
20,1,$1+$1,$8,$9,$2,$3,0*%
%AMOutline5P*
0 Free polygon, 5 corners , with rotation*
0 The origin of the aperture is its center*
0 number of corners: always 5*
0 $1 to $10 corner X, Y*
0 $11 Rotation angle, in degrees counterclockwise*
0 create outline with 5 corners*
4,1,5,$1,$2,$3,$4,$5,$6,$7,$8,$9,$10,$1,$2,$11*%
%AMOutline6P*
0 Free polygon, 6 corners , with rotation*
0 The origin of the aperture is its center*
0 number of corners: always 6*
0 $1 to $12 corner X, Y*
0 $13 Rotation angle, in degrees counterclockwise*
0 create outline with 6 corners*
4,1,6,$1,$2,$3,$4,$5,$6,$7,$8,$9,$10,$11,$12,$1,$2,$13*%
%AMOutline7P*
0 Free polygon, 7 corners , with rotation*
0 The origin of the aperture is its center*
0 number of corners: always 7*
0 $1 to $14 corner X, Y*
0 $15 Rotation angle, in degrees counterclockwise*
0 create outline with 7 corners*
4,1,7,$1,$2,$3,$4,$5,$6,$7,$8,$9,$10,$11,$12,$13,$14,$1,$2,$15*%
%AMOutline8P*
0 Free polygon, 8 corners , with rotation*
0 The origin of the aperture is its center*
0 number of corners: always 8*
0 $1 to $16 corner X, Y*
0 $17 Rotation angle, in degrees counterclockwise*
0 create outline with 8 corners*
4,1,8,$1,$2,$3,$4,$5,$6,$7,$8,$9,$10,$11,$12,$13,$14,$15,$16,$1,$2,$17*%
%AMFreePoly0*
4,1,9,3.862500,-0.866500,0.737500,-0.866500,0.737500,-0.450000,-0.737500,-0.450000,-0.737500,0.450000,0.737500,0.450000,0.737500,0.866500,3.862500,0.866500,3.862500,-0.866500,3.862500,-0.866500,$1*%
G04 Aperture macros list end*
%TA.AperFunction,SMDPad,CuDef*%
%ADD10R,2.500000X1.800000*%
%TD*%
%TA.AperFunction,SMDPad,CuDef*%
%ADD11R,1.300000X0.900000*%
%TD*%
%TA.AperFunction,SMDPad,CuDef*%
%ADD12FreePoly0,180.000000*%
%TD*%
%TA.AperFunction,SMDPad,CuDef*%
%ADD13R,1.500000X1.500000*%
%TD*%
%TA.AperFunction,SMDPad,CuDef*%
%ADD14RoundRect,0.150000X0.150000X-0.587500X0.150000X0.587500X-0.150000X0.587500X-0.150000X-0.587500X0*%
%TD*%
%TA.AperFunction,SMDPad,CuDef*%
%ADD15RoundRect,0.237500X-0.237500X0.287500X-0.237500X-0.287500X0.237500X-0.287500X0.237500X0.287500X0*%
%TD*%
%TA.AperFunction,SMDPad,CuDef*%
%ADD16RoundRect,0.237500X-0.287500X-0.237500X0.287500X-0.237500X0.287500X0.237500X-0.287500X0.237500X0*%
%TD*%
%TA.AperFunction,SMDPad,CuDef*%
%ADD17RoundRect,0.250000X-0.337500X-0.475000X0.337500X-0.475000X0.337500X0.475000X-0.337500X0.475000X0*%
%TD*%
%TA.AperFunction,SMDPad,CuDef*%
%ADD18RoundRect,0.250000X0.475000X-0.337500X0.475000X0.337500X-0.475000X0.337500X-0.475000X-0.337500X0*%
%TD*%
%TA.AperFunction,SMDPad,CuDef*%
%ADD19RoundRect,0.237500X-0.250000X-0.237500X0.250000X-0.237500X0.250000X0.237500X-0.250000X0.237500X0*%
%TD*%
%TA.AperFunction,SMDPad,CuDef*%
%ADD20RoundRect,0.237500X0.287500X0.237500X-0.287500X0.237500X-0.287500X-0.237500X0.287500X-0.237500X0*%
%TD*%
%TA.AperFunction,ComponentPad*%
%ADD21R,1.700000X1.700000*%
%TD*%
%TA.AperFunction,ComponentPad*%
%ADD22O,1.700000X1.700000*%
%TD*%
%TA.AperFunction,SMDPad,CuDef*%
%ADD23RoundRect,0.160000X0.197500X0.160000X-0.197500X0.160000X-0.197500X-0.160000X0.197500X-0.160000X0*%
%TD*%
%TA.AperFunction,SMDPad,CuDef*%
%ADD24R,1.560000X0.650000*%
%TD*%
%TA.AperFunction,SMDPad,CuDef*%
%ADD25RoundRect,0.237500X0.237500X-0.250000X0.237500X0.250000X-0.237500X0.250000X-0.237500X-0.250000X0*%
%TD*%
%TA.AperFunction,SMDPad,CuDef*%
%ADD26RoundRect,0.237500X-0.237500X0.300000X-0.237500X-0.300000X0.237500X-0.300000X0.237500X0.300000X0*%
%TD*%
%TA.AperFunction,SMDPad,CuDef*%
%ADD27R,2.000000X1.800000*%
%TD*%
%TA.AperFunction,SMDPad,CuDef*%
%ADD28C,1.000000*%
%TD*%
%TA.AperFunction,SMDPad,CuDef*%
%ADD29RoundRect,0.100000X0.100000X-0.637500X0.100000X0.637500X-0.100000X0.637500X-0.100000X-0.637500X0*%
%TD*%
%TA.AperFunction,SMDPad,CuDef*%
%ADD30R,2.700000X1.000000*%
%TD*%
%TA.AperFunction,SMDPad,CuDef*%
%ADD31RoundRect,0.237500X0.250000X0.237500X-0.250000X0.237500X-0.250000X-0.237500X0.250000X-0.237500X0*%
%TD*%
%TA.AperFunction,SMDPad,CuDef*%
%ADD32RoundRect,0.237500X0.300000X0.237500X-0.300000X0.237500X-0.300000X-0.237500X0.300000X-0.237500X0*%
%TD*%
%TA.AperFunction,SMDPad,CuDef*%
%ADD33RoundRect,0.237500X0.237500X-0.300000X0.237500X0.300000X-0.237500X0.300000X-0.237500X-0.300000X0*%
%TD*%
%TA.AperFunction,SMDPad,CuDef*%
%ADD34Outline5P,-0.500000X2.300000X0.000000X2.800000X0.500000X2.300000X0.500000X-2.800000X-0.500000X-2.800000X90.000000*%
%TD*%
%TA.AperFunction,SMDPad,CuDef*%
%ADD35R,4.900000X1.600000*%
%TD*%
%TA.AperFunction,SMDPad,CuDef*%
%ADD36R,1.500000X0.400000*%
%TD*%
%TA.AperFunction,ComponentPad*%
%ADD37O,1.500000X4.150000*%
%TD*%
%TA.AperFunction,ComponentPad*%
%ADD38O,3.650000X1.500000*%
%TD*%
%TA.AperFunction,ViaPad*%
%ADD39C,0.800000*%
%TD*%
%TA.AperFunction,Conductor*%
%ADD40C,0.293370*%
%TD*%
%TA.AperFunction,Conductor*%
%ADD41C,0.635000*%
%TD*%
%TA.AperFunction,Conductor*%
%ADD42C,1.016000*%
%TD*%
%TA.AperFunction,Conductor*%
%ADD43C,0.250000*%
%TD*%
%TA.AperFunction,Conductor*%
%ADD44C,0.340360*%
%TD*%
G04 APERTURE END LIST*
D10*
%TO.P,D1,1,A1*%
%TO.N,GND*%
X96010000Y-108720000D03*
%TO.P,D1,2,A2*%
%TO.N,+VDC*%
X100010000Y-108720000D03*
%TD*%
D11*
%TO.P,U5,3,IN*%
%TO.N,Net-(C10-Pad1)*%
X107897500Y-106720000D03*
D12*
%TO.P,U5,2,GND*%
%TO.N,GND*%
X107810000Y-108220000D03*
D11*
%TO.P,U5,1,OUT*%
%TO.N,Net-(C12-Pad1)*%
X107897500Y-109720000D03*
%TD*%
D13*
%TO.P,TP10,1,1*%
%TO.N,GND*%
X95810000Y-111920000D03*
%TD*%
%TO.P,TP9,1,1*%
%TO.N,+VDC*%
X100210000Y-111920000D03*
%TD*%
D14*
%TO.P,Q1,1,G*%
%TO.N,GND*%
X104460000Y-103157500D03*
%TO.P,Q1,2,S*%
%TO.N,Net-(C10-Pad1)*%
X106360000Y-103157500D03*
%TO.P,Q1,3,D*%
%TO.N,+VDC*%
X105410000Y-101282500D03*
%TD*%
D15*
%TO.P,FB4,2*%
%TO.N,+3V3*%
X114610000Y-98995000D03*
%TO.P,FB4,1*%
%TO.N,Net-(C15-Pad1)*%
X114610000Y-97245000D03*
%TD*%
D16*
%TO.P,FB3,2*%
%TO.N,+5V*%
X111985000Y-107820000D03*
%TO.P,FB3,1*%
%TO.N,Net-(C12-Pad1)*%
X110235000Y-107820000D03*
%TD*%
%TO.P,FB2,2*%
%TO.N,Net-(C3-Pad1)*%
X123985000Y-104120000D03*
%TO.P,FB2,1*%
%TO.N,+5V*%
X122235000Y-104120000D03*
%TD*%
D15*
%TO.P,FB1,1*%
%TO.N,+3V3*%
X116810000Y-106720000D03*
%TO.P,FB1,2*%
%TO.N,Net-(C1-Pad1)*%
X116810000Y-108470000D03*
%TD*%
D17*
%TO.P,C12,1*%
%TO.N,Net-(C12-Pad1)*%
X109935000Y-109720000D03*
%TO.P,C12,2*%
%TO.N,GND*%
X112010000Y-109720000D03*
%TD*%
D18*
%TO.P,C11,1*%
%TO.N,Net-(C10-Pad1)*%
X111910000Y-103157500D03*
%TO.P,C11,2*%
%TO.N,GND*%
X111910000Y-101082500D03*
%TD*%
%TO.P,C10,1*%
%TO.N,Net-(C10-Pad1)*%
X108510000Y-103157500D03*
%TO.P,C10,2*%
%TO.N,GND*%
X108510000Y-101082500D03*
%TD*%
D19*
%TO.P,R10,1*%
%TO.N,+3V3*%
X129150000Y-96725000D03*
%TO.P,R10,2*%
%TO.N,Net-(D2-Pad2)*%
X130975000Y-96725000D03*
%TD*%
D20*
%TO.P,D2,2,A*%
%TO.N,Net-(D2-Pad2)*%
X129200000Y-98525000D03*
%TO.P,D2,1,K*%
%TO.N,GND*%
X130950000Y-98525000D03*
%TD*%
D21*
%TO.P,J2,1,Pin_1*%
%TO.N,/peregrineSelector/ExtTrig*%
X119350000Y-101025000D03*
D22*
%TO.P,J2,2,Pin_2*%
%TO.N,GND*%
X119350000Y-98485000D03*
%TD*%
D23*
%TO.P,R1,1*%
%TO.N,/peregrineSelector/FTrig*%
X132947500Y-105725000D03*
%TO.P,R1,2*%
%TO.N,Net-(R1-Pad2)*%
X131752500Y-105725000D03*
%TD*%
%TO.P,R6,1*%
%TO.N,/peregrineSelector/FTrig*%
X132947500Y-111225000D03*
%TO.P,R6,2*%
%TO.N,Net-(R6-Pad2)*%
X131752500Y-111225000D03*
%TD*%
D24*
%TO.P,U4,1*%
%TO.N,/peregrineSelector/ExtTrig*%
X143630000Y-103781425D03*
%TO.P,U4,2,GND*%
%TO.N,GND*%
X143630000Y-104731425D03*
%TO.P,U4,3*%
%TO.N,/peregrineSelector/FTrig*%
X143630000Y-105681425D03*
%TO.P,U4,4*%
%TO.N,/peregrinePulser/Trig*%
X146330000Y-105681425D03*
%TO.P,U4,5,V+*%
%TO.N,+3V3*%
X146330000Y-104731425D03*
%TO.P,U4,6*%
%TO.N,Net-(R9-Pad1)*%
X146330000Y-103781425D03*
%TD*%
%TO.P,U6,5,VOUT*%
%TO.N,Net-(C15-Pad1)*%
X109200000Y-97175000D03*
%TO.P,U6,4,NC*%
%TO.N,unconnected-(U6-Pad4)*%
X109200000Y-99075000D03*
%TO.P,U6,3,EN*%
%TO.N,PWR*%
X106500000Y-99075000D03*
%TO.P,U6,2,GND*%
%TO.N,GND*%
X106500000Y-98125000D03*
%TO.P,U6,1,VIN*%
%TO.N,+5V*%
X106500000Y-97175000D03*
%TD*%
D25*
%TO.P,R9,1*%
%TO.N,Net-(R9-Pad1)*%
X148430000Y-103443925D03*
%TO.P,R9,2*%
%TO.N,GND*%
X148430000Y-101618925D03*
%TD*%
D26*
%TO.P,C5,1*%
%TO.N,/peregrineSelector/FTrig*%
X140930000Y-105706425D03*
%TO.P,C5,2*%
%TO.N,GND*%
X140930000Y-107431425D03*
%TD*%
D27*
%TO.P,X1,1,EN*%
%TO.N,Net-(C1-Pad1)*%
X119310000Y-107020000D03*
%TO.P,X1,2,GND*%
%TO.N,GND*%
X119310000Y-112100000D03*
%TO.P,X1,3,OUT*%
%TO.N,Net-(U1-Pad10)*%
X123310000Y-112100000D03*
%TO.P,X1,4,Vdd*%
%TO.N,Net-(C1-Pad1)*%
X123310000Y-107020000D03*
%TD*%
D28*
%TO.P,TP4,1,1*%
%TO.N,Net-(TP4-Pad1)*%
X127537551Y-102762062D03*
%TD*%
D26*
%TO.P,C16,1*%
%TO.N,+3V3*%
X112950000Y-97262500D03*
%TO.P,C16,2*%
%TO.N,GND*%
X112950000Y-98987500D03*
%TD*%
D29*
%TO.P,U1,1,Q11*%
%TO.N,Net-(TP5-Pad1)*%
X125862551Y-111224562D03*
%TO.P,U1,2,Q12*%
%TO.N,Net-(TP6-Pad1)*%
X126512551Y-111224562D03*
%TO.P,U1,3,Q13*%
%TO.N,Net-(R6-Pad2)*%
X127162551Y-111224562D03*
%TO.P,U1,4,Q5*%
%TO.N,Net-(R4-Pad2)*%
X127812551Y-111224562D03*
%TO.P,U1,5,Q4*%
%TO.N,Net-(R3-Pad2)*%
X128462551Y-111224562D03*
%TO.P,U1,6,Q6*%
%TO.N,Net-(R5-Pad2)*%
X129112551Y-111224562D03*
%TO.P,U1,7,Q3*%
%TO.N,Net-(R2-Pad2)*%
X129762551Y-111224562D03*
%TO.P,U1,8,VSS*%
%TO.N,GND*%
X130412551Y-111224562D03*
%TO.P,U1,9,Q0*%
%TO.N,Net-(R1-Pad2)*%
X130412551Y-105499562D03*
%TO.P,U1,10,CLK*%
%TO.N,Net-(U1-Pad10)*%
X129762551Y-105499562D03*
%TO.P,U1,11,Reset*%
%TO.N,Net-(C2-Pad1)*%
X129112551Y-105499562D03*
%TO.P,U1,12,Q8*%
%TO.N,Net-(TP2-Pad1)*%
X128462551Y-105499562D03*
%TO.P,U1,13,Q7*%
%TO.N,Net-(TP1-Pad1)*%
X127812551Y-105499562D03*
%TO.P,U1,14,Q9*%
%TO.N,Net-(TP3-Pad1)*%
X127162551Y-105499562D03*
%TO.P,U1,15,Q10*%
%TO.N,Net-(TP4-Pad1)*%
X126512551Y-105499562D03*
%TO.P,U1,16,VDD*%
%TO.N,Net-(C3-Pad1)*%
X125862551Y-105499562D03*
%TD*%
D30*
%TO.P,SW1,1,A*%
%TO.N,Net-(R9-Pad1)*%
X140700000Y-102025000D03*
%TO.P,SW1,2,B*%
%TO.N,+3V3*%
X135000000Y-99525000D03*
%TO.P,SW1,3,C*%
%TO.N,unconnected-(SW1-Pad3)*%
X140700000Y-97025000D03*
%TD*%
D31*
%TO.P,R7,1*%
%TO.N,Net-(R7-Pad1)*%
X179100000Y-104619598D03*
%TO.P,R7,2*%
%TO.N,Net-(R7-Pad2)*%
X177275000Y-104619598D03*
%TD*%
D23*
%TO.P,R2,1*%
%TO.N,/peregrineSelector/FTrig*%
X132937551Y-106825000D03*
%TO.P,R2,2*%
%TO.N,Net-(R2-Pad2)*%
X131742551Y-106825000D03*
%TD*%
D32*
%TO.P,C13,1*%
%TO.N,+5V*%
X111972500Y-106220000D03*
%TO.P,C13,2*%
%TO.N,GND*%
X110247500Y-106220000D03*
%TD*%
D28*
%TO.P,TP1,1,1*%
%TO.N,Net-(TP1-Pad1)*%
X129337551Y-102762062D03*
%TD*%
D26*
%TO.P,C15,1*%
%TO.N,Net-(C15-Pad1)*%
X111250000Y-97262500D03*
%TO.P,C15,2*%
%TO.N,GND*%
X111250000Y-98987500D03*
%TD*%
%TO.P,C1,1*%
%TO.N,Net-(C1-Pad1)*%
X116810000Y-110237500D03*
%TO.P,C1,2*%
%TO.N,GND*%
X116810000Y-111962500D03*
%TD*%
D28*
%TO.P,TP5,1,1*%
%TO.N,Net-(TP5-Pad1)*%
X125937551Y-113462062D03*
%TD*%
D33*
%TO.P,C8,1*%
%TO.N,/peregrineSelector/ExtTrig*%
X122750000Y-101012448D03*
%TO.P,C8,2*%
%TO.N,GND*%
X122750000Y-99287448D03*
%TD*%
D34*
%TO.P,J3,1,In*%
%TO.N,/peregrinePulser/Output*%
X189440000Y-104620000D03*
D35*
%TO.P,J3,2,Ext*%
%TO.N,GND*%
X189790000Y-108880000D03*
X189790000Y-100360000D03*
%TD*%
D33*
%TO.P,C3,1*%
%TO.N,Net-(C3-Pad1)*%
X125737551Y-103562062D03*
%TO.P,C3,2*%
%TO.N,GND*%
X125737551Y-101837062D03*
%TD*%
D26*
%TO.P,C14,2*%
%TO.N,GND*%
X104450000Y-98987500D03*
%TO.P,C14,1*%
%TO.N,+5V*%
X104450000Y-97262500D03*
%TD*%
D31*
%TO.P,R8,1*%
%TO.N,/peregrinePulser/Output*%
X182700000Y-104619598D03*
%TO.P,R8,2*%
%TO.N,Net-(R7-Pad1)*%
X180875000Y-104619598D03*
%TD*%
D26*
%TO.P,C4,1*%
%TO.N,/peregrineSelector/FTrig*%
X138930000Y-105706425D03*
%TO.P,C4,2*%
%TO.N,GND*%
X138930000Y-107431425D03*
%TD*%
D28*
%TO.P,TP6,1,1*%
%TO.N,Net-(TP6-Pad1)*%
X128037551Y-113462062D03*
%TD*%
D23*
%TO.P,R4,1*%
%TO.N,/peregrineSelector/FTrig*%
X132937551Y-109025000D03*
%TO.P,R4,2*%
%TO.N,Net-(R4-Pad2)*%
X131742551Y-109025000D03*
%TD*%
D36*
%TO.P,U3,6*%
%TO.N,Net-(R7-Pad2)*%
X175005000Y-103993575D03*
%TO.P,U3,5,VCC*%
%TO.N,+3V3*%
X175005000Y-104643575D03*
%TO.P,U3,4*%
%TO.N,Net-(R7-Pad2)*%
X175005000Y-105293575D03*
%TO.P,U3,3*%
%TO.N,Net-(U2-Pad4)*%
X172345000Y-105293575D03*
%TO.P,U3,2,GND*%
%TO.N,GND*%
X172345000Y-104643575D03*
%TO.P,U3,1*%
%TO.N,Net-(U2-Pad4)*%
X172345000Y-103993575D03*
%TD*%
D33*
%TO.P,C2,1*%
%TO.N,Net-(C2-Pad1)*%
X131550000Y-103562062D03*
%TO.P,C2,2*%
%TO.N,GND*%
X131550000Y-101837062D03*
%TD*%
D26*
%TO.P,C6,1*%
%TO.N,GND*%
X167025000Y-99525000D03*
%TO.P,C6,2*%
%TO.N,+3V3*%
X167025000Y-101250000D03*
%TD*%
D32*
%TO.P,C7,1*%
%TO.N,+3V3*%
X173787500Y-106919598D03*
%TO.P,C7,2*%
%TO.N,GND*%
X172062500Y-106919598D03*
%TD*%
D28*
%TO.P,TP2,1,1*%
%TO.N,Net-(TP2-Pad1)*%
X129337551Y-100962062D03*
%TD*%
D36*
%TO.P,U2,1*%
%TO.N,/peregrinePulser/Trig*%
X164335052Y-103993575D03*
%TO.P,U2,2*%
X164335052Y-104643575D03*
%TO.P,U2,3,GND*%
%TO.N,GND*%
X164335052Y-105293575D03*
%TO.P,U2,4*%
%TO.N,Net-(U2-Pad4)*%
X166995052Y-105293575D03*
%TO.P,U2,5,VCC*%
%TO.N,+3V3*%
X166995052Y-103993575D03*
%TD*%
D23*
%TO.P,R3,1*%
%TO.N,/peregrineSelector/FTrig*%
X132937551Y-107925000D03*
%TO.P,R3,2*%
%TO.N,Net-(R3-Pad2)*%
X131742551Y-107925000D03*
%TD*%
D37*
%TO.P,J1,1*%
%TO.N,+VDC*%
X101010000Y-100920000D03*
D38*
%TO.P,J1,2*%
%TO.N,GND*%
X98010000Y-105620000D03*
D37*
X95010000Y-100920000D03*
%TD*%
D26*
%TO.P,C9,1*%
%TO.N,+3V3*%
X145230000Y-107531425D03*
%TO.P,C9,2*%
%TO.N,GND*%
X145230000Y-109256425D03*
%TD*%
D28*
%TO.P,TP8,1,1*%
%TO.N,/peregrineSelector/FTrig*%
X137100000Y-105700000D03*
%TD*%
%TO.P,TP7,1,1*%
%TO.N,/peregrinePulser/Trig*%
X148500000Y-105640000D03*
%TD*%
%TO.P,TP3,1,1*%
%TO.N,Net-(TP3-Pad1)*%
X127537551Y-100962062D03*
%TD*%
D23*
%TO.P,R5,1*%
%TO.N,/peregrineSelector/FTrig*%
X132947500Y-110125000D03*
%TO.P,R5,2*%
%TO.N,Net-(R5-Pad2)*%
X131752500Y-110125000D03*
%TD*%
D39*
%TO.N,GND*%
X145210000Y-110520000D03*
X105410000Y-103120000D03*
X106610000Y-100820000D03*
X123510000Y-97920000D03*
X124010000Y-98720000D03*
%TO.N,+5V*%
X119310000Y-104120000D03*
X118310000Y-104120000D03*
%TO.N,GND*%
X114410000Y-100320000D03*
X113510000Y-100320000D03*
X130910000Y-99820000D03*
X131610000Y-100320000D03*
%TO.N,Net-(R2-Pad2)*%
X128110000Y-107820000D03*
%TO.N,+5V*%
X106510000Y-95920000D03*
%TO.N,+3V3*%
X115522500Y-99907500D03*
%TO.N,+5V*%
X113010000Y-105220000D03*
X113610000Y-104620000D03*
%TO.N,GND*%
X104010000Y-106620000D03*
X104010000Y-109820000D03*
X106527500Y-106620000D03*
X105527500Y-106620000D03*
X105527500Y-109820000D03*
X106527500Y-109820000D03*
X181510782Y-111100000D03*
X150150000Y-100350000D03*
X150150000Y-94950000D03*
X184900000Y-98700000D03*
X164200000Y-95100000D03*
X174600000Y-96900000D03*
X118410000Y-113960000D03*
X174610782Y-112300000D03*
X171110782Y-112900000D03*
X147210000Y-100620000D03*
X178000000Y-97500000D03*
X167700000Y-95700000D03*
X181500000Y-98100000D03*
X167710782Y-113500000D03*
X188850000Y-100350000D03*
X120210000Y-113960000D03*
X188850000Y-108900000D03*
X150150000Y-102150000D03*
X108150000Y-98125000D03*
X190700000Y-100350000D03*
X171100000Y-96300000D03*
X184910782Y-110500000D03*
X150150000Y-96750000D03*
X165800000Y-99500000D03*
X150150000Y-112450000D03*
X150150000Y-103950000D03*
X164210782Y-114100000D03*
X144010000Y-109620000D03*
X150150000Y-107050000D03*
X178010782Y-111700000D03*
X142170000Y-104731425D03*
X147242500Y-101618925D03*
X164325000Y-108463575D03*
X190700000Y-108900000D03*
X150150000Y-114300000D03*
X130710000Y-113020000D03*
X139943575Y-107431425D03*
X150150000Y-98550000D03*
X150150000Y-110650000D03*
X119310000Y-113960000D03*
%TO.N,+3V3*%
X163325000Y-109263575D03*
X164825000Y-100250000D03*
X150150000Y-108850000D03*
X132950000Y-99525000D03*
X126957011Y-97117989D03*
X127857011Y-97117989D03*
%TO.N,/peregrineSelector/ExtTrig*%
X123962551Y-102212448D03*
X141150000Y-104111425D03*
%TO.N,Net-(R2-Pad2)*%
X129762551Y-110037062D03*
%TO.N,Net-(R4-Pad2)*%
X127737551Y-109662062D03*
X129737551Y-108562062D03*
%TO.N,/peregrinePulser/Trig*%
X162635052Y-103993575D03*
X150050000Y-105611425D03*
%TO.N,Net-(R6-Pad2)*%
X131737551Y-112162062D03*
X129337551Y-113062062D03*
%TD*%
D40*
%TO.N,GND*%
X170700000Y-99200000D02*
X167350000Y-99200000D01*
X170700000Y-99200000D02*
G75*
G02*
X173700000Y-102200000I-1J-3000001D01*
G01*
X173377872Y-104497128D02*
X173548783Y-104326217D01*
X173377872Y-104497128D02*
G75*
G02*
X173024318Y-104643575I-353553J353550D01*
G01*
X173695228Y-103972664D02*
G75*
G02*
X173548783Y-104326217I-500001J0D01*
G01*
X172345000Y-104643575D02*
X173024318Y-104643575D01*
X173700000Y-103967893D02*
X173700000Y-102200000D01*
X173695229Y-103972664D02*
X173700000Y-103967893D01*
D41*
X108150000Y-98125000D02*
X106500000Y-98125000D01*
X119310000Y-113960000D02*
X119310000Y-112100000D01*
D42*
%TO.N,+VDC*%
X101372500Y-101282500D02*
X101010000Y-100920000D01*
X105410000Y-101282500D02*
X101372500Y-101282500D01*
D41*
X100210000Y-111920000D02*
X100210000Y-108920000D01*
%TO.N,+5V*%
X119310000Y-104120000D02*
X122235000Y-104120000D01*
D40*
%TO.N,Net-(C3-Pad1)*%
X125179613Y-104120000D02*
X123985000Y-104120000D01*
D41*
%TO.N,+5V*%
X119310000Y-104120000D02*
X118310000Y-104120000D01*
D40*
%TO.N,Net-(C3-Pad1)*%
X125737551Y-103562062D02*
X125179613Y-104120000D01*
D41*
%TO.N,Net-(C10-Pad1)*%
X108510000Y-103157500D02*
X111910000Y-103157500D01*
D40*
%TO.N,Net-(R9-Pad1)*%
X148430000Y-103443925D02*
G75*
G02*
X148092500Y-103781425I-337498J-2D01*
G01*
X146330000Y-103781425D02*
X148092500Y-103781425D01*
D41*
%TO.N,Net-(C12-Pad1)*%
X110235000Y-107820000D02*
G75*
G03*
X109935000Y-108120000I0J-300000D01*
G01*
X109935000Y-109720000D02*
X109935000Y-108120000D01*
D40*
%TO.N,+3V3*%
X167025000Y-101250000D02*
G75*
G03*
X166995052Y-101279948I1J-29949D01*
G01*
X166995052Y-103993575D02*
X166995052Y-101279948D01*
%TO.N,Net-(U1-Pad10)*%
X129131847Y-106848795D02*
X128561205Y-106848795D01*
X123310000Y-112100000D02*
G75*
G02*
X128561205Y-106848795I5251204J1D01*
G01*
X129762551Y-106218091D02*
X129131847Y-106848795D01*
X129762551Y-105499562D02*
X129762551Y-106218091D01*
D43*
%TO.N,Net-(R2-Pad2)*%
X131247551Y-107320000D02*
X131742551Y-106825000D01*
X128610000Y-107320000D02*
X131247551Y-107320000D01*
X128110000Y-107820000D02*
X128610000Y-107320000D01*
D40*
%TO.N,+3V3*%
X146548575Y-108850000D02*
X145230000Y-107531425D01*
X150150000Y-108850000D02*
X146548575Y-108850000D01*
D41*
X116172500Y-100557500D02*
X116122500Y-100507500D01*
%TO.N,Net-(C10-Pad1)*%
X108510000Y-103157500D02*
X108510000Y-106107500D01*
X108510000Y-106107500D02*
X107897500Y-106720000D01*
%TO.N,+5V*%
X106500000Y-95930000D02*
X106510000Y-95920000D01*
X106500000Y-97175000D02*
X106500000Y-95930000D01*
%TO.N,+VDC*%
X100210000Y-108720000D02*
G75*
G03*
X101010000Y-106788630I-1931377J1931374D01*
G01*
X101010000Y-100920000D02*
X101010000Y-106788630D01*
%TO.N,+3V3*%
X116122500Y-100507500D02*
X115522500Y-99907500D01*
X115522500Y-99907500D02*
X114610000Y-98995000D01*
X116810000Y-101195000D02*
X116172500Y-100557500D01*
X116810000Y-106720000D02*
X116810000Y-101195000D01*
%TO.N,Net-(C1-Pad1)*%
X119310000Y-107020000D02*
X118260000Y-107020000D01*
X118260000Y-107020000D02*
X116810000Y-108470000D01*
X116810000Y-110237500D02*
X116810000Y-108470000D01*
X123310000Y-107020000D02*
X119310000Y-107020000D01*
%TO.N,GND*%
X111250000Y-98987500D02*
X112950000Y-98987500D01*
%TO.N,Net-(C15-Pad1)*%
X112392500Y-96120000D02*
X111250000Y-97262500D01*
X114610000Y-97120000D02*
X113610000Y-96120000D01*
X113610000Y-96120000D02*
X112392500Y-96120000D01*
X114610000Y-97245000D02*
X114610000Y-97120000D01*
%TO.N,+3V3*%
X112950000Y-97262500D02*
G75*
G03*
X113035170Y-97468118I290786J0D01*
G01*
X114562052Y-98995000D02*
X113035170Y-97468118D01*
%TO.N,Net-(C15-Pad1)*%
X111250000Y-97262500D02*
G75*
G03*
X111038757Y-97175000I-211245J-211247D01*
G01*
X109200000Y-97175000D02*
X111038757Y-97175000D01*
D40*
%TO.N,Net-(C3-Pad1)*%
X125737551Y-103562062D02*
G75*
G02*
X125862551Y-103863838I-301770J-301774D01*
G01*
X125862551Y-105499562D02*
X125862551Y-103863838D01*
D41*
%TO.N,+5V*%
X113010000Y-105220000D02*
X113610000Y-104620000D01*
X112036516Y-106193483D02*
X113010000Y-105220000D01*
X112036516Y-106193483D02*
G75*
G02*
X111972500Y-106220000I-64014J64009D01*
G01*
X111972500Y-106220000D02*
G75*
G02*
X111985000Y-106250177I-30179J-30178D01*
G01*
X111985000Y-107820000D02*
X111985000Y-106250177D01*
%TO.N,Net-(C12-Pad1)*%
X109935000Y-109720000D02*
X107897500Y-109720000D01*
%TO.N,Net-(C10-Pad1)*%
X106360000Y-103157500D02*
X108510000Y-103157500D01*
%TO.N,+5V*%
X106500000Y-97175000D02*
X104537500Y-97175000D01*
X104537500Y-97175000D02*
X104450000Y-97262500D01*
D40*
%TO.N,GND*%
X172062500Y-106919598D02*
X171982989Y-106999109D01*
X164335052Y-108453523D02*
X164325000Y-108463575D01*
D41*
X105312500Y-98125000D02*
X104450000Y-98987500D01*
X120152448Y-99287448D02*
X119350000Y-98485000D01*
X106500000Y-98125000D02*
X105312500Y-98125000D01*
D40*
X167350000Y-99200000D02*
X167025000Y-99525000D01*
D41*
X165800000Y-99500000D02*
X167000000Y-99500000D01*
X143630000Y-104731425D02*
X142170000Y-104731425D01*
X122762551Y-99287448D02*
X120152448Y-99287448D01*
D40*
X168447455Y-108463575D02*
X164325000Y-108463575D01*
D41*
X167000000Y-99500000D02*
X167025000Y-99525000D01*
D40*
X164335052Y-105293575D02*
X164335052Y-108453523D01*
X171982989Y-106999109D02*
G75*
G02*
X168447455Y-108463575I-3535533J3535532D01*
G01*
%TO.N,+3V3*%
X165196573Y-100250000D02*
X164825000Y-100250000D01*
X175005000Y-104643575D02*
X174065183Y-104643575D01*
X169372455Y-109263575D02*
X163325000Y-109263575D01*
X166995052Y-101279948D02*
X167025000Y-101250000D01*
X173787500Y-104921258D02*
X173787500Y-106919598D01*
X167025000Y-101250000D02*
X166610786Y-100835786D01*
X173787500Y-106919598D02*
X172907989Y-107799109D01*
X173888406Y-104716799D02*
X173860723Y-104744482D01*
X172907989Y-107799109D02*
G75*
G02*
X169372455Y-109263575I-3535533J3535532D01*
G01*
X166610786Y-100835786D02*
G75*
G03*
X165196573Y-100250000I-1414213J-1414214D01*
G01*
X173888406Y-104716799D02*
G75*
G02*
X174065183Y-104643575I176776J-176772D01*
G01*
X173860723Y-104744482D02*
G75*
G03*
X173787500Y-104921258I176773J-176775D01*
G01*
X138521320Y-103046320D02*
X135000000Y-99525000D01*
X145203804Y-103557837D02*
X145203804Y-104784251D01*
X145203804Y-104784251D02*
X145203804Y-107505229D01*
D41*
X126957011Y-97117989D02*
X128757011Y-97117989D01*
D40*
X145203804Y-107505229D02*
X145230000Y-107531425D01*
X146330000Y-104731425D02*
X145256630Y-104731425D01*
X144692287Y-103046320D02*
X145203804Y-103557837D01*
D41*
X128757011Y-97117989D02*
X129150000Y-96725000D01*
D40*
X145256630Y-104731425D02*
X145203804Y-104784251D01*
D41*
X132950000Y-99525000D02*
X135000000Y-99525000D01*
D40*
X138521320Y-103046320D02*
X144692287Y-103046320D01*
%TO.N,/peregrineSelector/ExtTrig*%
X141480000Y-103781425D02*
X141150000Y-104111425D01*
X122762551Y-101012448D02*
X123962551Y-102212448D01*
X143630000Y-103781425D02*
X141480000Y-103781425D01*
X122749999Y-101025000D02*
X122762551Y-101012448D01*
X119350000Y-101025000D02*
X122749999Y-101025000D01*
%TO.N,/peregrineSelector/FTrig*%
X133062937Y-109187448D02*
X132937551Y-109062062D01*
X143630000Y-105681425D02*
X140955000Y-105681425D01*
X136430000Y-105731425D02*
X138905000Y-105731425D01*
X132947500Y-105725000D02*
X132953925Y-105731425D01*
X138905000Y-105731425D02*
X138930000Y-105706425D01*
X140955000Y-105681425D02*
X140930000Y-105706425D01*
X140930000Y-105706425D02*
X138930000Y-105706425D01*
X132953925Y-105731425D02*
X136430000Y-105731425D01*
X132935051Y-105762062D02*
X132935051Y-111259562D01*
D44*
%TO.N,/peregrinePulser/Output*%
X182700402Y-104620000D02*
X189440000Y-104620000D01*
X182700000Y-104619598D02*
X182700402Y-104620000D01*
D43*
%TO.N,Net-(R1-Pad2)*%
X130528604Y-105615615D02*
X130412551Y-105499562D01*
X131740051Y-105762062D02*
X130882158Y-105762062D01*
X130882158Y-105762062D02*
G75*
G02*
X130528604Y-105615615I-1J499997D01*
G01*
%TO.N,Net-(R2-Pad2)*%
X129762551Y-111224562D02*
X129762551Y-110037062D01*
%TO.N,Net-(R3-Pad2)*%
X128462551Y-108812448D02*
X129438426Y-107836573D01*
X129438426Y-107836573D02*
X131654124Y-107836573D01*
X128462551Y-111224562D02*
X128462551Y-108812448D01*
X131654124Y-107836573D02*
X131742551Y-107925000D01*
%TO.N,Net-(R4-Pad2)*%
X130637551Y-108562062D02*
X129737551Y-108562062D01*
X131137551Y-109062062D02*
X130637551Y-108562062D01*
X127812551Y-109737062D02*
X127737551Y-109662062D01*
X127812551Y-111224562D02*
X127812551Y-109737062D01*
X131742551Y-109062062D02*
X131137551Y-109062062D01*
D40*
%TO.N,/peregrinePulser/Trig*%
X162635052Y-103993575D02*
X164335052Y-103993575D01*
X162898789Y-104936468D02*
X162809618Y-105025639D01*
X150050000Y-105611425D02*
X148650000Y-105611425D01*
X164335052Y-104643575D02*
X163605896Y-104643575D01*
X161395405Y-105611425D02*
X150050000Y-105611425D01*
X148520000Y-105681425D02*
X148550000Y-105711425D01*
X146330000Y-105681425D02*
X148520000Y-105681425D01*
X148650000Y-105611425D02*
X148550000Y-105711425D01*
X163605896Y-104643576D02*
G75*
G03*
X162898790Y-104936469I-3J-999993D01*
G01*
X161395405Y-105611424D02*
G75*
G03*
X162809617Y-105025638I0J1999999D01*
G01*
%TO.N,Net-(U2-Pad4)*%
X166995052Y-105293575D02*
X168448977Y-105293575D01*
X169072596Y-105293575D02*
X168448977Y-105293575D01*
X170615236Y-104579362D02*
X170486809Y-104707789D01*
X168448977Y-105293575D02*
X172345000Y-105293575D01*
X172345000Y-103993575D02*
X172029450Y-103993575D01*
X172029450Y-103993576D02*
G75*
G03*
X170615237Y-104579363I0J-1999999D01*
G01*
X169072596Y-105293574D02*
G75*
G03*
X170486808Y-104707788I0J1999999D01*
G01*
D41*
%TO.N,Net-(D2-Pad2)*%
X129200000Y-98525000D02*
X129200000Y-98500000D01*
X129200000Y-98500000D02*
X130975000Y-96725000D01*
D43*
%TO.N,Net-(R5-Pad2)*%
X131742551Y-110162062D02*
X130912165Y-110162062D01*
X129038040Y-109736959D02*
X129038040Y-111150051D01*
X130912165Y-110162062D02*
X130062654Y-109312551D01*
X130062654Y-109312551D02*
X129462448Y-109312551D01*
X129038040Y-111150051D02*
X129112551Y-111224562D01*
X129462448Y-109312551D02*
X129038040Y-109736959D01*
%TO.N,Net-(R6-Pad2)*%
X127162551Y-111912423D02*
X127887679Y-112637551D01*
X131737551Y-112162062D02*
X131737551Y-111267062D01*
X128913040Y-112637551D02*
X129337551Y-113062062D01*
X127162551Y-111224562D02*
X127162551Y-111912423D01*
X131737551Y-111267062D02*
X131742551Y-111262062D01*
X127887679Y-112637551D02*
X128913040Y-112637551D01*
D40*
%TO.N,Net-(R9-Pad1)*%
X140700000Y-102025000D02*
X144573575Y-102025000D01*
X144573575Y-102025000D02*
X146330000Y-103781425D01*
D44*
%TO.N,Net-(R7-Pad1)*%
X179100000Y-104619598D02*
X180875000Y-104619598D01*
%TO.N,Net-(R7-Pad2)*%
X175005000Y-105293575D02*
X176186809Y-105293575D01*
X176941870Y-104286468D02*
X177275000Y-104619598D01*
X176893916Y-105000682D02*
X177275000Y-104619598D01*
X175005000Y-103993575D02*
X176234763Y-103993575D01*
X176234763Y-103993576D02*
G75*
G02*
X176941869Y-104286469I3J-999993D01*
G01*
X176186809Y-105293574D02*
G75*
G03*
X176893915Y-105000681I3J999993D01*
G01*
D43*
%TO.N,Net-(TP1-Pad1)*%
X127812551Y-104783137D02*
X129337551Y-103258137D01*
X127812551Y-105499562D02*
X127812551Y-104783137D01*
X129337551Y-103258137D02*
X129337551Y-102762062D01*
%TO.N,Net-(TP2-Pad1)*%
X130162062Y-103103587D02*
X130162062Y-101786573D01*
X128462551Y-105499562D02*
X128462551Y-104803098D01*
X130162062Y-101786573D02*
X129337551Y-100962062D01*
X128462551Y-104803098D02*
X130162062Y-103103587D01*
%TO.N,Net-(TP3-Pad1)*%
X128362062Y-101786573D02*
X127537551Y-100962062D01*
X128362062Y-103597908D02*
X128362062Y-101786573D01*
X127162551Y-105499562D02*
X127162551Y-104797419D01*
X127162551Y-104797419D02*
X128362062Y-103597908D01*
%TO.N,Net-(TP4-Pad1)*%
X127537551Y-103786701D02*
X127537551Y-102762062D01*
X126512551Y-104811701D02*
X127537551Y-103786701D01*
X126512551Y-105499562D02*
X126512551Y-104811701D01*
%TO.N,Net-(TP5-Pad1)*%
X125862551Y-111224562D02*
X125862551Y-113387062D01*
%TO.N,Net-(TP6-Pad1)*%
X126512551Y-111937062D02*
X128037551Y-113462062D01*
X126512551Y-111224562D02*
X126512551Y-111937062D01*
%TO.N,Net-(C2-Pad1)*%
X129112551Y-105499562D02*
X129112551Y-104788816D01*
X130339305Y-103562062D02*
X131537551Y-103562062D01*
X129112551Y-104788816D02*
X130339305Y-103562062D01*
%TD*%
%TA.AperFunction,Conductor*%
%TO.N,GND*%
G36*
X183400000Y-106100000D02*
G01*
X177376000Y-106100000D01*
X177307879Y-106079998D01*
X177261386Y-106026342D01*
X177250000Y-105974000D01*
X177250000Y-105636000D01*
X177270002Y-105567879D01*
X177323658Y-105521386D01*
X177376000Y-105510000D01*
X183400000Y-105510000D01*
X183400000Y-106100000D01*
G37*
%TD.AperFunction*%
%TD*%
%TA.AperFunction,Conductor*%
%TO.N,GND*%
G36*
X150613065Y-109344436D02*
G01*
X150663861Y-109394037D01*
X150680000Y-109455734D01*
X150680000Y-114813075D01*
X149756000Y-114813075D01*
X149687879Y-114793073D01*
X149641386Y-114739417D01*
X149630000Y-114687075D01*
X149630000Y-109463407D01*
X149650002Y-109395286D01*
X149703658Y-109348793D01*
X149773932Y-109338689D01*
X149832705Y-109363445D01*
X149847159Y-109374536D01*
X149993238Y-109435044D01*
X150150000Y-109455682D01*
X150158188Y-109454604D01*
X150298574Y-109436122D01*
X150306762Y-109435044D01*
X150452841Y-109374536D01*
X150459394Y-109369508D01*
X150459397Y-109369506D01*
X150477296Y-109355772D01*
X150543516Y-109330171D01*
X150613065Y-109344436D01*
G37*
%TD.AperFunction*%
%TA.AperFunction,Conductor*%
G36*
X150613066Y-106029129D02*
G01*
X150663861Y-106078730D01*
X150680000Y-106140427D01*
X150680000Y-108244266D01*
X150659998Y-108312387D01*
X150606342Y-108358880D01*
X150536068Y-108368984D01*
X150477296Y-108344228D01*
X150459397Y-108330494D01*
X150459392Y-108330491D01*
X150452841Y-108325464D01*
X150306762Y-108264956D01*
X150150000Y-108244318D01*
X149993238Y-108264956D01*
X149847159Y-108325464D01*
X149840608Y-108330491D01*
X149832705Y-108336555D01*
X149766485Y-108362156D01*
X149696936Y-108347892D01*
X149646140Y-108298291D01*
X149630000Y-108236593D01*
X149630000Y-106276005D01*
X149650002Y-106207884D01*
X149703658Y-106161391D01*
X149773932Y-106151287D01*
X149804218Y-106159596D01*
X149885608Y-106193309D01*
X149885611Y-106193310D01*
X149893238Y-106196469D01*
X150050000Y-106217107D01*
X150058188Y-106216029D01*
X150198574Y-106197547D01*
X150206762Y-106196469D01*
X150352841Y-106135961D01*
X150427426Y-106078730D01*
X150477296Y-106040464D01*
X150543517Y-106014864D01*
X150613066Y-106029129D01*
G37*
%TD.AperFunction*%
%TA.AperFunction,Conductor*%
G36*
X150680000Y-105082423D02*
G01*
X150659998Y-105150544D01*
X150606342Y-105197037D01*
X150536068Y-105207141D01*
X150477296Y-105182386D01*
X150359392Y-105091916D01*
X150352841Y-105086889D01*
X150206762Y-105026381D01*
X150050000Y-105005743D01*
X149893238Y-105026381D01*
X149885611Y-105029540D01*
X149885608Y-105029541D01*
X149804218Y-105063254D01*
X149733628Y-105070843D01*
X149670141Y-105039063D01*
X149633914Y-104978005D01*
X149630000Y-104946845D01*
X149630000Y-94540075D01*
X149650002Y-94471954D01*
X149703658Y-94425461D01*
X149756000Y-94414075D01*
X150680000Y-94414075D01*
X150680000Y-105082423D01*
G37*
%TD.AperFunction*%
%TD*%
%TA.AperFunction,Conductor*%
%TO.N,GND*%
G36*
X186772538Y-105132777D02*
G01*
X186920000Y-105236000D01*
X187324115Y-105518881D01*
X187324116Y-105518881D01*
X187340000Y-105530000D01*
X187340000Y-108080000D01*
X183400000Y-106100000D01*
X183400000Y-105236000D01*
X183420002Y-105167879D01*
X183473658Y-105121386D01*
X183526000Y-105110000D01*
X186700283Y-105110000D01*
X186772538Y-105132777D01*
G37*
%TD.AperFunction*%
%TD*%
%TA.AperFunction,Conductor*%
%TO.N,GND*%
G36*
X163000000Y-114812192D02*
G01*
X162989432Y-114813075D01*
X149756000Y-114813075D01*
X149687879Y-114793073D01*
X149650000Y-114749358D01*
X149650000Y-113800000D01*
X163000000Y-113800000D01*
X163000000Y-114812192D01*
G37*
%TD.AperFunction*%
%TD*%
%TA.AperFunction,Conductor*%
%TO.N,GND*%
G36*
X187340000Y-103710000D02*
G01*
X187324116Y-103721119D01*
X187324115Y-103721119D01*
X186772539Y-104107223D01*
X186700283Y-104130000D01*
X183526000Y-104130000D01*
X183457879Y-104109998D01*
X183411386Y-104056342D01*
X183400000Y-104004000D01*
X183400000Y-103200000D01*
X187340000Y-101160000D01*
X187340000Y-103710000D01*
G37*
%TD.AperFunction*%
%TD*%
%TA.AperFunction,Conductor*%
%TO.N,GND*%
G36*
X163010339Y-94415822D02*
G01*
X192239966Y-99333905D01*
X192239234Y-100498224D01*
X185556284Y-99333398D01*
X184355643Y-99124129D01*
X162989218Y-95400000D01*
X162989218Y-94414075D01*
X162989433Y-94414075D01*
X163010339Y-94415822D01*
G37*
%TD.AperFunction*%
%TD*%
%TA.AperFunction,Conductor*%
%TO.N,GND*%
G36*
X192441621Y-105550002D02*
G01*
X192488114Y-105603658D01*
X192499500Y-105656000D01*
X192499500Y-109743007D01*
X192479498Y-109811128D01*
X192425842Y-109857621D01*
X192394408Y-109867260D01*
X192199821Y-109900000D01*
X187340000Y-109900000D01*
X187340000Y-105530000D01*
X192373500Y-105530000D01*
X192441621Y-105550002D01*
G37*
%TD.AperFunction*%
%TD*%
%TA.AperFunction,Conductor*%
%TO.N,GND*%
G36*
X162989218Y-95400000D02*
G01*
X149639218Y-95400000D01*
X149639218Y-94508681D01*
X149650002Y-94471954D01*
X149703658Y-94425461D01*
X149756000Y-94414075D01*
X162989218Y-94414075D01*
X162989218Y-95400000D01*
G37*
%TD.AperFunction*%
%TD*%
%TA.AperFunction,Conductor*%
%TO.N,GND*%
G36*
X183400000Y-103740000D02*
G01*
X177376000Y-103740000D01*
X177307879Y-103719998D01*
X177261386Y-103666342D01*
X177250000Y-103614000D01*
X177250000Y-103326000D01*
X177270002Y-103257879D01*
X177323658Y-103211386D01*
X177376000Y-103200000D01*
X183400000Y-103200000D01*
X183400000Y-103740000D01*
G37*
%TD.AperFunction*%
%TD*%
%TA.AperFunction,Conductor*%
%TO.N,GND*%
G36*
X149542121Y-94533577D02*
G01*
X149588614Y-94587233D01*
X149600000Y-94639575D01*
X149600000Y-105138240D01*
X149579998Y-105206361D01*
X149526342Y-105252854D01*
X149474000Y-105264240D01*
X149158072Y-105264240D01*
X149089951Y-105244238D01*
X149054233Y-105209608D01*
X149033616Y-105179610D01*
X149033612Y-105179605D01*
X149029312Y-105173349D01*
X149023119Y-105167831D01*
X148908392Y-105065612D01*
X148908388Y-105065610D01*
X148902721Y-105060560D01*
X148862710Y-105039375D01*
X148799189Y-105005743D01*
X148752881Y-104981224D01*
X148588441Y-104939919D01*
X148580843Y-104939879D01*
X148580841Y-104939879D01*
X148503668Y-104939475D01*
X148418895Y-104939031D01*
X148411508Y-104940805D01*
X148411504Y-104940805D01*
X148273783Y-104973870D01*
X148254032Y-104978612D01*
X148247288Y-104982093D01*
X148247285Y-104982094D01*
X148119049Y-105048282D01*
X148103369Y-105056375D01*
X148097647Y-105061367D01*
X148097645Y-105061368D01*
X148052106Y-105101094D01*
X147975604Y-105167831D01*
X147971237Y-105174044D01*
X147971233Y-105174049D01*
X147896285Y-105280690D01*
X147840751Y-105324922D01*
X147793198Y-105334240D01*
X147403652Y-105334240D01*
X147335531Y-105314238D01*
X147303173Y-105275316D01*
X147298867Y-105278193D01*
X147297687Y-105276427D01*
X147293814Y-105264057D01*
X147286995Y-105255855D01*
X147286975Y-105255806D01*
X147290748Y-105254266D01*
X147276472Y-105208674D01*
X147291312Y-105158136D01*
X147287223Y-105156442D01*
X147291974Y-105144972D01*
X147298867Y-105134656D01*
X147302504Y-105116375D01*
X147309293Y-105082241D01*
X147310500Y-105076173D01*
X147310500Y-104386677D01*
X147306482Y-104366475D01*
X147301288Y-104340364D01*
X147301288Y-104340363D01*
X147298867Y-104328194D01*
X147291974Y-104317878D01*
X147287223Y-104306408D01*
X147290937Y-104304870D01*
X147276472Y-104258674D01*
X147291134Y-104208741D01*
X147286975Y-104207044D01*
X147286995Y-104206995D01*
X147294358Y-104197761D01*
X147297687Y-104186423D01*
X147298867Y-104184657D01*
X147302742Y-104187246D01*
X147331257Y-104151484D01*
X147403652Y-104128610D01*
X148051097Y-104128610D01*
X148072977Y-104130524D01*
X148079347Y-104131647D01*
X148092498Y-104133966D01*
X148103351Y-104132053D01*
X148114376Y-104132053D01*
X148114376Y-104132080D01*
X148133631Y-104131307D01*
X148140167Y-104131925D01*
X148429902Y-104131925D01*
X148719832Y-104131924D01*
X148722782Y-104131645D01*
X148722787Y-104131645D01*
X148742850Y-104129749D01*
X148742851Y-104129749D01*
X148750500Y-104129026D01*
X148757748Y-104126481D01*
X148757751Y-104126480D01*
X148865879Y-104088508D01*
X148865881Y-104088507D01*
X148874768Y-104085386D01*
X148882343Y-104079791D01*
X148882345Y-104079790D01*
X148973140Y-104012728D01*
X148980711Y-104007136D01*
X149026559Y-103945062D01*
X149053365Y-103908770D01*
X149053366Y-103908768D01*
X149058961Y-103901193D01*
X149074867Y-103855902D01*
X149100056Y-103784173D01*
X149100057Y-103784171D01*
X149102601Y-103776925D01*
X149105500Y-103746258D01*
X149105499Y-103141593D01*
X149103605Y-103121544D01*
X149103324Y-103118575D01*
X149103324Y-103118574D01*
X149102601Y-103110925D01*
X149089716Y-103074233D01*
X149062083Y-102995546D01*
X149062082Y-102995544D01*
X149058961Y-102986657D01*
X149036630Y-102956422D01*
X148986303Y-102888285D01*
X148980711Y-102880714D01*
X148911382Y-102829507D01*
X148882345Y-102808060D01*
X148882343Y-102808059D01*
X148874768Y-102802464D01*
X148865881Y-102799343D01*
X148865879Y-102799342D01*
X148757748Y-102761369D01*
X148757746Y-102761368D01*
X148750500Y-102758824D01*
X148742856Y-102758101D01*
X148742854Y-102758101D01*
X148734879Y-102757347D01*
X148719833Y-102755925D01*
X148430147Y-102755925D01*
X148140168Y-102755926D01*
X148137218Y-102756205D01*
X148137213Y-102756205D01*
X148117150Y-102758101D01*
X148117149Y-102758101D01*
X148109500Y-102758824D01*
X148102252Y-102761369D01*
X148102249Y-102761370D01*
X147994121Y-102799342D01*
X147994119Y-102799343D01*
X147985232Y-102802464D01*
X147977657Y-102808059D01*
X147977655Y-102808060D01*
X147948618Y-102829507D01*
X147879289Y-102880714D01*
X147873697Y-102888285D01*
X147823371Y-102956422D01*
X147801039Y-102986657D01*
X147797918Y-102995544D01*
X147797917Y-102995546D01*
X147770284Y-103074233D01*
X147757399Y-103110925D01*
X147754500Y-103141592D01*
X147754500Y-103308240D01*
X147734498Y-103376361D01*
X147680842Y-103422854D01*
X147628500Y-103434240D01*
X147403652Y-103434240D01*
X147335531Y-103414238D01*
X147303174Y-103375316D01*
X147298867Y-103378194D01*
X147271113Y-103336658D01*
X147254552Y-103311873D01*
X147188231Y-103267558D01*
X147176062Y-103265137D01*
X147176061Y-103265137D01*
X147135816Y-103257132D01*
X147129748Y-103255925D01*
X146347684Y-103255925D01*
X146279563Y-103235923D01*
X146258589Y-103219020D01*
X144833690Y-101794122D01*
X144826263Y-101786018D01*
X144807270Y-101763383D01*
X144800184Y-101754938D01*
X144790634Y-101749424D01*
X144765058Y-101734657D01*
X144755790Y-101728753D01*
X144731595Y-101711812D01*
X144731592Y-101711810D01*
X144722565Y-101705490D01*
X144711916Y-101702637D01*
X144707870Y-101700750D01*
X144703696Y-101699231D01*
X144694151Y-101693720D01*
X144659046Y-101687530D01*
X144654197Y-101686675D01*
X144643473Y-101684297D01*
X144604301Y-101673801D01*
X144563896Y-101677336D01*
X144552914Y-101677815D01*
X142376500Y-101677815D01*
X142308379Y-101657813D01*
X142261886Y-101604157D01*
X142250500Y-101551815D01*
X142250500Y-101505252D01*
X142249094Y-101498185D01*
X142241288Y-101458939D01*
X142241288Y-101458938D01*
X142238867Y-101446769D01*
X142194552Y-101380448D01*
X142128231Y-101336133D01*
X142116062Y-101333712D01*
X142116061Y-101333712D01*
X142075816Y-101325707D01*
X142069748Y-101324500D01*
X139330252Y-101324500D01*
X139324184Y-101325707D01*
X139283939Y-101333712D01*
X139283938Y-101333712D01*
X139271769Y-101336133D01*
X139205448Y-101380448D01*
X139161133Y-101446769D01*
X139158712Y-101458938D01*
X139158712Y-101458939D01*
X139150906Y-101498185D01*
X139149500Y-101505252D01*
X139149500Y-102544748D01*
X139150707Y-102550816D01*
X139151314Y-102556979D01*
X139149487Y-102557159D01*
X139143928Y-102619269D01*
X139100373Y-102675336D01*
X139026678Y-102699135D01*
X138717319Y-102699135D01*
X138649198Y-102679133D01*
X138628224Y-102662230D01*
X137506873Y-101540879D01*
X136384094Y-100418101D01*
X136350069Y-100355789D01*
X136355133Y-100284974D01*
X136397680Y-100228138D01*
X136419794Y-100215545D01*
X136428231Y-100213867D01*
X136494552Y-100169552D01*
X136538867Y-100103231D01*
X136542205Y-100086453D01*
X136549293Y-100050816D01*
X136550500Y-100044748D01*
X136550500Y-99005252D01*
X136544451Y-98974842D01*
X136541288Y-98958939D01*
X136541288Y-98958938D01*
X136538867Y-98946769D01*
X136494552Y-98880448D01*
X136453097Y-98852748D01*
X136438547Y-98843026D01*
X136428231Y-98836133D01*
X136416062Y-98833712D01*
X136416061Y-98833712D01*
X136375816Y-98825707D01*
X136369748Y-98824500D01*
X133630252Y-98824500D01*
X133624184Y-98825707D01*
X133583939Y-98833712D01*
X133583938Y-98833712D01*
X133571769Y-98836133D01*
X133561453Y-98843026D01*
X133546903Y-98852748D01*
X133505448Y-98880448D01*
X133461133Y-98946769D01*
X133458369Y-98944922D01*
X133426470Y-98984502D01*
X133354614Y-99007000D01*
X133293684Y-99007000D01*
X133245466Y-98997409D01*
X133114392Y-98943116D01*
X133114389Y-98943115D01*
X133106762Y-98939956D01*
X132950000Y-98919318D01*
X132793238Y-98939956D01*
X132647159Y-99000464D01*
X132521718Y-99096718D01*
X132425464Y-99222159D01*
X132364956Y-99368238D01*
X132344318Y-99525000D01*
X132364956Y-99681762D01*
X132425464Y-99827841D01*
X132521718Y-99953282D01*
X132647159Y-100049536D01*
X132793238Y-100110044D01*
X132950000Y-100130682D01*
X132958188Y-100129604D01*
X133098574Y-100111122D01*
X133106762Y-100110044D01*
X133114389Y-100106885D01*
X133114392Y-100106884D01*
X133245466Y-100052591D01*
X133293684Y-100043000D01*
X133354614Y-100043000D01*
X133422735Y-100063002D01*
X133458068Y-100105279D01*
X133461133Y-100103231D01*
X133505448Y-100169552D01*
X133571769Y-100213867D01*
X133583938Y-100216288D01*
X133583939Y-100216288D01*
X133624184Y-100224293D01*
X133630252Y-100225500D01*
X135157317Y-100225500D01*
X135225438Y-100245502D01*
X135246412Y-100262405D01*
X136754455Y-101770449D01*
X138261210Y-103277204D01*
X138268637Y-103285308D01*
X138294711Y-103316382D01*
X138304257Y-103321893D01*
X138304259Y-103321895D01*
X138329830Y-103336658D01*
X138339100Y-103342564D01*
X138363299Y-103359508D01*
X138363302Y-103359509D01*
X138372330Y-103365831D01*
X138382974Y-103368683D01*
X138387009Y-103370565D01*
X138391201Y-103372091D01*
X138400744Y-103377600D01*
X138411599Y-103379514D01*
X138440687Y-103384643D01*
X138451411Y-103387021D01*
X138490594Y-103397520D01*
X138531011Y-103393984D01*
X138541993Y-103393505D01*
X140727997Y-103393505D01*
X140796118Y-103413507D01*
X140842611Y-103467163D01*
X140852715Y-103537437D01*
X140823221Y-103602017D01*
X140804701Y-103619468D01*
X140731679Y-103675500D01*
X140721718Y-103683143D01*
X140625464Y-103808584D01*
X140564956Y-103954663D01*
X140544318Y-104111425D01*
X140545396Y-104119613D01*
X140563408Y-104256425D01*
X140564956Y-104268187D01*
X140625464Y-104414266D01*
X140721718Y-104539707D01*
X140728264Y-104544730D01*
X140737002Y-104551435D01*
X140847159Y-104635961D01*
X140993238Y-104696469D01*
X141150000Y-104717107D01*
X141158188Y-104716029D01*
X141298574Y-104697547D01*
X141306762Y-104696469D01*
X141452841Y-104635961D01*
X141562998Y-104551435D01*
X141571736Y-104544730D01*
X141578282Y-104539707D01*
X141674536Y-104414266D01*
X141735044Y-104268187D01*
X141738997Y-104238163D01*
X141767720Y-104173236D01*
X141826986Y-104134145D01*
X141863919Y-104128610D01*
X142230143Y-104128610D01*
X142298264Y-104148612D01*
X142344757Y-104202268D01*
X142354861Y-104272542D01*
X142352725Y-104283758D01*
X142347895Y-104304071D01*
X142342369Y-104354939D01*
X142342000Y-104361753D01*
X142342000Y-104459310D01*
X142346475Y-104474549D01*
X142347865Y-104475754D01*
X142355548Y-104477425D01*
X143758000Y-104477425D01*
X143826121Y-104497427D01*
X143872614Y-104551083D01*
X143884000Y-104603425D01*
X143884000Y-104859425D01*
X143863998Y-104927546D01*
X143810342Y-104974039D01*
X143758000Y-104985425D01*
X142360116Y-104985425D01*
X142344877Y-104989900D01*
X142343672Y-104991290D01*
X142342001Y-104998973D01*
X142342001Y-105101094D01*
X142342371Y-105107915D01*
X142347895Y-105158774D01*
X142352726Y-105179095D01*
X142349023Y-105249995D01*
X142307577Y-105307638D01*
X142241546Y-105333723D01*
X142230143Y-105334240D01*
X141695694Y-105334240D01*
X141627573Y-105314238D01*
X141581080Y-105260582D01*
X141576812Y-105249989D01*
X141562083Y-105208046D01*
X141562082Y-105208044D01*
X141558961Y-105199157D01*
X141544524Y-105179610D01*
X141486303Y-105100785D01*
X141480711Y-105093214D01*
X141443341Y-105065612D01*
X141382345Y-105020560D01*
X141382343Y-105020559D01*
X141374768Y-105014964D01*
X141365881Y-105011843D01*
X141365879Y-105011842D01*
X141257748Y-104973869D01*
X141257746Y-104973868D01*
X141250500Y-104971324D01*
X141242856Y-104970601D01*
X141242854Y-104970601D01*
X141234879Y-104969847D01*
X141219833Y-104968425D01*
X140930147Y-104968425D01*
X140640168Y-104968426D01*
X140637218Y-104968705D01*
X140637213Y-104968705D01*
X140617150Y-104970601D01*
X140617149Y-104970601D01*
X140609500Y-104971324D01*
X140602252Y-104973869D01*
X140602249Y-104973870D01*
X140494121Y-105011842D01*
X140494119Y-105011843D01*
X140485232Y-105014964D01*
X140477657Y-105020559D01*
X140477655Y-105020560D01*
X140416659Y-105065612D01*
X140379289Y-105093214D01*
X140373697Y-105100785D01*
X140315477Y-105179610D01*
X140301039Y-105199157D01*
X140274408Y-105274991D01*
X140232967Y-105332634D01*
X140166937Y-105358722D01*
X140155527Y-105359240D01*
X139704473Y-105359240D01*
X139636352Y-105339238D01*
X139589859Y-105285582D01*
X139585598Y-105275009D01*
X139558961Y-105199157D01*
X139544524Y-105179610D01*
X139486303Y-105100785D01*
X139480711Y-105093214D01*
X139443341Y-105065612D01*
X139382345Y-105020560D01*
X139382343Y-105020559D01*
X139374768Y-105014964D01*
X139365881Y-105011843D01*
X139365879Y-105011842D01*
X139257748Y-104973869D01*
X139257746Y-104973868D01*
X139250500Y-104971324D01*
X139242856Y-104970601D01*
X139242854Y-104970601D01*
X139234879Y-104969847D01*
X139219833Y-104968425D01*
X138930147Y-104968425D01*
X138640168Y-104968426D01*
X138637218Y-104968705D01*
X138637213Y-104968705D01*
X138617150Y-104970601D01*
X138617149Y-104970601D01*
X138609500Y-104971324D01*
X138602252Y-104973869D01*
X138602249Y-104973870D01*
X138494121Y-105011842D01*
X138494119Y-105011843D01*
X138485232Y-105014964D01*
X138477657Y-105020559D01*
X138477655Y-105020560D01*
X138416659Y-105065612D01*
X138379289Y-105093214D01*
X138373697Y-105100785D01*
X138315477Y-105179610D01*
X138301039Y-105199157D01*
X138297917Y-105208047D01*
X138265629Y-105299989D01*
X138224186Y-105357634D01*
X138158156Y-105383722D01*
X138146747Y-105384240D01*
X137799309Y-105384240D01*
X137731188Y-105364238D01*
X137695469Y-105329608D01*
X137629312Y-105233349D01*
X137617514Y-105222837D01*
X137508392Y-105125612D01*
X137508388Y-105125610D01*
X137502721Y-105120560D01*
X137465373Y-105100785D01*
X137366211Y-105048282D01*
X137352881Y-105041224D01*
X137188441Y-104999919D01*
X137180843Y-104999879D01*
X137180841Y-104999879D01*
X137103668Y-104999475D01*
X137018895Y-104999031D01*
X137011508Y-105000805D01*
X137011504Y-105000805D01*
X136868162Y-105035220D01*
X136854032Y-105038612D01*
X136847288Y-105042093D01*
X136847285Y-105042094D01*
X136741411Y-105096740D01*
X136703369Y-105116375D01*
X136697647Y-105121367D01*
X136697645Y-105121368D01*
X136638058Y-105173349D01*
X136575604Y-105227831D01*
X136504074Y-105329608D01*
X136503313Y-105330691D01*
X136447779Y-105374922D01*
X136400226Y-105384240D01*
X133526356Y-105384240D01*
X133458235Y-105364238D01*
X133437339Y-105347413D01*
X133364611Y-105274812D01*
X133364607Y-105274809D01*
X133357238Y-105267453D01*
X133276182Y-105227831D01*
X133258198Y-105219040D01*
X133258196Y-105219039D01*
X133249415Y-105214747D01*
X133239742Y-105213336D01*
X133239739Y-105213335D01*
X133207750Y-105208669D01*
X133179172Y-105204500D01*
X132715828Y-105204500D01*
X132711280Y-105205169D01*
X132711273Y-105205170D01*
X132654659Y-105213504D01*
X132654657Y-105213505D01*
X132644974Y-105214930D01*
X132636186Y-105219245D01*
X132636185Y-105219245D01*
X132618698Y-105227831D01*
X132537243Y-105267824D01*
X132519516Y-105285582D01*
X132474486Y-105330691D01*
X132452453Y-105352762D01*
X132450180Y-105357412D01*
X132396741Y-105399369D01*
X132326060Y-105406062D01*
X132262981Y-105373480D01*
X132250599Y-105359216D01*
X132247176Y-105352243D01*
X132239810Y-105344890D01*
X132239808Y-105344887D01*
X132169607Y-105274809D01*
X132169606Y-105274809D01*
X132162238Y-105267453D01*
X132081182Y-105227831D01*
X132063198Y-105219040D01*
X132063196Y-105219039D01*
X132054415Y-105214747D01*
X132044742Y-105213336D01*
X132044739Y-105213335D01*
X132012750Y-105208669D01*
X131984172Y-105204500D01*
X131520828Y-105204500D01*
X131516280Y-105205169D01*
X131516273Y-105205170D01*
X131459659Y-105213504D01*
X131459657Y-105213505D01*
X131449974Y-105214930D01*
X131441186Y-105219245D01*
X131441185Y-105219245D01*
X131423698Y-105227831D01*
X131342243Y-105267824D01*
X131324516Y-105285582D01*
X131279486Y-105330691D01*
X131257453Y-105352762D01*
X131252881Y-105362115D01*
X131252879Y-105362118D01*
X131251033Y-105365895D01*
X131247164Y-105370130D01*
X131246831Y-105370597D01*
X131246774Y-105370557D01*
X131203148Y-105418312D01*
X131137833Y-105436562D01*
X130939051Y-105436562D01*
X130870930Y-105416560D01*
X130824437Y-105362904D01*
X130813051Y-105310562D01*
X130813051Y-104817416D01*
X130809933Y-104791216D01*
X130788679Y-104743365D01*
X130769214Y-104699544D01*
X130764490Y-104688909D01*
X130743428Y-104667883D01*
X130713492Y-104638000D01*
X130685264Y-104609821D01*
X130674627Y-104605118D01*
X130674625Y-104605117D01*
X130598555Y-104571487D01*
X130582878Y-104564556D01*
X130557197Y-104561562D01*
X130267905Y-104561562D01*
X130264201Y-104562003D01*
X130264198Y-104562003D01*
X130256805Y-104562883D01*
X130241705Y-104564680D01*
X130233065Y-104568518D01*
X130233064Y-104568518D01*
X130168314Y-104597279D01*
X130139398Y-104610123D01*
X130137683Y-104606261D01*
X130091405Y-104621415D01*
X130036463Y-104607108D01*
X130035263Y-104609821D01*
X130006895Y-104597279D01*
X129952679Y-104551439D01*
X129931853Y-104483566D01*
X129951028Y-104415208D01*
X129968749Y-104392944D01*
X130437226Y-103924467D01*
X130499538Y-103890441D01*
X130526321Y-103887562D01*
X130767911Y-103887562D01*
X130836032Y-103907564D01*
X130882525Y-103961220D01*
X130886793Y-103971813D01*
X130906020Y-104026562D01*
X130921039Y-104069330D01*
X130926634Y-104076905D01*
X130926635Y-104076907D01*
X130979597Y-104148612D01*
X130999289Y-104175273D01*
X131006860Y-104180865D01*
X131097655Y-104247927D01*
X131097657Y-104247928D01*
X131105232Y-104253523D01*
X131114119Y-104256644D01*
X131114121Y-104256645D01*
X131222252Y-104294618D01*
X131222254Y-104294619D01*
X131229500Y-104297163D01*
X131237144Y-104297886D01*
X131237146Y-104297886D01*
X131245121Y-104298640D01*
X131260167Y-104300062D01*
X131549853Y-104300062D01*
X131839832Y-104300061D01*
X131842782Y-104299782D01*
X131842787Y-104299782D01*
X131862850Y-104297886D01*
X131862851Y-104297886D01*
X131870500Y-104297163D01*
X131877748Y-104294618D01*
X131877751Y-104294617D01*
X131985879Y-104256645D01*
X131985881Y-104256644D01*
X131994768Y-104253523D01*
X132002343Y-104247928D01*
X132002345Y-104247927D01*
X132093140Y-104180865D01*
X132100711Y-104175273D01*
X132120403Y-104148612D01*
X132173365Y-104076907D01*
X132173366Y-104076905D01*
X132178961Y-104069330D01*
X132186911Y-104046694D01*
X132220056Y-103952310D01*
X132220057Y-103952308D01*
X132222601Y-103945062D01*
X132225500Y-103914395D01*
X132225499Y-103209730D01*
X132222601Y-103179062D01*
X132213207Y-103152311D01*
X132182083Y-103063683D01*
X132182082Y-103063681D01*
X132178961Y-103054794D01*
X132168557Y-103040707D01*
X132106303Y-102956422D01*
X132100711Y-102948851D01*
X132093140Y-102943259D01*
X132002345Y-102876197D01*
X132002343Y-102876196D01*
X131994768Y-102870601D01*
X131985881Y-102867480D01*
X131985879Y-102867479D01*
X131877748Y-102829506D01*
X131877746Y-102829505D01*
X131870500Y-102826961D01*
X131862856Y-102826238D01*
X131862854Y-102826238D01*
X131854879Y-102825484D01*
X131839833Y-102824062D01*
X131550147Y-102824062D01*
X131260168Y-102824063D01*
X131257218Y-102824342D01*
X131257213Y-102824342D01*
X131237150Y-102826238D01*
X131237149Y-102826238D01*
X131229500Y-102826961D01*
X131222252Y-102829506D01*
X131222249Y-102829507D01*
X131114121Y-102867479D01*
X131114119Y-102867480D01*
X131105232Y-102870601D01*
X131097657Y-102876196D01*
X131097655Y-102876197D01*
X131006860Y-102943259D01*
X130999289Y-102948851D01*
X130993697Y-102956422D01*
X130931444Y-103040707D01*
X130921039Y-103054794D01*
X130917917Y-103063684D01*
X130886793Y-103152311D01*
X130845350Y-103209956D01*
X130779320Y-103236044D01*
X130767911Y-103236562D01*
X130615898Y-103236562D01*
X130547777Y-103216560D01*
X130501284Y-103162904D01*
X130490377Y-103121544D01*
X130488041Y-103094844D01*
X130487562Y-103083862D01*
X130487562Y-101806283D01*
X130488042Y-101795301D01*
X130490365Y-101768753D01*
X130490365Y-101768751D01*
X130491326Y-101757766D01*
X130481570Y-101721358D01*
X130479192Y-101710631D01*
X130477578Y-101701476D01*
X130472650Y-101673528D01*
X130467139Y-101663983D01*
X130465947Y-101660707D01*
X130464470Y-101657539D01*
X130461616Y-101646889D01*
X130440007Y-101616029D01*
X130434101Y-101606758D01*
X130420769Y-101583667D01*
X130415256Y-101574118D01*
X130386378Y-101549886D01*
X130378277Y-101542462D01*
X130058856Y-101223041D01*
X130024830Y-101160729D01*
X130023208Y-101116196D01*
X130043041Y-100976840D01*
X130043196Y-100962062D01*
X130041391Y-100947142D01*
X130033427Y-100881339D01*
X130022827Y-100793742D01*
X129962896Y-100635139D01*
X129940515Y-100602574D01*
X129871165Y-100501670D01*
X129871164Y-100501669D01*
X129866863Y-100495411D01*
X129860670Y-100489893D01*
X129745943Y-100387674D01*
X129745939Y-100387672D01*
X129740272Y-100382622D01*
X129695579Y-100358958D01*
X129617967Y-100317865D01*
X129590432Y-100303286D01*
X129425992Y-100261981D01*
X129418394Y-100261941D01*
X129418392Y-100261941D01*
X129341219Y-100261537D01*
X129256446Y-100261093D01*
X129249059Y-100262867D01*
X129249055Y-100262867D01*
X129105713Y-100297282D01*
X129091583Y-100300674D01*
X129084839Y-100304155D01*
X129084836Y-100304156D01*
X128979043Y-100358760D01*
X128940920Y-100378437D01*
X128935198Y-100383429D01*
X128935196Y-100383430D01*
X128879478Y-100432036D01*
X128813155Y-100489893D01*
X128804878Y-100501670D01*
X128733962Y-100602574D01*
X128715664Y-100628609D01*
X128654075Y-100786575D01*
X128653083Y-100794108D01*
X128653083Y-100794109D01*
X128634927Y-100932023D01*
X128631945Y-100954673D01*
X128650550Y-101123197D01*
X128708817Y-101282418D01*
X128713053Y-101288721D01*
X128713055Y-101288726D01*
X128782299Y-101391773D01*
X128792962Y-101425516D01*
X128821937Y-101440029D01*
X128928784Y-101537253D01*
X128935457Y-101540876D01*
X128935461Y-101540879D01*
X129071109Y-101614529D01*
X129071111Y-101614530D01*
X129077786Y-101618154D01*
X129085135Y-101620082D01*
X129234434Y-101659250D01*
X129234436Y-101659250D01*
X129241784Y-101661178D01*
X129328160Y-101662535D01*
X129403712Y-101663722D01*
X129403715Y-101663722D01*
X129411311Y-101663841D01*
X129418714Y-101662146D01*
X129418719Y-101662145D01*
X129479817Y-101648152D01*
X129550684Y-101652442D01*
X129597040Y-101681877D01*
X129799657Y-101884494D01*
X129833683Y-101946806D01*
X129836562Y-101973589D01*
X129836562Y-102024319D01*
X129816560Y-102092440D01*
X129762904Y-102138933D01*
X129692630Y-102149037D01*
X129651603Y-102135674D01*
X129597141Y-102106838D01*
X129597139Y-102106837D01*
X129590432Y-102103286D01*
X129425992Y-102061981D01*
X129418394Y-102061941D01*
X129418392Y-102061941D01*
X129341219Y-102061537D01*
X129256446Y-102061093D01*
X129249059Y-102062867D01*
X129249055Y-102062867D01*
X129125879Y-102092440D01*
X129091583Y-102100674D01*
X129084839Y-102104155D01*
X129084836Y-102104156D01*
X128947668Y-102174954D01*
X128940920Y-102178437D01*
X128935198Y-102183429D01*
X128935196Y-102183430D01*
X128896391Y-102217282D01*
X128831909Y-102246990D01*
X128761602Y-102237120D01*
X128707792Y-102190806D01*
X128687562Y-102122333D01*
X128687562Y-101806283D01*
X128688042Y-101795301D01*
X128690365Y-101768753D01*
X128690365Y-101768751D01*
X128691326Y-101757766D01*
X128681570Y-101721358D01*
X128679192Y-101710631D01*
X128677578Y-101701476D01*
X128672650Y-101673528D01*
X128667139Y-101663983D01*
X128665947Y-101660707D01*
X128664470Y-101657539D01*
X128661616Y-101646889D01*
X128640007Y-101616029D01*
X128634099Y-101606755D01*
X128628017Y-101596220D01*
X128621497Y-101569342D01*
X128596723Y-101558567D01*
X128586378Y-101549886D01*
X128578277Y-101542462D01*
X128258856Y-101223041D01*
X128224830Y-101160729D01*
X128223208Y-101116196D01*
X128243041Y-100976840D01*
X128243196Y-100962062D01*
X128241391Y-100947142D01*
X128233427Y-100881339D01*
X128222827Y-100793742D01*
X128162896Y-100635139D01*
X128140515Y-100602574D01*
X128071165Y-100501670D01*
X128071164Y-100501669D01*
X128066863Y-100495411D01*
X128060670Y-100489893D01*
X127945943Y-100387674D01*
X127945939Y-100387672D01*
X127940272Y-100382622D01*
X127895579Y-100358958D01*
X127817967Y-100317865D01*
X127790432Y-100303286D01*
X127625992Y-100261981D01*
X127618394Y-100261941D01*
X127618392Y-100261941D01*
X127541219Y-100261537D01*
X127456446Y-100261093D01*
X127449059Y-100262867D01*
X127449055Y-100262867D01*
X127305713Y-100297282D01*
X127291583Y-100300674D01*
X127284839Y-100304155D01*
X127284836Y-100304156D01*
X127179043Y-100358760D01*
X127140920Y-100378437D01*
X127135198Y-100383429D01*
X127135196Y-100383430D01*
X127079478Y-100432036D01*
X127013155Y-100489893D01*
X127004878Y-100501670D01*
X126933962Y-100602574D01*
X126915664Y-100628609D01*
X126854075Y-100786575D01*
X126853083Y-100794108D01*
X126853083Y-100794109D01*
X126834927Y-100932023D01*
X126831945Y-100954673D01*
X126850550Y-101123197D01*
X126908817Y-101282418D01*
X127003381Y-101423145D01*
X127008993Y-101428252D01*
X127008996Y-101428255D01*
X127123163Y-101532139D01*
X127123167Y-101532142D01*
X127128784Y-101537253D01*
X127135457Y-101540876D01*
X127135461Y-101540879D01*
X127271109Y-101614529D01*
X127271111Y-101614530D01*
X127277786Y-101618154D01*
X127285135Y-101620082D01*
X127434434Y-101659250D01*
X127434436Y-101659250D01*
X127441784Y-101661178D01*
X127528160Y-101662535D01*
X127603712Y-101663722D01*
X127603715Y-101663722D01*
X127611311Y-101663841D01*
X127618714Y-101662146D01*
X127618719Y-101662145D01*
X127679817Y-101648152D01*
X127750684Y-101652442D01*
X127797040Y-101681877D01*
X127999657Y-101884494D01*
X128033683Y-101946806D01*
X128036562Y-101973589D01*
X128036562Y-102024319D01*
X128016560Y-102092440D01*
X127962904Y-102138933D01*
X127892630Y-102149037D01*
X127851603Y-102135674D01*
X127797141Y-102106838D01*
X127797139Y-102106837D01*
X127790432Y-102103286D01*
X127625992Y-102061981D01*
X127618394Y-102061941D01*
X127618392Y-102061941D01*
X127541219Y-102061537D01*
X127456446Y-102061093D01*
X127449059Y-102062867D01*
X127449055Y-102062867D01*
X127325879Y-102092440D01*
X127291583Y-102100674D01*
X127284839Y-102104155D01*
X127284836Y-102104156D01*
X127147668Y-102174954D01*
X127140920Y-102178437D01*
X127135198Y-102183429D01*
X127135196Y-102183430D01*
X127093092Y-102220160D01*
X127013155Y-102289893D01*
X126981446Y-102335010D01*
X126923566Y-102417366D01*
X126915664Y-102428609D01*
X126854075Y-102586575D01*
X126853083Y-102594108D01*
X126853083Y-102594109D01*
X126833577Y-102742278D01*
X126831945Y-102754673D01*
X126850550Y-102923197D01*
X126881697Y-103008309D01*
X126905822Y-103074233D01*
X126908817Y-103082418D01*
X127003381Y-103223145D01*
X127008993Y-103228252D01*
X127008996Y-103228255D01*
X127123163Y-103332139D01*
X127123167Y-103332142D01*
X127128784Y-103337253D01*
X127146172Y-103346694D01*
X127196493Y-103396774D01*
X127212051Y-103457425D01*
X127212051Y-103599685D01*
X127192049Y-103667806D01*
X127175146Y-103688780D01*
X126424831Y-104439095D01*
X126362519Y-104473121D01*
X126291704Y-104468056D01*
X126234868Y-104425509D01*
X126210057Y-104358989D01*
X126209736Y-104350000D01*
X126209736Y-104296851D01*
X126229738Y-104228730D01*
X126260874Y-104195502D01*
X126288262Y-104175273D01*
X126347678Y-104094830D01*
X126360916Y-104076907D01*
X126360917Y-104076905D01*
X126366512Y-104069330D01*
X126374462Y-104046694D01*
X126407607Y-103952310D01*
X126407608Y-103952308D01*
X126410152Y-103945062D01*
X126413051Y-103914395D01*
X126413050Y-103209730D01*
X126410152Y-103179062D01*
X126400758Y-103152311D01*
X126369634Y-103063683D01*
X126369633Y-103063681D01*
X126366512Y-103054794D01*
X126356108Y-103040707D01*
X126293854Y-102956422D01*
X126288262Y-102948851D01*
X126280691Y-102943259D01*
X126189896Y-102876197D01*
X126189894Y-102876196D01*
X126182319Y-102870601D01*
X126173432Y-102867480D01*
X126173430Y-102867479D01*
X126065299Y-102829506D01*
X126065297Y-102829505D01*
X126058051Y-102826961D01*
X126050407Y-102826238D01*
X126050405Y-102826238D01*
X126042430Y-102825484D01*
X126027384Y-102824062D01*
X125737698Y-102824062D01*
X125447719Y-102824063D01*
X125444769Y-102824342D01*
X125444764Y-102824342D01*
X125424701Y-102826238D01*
X125424700Y-102826238D01*
X125417051Y-102826961D01*
X125409803Y-102829506D01*
X125409800Y-102829507D01*
X125301672Y-102867479D01*
X125301670Y-102867480D01*
X125292783Y-102870601D01*
X125285208Y-102876196D01*
X125285206Y-102876197D01*
X125194411Y-102943259D01*
X125186840Y-102948851D01*
X125181248Y-102956422D01*
X125118995Y-103040707D01*
X125108590Y-103054794D01*
X125105469Y-103063681D01*
X125105468Y-103063683D01*
X125074344Y-103152311D01*
X125064950Y-103179062D01*
X125062051Y-103209729D01*
X125062052Y-103477393D01*
X125062052Y-103646815D01*
X125042050Y-103714936D01*
X124988395Y-103761429D01*
X124936052Y-103772815D01*
X124787525Y-103772815D01*
X124719404Y-103752813D01*
X124672911Y-103699157D01*
X124668643Y-103688565D01*
X124663961Y-103675232D01*
X124646710Y-103651875D01*
X124591303Y-103576860D01*
X124585711Y-103569289D01*
X124543506Y-103538116D01*
X124487345Y-103496635D01*
X124487343Y-103496634D01*
X124479768Y-103491039D01*
X124470881Y-103487918D01*
X124470879Y-103487917D01*
X124362748Y-103449944D01*
X124362746Y-103449943D01*
X124355500Y-103447399D01*
X124347856Y-103446676D01*
X124347854Y-103446676D01*
X124339879Y-103445922D01*
X124324833Y-103444500D01*
X123985172Y-103444500D01*
X123645168Y-103444501D01*
X123642218Y-103444780D01*
X123642213Y-103444780D01*
X123622150Y-103446676D01*
X123622149Y-103446676D01*
X123614500Y-103447399D01*
X123607252Y-103449944D01*
X123607249Y-103449945D01*
X123499121Y-103487917D01*
X123499119Y-103487918D01*
X123490232Y-103491039D01*
X123482657Y-103496634D01*
X123482655Y-103496635D01*
X123426494Y-103538116D01*
X123384289Y-103569289D01*
X123378697Y-103576860D01*
X123323291Y-103651875D01*
X123306039Y-103675232D01*
X123302918Y-103684119D01*
X123302917Y-103684121D01*
X123268084Y-103783311D01*
X123262399Y-103799500D01*
X123259500Y-103830167D01*
X123259501Y-104409832D01*
X123259780Y-104412781D01*
X123259780Y-104412787D01*
X123260982Y-104425509D01*
X123262399Y-104440500D01*
X123264944Y-104447748D01*
X123264945Y-104447751D01*
X123301357Y-104551435D01*
X123306039Y-104564768D01*
X123311634Y-104572343D01*
X123311635Y-104572345D01*
X123377884Y-104662039D01*
X123384289Y-104670711D01*
X123391860Y-104676303D01*
X123482655Y-104743365D01*
X123482657Y-104743366D01*
X123490232Y-104748961D01*
X123499119Y-104752082D01*
X123499121Y-104752083D01*
X123607252Y-104790056D01*
X123607254Y-104790057D01*
X123614500Y-104792601D01*
X123622144Y-104793324D01*
X123622146Y-104793324D01*
X123630121Y-104794078D01*
X123645167Y-104795500D01*
X123984828Y-104795500D01*
X124324832Y-104795499D01*
X124327782Y-104795220D01*
X124327787Y-104795220D01*
X124347850Y-104793324D01*
X124347851Y-104793324D01*
X124355500Y-104792601D01*
X124362748Y-104790056D01*
X124362751Y-104790055D01*
X124470879Y-104752083D01*
X124470881Y-104752082D01*
X124479768Y-104748961D01*
X124487343Y-104743366D01*
X124487345Y-104743365D01*
X124578140Y-104676303D01*
X124585711Y-104670711D01*
X124592116Y-104662039D01*
X124658365Y-104572345D01*
X124658366Y-104572343D01*
X124663961Y-104564768D01*
X124668644Y-104551434D01*
X124710087Y-104493790D01*
X124776116Y-104467703D01*
X124787525Y-104467185D01*
X125158952Y-104467185D01*
X125169934Y-104467664D01*
X125210339Y-104471199D01*
X125249511Y-104460703D01*
X125260235Y-104458325D01*
X125265084Y-104457470D01*
X125300189Y-104451280D01*
X125309733Y-104445770D01*
X125313909Y-104444250D01*
X125317957Y-104442363D01*
X125328603Y-104439510D01*
X125336764Y-104433795D01*
X125406314Y-104423235D01*
X125471125Y-104452218D01*
X125509979Y-104511640D01*
X125515366Y-104548090D01*
X125515366Y-104651303D01*
X125504606Y-104702251D01*
X125465045Y-104791735D01*
X125462051Y-104817416D01*
X125462051Y-106181708D01*
X125462492Y-106185412D01*
X125462492Y-106185415D01*
X125462949Y-106189253D01*
X125465169Y-106207908D01*
X125469007Y-106216548D01*
X125469007Y-106216549D01*
X125502729Y-106292467D01*
X125510612Y-106310215D01*
X125518845Y-106318434D01*
X125518846Y-106318435D01*
X125539563Y-106339116D01*
X125589838Y-106389303D01*
X125600475Y-106394006D01*
X125600477Y-106394007D01*
X125637153Y-106410221D01*
X125692224Y-106434568D01*
X125717905Y-106437562D01*
X126007197Y-106437562D01*
X126010901Y-106437121D01*
X126010904Y-106437121D01*
X126018297Y-106436241D01*
X126033397Y-106434444D01*
X126107205Y-106401660D01*
X126135704Y-106389001D01*
X126137419Y-106392863D01*
X126183697Y-106377709D01*
X126238639Y-106392016D01*
X126239838Y-106389303D01*
X126342224Y-106434568D01*
X126367905Y-106437562D01*
X126657197Y-106437562D01*
X126660901Y-106437121D01*
X126660904Y-106437121D01*
X126668297Y-106436241D01*
X126683397Y-106434444D01*
X126757205Y-106401660D01*
X126785704Y-106389001D01*
X126787419Y-106392863D01*
X126833697Y-106377709D01*
X126888639Y-106392016D01*
X126889838Y-106389303D01*
X126992224Y-106434568D01*
X127017905Y-106437562D01*
X127103001Y-106437562D01*
X127171122Y-106457564D01*
X127217615Y-106511220D01*
X127227719Y-106581494D01*
X127198225Y-106646074D01*
X127137202Y-106684831D01*
X126832269Y-106770831D01*
X126832263Y-106770833D01*
X126829873Y-106771507D01*
X126533435Y-106880869D01*
X126432207Y-106918214D01*
X126417141Y-106923772D01*
X126414906Y-106924802D01*
X126414902Y-106924804D01*
X126273573Y-106989957D01*
X126017628Y-107107949D01*
X125739520Y-107263697D01*
X125636267Y-107321522D01*
X125633797Y-107322905D01*
X125425558Y-107462046D01*
X125270811Y-107565445D01*
X125268015Y-107567313D01*
X125145695Y-107663742D01*
X124937096Y-107828188D01*
X124922536Y-107839666D01*
X124920722Y-107841343D01*
X124920716Y-107841348D01*
X124722029Y-108025013D01*
X124658429Y-108056565D01*
X124587867Y-108048724D01*
X124532745Y-108003979D01*
X124510500Y-107932488D01*
X124510500Y-106100252D01*
X124506515Y-106080216D01*
X124501288Y-106053939D01*
X124501288Y-106053938D01*
X124498867Y-106041769D01*
X124454552Y-105975448D01*
X124388231Y-105931133D01*
X124376062Y-105928712D01*
X124376061Y-105928712D01*
X124335816Y-105920707D01*
X124329748Y-105919500D01*
X122290252Y-105919500D01*
X122284184Y-105920707D01*
X122243939Y-105928712D01*
X122243938Y-105928712D01*
X122231769Y-105931133D01*
X122165448Y-105975448D01*
X122121133Y-106041769D01*
X122118712Y-106053938D01*
X122118712Y-106053939D01*
X122113485Y-106080216D01*
X122109500Y-106100252D01*
X122109500Y-106376000D01*
X122089498Y-106444121D01*
X122035842Y-106490614D01*
X121983500Y-106502000D01*
X120636500Y-106502000D01*
X120568379Y-106481998D01*
X120521886Y-106428342D01*
X120510500Y-106376000D01*
X120510500Y-106100252D01*
X120506515Y-106080216D01*
X120501288Y-106053939D01*
X120501288Y-106053938D01*
X120498867Y-106041769D01*
X120454552Y-105975448D01*
X120388231Y-105931133D01*
X120376062Y-105928712D01*
X120376061Y-105928712D01*
X120335816Y-105920707D01*
X120329748Y-105919500D01*
X118290252Y-105919500D01*
X118284184Y-105920707D01*
X118243939Y-105928712D01*
X118243938Y-105928712D01*
X118231769Y-105931133D01*
X118165448Y-105975448D01*
X118121133Y-106041769D01*
X118118712Y-106053938D01*
X118118712Y-106053939D01*
X118113485Y-106080216D01*
X118109500Y-106100252D01*
X118109500Y-106437067D01*
X118089498Y-106505188D01*
X118044202Y-106547481D01*
X118037048Y-106551414D01*
X118026390Y-106556636D01*
X117989139Y-106572756D01*
X117982464Y-106578161D01*
X117982463Y-106578162D01*
X117978660Y-106581242D01*
X117960068Y-106593735D01*
X117954041Y-106597048D01*
X117954037Y-106597050D01*
X117948252Y-106600231D01*
X117940613Y-106606825D01*
X117917811Y-106629627D01*
X117908010Y-106638453D01*
X117885518Y-106656666D01*
X117885516Y-106656668D01*
X117878844Y-106662071D01*
X117873870Y-106669070D01*
X117873869Y-106669071D01*
X117868948Y-106675996D01*
X117855337Y-106692101D01*
X117700595Y-106846843D01*
X117638283Y-106880869D01*
X117567468Y-106875804D01*
X117510632Y-106833257D01*
X117485821Y-106766737D01*
X117485500Y-106757748D01*
X117485499Y-106383134D01*
X117485499Y-106380168D01*
X117484298Y-106367453D01*
X117483324Y-106357150D01*
X117483324Y-106357149D01*
X117482601Y-106349500D01*
X117479846Y-106341654D01*
X117442083Y-106234121D01*
X117442082Y-106234119D01*
X117438961Y-106225232D01*
X117430439Y-106213693D01*
X117366303Y-106126860D01*
X117360711Y-106119289D01*
X117361298Y-106118856D01*
X117330879Y-106063150D01*
X117328000Y-106036367D01*
X117328000Y-104120000D01*
X117704318Y-104120000D01*
X117705704Y-104130524D01*
X117718633Y-104228730D01*
X117724956Y-104276762D01*
X117728116Y-104284391D01*
X117781355Y-104412920D01*
X117785464Y-104422841D01*
X117881718Y-104548282D01*
X118007159Y-104644536D01*
X118153238Y-104705044D01*
X118310000Y-104725682D01*
X118318188Y-104724604D01*
X118458574Y-104706122D01*
X118466762Y-104705044D01*
X118474389Y-104701885D01*
X118474392Y-104701884D01*
X118605466Y-104647591D01*
X118653684Y-104638000D01*
X118966316Y-104638000D01*
X119014534Y-104647591D01*
X119145608Y-104701884D01*
X119145611Y-104701885D01*
X119153238Y-104705044D01*
X119310000Y-104725682D01*
X119318188Y-104724604D01*
X119458574Y-104706122D01*
X119466762Y-104705044D01*
X119474389Y-104701885D01*
X119474392Y-104701884D01*
X119605466Y-104647591D01*
X119653684Y-104638000D01*
X121551367Y-104638000D01*
X121619488Y-104658002D01*
X121632864Y-104668782D01*
X121634289Y-104670711D01*
X121641860Y-104676303D01*
X121732655Y-104743365D01*
X121732657Y-104743366D01*
X121740232Y-104748961D01*
X121749119Y-104752082D01*
X121749121Y-104752083D01*
X121857252Y-104790056D01*
X121857254Y-104790057D01*
X121864500Y-104792601D01*
X121872144Y-104793324D01*
X121872146Y-104793324D01*
X121880121Y-104794078D01*
X121895167Y-104795500D01*
X122234828Y-104795500D01*
X122574832Y-104795499D01*
X122577782Y-104795220D01*
X122577787Y-104795220D01*
X122597850Y-104793324D01*
X122597851Y-104793324D01*
X122605500Y-104792601D01*
X122612748Y-104790056D01*
X122612751Y-104790055D01*
X122720879Y-104752083D01*
X122720881Y-104752082D01*
X122729768Y-104748961D01*
X122737343Y-104743366D01*
X122737345Y-104743365D01*
X122828140Y-104676303D01*
X122835711Y-104670711D01*
X122842116Y-104662039D01*
X122908365Y-104572345D01*
X122908366Y-104572343D01*
X122913961Y-104564768D01*
X122918644Y-104551435D01*
X122955056Y-104447748D01*
X122955057Y-104447746D01*
X122957601Y-104440500D01*
X122960500Y-104409833D01*
X122960499Y-103830168D01*
X122959181Y-103816214D01*
X122958324Y-103807150D01*
X122958324Y-103807149D01*
X122957601Y-103799500D01*
X122951916Y-103783311D01*
X122917083Y-103684121D01*
X122917082Y-103684119D01*
X122913961Y-103675232D01*
X122896710Y-103651875D01*
X122841303Y-103576860D01*
X122835711Y-103569289D01*
X122793506Y-103538116D01*
X122737345Y-103496635D01*
X122737343Y-103496634D01*
X122729768Y-103491039D01*
X122720881Y-103487918D01*
X122720879Y-103487917D01*
X122612748Y-103449944D01*
X122612746Y-103449943D01*
X122605500Y-103447399D01*
X122597856Y-103446676D01*
X122597854Y-103446676D01*
X122589879Y-103445922D01*
X122574833Y-103444500D01*
X122235172Y-103444500D01*
X121895168Y-103444501D01*
X121892218Y-103444780D01*
X121892213Y-103444780D01*
X121872150Y-103446676D01*
X121872149Y-103446676D01*
X121864500Y-103447399D01*
X121857252Y-103449944D01*
X121857249Y-103449945D01*
X121749121Y-103487917D01*
X121749119Y-103487918D01*
X121740232Y-103491039D01*
X121732657Y-103496634D01*
X121732655Y-103496635D01*
X121676494Y-103538116D01*
X121638566Y-103566130D01*
X121638564Y-103566131D01*
X121634289Y-103569289D01*
X121633856Y-103568702D01*
X121578150Y-103599121D01*
X121551367Y-103602000D01*
X119653684Y-103602000D01*
X119605466Y-103592409D01*
X119474392Y-103538116D01*
X119474389Y-103538115D01*
X119466762Y-103534956D01*
X119310000Y-103514318D01*
X119153238Y-103534956D01*
X119145611Y-103538115D01*
X119145608Y-103538116D01*
X119014534Y-103592409D01*
X118966316Y-103602000D01*
X118653684Y-103602000D01*
X118605466Y-103592409D01*
X118474392Y-103538116D01*
X118474389Y-103538115D01*
X118466762Y-103534956D01*
X118310000Y-103514318D01*
X118153238Y-103534956D01*
X118007159Y-103595464D01*
X117881718Y-103691718D01*
X117785464Y-103817159D01*
X117724956Y-103963238D01*
X117704318Y-104120000D01*
X117328000Y-104120000D01*
X117328000Y-101209240D01*
X117328111Y-101203964D01*
X117330189Y-101154379D01*
X117330549Y-101145794D01*
X117326922Y-101130328D01*
X117321282Y-101106280D01*
X117319119Y-101094611D01*
X117314774Y-101062898D01*
X117313609Y-101054390D01*
X117308252Y-101042010D01*
X117301220Y-101020747D01*
X117298141Y-101007619D01*
X117278583Y-100972044D01*
X117273361Y-100961384D01*
X117267198Y-100947142D01*
X117257244Y-100924139D01*
X117248759Y-100913661D01*
X117236266Y-100895069D01*
X117232951Y-100889040D01*
X117229769Y-100883251D01*
X117223175Y-100875612D01*
X117200364Y-100852801D01*
X117191539Y-100843000D01*
X117173337Y-100820522D01*
X117173336Y-100820521D01*
X117167929Y-100813844D01*
X117154009Y-100803952D01*
X117137901Y-100790339D01*
X116535700Y-100188138D01*
X116535675Y-100188112D01*
X116340589Y-99993026D01*
X116131803Y-99784241D01*
X116104489Y-99743363D01*
X116103304Y-99740502D01*
X116047036Y-99604659D01*
X115973356Y-99508637D01*
X115955805Y-99485764D01*
X115950782Y-99479218D01*
X115825341Y-99382964D01*
X115686635Y-99325510D01*
X115645758Y-99298196D01*
X115322404Y-98974842D01*
X115288378Y-98912530D01*
X115285499Y-98885747D01*
X115285499Y-98752966D01*
X118018257Y-98752966D01*
X118048565Y-98887446D01*
X118051645Y-98897275D01*
X118131770Y-99094603D01*
X118136413Y-99103794D01*
X118247694Y-99285388D01*
X118253777Y-99293699D01*
X118393213Y-99454667D01*
X118400580Y-99461883D01*
X118564434Y-99597916D01*
X118572881Y-99603831D01*
X118756756Y-99711279D01*
X118766043Y-99715729D01*
X118805484Y-99730790D01*
X118861987Y-99773778D01*
X118886280Y-99840489D01*
X118870650Y-99909743D01*
X118820059Y-99959554D01*
X118760535Y-99974500D01*
X118480252Y-99974500D01*
X118474184Y-99975707D01*
X118433939Y-99983712D01*
X118433938Y-99983712D01*
X118421769Y-99986133D01*
X118355448Y-100030448D01*
X118311133Y-100096769D01*
X118308712Y-100108938D01*
X118308712Y-100108939D01*
X118304602Y-100129604D01*
X118299500Y-100155252D01*
X118299500Y-101894748D01*
X118311133Y-101953231D01*
X118355448Y-102019552D01*
X118421769Y-102063867D01*
X118433938Y-102066288D01*
X118433939Y-102066288D01*
X118474184Y-102074293D01*
X118480252Y-102075500D01*
X120219748Y-102075500D01*
X120225816Y-102074293D01*
X120266061Y-102066288D01*
X120266062Y-102066288D01*
X120278231Y-102063867D01*
X120344552Y-102019552D01*
X120388867Y-101953231D01*
X120400500Y-101894748D01*
X120400500Y-101498185D01*
X120420502Y-101430064D01*
X120474158Y-101383571D01*
X120526500Y-101372185D01*
X121979935Y-101372185D01*
X122048056Y-101392187D01*
X122094549Y-101445843D01*
X122098809Y-101456416D01*
X122121039Y-101519716D01*
X122126634Y-101527291D01*
X122126635Y-101527293D01*
X122186131Y-101607844D01*
X122199289Y-101625659D01*
X122206860Y-101631251D01*
X122297655Y-101698313D01*
X122297657Y-101698314D01*
X122305232Y-101703909D01*
X122314119Y-101707030D01*
X122314121Y-101707031D01*
X122422252Y-101745004D01*
X122422254Y-101745005D01*
X122429500Y-101747549D01*
X122437144Y-101748272D01*
X122437146Y-101748272D01*
X122445121Y-101749026D01*
X122460167Y-101750448D01*
X122489682Y-101750448D01*
X122957366Y-101750447D01*
X123025487Y-101770449D01*
X123046462Y-101787352D01*
X123326275Y-102067166D01*
X123360300Y-102129478D01*
X123362101Y-102172706D01*
X123356869Y-102212448D01*
X123357947Y-102220636D01*
X123373005Y-102335010D01*
X123377507Y-102369210D01*
X123438015Y-102515289D01*
X123470005Y-102556979D01*
X123516189Y-102617167D01*
X123534269Y-102640730D01*
X123659710Y-102736984D01*
X123805789Y-102797492D01*
X123962551Y-102818130D01*
X123970739Y-102817052D01*
X124111125Y-102798570D01*
X124119313Y-102797492D01*
X124265392Y-102736984D01*
X124390833Y-102640730D01*
X124408914Y-102617167D01*
X124455097Y-102556979D01*
X124487087Y-102515289D01*
X124547595Y-102369210D01*
X124552098Y-102335010D01*
X124567155Y-102220636D01*
X124568233Y-102212448D01*
X124552434Y-102092440D01*
X124548673Y-102063874D01*
X124547595Y-102055686D01*
X124487087Y-101909607D01*
X124399377Y-101795301D01*
X124395856Y-101790712D01*
X124390833Y-101784166D01*
X124265392Y-101687912D01*
X124131838Y-101632592D01*
X124126942Y-101630564D01*
X124119313Y-101627404D01*
X124106059Y-101625659D01*
X123970739Y-101607844D01*
X123962551Y-101606766D01*
X123922809Y-101611998D01*
X123852660Y-101601058D01*
X123817268Y-101576171D01*
X123462405Y-101221308D01*
X123428379Y-101158996D01*
X123425500Y-101132213D01*
X123425499Y-100663082D01*
X123425499Y-100660116D01*
X123424658Y-100651209D01*
X123423324Y-100637098D01*
X123423324Y-100637097D01*
X123422601Y-100629448D01*
X123420055Y-100622197D01*
X123382083Y-100514069D01*
X123382082Y-100514067D01*
X123378961Y-100505180D01*
X123373284Y-100497493D01*
X123306303Y-100406808D01*
X123300711Y-100399237D01*
X123278216Y-100382622D01*
X123202345Y-100326583D01*
X123202343Y-100326582D01*
X123194768Y-100320987D01*
X123185881Y-100317866D01*
X123185879Y-100317865D01*
X123077748Y-100279892D01*
X123077746Y-100279891D01*
X123070500Y-100277347D01*
X123062856Y-100276624D01*
X123062854Y-100276624D01*
X123054879Y-100275870D01*
X123039833Y-100274448D01*
X122750147Y-100274448D01*
X122460168Y-100274449D01*
X122457218Y-100274728D01*
X122457213Y-100274728D01*
X122437150Y-100276624D01*
X122437149Y-100276624D01*
X122429500Y-100277347D01*
X122422252Y-100279892D01*
X122422249Y-100279893D01*
X122314121Y-100317865D01*
X122314119Y-100317866D01*
X122305232Y-100320987D01*
X122297657Y-100326582D01*
X122297655Y-100326583D01*
X122221784Y-100382622D01*
X122199289Y-100399237D01*
X122193697Y-100406808D01*
X122126717Y-100497493D01*
X122121039Y-100505180D01*
X122090000Y-100593566D01*
X122048559Y-100651209D01*
X121982529Y-100677297D01*
X121971119Y-100677815D01*
X120526500Y-100677815D01*
X120458379Y-100657813D01*
X120411886Y-100604157D01*
X120400500Y-100551815D01*
X120400500Y-100155252D01*
X120395398Y-100129604D01*
X120391288Y-100108939D01*
X120391288Y-100108938D01*
X120388867Y-100096769D01*
X120344552Y-100030448D01*
X120278231Y-99986133D01*
X120266062Y-99983712D01*
X120266061Y-99983712D01*
X120225816Y-99975707D01*
X120219748Y-99974500D01*
X119940107Y-99974500D01*
X119871986Y-99954498D01*
X119825493Y-99900842D01*
X119815389Y-99830568D01*
X119844883Y-99765988D01*
X119884675Y-99735349D01*
X120043090Y-99657742D01*
X120051945Y-99652464D01*
X120225328Y-99528792D01*
X120233200Y-99522139D01*
X120384052Y-99371812D01*
X120390730Y-99363965D01*
X120515003Y-99191020D01*
X120520313Y-99182183D01*
X120614670Y-98991267D01*
X120618469Y-98981672D01*
X120680377Y-98777910D01*
X120682555Y-98767837D01*
X120683986Y-98756962D01*
X120681775Y-98742778D01*
X120668617Y-98739000D01*
X118033225Y-98739000D01*
X118019694Y-98742973D01*
X118018257Y-98752966D01*
X115285499Y-98752966D01*
X115285499Y-98655168D01*
X115285091Y-98650845D01*
X115283324Y-98632150D01*
X115283324Y-98632149D01*
X115282601Y-98624500D01*
X115277602Y-98610265D01*
X115242083Y-98509121D01*
X115242082Y-98509119D01*
X115238961Y-98500232D01*
X115232241Y-98491133D01*
X115166303Y-98401860D01*
X115160711Y-98394289D01*
X115123874Y-98367081D01*
X115062345Y-98321635D01*
X115062343Y-98321634D01*
X115054768Y-98316039D01*
X115045881Y-98312918D01*
X115045879Y-98312917D01*
X114937748Y-98274944D01*
X114937746Y-98274943D01*
X114930500Y-98272399D01*
X114922856Y-98271676D01*
X114922854Y-98271676D01*
X114914879Y-98270922D01*
X114899833Y-98269500D01*
X114882066Y-98269500D01*
X114621304Y-98269501D01*
X114553185Y-98249499D01*
X114532210Y-98232596D01*
X114518797Y-98219183D01*
X118014389Y-98219183D01*
X118015912Y-98227607D01*
X118028292Y-98231000D01*
X119077885Y-98231000D01*
X119093124Y-98226525D01*
X119094329Y-98225135D01*
X119096000Y-98217452D01*
X119096000Y-98212885D01*
X119604000Y-98212885D01*
X119608475Y-98228124D01*
X119609865Y-98229329D01*
X119617548Y-98231000D01*
X120668344Y-98231000D01*
X120681875Y-98227027D01*
X120683180Y-98217947D01*
X120641214Y-98050875D01*
X120637894Y-98041124D01*
X120552972Y-97845814D01*
X120548105Y-97836739D01*
X120432426Y-97657926D01*
X120426136Y-97649757D01*
X120282806Y-97492240D01*
X120275273Y-97485215D01*
X120108139Y-97353222D01*
X120099552Y-97347517D01*
X119913117Y-97244599D01*
X119903705Y-97240369D01*
X119702959Y-97169280D01*
X119692988Y-97166646D01*
X119621837Y-97153972D01*
X119608540Y-97155432D01*
X119604000Y-97169989D01*
X119604000Y-98212885D01*
X119096000Y-98212885D01*
X119096000Y-97168102D01*
X119092082Y-97154758D01*
X119077806Y-97152771D01*
X119039324Y-97158660D01*
X119029288Y-97161051D01*
X118826868Y-97227212D01*
X118817359Y-97231209D01*
X118628463Y-97329542D01*
X118619738Y-97335036D01*
X118449433Y-97462905D01*
X118441726Y-97469748D01*
X118294590Y-97623717D01*
X118288104Y-97631727D01*
X118168098Y-97807649D01*
X118163000Y-97816623D01*
X118073338Y-98009783D01*
X118069775Y-98019470D01*
X118014389Y-98219183D01*
X114518797Y-98219183D01*
X114485209Y-98185595D01*
X114451183Y-98123283D01*
X114456248Y-98052468D01*
X114498795Y-97995632D01*
X114565315Y-97970821D01*
X114574304Y-97970500D01*
X114893145Y-97970499D01*
X114899832Y-97970499D01*
X114902782Y-97970220D01*
X114902787Y-97970220D01*
X114922850Y-97968324D01*
X114922851Y-97968324D01*
X114930500Y-97967601D01*
X114937748Y-97965056D01*
X114937751Y-97965055D01*
X115045879Y-97927083D01*
X115045881Y-97927082D01*
X115054768Y-97923961D01*
X115062343Y-97918366D01*
X115062345Y-97918365D01*
X115153140Y-97851303D01*
X115160711Y-97845711D01*
X115209304Y-97779921D01*
X115233365Y-97747345D01*
X115233366Y-97747343D01*
X115238961Y-97739768D01*
X115244396Y-97724293D01*
X115280056Y-97622748D01*
X115280057Y-97622746D01*
X115282601Y-97615500D01*
X115285500Y-97584833D01*
X115285499Y-97117989D01*
X126351329Y-97117989D01*
X126371967Y-97274751D01*
X126432475Y-97420830D01*
X126464060Y-97461992D01*
X126518290Y-97532666D01*
X126528729Y-97546271D01*
X126654170Y-97642525D01*
X126800249Y-97703033D01*
X126808437Y-97704111D01*
X126875971Y-97713002D01*
X126957011Y-97723671D01*
X126965199Y-97722593D01*
X127105585Y-97704111D01*
X127113773Y-97703033D01*
X127121400Y-97699874D01*
X127121403Y-97699873D01*
X127252477Y-97645580D01*
X127300695Y-97635989D01*
X127513327Y-97635989D01*
X127561545Y-97645580D01*
X127692619Y-97699873D01*
X127692622Y-97699874D01*
X127700249Y-97703033D01*
X127708437Y-97704111D01*
X127775971Y-97713002D01*
X127857011Y-97723671D01*
X127865199Y-97722593D01*
X128005585Y-97704111D01*
X128013773Y-97703033D01*
X128021400Y-97699874D01*
X128021403Y-97699873D01*
X128152477Y-97645580D01*
X128200695Y-97635989D01*
X128706675Y-97635989D01*
X128774796Y-97655991D01*
X128821289Y-97709647D01*
X128831393Y-97779921D01*
X128801899Y-97844501D01*
X128748424Y-97880871D01*
X128714121Y-97892917D01*
X128714119Y-97892918D01*
X128705232Y-97896039D01*
X128697657Y-97901634D01*
X128697655Y-97901635D01*
X128626811Y-97953961D01*
X128599289Y-97974289D01*
X128593697Y-97981860D01*
X128541546Y-98052468D01*
X128521039Y-98080232D01*
X128517918Y-98089119D01*
X128517917Y-98089121D01*
X128484038Y-98185595D01*
X128477399Y-98204500D01*
X128474500Y-98235167D01*
X128474501Y-98814832D01*
X128474780Y-98817781D01*
X128474780Y-98817787D01*
X128475669Y-98827194D01*
X128477399Y-98845500D01*
X128479944Y-98852748D01*
X128479945Y-98852751D01*
X128512314Y-98944922D01*
X128521039Y-98969768D01*
X128526634Y-98977343D01*
X128526635Y-98977345D01*
X128551817Y-99011439D01*
X128599289Y-99075711D01*
X128606860Y-99081303D01*
X128697655Y-99148365D01*
X128697657Y-99148366D01*
X128705232Y-99153961D01*
X128714119Y-99157082D01*
X128714121Y-99157083D01*
X128822252Y-99195056D01*
X128822254Y-99195057D01*
X128829500Y-99197601D01*
X128837144Y-99198324D01*
X128837146Y-99198324D01*
X128845121Y-99199078D01*
X128860167Y-99200500D01*
X129199828Y-99200500D01*
X129539832Y-99200499D01*
X129542782Y-99200220D01*
X129542787Y-99200220D01*
X129562850Y-99198324D01*
X129562851Y-99198324D01*
X129570500Y-99197601D01*
X129577748Y-99195056D01*
X129577751Y-99195055D01*
X129685879Y-99157083D01*
X129685881Y-99157082D01*
X129694768Y-99153961D01*
X129702343Y-99148366D01*
X129702345Y-99148365D01*
X129793140Y-99081303D01*
X129800711Y-99075711D01*
X129848183Y-99011439D01*
X129873365Y-98977345D01*
X129873366Y-98977343D01*
X129878961Y-98969768D01*
X129887687Y-98944922D01*
X129920056Y-98852748D01*
X129920057Y-98852746D01*
X129922601Y-98845500D01*
X129923487Y-98836133D01*
X129924586Y-98824500D01*
X129925500Y-98814833D01*
X129925499Y-98559252D01*
X129945501Y-98491133D01*
X129962404Y-98470158D01*
X130887814Y-97544748D01*
X139149500Y-97544748D01*
X139150707Y-97550816D01*
X139157251Y-97583713D01*
X139161133Y-97603231D01*
X139205448Y-97669552D01*
X139271769Y-97713867D01*
X139283938Y-97716288D01*
X139283939Y-97716288D01*
X139321057Y-97723671D01*
X139330252Y-97725500D01*
X142069748Y-97725500D01*
X142078943Y-97723671D01*
X142116061Y-97716288D01*
X142116062Y-97716288D01*
X142128231Y-97713867D01*
X142194552Y-97669552D01*
X142238867Y-97603231D01*
X142242750Y-97583713D01*
X142249293Y-97550816D01*
X142250500Y-97544748D01*
X142250500Y-96505252D01*
X142246988Y-96487595D01*
X142241288Y-96458939D01*
X142241288Y-96458938D01*
X142238867Y-96446769D01*
X142194552Y-96380448D01*
X142128231Y-96336133D01*
X142116062Y-96333712D01*
X142116061Y-96333712D01*
X142075816Y-96325707D01*
X142069748Y-96324500D01*
X139330252Y-96324500D01*
X139324184Y-96325707D01*
X139283939Y-96333712D01*
X139283938Y-96333712D01*
X139271769Y-96336133D01*
X139205448Y-96380448D01*
X139161133Y-96446769D01*
X139158712Y-96458938D01*
X139158712Y-96458939D01*
X139153012Y-96487595D01*
X139149500Y-96505252D01*
X139149500Y-97544748D01*
X130887814Y-97544748D01*
X130995158Y-97437404D01*
X131057470Y-97403378D01*
X131084253Y-97400499D01*
X131277332Y-97400499D01*
X131280282Y-97400220D01*
X131280287Y-97400220D01*
X131300350Y-97398324D01*
X131300351Y-97398324D01*
X131308000Y-97397601D01*
X131315248Y-97395056D01*
X131315251Y-97395055D01*
X131423379Y-97357083D01*
X131423381Y-97357082D01*
X131432268Y-97353961D01*
X131439843Y-97348366D01*
X131439845Y-97348365D01*
X131530640Y-97281303D01*
X131538211Y-97275711D01*
X131555463Y-97252354D01*
X131610865Y-97177345D01*
X131610866Y-97177343D01*
X131616461Y-97169768D01*
X131621496Y-97155432D01*
X131657556Y-97052748D01*
X131657557Y-97052746D01*
X131660101Y-97045500D01*
X131663000Y-97014833D01*
X131662999Y-96435168D01*
X131660101Y-96404500D01*
X131657555Y-96397249D01*
X131619583Y-96289121D01*
X131619582Y-96289119D01*
X131616461Y-96280232D01*
X131586407Y-96239541D01*
X131543803Y-96181860D01*
X131538211Y-96174289D01*
X131515449Y-96157477D01*
X131439845Y-96101635D01*
X131439843Y-96101634D01*
X131432268Y-96096039D01*
X131423381Y-96092918D01*
X131423379Y-96092917D01*
X131315248Y-96054944D01*
X131315246Y-96054943D01*
X131308000Y-96052399D01*
X131300356Y-96051676D01*
X131300354Y-96051676D01*
X131292379Y-96050922D01*
X131277333Y-96049500D01*
X130975153Y-96049500D01*
X130672668Y-96049501D01*
X130669718Y-96049780D01*
X130669713Y-96049780D01*
X130649650Y-96051676D01*
X130649649Y-96051676D01*
X130642000Y-96052399D01*
X130634752Y-96054944D01*
X130634749Y-96054945D01*
X130526621Y-96092917D01*
X130526619Y-96092918D01*
X130517732Y-96096039D01*
X130510157Y-96101634D01*
X130510155Y-96101635D01*
X130434551Y-96157477D01*
X130411789Y-96174289D01*
X130406197Y-96181860D01*
X130363594Y-96239541D01*
X130333539Y-96280232D01*
X130330418Y-96289119D01*
X130330417Y-96289121D01*
X130292445Y-96397249D01*
X130289899Y-96404500D01*
X130287000Y-96435167D01*
X130287000Y-96628248D01*
X130266998Y-96696369D01*
X130250095Y-96717343D01*
X130053095Y-96914343D01*
X129990783Y-96948369D01*
X129919968Y-96943304D01*
X129863132Y-96900757D01*
X129838321Y-96834237D01*
X129838000Y-96825248D01*
X129837999Y-96438134D01*
X129837999Y-96435168D01*
X129835101Y-96404500D01*
X129832555Y-96397249D01*
X129794583Y-96289121D01*
X129794582Y-96289119D01*
X129791461Y-96280232D01*
X129761407Y-96239541D01*
X129718803Y-96181860D01*
X129713211Y-96174289D01*
X129690449Y-96157477D01*
X129614845Y-96101635D01*
X129614843Y-96101634D01*
X129607268Y-96096039D01*
X129598381Y-96092918D01*
X129598379Y-96092917D01*
X129490248Y-96054944D01*
X129490246Y-96054943D01*
X129483000Y-96052399D01*
X129475356Y-96051676D01*
X129475354Y-96051676D01*
X129467379Y-96050922D01*
X129452333Y-96049500D01*
X129150153Y-96049500D01*
X128847668Y-96049501D01*
X128844718Y-96049780D01*
X128844713Y-96049780D01*
X128824650Y-96051676D01*
X128824649Y-96051676D01*
X128817000Y-96052399D01*
X128809752Y-96054944D01*
X128809749Y-96054945D01*
X128701621Y-96092917D01*
X128701619Y-96092918D01*
X128692732Y-96096039D01*
X128685157Y-96101634D01*
X128685155Y-96101635D01*
X128609551Y-96157477D01*
X128586789Y-96174289D01*
X128581197Y-96181860D01*
X128538594Y-96239541D01*
X128508539Y-96280232D01*
X128505418Y-96289119D01*
X128505417Y-96289121D01*
X128467445Y-96397249D01*
X128464899Y-96404500D01*
X128462000Y-96435167D01*
X128462000Y-96473989D01*
X128441998Y-96542110D01*
X128388342Y-96588603D01*
X128336000Y-96599989D01*
X128200695Y-96599989D01*
X128152477Y-96590398D01*
X128021403Y-96536105D01*
X128021400Y-96536104D01*
X128013773Y-96532945D01*
X127857011Y-96512307D01*
X127700249Y-96532945D01*
X127692622Y-96536104D01*
X127692619Y-96536105D01*
X127561545Y-96590398D01*
X127513327Y-96599989D01*
X127300695Y-96599989D01*
X127252477Y-96590398D01*
X127121403Y-96536105D01*
X127121400Y-96536104D01*
X127113773Y-96532945D01*
X126957011Y-96512307D01*
X126800249Y-96532945D01*
X126654170Y-96593453D01*
X126528729Y-96689707D01*
X126523706Y-96696253D01*
X126508737Y-96715761D01*
X126432475Y-96815148D01*
X126371967Y-96961227D01*
X126351329Y-97117989D01*
X115285499Y-97117989D01*
X115285499Y-96905168D01*
X115282601Y-96874500D01*
X115280055Y-96867249D01*
X115242083Y-96759121D01*
X115242082Y-96759119D01*
X115238961Y-96750232D01*
X115205884Y-96705448D01*
X115166303Y-96651860D01*
X115160711Y-96644289D01*
X115150840Y-96636998D01*
X115062345Y-96571635D01*
X115062343Y-96571634D01*
X115054768Y-96566039D01*
X115045881Y-96562918D01*
X115045879Y-96562917D01*
X114937748Y-96524944D01*
X114937746Y-96524943D01*
X114930500Y-96522399D01*
X114922856Y-96521676D01*
X114922854Y-96521676D01*
X114914879Y-96520922D01*
X114899833Y-96519500D01*
X114794254Y-96519500D01*
X114726133Y-96499498D01*
X114705159Y-96482596D01*
X113986363Y-95763801D01*
X113982710Y-95759991D01*
X113949108Y-95723449D01*
X113943290Y-95717122D01*
X113908784Y-95695727D01*
X113899015Y-95689012D01*
X113873525Y-95669663D01*
X113873518Y-95669659D01*
X113866679Y-95664468D01*
X113854142Y-95659504D01*
X113834134Y-95649441D01*
X113829970Y-95646859D01*
X113829964Y-95646856D01*
X113822670Y-95642334D01*
X113783693Y-95631010D01*
X113772467Y-95627166D01*
X113742714Y-95615386D01*
X113742706Y-95615384D01*
X113734722Y-95612223D01*
X113726177Y-95611325D01*
X113726174Y-95611324D01*
X113721308Y-95610812D01*
X113699336Y-95606502D01*
X113692720Y-95604580D01*
X113692718Y-95604580D01*
X113686382Y-95602739D01*
X113676318Y-95602000D01*
X113644062Y-95602000D01*
X113630891Y-95601310D01*
X113593576Y-95597388D01*
X113585110Y-95598820D01*
X113585107Y-95598820D01*
X113576736Y-95600236D01*
X113555724Y-95602000D01*
X112406740Y-95602000D01*
X112401464Y-95601889D01*
X112390106Y-95601413D01*
X112343294Y-95599451D01*
X112334930Y-95601413D01*
X112334927Y-95601413D01*
X112303780Y-95608718D01*
X112292112Y-95610881D01*
X112288879Y-95611324D01*
X112251890Y-95616391D01*
X112244008Y-95619802D01*
X112239518Y-95621745D01*
X112218250Y-95628779D01*
X112213485Y-95629897D01*
X112213484Y-95629897D01*
X112205120Y-95631859D01*
X112186066Y-95642334D01*
X112169551Y-95651413D01*
X112158894Y-95656634D01*
X112121639Y-95672756D01*
X112114962Y-95678163D01*
X112111161Y-95681241D01*
X112092569Y-95693734D01*
X112080751Y-95700231D01*
X112073113Y-95706825D01*
X112050311Y-95729627D01*
X112040510Y-95738453D01*
X112018018Y-95756666D01*
X112018016Y-95756668D01*
X112011344Y-95762071D01*
X112006370Y-95769070D01*
X112006369Y-95769071D01*
X112001448Y-95775996D01*
X111987837Y-95792101D01*
X111292343Y-96487595D01*
X111230031Y-96521621D01*
X111203249Y-96524500D01*
X110976046Y-96524501D01*
X110960168Y-96524501D01*
X110957218Y-96524780D01*
X110957213Y-96524780D01*
X110937150Y-96526676D01*
X110937149Y-96526676D01*
X110929500Y-96527399D01*
X110922252Y-96529944D01*
X110922249Y-96529945D01*
X110814121Y-96567917D01*
X110814119Y-96567918D01*
X110805232Y-96571039D01*
X110797657Y-96576634D01*
X110797655Y-96576635D01*
X110722220Y-96632352D01*
X110655541Y-96656734D01*
X110647361Y-96657000D01*
X110049863Y-96657000D01*
X110025282Y-96654579D01*
X110005816Y-96650707D01*
X109999748Y-96649500D01*
X108400252Y-96649500D01*
X108394184Y-96650707D01*
X108353939Y-96658712D01*
X108353938Y-96658712D01*
X108341769Y-96661133D01*
X108275448Y-96705448D01*
X108231133Y-96771769D01*
X108219500Y-96830252D01*
X108219500Y-97519748D01*
X108220707Y-97525816D01*
X108228548Y-97565233D01*
X108231133Y-97578231D01*
X108275448Y-97644552D01*
X108341769Y-97688867D01*
X108353938Y-97691288D01*
X108353939Y-97691288D01*
X108374718Y-97695421D01*
X108400252Y-97700500D01*
X109999748Y-97700500D01*
X110025282Y-97695421D01*
X110049863Y-97693000D01*
X110506118Y-97693000D01*
X110574239Y-97713002D01*
X110617472Y-97760040D01*
X110617920Y-97760885D01*
X110621039Y-97769768D01*
X110699289Y-97875711D01*
X110706860Y-97881303D01*
X110797655Y-97948365D01*
X110797657Y-97948366D01*
X110805232Y-97953961D01*
X110814119Y-97957082D01*
X110814121Y-97957083D01*
X110922252Y-97995056D01*
X110922254Y-97995057D01*
X110929500Y-97997601D01*
X110937144Y-97998324D01*
X110937146Y-97998324D01*
X110945121Y-97999078D01*
X110960167Y-98000500D01*
X111249853Y-98000500D01*
X111539832Y-98000499D01*
X111542782Y-98000220D01*
X111542787Y-98000220D01*
X111562850Y-97998324D01*
X111562851Y-97998324D01*
X111570500Y-97997601D01*
X111577748Y-97995056D01*
X111577751Y-97995055D01*
X111685879Y-97957083D01*
X111685881Y-97957082D01*
X111694768Y-97953961D01*
X111702343Y-97948366D01*
X111702345Y-97948365D01*
X111793140Y-97881303D01*
X111800711Y-97875711D01*
X111808306Y-97865428D01*
X111873365Y-97777345D01*
X111873366Y-97777343D01*
X111878961Y-97769768D01*
X111882378Y-97760040D01*
X111920056Y-97652748D01*
X111920057Y-97652746D01*
X111922601Y-97645500D01*
X111923358Y-97637498D01*
X111924860Y-97621598D01*
X111925500Y-97614833D01*
X111925500Y-97371752D01*
X111945502Y-97303631D01*
X111962405Y-97282657D01*
X112059405Y-97185657D01*
X112121717Y-97151631D01*
X112192532Y-97156696D01*
X112249368Y-97199243D01*
X112274179Y-97265763D01*
X112274500Y-97274752D01*
X112274501Y-97444276D01*
X112274501Y-97614832D01*
X112274780Y-97617781D01*
X112274780Y-97617787D01*
X112276335Y-97634239D01*
X112277399Y-97645500D01*
X112279944Y-97652748D01*
X112279945Y-97652751D01*
X112317623Y-97760040D01*
X112321039Y-97769768D01*
X112326634Y-97777343D01*
X112326635Y-97777345D01*
X112391694Y-97865428D01*
X112399289Y-97875711D01*
X112406860Y-97881303D01*
X112497655Y-97948365D01*
X112497657Y-97948366D01*
X112505232Y-97953961D01*
X112514119Y-97957082D01*
X112514121Y-97957083D01*
X112622252Y-97995056D01*
X112622254Y-97995057D01*
X112629500Y-97997601D01*
X112637144Y-97998324D01*
X112637146Y-97998324D01*
X112645121Y-97999078D01*
X112660167Y-98000500D01*
X112782800Y-98000500D01*
X112850921Y-98020502D01*
X112871895Y-98037405D01*
X113897596Y-99063106D01*
X113931622Y-99125418D01*
X113934501Y-99152201D01*
X113934501Y-99334832D01*
X113937399Y-99365500D01*
X113939944Y-99372748D01*
X113939945Y-99372751D01*
X113972714Y-99466061D01*
X113981039Y-99489768D01*
X113986634Y-99497343D01*
X113986635Y-99497345D01*
X114025480Y-99549937D01*
X114059289Y-99595711D01*
X114066860Y-99601303D01*
X114157655Y-99668365D01*
X114157657Y-99668366D01*
X114165232Y-99673961D01*
X114174119Y-99677082D01*
X114174121Y-99677083D01*
X114282252Y-99715056D01*
X114282254Y-99715057D01*
X114289500Y-99717601D01*
X114297144Y-99718324D01*
X114297146Y-99718324D01*
X114305121Y-99719078D01*
X114320167Y-99720500D01*
X114550748Y-99720500D01*
X114618869Y-99740502D01*
X114639843Y-99757405D01*
X114913196Y-100030758D01*
X114940510Y-100071635D01*
X114997964Y-100210341D01*
X115094218Y-100335782D01*
X115100764Y-100340805D01*
X115106440Y-100345160D01*
X115219659Y-100432036D01*
X115337357Y-100480788D01*
X115358365Y-100489490D01*
X115399242Y-100516804D01*
X115709325Y-100826887D01*
X115831358Y-100948921D01*
X115831361Y-100948923D01*
X116255095Y-101372657D01*
X116289121Y-101434969D01*
X116292000Y-101461752D01*
X116292000Y-106036367D01*
X116271998Y-106104488D01*
X116261218Y-106117864D01*
X116259289Y-106119289D01*
X116253697Y-106126860D01*
X116189562Y-106213693D01*
X116181039Y-106225232D01*
X116177918Y-106234119D01*
X116177917Y-106234121D01*
X116140154Y-106341654D01*
X116137399Y-106349500D01*
X116136676Y-106357144D01*
X116136676Y-106357146D01*
X116136358Y-106360516D01*
X116134500Y-106380167D01*
X116134501Y-107059832D01*
X116137399Y-107090500D01*
X116139944Y-107097748D01*
X116139945Y-107097751D01*
X116177471Y-107204607D01*
X116181039Y-107214768D01*
X116186634Y-107222343D01*
X116186635Y-107222345D01*
X116235095Y-107287955D01*
X116259289Y-107320711D01*
X116266860Y-107326303D01*
X116357655Y-107393365D01*
X116357657Y-107393366D01*
X116365232Y-107398961D01*
X116374119Y-107402082D01*
X116374121Y-107402083D01*
X116482252Y-107440056D01*
X116482254Y-107440057D01*
X116489500Y-107442601D01*
X116497144Y-107443324D01*
X116497146Y-107443324D01*
X116505121Y-107444078D01*
X116520167Y-107445500D01*
X116797748Y-107445500D01*
X116865869Y-107465502D01*
X116912362Y-107519158D01*
X116922466Y-107589432D01*
X116892972Y-107654012D01*
X116886843Y-107660595D01*
X116839842Y-107707596D01*
X116777530Y-107741622D01*
X116750747Y-107744501D01*
X116520168Y-107744501D01*
X116517218Y-107744780D01*
X116517213Y-107744780D01*
X116497150Y-107746676D01*
X116497149Y-107746676D01*
X116489500Y-107747399D01*
X116482252Y-107749944D01*
X116482249Y-107749945D01*
X116374121Y-107787917D01*
X116374119Y-107787918D01*
X116365232Y-107791039D01*
X116357657Y-107796634D01*
X116357655Y-107796635D01*
X116277351Y-107855948D01*
X116259289Y-107869289D01*
X116253697Y-107876860D01*
X116187858Y-107966000D01*
X116181039Y-107975232D01*
X116177918Y-107984119D01*
X116177917Y-107984121D01*
X116149672Y-108064552D01*
X116137399Y-108099500D01*
X116136676Y-108107144D01*
X116136676Y-108107146D01*
X116136143Y-108112787D01*
X116134500Y-108130167D01*
X116134501Y-108809832D01*
X116134780Y-108812781D01*
X116134780Y-108812787D01*
X116136091Y-108826662D01*
X116137399Y-108840500D01*
X116139944Y-108847748D01*
X116139945Y-108847751D01*
X116176598Y-108952121D01*
X116181039Y-108964768D01*
X116186634Y-108972343D01*
X116186635Y-108972345D01*
X116237122Y-109040699D01*
X116256130Y-109066434D01*
X116256131Y-109066436D01*
X116259289Y-109070711D01*
X116258702Y-109071144D01*
X116289121Y-109126850D01*
X116292000Y-109153633D01*
X116292000Y-109541367D01*
X116271998Y-109609488D01*
X116261218Y-109622864D01*
X116259289Y-109624289D01*
X116253697Y-109631860D01*
X116197056Y-109708547D01*
X116181039Y-109730232D01*
X116177918Y-109739119D01*
X116177917Y-109739121D01*
X116139945Y-109847249D01*
X116137399Y-109854500D01*
X116134500Y-109885167D01*
X116134501Y-110589832D01*
X116137399Y-110620500D01*
X116139944Y-110627748D01*
X116139945Y-110627751D01*
X116176131Y-110730791D01*
X116181039Y-110744768D01*
X116186634Y-110752343D01*
X116186635Y-110752345D01*
X116214226Y-110789700D01*
X116259289Y-110850711D01*
X116266860Y-110856303D01*
X116357655Y-110923365D01*
X116357657Y-110923366D01*
X116365232Y-110928961D01*
X116374119Y-110932082D01*
X116374121Y-110932083D01*
X116482252Y-110970056D01*
X116482254Y-110970057D01*
X116489500Y-110972601D01*
X116497144Y-110973324D01*
X116497146Y-110973324D01*
X116505121Y-110974078D01*
X116520167Y-110975500D01*
X116809853Y-110975500D01*
X117099832Y-110975499D01*
X117102782Y-110975220D01*
X117102787Y-110975220D01*
X117122850Y-110973324D01*
X117122851Y-110973324D01*
X117130500Y-110972601D01*
X117137748Y-110970056D01*
X117137751Y-110970055D01*
X117245879Y-110932083D01*
X117245881Y-110932082D01*
X117254768Y-110928961D01*
X117262343Y-110923366D01*
X117262345Y-110923365D01*
X117353140Y-110856303D01*
X117360711Y-110850711D01*
X117405774Y-110789700D01*
X117433365Y-110752345D01*
X117433366Y-110752343D01*
X117438961Y-110744768D01*
X117443870Y-110730791D01*
X117480056Y-110627748D01*
X117480057Y-110627746D01*
X117482601Y-110620500D01*
X117483874Y-110607039D01*
X117484468Y-110600753D01*
X117485500Y-110589833D01*
X117485499Y-109885168D01*
X117484858Y-109878379D01*
X117483324Y-109862150D01*
X117483324Y-109862149D01*
X117482601Y-109854500D01*
X117480055Y-109847249D01*
X117442083Y-109739121D01*
X117442082Y-109739119D01*
X117438961Y-109730232D01*
X117422945Y-109708547D01*
X117366303Y-109631860D01*
X117360711Y-109624289D01*
X117361298Y-109623856D01*
X117330879Y-109568150D01*
X117328000Y-109541367D01*
X117328000Y-109153633D01*
X117348002Y-109085512D01*
X117358782Y-109072136D01*
X117360711Y-109070711D01*
X117382878Y-109040699D01*
X117433365Y-108972345D01*
X117433366Y-108972343D01*
X117438961Y-108964768D01*
X117443403Y-108952121D01*
X117480056Y-108847748D01*
X117480057Y-108847746D01*
X117482601Y-108840500D01*
X117485500Y-108809833D01*
X117485500Y-108579253D01*
X117505502Y-108511132D01*
X117522405Y-108490158D01*
X117969792Y-108042771D01*
X118032104Y-108008745D01*
X118102919Y-108013810D01*
X118146745Y-108048493D01*
X118149778Y-108045460D01*
X118158557Y-108054239D01*
X118165448Y-108064552D01*
X118175761Y-108071443D01*
X118217751Y-108099500D01*
X118231769Y-108108867D01*
X118243938Y-108111288D01*
X118243939Y-108111288D01*
X118263662Y-108115211D01*
X118290252Y-108120500D01*
X120329748Y-108120500D01*
X120356338Y-108115211D01*
X120376061Y-108111288D01*
X120376062Y-108111288D01*
X120388231Y-108108867D01*
X120402250Y-108099500D01*
X120444239Y-108071443D01*
X120454552Y-108064552D01*
X120498867Y-107998231D01*
X120503138Y-107976762D01*
X120509293Y-107945816D01*
X120510500Y-107939748D01*
X120510500Y-107664000D01*
X120530502Y-107595879D01*
X120584158Y-107549386D01*
X120636500Y-107538000D01*
X121983500Y-107538000D01*
X122051621Y-107558002D01*
X122098114Y-107611658D01*
X122109500Y-107664000D01*
X122109500Y-107939748D01*
X122110707Y-107945816D01*
X122116863Y-107976762D01*
X122121133Y-107998231D01*
X122165448Y-108064552D01*
X122175761Y-108071443D01*
X122217751Y-108099500D01*
X122231769Y-108108867D01*
X122243938Y-108111288D01*
X122243939Y-108111288D01*
X122263662Y-108115211D01*
X122290252Y-108120500D01*
X124327872Y-108120500D01*
X124395993Y-108140502D01*
X124442486Y-108194158D01*
X124452590Y-108264432D01*
X124420396Y-108332029D01*
X124302565Y-108459497D01*
X124302549Y-108459516D01*
X124300871Y-108461331D01*
X124299339Y-108463274D01*
X124299335Y-108463279D01*
X124240364Y-108538084D01*
X124028518Y-108806810D01*
X124027141Y-108808871D01*
X124027138Y-108808875D01*
X123994800Y-108857273D01*
X123784110Y-109172592D01*
X123569154Y-109556423D01*
X123485629Y-109737604D01*
X123418964Y-109882213D01*
X123384977Y-109955936D01*
X123232712Y-110368668D01*
X123232040Y-110371052D01*
X123232038Y-110371057D01*
X123201272Y-110480147D01*
X123113299Y-110792074D01*
X123112819Y-110794488D01*
X123092212Y-110898082D01*
X123059304Y-110960992D01*
X122997609Y-110996123D01*
X122968633Y-110999500D01*
X122290252Y-110999500D01*
X122284184Y-111000707D01*
X122243939Y-111008712D01*
X122243938Y-111008712D01*
X122231769Y-111011133D01*
X122165448Y-111055448D01*
X122121133Y-111121769D01*
X122109500Y-111180252D01*
X122109500Y-113019748D01*
X122121133Y-113078231D01*
X122165448Y-113144552D01*
X122231769Y-113188867D01*
X122243938Y-113191288D01*
X122243939Y-113191288D01*
X122284184Y-113199293D01*
X122290252Y-113200500D01*
X124329748Y-113200500D01*
X124335816Y-113199293D01*
X124376061Y-113191288D01*
X124376062Y-113191288D01*
X124388231Y-113188867D01*
X124454552Y-113144552D01*
X124498867Y-113078231D01*
X124510500Y-113019748D01*
X124510500Y-111180252D01*
X124498867Y-111121769D01*
X124454552Y-111055448D01*
X124388231Y-111011133D01*
X124376062Y-111008712D01*
X124376061Y-111008712D01*
X124335816Y-111000707D01*
X124329748Y-110999500D01*
X123943865Y-110999500D01*
X123875744Y-110979498D01*
X123829251Y-110925842D01*
X123819147Y-110855568D01*
X123820849Y-110846244D01*
X123823097Y-110836104D01*
X123825939Y-110825500D01*
X123845946Y-110762046D01*
X123951280Y-110427969D01*
X123955036Y-110417648D01*
X124114554Y-110032538D01*
X124119187Y-110022603D01*
X124311663Y-109652862D01*
X124317153Y-109643353D01*
X124325366Y-109630462D01*
X124400611Y-109512350D01*
X124541108Y-109291814D01*
X124547412Y-109282810D01*
X124801158Y-108952121D01*
X124808224Y-108943700D01*
X125089823Y-108636390D01*
X125097595Y-108628618D01*
X125404905Y-108347019D01*
X125413326Y-108339953D01*
X125744015Y-108086207D01*
X125753019Y-108079903D01*
X126012135Y-107914828D01*
X126104560Y-107855947D01*
X126114067Y-107850458D01*
X126483808Y-107657982D01*
X126493743Y-107653349D01*
X126878860Y-107493828D01*
X126889174Y-107490075D01*
X127286706Y-107364734D01*
X127297323Y-107361889D01*
X127310955Y-107358867D01*
X127452420Y-107327505D01*
X127523255Y-107332289D01*
X127580259Y-107374610D01*
X127605333Y-107441031D01*
X127589046Y-107512491D01*
X127585464Y-107517159D01*
X127548639Y-107606062D01*
X127529949Y-107651185D01*
X127524956Y-107663238D01*
X127523878Y-107671426D01*
X127523105Y-107677298D01*
X127504318Y-107820000D01*
X127505396Y-107828188D01*
X127519269Y-107933561D01*
X127524956Y-107976762D01*
X127585464Y-108122841D01*
X127681718Y-108248282D01*
X127807159Y-108344536D01*
X127953238Y-108405044D01*
X128108909Y-108425538D01*
X128173835Y-108454260D01*
X128212927Y-108513525D01*
X128213772Y-108584517D01*
X128201583Y-108613458D01*
X128190514Y-108632631D01*
X128184606Y-108641904D01*
X128162997Y-108672764D01*
X128160143Y-108683414D01*
X128158666Y-108686582D01*
X128157474Y-108689858D01*
X128151963Y-108699403D01*
X128146013Y-108733147D01*
X128145421Y-108736506D01*
X128143043Y-108747233D01*
X128133287Y-108783641D01*
X128134248Y-108794626D01*
X128134248Y-108794628D01*
X128136571Y-108821176D01*
X128137051Y-108832158D01*
X128137051Y-108988991D01*
X128117049Y-109057112D01*
X128063393Y-109103605D01*
X127993119Y-109113709D01*
X127962833Y-109105400D01*
X127901942Y-109080178D01*
X127894313Y-109077018D01*
X127737551Y-109056380D01*
X127580789Y-109077018D01*
X127573160Y-109080178D01*
X127563346Y-109084243D01*
X127434710Y-109137526D01*
X127364805Y-109191166D01*
X127328307Y-109219172D01*
X127309269Y-109233780D01*
X127213015Y-109359221D01*
X127152507Y-109505300D01*
X127131869Y-109662062D01*
X127152507Y-109818824D01*
X127213015Y-109964903D01*
X127218042Y-109971454D01*
X127304292Y-110083858D01*
X127329892Y-110150079D01*
X127315627Y-110219627D01*
X127266026Y-110270423D01*
X127204329Y-110286562D01*
X127017905Y-110286562D01*
X127014201Y-110287003D01*
X127014198Y-110287003D01*
X127009048Y-110287616D01*
X126991705Y-110289680D01*
X126889398Y-110335123D01*
X126887683Y-110331261D01*
X126841405Y-110346415D01*
X126786463Y-110332108D01*
X126785264Y-110334821D01*
X126692921Y-110293996D01*
X126682878Y-110289556D01*
X126657197Y-110286562D01*
X126367905Y-110286562D01*
X126364201Y-110287003D01*
X126364198Y-110287003D01*
X126359048Y-110287616D01*
X126341705Y-110289680D01*
X126239398Y-110335123D01*
X126237683Y-110331261D01*
X126191405Y-110346415D01*
X126136463Y-110332108D01*
X126135264Y-110334821D01*
X126042921Y-110293996D01*
X126032878Y-110289556D01*
X126007197Y-110286562D01*
X125717905Y-110286562D01*
X125714201Y-110287003D01*
X125714198Y-110287003D01*
X125709048Y-110287616D01*
X125691705Y-110289680D01*
X125589398Y-110335123D01*
X125581179Y-110343356D01*
X125581178Y-110343357D01*
X125554083Y-110370500D01*
X125510310Y-110414349D01*
X125505607Y-110424986D01*
X125505606Y-110424988D01*
X125489413Y-110461616D01*
X125465045Y-110516735D01*
X125462051Y-110542416D01*
X125462051Y-111906708D01*
X125465169Y-111932908D01*
X125469007Y-111941548D01*
X125469007Y-111941549D01*
X125497324Y-112005300D01*
X125510612Y-112035215D01*
X125515705Y-112040299D01*
X125537051Y-112109047D01*
X125537051Y-112824523D01*
X125517049Y-112892644D01*
X125493880Y-112919472D01*
X125413155Y-112989893D01*
X125408788Y-112996107D01*
X125334118Y-113102352D01*
X125315664Y-113128609D01*
X125254075Y-113286575D01*
X125253083Y-113294108D01*
X125253083Y-113294109D01*
X125233247Y-113444786D01*
X125231945Y-113454673D01*
X125250550Y-113623197D01*
X125308817Y-113782418D01*
X125313053Y-113788721D01*
X125313053Y-113788722D01*
X125326125Y-113808175D01*
X125403381Y-113923145D01*
X125408993Y-113928252D01*
X125408996Y-113928255D01*
X125523163Y-114032139D01*
X125523167Y-114032142D01*
X125528784Y-114037253D01*
X125535457Y-114040876D01*
X125535461Y-114040879D01*
X125671109Y-114114529D01*
X125671111Y-114114530D01*
X125677786Y-114118154D01*
X125685135Y-114120082D01*
X125834434Y-114159250D01*
X125834436Y-114159250D01*
X125841784Y-114161178D01*
X125927407Y-114162523D01*
X126003712Y-114163722D01*
X126003715Y-114163722D01*
X126011311Y-114163841D01*
X126018716Y-114162145D01*
X126018717Y-114162145D01*
X126079137Y-114148307D01*
X126176580Y-114125990D01*
X126328049Y-114049809D01*
X126456974Y-113939696D01*
X126555912Y-113802009D01*
X126563788Y-113782418D01*
X126616317Y-113651749D01*
X126616318Y-113651747D01*
X126619152Y-113644696D01*
X126633956Y-113540674D01*
X126642460Y-113480924D01*
X126642460Y-113480921D01*
X126643041Y-113476840D01*
X126643196Y-113462062D01*
X126641391Y-113447142D01*
X126631438Y-113364903D01*
X126622827Y-113293742D01*
X126562896Y-113135139D01*
X126550846Y-113117606D01*
X126471165Y-113001670D01*
X126471164Y-113001669D01*
X126466863Y-112995411D01*
X126455065Y-112984899D01*
X126345943Y-112887674D01*
X126345939Y-112887672D01*
X126340272Y-112882622D01*
X126317378Y-112870500D01*
X126299979Y-112861288D01*
X126255091Y-112837521D01*
X126204249Y-112787969D01*
X126188051Y-112726167D01*
X126188051Y-112377078D01*
X126208053Y-112308957D01*
X126261709Y-112262464D01*
X126331983Y-112252360D01*
X126396563Y-112281854D01*
X126403146Y-112287983D01*
X127315683Y-113200520D01*
X127349709Y-113262832D01*
X127351510Y-113306061D01*
X127333247Y-113444786D01*
X127331945Y-113454673D01*
X127350550Y-113623197D01*
X127408817Y-113782418D01*
X127413053Y-113788721D01*
X127413053Y-113788722D01*
X127426125Y-113808175D01*
X127503381Y-113923145D01*
X127508993Y-113928252D01*
X127508996Y-113928255D01*
X127623163Y-114032139D01*
X127623167Y-114032142D01*
X127628784Y-114037253D01*
X127635457Y-114040876D01*
X127635461Y-114040879D01*
X127771109Y-114114529D01*
X127771111Y-114114530D01*
X127777786Y-114118154D01*
X127785135Y-114120082D01*
X127934434Y-114159250D01*
X127934436Y-114159250D01*
X127941784Y-114161178D01*
X128027407Y-114162523D01*
X128103712Y-114163722D01*
X128103715Y-114163722D01*
X128111311Y-114163841D01*
X128118716Y-114162145D01*
X128118717Y-114162145D01*
X128179137Y-114148307D01*
X128276580Y-114125990D01*
X128428049Y-114049809D01*
X128556974Y-113939696D01*
X128655912Y-113802009D01*
X128663788Y-113782418D01*
X128716317Y-113651749D01*
X128716318Y-113651747D01*
X128719152Y-113644696D01*
X128727293Y-113587494D01*
X128756694Y-113522871D01*
X128816365Y-113484402D01*
X128887362Y-113484300D01*
X128928740Y-113505285D01*
X129028154Y-113581568D01*
X129028157Y-113581570D01*
X129034710Y-113586598D01*
X129180789Y-113647106D01*
X129337551Y-113667744D01*
X129345739Y-113666666D01*
X129486125Y-113648184D01*
X129494313Y-113647106D01*
X129640392Y-113586598D01*
X129742823Y-113508000D01*
X129759287Y-113495367D01*
X129765833Y-113490344D01*
X129787535Y-113462062D01*
X129857060Y-113371454D01*
X129862087Y-113364903D01*
X129922595Y-113218824D01*
X129943233Y-113062062D01*
X129922595Y-112905300D01*
X129862087Y-112759221D01*
X129765833Y-112633780D01*
X129640392Y-112537526D01*
X129494313Y-112477018D01*
X129337551Y-112456380D01*
X129270708Y-112465180D01*
X129200561Y-112454241D01*
X129165168Y-112429353D01*
X129157150Y-112421335D01*
X129149723Y-112413231D01*
X129132579Y-112392799D01*
X129132578Y-112392798D01*
X129125495Y-112384357D01*
X129121282Y-112381925D01*
X129084057Y-112325975D01*
X129082930Y-112254987D01*
X129120360Y-112194659D01*
X129184465Y-112164145D01*
X129204374Y-112162562D01*
X129257197Y-112162562D01*
X129260901Y-112162121D01*
X129260904Y-112162121D01*
X129268297Y-112161241D01*
X129283397Y-112159444D01*
X129385704Y-112114001D01*
X129387419Y-112117863D01*
X129433697Y-112102709D01*
X129488639Y-112117016D01*
X129489838Y-112114303D01*
X129592224Y-112159568D01*
X129617905Y-112162562D01*
X129714630Y-112162562D01*
X129782751Y-112182564D01*
X129814592Y-112211857D01*
X129873898Y-112289145D01*
X129885471Y-112300718D01*
X129999375Y-112388121D01*
X130013558Y-112396309D01*
X130146200Y-112451251D01*
X130162020Y-112455490D01*
X130194591Y-112459778D01*
X130208773Y-112457567D01*
X130212551Y-112444410D01*
X130212551Y-111150562D01*
X130232553Y-111082441D01*
X130286209Y-111035948D01*
X130338551Y-111024562D01*
X130486551Y-111024562D01*
X130554672Y-111044564D01*
X130601165Y-111098220D01*
X130612551Y-111150562D01*
X130612551Y-112444027D01*
X130616595Y-112457798D01*
X130630134Y-112459827D01*
X130663084Y-112455490D01*
X130678899Y-112451252D01*
X130811544Y-112396309D01*
X130825727Y-112388121D01*
X130939631Y-112300718D01*
X130951513Y-112288836D01*
X131013825Y-112254810D01*
X131084640Y-112259875D01*
X131141476Y-112302422D01*
X131157017Y-112329713D01*
X131172689Y-112367548D01*
X131213015Y-112464903D01*
X131309269Y-112590344D01*
X131434710Y-112686598D01*
X131580789Y-112747106D01*
X131737551Y-112767744D01*
X131745739Y-112766666D01*
X131807410Y-112758547D01*
X131894313Y-112747106D01*
X132040392Y-112686598D01*
X132165833Y-112590344D01*
X132262087Y-112464903D01*
X132322595Y-112318824D01*
X132343233Y-112162062D01*
X132322595Y-112005300D01*
X132262087Y-111859221D01*
X132257059Y-111852668D01*
X132257057Y-111852665D01*
X132209317Y-111790449D01*
X132183716Y-111724229D01*
X132197981Y-111654680D01*
X132220106Y-111624727D01*
X132240189Y-111604609D01*
X132240189Y-111604608D01*
X132247547Y-111597238D01*
X132249820Y-111592588D01*
X132303259Y-111550631D01*
X132373940Y-111543938D01*
X132437019Y-111576520D01*
X132449401Y-111590784D01*
X132452824Y-111597757D01*
X132460190Y-111605110D01*
X132460192Y-111605113D01*
X132509846Y-111654680D01*
X132537762Y-111682547D01*
X132558089Y-111692483D01*
X132636802Y-111730960D01*
X132636804Y-111730961D01*
X132645585Y-111735253D01*
X132655258Y-111736664D01*
X132655261Y-111736665D01*
X132687250Y-111741331D01*
X132715828Y-111745500D01*
X133179172Y-111745500D01*
X133183720Y-111744831D01*
X133183727Y-111744830D01*
X133240341Y-111736496D01*
X133240343Y-111736495D01*
X133250026Y-111735070D01*
X133272107Y-111724229D01*
X133348408Y-111686766D01*
X133357757Y-111682176D01*
X133442547Y-111597238D01*
X133495253Y-111489415D01*
X133505500Y-111419172D01*
X133505500Y-111030828D01*
X133504831Y-111026280D01*
X133504830Y-111026273D01*
X133496496Y-110969659D01*
X133496495Y-110969657D01*
X133495070Y-110959974D01*
X133489927Y-110949498D01*
X133446766Y-110861592D01*
X133442176Y-110852243D01*
X133357238Y-110767453D01*
X133359080Y-110765608D01*
X133324621Y-110721711D01*
X133317934Y-110651030D01*
X133350522Y-110587954D01*
X133356426Y-110582830D01*
X133357757Y-110582176D01*
X133442547Y-110497238D01*
X133482377Y-110415757D01*
X133490960Y-110398198D01*
X133490961Y-110398196D01*
X133495253Y-110389415D01*
X133498013Y-110370500D01*
X133504841Y-110323687D01*
X133505500Y-110319172D01*
X133505500Y-109930828D01*
X133504831Y-109926280D01*
X133504830Y-109926273D01*
X133496496Y-109869659D01*
X133496495Y-109869657D01*
X133495070Y-109859974D01*
X133442176Y-109752243D01*
X133388070Y-109698231D01*
X133364606Y-109674808D01*
X133364605Y-109674808D01*
X133357238Y-109667453D01*
X133357853Y-109666837D01*
X133319639Y-109618161D01*
X133312949Y-109547481D01*
X133345534Y-109484403D01*
X133347945Y-109482313D01*
X133347808Y-109482176D01*
X133425242Y-109404607D01*
X133425242Y-109404606D01*
X133432598Y-109397238D01*
X133469978Y-109320769D01*
X133481011Y-109298198D01*
X133481012Y-109298196D01*
X133485304Y-109289415D01*
X133486929Y-109278282D01*
X133493764Y-109231421D01*
X133495551Y-109219172D01*
X133495551Y-108830828D01*
X133494882Y-108826280D01*
X133494881Y-108826273D01*
X133486547Y-108769659D01*
X133486546Y-108769657D01*
X133485121Y-108759974D01*
X133432227Y-108652243D01*
X133347289Y-108567453D01*
X133349131Y-108565608D01*
X133314672Y-108521711D01*
X133307985Y-108451030D01*
X133340573Y-108387954D01*
X133346477Y-108382830D01*
X133347808Y-108382176D01*
X133432598Y-108297238D01*
X133485304Y-108189415D01*
X133495551Y-108119172D01*
X133495551Y-107730828D01*
X133494882Y-107726280D01*
X133494881Y-107726273D01*
X133486547Y-107669659D01*
X133486546Y-107669657D01*
X133485121Y-107659974D01*
X133432227Y-107552243D01*
X133347289Y-107467453D01*
X133349131Y-107465608D01*
X133314672Y-107421711D01*
X133307985Y-107351030D01*
X133340573Y-107287954D01*
X133346477Y-107282830D01*
X133347808Y-107282176D01*
X133432598Y-107197238D01*
X133476244Y-107107949D01*
X133481011Y-107098198D01*
X133481012Y-107098196D01*
X133485304Y-107089415D01*
X133489189Y-107062787D01*
X133494061Y-107029383D01*
X133495551Y-107019172D01*
X133495551Y-106630828D01*
X133494882Y-106626280D01*
X133494881Y-106626273D01*
X133486547Y-106569659D01*
X133486546Y-106569657D01*
X133485121Y-106559974D01*
X133468544Y-106526210D01*
X133444968Y-106478194D01*
X133432227Y-106452243D01*
X133390132Y-106410221D01*
X133347592Y-106367755D01*
X133313513Y-106305472D01*
X133318516Y-106234652D01*
X133358258Y-106182677D01*
X133357757Y-106182176D01*
X133361535Y-106178391D01*
X133424225Y-106115592D01*
X133486507Y-106081513D01*
X133513398Y-106078610D01*
X136443274Y-106078610D01*
X136511395Y-106098612D01*
X136547855Y-106134334D01*
X136555187Y-106145245D01*
X136565830Y-106161083D01*
X136571448Y-106166195D01*
X136685612Y-106270077D01*
X136685616Y-106270080D01*
X136691233Y-106275191D01*
X136697906Y-106278814D01*
X136697910Y-106278817D01*
X136833558Y-106352467D01*
X136833560Y-106352468D01*
X136840235Y-106356092D01*
X136847584Y-106358020D01*
X136996883Y-106397188D01*
X136996885Y-106397188D01*
X137004233Y-106399116D01*
X137090609Y-106400473D01*
X137166161Y-106401660D01*
X137166164Y-106401660D01*
X137173760Y-106401779D01*
X137181165Y-106400083D01*
X137181166Y-106400083D01*
X137264116Y-106381085D01*
X137339029Y-106363928D01*
X137490498Y-106287747D01*
X137575450Y-106215191D01*
X137613651Y-106182564D01*
X137613652Y-106182563D01*
X137619423Y-106177634D01*
X137627643Y-106166195D01*
X137652874Y-106131083D01*
X137708869Y-106087436D01*
X137755196Y-106078610D01*
X138164306Y-106078610D01*
X138232427Y-106098612D01*
X138278920Y-106152268D01*
X138283188Y-106162861D01*
X138297614Y-106203939D01*
X138301039Y-106213693D01*
X138306634Y-106221268D01*
X138306635Y-106221270D01*
X138365167Y-106300516D01*
X138379289Y-106319636D01*
X138386860Y-106325228D01*
X138477655Y-106392290D01*
X138477657Y-106392291D01*
X138485232Y-106397886D01*
X138494119Y-106401007D01*
X138494121Y-106401008D01*
X138602252Y-106438981D01*
X138602254Y-106438982D01*
X138609500Y-106441526D01*
X138617144Y-106442249D01*
X138617146Y-106442249D01*
X138625121Y-106443003D01*
X138640167Y-106444425D01*
X138929853Y-106444425D01*
X139219832Y-106444424D01*
X139222782Y-106444145D01*
X139222787Y-106444145D01*
X139242850Y-106442249D01*
X139242851Y-106442249D01*
X139250500Y-106441526D01*
X139257748Y-106438981D01*
X139257751Y-106438980D01*
X139365879Y-106401008D01*
X139365881Y-106401007D01*
X139374768Y-106397886D01*
X139382343Y-106392291D01*
X139382345Y-106392290D01*
X139473140Y-106325228D01*
X139480711Y-106319636D01*
X139494833Y-106300516D01*
X139553365Y-106221270D01*
X139553366Y-106221268D01*
X139558961Y-106213693D01*
X139585592Y-106137859D01*
X139627033Y-106080216D01*
X139693063Y-106054128D01*
X139704473Y-106053610D01*
X140155527Y-106053610D01*
X140223648Y-106073612D01*
X140270141Y-106127268D01*
X140274402Y-106137841D01*
X140301039Y-106213693D01*
X140306634Y-106221268D01*
X140306635Y-106221270D01*
X140365167Y-106300516D01*
X140379289Y-106319636D01*
X140386860Y-106325228D01*
X140477655Y-106392290D01*
X140477657Y-106392291D01*
X140485232Y-106397886D01*
X140494119Y-106401007D01*
X140494121Y-106401008D01*
X140602252Y-106438981D01*
X140602254Y-106438982D01*
X140609500Y-106441526D01*
X140617144Y-106442249D01*
X140617146Y-106442249D01*
X140625121Y-106443003D01*
X140640167Y-106444425D01*
X140929853Y-106444425D01*
X141219832Y-106444424D01*
X141222782Y-106444145D01*
X141222787Y-106444145D01*
X141242850Y-106442249D01*
X141242851Y-106442249D01*
X141250500Y-106441526D01*
X141257748Y-106438981D01*
X141257751Y-106438980D01*
X141365879Y-106401008D01*
X141365881Y-106401007D01*
X141374768Y-106397886D01*
X141382343Y-106392291D01*
X141382345Y-106392290D01*
X141473140Y-106325228D01*
X141480711Y-106319636D01*
X141494833Y-106300516D01*
X141553365Y-106221270D01*
X141553366Y-106221268D01*
X141558961Y-106213693D01*
X141567544Y-106189253D01*
X141594371Y-106112861D01*
X141635814Y-106055216D01*
X141701844Y-106029128D01*
X141713253Y-106028610D01*
X142556348Y-106028610D01*
X142624469Y-106048612D01*
X142656826Y-106087534D01*
X142661133Y-106084656D01*
X142705448Y-106150977D01*
X142715761Y-106157868D01*
X142752721Y-106182564D01*
X142771769Y-106195292D01*
X142783938Y-106197713D01*
X142783939Y-106197713D01*
X142815240Y-106203939D01*
X142830252Y-106206925D01*
X144429748Y-106206925D01*
X144444760Y-106203939D01*
X144476061Y-106197713D01*
X144476062Y-106197713D01*
X144488231Y-106195292D01*
X144507280Y-106182564D01*
X144544239Y-106157868D01*
X144554552Y-106150977D01*
X144598867Y-106084656D01*
X144607040Y-106043567D01*
X144639948Y-105980658D01*
X144701643Y-105945526D01*
X144772538Y-105949326D01*
X144830124Y-105990852D01*
X144856118Y-106056919D01*
X144856619Y-106068149D01*
X144856619Y-106727893D01*
X144836617Y-106796014D01*
X144791002Y-106837938D01*
X144785232Y-106839964D01*
X144679289Y-106918214D01*
X144673697Y-106925785D01*
X144622944Y-106994500D01*
X144601039Y-107024157D01*
X144597918Y-107033044D01*
X144597917Y-107033046D01*
X144571613Y-107107949D01*
X144557399Y-107148425D01*
X144554500Y-107179092D01*
X144554501Y-107883757D01*
X144557399Y-107914425D01*
X144559944Y-107921673D01*
X144559945Y-107921676D01*
X144593524Y-108017293D01*
X144601039Y-108038693D01*
X144606634Y-108046268D01*
X144606635Y-108046270D01*
X144661093Y-108120000D01*
X144679289Y-108144636D01*
X144686860Y-108150228D01*
X144777655Y-108217290D01*
X144777657Y-108217291D01*
X144785232Y-108222886D01*
X144794119Y-108226007D01*
X144794121Y-108226008D01*
X144902252Y-108263981D01*
X144902254Y-108263982D01*
X144909500Y-108266526D01*
X144917144Y-108267249D01*
X144917146Y-108267249D01*
X144925121Y-108268003D01*
X144940167Y-108269425D01*
X144969008Y-108269425D01*
X145424816Y-108269424D01*
X145492937Y-108289426D01*
X145513911Y-108306329D01*
X146288460Y-109080878D01*
X146295887Y-109088982D01*
X146321966Y-109120062D01*
X146331515Y-109125575D01*
X146357095Y-109140344D01*
X146366367Y-109146251D01*
X146390556Y-109163189D01*
X146390558Y-109163190D01*
X146399585Y-109169511D01*
X146410229Y-109172363D01*
X146414264Y-109174245D01*
X146418456Y-109175771D01*
X146427999Y-109181280D01*
X146438854Y-109183194D01*
X146467942Y-109188323D01*
X146478666Y-109190701D01*
X146517849Y-109201200D01*
X146558266Y-109197664D01*
X146569248Y-109197185D01*
X149474000Y-109197185D01*
X149542121Y-109217187D01*
X149588614Y-109270843D01*
X149600000Y-109323185D01*
X149600000Y-114587575D01*
X149579998Y-114655696D01*
X149526342Y-114702189D01*
X149474000Y-114713575D01*
X95015838Y-114713575D01*
X95000000Y-114708429D01*
X94987635Y-114712447D01*
X94986853Y-114712217D01*
X94986821Y-114712711D01*
X94760242Y-114697860D01*
X94743902Y-114695709D01*
X94630122Y-114673077D01*
X94516339Y-114650444D01*
X94500425Y-114646180D01*
X94390572Y-114608890D01*
X94280723Y-114571601D01*
X94265496Y-114565294D01*
X94099008Y-114483192D01*
X94057404Y-114462675D01*
X94043137Y-114454438D01*
X93947252Y-114390370D01*
X93850223Y-114325537D01*
X93837147Y-114315504D01*
X93662706Y-114162523D01*
X93651052Y-114150869D01*
X93498071Y-113976428D01*
X93488038Y-113963352D01*
X93375523Y-113794962D01*
X93359137Y-113770438D01*
X93350898Y-113756168D01*
X93248281Y-113548079D01*
X93241974Y-113532852D01*
X93167396Y-113313153D01*
X93163130Y-113297233D01*
X93117866Y-113069673D01*
X93115715Y-113053333D01*
X93115147Y-113044669D01*
X117802001Y-113044669D01*
X117802371Y-113051490D01*
X117807895Y-113102352D01*
X117811521Y-113117604D01*
X117856676Y-113238054D01*
X117865214Y-113253649D01*
X117941715Y-113355724D01*
X117954276Y-113368285D01*
X118056351Y-113444786D01*
X118071946Y-113453324D01*
X118192394Y-113498478D01*
X118207649Y-113502105D01*
X118258514Y-113507631D01*
X118265328Y-113508000D01*
X119037885Y-113508000D01*
X119053124Y-113503525D01*
X119054329Y-113502135D01*
X119056000Y-113494452D01*
X119056000Y-113489884D01*
X119564000Y-113489884D01*
X119568475Y-113505123D01*
X119569865Y-113506328D01*
X119577548Y-113507999D01*
X120354669Y-113507999D01*
X120361490Y-113507629D01*
X120412352Y-113502105D01*
X120427604Y-113498479D01*
X120548054Y-113453324D01*
X120563649Y-113444786D01*
X120665724Y-113368285D01*
X120678285Y-113355724D01*
X120754786Y-113253649D01*
X120763324Y-113238054D01*
X120808478Y-113117606D01*
X120812105Y-113102351D01*
X120817631Y-113051486D01*
X120818000Y-113044672D01*
X120818000Y-112372115D01*
X120813525Y-112356876D01*
X120812135Y-112355671D01*
X120804452Y-112354000D01*
X119582115Y-112354000D01*
X119566876Y-112358475D01*
X119565671Y-112359865D01*
X119564000Y-112367548D01*
X119564000Y-113489884D01*
X119056000Y-113489884D01*
X119056000Y-112372115D01*
X119051525Y-112356876D01*
X119050135Y-112355671D01*
X119042452Y-112354000D01*
X117820116Y-112354000D01*
X117804877Y-112358475D01*
X117803672Y-112359865D01*
X117802001Y-112367548D01*
X117802001Y-113044669D01*
X93115147Y-113044669D01*
X93100864Y-112826754D01*
X93101027Y-112826743D01*
X93100957Y-112826467D01*
X93105146Y-112813575D01*
X93100000Y-112797737D01*
X93100000Y-109664669D01*
X94252001Y-109664669D01*
X94252371Y-109671490D01*
X94257895Y-109722352D01*
X94261521Y-109737604D01*
X94306676Y-109858054D01*
X94315214Y-109873649D01*
X94391715Y-109975724D01*
X94404276Y-109988285D01*
X94506351Y-110064786D01*
X94521946Y-110073324D01*
X94642394Y-110118478D01*
X94657649Y-110122105D01*
X94708514Y-110127631D01*
X94715328Y-110128000D01*
X95737885Y-110128000D01*
X95753124Y-110123525D01*
X95754329Y-110122135D01*
X95756000Y-110114452D01*
X95756000Y-110109884D01*
X96264000Y-110109884D01*
X96268475Y-110125123D01*
X96269865Y-110126328D01*
X96277548Y-110127999D01*
X97304669Y-110127999D01*
X97311490Y-110127629D01*
X97362352Y-110122105D01*
X97377604Y-110118479D01*
X97498054Y-110073324D01*
X97513649Y-110064786D01*
X97615724Y-109988285D01*
X97628285Y-109975724D01*
X97704786Y-109873649D01*
X97713324Y-109858054D01*
X97758478Y-109737606D01*
X97762105Y-109722351D01*
X97767631Y-109671486D01*
X97768000Y-109664672D01*
X97768000Y-108992115D01*
X97763525Y-108976876D01*
X97762135Y-108975671D01*
X97754452Y-108974000D01*
X96282115Y-108974000D01*
X96266876Y-108978475D01*
X96265671Y-108979865D01*
X96264000Y-108987548D01*
X96264000Y-110109884D01*
X95756000Y-110109884D01*
X95756000Y-108992115D01*
X95751525Y-108976876D01*
X95750135Y-108975671D01*
X95742452Y-108974000D01*
X94270116Y-108974000D01*
X94254877Y-108978475D01*
X94253672Y-108979865D01*
X94252001Y-108987548D01*
X94252001Y-109664669D01*
X93100000Y-109664669D01*
X93100000Y-108447885D01*
X94252000Y-108447885D01*
X94256475Y-108463124D01*
X94257865Y-108464329D01*
X94265548Y-108466000D01*
X95737885Y-108466000D01*
X95753124Y-108461525D01*
X95754329Y-108460135D01*
X95756000Y-108452452D01*
X95756000Y-108447885D01*
X96264000Y-108447885D01*
X96268475Y-108463124D01*
X96269865Y-108464329D01*
X96277548Y-108466000D01*
X97749884Y-108466000D01*
X97765123Y-108461525D01*
X97766328Y-108460135D01*
X97767999Y-108452452D01*
X97767999Y-107775331D01*
X97767629Y-107768510D01*
X97762105Y-107717648D01*
X97758479Y-107702396D01*
X97713324Y-107581946D01*
X97704786Y-107566351D01*
X97628285Y-107464276D01*
X97615724Y-107451715D01*
X97513649Y-107375214D01*
X97498054Y-107366676D01*
X97377606Y-107321522D01*
X97362351Y-107317895D01*
X97311486Y-107312369D01*
X97304672Y-107312000D01*
X96282115Y-107312000D01*
X96266876Y-107316475D01*
X96265671Y-107317865D01*
X96264000Y-107325548D01*
X96264000Y-108447885D01*
X95756000Y-108447885D01*
X95756000Y-107330116D01*
X95751525Y-107314877D01*
X95750135Y-107313672D01*
X95742452Y-107312001D01*
X94715331Y-107312001D01*
X94708510Y-107312371D01*
X94657648Y-107317895D01*
X94642396Y-107321521D01*
X94521946Y-107366676D01*
X94506351Y-107375214D01*
X94404276Y-107451715D01*
X94391715Y-107464276D01*
X94315214Y-107566351D01*
X94306676Y-107581946D01*
X94261522Y-107702394D01*
X94257895Y-107717649D01*
X94252369Y-107768514D01*
X94252000Y-107775328D01*
X94252000Y-108447885D01*
X93100000Y-108447885D01*
X93100000Y-105887728D01*
X95701114Y-105887728D01*
X95701166Y-105887973D01*
X95763898Y-106091883D01*
X95768119Y-106102229D01*
X95865971Y-106291814D01*
X95871957Y-106301245D01*
X96001832Y-106470501D01*
X96009393Y-106478724D01*
X96167194Y-106622312D01*
X96176094Y-106629067D01*
X96356815Y-106742434D01*
X96366781Y-106747511D01*
X96564714Y-106827080D01*
X96575429Y-106830315D01*
X96785301Y-106873777D01*
X96794438Y-106874980D01*
X96844990Y-106877895D01*
X96848637Y-106878000D01*
X97737885Y-106878000D01*
X97753124Y-106873525D01*
X97754329Y-106872135D01*
X97756000Y-106864452D01*
X97756000Y-106859885D01*
X98264000Y-106859885D01*
X98268475Y-106875124D01*
X98269865Y-106876329D01*
X98277548Y-106878000D01*
X99139175Y-106878000D01*
X99144770Y-106877751D01*
X99303078Y-106863622D01*
X99314092Y-106861640D01*
X99519860Y-106805349D01*
X99530341Y-106801451D01*
X99722903Y-106709603D01*
X99732516Y-106703918D01*
X99905767Y-106579425D01*
X99914233Y-106572117D01*
X100062692Y-106418918D01*
X100069735Y-106410221D01*
X100188719Y-106233156D01*
X100194105Y-106223358D01*
X100250626Y-106094600D01*
X100296322Y-106040264D01*
X100364141Y-106019259D01*
X100432549Y-106038253D01*
X100479829Y-106091217D01*
X100492000Y-106145245D01*
X100492000Y-106746418D01*
X100490922Y-106762865D01*
X100487530Y-106788629D01*
X100489121Y-106800717D01*
X100490001Y-106824219D01*
X100479198Y-107016580D01*
X100478479Y-107029383D01*
X100476898Y-107043420D01*
X100457757Y-107156075D01*
X100437690Y-107274180D01*
X100434548Y-107287947D01*
X100369749Y-107512868D01*
X100365086Y-107526192D01*
X100363440Y-107530167D01*
X100358655Y-107541718D01*
X100314107Y-107596999D01*
X100242246Y-107619500D01*
X98740252Y-107619500D01*
X98734184Y-107620707D01*
X98693939Y-107628712D01*
X98693938Y-107628712D01*
X98681769Y-107631133D01*
X98615448Y-107675448D01*
X98571133Y-107741769D01*
X98568712Y-107753938D01*
X98568712Y-107753939D01*
X98564458Y-107775328D01*
X98559500Y-107800252D01*
X98559500Y-109639748D01*
X98560707Y-109645816D01*
X98563939Y-109662062D01*
X98571133Y-109698231D01*
X98615448Y-109764552D01*
X98681769Y-109808867D01*
X98693938Y-109811288D01*
X98693939Y-109811288D01*
X98720444Y-109816560D01*
X98740252Y-109820500D01*
X99566000Y-109820500D01*
X99634121Y-109840502D01*
X99680614Y-109894158D01*
X99692000Y-109946500D01*
X99692000Y-110843500D01*
X99671998Y-110911621D01*
X99618342Y-110958114D01*
X99566000Y-110969500D01*
X99440252Y-110969500D01*
X99434184Y-110970707D01*
X99393939Y-110978712D01*
X99393938Y-110978712D01*
X99381769Y-110981133D01*
X99315448Y-111025448D01*
X99271133Y-111091769D01*
X99268712Y-111103938D01*
X99268712Y-111103939D01*
X99262745Y-111133939D01*
X99259500Y-111150252D01*
X99259500Y-112689748D01*
X99271133Y-112748231D01*
X99315448Y-112814552D01*
X99381769Y-112858867D01*
X99393938Y-112861288D01*
X99393939Y-112861288D01*
X99434184Y-112869293D01*
X99440252Y-112870500D01*
X100979748Y-112870500D01*
X100985816Y-112869293D01*
X101026061Y-112861288D01*
X101026062Y-112861288D01*
X101038231Y-112858867D01*
X101104552Y-112814552D01*
X101148867Y-112748231D01*
X101160500Y-112689748D01*
X101160500Y-111827885D01*
X117802000Y-111827885D01*
X117806475Y-111843124D01*
X117807865Y-111844329D01*
X117815548Y-111846000D01*
X119037885Y-111846000D01*
X119053124Y-111841525D01*
X119054329Y-111840135D01*
X119056000Y-111832452D01*
X119056000Y-111827885D01*
X119564000Y-111827885D01*
X119568475Y-111843124D01*
X119569865Y-111844329D01*
X119577548Y-111846000D01*
X120799884Y-111846000D01*
X120815123Y-111841525D01*
X120816328Y-111840135D01*
X120817999Y-111832452D01*
X120817999Y-111155331D01*
X120817629Y-111148510D01*
X120812105Y-111097648D01*
X120808479Y-111082396D01*
X120763324Y-110961946D01*
X120754786Y-110946351D01*
X120678285Y-110844276D01*
X120665724Y-110831715D01*
X120563649Y-110755214D01*
X120548054Y-110746676D01*
X120427606Y-110701522D01*
X120412351Y-110697895D01*
X120361486Y-110692369D01*
X120354672Y-110692000D01*
X119582115Y-110692000D01*
X119566876Y-110696475D01*
X119565671Y-110697865D01*
X119564000Y-110705548D01*
X119564000Y-111827885D01*
X119056000Y-111827885D01*
X119056000Y-110710116D01*
X119051525Y-110694877D01*
X119050135Y-110693672D01*
X119042452Y-110692001D01*
X118265331Y-110692001D01*
X118258510Y-110692371D01*
X118207648Y-110697895D01*
X118192396Y-110701521D01*
X118071946Y-110746676D01*
X118056351Y-110755214D01*
X117954276Y-110831715D01*
X117941715Y-110844276D01*
X117865214Y-110946351D01*
X117856676Y-110961946D01*
X117811522Y-111082394D01*
X117807895Y-111097649D01*
X117802369Y-111148514D01*
X117802000Y-111155328D01*
X117802000Y-111827885D01*
X101160500Y-111827885D01*
X101160500Y-111150252D01*
X101157255Y-111133939D01*
X101151288Y-111103939D01*
X101151288Y-111103938D01*
X101148867Y-111091769D01*
X101104552Y-111025448D01*
X101038231Y-110981133D01*
X101026062Y-110978712D01*
X101026061Y-110978712D01*
X100985816Y-110970707D01*
X100979748Y-110969500D01*
X100854000Y-110969500D01*
X100785879Y-110949498D01*
X100739386Y-110895842D01*
X100728000Y-110843500D01*
X100728000Y-109946500D01*
X100748002Y-109878379D01*
X100801658Y-109831886D01*
X100854000Y-109820500D01*
X101279748Y-109820500D01*
X101299556Y-109816560D01*
X101326061Y-109811288D01*
X101326062Y-109811288D01*
X101338231Y-109808867D01*
X101404552Y-109764552D01*
X101448867Y-109698231D01*
X101456062Y-109662062D01*
X101459293Y-109645816D01*
X101460500Y-109639748D01*
X101460500Y-109084243D01*
X103434276Y-109084243D01*
X103434437Y-109088750D01*
X103439018Y-109152800D01*
X103441404Y-109166022D01*
X103478116Y-109291055D01*
X103485526Y-109307281D01*
X103554760Y-109415010D01*
X103566441Y-109428491D01*
X103663219Y-109512350D01*
X103678228Y-109521996D01*
X103794712Y-109575192D01*
X103811825Y-109580217D01*
X103943054Y-109599085D01*
X103951995Y-109599724D01*
X106921000Y-109599724D01*
X106989121Y-109619726D01*
X107035614Y-109673382D01*
X107047000Y-109725724D01*
X107047000Y-110189748D01*
X107058633Y-110248231D01*
X107102948Y-110314552D01*
X107169269Y-110358867D01*
X107181438Y-110361288D01*
X107181439Y-110361288D01*
X107206843Y-110366341D01*
X107227752Y-110370500D01*
X108567248Y-110370500D01*
X108588157Y-110366341D01*
X108613561Y-110361288D01*
X108613562Y-110361288D01*
X108625731Y-110358867D01*
X108692052Y-110314552D01*
X108698943Y-110304239D01*
X108698945Y-110304237D01*
X108705788Y-110293996D01*
X108760266Y-110248469D01*
X108810552Y-110238000D01*
X109045806Y-110238000D01*
X109113927Y-110258002D01*
X109160420Y-110311658D01*
X109164689Y-110322252D01*
X109194866Y-110408184D01*
X109200458Y-110415754D01*
X109200459Y-110415757D01*
X109245340Y-110476520D01*
X109275350Y-110517150D01*
X109282921Y-110522742D01*
X109376743Y-110592041D01*
X109376746Y-110592042D01*
X109384316Y-110597634D01*
X109512131Y-110642519D01*
X109519777Y-110643242D01*
X109519778Y-110643242D01*
X109525748Y-110643806D01*
X109543666Y-110645500D01*
X110326334Y-110645500D01*
X110344252Y-110643806D01*
X110350222Y-110643242D01*
X110350223Y-110643242D01*
X110357869Y-110642519D01*
X110485684Y-110597634D01*
X110493254Y-110592042D01*
X110493257Y-110592041D01*
X110587079Y-110522742D01*
X110594650Y-110517150D01*
X110624660Y-110476520D01*
X110669541Y-110415757D01*
X110669542Y-110415754D01*
X110675134Y-110408184D01*
X110720019Y-110280369D01*
X110723000Y-110248834D01*
X110723000Y-109191166D01*
X110720019Y-109159631D01*
X110675134Y-109031816D01*
X110669542Y-109024246D01*
X110669541Y-109024243D01*
X110600242Y-108930421D01*
X110600241Y-108930420D01*
X110594650Y-108922850D01*
X110587079Y-108917258D01*
X110587076Y-108917255D01*
X110504141Y-108855998D01*
X110461230Y-108799437D01*
X110453000Y-108754647D01*
X110453000Y-108621302D01*
X110473002Y-108553181D01*
X110526658Y-108506688D01*
X110572837Y-108495499D01*
X110574832Y-108495499D01*
X110584032Y-108494630D01*
X110597850Y-108493324D01*
X110597851Y-108493324D01*
X110605500Y-108492601D01*
X110612748Y-108490056D01*
X110612751Y-108490055D01*
X110720879Y-108452083D01*
X110720881Y-108452082D01*
X110729768Y-108448961D01*
X110737343Y-108443366D01*
X110737345Y-108443365D01*
X110828140Y-108376303D01*
X110835711Y-108370711D01*
X110855044Y-108344536D01*
X110908365Y-108272345D01*
X110908366Y-108272343D01*
X110913961Y-108264768D01*
X110919751Y-108248282D01*
X110955056Y-108147748D01*
X110955057Y-108147746D01*
X110957601Y-108140500D01*
X110958857Y-108127219D01*
X110959617Y-108119172D01*
X110960500Y-108109833D01*
X110960499Y-107530168D01*
X110960124Y-107526192D01*
X110958324Y-107507150D01*
X110958324Y-107507149D01*
X110957601Y-107499500D01*
X110947797Y-107471581D01*
X110917083Y-107384121D01*
X110917082Y-107384119D01*
X110913961Y-107375232D01*
X110907642Y-107366676D01*
X110841303Y-107276860D01*
X110835711Y-107269289D01*
X110828135Y-107263693D01*
X110737345Y-107196635D01*
X110737343Y-107196634D01*
X110729768Y-107191039D01*
X110720881Y-107187918D01*
X110720879Y-107187917D01*
X110612748Y-107149944D01*
X110612746Y-107149943D01*
X110605500Y-107147399D01*
X110597856Y-107146676D01*
X110597854Y-107146676D01*
X110589879Y-107145922D01*
X110574833Y-107144500D01*
X110235172Y-107144500D01*
X109895168Y-107144501D01*
X109892218Y-107144780D01*
X109892213Y-107144780D01*
X109872150Y-107146676D01*
X109872149Y-107146676D01*
X109864500Y-107147399D01*
X109857252Y-107149944D01*
X109857249Y-107149945D01*
X109749121Y-107187917D01*
X109749119Y-107187918D01*
X109740232Y-107191039D01*
X109732657Y-107196634D01*
X109732655Y-107196635D01*
X109641865Y-107263693D01*
X109634289Y-107269289D01*
X109628697Y-107276860D01*
X109562359Y-107366676D01*
X109556039Y-107375232D01*
X109552918Y-107384119D01*
X109552917Y-107384121D01*
X109524338Y-107465502D01*
X109512399Y-107499500D01*
X109511676Y-107507144D01*
X109511676Y-107507146D01*
X109511074Y-107513516D01*
X109509500Y-107530167D01*
X109509500Y-107710485D01*
X109494622Y-107769881D01*
X109480322Y-107796635D01*
X109475610Y-107805450D01*
X109473814Y-107811370D01*
X109473813Y-107811373D01*
X109431018Y-107952452D01*
X109428836Y-107959644D01*
X109428229Y-107965807D01*
X109423158Y-108017293D01*
X109420565Y-108030745D01*
X109420750Y-108030778D01*
X109419580Y-108037283D01*
X109417739Y-108043618D01*
X109417000Y-108053682D01*
X109417000Y-108073630D01*
X109416393Y-108085980D01*
X109414767Y-108102489D01*
X109414296Y-108106586D01*
X109412530Y-108120000D01*
X109413608Y-108128188D01*
X109415922Y-108145764D01*
X109417000Y-108162211D01*
X109417000Y-108754647D01*
X109396998Y-108822768D01*
X109365859Y-108855998D01*
X109282924Y-108917255D01*
X109282921Y-108917258D01*
X109275350Y-108922850D01*
X109247059Y-108961152D01*
X109190500Y-109004062D01*
X109164355Y-109006101D01*
X109178158Y-109036325D01*
X109172324Y-109096005D01*
X109164689Y-109117747D01*
X109123246Y-109175393D01*
X109057217Y-109201482D01*
X109045806Y-109202000D01*
X109034602Y-109202000D01*
X108966481Y-109181998D01*
X108919988Y-109128342D01*
X108909884Y-109058068D01*
X108939376Y-108993489D01*
X108958215Y-108971747D01*
X109017941Y-108933362D01*
X109033572Y-108933362D01*
X109022763Y-108913866D01*
X109027373Y-108843020D01*
X109031094Y-108833952D01*
X109036192Y-108822788D01*
X109041217Y-108805675D01*
X109060085Y-108674446D01*
X109060724Y-108665505D01*
X109060724Y-108492115D01*
X109056249Y-108476876D01*
X109054859Y-108475671D01*
X109047176Y-108474000D01*
X103452391Y-108474000D01*
X103437152Y-108478475D01*
X103435947Y-108479865D01*
X103434276Y-108487548D01*
X103434276Y-109084243D01*
X101460500Y-109084243D01*
X101460500Y-107947885D01*
X103434276Y-107947885D01*
X103438751Y-107963124D01*
X103440141Y-107964329D01*
X103447824Y-107966000D01*
X109042609Y-107966000D01*
X109057848Y-107961525D01*
X109059053Y-107960135D01*
X109060724Y-107952452D01*
X109060724Y-107772257D01*
X109060563Y-107767750D01*
X109055982Y-107703700D01*
X109053596Y-107690478D01*
X109016884Y-107565445D01*
X109009474Y-107549219D01*
X108940240Y-107441490D01*
X108928559Y-107428009D01*
X108831781Y-107344150D01*
X108809191Y-107329632D01*
X108810102Y-107328214D01*
X108764361Y-107288578D01*
X108744360Y-107220457D01*
X108746780Y-107195884D01*
X108746792Y-107195821D01*
X108748000Y-107189748D01*
X108748000Y-106654254D01*
X108768002Y-106586133D01*
X108784904Y-106565159D01*
X108866209Y-106483853D01*
X108870020Y-106480199D01*
X108880567Y-106470501D01*
X108912878Y-106440790D01*
X108934265Y-106406297D01*
X108940988Y-106396515D01*
X108960340Y-106371020D01*
X108960342Y-106371017D01*
X108965532Y-106364179D01*
X108970497Y-106351639D01*
X108980559Y-106331632D01*
X108987666Y-106320170D01*
X108998995Y-106281177D01*
X109002838Y-106269954D01*
X109014615Y-106240208D01*
X109014615Y-106240207D01*
X109017777Y-106232221D01*
X109018675Y-106223680D01*
X109018676Y-106223675D01*
X109019188Y-106218808D01*
X109023498Y-106196836D01*
X109025420Y-106190220D01*
X109025420Y-106190218D01*
X109027261Y-106183882D01*
X109028000Y-106173818D01*
X109028000Y-106141562D01*
X109028690Y-106128391D01*
X109031023Y-106106195D01*
X109032612Y-106091076D01*
X109030931Y-106081133D01*
X109029764Y-106074236D01*
X109028000Y-106053224D01*
X109028000Y-105930167D01*
X111234500Y-105930167D01*
X111234501Y-106509832D01*
X111237399Y-106540500D01*
X111239944Y-106547748D01*
X111239945Y-106547751D01*
X111277347Y-106654254D01*
X111281039Y-106664768D01*
X111286634Y-106672343D01*
X111286635Y-106672345D01*
X111342153Y-106747511D01*
X111359289Y-106770711D01*
X111366860Y-106776303D01*
X111415859Y-106812494D01*
X111458770Y-106869055D01*
X111467000Y-106913846D01*
X111467000Y-107144619D01*
X111446998Y-107212740D01*
X111415859Y-107245970D01*
X111391864Y-107263693D01*
X111391860Y-107263697D01*
X111384289Y-107269289D01*
X111378697Y-107276860D01*
X111312359Y-107366676D01*
X111306039Y-107375232D01*
X111302918Y-107384119D01*
X111302917Y-107384121D01*
X111274338Y-107465502D01*
X111262399Y-107499500D01*
X111261676Y-107507144D01*
X111261676Y-107507146D01*
X111261074Y-107513516D01*
X111259500Y-107530167D01*
X111259501Y-108109832D01*
X111259780Y-108112781D01*
X111259780Y-108112787D01*
X111261676Y-108132850D01*
X111262399Y-108140500D01*
X111264944Y-108147748D01*
X111264945Y-108147751D01*
X111300250Y-108248282D01*
X111306039Y-108264768D01*
X111311634Y-108272343D01*
X111311635Y-108272345D01*
X111364956Y-108344536D01*
X111384289Y-108370711D01*
X111391860Y-108376303D01*
X111482655Y-108443365D01*
X111482657Y-108443366D01*
X111490232Y-108448961D01*
X111499119Y-108452082D01*
X111499121Y-108452083D01*
X111607252Y-108490056D01*
X111607254Y-108490057D01*
X111614500Y-108492601D01*
X111622144Y-108493324D01*
X111622146Y-108493324D01*
X111630121Y-108494078D01*
X111645167Y-108495500D01*
X111984828Y-108495500D01*
X112324832Y-108495499D01*
X112327782Y-108495220D01*
X112327787Y-108495220D01*
X112347850Y-108493324D01*
X112347851Y-108493324D01*
X112355500Y-108492601D01*
X112362748Y-108490056D01*
X112362751Y-108490055D01*
X112470879Y-108452083D01*
X112470881Y-108452082D01*
X112479768Y-108448961D01*
X112487343Y-108443366D01*
X112487345Y-108443365D01*
X112578140Y-108376303D01*
X112585711Y-108370711D01*
X112605044Y-108344536D01*
X112658365Y-108272345D01*
X112658366Y-108272343D01*
X112663961Y-108264768D01*
X112669751Y-108248282D01*
X112705056Y-108147748D01*
X112705057Y-108147746D01*
X112707601Y-108140500D01*
X112708857Y-108127219D01*
X112709617Y-108119172D01*
X112710500Y-108109833D01*
X112710499Y-107530168D01*
X112710124Y-107526192D01*
X112708324Y-107507150D01*
X112708324Y-107507149D01*
X112707601Y-107499500D01*
X112697797Y-107471581D01*
X112667083Y-107384121D01*
X112667082Y-107384119D01*
X112663961Y-107375232D01*
X112657642Y-107366676D01*
X112591303Y-107276860D01*
X112585711Y-107269289D01*
X112578140Y-107263697D01*
X112578136Y-107263693D01*
X112554141Y-107245970D01*
X112511230Y-107189409D01*
X112503000Y-107144619D01*
X112503000Y-106895381D01*
X112523002Y-106827260D01*
X112554141Y-106794030D01*
X112578136Y-106776307D01*
X112578140Y-106776303D01*
X112585711Y-106770711D01*
X112602847Y-106747511D01*
X112658365Y-106672345D01*
X112658366Y-106672343D01*
X112663961Y-106664768D01*
X112667654Y-106654254D01*
X112705056Y-106547748D01*
X112705057Y-106547746D01*
X112707601Y-106540500D01*
X112710500Y-106509833D01*
X112710500Y-106304252D01*
X112730502Y-106236131D01*
X112747405Y-106215157D01*
X113133258Y-105829304D01*
X113174135Y-105801990D01*
X113174564Y-105801812D01*
X113312841Y-105744536D01*
X113438282Y-105648282D01*
X113534536Y-105522841D01*
X113591990Y-105384135D01*
X113619304Y-105343258D01*
X113733258Y-105229304D01*
X113774135Y-105201990D01*
X113799267Y-105191580D01*
X113912841Y-105144536D01*
X114038282Y-105048282D01*
X114047063Y-105036839D01*
X114076043Y-104999071D01*
X114134536Y-104922841D01*
X114195044Y-104776762D01*
X114215682Y-104620000D01*
X114195044Y-104463238D01*
X114134536Y-104317159D01*
X114038282Y-104191718D01*
X114031382Y-104186423D01*
X113960525Y-104132053D01*
X113912841Y-104095464D01*
X113766762Y-104034956D01*
X113610000Y-104014318D01*
X113453238Y-104034956D01*
X113307159Y-104095464D01*
X113259475Y-104132053D01*
X113188619Y-104186423D01*
X113181718Y-104191718D01*
X113085464Y-104317159D01*
X113034374Y-104440500D01*
X113028010Y-104455865D01*
X113000696Y-104496742D01*
X112886742Y-104610696D01*
X112845865Y-104638010D01*
X112707159Y-104695464D01*
X112581718Y-104791718D01*
X112576695Y-104798264D01*
X112574900Y-104800603D01*
X112485464Y-104917159D01*
X112428011Y-105055863D01*
X112400697Y-105096740D01*
X111989841Y-105507596D01*
X111927529Y-105541622D01*
X111900746Y-105544501D01*
X111620168Y-105544501D01*
X111617218Y-105544780D01*
X111617213Y-105544780D01*
X111597150Y-105546676D01*
X111597149Y-105546676D01*
X111589500Y-105547399D01*
X111582252Y-105549944D01*
X111582249Y-105549945D01*
X111474121Y-105587917D01*
X111474119Y-105587918D01*
X111465232Y-105591039D01*
X111457657Y-105596634D01*
X111457655Y-105596635D01*
X111437631Y-105611425D01*
X111359289Y-105669289D01*
X111281039Y-105775232D01*
X111277918Y-105784119D01*
X111277917Y-105784121D01*
X111262050Y-105829304D01*
X111237399Y-105899500D01*
X111234500Y-105930167D01*
X109028000Y-105930167D01*
X109028000Y-104046694D01*
X109048002Y-103978573D01*
X109101658Y-103932080D01*
X109112252Y-103927811D01*
X109150458Y-103914394D01*
X109198184Y-103897634D01*
X109205754Y-103892042D01*
X109205757Y-103892041D01*
X109299579Y-103822742D01*
X109307150Y-103817150D01*
X109312742Y-103809579D01*
X109312745Y-103809576D01*
X109374002Y-103726641D01*
X109430563Y-103683730D01*
X109475353Y-103675500D01*
X110944647Y-103675500D01*
X111012768Y-103695502D01*
X111045998Y-103726641D01*
X111107255Y-103809576D01*
X111107258Y-103809579D01*
X111112850Y-103817150D01*
X111120421Y-103822742D01*
X111214243Y-103892041D01*
X111214246Y-103892042D01*
X111221816Y-103897634D01*
X111349631Y-103942519D01*
X111357277Y-103943242D01*
X111357278Y-103943242D01*
X111363248Y-103943806D01*
X111381166Y-103945500D01*
X112438834Y-103945500D01*
X112456752Y-103943806D01*
X112462722Y-103943242D01*
X112462723Y-103943242D01*
X112470369Y-103942519D01*
X112598184Y-103897634D01*
X112605754Y-103892042D01*
X112605757Y-103892041D01*
X112699579Y-103822742D01*
X112707150Y-103817150D01*
X112742508Y-103769279D01*
X112782041Y-103715757D01*
X112782042Y-103715754D01*
X112787634Y-103708184D01*
X112832519Y-103580369D01*
X112835500Y-103548834D01*
X112835500Y-102766166D01*
X112832519Y-102734631D01*
X112787634Y-102606816D01*
X112782042Y-102599246D01*
X112782041Y-102599243D01*
X112712742Y-102505421D01*
X112707150Y-102497850D01*
X112679699Y-102477574D01*
X112605757Y-102422959D01*
X112605754Y-102422958D01*
X112598184Y-102417366D01*
X112470369Y-102372481D01*
X112462723Y-102371758D01*
X112462722Y-102371758D01*
X112456752Y-102371194D01*
X112438834Y-102369500D01*
X111381166Y-102369500D01*
X111363248Y-102371194D01*
X111357278Y-102371758D01*
X111357277Y-102371758D01*
X111349631Y-102372481D01*
X111221816Y-102417366D01*
X111214246Y-102422958D01*
X111214243Y-102422959D01*
X111140301Y-102477574D01*
X111112850Y-102497850D01*
X111107258Y-102505421D01*
X111107255Y-102505424D01*
X111045998Y-102588359D01*
X110989437Y-102631270D01*
X110944647Y-102639500D01*
X109475353Y-102639500D01*
X109407232Y-102619498D01*
X109374002Y-102588359D01*
X109312745Y-102505424D01*
X109312742Y-102505421D01*
X109307150Y-102497850D01*
X109279699Y-102477574D01*
X109205757Y-102422959D01*
X109205754Y-102422958D01*
X109198184Y-102417366D01*
X109070369Y-102372481D01*
X109062723Y-102371758D01*
X109062722Y-102371758D01*
X109056752Y-102371194D01*
X109038834Y-102369500D01*
X107981166Y-102369500D01*
X107963248Y-102371194D01*
X107957278Y-102371758D01*
X107957277Y-102371758D01*
X107949631Y-102372481D01*
X107821816Y-102417366D01*
X107814246Y-102422958D01*
X107814243Y-102422959D01*
X107740301Y-102477574D01*
X107712850Y-102497850D01*
X107707258Y-102505421D01*
X107707255Y-102505424D01*
X107645998Y-102588359D01*
X107589437Y-102631270D01*
X107544647Y-102639500D01*
X106984431Y-102639500D01*
X106916310Y-102619498D01*
X106869817Y-102565842D01*
X106859774Y-102531851D01*
X106851784Y-102477574D01*
X106851784Y-102477573D01*
X106850358Y-102467888D01*
X106808961Y-102383571D01*
X106803522Y-102372493D01*
X106803521Y-102372491D01*
X106798932Y-102363145D01*
X106734850Y-102299175D01*
X106723721Y-102288065D01*
X106723720Y-102288065D01*
X106716350Y-102280707D01*
X106611518Y-102229464D01*
X106581027Y-102225016D01*
X106547744Y-102220160D01*
X106547740Y-102220160D01*
X106543218Y-102219500D01*
X106176782Y-102219500D01*
X106172232Y-102220170D01*
X106172229Y-102220170D01*
X106117574Y-102228216D01*
X106117573Y-102228216D01*
X106107888Y-102229642D01*
X106072554Y-102246990D01*
X106012493Y-102276478D01*
X106012491Y-102276479D01*
X106003145Y-102281068D01*
X105994166Y-102290063D01*
X105934721Y-102349612D01*
X105920707Y-102363650D01*
X105869464Y-102468482D01*
X105868052Y-102478162D01*
X105862636Y-102515289D01*
X105859500Y-102536782D01*
X105859500Y-102996400D01*
X105853234Y-103032302D01*
X105853251Y-103032306D01*
X105853152Y-103032772D01*
X105852051Y-103039080D01*
X105851465Y-103040707D01*
X105851464Y-103040712D01*
X105848556Y-103048789D01*
X105847927Y-103057349D01*
X105847927Y-103057351D01*
X105844525Y-103103677D01*
X105838162Y-103190331D01*
X105839860Y-103198752D01*
X105857014Y-103283829D01*
X105859500Y-103308733D01*
X105859500Y-103778218D01*
X105860170Y-103782768D01*
X105860170Y-103782771D01*
X105868216Y-103837426D01*
X105869642Y-103847112D01*
X105873958Y-103855902D01*
X105915235Y-103939974D01*
X105921068Y-103951855D01*
X106003650Y-104034293D01*
X106108482Y-104085536D01*
X106138973Y-104089984D01*
X106172256Y-104094840D01*
X106172260Y-104094840D01*
X106176782Y-104095500D01*
X106543218Y-104095500D01*
X106547768Y-104094830D01*
X106547771Y-104094830D01*
X106602426Y-104086784D01*
X106602427Y-104086784D01*
X106612112Y-104085358D01*
X106706804Y-104038867D01*
X106707507Y-104038522D01*
X106707509Y-104038521D01*
X106716855Y-104033932D01*
X106758273Y-103992442D01*
X106791935Y-103958721D01*
X106791935Y-103958720D01*
X106799293Y-103951350D01*
X106808713Y-103932080D01*
X106846240Y-103855306D01*
X106850536Y-103846518D01*
X106859757Y-103783311D01*
X106889383Y-103718791D01*
X106949188Y-103680531D01*
X106984437Y-103675500D01*
X107544647Y-103675500D01*
X107612768Y-103695502D01*
X107645998Y-103726641D01*
X107707255Y-103809576D01*
X107707258Y-103809579D01*
X107712850Y-103817150D01*
X107720421Y-103822742D01*
X107814243Y-103892041D01*
X107814246Y-103892042D01*
X107821816Y-103897634D01*
X107869542Y-103914394D01*
X107907748Y-103927811D01*
X107965394Y-103969254D01*
X107991482Y-104035284D01*
X107992000Y-104046694D01*
X107992000Y-105840748D01*
X107971998Y-105908869D01*
X107955095Y-105929843D01*
X107852343Y-106032595D01*
X107790031Y-106066621D01*
X107763248Y-106069500D01*
X107227752Y-106069500D01*
X107221684Y-106070707D01*
X107181439Y-106078712D01*
X107181438Y-106078712D01*
X107169269Y-106081133D01*
X107102948Y-106125448D01*
X107096057Y-106135761D01*
X107069970Y-106174803D01*
X107058633Y-106191769D01*
X107056212Y-106203938D01*
X107056212Y-106203939D01*
X107050798Y-106231159D01*
X107047000Y-106250252D01*
X107047000Y-106714276D01*
X107026998Y-106782397D01*
X106973342Y-106828890D01*
X106921000Y-106840276D01*
X103949757Y-106840276D01*
X103945250Y-106840437D01*
X103881200Y-106845018D01*
X103867978Y-106847404D01*
X103742945Y-106884116D01*
X103726719Y-106891526D01*
X103618990Y-106960760D01*
X103605509Y-106972441D01*
X103521650Y-107069219D01*
X103512004Y-107084228D01*
X103458808Y-107200712D01*
X103453783Y-107217825D01*
X103434915Y-107349054D01*
X103434276Y-107357995D01*
X103434276Y-107947885D01*
X101460500Y-107947885D01*
X101460500Y-107800252D01*
X101455542Y-107775328D01*
X101451288Y-107753939D01*
X101451288Y-107753938D01*
X101448867Y-107741769D01*
X101441973Y-107731452D01*
X101441972Y-107731449D01*
X101436819Y-107723737D01*
X101415603Y-107655985D01*
X101419359Y-107623119D01*
X101433683Y-107565933D01*
X101469407Y-107423315D01*
X101516253Y-107107509D01*
X101516711Y-107098198D01*
X101531338Y-106800458D01*
X101531392Y-106799860D01*
X101531392Y-106799359D01*
X101531591Y-106795308D01*
X101532470Y-106788631D01*
X101529078Y-106762865D01*
X101528000Y-106746420D01*
X101528000Y-103112346D01*
X101548002Y-103044225D01*
X101582941Y-103009848D01*
X101582452Y-103009213D01*
X101587507Y-103005320D01*
X101592934Y-103001955D01*
X101721143Y-102880714D01*
X101728596Y-102873666D01*
X101728597Y-102873665D01*
X101733235Y-102869279D01*
X101761084Y-102829507D01*
X101840327Y-102716335D01*
X101840328Y-102716334D01*
X101843991Y-102711102D01*
X101906851Y-102565842D01*
X101918146Y-102539741D01*
X101918146Y-102539740D01*
X101920680Y-102533885D01*
X101939625Y-102443201D01*
X101959177Y-102349612D01*
X101959177Y-102349608D01*
X101960168Y-102344867D01*
X101960500Y-102338532D01*
X101960500Y-102117000D01*
X101980502Y-102048879D01*
X102034158Y-102002386D01*
X102086500Y-101991000D01*
X104850410Y-101991000D01*
X104918531Y-102011002D01*
X104963512Y-102061467D01*
X104966476Y-102067504D01*
X104966479Y-102067508D01*
X104971068Y-102076855D01*
X105053650Y-102159293D01*
X105158482Y-102210536D01*
X105188973Y-102214984D01*
X105222256Y-102219840D01*
X105222260Y-102219840D01*
X105226782Y-102220500D01*
X105593218Y-102220500D01*
X105597768Y-102219830D01*
X105597771Y-102219830D01*
X105652426Y-102211784D01*
X105652427Y-102211784D01*
X105662112Y-102210358D01*
X105734222Y-102174954D01*
X105757507Y-102163522D01*
X105757509Y-102163521D01*
X105766855Y-102158932D01*
X105818858Y-102106838D01*
X105841935Y-102083721D01*
X105841935Y-102083720D01*
X105849293Y-102076350D01*
X105854212Y-102066288D01*
X105881236Y-102011002D01*
X105900536Y-101971518D01*
X105910500Y-101903218D01*
X105910500Y-101833836D01*
X105930502Y-101765715D01*
X105942424Y-101750017D01*
X105942953Y-101749424D01*
X105977516Y-101710631D01*
X105991004Y-101695493D01*
X105991006Y-101695490D01*
X105996057Y-101689821D01*
X106002668Y-101677336D01*
X106070149Y-101549886D01*
X106076300Y-101538269D01*
X106084593Y-101505252D01*
X106116225Y-101379322D01*
X106116225Y-101379318D01*
X106118076Y-101371951D01*
X106118228Y-101343026D01*
X106118934Y-101208063D01*
X106118974Y-101200469D01*
X106117202Y-101193087D01*
X106080714Y-101041102D01*
X106080713Y-101041098D01*
X106078942Y-101033723D01*
X106000291Y-100881339D01*
X105952790Y-100826887D01*
X105941551Y-100814004D01*
X105911843Y-100749522D01*
X105910500Y-100731175D01*
X105910500Y-100661782D01*
X105907624Y-100642242D01*
X105901784Y-100602574D01*
X105901784Y-100602573D01*
X105900358Y-100592888D01*
X105857296Y-100505180D01*
X105853522Y-100497493D01*
X105853521Y-100497491D01*
X105848932Y-100488145D01*
X105766350Y-100405707D01*
X105661518Y-100354464D01*
X105631027Y-100350016D01*
X105597744Y-100345160D01*
X105597740Y-100345160D01*
X105593218Y-100344500D01*
X105226782Y-100344500D01*
X105222232Y-100345170D01*
X105222229Y-100345170D01*
X105167574Y-100353216D01*
X105167573Y-100353216D01*
X105157888Y-100354642D01*
X105116517Y-100374954D01*
X105062493Y-100401478D01*
X105062491Y-100401479D01*
X105053145Y-100406068D01*
X104970707Y-100488650D01*
X104963529Y-100503334D01*
X104915646Y-100555749D01*
X104850330Y-100574000D01*
X102086500Y-100574000D01*
X102018379Y-100553998D01*
X101971886Y-100500342D01*
X101960500Y-100448000D01*
X101960500Y-99546741D01*
X101945888Y-99402890D01*
X101888144Y-99218627D01*
X101794528Y-99049739D01*
X101668864Y-98903125D01*
X101663821Y-98899213D01*
X101521335Y-98788689D01*
X101521332Y-98788687D01*
X101516286Y-98784773D01*
X101343026Y-98699519D01*
X101336856Y-98697912D01*
X101336851Y-98697910D01*
X101162345Y-98652455D01*
X101162342Y-98652455D01*
X101156163Y-98650845D01*
X101072797Y-98646476D01*
X100969710Y-98641073D01*
X100969706Y-98641073D01*
X100963329Y-98640739D01*
X100772401Y-98669614D01*
X100766406Y-98671820D01*
X100766405Y-98671820D01*
X100597168Y-98734086D01*
X100597164Y-98734088D01*
X100591179Y-98736290D01*
X100427066Y-98838045D01*
X100422426Y-98842433D01*
X100312094Y-98946769D01*
X100286765Y-98970721D01*
X100283103Y-98975951D01*
X100283102Y-98975952D01*
X100196236Y-99100011D01*
X100176009Y-99128898D01*
X100099320Y-99306115D01*
X100098015Y-99312362D01*
X100068334Y-99454438D01*
X100059832Y-99495133D01*
X100059500Y-99501468D01*
X100059500Y-102293259D01*
X100074112Y-102437110D01*
X100131856Y-102621373D01*
X100225472Y-102790261D01*
X100351136Y-102936875D01*
X100356177Y-102940786D01*
X100356180Y-102940788D01*
X100443227Y-103008309D01*
X100484793Y-103065866D01*
X100492000Y-103107868D01*
X100492000Y-105084153D01*
X100471998Y-105152274D01*
X100418342Y-105198767D01*
X100348068Y-105208871D01*
X100283488Y-105179377D01*
X100254034Y-105141943D01*
X100154029Y-104948186D01*
X100148043Y-104938755D01*
X100018168Y-104769499D01*
X100010607Y-104761276D01*
X99852806Y-104617688D01*
X99843906Y-104610933D01*
X99663185Y-104497566D01*
X99653219Y-104492489D01*
X99455286Y-104412920D01*
X99444571Y-104409685D01*
X99234699Y-104366223D01*
X99225562Y-104365020D01*
X99175010Y-104362105D01*
X99171363Y-104362000D01*
X98282115Y-104362000D01*
X98266876Y-104366475D01*
X98265671Y-104367865D01*
X98264000Y-104375548D01*
X98264000Y-106859885D01*
X97756000Y-106859885D01*
X97756000Y-105892115D01*
X97751525Y-105876876D01*
X97750135Y-105875671D01*
X97742452Y-105874000D01*
X95716589Y-105874000D01*
X95702607Y-105878105D01*
X95701114Y-105887728D01*
X93100000Y-105887728D01*
X93100000Y-105348384D01*
X95706376Y-105348384D01*
X95707081Y-105362470D01*
X95715960Y-105366000D01*
X97737885Y-105366000D01*
X97753124Y-105361525D01*
X97754329Y-105360135D01*
X97756000Y-105352452D01*
X97756000Y-104380115D01*
X97751525Y-104364876D01*
X97750135Y-104363671D01*
X97742452Y-104362000D01*
X96880825Y-104362000D01*
X96875230Y-104362249D01*
X96716922Y-104376378D01*
X96705908Y-104378360D01*
X96500140Y-104434651D01*
X96489659Y-104438549D01*
X96297097Y-104530397D01*
X96287484Y-104536082D01*
X96114233Y-104660575D01*
X96105767Y-104667883D01*
X95957308Y-104821082D01*
X95950265Y-104829779D01*
X95831281Y-105006844D01*
X95825895Y-105016642D01*
X95740143Y-105211990D01*
X95736578Y-105222582D01*
X95706376Y-105348384D01*
X93100000Y-105348384D01*
X93100000Y-102299175D01*
X93752000Y-102299175D01*
X93752249Y-102304770D01*
X93766378Y-102463078D01*
X93768360Y-102474092D01*
X93824651Y-102679860D01*
X93828549Y-102690341D01*
X93920397Y-102882903D01*
X93926082Y-102892516D01*
X94050575Y-103065767D01*
X94057883Y-103074233D01*
X94211082Y-103222692D01*
X94219779Y-103229735D01*
X94396844Y-103348719D01*
X94406642Y-103354105D01*
X94601990Y-103439857D01*
X94612582Y-103443422D01*
X94738384Y-103473624D01*
X94752470Y-103472919D01*
X94756000Y-103464040D01*
X94756000Y-103463411D01*
X95264000Y-103463411D01*
X95268105Y-103477393D01*
X95277728Y-103478886D01*
X95277973Y-103478834D01*
X95481883Y-103416102D01*
X95492229Y-103411881D01*
X95681814Y-103314029D01*
X95691245Y-103308043D01*
X95860501Y-103178168D01*
X95868724Y-103170607D01*
X96012312Y-103012806D01*
X96019067Y-103003906D01*
X96132434Y-102823185D01*
X96137511Y-102813219D01*
X96217080Y-102615286D01*
X96220315Y-102604571D01*
X96263777Y-102394699D01*
X96264980Y-102385562D01*
X96267895Y-102335010D01*
X96268000Y-102331363D01*
X96268000Y-101192115D01*
X96263525Y-101176876D01*
X96262135Y-101175671D01*
X96254452Y-101174000D01*
X95282115Y-101174000D01*
X95266876Y-101178475D01*
X95265671Y-101179865D01*
X95264000Y-101187548D01*
X95264000Y-103463411D01*
X94756000Y-103463411D01*
X94756000Y-101192115D01*
X94751525Y-101176876D01*
X94750135Y-101175671D01*
X94742452Y-101174000D01*
X93770115Y-101174000D01*
X93754876Y-101178475D01*
X93753671Y-101179865D01*
X93752000Y-101187548D01*
X93752000Y-102299175D01*
X93100000Y-102299175D01*
X93100000Y-100647885D01*
X93752000Y-100647885D01*
X93756475Y-100663124D01*
X93757865Y-100664329D01*
X93765548Y-100666000D01*
X94737885Y-100666000D01*
X94753124Y-100661525D01*
X94754329Y-100660135D01*
X94756000Y-100652452D01*
X94756000Y-100647885D01*
X95264000Y-100647885D01*
X95268475Y-100663124D01*
X95269865Y-100664329D01*
X95277548Y-100666000D01*
X96249885Y-100666000D01*
X96265124Y-100661525D01*
X96266329Y-100660135D01*
X96268000Y-100652452D01*
X96268000Y-99540825D01*
X96267751Y-99535230D01*
X96253622Y-99376922D01*
X96251640Y-99365908D01*
X96195349Y-99160140D01*
X96191451Y-99149659D01*
X96099603Y-98957097D01*
X96093918Y-98947484D01*
X95969425Y-98774233D01*
X95962117Y-98765767D01*
X95808918Y-98617308D01*
X95800221Y-98610265D01*
X95628198Y-98494669D01*
X105212001Y-98494669D01*
X105212371Y-98501490D01*
X105217895Y-98552352D01*
X105221521Y-98567604D01*
X105266676Y-98688054D01*
X105275214Y-98703649D01*
X105351715Y-98805724D01*
X105364276Y-98818285D01*
X105469065Y-98896820D01*
X105511580Y-98953679D01*
X105519500Y-98997646D01*
X105519500Y-99419748D01*
X105531133Y-99478231D01*
X105575448Y-99544552D01*
X105641769Y-99588867D01*
X105653938Y-99591288D01*
X105653939Y-99591288D01*
X105694184Y-99599293D01*
X105700252Y-99600500D01*
X107299748Y-99600500D01*
X107305816Y-99599293D01*
X107346061Y-99591288D01*
X107346062Y-99591288D01*
X107358231Y-99588867D01*
X107424552Y-99544552D01*
X107468867Y-99478231D01*
X107480500Y-99419748D01*
X108219500Y-99419748D01*
X108231133Y-99478231D01*
X108275448Y-99544552D01*
X108341769Y-99588867D01*
X108353938Y-99591288D01*
X108353939Y-99591288D01*
X108394184Y-99599293D01*
X108400252Y-99600500D01*
X109999748Y-99600500D01*
X110005816Y-99599293D01*
X110046061Y-99591288D01*
X110046062Y-99591288D01*
X110058231Y-99588867D01*
X110124552Y-99544552D01*
X110168867Y-99478231D01*
X110180500Y-99419748D01*
X110180500Y-98730252D01*
X110174067Y-98697910D01*
X110171288Y-98683939D01*
X110171288Y-98683938D01*
X110168867Y-98671769D01*
X110124552Y-98605448D01*
X110058231Y-98561133D01*
X110046062Y-98558712D01*
X110046061Y-98558712D01*
X110005816Y-98550707D01*
X109999748Y-98549500D01*
X108400252Y-98549500D01*
X108394184Y-98550707D01*
X108353939Y-98558712D01*
X108353938Y-98558712D01*
X108341769Y-98561133D01*
X108275448Y-98605448D01*
X108231133Y-98671769D01*
X108228712Y-98683938D01*
X108228712Y-98683939D01*
X108225933Y-98697910D01*
X108219500Y-98730252D01*
X108219500Y-99419748D01*
X107480500Y-99419748D01*
X107480500Y-98997646D01*
X107500502Y-98929525D01*
X107530935Y-98896820D01*
X107635724Y-98818285D01*
X107648285Y-98805724D01*
X107724786Y-98703649D01*
X107733324Y-98688054D01*
X107778478Y-98567606D01*
X107782105Y-98552351D01*
X107787631Y-98501486D01*
X107788000Y-98494672D01*
X107788000Y-98397115D01*
X107783525Y-98381876D01*
X107782135Y-98380671D01*
X107774452Y-98379000D01*
X105230116Y-98379000D01*
X105214877Y-98383475D01*
X105213672Y-98384865D01*
X105212001Y-98392548D01*
X105212001Y-98494669D01*
X95628198Y-98494669D01*
X95623156Y-98491281D01*
X95613358Y-98485895D01*
X95418010Y-98400143D01*
X95407418Y-98396578D01*
X95281616Y-98366376D01*
X95267530Y-98367081D01*
X95264000Y-98375960D01*
X95264000Y-100647885D01*
X94756000Y-100647885D01*
X94756000Y-98376589D01*
X94751895Y-98362607D01*
X94742272Y-98361114D01*
X94742027Y-98361166D01*
X94538117Y-98423898D01*
X94527771Y-98428119D01*
X94338186Y-98525971D01*
X94328755Y-98531957D01*
X94159499Y-98661832D01*
X94151276Y-98669393D01*
X94007688Y-98827194D01*
X94000933Y-98836094D01*
X93887566Y-99016815D01*
X93882489Y-99026781D01*
X93802920Y-99224714D01*
X93799685Y-99235429D01*
X93756223Y-99445301D01*
X93755020Y-99454438D01*
X93752105Y-99504990D01*
X93752000Y-99508637D01*
X93752000Y-100647885D01*
X93100000Y-100647885D01*
X93100000Y-96910167D01*
X103774500Y-96910167D01*
X103774501Y-97614832D01*
X103774780Y-97617781D01*
X103774780Y-97617787D01*
X103776335Y-97634239D01*
X103777399Y-97645500D01*
X103779944Y-97652748D01*
X103779945Y-97652751D01*
X103817623Y-97760040D01*
X103821039Y-97769768D01*
X103826634Y-97777343D01*
X103826635Y-97777345D01*
X103891694Y-97865428D01*
X103899289Y-97875711D01*
X103906860Y-97881303D01*
X103997655Y-97948365D01*
X103997657Y-97948366D01*
X104005232Y-97953961D01*
X104014119Y-97957082D01*
X104014121Y-97957083D01*
X104122252Y-97995056D01*
X104122254Y-97995057D01*
X104129500Y-97997601D01*
X104137144Y-97998324D01*
X104137146Y-97998324D01*
X104145121Y-97999078D01*
X104160167Y-98000500D01*
X104449853Y-98000500D01*
X104739832Y-98000499D01*
X104742782Y-98000220D01*
X104742787Y-98000220D01*
X104762850Y-97998324D01*
X104762851Y-97998324D01*
X104770500Y-97997601D01*
X104777748Y-97995056D01*
X104777751Y-97995055D01*
X104885879Y-97957083D01*
X104885881Y-97957082D01*
X104894768Y-97953961D01*
X104902343Y-97948366D01*
X104902345Y-97948365D01*
X104993140Y-97881303D01*
X105000711Y-97875711D01*
X105007402Y-97866651D01*
X105009015Y-97865428D01*
X105012968Y-97861475D01*
X105013510Y-97862017D01*
X105063963Y-97823739D01*
X105134745Y-97818217D01*
X105191268Y-97846283D01*
X105217865Y-97869329D01*
X105225548Y-97871000D01*
X107769884Y-97871000D01*
X107785123Y-97866525D01*
X107786328Y-97865135D01*
X107787999Y-97857452D01*
X107787999Y-97755331D01*
X107787629Y-97748510D01*
X107782105Y-97697648D01*
X107778479Y-97682396D01*
X107733324Y-97561946D01*
X107724786Y-97546351D01*
X107648285Y-97444276D01*
X107635724Y-97431715D01*
X107530935Y-97353180D01*
X107488420Y-97296321D01*
X107480500Y-97252354D01*
X107480500Y-96830252D01*
X107468867Y-96771769D01*
X107424552Y-96705448D01*
X107358231Y-96661133D01*
X107346062Y-96658712D01*
X107346061Y-96658712D01*
X107305816Y-96650707D01*
X107299748Y-96649500D01*
X107144000Y-96649500D01*
X107075879Y-96629498D01*
X107029386Y-96575842D01*
X107018000Y-96523500D01*
X107018000Y-96283088D01*
X107033933Y-96223627D01*
X107034536Y-96222841D01*
X107047592Y-96191323D01*
X107091884Y-96084391D01*
X107095044Y-96076762D01*
X107115682Y-95920000D01*
X107095044Y-95763238D01*
X107034536Y-95617159D01*
X106938282Y-95491718D01*
X106812841Y-95395464D01*
X106666762Y-95334956D01*
X106510000Y-95314318D01*
X106353238Y-95334956D01*
X106207159Y-95395464D01*
X106081718Y-95491718D01*
X105985464Y-95617159D01*
X105924956Y-95763238D01*
X105904318Y-95920000D01*
X105924956Y-96076762D01*
X105928116Y-96084391D01*
X105972409Y-96191323D01*
X105982000Y-96239541D01*
X105982000Y-96523500D01*
X105961998Y-96591621D01*
X105908342Y-96638114D01*
X105856000Y-96649500D01*
X105700252Y-96649500D01*
X105694184Y-96650707D01*
X105674718Y-96654579D01*
X105650137Y-96657000D01*
X105052639Y-96657000D01*
X104984518Y-96636998D01*
X104977780Y-96632352D01*
X104902345Y-96576635D01*
X104902343Y-96576634D01*
X104894768Y-96571039D01*
X104885881Y-96567918D01*
X104885879Y-96567917D01*
X104777748Y-96529944D01*
X104777746Y-96529943D01*
X104770500Y-96527399D01*
X104762856Y-96526676D01*
X104762854Y-96526676D01*
X104754879Y-96525922D01*
X104739833Y-96524500D01*
X104450147Y-96524500D01*
X104160168Y-96524501D01*
X104157218Y-96524780D01*
X104157213Y-96524780D01*
X104137150Y-96526676D01*
X104137149Y-96526676D01*
X104129500Y-96527399D01*
X104122252Y-96529944D01*
X104122249Y-96529945D01*
X104014121Y-96567917D01*
X104014119Y-96567918D01*
X104005232Y-96571039D01*
X103997657Y-96576634D01*
X103997655Y-96576635D01*
X103906860Y-96643697D01*
X103899289Y-96649289D01*
X103893697Y-96656860D01*
X103857810Y-96705448D01*
X103821039Y-96755232D01*
X103817918Y-96764119D01*
X103817917Y-96764121D01*
X103781701Y-96867249D01*
X103777399Y-96879500D01*
X103774500Y-96910167D01*
X93100000Y-96910167D01*
X93100000Y-96429413D01*
X93105146Y-96413575D01*
X93101128Y-96401210D01*
X93101358Y-96400428D01*
X93100864Y-96400396D01*
X93115715Y-96173817D01*
X93117866Y-96157477D01*
X93163130Y-95929917D01*
X93167396Y-95913997D01*
X93241974Y-95694298D01*
X93248281Y-95679071D01*
X93340672Y-95491718D01*
X93350900Y-95470979D01*
X93359139Y-95456708D01*
X93488038Y-95263798D01*
X93498071Y-95250722D01*
X93651052Y-95076281D01*
X93662706Y-95064627D01*
X93837147Y-94911646D01*
X93850223Y-94901613D01*
X93947252Y-94836780D01*
X94043137Y-94772712D01*
X94057404Y-94764475D01*
X94163953Y-94711931D01*
X94265496Y-94661856D01*
X94280723Y-94655549D01*
X94481975Y-94587233D01*
X94500425Y-94580970D01*
X94516339Y-94576706D01*
X94733163Y-94533577D01*
X94743902Y-94531441D01*
X94760242Y-94529290D01*
X94986821Y-94514439D01*
X94986832Y-94514602D01*
X94987108Y-94514532D01*
X95000000Y-94518721D01*
X95015838Y-94513575D01*
X149474000Y-94513575D01*
X149542121Y-94533577D01*
G37*
%TD.AperFunction*%
%TD*%
%TA.AperFunction,Conductor*%
%TO.N,GND*%
G36*
X192394407Y-99359890D02*
G01*
X192458264Y-99390917D01*
X192495210Y-99451543D01*
X192499500Y-99484143D01*
X192499500Y-103584000D01*
X192479498Y-103652121D01*
X192425842Y-103698614D01*
X192373500Y-103710000D01*
X187340000Y-103710000D01*
X187340000Y-99330000D01*
X192216760Y-99330000D01*
X192394407Y-99359890D01*
G37*
%TD.AperFunction*%
%TD*%
%TA.AperFunction,Conductor*%
%TO.N,GND*%
G36*
X192240000Y-109893239D02*
G01*
X163010339Y-114811328D01*
X163000000Y-114812192D01*
X163000000Y-113800000D01*
X163005366Y-113799064D01*
X163005367Y-113799064D01*
X187322153Y-109557764D01*
X192240000Y-108700000D01*
X192240000Y-109893239D01*
G37*
%TD.AperFunction*%
%TD*%
%TA.AperFunction,Conductor*%
%TO.N,GND*%
G36*
X96560000Y-110680000D02*
G01*
X95060000Y-110680000D01*
X95060000Y-109610000D01*
X96560000Y-109610000D01*
X96560000Y-110680000D01*
G37*
%TD.AperFunction*%
%TD*%
M02*
