%FSLAX45Y45*%
G04 Gerber Fmt 4.5, Leading zero omitted, Abs format (unit mm)*
G04 Created by KiCad (PCBNEW (6.0.2)) date 2022-05-29 22:25:16*
%MOMM*%
%LPD*%
G01*
G04 APERTURE LIST*
%TA.AperFunction,Profile*%
%ADD10C,0.100000*%
%TD*%
%ADD11C,0.200000*%
%ADD12C,0.040000*%
%ADD13C,0.100000*%
%ADD14C,0.140000*%
%ADD15C,0.160000*%
G04 APERTURE END LIST*
D10*
X9500000Y-9441358D02*
X14750000Y-9441358D01*
X20620000Y-10431358D02*
X20620000Y-11281357D01*
X20420000Y-11481357D02*
X9500000Y-11481357D01*
X9300000Y-11281357D02*
X9300000Y-9641358D01*
X15450000Y-10231358D02*
X20420000Y-10231358D01*
X20420000Y-11481357D02*
G75*
G03*
X20620000Y-11281357I0J200000D01*
G01*
X14917914Y-9532707D02*
G75*
G03*
X14750000Y-9441358I-167914J-108650D01*
G01*
X14917914Y-9532707D02*
X15450000Y-10231358D01*
X9300000Y-11281357D02*
G75*
G03*
X9500000Y-11481357I200000J0D01*
G01*
X9500000Y-9441358D02*
G75*
G03*
X9300000Y-9641358I0J-200000D01*
G01*
X20620000Y-10431358D02*
G75*
G03*
X20420000Y-10231358I-200000J0D01*
G01*
D11*
D12*
X10765000Y-10636358D02*
X10805000Y-10676358D01*
X10805000Y-10636358D02*
X10765000Y-10676358D01*
X10770000Y-10011358D02*
X10810000Y-10051358D01*
X10810000Y-10011358D02*
X10770000Y-10051358D01*
X10940000Y-9791358D02*
X10980000Y-9831358D01*
X10980000Y-9791358D02*
X10940000Y-9831358D01*
X10940000Y-10291358D02*
X10980000Y-10331358D01*
X10980000Y-10291358D02*
X10940000Y-10331358D01*
X11330000Y-10851358D02*
X11370000Y-10891358D01*
X11370000Y-10851358D02*
X11330000Y-10891358D01*
X11335000Y-10486358D02*
X11375000Y-10526358D01*
X11375000Y-10486358D02*
X11335000Y-10526358D01*
X11335000Y-10581358D02*
X11375000Y-10621358D01*
X11375000Y-10581358D02*
X11335000Y-10621358D01*
X11410000Y-10531358D02*
X11450000Y-10571358D01*
X11450000Y-10531358D02*
X11410000Y-10571358D01*
X11550000Y-9701358D02*
X11590000Y-9741358D01*
X11590000Y-9701358D02*
X11550000Y-9741358D01*
X11560000Y-10891358D02*
X11600000Y-10931358D01*
X11600000Y-10891358D02*
X11560000Y-10931358D01*
X11560000Y-10981358D02*
X11600000Y-11021358D01*
X11600000Y-10981358D02*
X11560000Y-11021358D01*
X11570000Y-9831358D02*
X11610000Y-9871358D01*
X11610000Y-9831358D02*
X11570000Y-9871358D01*
X11570000Y-9921358D02*
X11610000Y-9961358D01*
X11610000Y-9921358D02*
X11570000Y-9961358D01*
X11630000Y-10301358D02*
X11670000Y-10341358D01*
X11670000Y-10301358D02*
X11630000Y-10341358D01*
X11630000Y-10390000D02*
X11670000Y-10430000D01*
X11670000Y-10390000D02*
X11630000Y-10430000D01*
X11640000Y-9701358D02*
X11680000Y-9741358D01*
X11680000Y-9701358D02*
X11640000Y-9741358D01*
X11850000Y-11271357D02*
X11890000Y-11311357D01*
X11890000Y-11271357D02*
X11850000Y-11311357D01*
X11923299Y-10396701D02*
X11963299Y-10436701D01*
X11963299Y-10396701D02*
X11923299Y-10436701D01*
X11940000Y-11271357D02*
X11980000Y-11311357D01*
X11980000Y-11271357D02*
X11940000Y-11311357D01*
X12030000Y-11271357D02*
X12070000Y-11311357D01*
X12070000Y-11271357D02*
X12030000Y-11311357D01*
X12521255Y-10200102D02*
X12561255Y-10240102D01*
X12561255Y-10200102D02*
X12521255Y-10240102D01*
X12522825Y-10331358D02*
X12562825Y-10371358D01*
X12562825Y-10331358D02*
X12522825Y-10371358D01*
X12540000Y-9861358D02*
X12580000Y-9901358D01*
X12580000Y-9861358D02*
X12540000Y-9901358D01*
X12540000Y-9961358D02*
X12580000Y-10001358D01*
X12580000Y-9961358D02*
X12540000Y-10001358D01*
X12820701Y-9690656D02*
X12860701Y-9730656D01*
X12860701Y-9690656D02*
X12820701Y-9730656D01*
X12898755Y-10945064D02*
X12938755Y-10985064D01*
X12938755Y-10945064D02*
X12898755Y-10985064D01*
X12910701Y-9690656D02*
X12950701Y-9730656D01*
X12950701Y-9690656D02*
X12910701Y-9730656D01*
X13058755Y-11285064D02*
X13098755Y-11325064D01*
X13098755Y-11285064D02*
X13058755Y-11325064D01*
X13098755Y-10835064D02*
X13138755Y-10875064D01*
X13138755Y-10835064D02*
X13098755Y-10875064D01*
X13101255Y-10982564D02*
X13141255Y-11022564D01*
X13141255Y-10982564D02*
X13101255Y-11022564D01*
X13183755Y-10690064D02*
X13223755Y-10730064D01*
X13223755Y-10690064D02*
X13183755Y-10730064D01*
X13220000Y-11301357D02*
X13260000Y-11341357D01*
X13260000Y-11301357D02*
X13220000Y-11341357D01*
X13230000Y-10011358D02*
X13270000Y-10051358D01*
X13270000Y-10011358D02*
X13230000Y-10051358D01*
X13298755Y-11195064D02*
X13338755Y-11235064D01*
X13338755Y-11195064D02*
X13298755Y-11235064D01*
X13330000Y-10011358D02*
X13370000Y-10051358D01*
X13370000Y-10011358D02*
X13330000Y-10051358D01*
X13420000Y-9931358D02*
X13460000Y-9971358D01*
X13460000Y-9931358D02*
X13420000Y-9971358D01*
X14100000Y-10631358D02*
X14140000Y-10671358D01*
X14140000Y-10631358D02*
X14100000Y-10671358D01*
X14261357Y-10950000D02*
X14301357Y-10990000D01*
X14301357Y-10950000D02*
X14261357Y-10990000D01*
X14470000Y-10580000D02*
X14510000Y-10620000D01*
X14510000Y-10580000D02*
X14470000Y-10620000D01*
X14610000Y-11221357D02*
X14650000Y-11261357D01*
X14650000Y-11221357D02*
X14610000Y-11261357D01*
X14960000Y-10361358D02*
X15000000Y-10401358D01*
X15000000Y-10361358D02*
X14960000Y-10401358D01*
X14970000Y-10451358D02*
X15010000Y-10491358D01*
X15010000Y-10451358D02*
X14970000Y-10491358D01*
X15120000Y-11411357D02*
X15160000Y-11451357D01*
X15160000Y-11411357D02*
X15120000Y-11451357D01*
X15205000Y-10046358D02*
X15245000Y-10086358D01*
X15245000Y-10046358D02*
X15205000Y-10086358D01*
X15220000Y-11411357D02*
X15260000Y-11451357D01*
X15260000Y-11411357D02*
X15220000Y-11451357D01*
X15275000Y-10116358D02*
X15315000Y-10156358D01*
X15315000Y-10116358D02*
X15275000Y-10156358D01*
X15320000Y-11411357D02*
X15360000Y-11451357D01*
X15360000Y-11411357D02*
X15320000Y-11451357D01*
X15350000Y-10191358D02*
X15390000Y-10231358D01*
X15390000Y-10191358D02*
X15350000Y-10231358D01*
X15420000Y-10261358D02*
X15460000Y-10301358D01*
X15460000Y-10261358D02*
X15420000Y-10301358D01*
X15420000Y-10361358D02*
X15460000Y-10401358D01*
X15460000Y-10361358D02*
X15420000Y-10401358D01*
X15420000Y-10461358D02*
X15460000Y-10501358D01*
X15460000Y-10461358D02*
X15420000Y-10501358D01*
X15420000Y-10576358D02*
X15460000Y-10616358D01*
X15460000Y-10576358D02*
X15420000Y-10616358D01*
X15420000Y-10774745D02*
X15460000Y-10814745D01*
X15460000Y-10774745D02*
X15420000Y-10814745D01*
X15420000Y-10901358D02*
X15460000Y-10941358D01*
X15460000Y-10901358D02*
X15420000Y-10941358D01*
X15420000Y-11011358D02*
X15460000Y-11051358D01*
X15460000Y-11011358D02*
X15420000Y-11051358D01*
X15420000Y-11111358D02*
X15460000Y-11151358D01*
X15460000Y-11111358D02*
X15420000Y-11151358D01*
X15420000Y-11211357D02*
X15460000Y-11251357D01*
X15460000Y-11211357D02*
X15420000Y-11251357D01*
X15420000Y-11311357D02*
X15460000Y-11351357D01*
X15460000Y-11311357D02*
X15420000Y-11351357D01*
X15420000Y-11411357D02*
X15460000Y-11451357D01*
X15460000Y-11411357D02*
X15420000Y-11451357D01*
X17714005Y-10779358D02*
X17754005Y-10819358D01*
X17754005Y-10779358D02*
X17714005Y-10819358D01*
X17730000Y-11301357D02*
X17770000Y-11341357D01*
X17770000Y-11301357D02*
X17730000Y-11341357D01*
X17830000Y-11221357D02*
X17870000Y-11261357D01*
X17870000Y-11221357D02*
X17830000Y-11261357D01*
X17880000Y-10291358D02*
X17920000Y-10331358D01*
X17920000Y-10291358D02*
X17880000Y-10331358D01*
X17880000Y-10400000D02*
X17920000Y-10440000D01*
X17920000Y-10400000D02*
X17880000Y-10440000D01*
D13*
X9610000Y-10171358D02*
G75*
G03*
X9610000Y-10171358I-50000J0D01*
G01*
D11*
X9600000Y-10301358D02*
X9600000Y-10041358D01*
X9520000Y-10301358D02*
X9520000Y-10041358D01*
X9600000Y-10041358D02*
G75*
G03*
X9520000Y-10041358I-40000J0D01*
G01*
X9520000Y-10301358D02*
G75*
G03*
X9600000Y-10301358I40000J0D01*
G01*
D13*
X9820000Y-10971358D02*
G75*
G03*
X9820000Y-10971358I-50000J0D01*
G01*
X9910000Y-10641358D02*
G75*
G03*
X9910000Y-10641358I-50000J0D01*
G01*
D11*
X9755000Y-10681358D02*
X9965000Y-10681358D01*
X9755000Y-10601358D02*
X9965000Y-10601358D01*
X9965000Y-10681358D02*
G75*
G03*
X9965000Y-10601358I0J40000D01*
G01*
X9755000Y-10601358D02*
G75*
G03*
X9755000Y-10681358I0J-40000D01*
G01*
D13*
X10074000Y-10971358D02*
G75*
G03*
X10074000Y-10971358I-50000J0D01*
G01*
X10210000Y-10171358D02*
G75*
G03*
X10210000Y-10171358I-50000J0D01*
G01*
D11*
X10200000Y-10301358D02*
X10200000Y-10041358D01*
X10120000Y-10301358D02*
X10120000Y-10041358D01*
X10200000Y-10041358D02*
G75*
G03*
X10120000Y-10041358I-40000J0D01*
G01*
X10120000Y-10301358D02*
G75*
G03*
X10200000Y-10301358I40000J0D01*
G01*
D13*
X12130000Y-9847358D02*
G75*
G03*
X12130000Y-9847358I-50000J0D01*
G01*
X12130000Y-10101358D02*
G75*
G03*
X12130000Y-10101358I-50000J0D01*
G01*
D14*
X20185000Y-10786960D02*
X20185000Y-10926960D01*
X20115000Y-10856960D02*
X20255000Y-10856960D01*
D15*
X19984069Y-10656029D02*
X19984069Y-10542891D01*
X19870931Y-10542891D01*
X19870931Y-10656029D01*
X19984069Y-10656029D01*
X19984069Y-11171029D02*
X19984069Y-11057891D01*
X19870931Y-11057891D01*
X19870931Y-11171029D01*
X19984069Y-11171029D01*
X20499069Y-10656029D02*
X20499069Y-10542891D01*
X20385931Y-10542891D01*
X20385931Y-10656029D01*
X20499069Y-10656029D01*
X20499069Y-11171029D02*
X20499069Y-11057891D01*
X20385931Y-11057891D01*
X20385931Y-11171029D01*
X20499069Y-11171029D01*
D11*
X9552619Y-11796834D02*
X9552619Y-11596834D01*
X9600238Y-11596834D01*
X9628810Y-11606357D01*
X9647857Y-11625405D01*
X9657381Y-11644453D01*
X9666905Y-11682548D01*
X9666905Y-11711119D01*
X9657381Y-11749215D01*
X9647857Y-11768262D01*
X9628810Y-11787310D01*
X9600238Y-11796834D01*
X9552619Y-11796834D01*
X9752619Y-11796834D02*
X9752619Y-11663500D01*
X9752619Y-11701595D02*
X9762143Y-11682548D01*
X9771667Y-11673024D01*
X9790714Y-11663500D01*
X9809762Y-11663500D01*
X9876429Y-11796834D02*
X9876429Y-11663500D01*
X9876429Y-11596834D02*
X9866905Y-11606357D01*
X9876429Y-11615881D01*
X9885952Y-11606357D01*
X9876429Y-11596834D01*
X9876429Y-11615881D01*
X10000238Y-11796834D02*
X9981190Y-11787310D01*
X9971667Y-11768262D01*
X9971667Y-11596834D01*
X10105000Y-11796834D02*
X10085952Y-11787310D01*
X10076429Y-11768262D01*
X10076429Y-11596834D01*
X10333571Y-11796834D02*
X10333571Y-11596834D01*
X10400238Y-11739691D01*
X10466905Y-11596834D01*
X10466905Y-11796834D01*
X10647857Y-11796834D02*
X10647857Y-11692072D01*
X10638333Y-11673024D01*
X10619286Y-11663500D01*
X10581190Y-11663500D01*
X10562143Y-11673024D01*
X10647857Y-11787310D02*
X10628810Y-11796834D01*
X10581190Y-11796834D01*
X10562143Y-11787310D01*
X10552619Y-11768262D01*
X10552619Y-11749215D01*
X10562143Y-11730167D01*
X10581190Y-11720643D01*
X10628810Y-11720643D01*
X10647857Y-11711119D01*
X10743095Y-11663500D02*
X10743095Y-11863500D01*
X10743095Y-11673024D02*
X10762143Y-11663500D01*
X10800238Y-11663500D01*
X10819286Y-11673024D01*
X10828810Y-11682548D01*
X10838333Y-11701595D01*
X10838333Y-11758738D01*
X10828810Y-11777786D01*
X10819286Y-11787310D01*
X10800238Y-11796834D01*
X10762143Y-11796834D01*
X10743095Y-11787310D01*
X10924048Y-11777786D02*
X10933571Y-11787310D01*
X10924048Y-11796834D01*
X10914524Y-11787310D01*
X10924048Y-11777786D01*
X10924048Y-11796834D01*
X10924048Y-11673024D02*
X10933571Y-11682548D01*
X10924048Y-11692072D01*
X10914524Y-11682548D01*
X10924048Y-11673024D01*
X10924048Y-11692072D01*
D12*
X9255000Y-12106357D02*
X9295000Y-12146357D01*
X9295000Y-12106357D02*
X9255000Y-12146357D01*
D11*
X9590714Y-12016834D02*
X9609762Y-12016834D01*
X9628810Y-12026357D01*
X9638333Y-12035881D01*
X9647857Y-12054929D01*
X9657381Y-12093024D01*
X9657381Y-12140643D01*
X9647857Y-12178738D01*
X9638333Y-12197786D01*
X9628810Y-12207310D01*
X9609762Y-12216834D01*
X9590714Y-12216834D01*
X9571667Y-12207310D01*
X9562143Y-12197786D01*
X9552619Y-12178738D01*
X9543095Y-12140643D01*
X9543095Y-12093024D01*
X9552619Y-12054929D01*
X9562143Y-12035881D01*
X9571667Y-12026357D01*
X9590714Y-12016834D01*
X9743095Y-12197786D02*
X9752619Y-12207310D01*
X9743095Y-12216834D01*
X9733571Y-12207310D01*
X9743095Y-12197786D01*
X9743095Y-12216834D01*
X9924048Y-12083500D02*
X9924048Y-12216834D01*
X9876429Y-12007310D02*
X9828810Y-12150167D01*
X9952619Y-12150167D01*
X10066905Y-12016834D02*
X10085952Y-12016834D01*
X10105000Y-12026357D01*
X10114524Y-12035881D01*
X10124048Y-12054929D01*
X10133571Y-12093024D01*
X10133571Y-12140643D01*
X10124048Y-12178738D01*
X10114524Y-12197786D01*
X10105000Y-12207310D01*
X10085952Y-12216834D01*
X10066905Y-12216834D01*
X10047857Y-12207310D01*
X10038333Y-12197786D01*
X10028810Y-12178738D01*
X10019286Y-12140643D01*
X10019286Y-12093024D01*
X10028810Y-12054929D01*
X10038333Y-12035881D01*
X10047857Y-12026357D01*
X10066905Y-12016834D01*
X10257381Y-12016834D02*
X10276429Y-12016834D01*
X10295476Y-12026357D01*
X10305000Y-12035881D01*
X10314524Y-12054929D01*
X10324048Y-12093024D01*
X10324048Y-12140643D01*
X10314524Y-12178738D01*
X10305000Y-12197786D01*
X10295476Y-12207310D01*
X10276429Y-12216834D01*
X10257381Y-12216834D01*
X10238333Y-12207310D01*
X10228810Y-12197786D01*
X10219286Y-12178738D01*
X10209762Y-12140643D01*
X10209762Y-12093024D01*
X10219286Y-12054929D01*
X10228810Y-12035881D01*
X10238333Y-12026357D01*
X10257381Y-12016834D01*
X10409762Y-12216834D02*
X10409762Y-12083500D01*
X10409762Y-12102548D02*
X10419286Y-12093024D01*
X10438333Y-12083500D01*
X10466905Y-12083500D01*
X10485952Y-12093024D01*
X10495476Y-12112072D01*
X10495476Y-12216834D01*
X10495476Y-12112072D02*
X10505000Y-12093024D01*
X10524048Y-12083500D01*
X10552619Y-12083500D01*
X10571667Y-12093024D01*
X10581190Y-12112072D01*
X10581190Y-12216834D01*
X10676429Y-12216834D02*
X10676429Y-12083500D01*
X10676429Y-12102548D02*
X10685952Y-12093024D01*
X10705000Y-12083500D01*
X10733571Y-12083500D01*
X10752619Y-12093024D01*
X10762143Y-12112072D01*
X10762143Y-12216834D01*
X10762143Y-12112072D02*
X10771667Y-12093024D01*
X10790714Y-12083500D01*
X10819286Y-12083500D01*
X10838333Y-12093024D01*
X10847857Y-12112072D01*
X10847857Y-12216834D01*
X11238333Y-12007310D02*
X11066905Y-12264453D01*
X11495476Y-12016834D02*
X11514524Y-12016834D01*
X11533571Y-12026357D01*
X11543095Y-12035881D01*
X11552619Y-12054929D01*
X11562143Y-12093024D01*
X11562143Y-12140643D01*
X11552619Y-12178738D01*
X11543095Y-12197786D01*
X11533571Y-12207310D01*
X11514524Y-12216834D01*
X11495476Y-12216834D01*
X11476428Y-12207310D01*
X11466905Y-12197786D01*
X11457381Y-12178738D01*
X11447857Y-12140643D01*
X11447857Y-12093024D01*
X11457381Y-12054929D01*
X11466905Y-12035881D01*
X11476428Y-12026357D01*
X11495476Y-12016834D01*
X11647857Y-12197786D02*
X11657381Y-12207310D01*
X11647857Y-12216834D01*
X11638333Y-12207310D01*
X11647857Y-12197786D01*
X11647857Y-12216834D01*
X11781190Y-12016834D02*
X11800238Y-12016834D01*
X11819286Y-12026357D01*
X11828809Y-12035881D01*
X11838333Y-12054929D01*
X11847857Y-12093024D01*
X11847857Y-12140643D01*
X11838333Y-12178738D01*
X11828809Y-12197786D01*
X11819286Y-12207310D01*
X11800238Y-12216834D01*
X11781190Y-12216834D01*
X11762143Y-12207310D01*
X11752619Y-12197786D01*
X11743095Y-12178738D01*
X11733571Y-12140643D01*
X11733571Y-12093024D01*
X11743095Y-12054929D01*
X11752619Y-12035881D01*
X11762143Y-12026357D01*
X11781190Y-12016834D01*
X12038333Y-12216834D02*
X11924048Y-12216834D01*
X11981190Y-12216834D02*
X11981190Y-12016834D01*
X11962143Y-12045405D01*
X11943095Y-12064453D01*
X11924048Y-12073976D01*
X12219286Y-12016834D02*
X12124048Y-12016834D01*
X12114524Y-12112072D01*
X12124048Y-12102548D01*
X12143095Y-12093024D01*
X12190714Y-12093024D01*
X12209762Y-12102548D01*
X12219286Y-12112072D01*
X12228809Y-12131119D01*
X12228809Y-12178738D01*
X12219286Y-12197786D01*
X12209762Y-12207310D01*
X12190714Y-12216834D01*
X12143095Y-12216834D01*
X12124048Y-12207310D01*
X12114524Y-12197786D01*
X12295476Y-12016834D02*
X12428809Y-12016834D01*
X12343095Y-12216834D01*
X12495476Y-12016834D02*
X12495476Y-12054929D01*
X12571667Y-12016834D02*
X12571667Y-12054929D01*
X12866905Y-12293024D02*
X12857381Y-12283500D01*
X12838333Y-12254929D01*
X12828809Y-12235881D01*
X12819286Y-12207310D01*
X12809762Y-12159691D01*
X12809762Y-12121595D01*
X12819286Y-12073976D01*
X12828809Y-12045405D01*
X12838333Y-12026357D01*
X12857381Y-11997786D01*
X12866905Y-11988262D01*
X13028809Y-12016834D02*
X12990714Y-12016834D01*
X12971667Y-12026357D01*
X12962143Y-12035881D01*
X12943095Y-12064453D01*
X12933571Y-12102548D01*
X12933571Y-12178738D01*
X12943095Y-12197786D01*
X12952619Y-12207310D01*
X12971667Y-12216834D01*
X13009762Y-12216834D01*
X13028809Y-12207310D01*
X13038333Y-12197786D01*
X13047857Y-12178738D01*
X13047857Y-12131119D01*
X13038333Y-12112072D01*
X13028809Y-12102548D01*
X13009762Y-12093024D01*
X12971667Y-12093024D01*
X12952619Y-12102548D01*
X12943095Y-12112072D01*
X12933571Y-12131119D01*
X13219286Y-12083500D02*
X13219286Y-12216834D01*
X13171667Y-12007310D02*
X13124048Y-12150167D01*
X13247857Y-12150167D01*
X13476428Y-12216834D02*
X13476428Y-12016834D01*
X13562143Y-12216834D02*
X13562143Y-12112072D01*
X13552619Y-12093024D01*
X13533571Y-12083500D01*
X13505000Y-12083500D01*
X13485952Y-12093024D01*
X13476428Y-12102548D01*
X13685952Y-12216834D02*
X13666905Y-12207310D01*
X13657381Y-12197786D01*
X13647857Y-12178738D01*
X13647857Y-12121595D01*
X13657381Y-12102548D01*
X13666905Y-12093024D01*
X13685952Y-12083500D01*
X13714524Y-12083500D01*
X13733571Y-12093024D01*
X13743095Y-12102548D01*
X13752619Y-12121595D01*
X13752619Y-12178738D01*
X13743095Y-12197786D01*
X13733571Y-12207310D01*
X13714524Y-12216834D01*
X13685952Y-12216834D01*
X13866905Y-12216834D02*
X13847857Y-12207310D01*
X13838333Y-12188262D01*
X13838333Y-12016834D01*
X14019286Y-12207310D02*
X14000238Y-12216834D01*
X13962143Y-12216834D01*
X13943095Y-12207310D01*
X13933571Y-12188262D01*
X13933571Y-12112072D01*
X13943095Y-12093024D01*
X13962143Y-12083500D01*
X14000238Y-12083500D01*
X14019286Y-12093024D01*
X14028809Y-12112072D01*
X14028809Y-12131119D01*
X13933571Y-12150167D01*
X14105000Y-12207310D02*
X14124048Y-12216834D01*
X14162143Y-12216834D01*
X14181190Y-12207310D01*
X14190714Y-12188262D01*
X14190714Y-12178738D01*
X14181190Y-12159691D01*
X14162143Y-12150167D01*
X14133571Y-12150167D01*
X14114524Y-12140643D01*
X14105000Y-12121595D01*
X14105000Y-12112072D01*
X14114524Y-12093024D01*
X14133571Y-12083500D01*
X14162143Y-12083500D01*
X14181190Y-12093024D01*
X14257381Y-12293024D02*
X14266905Y-12283500D01*
X14285952Y-12254929D01*
X14295476Y-12235881D01*
X14305000Y-12207310D01*
X14314524Y-12159691D01*
X14314524Y-12121595D01*
X14305000Y-12073976D01*
X14295476Y-12045405D01*
X14285952Y-12026357D01*
X14266905Y-11997786D01*
X14257381Y-11988262D01*
D13*
X9295000Y-12390357D02*
G75*
G03*
X9295000Y-12390357I-50000J0D01*
G01*
D11*
X9657381Y-12480834D02*
X9543095Y-12480834D01*
X9600238Y-12480834D02*
X9600238Y-12280834D01*
X9581190Y-12309405D01*
X9562143Y-12328453D01*
X9543095Y-12337976D01*
X9743095Y-12461786D02*
X9752619Y-12471310D01*
X9743095Y-12480834D01*
X9733571Y-12471310D01*
X9743095Y-12461786D01*
X9743095Y-12480834D01*
X9876429Y-12280834D02*
X9895476Y-12280834D01*
X9914524Y-12290357D01*
X9924048Y-12299881D01*
X9933571Y-12318929D01*
X9943095Y-12357024D01*
X9943095Y-12404643D01*
X9933571Y-12442738D01*
X9924048Y-12461786D01*
X9914524Y-12471310D01*
X9895476Y-12480834D01*
X9876429Y-12480834D01*
X9857381Y-12471310D01*
X9847857Y-12461786D01*
X9838333Y-12442738D01*
X9828810Y-12404643D01*
X9828810Y-12357024D01*
X9838333Y-12318929D01*
X9847857Y-12299881D01*
X9857381Y-12290357D01*
X9876429Y-12280834D01*
X10066905Y-12280834D02*
X10085952Y-12280834D01*
X10105000Y-12290357D01*
X10114524Y-12299881D01*
X10124048Y-12318929D01*
X10133571Y-12357024D01*
X10133571Y-12404643D01*
X10124048Y-12442738D01*
X10114524Y-12461786D01*
X10105000Y-12471310D01*
X10085952Y-12480834D01*
X10066905Y-12480834D01*
X10047857Y-12471310D01*
X10038333Y-12461786D01*
X10028810Y-12442738D01*
X10019286Y-12404643D01*
X10019286Y-12357024D01*
X10028810Y-12318929D01*
X10038333Y-12299881D01*
X10047857Y-12290357D01*
X10066905Y-12280834D01*
X10257381Y-12280834D02*
X10276429Y-12280834D01*
X10295476Y-12290357D01*
X10305000Y-12299881D01*
X10314524Y-12318929D01*
X10324048Y-12357024D01*
X10324048Y-12404643D01*
X10314524Y-12442738D01*
X10305000Y-12461786D01*
X10295476Y-12471310D01*
X10276429Y-12480834D01*
X10257381Y-12480834D01*
X10238333Y-12471310D01*
X10228810Y-12461786D01*
X10219286Y-12442738D01*
X10209762Y-12404643D01*
X10209762Y-12357024D01*
X10219286Y-12318929D01*
X10228810Y-12299881D01*
X10238333Y-12290357D01*
X10257381Y-12280834D01*
X10409762Y-12480834D02*
X10409762Y-12347500D01*
X10409762Y-12366548D02*
X10419286Y-12357024D01*
X10438333Y-12347500D01*
X10466905Y-12347500D01*
X10485952Y-12357024D01*
X10495476Y-12376072D01*
X10495476Y-12480834D01*
X10495476Y-12376072D02*
X10505000Y-12357024D01*
X10524048Y-12347500D01*
X10552619Y-12347500D01*
X10571667Y-12357024D01*
X10581190Y-12376072D01*
X10581190Y-12480834D01*
X10676429Y-12480834D02*
X10676429Y-12347500D01*
X10676429Y-12366548D02*
X10685952Y-12357024D01*
X10705000Y-12347500D01*
X10733571Y-12347500D01*
X10752619Y-12357024D01*
X10762143Y-12376072D01*
X10762143Y-12480834D01*
X10762143Y-12376072D02*
X10771667Y-12357024D01*
X10790714Y-12347500D01*
X10819286Y-12347500D01*
X10838333Y-12357024D01*
X10847857Y-12376072D01*
X10847857Y-12480834D01*
X11238333Y-12271310D02*
X11066905Y-12528453D01*
X11495476Y-12280834D02*
X11514524Y-12280834D01*
X11533571Y-12290357D01*
X11543095Y-12299881D01*
X11552619Y-12318929D01*
X11562143Y-12357024D01*
X11562143Y-12404643D01*
X11552619Y-12442738D01*
X11543095Y-12461786D01*
X11533571Y-12471310D01*
X11514524Y-12480834D01*
X11495476Y-12480834D01*
X11476428Y-12471310D01*
X11466905Y-12461786D01*
X11457381Y-12442738D01*
X11447857Y-12404643D01*
X11447857Y-12357024D01*
X11457381Y-12318929D01*
X11466905Y-12299881D01*
X11476428Y-12290357D01*
X11495476Y-12280834D01*
X11647857Y-12461786D02*
X11657381Y-12471310D01*
X11647857Y-12480834D01*
X11638333Y-12471310D01*
X11647857Y-12461786D01*
X11647857Y-12480834D01*
X11781190Y-12280834D02*
X11800238Y-12280834D01*
X11819286Y-12290357D01*
X11828809Y-12299881D01*
X11838333Y-12318929D01*
X11847857Y-12357024D01*
X11847857Y-12404643D01*
X11838333Y-12442738D01*
X11828809Y-12461786D01*
X11819286Y-12471310D01*
X11800238Y-12480834D01*
X11781190Y-12480834D01*
X11762143Y-12471310D01*
X11752619Y-12461786D01*
X11743095Y-12442738D01*
X11733571Y-12404643D01*
X11733571Y-12357024D01*
X11743095Y-12318929D01*
X11752619Y-12299881D01*
X11762143Y-12290357D01*
X11781190Y-12280834D01*
X11914524Y-12280834D02*
X12038333Y-12280834D01*
X11971667Y-12357024D01*
X12000238Y-12357024D01*
X12019286Y-12366548D01*
X12028809Y-12376072D01*
X12038333Y-12395119D01*
X12038333Y-12442738D01*
X12028809Y-12461786D01*
X12019286Y-12471310D01*
X12000238Y-12480834D01*
X11943095Y-12480834D01*
X11924048Y-12471310D01*
X11914524Y-12461786D01*
X12133571Y-12480834D02*
X12171667Y-12480834D01*
X12190714Y-12471310D01*
X12200238Y-12461786D01*
X12219286Y-12433215D01*
X12228809Y-12395119D01*
X12228809Y-12318929D01*
X12219286Y-12299881D01*
X12209762Y-12290357D01*
X12190714Y-12280834D01*
X12152619Y-12280834D01*
X12133571Y-12290357D01*
X12124048Y-12299881D01*
X12114524Y-12318929D01*
X12114524Y-12366548D01*
X12124048Y-12385595D01*
X12133571Y-12395119D01*
X12152619Y-12404643D01*
X12190714Y-12404643D01*
X12209762Y-12395119D01*
X12219286Y-12385595D01*
X12228809Y-12366548D01*
X12400238Y-12347500D02*
X12400238Y-12480834D01*
X12352619Y-12271310D02*
X12305000Y-12414167D01*
X12428809Y-12414167D01*
X12495476Y-12280834D02*
X12495476Y-12318929D01*
X12571667Y-12280834D02*
X12571667Y-12318929D01*
X12866905Y-12557024D02*
X12857381Y-12547500D01*
X12838333Y-12518929D01*
X12828809Y-12499881D01*
X12819286Y-12471310D01*
X12809762Y-12423691D01*
X12809762Y-12385595D01*
X12819286Y-12337976D01*
X12828809Y-12309405D01*
X12838333Y-12290357D01*
X12857381Y-12261786D01*
X12866905Y-12252262D01*
X13028809Y-12347500D02*
X13028809Y-12480834D01*
X12981190Y-12271310D02*
X12933571Y-12414167D01*
X13057381Y-12414167D01*
X13285952Y-12480834D02*
X13285952Y-12280834D01*
X13371667Y-12480834D02*
X13371667Y-12376072D01*
X13362143Y-12357024D01*
X13343095Y-12347500D01*
X13314524Y-12347500D01*
X13295476Y-12357024D01*
X13285952Y-12366548D01*
X13495476Y-12480834D02*
X13476428Y-12471310D01*
X13466905Y-12461786D01*
X13457381Y-12442738D01*
X13457381Y-12385595D01*
X13466905Y-12366548D01*
X13476428Y-12357024D01*
X13495476Y-12347500D01*
X13524048Y-12347500D01*
X13543095Y-12357024D01*
X13552619Y-12366548D01*
X13562143Y-12385595D01*
X13562143Y-12442738D01*
X13552619Y-12461786D01*
X13543095Y-12471310D01*
X13524048Y-12480834D01*
X13495476Y-12480834D01*
X13676428Y-12480834D02*
X13657381Y-12471310D01*
X13647857Y-12452262D01*
X13647857Y-12280834D01*
X13828809Y-12471310D02*
X13809762Y-12480834D01*
X13771667Y-12480834D01*
X13752619Y-12471310D01*
X13743095Y-12452262D01*
X13743095Y-12376072D01*
X13752619Y-12357024D01*
X13771667Y-12347500D01*
X13809762Y-12347500D01*
X13828809Y-12357024D01*
X13838333Y-12376072D01*
X13838333Y-12395119D01*
X13743095Y-12414167D01*
X13914524Y-12471310D02*
X13933571Y-12480834D01*
X13971667Y-12480834D01*
X13990714Y-12471310D01*
X14000238Y-12452262D01*
X14000238Y-12442738D01*
X13990714Y-12423691D01*
X13971667Y-12414167D01*
X13943095Y-12414167D01*
X13924048Y-12404643D01*
X13914524Y-12385595D01*
X13914524Y-12376072D01*
X13924048Y-12357024D01*
X13943095Y-12347500D01*
X13971667Y-12347500D01*
X13990714Y-12357024D01*
X14238333Y-12404643D02*
X14390714Y-12404643D01*
X14314524Y-12480834D02*
X14314524Y-12328453D01*
X14619286Y-12280834D02*
X14743095Y-12280834D01*
X14676428Y-12357024D01*
X14705000Y-12357024D01*
X14724048Y-12366548D01*
X14733571Y-12376072D01*
X14743095Y-12395119D01*
X14743095Y-12442738D01*
X14733571Y-12461786D01*
X14724048Y-12471310D01*
X14705000Y-12480834D01*
X14647857Y-12480834D01*
X14628809Y-12471310D01*
X14619286Y-12461786D01*
X14971667Y-12471310D02*
X14990714Y-12480834D01*
X15028809Y-12480834D01*
X15047857Y-12471310D01*
X15057381Y-12452262D01*
X15057381Y-12442738D01*
X15047857Y-12423691D01*
X15028809Y-12414167D01*
X15000238Y-12414167D01*
X14981190Y-12404643D01*
X14971667Y-12385595D01*
X14971667Y-12376072D01*
X14981190Y-12357024D01*
X15000238Y-12347500D01*
X15028809Y-12347500D01*
X15047857Y-12357024D01*
X15171667Y-12480834D02*
X15152619Y-12471310D01*
X15143095Y-12452262D01*
X15143095Y-12280834D01*
X15276428Y-12480834D02*
X15257381Y-12471310D01*
X15247857Y-12461786D01*
X15238333Y-12442738D01*
X15238333Y-12385595D01*
X15247857Y-12366548D01*
X15257381Y-12357024D01*
X15276428Y-12347500D01*
X15305000Y-12347500D01*
X15324048Y-12357024D01*
X15333571Y-12366548D01*
X15343095Y-12385595D01*
X15343095Y-12442738D01*
X15333571Y-12461786D01*
X15324048Y-12471310D01*
X15305000Y-12480834D01*
X15276428Y-12480834D01*
X15400238Y-12347500D02*
X15476428Y-12347500D01*
X15428809Y-12280834D02*
X15428809Y-12452262D01*
X15438333Y-12471310D01*
X15457381Y-12480834D01*
X15476428Y-12480834D01*
X15533571Y-12471310D02*
X15552619Y-12480834D01*
X15590714Y-12480834D01*
X15609762Y-12471310D01*
X15619286Y-12452262D01*
X15619286Y-12442738D01*
X15609762Y-12423691D01*
X15590714Y-12414167D01*
X15562143Y-12414167D01*
X15543095Y-12404643D01*
X15533571Y-12385595D01*
X15533571Y-12376072D01*
X15543095Y-12357024D01*
X15562143Y-12347500D01*
X15590714Y-12347500D01*
X15609762Y-12357024D01*
X15685952Y-12557024D02*
X15695476Y-12547500D01*
X15714524Y-12518929D01*
X15724048Y-12499881D01*
X15733571Y-12471310D01*
X15743095Y-12423691D01*
X15743095Y-12385595D01*
X15733571Y-12337976D01*
X15724048Y-12309405D01*
X15714524Y-12290357D01*
X15695476Y-12261786D01*
X15685952Y-12252262D01*
D14*
X9225000Y-12584357D02*
X9225000Y-12724357D01*
X9155000Y-12654357D02*
X9295000Y-12654357D01*
D11*
X9657381Y-12744834D02*
X9543095Y-12744834D01*
X9600238Y-12744834D02*
X9600238Y-12544834D01*
X9581190Y-12573405D01*
X9562143Y-12592453D01*
X9543095Y-12601976D01*
X9743095Y-12725786D02*
X9752619Y-12735310D01*
X9743095Y-12744834D01*
X9733571Y-12735310D01*
X9743095Y-12725786D01*
X9743095Y-12744834D01*
X9924048Y-12611500D02*
X9924048Y-12744834D01*
X9876429Y-12535310D02*
X9828810Y-12678167D01*
X9952619Y-12678167D01*
X10066905Y-12544834D02*
X10085952Y-12544834D01*
X10105000Y-12554357D01*
X10114524Y-12563881D01*
X10124048Y-12582929D01*
X10133571Y-12621024D01*
X10133571Y-12668643D01*
X10124048Y-12706738D01*
X10114524Y-12725786D01*
X10105000Y-12735310D01*
X10085952Y-12744834D01*
X10066905Y-12744834D01*
X10047857Y-12735310D01*
X10038333Y-12725786D01*
X10028810Y-12706738D01*
X10019286Y-12668643D01*
X10019286Y-12621024D01*
X10028810Y-12582929D01*
X10038333Y-12563881D01*
X10047857Y-12554357D01*
X10066905Y-12544834D01*
X10257381Y-12544834D02*
X10276429Y-12544834D01*
X10295476Y-12554357D01*
X10305000Y-12563881D01*
X10314524Y-12582929D01*
X10324048Y-12621024D01*
X10324048Y-12668643D01*
X10314524Y-12706738D01*
X10305000Y-12725786D01*
X10295476Y-12735310D01*
X10276429Y-12744834D01*
X10257381Y-12744834D01*
X10238333Y-12735310D01*
X10228810Y-12725786D01*
X10219286Y-12706738D01*
X10209762Y-12668643D01*
X10209762Y-12621024D01*
X10219286Y-12582929D01*
X10228810Y-12563881D01*
X10238333Y-12554357D01*
X10257381Y-12544834D01*
X10409762Y-12744834D02*
X10409762Y-12611500D01*
X10409762Y-12630548D02*
X10419286Y-12621024D01*
X10438333Y-12611500D01*
X10466905Y-12611500D01*
X10485952Y-12621024D01*
X10495476Y-12640072D01*
X10495476Y-12744834D01*
X10495476Y-12640072D02*
X10505000Y-12621024D01*
X10524048Y-12611500D01*
X10552619Y-12611500D01*
X10571667Y-12621024D01*
X10581190Y-12640072D01*
X10581190Y-12744834D01*
X10676429Y-12744834D02*
X10676429Y-12611500D01*
X10676429Y-12630548D02*
X10685952Y-12621024D01*
X10705000Y-12611500D01*
X10733571Y-12611500D01*
X10752619Y-12621024D01*
X10762143Y-12640072D01*
X10762143Y-12744834D01*
X10762143Y-12640072D02*
X10771667Y-12621024D01*
X10790714Y-12611500D01*
X10819286Y-12611500D01*
X10838333Y-12621024D01*
X10847857Y-12640072D01*
X10847857Y-12744834D01*
X11238333Y-12535310D02*
X11066905Y-12792453D01*
X11495476Y-12544834D02*
X11514524Y-12544834D01*
X11533571Y-12554357D01*
X11543095Y-12563881D01*
X11552619Y-12582929D01*
X11562143Y-12621024D01*
X11562143Y-12668643D01*
X11552619Y-12706738D01*
X11543095Y-12725786D01*
X11533571Y-12735310D01*
X11514524Y-12744834D01*
X11495476Y-12744834D01*
X11476428Y-12735310D01*
X11466905Y-12725786D01*
X11457381Y-12706738D01*
X11447857Y-12668643D01*
X11447857Y-12621024D01*
X11457381Y-12582929D01*
X11466905Y-12563881D01*
X11476428Y-12554357D01*
X11495476Y-12544834D01*
X11647857Y-12725786D02*
X11657381Y-12735310D01*
X11647857Y-12744834D01*
X11638333Y-12735310D01*
X11647857Y-12725786D01*
X11647857Y-12744834D01*
X11781190Y-12544834D02*
X11800238Y-12544834D01*
X11819286Y-12554357D01*
X11828809Y-12563881D01*
X11838333Y-12582929D01*
X11847857Y-12621024D01*
X11847857Y-12668643D01*
X11838333Y-12706738D01*
X11828809Y-12725786D01*
X11819286Y-12735310D01*
X11800238Y-12744834D01*
X11781190Y-12744834D01*
X11762143Y-12735310D01*
X11752619Y-12725786D01*
X11743095Y-12706738D01*
X11733571Y-12668643D01*
X11733571Y-12621024D01*
X11743095Y-12582929D01*
X11752619Y-12563881D01*
X11762143Y-12554357D01*
X11781190Y-12544834D01*
X12028809Y-12544834D02*
X11933571Y-12544834D01*
X11924048Y-12640072D01*
X11933571Y-12630548D01*
X11952619Y-12621024D01*
X12000238Y-12621024D01*
X12019286Y-12630548D01*
X12028809Y-12640072D01*
X12038333Y-12659119D01*
X12038333Y-12706738D01*
X12028809Y-12725786D01*
X12019286Y-12735310D01*
X12000238Y-12744834D01*
X11952619Y-12744834D01*
X11933571Y-12735310D01*
X11924048Y-12725786D01*
X12219286Y-12544834D02*
X12124048Y-12544834D01*
X12114524Y-12640072D01*
X12124048Y-12630548D01*
X12143095Y-12621024D01*
X12190714Y-12621024D01*
X12209762Y-12630548D01*
X12219286Y-12640072D01*
X12228809Y-12659119D01*
X12228809Y-12706738D01*
X12219286Y-12725786D01*
X12209762Y-12735310D01*
X12190714Y-12744834D01*
X12143095Y-12744834D01*
X12124048Y-12735310D01*
X12114524Y-12725786D01*
X12419286Y-12744834D02*
X12305000Y-12744834D01*
X12362143Y-12744834D02*
X12362143Y-12544834D01*
X12343095Y-12573405D01*
X12324048Y-12592453D01*
X12305000Y-12601976D01*
X12495476Y-12544834D02*
X12495476Y-12582929D01*
X12571667Y-12544834D02*
X12571667Y-12582929D01*
X12866905Y-12821024D02*
X12857381Y-12811500D01*
X12838333Y-12782929D01*
X12828809Y-12763881D01*
X12819286Y-12735310D01*
X12809762Y-12687691D01*
X12809762Y-12649595D01*
X12819286Y-12601976D01*
X12828809Y-12573405D01*
X12838333Y-12554357D01*
X12857381Y-12525786D01*
X12866905Y-12516262D01*
X13047857Y-12744834D02*
X12933571Y-12744834D01*
X12990714Y-12744834D02*
X12990714Y-12544834D01*
X12971667Y-12573405D01*
X12952619Y-12592453D01*
X12933571Y-12601976D01*
X13285952Y-12744834D02*
X13285952Y-12544834D01*
X13371667Y-12744834D02*
X13371667Y-12640072D01*
X13362143Y-12621024D01*
X13343095Y-12611500D01*
X13314524Y-12611500D01*
X13295476Y-12621024D01*
X13285952Y-12630548D01*
X13495476Y-12744834D02*
X13476428Y-12735310D01*
X13466905Y-12725786D01*
X13457381Y-12706738D01*
X13457381Y-12649595D01*
X13466905Y-12630548D01*
X13476428Y-12621024D01*
X13495476Y-12611500D01*
X13524048Y-12611500D01*
X13543095Y-12621024D01*
X13552619Y-12630548D01*
X13562143Y-12649595D01*
X13562143Y-12706738D01*
X13552619Y-12725786D01*
X13543095Y-12735310D01*
X13524048Y-12744834D01*
X13495476Y-12744834D01*
X13676428Y-12744834D02*
X13657381Y-12735310D01*
X13647857Y-12716262D01*
X13647857Y-12544834D01*
X13828809Y-12735310D02*
X13809762Y-12744834D01*
X13771667Y-12744834D01*
X13752619Y-12735310D01*
X13743095Y-12716262D01*
X13743095Y-12640072D01*
X13752619Y-12621024D01*
X13771667Y-12611500D01*
X13809762Y-12611500D01*
X13828809Y-12621024D01*
X13838333Y-12640072D01*
X13838333Y-12659119D01*
X13743095Y-12678167D01*
X13905000Y-12821024D02*
X13914524Y-12811500D01*
X13933571Y-12782929D01*
X13943095Y-12763881D01*
X13952619Y-12735310D01*
X13962143Y-12687691D01*
X13962143Y-12649595D01*
X13952619Y-12601976D01*
X13943095Y-12573405D01*
X13933571Y-12554357D01*
X13914524Y-12525786D01*
X13905000Y-12516262D01*
D15*
X9271569Y-12974927D02*
X9271569Y-12861788D01*
X9158431Y-12861788D01*
X9158431Y-12974927D01*
X9271569Y-12974927D01*
D11*
X9657381Y-13008834D02*
X9543095Y-13008834D01*
X9600238Y-13008834D02*
X9600238Y-12808834D01*
X9581190Y-12837405D01*
X9562143Y-12856453D01*
X9543095Y-12865976D01*
X9743095Y-12989786D02*
X9752619Y-12999310D01*
X9743095Y-13008834D01*
X9733571Y-12999310D01*
X9743095Y-12989786D01*
X9743095Y-13008834D01*
X9924048Y-12808834D02*
X9885952Y-12808834D01*
X9866905Y-12818357D01*
X9857381Y-12827881D01*
X9838333Y-12856453D01*
X9828810Y-12894548D01*
X9828810Y-12970738D01*
X9838333Y-12989786D01*
X9847857Y-12999310D01*
X9866905Y-13008834D01*
X9905000Y-13008834D01*
X9924048Y-12999310D01*
X9933571Y-12989786D01*
X9943095Y-12970738D01*
X9943095Y-12923119D01*
X9933571Y-12904072D01*
X9924048Y-12894548D01*
X9905000Y-12885024D01*
X9866905Y-12885024D01*
X9847857Y-12894548D01*
X9838333Y-12904072D01*
X9828810Y-12923119D01*
X10066905Y-12808834D02*
X10085952Y-12808834D01*
X10105000Y-12818357D01*
X10114524Y-12827881D01*
X10124048Y-12846929D01*
X10133571Y-12885024D01*
X10133571Y-12932643D01*
X10124048Y-12970738D01*
X10114524Y-12989786D01*
X10105000Y-12999310D01*
X10085952Y-13008834D01*
X10066905Y-13008834D01*
X10047857Y-12999310D01*
X10038333Y-12989786D01*
X10028810Y-12970738D01*
X10019286Y-12932643D01*
X10019286Y-12885024D01*
X10028810Y-12846929D01*
X10038333Y-12827881D01*
X10047857Y-12818357D01*
X10066905Y-12808834D01*
X10257381Y-12808834D02*
X10276429Y-12808834D01*
X10295476Y-12818357D01*
X10305000Y-12827881D01*
X10314524Y-12846929D01*
X10324048Y-12885024D01*
X10324048Y-12932643D01*
X10314524Y-12970738D01*
X10305000Y-12989786D01*
X10295476Y-12999310D01*
X10276429Y-13008834D01*
X10257381Y-13008834D01*
X10238333Y-12999310D01*
X10228810Y-12989786D01*
X10219286Y-12970738D01*
X10209762Y-12932643D01*
X10209762Y-12885024D01*
X10219286Y-12846929D01*
X10228810Y-12827881D01*
X10238333Y-12818357D01*
X10257381Y-12808834D01*
X10409762Y-13008834D02*
X10409762Y-12875500D01*
X10409762Y-12894548D02*
X10419286Y-12885024D01*
X10438333Y-12875500D01*
X10466905Y-12875500D01*
X10485952Y-12885024D01*
X10495476Y-12904072D01*
X10495476Y-13008834D01*
X10495476Y-12904072D02*
X10505000Y-12885024D01*
X10524048Y-12875500D01*
X10552619Y-12875500D01*
X10571667Y-12885024D01*
X10581190Y-12904072D01*
X10581190Y-13008834D01*
X10676429Y-13008834D02*
X10676429Y-12875500D01*
X10676429Y-12894548D02*
X10685952Y-12885024D01*
X10705000Y-12875500D01*
X10733571Y-12875500D01*
X10752619Y-12885024D01*
X10762143Y-12904072D01*
X10762143Y-13008834D01*
X10762143Y-12904072D02*
X10771667Y-12885024D01*
X10790714Y-12875500D01*
X10819286Y-12875500D01*
X10838333Y-12885024D01*
X10847857Y-12904072D01*
X10847857Y-13008834D01*
X11238333Y-12799310D02*
X11066905Y-13056453D01*
X11495476Y-12808834D02*
X11514524Y-12808834D01*
X11533571Y-12818357D01*
X11543095Y-12827881D01*
X11552619Y-12846929D01*
X11562143Y-12885024D01*
X11562143Y-12932643D01*
X11552619Y-12970738D01*
X11543095Y-12989786D01*
X11533571Y-12999310D01*
X11514524Y-13008834D01*
X11495476Y-13008834D01*
X11476428Y-12999310D01*
X11466905Y-12989786D01*
X11457381Y-12970738D01*
X11447857Y-12932643D01*
X11447857Y-12885024D01*
X11457381Y-12846929D01*
X11466905Y-12827881D01*
X11476428Y-12818357D01*
X11495476Y-12808834D01*
X11647857Y-12989786D02*
X11657381Y-12999310D01*
X11647857Y-13008834D01*
X11638333Y-12999310D01*
X11647857Y-12989786D01*
X11647857Y-13008834D01*
X11781190Y-12808834D02*
X11800238Y-12808834D01*
X11819286Y-12818357D01*
X11828809Y-12827881D01*
X11838333Y-12846929D01*
X11847857Y-12885024D01*
X11847857Y-12932643D01*
X11838333Y-12970738D01*
X11828809Y-12989786D01*
X11819286Y-12999310D01*
X11800238Y-13008834D01*
X11781190Y-13008834D01*
X11762143Y-12999310D01*
X11752619Y-12989786D01*
X11743095Y-12970738D01*
X11733571Y-12932643D01*
X11733571Y-12885024D01*
X11743095Y-12846929D01*
X11752619Y-12827881D01*
X11762143Y-12818357D01*
X11781190Y-12808834D01*
X12019286Y-12808834D02*
X11981190Y-12808834D01*
X11962143Y-12818357D01*
X11952619Y-12827881D01*
X11933571Y-12856453D01*
X11924048Y-12894548D01*
X11924048Y-12970738D01*
X11933571Y-12989786D01*
X11943095Y-12999310D01*
X11962143Y-13008834D01*
X12000238Y-13008834D01*
X12019286Y-12999310D01*
X12028809Y-12989786D01*
X12038333Y-12970738D01*
X12038333Y-12923119D01*
X12028809Y-12904072D01*
X12019286Y-12894548D01*
X12000238Y-12885024D01*
X11962143Y-12885024D01*
X11943095Y-12894548D01*
X11933571Y-12904072D01*
X11924048Y-12923119D01*
X12105000Y-12808834D02*
X12228809Y-12808834D01*
X12162143Y-12885024D01*
X12190714Y-12885024D01*
X12209762Y-12894548D01*
X12219286Y-12904072D01*
X12228809Y-12923119D01*
X12228809Y-12970738D01*
X12219286Y-12989786D01*
X12209762Y-12999310D01*
X12190714Y-13008834D01*
X12133571Y-13008834D01*
X12114524Y-12999310D01*
X12105000Y-12989786D01*
X12352619Y-12808834D02*
X12371667Y-12808834D01*
X12390714Y-12818357D01*
X12400238Y-12827881D01*
X12409762Y-12846929D01*
X12419286Y-12885024D01*
X12419286Y-12932643D01*
X12409762Y-12970738D01*
X12400238Y-12989786D01*
X12390714Y-12999310D01*
X12371667Y-13008834D01*
X12352619Y-13008834D01*
X12333571Y-12999310D01*
X12324048Y-12989786D01*
X12314524Y-12970738D01*
X12305000Y-12932643D01*
X12305000Y-12885024D01*
X12314524Y-12846929D01*
X12324048Y-12827881D01*
X12333571Y-12818357D01*
X12352619Y-12808834D01*
X12495476Y-12808834D02*
X12495476Y-12846929D01*
X12571667Y-12808834D02*
X12571667Y-12846929D01*
X12866905Y-13085024D02*
X12857381Y-13075500D01*
X12838333Y-13046929D01*
X12828809Y-13027881D01*
X12819286Y-12999310D01*
X12809762Y-12951691D01*
X12809762Y-12913595D01*
X12819286Y-12865976D01*
X12828809Y-12837405D01*
X12838333Y-12818357D01*
X12857381Y-12789786D01*
X12866905Y-12780262D01*
X13028809Y-12875500D02*
X13028809Y-13008834D01*
X12981190Y-12799310D02*
X12933571Y-12942167D01*
X13057381Y-12942167D01*
X13285952Y-13008834D02*
X13285952Y-12808834D01*
X13371667Y-13008834D02*
X13371667Y-12904072D01*
X13362143Y-12885024D01*
X13343095Y-12875500D01*
X13314524Y-12875500D01*
X13295476Y-12885024D01*
X13285952Y-12894548D01*
X13495476Y-13008834D02*
X13476428Y-12999310D01*
X13466905Y-12989786D01*
X13457381Y-12970738D01*
X13457381Y-12913595D01*
X13466905Y-12894548D01*
X13476428Y-12885024D01*
X13495476Y-12875500D01*
X13524048Y-12875500D01*
X13543095Y-12885024D01*
X13552619Y-12894548D01*
X13562143Y-12913595D01*
X13562143Y-12970738D01*
X13552619Y-12989786D01*
X13543095Y-12999310D01*
X13524048Y-13008834D01*
X13495476Y-13008834D01*
X13676428Y-13008834D02*
X13657381Y-12999310D01*
X13647857Y-12980262D01*
X13647857Y-12808834D01*
X13828809Y-12999310D02*
X13809762Y-13008834D01*
X13771667Y-13008834D01*
X13752619Y-12999310D01*
X13743095Y-12980262D01*
X13743095Y-12904072D01*
X13752619Y-12885024D01*
X13771667Y-12875500D01*
X13809762Y-12875500D01*
X13828809Y-12885024D01*
X13838333Y-12904072D01*
X13838333Y-12923119D01*
X13743095Y-12942167D01*
X13914524Y-12999310D02*
X13933571Y-13008834D01*
X13971667Y-13008834D01*
X13990714Y-12999310D01*
X14000238Y-12980262D01*
X14000238Y-12970738D01*
X13990714Y-12951691D01*
X13971667Y-12942167D01*
X13943095Y-12942167D01*
X13924048Y-12932643D01*
X13914524Y-12913595D01*
X13914524Y-12904072D01*
X13924048Y-12885024D01*
X13943095Y-12875500D01*
X13971667Y-12875500D01*
X13990714Y-12885024D01*
X14066905Y-13085024D02*
X14076428Y-13075500D01*
X14095476Y-13046929D01*
X14105000Y-13027881D01*
X14114524Y-12999310D01*
X14124048Y-12951691D01*
X14124048Y-12913595D01*
X14114524Y-12865976D01*
X14105000Y-12837405D01*
X14095476Y-12818357D01*
X14076428Y-12789786D01*
X14066905Y-12780262D01*
M02*
