%TF.GenerationSoftware,KiCad,Pcbnew,(6.0.2)*%
%TF.CreationDate,2022-06-19T20:51:39-07:00*%
%TF.ProjectId,peregrine,70657265-6772-4696-9e65-2e6b69636164,5*%
%TF.SameCoordinates,Original*%
%TF.FileFunction,Copper,L3,Inr*%
%TF.FilePolarity,Positive*%
%FSLAX46Y46*%
G04 Gerber Fmt 4.6, Leading zero omitted, Abs format (unit mm)*
G04 Created by KiCad (PCBNEW (6.0.2)) date 2022-06-19 20:51:39*
%MOMM*%
%LPD*%
G01*
G04 APERTURE LIST*
%TA.AperFunction,ComponentPad*%
%ADD10R,1.700000X1.700000*%
%TD*%
%TA.AperFunction,ComponentPad*%
%ADD11O,1.700000X1.700000*%
%TD*%
%TA.AperFunction,ComponentPad*%
%ADD12O,1.500000X4.150000*%
%TD*%
%TA.AperFunction,ComponentPad*%
%ADD13O,3.650000X1.500000*%
%TD*%
%TA.AperFunction,ViaPad*%
%ADD14C,0.800000*%
%TD*%
%TA.AperFunction,Conductor*%
%ADD15C,0.635000*%
%TD*%
G04 APERTURE END LIST*
D10*
%TO.N,/peregrineSelector/ExtTrig*%
%TO.C,J2*%
X119350000Y-101025000D03*
D11*
%TO.N,GND*%
X119350000Y-98485000D03*
%TD*%
D12*
%TO.N,+VDC*%
%TO.C,J1*%
X101010000Y-100920000D03*
D13*
%TO.N,GND*%
X98010000Y-105620000D03*
D12*
X95010000Y-100920000D03*
%TD*%
D14*
%TO.N,GND*%
X145210000Y-110520000D03*
X105410000Y-103120000D03*
X106610000Y-100820000D03*
X123510000Y-97920000D03*
X124010000Y-98720000D03*
%TO.N,+5V*%
X119310000Y-104120000D03*
X118310000Y-104120000D03*
%TO.N,GND*%
X114410000Y-100320000D03*
X113510000Y-100320000D03*
X130910000Y-99820000D03*
X131610000Y-100320000D03*
%TO.N,Net-(R2-Pad2)*%
X128110000Y-107820000D03*
%TO.N,+5V*%
X106510000Y-95920000D03*
%TO.N,+3V3*%
X115522500Y-99907500D03*
%TO.N,+5V*%
X113010000Y-105220000D03*
X113610000Y-104620000D03*
%TO.N,GND*%
X104010000Y-106620000D03*
X104010000Y-109820000D03*
X106527500Y-106620000D03*
X105527500Y-106620000D03*
X105527500Y-109820000D03*
X106527500Y-109820000D03*
X181510782Y-111100000D03*
X150150000Y-100350000D03*
X150150000Y-94950000D03*
X184900000Y-98700000D03*
X164200000Y-95100000D03*
X174600000Y-96900000D03*
X118410000Y-113960000D03*
X174610782Y-112300000D03*
X171110782Y-112900000D03*
X147210000Y-100620000D03*
X178000000Y-97500000D03*
X167700000Y-95700000D03*
X181500000Y-98100000D03*
X167710782Y-113500000D03*
X188850000Y-100350000D03*
X120210000Y-113960000D03*
X188850000Y-108900000D03*
X150150000Y-102150000D03*
X108150000Y-98125000D03*
X190700000Y-100350000D03*
X171100000Y-96300000D03*
X184910782Y-110500000D03*
X150150000Y-96750000D03*
X165800000Y-99500000D03*
X150150000Y-112450000D03*
X150150000Y-103950000D03*
X164210782Y-114100000D03*
X144010000Y-109620000D03*
X150150000Y-107050000D03*
X178010782Y-111700000D03*
X142170000Y-104731425D03*
X147242500Y-101618925D03*
X164325000Y-108463575D03*
X190700000Y-108900000D03*
X150150000Y-114300000D03*
X130710000Y-113020000D03*
X139943575Y-107431425D03*
X150150000Y-98550000D03*
X150150000Y-110650000D03*
X119310000Y-113960000D03*
%TO.N,+3V3*%
X163325000Y-109263575D03*
X164825000Y-100250000D03*
X150150000Y-108850000D03*
X132950000Y-99525000D03*
X126957011Y-97117989D03*
X127857011Y-97117989D03*
%TO.N,/peregrineSelector/ExtTrig*%
X123962551Y-102212448D03*
X141150000Y-104111425D03*
%TO.N,Net-(R2-Pad2)*%
X129762551Y-110037062D03*
%TO.N,Net-(R4-Pad2)*%
X127737551Y-109662062D03*
X129737551Y-108562062D03*
%TO.N,/peregrinePulser/Trig*%
X162635052Y-103993575D03*
X150050000Y-105611425D03*
%TO.N,Net-(R6-Pad2)*%
X131737551Y-112162062D03*
X129337551Y-113062062D03*
%TD*%
D15*
%TO.N,+5V*%
X106510000Y-98720000D02*
X113010000Y-105220000D01*
X106510000Y-95920000D02*
X106510000Y-98720000D01*
X113610000Y-104620000D02*
X113010000Y-105220000D01*
%TO.N,+3V3*%
X126957011Y-97117989D02*
X127857011Y-97117989D01*
X130542989Y-97117989D02*
X132950000Y-99525000D01*
X127857011Y-97117989D02*
X130542989Y-97117989D01*
%TD*%
%TA.AperFunction,Conductor*%
%TO.N,GND*%
G36*
X181639890Y-97588001D02*
G01*
X192394236Y-99382354D01*
X192458136Y-99413294D01*
X192495165Y-99473870D01*
X192499500Y-99506636D01*
X192499500Y-103074000D01*
X192479498Y-103142121D01*
X192425842Y-103188614D01*
X192373500Y-103200000D01*
X174220000Y-103200000D01*
X174220000Y-96350000D01*
X181639890Y-97588001D01*
G37*
%TD.AperFunction*%
%TD*%
%TA.AperFunction,Conductor*%
%TO.N,GND*%
G36*
X192332121Y-106120002D02*
G01*
X192378614Y-106173658D01*
X192390000Y-106226000D01*
X192390000Y-109743378D01*
X192369998Y-109811499D01*
X192316342Y-109857992D01*
X192284847Y-109867641D01*
X174237868Y-112895324D01*
X174237867Y-112895325D01*
X174220000Y-112898322D01*
X174210000Y-112900000D01*
X174210000Y-106100000D01*
X192264000Y-106100000D01*
X192332121Y-106120002D01*
G37*
%TD.AperFunction*%
%TD*%
%TA.AperFunction,Conductor*%
%TO.N,GND*%
G36*
X163002028Y-94515322D02*
G01*
X174114906Y-96385139D01*
X174178764Y-96416166D01*
X174215710Y-96476792D01*
X174220000Y-96509392D01*
X174220000Y-112717758D01*
X174199998Y-112785879D01*
X174146342Y-112832372D01*
X174114907Y-112842011D01*
X163376420Y-114648834D01*
X163002028Y-114711828D01*
X162981122Y-114713575D01*
X95015838Y-114713575D01*
X95000000Y-114708429D01*
X94987635Y-114712447D01*
X94986853Y-114712217D01*
X94986821Y-114712711D01*
X94760242Y-114697860D01*
X94743902Y-114695709D01*
X94630122Y-114673077D01*
X94516339Y-114650444D01*
X94500425Y-114646180D01*
X94390572Y-114608890D01*
X94280723Y-114571601D01*
X94265496Y-114565294D01*
X94099008Y-114483192D01*
X94057404Y-114462675D01*
X94043137Y-114454438D01*
X93947252Y-114390370D01*
X93850223Y-114325537D01*
X93837147Y-114315504D01*
X93662706Y-114162523D01*
X93651052Y-114150869D01*
X93498071Y-113976428D01*
X93488038Y-113963352D01*
X93359139Y-113770442D01*
X93350898Y-113756168D01*
X93248281Y-113548079D01*
X93241974Y-113532852D01*
X93167396Y-113313153D01*
X93163130Y-113297233D01*
X93117866Y-113069673D01*
X93116864Y-113062062D01*
X128731869Y-113062062D01*
X128752507Y-113218824D01*
X128813015Y-113364903D01*
X128909269Y-113490344D01*
X129034710Y-113586598D01*
X129180789Y-113647106D01*
X129337551Y-113667744D01*
X129345739Y-113666666D01*
X129486125Y-113648184D01*
X129494313Y-113647106D01*
X129640392Y-113586598D01*
X129765833Y-113490344D01*
X129862087Y-113364903D01*
X129922595Y-113218824D01*
X129943233Y-113062062D01*
X129922595Y-112905300D01*
X129862087Y-112759221D01*
X129765833Y-112633780D01*
X129640392Y-112537526D01*
X129494313Y-112477018D01*
X129337551Y-112456380D01*
X129180789Y-112477018D01*
X129034710Y-112537526D01*
X128909269Y-112633780D01*
X128813015Y-112759221D01*
X128752507Y-112905300D01*
X128731869Y-113062062D01*
X93116864Y-113062062D01*
X93115715Y-113053333D01*
X93100864Y-112826754D01*
X93101027Y-112826743D01*
X93100957Y-112826467D01*
X93105146Y-112813575D01*
X93100000Y-112797737D01*
X93100000Y-112162062D01*
X131131869Y-112162062D01*
X131152507Y-112318824D01*
X131213015Y-112464903D01*
X131309269Y-112590344D01*
X131434710Y-112686598D01*
X131580789Y-112747106D01*
X131737551Y-112767744D01*
X131745739Y-112766666D01*
X131886125Y-112748184D01*
X131894313Y-112747106D01*
X132040392Y-112686598D01*
X132165833Y-112590344D01*
X132262087Y-112464903D01*
X132322595Y-112318824D01*
X132343233Y-112162062D01*
X132322595Y-112005300D01*
X132262087Y-111859221D01*
X132165833Y-111733780D01*
X132040392Y-111637526D01*
X131894313Y-111577018D01*
X131737551Y-111556380D01*
X131580789Y-111577018D01*
X131434710Y-111637526D01*
X131309269Y-111733780D01*
X131213015Y-111859221D01*
X131152507Y-112005300D01*
X131131869Y-112162062D01*
X93100000Y-112162062D01*
X93100000Y-109662062D01*
X127131869Y-109662062D01*
X127152507Y-109818824D01*
X127213015Y-109964903D01*
X127309269Y-110090344D01*
X127434710Y-110186598D01*
X127580789Y-110247106D01*
X127737551Y-110267744D01*
X127745739Y-110266666D01*
X127886125Y-110248184D01*
X127894313Y-110247106D01*
X128040392Y-110186598D01*
X128165833Y-110090344D01*
X128206718Y-110037062D01*
X129156869Y-110037062D01*
X129177507Y-110193824D01*
X129238015Y-110339903D01*
X129334269Y-110465344D01*
X129459710Y-110561598D01*
X129605789Y-110622106D01*
X129762551Y-110642744D01*
X129770739Y-110641666D01*
X129911125Y-110623184D01*
X129919313Y-110622106D01*
X130065392Y-110561598D01*
X130190833Y-110465344D01*
X130287087Y-110339903D01*
X130347595Y-110193824D01*
X130368233Y-110037062D01*
X130347595Y-109880300D01*
X130287087Y-109734221D01*
X130190833Y-109608780D01*
X130065392Y-109512526D01*
X129919313Y-109452018D01*
X129762551Y-109431380D01*
X129605789Y-109452018D01*
X129459710Y-109512526D01*
X129334269Y-109608780D01*
X129238015Y-109734221D01*
X129177507Y-109880300D01*
X129156869Y-110037062D01*
X128206718Y-110037062D01*
X128262087Y-109964903D01*
X128322595Y-109818824D01*
X128343233Y-109662062D01*
X128322595Y-109505300D01*
X128262087Y-109359221D01*
X128165833Y-109233780D01*
X128040392Y-109137526D01*
X127894313Y-109077018D01*
X127737551Y-109056380D01*
X127580789Y-109077018D01*
X127434710Y-109137526D01*
X127309269Y-109233780D01*
X127213015Y-109359221D01*
X127152507Y-109505300D01*
X127131869Y-109662062D01*
X93100000Y-109662062D01*
X93100000Y-108562062D01*
X129131869Y-108562062D01*
X129132947Y-108570250D01*
X129150217Y-108701426D01*
X129152507Y-108718824D01*
X129213015Y-108864903D01*
X129218042Y-108871454D01*
X129286549Y-108960734D01*
X129309269Y-108990344D01*
X129315815Y-108995367D01*
X129330665Y-109006762D01*
X129434710Y-109086598D01*
X129580789Y-109147106D01*
X129737551Y-109167744D01*
X129745739Y-109166666D01*
X129886125Y-109148184D01*
X129894313Y-109147106D01*
X130040392Y-109086598D01*
X130144437Y-109006762D01*
X130159287Y-108995367D01*
X130165833Y-108990344D01*
X130188554Y-108960734D01*
X130257060Y-108871454D01*
X130262087Y-108864903D01*
X130268260Y-108850000D01*
X149544318Y-108850000D01*
X149564956Y-109006762D01*
X149625464Y-109152841D01*
X149721718Y-109278282D01*
X149847159Y-109374536D01*
X149993238Y-109435044D01*
X150150000Y-109455682D01*
X150158188Y-109454604D01*
X150298574Y-109436122D01*
X150306762Y-109435044D01*
X150452841Y-109374536D01*
X150578282Y-109278282D01*
X150589567Y-109263575D01*
X162719318Y-109263575D01*
X162739956Y-109420337D01*
X162800464Y-109566416D01*
X162896718Y-109691857D01*
X163022159Y-109788111D01*
X163168238Y-109848619D01*
X163325000Y-109869257D01*
X163333188Y-109868179D01*
X163473574Y-109849697D01*
X163481762Y-109848619D01*
X163627841Y-109788111D01*
X163753282Y-109691857D01*
X163849536Y-109566416D01*
X163910044Y-109420337D01*
X163930682Y-109263575D01*
X163910044Y-109106813D01*
X163849536Y-108960734D01*
X163781029Y-108871454D01*
X163758305Y-108841839D01*
X163753282Y-108835293D01*
X163627841Y-108739039D01*
X163481762Y-108678531D01*
X163325000Y-108657893D01*
X163168238Y-108678531D01*
X163022159Y-108739039D01*
X162896718Y-108835293D01*
X162891695Y-108841839D01*
X162868971Y-108871454D01*
X162800464Y-108960734D01*
X162739956Y-109106813D01*
X162719318Y-109263575D01*
X150589567Y-109263575D01*
X150674536Y-109152841D01*
X150735044Y-109006762D01*
X150755682Y-108850000D01*
X150738412Y-108718824D01*
X150736122Y-108701426D01*
X150735044Y-108693238D01*
X150674536Y-108547159D01*
X150578282Y-108421718D01*
X150567557Y-108413488D01*
X150459392Y-108330491D01*
X150452841Y-108325464D01*
X150306762Y-108264956D01*
X150150000Y-108244318D01*
X149993238Y-108264956D01*
X149847159Y-108325464D01*
X149840608Y-108330491D01*
X149732444Y-108413488D01*
X149721718Y-108421718D01*
X149625464Y-108547159D01*
X149564956Y-108693238D01*
X149563878Y-108701426D01*
X149561588Y-108718824D01*
X149544318Y-108850000D01*
X130268260Y-108850000D01*
X130322595Y-108718824D01*
X130324886Y-108701426D01*
X130342155Y-108570250D01*
X130343233Y-108562062D01*
X130322595Y-108405300D01*
X130262087Y-108259221D01*
X130165833Y-108133780D01*
X130040392Y-108037526D01*
X129894313Y-107977018D01*
X129737551Y-107956380D01*
X129580789Y-107977018D01*
X129434710Y-108037526D01*
X129309269Y-108133780D01*
X129213015Y-108259221D01*
X129152507Y-108405300D01*
X129131869Y-108562062D01*
X93100000Y-108562062D01*
X93100000Y-107820000D01*
X127504318Y-107820000D01*
X127524956Y-107976762D01*
X127585464Y-108122841D01*
X127681718Y-108248282D01*
X127807159Y-108344536D01*
X127953238Y-108405044D01*
X128110000Y-108425682D01*
X128118188Y-108424604D01*
X128258574Y-108406122D01*
X128266762Y-108405044D01*
X128412841Y-108344536D01*
X128538282Y-108248282D01*
X128634536Y-108122841D01*
X128695044Y-107976762D01*
X128715682Y-107820000D01*
X128695044Y-107663238D01*
X128634536Y-107517159D01*
X128538282Y-107391718D01*
X128412841Y-107295464D01*
X128266762Y-107234956D01*
X128110000Y-107214318D01*
X127953238Y-107234956D01*
X127807159Y-107295464D01*
X127681718Y-107391718D01*
X127585464Y-107517159D01*
X127524956Y-107663238D01*
X127504318Y-107820000D01*
X93100000Y-107820000D01*
X93100000Y-105887728D01*
X95701114Y-105887728D01*
X95701166Y-105887973D01*
X95763898Y-106091883D01*
X95768119Y-106102229D01*
X95865971Y-106291814D01*
X95871957Y-106301245D01*
X96001832Y-106470501D01*
X96009393Y-106478724D01*
X96167194Y-106622312D01*
X96176094Y-106629067D01*
X96356815Y-106742434D01*
X96366781Y-106747511D01*
X96564714Y-106827080D01*
X96575429Y-106830315D01*
X96785301Y-106873777D01*
X96794438Y-106874980D01*
X96844990Y-106877895D01*
X96848637Y-106878000D01*
X97737885Y-106878000D01*
X97753124Y-106873525D01*
X97754329Y-106872135D01*
X97756000Y-106864452D01*
X97756000Y-106859885D01*
X98264000Y-106859885D01*
X98268475Y-106875124D01*
X98269865Y-106876329D01*
X98277548Y-106878000D01*
X99139175Y-106878000D01*
X99144770Y-106877751D01*
X99303078Y-106863622D01*
X99314092Y-106861640D01*
X99519860Y-106805349D01*
X99530341Y-106801451D01*
X99722903Y-106709603D01*
X99732516Y-106703918D01*
X99905767Y-106579425D01*
X99914233Y-106572117D01*
X100062692Y-106418918D01*
X100069735Y-106410221D01*
X100188719Y-106233156D01*
X100194105Y-106223358D01*
X100279857Y-106028010D01*
X100283422Y-106017418D01*
X100313624Y-105891616D01*
X100312919Y-105877530D01*
X100304040Y-105874000D01*
X98282115Y-105874000D01*
X98266876Y-105878475D01*
X98265671Y-105879865D01*
X98264000Y-105887548D01*
X98264000Y-106859885D01*
X97756000Y-106859885D01*
X97756000Y-105892115D01*
X97751525Y-105876876D01*
X97750135Y-105875671D01*
X97742452Y-105874000D01*
X95716589Y-105874000D01*
X95702607Y-105878105D01*
X95701114Y-105887728D01*
X93100000Y-105887728D01*
X93100000Y-105348384D01*
X95706376Y-105348384D01*
X95707081Y-105362470D01*
X95715960Y-105366000D01*
X97737885Y-105366000D01*
X97753124Y-105361525D01*
X97754329Y-105360135D01*
X97756000Y-105352452D01*
X97756000Y-105347885D01*
X98264000Y-105347885D01*
X98268475Y-105363124D01*
X98269865Y-105364329D01*
X98277548Y-105366000D01*
X100303411Y-105366000D01*
X100317393Y-105361895D01*
X100318886Y-105352272D01*
X100318834Y-105352027D01*
X100256102Y-105148117D01*
X100251881Y-105137771D01*
X100154029Y-104948186D01*
X100148043Y-104938755D01*
X100018168Y-104769499D01*
X100010607Y-104761276D01*
X99852806Y-104617688D01*
X99843906Y-104610933D01*
X99663185Y-104497566D01*
X99653219Y-104492489D01*
X99455286Y-104412920D01*
X99444571Y-104409685D01*
X99234699Y-104366223D01*
X99225562Y-104365020D01*
X99175010Y-104362105D01*
X99171363Y-104362000D01*
X98282115Y-104362000D01*
X98266876Y-104366475D01*
X98265671Y-104367865D01*
X98264000Y-104375548D01*
X98264000Y-105347885D01*
X97756000Y-105347885D01*
X97756000Y-104380115D01*
X97751525Y-104364876D01*
X97750135Y-104363671D01*
X97742452Y-104362000D01*
X96880825Y-104362000D01*
X96875230Y-104362249D01*
X96716922Y-104376378D01*
X96705908Y-104378360D01*
X96500140Y-104434651D01*
X96489659Y-104438549D01*
X96297097Y-104530397D01*
X96287484Y-104536082D01*
X96114233Y-104660575D01*
X96105767Y-104667883D01*
X95957308Y-104821082D01*
X95950265Y-104829779D01*
X95831281Y-105006844D01*
X95825895Y-105016642D01*
X95740143Y-105211990D01*
X95736578Y-105222582D01*
X95706376Y-105348384D01*
X93100000Y-105348384D01*
X93100000Y-102299175D01*
X93752000Y-102299175D01*
X93752249Y-102304770D01*
X93766378Y-102463078D01*
X93768360Y-102474092D01*
X93824651Y-102679860D01*
X93828549Y-102690341D01*
X93920397Y-102882903D01*
X93926082Y-102892516D01*
X94050575Y-103065767D01*
X94057883Y-103074233D01*
X94211082Y-103222692D01*
X94219779Y-103229735D01*
X94396844Y-103348719D01*
X94406642Y-103354105D01*
X94601990Y-103439857D01*
X94612582Y-103443422D01*
X94738384Y-103473624D01*
X94752470Y-103472919D01*
X94756000Y-103464040D01*
X94756000Y-103463411D01*
X95264000Y-103463411D01*
X95268105Y-103477393D01*
X95277728Y-103478886D01*
X95277973Y-103478834D01*
X95481883Y-103416102D01*
X95492229Y-103411881D01*
X95681814Y-103314029D01*
X95691245Y-103308043D01*
X95860501Y-103178168D01*
X95868724Y-103170607D01*
X96012312Y-103012806D01*
X96019067Y-103003906D01*
X96132434Y-102823185D01*
X96137511Y-102813219D01*
X96217080Y-102615286D01*
X96220315Y-102604571D01*
X96263777Y-102394699D01*
X96264980Y-102385562D01*
X96267895Y-102335010D01*
X96268000Y-102331363D01*
X96268000Y-102293259D01*
X100059500Y-102293259D01*
X100074112Y-102437110D01*
X100131856Y-102621373D01*
X100225472Y-102790261D01*
X100351136Y-102936875D01*
X100356178Y-102940786D01*
X100356179Y-102940787D01*
X100498665Y-103051311D01*
X100498668Y-103051313D01*
X100503714Y-103055227D01*
X100676974Y-103140481D01*
X100683144Y-103142088D01*
X100683149Y-103142090D01*
X100857655Y-103187545D01*
X100857658Y-103187545D01*
X100863837Y-103189155D01*
X100947203Y-103193524D01*
X101050290Y-103198927D01*
X101050294Y-103198927D01*
X101056671Y-103199261D01*
X101247599Y-103170386D01*
X101253595Y-103168180D01*
X101422832Y-103105914D01*
X101422836Y-103105912D01*
X101428821Y-103103710D01*
X101592934Y-103001955D01*
X101733235Y-102869279D01*
X101769805Y-102817052D01*
X101840327Y-102716335D01*
X101840328Y-102716334D01*
X101843991Y-102711102D01*
X101920680Y-102533885D01*
X101939625Y-102443201D01*
X101959177Y-102349612D01*
X101959177Y-102349608D01*
X101960168Y-102344867D01*
X101960500Y-102338532D01*
X101960500Y-99546741D01*
X101945888Y-99402890D01*
X101888144Y-99218627D01*
X101794528Y-99049739D01*
X101668864Y-98903125D01*
X101663821Y-98899213D01*
X101521335Y-98788689D01*
X101521332Y-98788687D01*
X101516286Y-98784773D01*
X101343026Y-98699519D01*
X101336856Y-98697912D01*
X101336851Y-98697910D01*
X101162345Y-98652455D01*
X101162342Y-98652455D01*
X101156163Y-98650845D01*
X101072797Y-98646476D01*
X100969710Y-98641073D01*
X100969706Y-98641073D01*
X100963329Y-98640739D01*
X100772401Y-98669614D01*
X100766406Y-98671820D01*
X100766405Y-98671820D01*
X100597168Y-98734086D01*
X100597164Y-98734088D01*
X100591179Y-98736290D01*
X100427066Y-98838045D01*
X100422426Y-98842433D01*
X100316068Y-98943011D01*
X100286765Y-98970721D01*
X100283103Y-98975951D01*
X100283102Y-98975952D01*
X100188505Y-99111052D01*
X100176009Y-99128898D01*
X100099320Y-99306115D01*
X100098015Y-99312362D01*
X100068334Y-99454438D01*
X100059832Y-99495133D01*
X100059500Y-99501468D01*
X100059500Y-102293259D01*
X96268000Y-102293259D01*
X96268000Y-101192115D01*
X96263525Y-101176876D01*
X96262135Y-101175671D01*
X96254452Y-101174000D01*
X95282115Y-101174000D01*
X95266876Y-101178475D01*
X95265671Y-101179865D01*
X95264000Y-101187548D01*
X95264000Y-103463411D01*
X94756000Y-103463411D01*
X94756000Y-101192115D01*
X94751525Y-101176876D01*
X94750135Y-101175671D01*
X94742452Y-101174000D01*
X93770115Y-101174000D01*
X93754876Y-101178475D01*
X93753671Y-101179865D01*
X93752000Y-101187548D01*
X93752000Y-102299175D01*
X93100000Y-102299175D01*
X93100000Y-100647885D01*
X93752000Y-100647885D01*
X93756475Y-100663124D01*
X93757865Y-100664329D01*
X93765548Y-100666000D01*
X94737885Y-100666000D01*
X94753124Y-100661525D01*
X94754329Y-100660135D01*
X94756000Y-100652452D01*
X94756000Y-100647885D01*
X95264000Y-100647885D01*
X95268475Y-100663124D01*
X95269865Y-100664329D01*
X95277548Y-100666000D01*
X96249885Y-100666000D01*
X96265124Y-100661525D01*
X96266329Y-100660135D01*
X96268000Y-100652452D01*
X96268000Y-99540825D01*
X96267751Y-99535230D01*
X96253622Y-99376922D01*
X96251640Y-99365908D01*
X96195349Y-99160140D01*
X96191451Y-99149659D01*
X96099603Y-98957097D01*
X96093918Y-98947484D01*
X95969425Y-98774233D01*
X95962117Y-98765767D01*
X95808918Y-98617308D01*
X95800221Y-98610265D01*
X95623156Y-98491281D01*
X95613358Y-98485895D01*
X95418010Y-98400143D01*
X95407418Y-98396578D01*
X95281616Y-98366376D01*
X95267530Y-98367081D01*
X95264000Y-98375960D01*
X95264000Y-100647885D01*
X94756000Y-100647885D01*
X94756000Y-98376589D01*
X94751895Y-98362607D01*
X94742272Y-98361114D01*
X94742027Y-98361166D01*
X94538117Y-98423898D01*
X94527771Y-98428119D01*
X94338186Y-98525971D01*
X94328755Y-98531957D01*
X94159499Y-98661832D01*
X94151276Y-98669393D01*
X94007688Y-98827194D01*
X94000933Y-98836094D01*
X93887566Y-99016815D01*
X93882489Y-99026781D01*
X93802920Y-99224714D01*
X93799685Y-99235429D01*
X93756223Y-99445301D01*
X93755020Y-99454438D01*
X93752105Y-99504990D01*
X93752000Y-99508637D01*
X93752000Y-100647885D01*
X93100000Y-100647885D01*
X93100000Y-96429413D01*
X93105146Y-96413575D01*
X93101128Y-96401210D01*
X93101358Y-96400428D01*
X93100864Y-96400396D01*
X93115715Y-96173817D01*
X93117866Y-96157477D01*
X93163130Y-95929917D01*
X93165787Y-95920000D01*
X105904318Y-95920000D01*
X105924956Y-96076762D01*
X105928115Y-96084389D01*
X105928116Y-96084392D01*
X105982409Y-96215466D01*
X105992000Y-96263684D01*
X105992000Y-98705760D01*
X105991889Y-98711036D01*
X105989451Y-98769206D01*
X105991413Y-98777570D01*
X105991413Y-98777573D01*
X105998718Y-98808720D01*
X106000881Y-98820388D01*
X106006391Y-98860610D01*
X106009802Y-98868492D01*
X106011745Y-98872982D01*
X106018779Y-98894250D01*
X106019489Y-98897275D01*
X106021859Y-98907380D01*
X106038997Y-98938555D01*
X106041413Y-98942949D01*
X106046634Y-98953606D01*
X106062756Y-98990861D01*
X106068163Y-98997538D01*
X106071241Y-99001339D01*
X106083734Y-99019931D01*
X106090231Y-99031749D01*
X106096825Y-99039387D01*
X106119627Y-99062189D01*
X106128453Y-99071990D01*
X106146666Y-99094482D01*
X106146668Y-99094484D01*
X106152071Y-99101156D01*
X106159070Y-99106130D01*
X106159071Y-99106131D01*
X106165996Y-99111052D01*
X106182101Y-99124663D01*
X112400696Y-105343258D01*
X112428010Y-105384135D01*
X112485464Y-105522841D01*
X112581718Y-105648282D01*
X112707159Y-105744536D01*
X112853238Y-105805044D01*
X113010000Y-105825682D01*
X113018188Y-105824604D01*
X113158574Y-105806122D01*
X113166762Y-105805044D01*
X113312841Y-105744536D01*
X113438282Y-105648282D01*
X113466563Y-105611425D01*
X149444318Y-105611425D01*
X149464956Y-105768187D01*
X149525464Y-105914266D01*
X149621718Y-106039707D01*
X149747159Y-106135961D01*
X149893238Y-106196469D01*
X150050000Y-106217107D01*
X150058188Y-106216029D01*
X150198574Y-106197547D01*
X150206762Y-106196469D01*
X150352841Y-106135961D01*
X150478282Y-106039707D01*
X150574536Y-105914266D01*
X150635044Y-105768187D01*
X150655682Y-105611425D01*
X150635044Y-105454663D01*
X150574536Y-105308584D01*
X150478282Y-105183143D01*
X150352841Y-105086889D01*
X150206762Y-105026381D01*
X150050000Y-105005743D01*
X149893238Y-105026381D01*
X149747159Y-105086889D01*
X149621718Y-105183143D01*
X149525464Y-105308584D01*
X149464956Y-105454663D01*
X149444318Y-105611425D01*
X113466563Y-105611425D01*
X113534536Y-105522841D01*
X113591990Y-105384135D01*
X113619304Y-105343258D01*
X113733258Y-105229304D01*
X113774135Y-105201990D01*
X113803832Y-105189689D01*
X113912841Y-105144536D01*
X114038282Y-105048282D01*
X114134536Y-104922841D01*
X114195044Y-104776762D01*
X114215682Y-104620000D01*
X114195044Y-104463238D01*
X114134536Y-104317159D01*
X114038282Y-104191718D01*
X113944817Y-104120000D01*
X117704318Y-104120000D01*
X117724956Y-104276762D01*
X117728116Y-104284391D01*
X117732532Y-104295053D01*
X117785464Y-104422841D01*
X117881718Y-104548282D01*
X118007159Y-104644536D01*
X118153238Y-104705044D01*
X118310000Y-104725682D01*
X118318188Y-104724604D01*
X118458574Y-104706122D01*
X118466762Y-104705044D01*
X118612841Y-104644536D01*
X118733296Y-104552108D01*
X118799517Y-104526508D01*
X118869065Y-104540773D01*
X118886704Y-104552108D01*
X119007159Y-104644536D01*
X119153238Y-104705044D01*
X119310000Y-104725682D01*
X119318188Y-104724604D01*
X119458574Y-104706122D01*
X119466762Y-104705044D01*
X119612841Y-104644536D01*
X119738282Y-104548282D01*
X119834536Y-104422841D01*
X119887468Y-104295053D01*
X119891884Y-104284391D01*
X119895044Y-104276762D01*
X119915682Y-104120000D01*
X119914553Y-104111425D01*
X140544318Y-104111425D01*
X140564956Y-104268187D01*
X140625464Y-104414266D01*
X140669324Y-104471426D01*
X140701290Y-104513084D01*
X140721718Y-104539707D01*
X140847159Y-104635961D01*
X140993238Y-104696469D01*
X141150000Y-104717107D01*
X141158188Y-104716029D01*
X141298574Y-104697547D01*
X141306762Y-104696469D01*
X141452841Y-104635961D01*
X141578282Y-104539707D01*
X141598711Y-104513084D01*
X141630676Y-104471426D01*
X141674536Y-104414266D01*
X141735044Y-104268187D01*
X141755682Y-104111425D01*
X141740167Y-103993575D01*
X162029370Y-103993575D01*
X162050008Y-104150337D01*
X162110516Y-104296416D01*
X162163047Y-104364876D01*
X162195091Y-104406636D01*
X162206770Y-104421857D01*
X162213316Y-104426880D01*
X162228523Y-104438549D01*
X162332211Y-104518111D01*
X162478290Y-104578619D01*
X162635052Y-104599257D01*
X162643240Y-104598179D01*
X162783626Y-104579697D01*
X162791814Y-104578619D01*
X162937893Y-104518111D01*
X163041581Y-104438549D01*
X163056788Y-104426880D01*
X163063334Y-104421857D01*
X163075014Y-104406636D01*
X163107057Y-104364876D01*
X163159588Y-104296416D01*
X163220096Y-104150337D01*
X163240734Y-103993575D01*
X163220096Y-103836813D01*
X163215116Y-103824789D01*
X163211564Y-103816214D01*
X163159588Y-103690734D01*
X163084060Y-103592304D01*
X163068357Y-103571839D01*
X163063334Y-103565293D01*
X162937893Y-103469039D01*
X162791814Y-103408531D01*
X162635052Y-103387893D01*
X162478290Y-103408531D01*
X162332211Y-103469039D01*
X162206770Y-103565293D01*
X162201747Y-103571839D01*
X162186044Y-103592304D01*
X162110516Y-103690734D01*
X162058540Y-103816214D01*
X162054989Y-103824789D01*
X162050008Y-103836813D01*
X162029370Y-103993575D01*
X141740167Y-103993575D01*
X141735044Y-103954663D01*
X141674536Y-103808584D01*
X141590624Y-103699227D01*
X141583305Y-103689689D01*
X141578282Y-103683143D01*
X141452841Y-103586889D01*
X141306762Y-103526381D01*
X141150000Y-103505743D01*
X140993238Y-103526381D01*
X140847159Y-103586889D01*
X140721718Y-103683143D01*
X140716695Y-103689689D01*
X140709376Y-103699227D01*
X140625464Y-103808584D01*
X140564956Y-103954663D01*
X140544318Y-104111425D01*
X119914553Y-104111425D01*
X119895044Y-103963238D01*
X119834536Y-103817159D01*
X119738282Y-103691718D01*
X119612841Y-103595464D01*
X119466762Y-103534956D01*
X119310000Y-103514318D01*
X119153238Y-103534956D01*
X119007159Y-103595464D01*
X119000608Y-103600491D01*
X118886704Y-103687892D01*
X118820483Y-103713492D01*
X118750935Y-103699227D01*
X118733296Y-103687892D01*
X118619392Y-103600491D01*
X118612841Y-103595464D01*
X118466762Y-103534956D01*
X118310000Y-103514318D01*
X118153238Y-103534956D01*
X118007159Y-103595464D01*
X117881718Y-103691718D01*
X117785464Y-103817159D01*
X117724956Y-103963238D01*
X117704318Y-104120000D01*
X113944817Y-104120000D01*
X113912841Y-104095464D01*
X113766762Y-104034956D01*
X113610000Y-104014318D01*
X113453238Y-104034956D01*
X113307159Y-104095464D01*
X113181718Y-104191718D01*
X113085464Y-104317159D01*
X113082304Y-104324787D01*
X113078409Y-104331534D01*
X113027027Y-104380528D01*
X112957314Y-104393966D01*
X112891402Y-104367580D01*
X112880194Y-104357631D01*
X110735011Y-102212448D01*
X123356869Y-102212448D01*
X123357947Y-102220636D01*
X123373005Y-102335010D01*
X123377507Y-102369210D01*
X123438015Y-102515289D01*
X123534269Y-102640730D01*
X123659710Y-102736984D01*
X123805789Y-102797492D01*
X123962551Y-102818130D01*
X123970739Y-102817052D01*
X124111125Y-102798570D01*
X124119313Y-102797492D01*
X124265392Y-102736984D01*
X124390833Y-102640730D01*
X124487087Y-102515289D01*
X124547595Y-102369210D01*
X124552098Y-102335010D01*
X124567155Y-102220636D01*
X124568233Y-102212448D01*
X124547595Y-102055686D01*
X124487087Y-101909607D01*
X124390833Y-101784166D01*
X124265392Y-101687912D01*
X124119313Y-101627404D01*
X123962551Y-101606766D01*
X123805789Y-101627404D01*
X123659710Y-101687912D01*
X123534269Y-101784166D01*
X123438015Y-101909607D01*
X123377507Y-102055686D01*
X123356869Y-102212448D01*
X110735011Y-102212448D01*
X108430062Y-99907500D01*
X114916818Y-99907500D01*
X114937456Y-100064262D01*
X114997964Y-100210341D01*
X115094218Y-100335782D01*
X115219659Y-100432036D01*
X115365738Y-100492544D01*
X115522500Y-100513182D01*
X115530688Y-100512104D01*
X115671074Y-100493622D01*
X115679262Y-100492544D01*
X115825341Y-100432036D01*
X115950782Y-100335782D01*
X116047036Y-100210341D01*
X116107544Y-100064262D01*
X116128182Y-99907500D01*
X116107544Y-99750738D01*
X116047036Y-99604659D01*
X115973356Y-99508637D01*
X115955805Y-99485764D01*
X115950782Y-99479218D01*
X115825341Y-99382964D01*
X115679262Y-99322456D01*
X115522500Y-99301818D01*
X115365738Y-99322456D01*
X115219659Y-99382964D01*
X115094218Y-99479218D01*
X115089195Y-99485764D01*
X115071644Y-99508637D01*
X114997964Y-99604659D01*
X114937456Y-99750738D01*
X114916818Y-99907500D01*
X108430062Y-99907500D01*
X107275528Y-98752966D01*
X118018257Y-98752966D01*
X118048565Y-98887446D01*
X118051645Y-98897275D01*
X118131770Y-99094603D01*
X118136413Y-99103794D01*
X118247694Y-99285388D01*
X118253777Y-99293699D01*
X118393213Y-99454667D01*
X118400580Y-99461883D01*
X118564434Y-99597916D01*
X118572881Y-99603831D01*
X118756756Y-99711279D01*
X118766043Y-99715729D01*
X118805484Y-99730790D01*
X118861987Y-99773778D01*
X118886280Y-99840489D01*
X118870650Y-99909743D01*
X118820059Y-99959554D01*
X118760535Y-99974500D01*
X118480252Y-99974500D01*
X118474184Y-99975707D01*
X118433939Y-99983712D01*
X118433938Y-99983712D01*
X118421769Y-99986133D01*
X118355448Y-100030448D01*
X118311133Y-100096769D01*
X118299500Y-100155252D01*
X118299500Y-101894748D01*
X118311133Y-101953231D01*
X118355448Y-102019552D01*
X118421769Y-102063867D01*
X118433938Y-102066288D01*
X118433939Y-102066288D01*
X118474184Y-102074293D01*
X118480252Y-102075500D01*
X120219748Y-102075500D01*
X120225816Y-102074293D01*
X120266061Y-102066288D01*
X120266062Y-102066288D01*
X120278231Y-102063867D01*
X120344552Y-102019552D01*
X120388867Y-101953231D01*
X120400500Y-101894748D01*
X120400500Y-100250000D01*
X164219318Y-100250000D01*
X164239956Y-100406762D01*
X164300464Y-100552841D01*
X164305491Y-100559392D01*
X164386012Y-100664329D01*
X164396718Y-100678282D01*
X164522159Y-100774536D01*
X164668238Y-100835044D01*
X164825000Y-100855682D01*
X164833188Y-100854604D01*
X164973574Y-100836122D01*
X164981762Y-100835044D01*
X165127841Y-100774536D01*
X165253282Y-100678282D01*
X165263989Y-100664329D01*
X165344509Y-100559392D01*
X165349536Y-100552841D01*
X165410044Y-100406762D01*
X165430682Y-100250000D01*
X165410044Y-100093238D01*
X165349536Y-99947159D01*
X165281059Y-99857918D01*
X165258305Y-99828264D01*
X165253282Y-99821718D01*
X165127841Y-99725464D01*
X164981762Y-99664956D01*
X164825000Y-99644318D01*
X164668238Y-99664956D01*
X164522159Y-99725464D01*
X164396718Y-99821718D01*
X164391695Y-99828264D01*
X164368941Y-99857918D01*
X164300464Y-99947159D01*
X164239956Y-100093238D01*
X164219318Y-100250000D01*
X120400500Y-100250000D01*
X120400500Y-100155252D01*
X120388867Y-100096769D01*
X120344552Y-100030448D01*
X120278231Y-99986133D01*
X120266062Y-99983712D01*
X120266061Y-99983712D01*
X120225816Y-99975707D01*
X120219748Y-99974500D01*
X119940107Y-99974500D01*
X119871986Y-99954498D01*
X119825493Y-99900842D01*
X119815389Y-99830568D01*
X119844883Y-99765988D01*
X119884675Y-99735349D01*
X120043090Y-99657742D01*
X120051945Y-99652464D01*
X120225328Y-99528792D01*
X120233200Y-99522139D01*
X120384052Y-99371812D01*
X120390730Y-99363965D01*
X120515003Y-99191020D01*
X120520313Y-99182183D01*
X120614670Y-98991267D01*
X120618469Y-98981672D01*
X120680377Y-98777910D01*
X120682555Y-98767837D01*
X120683986Y-98756962D01*
X120681775Y-98742778D01*
X120668617Y-98739000D01*
X118033225Y-98739000D01*
X118019694Y-98742973D01*
X118018257Y-98752966D01*
X107275528Y-98752966D01*
X107064905Y-98542343D01*
X107030879Y-98480031D01*
X107028000Y-98453248D01*
X107028000Y-98219183D01*
X118014389Y-98219183D01*
X118015912Y-98227607D01*
X118028292Y-98231000D01*
X119077885Y-98231000D01*
X119093124Y-98226525D01*
X119094329Y-98225135D01*
X119096000Y-98217452D01*
X119096000Y-98212885D01*
X119604000Y-98212885D01*
X119608475Y-98228124D01*
X119609865Y-98229329D01*
X119617548Y-98231000D01*
X120668344Y-98231000D01*
X120681875Y-98227027D01*
X120683180Y-98217947D01*
X120641214Y-98050875D01*
X120637894Y-98041124D01*
X120552972Y-97845814D01*
X120548105Y-97836739D01*
X120432426Y-97657926D01*
X120426136Y-97649757D01*
X120282806Y-97492240D01*
X120275273Y-97485215D01*
X120108139Y-97353222D01*
X120099552Y-97347517D01*
X119913117Y-97244599D01*
X119903705Y-97240369D01*
X119702959Y-97169280D01*
X119692988Y-97166646D01*
X119621837Y-97153972D01*
X119608540Y-97155432D01*
X119604000Y-97169989D01*
X119604000Y-98212885D01*
X119096000Y-98212885D01*
X119096000Y-97168102D01*
X119092082Y-97154758D01*
X119077806Y-97152771D01*
X119039324Y-97158660D01*
X119029288Y-97161051D01*
X118826868Y-97227212D01*
X118817359Y-97231209D01*
X118628463Y-97329542D01*
X118619738Y-97335036D01*
X118449433Y-97462905D01*
X118441726Y-97469748D01*
X118294590Y-97623717D01*
X118288104Y-97631727D01*
X118168098Y-97807649D01*
X118163000Y-97816623D01*
X118073338Y-98009783D01*
X118069775Y-98019470D01*
X118014389Y-98219183D01*
X107028000Y-98219183D01*
X107028000Y-97117989D01*
X126351329Y-97117989D01*
X126371967Y-97274751D01*
X126432475Y-97420830D01*
X126528729Y-97546271D01*
X126654170Y-97642525D01*
X126800249Y-97703033D01*
X126957011Y-97723671D01*
X126965199Y-97722593D01*
X127105585Y-97704111D01*
X127113773Y-97703033D01*
X127121400Y-97699874D01*
X127121403Y-97699873D01*
X127252477Y-97645580D01*
X127300695Y-97635989D01*
X127513327Y-97635989D01*
X127561545Y-97645580D01*
X127692619Y-97699873D01*
X127692622Y-97699874D01*
X127700249Y-97703033D01*
X127857011Y-97723671D01*
X127865199Y-97722593D01*
X128005585Y-97704111D01*
X128013773Y-97703033D01*
X128021400Y-97699874D01*
X128021403Y-97699873D01*
X128152477Y-97645580D01*
X128200695Y-97635989D01*
X130276237Y-97635989D01*
X130344358Y-97655991D01*
X130365332Y-97672894D01*
X132340697Y-99648260D01*
X132368011Y-99689136D01*
X132425464Y-99827841D01*
X132521718Y-99953282D01*
X132647159Y-100049536D01*
X132793238Y-100110044D01*
X132950000Y-100130682D01*
X132958188Y-100129604D01*
X133098574Y-100111122D01*
X133106762Y-100110044D01*
X133252841Y-100049536D01*
X133378282Y-99953282D01*
X133474536Y-99827841D01*
X133535044Y-99681762D01*
X133555682Y-99525000D01*
X133535044Y-99368238D01*
X133474536Y-99222159D01*
X133398959Y-99123665D01*
X133383305Y-99103264D01*
X133378282Y-99096718D01*
X133252841Y-99000464D01*
X133114136Y-98943011D01*
X133073260Y-98915697D01*
X130919363Y-96761801D01*
X130915710Y-96757992D01*
X130882097Y-96721438D01*
X130876279Y-96715111D01*
X130841773Y-96693716D01*
X130832004Y-96687001D01*
X130806514Y-96667652D01*
X130806507Y-96667648D01*
X130799668Y-96662457D01*
X130787131Y-96657493D01*
X130767123Y-96647430D01*
X130762959Y-96644848D01*
X130762953Y-96644845D01*
X130755659Y-96640323D01*
X130716682Y-96628999D01*
X130705456Y-96625155D01*
X130675703Y-96613375D01*
X130675695Y-96613373D01*
X130667711Y-96610212D01*
X130659166Y-96609314D01*
X130659163Y-96609313D01*
X130654297Y-96608801D01*
X130632325Y-96604491D01*
X130625709Y-96602569D01*
X130625707Y-96602569D01*
X130619371Y-96600728D01*
X130609307Y-96599989D01*
X130577051Y-96599989D01*
X130563880Y-96599299D01*
X130526565Y-96595377D01*
X130518099Y-96596809D01*
X130518096Y-96596809D01*
X130509725Y-96598225D01*
X130488713Y-96599989D01*
X128200695Y-96599989D01*
X128152477Y-96590398D01*
X128021403Y-96536105D01*
X128021400Y-96536104D01*
X128013773Y-96532945D01*
X127857011Y-96512307D01*
X127700249Y-96532945D01*
X127692622Y-96536104D01*
X127692619Y-96536105D01*
X127561545Y-96590398D01*
X127513327Y-96599989D01*
X127300695Y-96599989D01*
X127252477Y-96590398D01*
X127121403Y-96536105D01*
X127121400Y-96536104D01*
X127113773Y-96532945D01*
X126957011Y-96512307D01*
X126800249Y-96532945D01*
X126654170Y-96593453D01*
X126528729Y-96689707D01*
X126432475Y-96815148D01*
X126371967Y-96961227D01*
X126351329Y-97117989D01*
X107028000Y-97117989D01*
X107028000Y-96263684D01*
X107037591Y-96215466D01*
X107091884Y-96084392D01*
X107091885Y-96084389D01*
X107095044Y-96076762D01*
X107115682Y-95920000D01*
X107095044Y-95763238D01*
X107034536Y-95617159D01*
X106938282Y-95491718D01*
X106812841Y-95395464D01*
X106666762Y-95334956D01*
X106510000Y-95314318D01*
X106353238Y-95334956D01*
X106207159Y-95395464D01*
X106081718Y-95491718D01*
X105985464Y-95617159D01*
X105924956Y-95763238D01*
X105904318Y-95920000D01*
X93165787Y-95920000D01*
X93167396Y-95913997D01*
X93241974Y-95694298D01*
X93248281Y-95679071D01*
X93340672Y-95491718D01*
X93350900Y-95470979D01*
X93359139Y-95456708D01*
X93488038Y-95263798D01*
X93498071Y-95250722D01*
X93651052Y-95076281D01*
X93662706Y-95064627D01*
X93837147Y-94911646D01*
X93850223Y-94901613D01*
X93947252Y-94836780D01*
X94043137Y-94772712D01*
X94057404Y-94764475D01*
X94163953Y-94711931D01*
X94265496Y-94661856D01*
X94280723Y-94655549D01*
X94470822Y-94591019D01*
X94500425Y-94580970D01*
X94516339Y-94576706D01*
X94630122Y-94554073D01*
X94743902Y-94531441D01*
X94760242Y-94529290D01*
X94986821Y-94514439D01*
X94986832Y-94514602D01*
X94987108Y-94514532D01*
X95000000Y-94518721D01*
X95015838Y-94513575D01*
X162981122Y-94513575D01*
X163002028Y-94515322D01*
G37*
%TD.AperFunction*%
%TD*%
M02*
