M48
; DRILL file {KiCad (6.0.2)} date Sun Jun 19 20:52:34 2022
; FORMAT={-:-/ absolute / metric / decimal}
; #@! TF.CreationDate,2022-06-19T20:52:34-07:00
; #@! TF.GenerationSoftware,Kicad,Pcbnew,(6.0.2)
; #@! TF.FileFunction,Plated,1,4,PTH
FMAT,2
METRIC
; #@! TA.AperFunction,Plated,PTH,ViaDrill
T1C0.400
; #@! TA.AperFunction,Plated,PTH,ComponentDrill
T2C1.000
%
G90
G05
T1
X104.01Y-106.62
X104.01Y-109.82
X105.41Y-103.12
X105.527Y-106.62
X105.527Y-109.82
X106.51Y-95.92
X106.527Y-106.62
X106.527Y-109.82
X106.61Y-100.82
X108.15Y-98.125
X113.01Y-105.22
X113.51Y-100.32
X113.61Y-104.62
X114.41Y-100.32
X115.522Y-99.907
X118.31Y-104.12
X118.41Y-113.96
X119.31Y-104.12
X119.31Y-113.96
X120.21Y-113.96
X123.51Y-97.92
X123.963Y-102.212
X124.01Y-98.72
X126.957Y-97.118
X127.738Y-109.662
X127.857Y-97.118
X128.11Y-107.82
X129.338Y-113.062
X129.738Y-108.562
X129.763Y-110.037
X130.71Y-113.02
X130.91Y-99.82
X131.61Y-100.32
X131.738Y-112.162
X132.95Y-99.525
X139.944Y-107.431
X141.15Y-104.111
X142.17Y-104.731
X144.01Y-109.62
X145.21Y-110.52
X147.21Y-100.62
X147.243Y-101.619
X150.05Y-105.611
X150.15Y-94.95
X150.15Y-96.75
X150.15Y-98.55
X150.15Y-100.35
X150.15Y-102.15
X150.15Y-103.95
X150.15Y-107.05
X150.15Y-108.85
X150.15Y-110.65
X150.15Y-112.45
X150.15Y-114.3
X162.635Y-103.994
X163.325Y-109.264
X164.2Y-95.1
X164.211Y-114.1
X164.325Y-108.464
X164.825Y-100.25
X165.8Y-99.5
X167.7Y-95.7
X167.711Y-113.5
X171.1Y-96.3
X171.111Y-112.9
X174.6Y-96.9
X174.611Y-112.3
X178.0Y-97.5
X178.011Y-111.7
X181.5Y-98.1
X181.511Y-111.1
X184.9Y-98.7
X184.911Y-110.5
X188.85Y-100.35
X188.85Y-108.9
X190.7Y-100.35
X190.7Y-108.9
T2
X119.35Y-98.485
X119.35Y-101.025
T2
X95.01Y-102.22G85X95.01Y-99.62
G05
X96.96Y-105.62G85X99.06Y-105.62
G05
X101.01Y-102.22G85X101.01Y-99.62
G05
T0
M30
