%TF.GenerationSoftware,KiCad,Pcbnew,(6.0.2)*%
%TF.CreationDate,2022-06-19T20:51:39-07:00*%
%TF.ProjectId,peregrine,70657265-6772-4696-9e65-2e6b69636164,5*%
%TF.SameCoordinates,Original*%
%TF.FileFunction,Legend,Bot*%
%TF.FilePolarity,Positive*%
%FSLAX46Y46*%
G04 Gerber Fmt 4.6, Leading zero omitted, Abs format (unit mm)*
G04 Created by KiCad (PCBNEW (6.0.2)) date 2022-06-19 20:51:39*
%MOMM*%
%LPD*%
G01*
G04 APERTURE LIST*
%ADD10C,0.150000*%
%ADD11C,0.010000*%
%ADD12R,1.700000X1.700000*%
%ADD13O,1.700000X1.700000*%
%ADD14R,4.900000X1.600000*%
%ADD15O,1.500000X4.150000*%
%ADD16O,3.650000X1.500000*%
G04 APERTURE END LIST*
D10*
X132057619Y-107481904D02*
X132057619Y-107672380D01*
X132010000Y-107767619D01*
X131962380Y-107815238D01*
X131819523Y-107910476D01*
X131629047Y-107958095D01*
X131248095Y-107958095D01*
X131152857Y-107910476D01*
X131105238Y-107862857D01*
X131057619Y-107767619D01*
X131057619Y-107577142D01*
X131105238Y-107481904D01*
X131152857Y-107434285D01*
X131248095Y-107386666D01*
X131486190Y-107386666D01*
X131581428Y-107434285D01*
X131629047Y-107481904D01*
X131676666Y-107577142D01*
X131676666Y-107767619D01*
X131629047Y-107862857D01*
X131581428Y-107910476D01*
X131486190Y-107958095D01*
X132105238Y-106243809D02*
X130819523Y-107100952D01*
X131057619Y-105386666D02*
X131057619Y-105958095D01*
X131057619Y-105672380D02*
X132057619Y-105672380D01*
X131914761Y-105767619D01*
X131819523Y-105862857D01*
X131771904Y-105958095D01*
X131629047Y-104815238D02*
X131676666Y-104910476D01*
X131724285Y-104958095D01*
X131819523Y-105005714D01*
X131867142Y-105005714D01*
X131962380Y-104958095D01*
X132010000Y-104910476D01*
X132057619Y-104815238D01*
X132057619Y-104624761D01*
X132010000Y-104529523D01*
X131962380Y-104481904D01*
X131867142Y-104434285D01*
X131819523Y-104434285D01*
X131724285Y-104481904D01*
X131676666Y-104529523D01*
X131629047Y-104624761D01*
X131629047Y-104815238D01*
X131581428Y-104910476D01*
X131533809Y-104958095D01*
X131438571Y-105005714D01*
X131248095Y-105005714D01*
X131152857Y-104958095D01*
X131105238Y-104910476D01*
X131057619Y-104815238D01*
X131057619Y-104624761D01*
X131105238Y-104529523D01*
X131152857Y-104481904D01*
X131248095Y-104434285D01*
X131438571Y-104434285D01*
X131533809Y-104481904D01*
X131581428Y-104529523D01*
X131629047Y-104624761D01*
X132105238Y-103291428D02*
X130819523Y-104148571D01*
X131962380Y-103005714D02*
X132010000Y-102958095D01*
X132057619Y-102862857D01*
X132057619Y-102624761D01*
X132010000Y-102529523D01*
X131962380Y-102481904D01*
X131867142Y-102434285D01*
X131771904Y-102434285D01*
X131629047Y-102481904D01*
X131057619Y-103053333D01*
X131057619Y-102434285D01*
X131962380Y-102053333D02*
X132010000Y-102005714D01*
X132057619Y-101910476D01*
X132057619Y-101672380D01*
X132010000Y-101577142D01*
X131962380Y-101529523D01*
X131867142Y-101481904D01*
X131771904Y-101481904D01*
X131629047Y-101529523D01*
X131057619Y-102100952D01*
X131057619Y-101481904D01*
X132657619Y-107762857D02*
X133133809Y-108096190D01*
X132657619Y-108334285D02*
X133657619Y-108334285D01*
X133657619Y-107953333D01*
X133610000Y-107858095D01*
X133562380Y-107810476D01*
X133467142Y-107762857D01*
X133324285Y-107762857D01*
X133229047Y-107810476D01*
X133181428Y-107858095D01*
X133133809Y-107953333D01*
X133133809Y-108334285D01*
X132705238Y-106953333D02*
X132657619Y-107048571D01*
X132657619Y-107239047D01*
X132705238Y-107334285D01*
X132800476Y-107381904D01*
X133181428Y-107381904D01*
X133276666Y-107334285D01*
X133324285Y-107239047D01*
X133324285Y-107048571D01*
X133276666Y-106953333D01*
X133181428Y-106905714D01*
X133086190Y-106905714D01*
X132990952Y-107381904D01*
X133324285Y-106572380D02*
X132657619Y-106334285D01*
X133324285Y-106096190D01*
X132657619Y-105715238D02*
X133324285Y-105715238D01*
X133657619Y-105715238D02*
X133610000Y-105762857D01*
X133562380Y-105715238D01*
X133610000Y-105667619D01*
X133657619Y-105715238D01*
X133562380Y-105715238D01*
X132705238Y-105286666D02*
X132657619Y-105191428D01*
X132657619Y-105000952D01*
X132705238Y-104905714D01*
X132800476Y-104858095D01*
X132848095Y-104858095D01*
X132943333Y-104905714D01*
X132990952Y-105000952D01*
X132990952Y-105143809D01*
X133038571Y-105239047D01*
X133133809Y-105286666D01*
X133181428Y-105286666D01*
X133276666Y-105239047D01*
X133324285Y-105143809D01*
X133324285Y-105000952D01*
X133276666Y-104905714D01*
X132657619Y-104429523D02*
X133324285Y-104429523D01*
X133657619Y-104429523D02*
X133610000Y-104477142D01*
X133562380Y-104429523D01*
X133610000Y-104381904D01*
X133657619Y-104429523D01*
X133562380Y-104429523D01*
X132657619Y-103810476D02*
X132705238Y-103905714D01*
X132752857Y-103953333D01*
X132848095Y-104000952D01*
X133133809Y-104000952D01*
X133229047Y-103953333D01*
X133276666Y-103905714D01*
X133324285Y-103810476D01*
X133324285Y-103667619D01*
X133276666Y-103572380D01*
X133229047Y-103524761D01*
X133133809Y-103477142D01*
X132848095Y-103477142D01*
X132752857Y-103524761D01*
X132705238Y-103572380D01*
X132657619Y-103667619D01*
X132657619Y-103810476D01*
X133324285Y-103048571D02*
X132657619Y-103048571D01*
X133229047Y-103048571D02*
X133276666Y-103000952D01*
X133324285Y-102905714D01*
X133324285Y-102762857D01*
X133276666Y-102667619D01*
X133181428Y-102620000D01*
X132657619Y-102620000D01*
X133657619Y-101477142D02*
X133657619Y-100858095D01*
X133276666Y-101191428D01*
X133276666Y-101048571D01*
X133229047Y-100953333D01*
X133181428Y-100905714D01*
X133086190Y-100858095D01*
X132848095Y-100858095D01*
X132752857Y-100905714D01*
X132705238Y-100953333D01*
X132657619Y-101048571D01*
X132657619Y-101334285D01*
X132705238Y-101429523D01*
X132752857Y-101477142D01*
X104519047Y-94952380D02*
X104519047Y-95666666D01*
X104566666Y-95809523D01*
X104661904Y-95904761D01*
X104804761Y-95952380D01*
X104900000Y-95952380D01*
X103566666Y-95952380D02*
X104042857Y-95952380D01*
X104042857Y-94952380D01*
X102661904Y-95857142D02*
X102709523Y-95904761D01*
X102852380Y-95952380D01*
X102947619Y-95952380D01*
X103090476Y-95904761D01*
X103185714Y-95809523D01*
X103233333Y-95714285D01*
X103280952Y-95523809D01*
X103280952Y-95380952D01*
X103233333Y-95190476D01*
X103185714Y-95095238D01*
X103090476Y-95000000D01*
X102947619Y-94952380D01*
X102852380Y-94952380D01*
X102709523Y-95000000D01*
X102661904Y-95047619D01*
X101947619Y-94952380D02*
X101947619Y-95666666D01*
X101995238Y-95809523D01*
X102090476Y-95904761D01*
X102233333Y-95952380D01*
X102328571Y-95952380D01*
X100995238Y-95952380D02*
X101471428Y-95952380D01*
X101471428Y-94952380D01*
X100090476Y-95857142D02*
X100138095Y-95904761D01*
X100280952Y-95952380D01*
X100376190Y-95952380D01*
X100519047Y-95904761D01*
X100614285Y-95809523D01*
X100661904Y-95714285D01*
X100709523Y-95523809D01*
X100709523Y-95380952D01*
X100661904Y-95190476D01*
X100614285Y-95095238D01*
X100519047Y-95000000D01*
X100376190Y-94952380D01*
X100280952Y-94952380D01*
X100138095Y-95000000D01*
X100090476Y-95047619D01*
X99376190Y-94952380D02*
X99376190Y-95666666D01*
X99423809Y-95809523D01*
X99519047Y-95904761D01*
X99661904Y-95952380D01*
X99757142Y-95952380D01*
X98423809Y-95952380D02*
X98900000Y-95952380D01*
X98900000Y-94952380D01*
X97519047Y-95857142D02*
X97566666Y-95904761D01*
X97709523Y-95952380D01*
X97804761Y-95952380D01*
X97947619Y-95904761D01*
X98042857Y-95809523D01*
X98090476Y-95714285D01*
X98138095Y-95523809D01*
X98138095Y-95380952D01*
X98090476Y-95190476D01*
X98042857Y-95095238D01*
X97947619Y-95000000D01*
X97804761Y-94952380D01*
X97709523Y-94952380D01*
X97566666Y-95000000D01*
X97519047Y-95047619D01*
X96804761Y-94952380D02*
X96804761Y-95666666D01*
X96852380Y-95809523D01*
X96947619Y-95904761D01*
X97090476Y-95952380D01*
X97185714Y-95952380D01*
X95852380Y-95952380D02*
X96328571Y-95952380D01*
X96328571Y-94952380D01*
X94947619Y-95857142D02*
X94995238Y-95904761D01*
X95138095Y-95952380D01*
X95233333Y-95952380D01*
X95376190Y-95904761D01*
X95471428Y-95809523D01*
X95519047Y-95714285D01*
X95566666Y-95523809D01*
X95566666Y-95380952D01*
X95519047Y-95190476D01*
X95471428Y-95095238D01*
X95376190Y-95000000D01*
X95233333Y-94952380D01*
X95138095Y-94952380D01*
X94995238Y-95000000D01*
X94947619Y-95047619D01*
D11*
%TO.C,REF\u002A\u002A*%
X167427683Y-107975813D02*
X167402527Y-107910763D01*
X167402527Y-107910763D02*
X167352575Y-107811615D01*
X167352575Y-107811615D02*
X167274248Y-107669253D01*
X167274248Y-107669253D02*
X167268023Y-107658168D01*
X167268023Y-107658168D02*
X167193048Y-107527053D01*
X167193048Y-107527053D02*
X167127362Y-107416404D01*
X167127362Y-107416404D02*
X167077590Y-107337090D01*
X167077590Y-107337090D02*
X167050359Y-107299977D01*
X167050359Y-107299977D02*
X167049026Y-107298939D01*
X167049026Y-107298939D02*
X167011220Y-107307904D01*
X167011220Y-107307904D02*
X166926790Y-107349029D01*
X166926790Y-107349029D02*
X166800335Y-107419634D01*
X166800335Y-107419634D02*
X166636456Y-107517040D01*
X166636456Y-107517040D02*
X166439755Y-107638565D01*
X166439755Y-107638565D02*
X166214830Y-107781529D01*
X166214830Y-107781529D02*
X166159669Y-107817110D01*
X166159669Y-107817110D02*
X166006602Y-107909814D01*
X166006602Y-107909814D02*
X165874888Y-107977317D01*
X165874888Y-107977317D02*
X165776435Y-108013695D01*
X165776435Y-108013695D02*
X165756986Y-108017428D01*
X165756986Y-108017428D02*
X165671376Y-108015771D01*
X165671376Y-108015771D02*
X165535582Y-107997212D01*
X165535582Y-107997212D02*
X165358313Y-107964064D01*
X165358313Y-107964064D02*
X165148281Y-107918640D01*
X165148281Y-107918640D02*
X164914196Y-107863254D01*
X164914196Y-107863254D02*
X164664768Y-107800220D01*
X164664768Y-107800220D02*
X164408710Y-107731850D01*
X164408710Y-107731850D02*
X164154731Y-107660458D01*
X164154731Y-107660458D02*
X163911543Y-107588359D01*
X163911543Y-107588359D02*
X163687855Y-107517864D01*
X163687855Y-107517864D02*
X163492379Y-107451288D01*
X163492379Y-107451288D02*
X163333826Y-107390945D01*
X163333826Y-107390945D02*
X163239756Y-107348879D01*
X163239756Y-107348879D02*
X163139549Y-107299327D01*
X163139549Y-107299327D02*
X163043663Y-107252540D01*
X163043663Y-107252540D02*
X163038414Y-107250007D01*
X163038414Y-107250007D02*
X162941560Y-107172603D01*
X162941560Y-107172603D02*
X162876344Y-107059632D01*
X162876344Y-107059632D02*
X162845091Y-106928122D01*
X162845091Y-106928122D02*
X162850125Y-106795099D01*
X162850125Y-106795099D02*
X162893772Y-106677590D01*
X162893772Y-106677590D02*
X162951236Y-106611484D01*
X162951236Y-106611484D02*
X163108834Y-106516282D01*
X163108834Y-106516282D02*
X163305244Y-106446522D01*
X163305244Y-106446522D02*
X163520441Y-106408247D01*
X163520441Y-106408247D02*
X163642439Y-106402824D01*
X163642439Y-106402824D02*
X163870130Y-106424661D01*
X163870130Y-106424661D02*
X164058680Y-106488753D01*
X164058680Y-106488753D02*
X164217241Y-106598549D01*
X164217241Y-106598549D02*
X164252533Y-106632787D01*
X164252533Y-106632787D02*
X164351530Y-106734678D01*
X164351530Y-106734678D02*
X165751022Y-106748672D01*
X165751022Y-106748672D02*
X166020938Y-106570365D01*
X166020938Y-106570365D02*
X166143109Y-106486693D01*
X166143109Y-106486693D02*
X166253013Y-106406111D01*
X166253013Y-106406111D02*
X166335327Y-106340115D01*
X166335327Y-106340115D02*
X166365616Y-106311748D01*
X166365616Y-106311748D02*
X166440379Y-106231438D01*
X166440379Y-106231438D02*
X166381804Y-106122670D01*
X166381804Y-106122670D02*
X166339832Y-106053923D01*
X166339832Y-106053923D02*
X166307244Y-106016308D01*
X166307244Y-106016308D02*
X166301385Y-106013903D01*
X166301385Y-106013903D02*
X166276544Y-105988194D01*
X166276544Y-105988194D02*
X166258046Y-105944208D01*
X166258046Y-105944208D02*
X166241374Y-105901701D01*
X166241374Y-105901701D02*
X166209701Y-105836613D01*
X166209701Y-105836613D02*
X166159934Y-105743356D01*
X166159934Y-105743356D02*
X166088982Y-105616342D01*
X166088982Y-105616342D02*
X165993753Y-105449984D01*
X165993753Y-105449984D02*
X165871156Y-105238695D01*
X165871156Y-105238695D02*
X165804136Y-105123876D01*
X165804136Y-105123876D02*
X165723857Y-104988813D01*
X165723857Y-104988813D02*
X165666681Y-104900230D01*
X165666681Y-104900230D02*
X165625922Y-104850290D01*
X165625922Y-104850290D02*
X165594893Y-104831154D01*
X165594893Y-104831154D02*
X165566908Y-104834984D01*
X165566908Y-104834984D02*
X165560407Y-104838178D01*
X165560407Y-104838178D02*
X165519467Y-104869248D01*
X165519467Y-104869248D02*
X165442670Y-104935729D01*
X165442670Y-104935729D02*
X165338607Y-105029876D01*
X165338607Y-105029876D02*
X165215868Y-105143944D01*
X165215868Y-105143944D02*
X165111820Y-105242600D01*
X165111820Y-105242600D02*
X164864866Y-105469941D01*
X164864866Y-105469941D02*
X164650817Y-105647790D01*
X164650817Y-105647790D02*
X164467520Y-105777733D01*
X164467520Y-105777733D02*
X164312824Y-105861358D01*
X164312824Y-105861358D02*
X164234268Y-105889566D01*
X164234268Y-105889566D02*
X164165502Y-105901217D01*
X164165502Y-105901217D02*
X164048201Y-105913251D01*
X164048201Y-105913251D02*
X163895766Y-105924609D01*
X163895766Y-105924609D02*
X163721596Y-105934233D01*
X163721596Y-105934233D02*
X163611463Y-105938762D01*
X163611463Y-105938762D02*
X163421071Y-105945082D01*
X163421071Y-105945082D02*
X163281876Y-105947863D01*
X163281876Y-105947863D02*
X163183181Y-105946285D01*
X163183181Y-105946285D02*
X163114292Y-105939531D01*
X163114292Y-105939531D02*
X163064513Y-105926784D01*
X163064513Y-105926784D02*
X163023150Y-105907227D01*
X163023150Y-105907227D02*
X162997894Y-105891866D01*
X162997894Y-105891866D02*
X162900547Y-105803158D01*
X162900547Y-105803158D02*
X162832709Y-105688853D01*
X162832709Y-105688853D02*
X162803124Y-105568584D01*
X162803124Y-105568584D02*
X162813828Y-105478455D01*
X162813828Y-105478455D02*
X162860139Y-105396848D01*
X162860139Y-105396848D02*
X162943076Y-105294553D01*
X162943076Y-105294553D02*
X163048175Y-105185917D01*
X163048175Y-105185917D02*
X163160968Y-105085287D01*
X163160968Y-105085287D02*
X163266990Y-105007012D01*
X163266990Y-105007012D02*
X163318222Y-104978191D01*
X163318222Y-104978191D02*
X163388372Y-104935018D01*
X163388372Y-104935018D02*
X163495222Y-104856495D01*
X163495222Y-104856495D02*
X163630422Y-104749797D01*
X163630422Y-104749797D02*
X163785619Y-104622097D01*
X163785619Y-104622097D02*
X163952464Y-104480571D01*
X163952464Y-104480571D02*
X164122604Y-104332393D01*
X164122604Y-104332393D02*
X164287689Y-104184737D01*
X164287689Y-104184737D02*
X164439367Y-104044778D01*
X164439367Y-104044778D02*
X164569287Y-103919690D01*
X164569287Y-103919690D02*
X164664661Y-103821480D01*
X164664661Y-103821480D02*
X164759935Y-103712443D01*
X164759935Y-103712443D02*
X164830183Y-103620716D01*
X164830183Y-103620716D02*
X164868102Y-103556379D01*
X164868102Y-103556379D02*
X164872271Y-103535022D01*
X164872271Y-103535022D02*
X164855452Y-103502294D01*
X164855452Y-103502294D02*
X164810308Y-103420659D01*
X164810308Y-103420659D02*
X164739551Y-103294828D01*
X164739551Y-103294828D02*
X164645891Y-103129512D01*
X164645891Y-103129512D02*
X164532038Y-102929422D01*
X164532038Y-102929422D02*
X164400702Y-102699268D01*
X164400702Y-102699268D02*
X164254594Y-102443762D01*
X164254594Y-102443762D02*
X164096424Y-102167613D01*
X164096424Y-102167613D02*
X163928903Y-101875533D01*
X163928903Y-101875533D02*
X163754741Y-101572232D01*
X163754741Y-101572232D02*
X163576648Y-101262421D01*
X163576648Y-101262421D02*
X163397335Y-100950811D01*
X163397335Y-100950811D02*
X163219513Y-100642112D01*
X163219513Y-100642112D02*
X163045891Y-100341036D01*
X163045891Y-100341036D02*
X162879181Y-100052292D01*
X162879181Y-100052292D02*
X162722092Y-99780592D01*
X162722092Y-99780592D02*
X162577334Y-99530646D01*
X162577334Y-99530646D02*
X162447620Y-99307166D01*
X162447620Y-99307166D02*
X162335658Y-99114861D01*
X162335658Y-99114861D02*
X162244159Y-98958443D01*
X162244159Y-98958443D02*
X162175833Y-98842622D01*
X162175833Y-98842622D02*
X162133392Y-98772109D01*
X162133392Y-98772109D02*
X162120073Y-98751671D01*
X162120073Y-98751671D02*
X162117440Y-98779197D01*
X162117440Y-98779197D02*
X162114882Y-98865792D01*
X162114882Y-98865792D02*
X162112408Y-99008572D01*
X162112408Y-99008572D02*
X162110034Y-99204654D01*
X162110034Y-99204654D02*
X162107769Y-99451156D01*
X162107769Y-99451156D02*
X162105627Y-99745194D01*
X162105627Y-99745194D02*
X162103621Y-100083886D01*
X162103621Y-100083886D02*
X162101762Y-100464348D01*
X162101762Y-100464348D02*
X162100063Y-100883699D01*
X162100063Y-100883699D02*
X162098536Y-101339054D01*
X162098536Y-101339054D02*
X162097193Y-101827531D01*
X162097193Y-101827531D02*
X162096048Y-102346247D01*
X162096048Y-102346247D02*
X162095111Y-102892319D01*
X162095111Y-102892319D02*
X162094396Y-103462864D01*
X162094396Y-103462864D02*
X162093915Y-104055000D01*
X162093915Y-104055000D02*
X162093681Y-104665843D01*
X162093681Y-104665843D02*
X162093658Y-104922152D01*
X162093658Y-104922152D02*
X162093658Y-111122061D01*
X162093658Y-111122061D02*
X162860305Y-110679894D01*
X162860305Y-110679894D02*
X163022640Y-110586289D01*
X163022640Y-110586289D02*
X163231668Y-110465796D01*
X163231668Y-110465796D02*
X163480397Y-110322444D01*
X163480397Y-110322444D02*
X163761836Y-110160262D01*
X163761836Y-110160262D02*
X164068993Y-109983277D01*
X164068993Y-109983277D02*
X164394875Y-109795520D01*
X164394875Y-109795520D02*
X164732491Y-109601018D01*
X164732491Y-109601018D02*
X165074849Y-109403800D01*
X165074849Y-109403800D02*
X165414957Y-109207895D01*
X165414957Y-109207895D02*
X165500975Y-109158351D01*
X165500975Y-109158351D02*
X165814285Y-108977696D01*
X165814285Y-108977696D02*
X166112394Y-108805422D01*
X166112394Y-108805422D02*
X166390864Y-108644116D01*
X166390864Y-108644116D02*
X166645257Y-108496368D01*
X166645257Y-108496368D02*
X166871136Y-108364767D01*
X166871136Y-108364767D02*
X167064063Y-108251901D01*
X167064063Y-108251901D02*
X167219599Y-108160359D01*
X167219599Y-108160359D02*
X167333308Y-108092730D01*
X167333308Y-108092730D02*
X167400750Y-108051604D01*
X167400750Y-108051604D02*
X167417920Y-108040095D01*
X167417920Y-108040095D02*
X167431621Y-108015885D01*
X167431621Y-108015885D02*
X167427683Y-107975813D01*
X167427683Y-107975813D02*
X167427683Y-107975813D01*
G36*
X162133392Y-98772109D02*
G01*
X162175833Y-98842622D01*
X162244159Y-98958443D01*
X162335658Y-99114861D01*
X162447620Y-99307166D01*
X162577334Y-99530646D01*
X162722092Y-99780592D01*
X162879181Y-100052292D01*
X163045891Y-100341036D01*
X163219513Y-100642112D01*
X163397335Y-100950811D01*
X163576648Y-101262421D01*
X163754741Y-101572232D01*
X163928903Y-101875533D01*
X164096424Y-102167613D01*
X164254594Y-102443762D01*
X164400702Y-102699268D01*
X164532038Y-102929422D01*
X164645891Y-103129512D01*
X164739551Y-103294828D01*
X164810308Y-103420659D01*
X164855452Y-103502294D01*
X164872271Y-103535022D01*
X164868102Y-103556379D01*
X164830183Y-103620716D01*
X164759935Y-103712443D01*
X164664661Y-103821480D01*
X164569287Y-103919690D01*
X164439367Y-104044778D01*
X164287689Y-104184737D01*
X164122604Y-104332393D01*
X163952464Y-104480571D01*
X163785619Y-104622097D01*
X163630422Y-104749797D01*
X163495222Y-104856495D01*
X163388372Y-104935018D01*
X163318222Y-104978191D01*
X163266990Y-105007012D01*
X163160968Y-105085287D01*
X163048175Y-105185917D01*
X162943076Y-105294553D01*
X162860139Y-105396848D01*
X162813828Y-105478455D01*
X162803124Y-105568584D01*
X162832709Y-105688853D01*
X162900547Y-105803158D01*
X162997894Y-105891866D01*
X163023150Y-105907227D01*
X163064513Y-105926784D01*
X163114292Y-105939531D01*
X163183181Y-105946285D01*
X163281876Y-105947863D01*
X163421071Y-105945082D01*
X163611463Y-105938762D01*
X163721596Y-105934233D01*
X163895766Y-105924609D01*
X164048201Y-105913251D01*
X164165502Y-105901217D01*
X164234268Y-105889566D01*
X164312824Y-105861358D01*
X164467520Y-105777733D01*
X164650817Y-105647790D01*
X164864866Y-105469941D01*
X165111820Y-105242600D01*
X165215868Y-105143944D01*
X165338607Y-105029876D01*
X165442670Y-104935729D01*
X165519467Y-104869248D01*
X165560407Y-104838178D01*
X165566908Y-104834984D01*
X165594893Y-104831154D01*
X165625922Y-104850290D01*
X165666681Y-104900230D01*
X165723857Y-104988813D01*
X165804136Y-105123876D01*
X165871156Y-105238695D01*
X165993753Y-105449984D01*
X166088982Y-105616342D01*
X166159934Y-105743356D01*
X166209701Y-105836613D01*
X166241374Y-105901701D01*
X166258046Y-105944208D01*
X166276544Y-105988194D01*
X166301385Y-106013903D01*
X166307244Y-106016308D01*
X166339832Y-106053923D01*
X166381804Y-106122670D01*
X166440379Y-106231438D01*
X166365616Y-106311748D01*
X166335327Y-106340115D01*
X166253013Y-106406111D01*
X166143109Y-106486693D01*
X166020938Y-106570365D01*
X165751022Y-106748672D01*
X164351530Y-106734678D01*
X164252533Y-106632787D01*
X164217241Y-106598549D01*
X164058680Y-106488753D01*
X163870130Y-106424661D01*
X163642439Y-106402824D01*
X163520441Y-106408247D01*
X163305244Y-106446522D01*
X163108834Y-106516282D01*
X162951236Y-106611484D01*
X162893772Y-106677590D01*
X162850125Y-106795099D01*
X162845091Y-106928122D01*
X162876344Y-107059632D01*
X162941560Y-107172603D01*
X163038414Y-107250007D01*
X163043663Y-107252540D01*
X163139549Y-107299327D01*
X163239756Y-107348879D01*
X163333826Y-107390945D01*
X163492379Y-107451288D01*
X163687855Y-107517864D01*
X163911543Y-107588359D01*
X164154731Y-107660458D01*
X164408710Y-107731850D01*
X164664768Y-107800220D01*
X164914196Y-107863254D01*
X165148281Y-107918640D01*
X165358313Y-107964064D01*
X165535582Y-107997212D01*
X165671376Y-108015771D01*
X165756986Y-108017428D01*
X165776435Y-108013695D01*
X165874888Y-107977317D01*
X166006602Y-107909814D01*
X166159669Y-107817110D01*
X166214830Y-107781529D01*
X166439755Y-107638565D01*
X166636456Y-107517040D01*
X166800335Y-107419634D01*
X166926790Y-107349029D01*
X167011220Y-107307904D01*
X167049026Y-107298939D01*
X167050359Y-107299977D01*
X167077590Y-107337090D01*
X167127362Y-107416404D01*
X167193048Y-107527053D01*
X167268023Y-107658168D01*
X167274248Y-107669253D01*
X167352575Y-107811615D01*
X167402527Y-107910763D01*
X167427683Y-107975813D01*
X167431621Y-108015885D01*
X167417920Y-108040095D01*
X167400750Y-108051604D01*
X167333308Y-108092730D01*
X167219599Y-108160359D01*
X167064063Y-108251901D01*
X166871136Y-108364767D01*
X166645257Y-108496368D01*
X166390864Y-108644116D01*
X166112394Y-108805422D01*
X165814285Y-108977696D01*
X165500975Y-109158351D01*
X165414957Y-109207895D01*
X165074849Y-109403800D01*
X164732491Y-109601018D01*
X164394875Y-109795520D01*
X164068993Y-109983277D01*
X163761836Y-110160262D01*
X163480397Y-110322444D01*
X163231668Y-110465796D01*
X163022640Y-110586289D01*
X162860305Y-110679894D01*
X162093658Y-111122061D01*
X162093658Y-104922152D01*
X162093681Y-104665843D01*
X162093915Y-104055000D01*
X162094396Y-103462864D01*
X162095111Y-102892319D01*
X162096048Y-102346247D01*
X162097193Y-101827531D01*
X162098536Y-101339054D01*
X162100063Y-100883699D01*
X162101762Y-100464348D01*
X162103621Y-100083886D01*
X162105627Y-99745194D01*
X162107769Y-99451156D01*
X162110034Y-99204654D01*
X162112408Y-99008572D01*
X162114882Y-98865792D01*
X162117440Y-98779197D01*
X162120073Y-98751671D01*
X162133392Y-98772109D01*
G37*
X162133392Y-98772109D02*
X162175833Y-98842622D01*
X162244159Y-98958443D01*
X162335658Y-99114861D01*
X162447620Y-99307166D01*
X162577334Y-99530646D01*
X162722092Y-99780592D01*
X162879181Y-100052292D01*
X163045891Y-100341036D01*
X163219513Y-100642112D01*
X163397335Y-100950811D01*
X163576648Y-101262421D01*
X163754741Y-101572232D01*
X163928903Y-101875533D01*
X164096424Y-102167613D01*
X164254594Y-102443762D01*
X164400702Y-102699268D01*
X164532038Y-102929422D01*
X164645891Y-103129512D01*
X164739551Y-103294828D01*
X164810308Y-103420659D01*
X164855452Y-103502294D01*
X164872271Y-103535022D01*
X164868102Y-103556379D01*
X164830183Y-103620716D01*
X164759935Y-103712443D01*
X164664661Y-103821480D01*
X164569287Y-103919690D01*
X164439367Y-104044778D01*
X164287689Y-104184737D01*
X164122604Y-104332393D01*
X163952464Y-104480571D01*
X163785619Y-104622097D01*
X163630422Y-104749797D01*
X163495222Y-104856495D01*
X163388372Y-104935018D01*
X163318222Y-104978191D01*
X163266990Y-105007012D01*
X163160968Y-105085287D01*
X163048175Y-105185917D01*
X162943076Y-105294553D01*
X162860139Y-105396848D01*
X162813828Y-105478455D01*
X162803124Y-105568584D01*
X162832709Y-105688853D01*
X162900547Y-105803158D01*
X162997894Y-105891866D01*
X163023150Y-105907227D01*
X163064513Y-105926784D01*
X163114292Y-105939531D01*
X163183181Y-105946285D01*
X163281876Y-105947863D01*
X163421071Y-105945082D01*
X163611463Y-105938762D01*
X163721596Y-105934233D01*
X163895766Y-105924609D01*
X164048201Y-105913251D01*
X164165502Y-105901217D01*
X164234268Y-105889566D01*
X164312824Y-105861358D01*
X164467520Y-105777733D01*
X164650817Y-105647790D01*
X164864866Y-105469941D01*
X165111820Y-105242600D01*
X165215868Y-105143944D01*
X165338607Y-105029876D01*
X165442670Y-104935729D01*
X165519467Y-104869248D01*
X165560407Y-104838178D01*
X165566908Y-104834984D01*
X165594893Y-104831154D01*
X165625922Y-104850290D01*
X165666681Y-104900230D01*
X165723857Y-104988813D01*
X165804136Y-105123876D01*
X165871156Y-105238695D01*
X165993753Y-105449984D01*
X166088982Y-105616342D01*
X166159934Y-105743356D01*
X166209701Y-105836613D01*
X166241374Y-105901701D01*
X166258046Y-105944208D01*
X166276544Y-105988194D01*
X166301385Y-106013903D01*
X166307244Y-106016308D01*
X166339832Y-106053923D01*
X166381804Y-106122670D01*
X166440379Y-106231438D01*
X166365616Y-106311748D01*
X166335327Y-106340115D01*
X166253013Y-106406111D01*
X166143109Y-106486693D01*
X166020938Y-106570365D01*
X165751022Y-106748672D01*
X164351530Y-106734678D01*
X164252533Y-106632787D01*
X164217241Y-106598549D01*
X164058680Y-106488753D01*
X163870130Y-106424661D01*
X163642439Y-106402824D01*
X163520441Y-106408247D01*
X163305244Y-106446522D01*
X163108834Y-106516282D01*
X162951236Y-106611484D01*
X162893772Y-106677590D01*
X162850125Y-106795099D01*
X162845091Y-106928122D01*
X162876344Y-107059632D01*
X162941560Y-107172603D01*
X163038414Y-107250007D01*
X163043663Y-107252540D01*
X163139549Y-107299327D01*
X163239756Y-107348879D01*
X163333826Y-107390945D01*
X163492379Y-107451288D01*
X163687855Y-107517864D01*
X163911543Y-107588359D01*
X164154731Y-107660458D01*
X164408710Y-107731850D01*
X164664768Y-107800220D01*
X164914196Y-107863254D01*
X165148281Y-107918640D01*
X165358313Y-107964064D01*
X165535582Y-107997212D01*
X165671376Y-108015771D01*
X165756986Y-108017428D01*
X165776435Y-108013695D01*
X165874888Y-107977317D01*
X166006602Y-107909814D01*
X166159669Y-107817110D01*
X166214830Y-107781529D01*
X166439755Y-107638565D01*
X166636456Y-107517040D01*
X166800335Y-107419634D01*
X166926790Y-107349029D01*
X167011220Y-107307904D01*
X167049026Y-107298939D01*
X167050359Y-107299977D01*
X167077590Y-107337090D01*
X167127362Y-107416404D01*
X167193048Y-107527053D01*
X167268023Y-107658168D01*
X167274248Y-107669253D01*
X167352575Y-107811615D01*
X167402527Y-107910763D01*
X167427683Y-107975813D01*
X167431621Y-108015885D01*
X167417920Y-108040095D01*
X167400750Y-108051604D01*
X167333308Y-108092730D01*
X167219599Y-108160359D01*
X167064063Y-108251901D01*
X166871136Y-108364767D01*
X166645257Y-108496368D01*
X166390864Y-108644116D01*
X166112394Y-108805422D01*
X165814285Y-108977696D01*
X165500975Y-109158351D01*
X165414957Y-109207895D01*
X165074849Y-109403800D01*
X164732491Y-109601018D01*
X164394875Y-109795520D01*
X164068993Y-109983277D01*
X163761836Y-110160262D01*
X163480397Y-110322444D01*
X163231668Y-110465796D01*
X163022640Y-110586289D01*
X162860305Y-110679894D01*
X162093658Y-111122061D01*
X162093658Y-104922152D01*
X162093681Y-104665843D01*
X162093915Y-104055000D01*
X162094396Y-103462864D01*
X162095111Y-102892319D01*
X162096048Y-102346247D01*
X162097193Y-101827531D01*
X162098536Y-101339054D01*
X162100063Y-100883699D01*
X162101762Y-100464348D01*
X162103621Y-100083886D01*
X162105627Y-99745194D01*
X162107769Y-99451156D01*
X162110034Y-99204654D01*
X162112408Y-99008572D01*
X162114882Y-98865792D01*
X162117440Y-98779197D01*
X162120073Y-98751671D01*
X162133392Y-98772109D01*
X167540762Y-100644944D02*
X167502614Y-100622184D01*
X167502614Y-100622184D02*
X167415157Y-100571025D01*
X167415157Y-100571025D02*
X167282762Y-100493996D01*
X167282762Y-100493996D02*
X167109796Y-100393628D01*
X167109796Y-100393628D02*
X166900630Y-100272451D01*
X166900630Y-100272451D02*
X166659633Y-100132994D01*
X166659633Y-100132994D02*
X166391176Y-99977787D01*
X166391176Y-99977787D02*
X166099626Y-99809360D01*
X166099626Y-99809360D02*
X165789354Y-99630243D01*
X165789354Y-99630243D02*
X165470000Y-99446005D01*
X165470000Y-99446005D02*
X165143765Y-99257848D01*
X165143765Y-99257848D02*
X164830582Y-99077197D01*
X164830582Y-99077197D02*
X164534988Y-98906670D01*
X164534988Y-98906670D02*
X164261520Y-98748886D01*
X164261520Y-98748886D02*
X164014716Y-98606462D01*
X164014716Y-98606462D02*
X163799111Y-98482019D01*
X163799111Y-98482019D02*
X163619245Y-98378174D01*
X163619245Y-98378174D02*
X163479653Y-98297545D01*
X163479653Y-98297545D02*
X163384872Y-98242752D01*
X163384872Y-98242752D02*
X163340427Y-98216987D01*
X163340427Y-98216987D02*
X163265339Y-98174986D01*
X163265339Y-98174986D02*
X163218337Y-98152150D01*
X163218337Y-98152150D02*
X163210159Y-98150898D01*
X163210159Y-98150898D02*
X163225516Y-98178728D01*
X163225516Y-98178728D02*
X163269593Y-98256119D01*
X163269593Y-98256119D02*
X163340058Y-98379027D01*
X163340058Y-98379027D02*
X163434578Y-98543405D01*
X163434578Y-98543405D02*
X163550822Y-98745208D01*
X163550822Y-98745208D02*
X163686458Y-98980391D01*
X163686458Y-98980391D02*
X163839152Y-99244909D01*
X163839152Y-99244909D02*
X164006572Y-99534716D01*
X164006572Y-99534716D02*
X164186387Y-99845767D01*
X164186387Y-99845767D02*
X164376265Y-100174016D01*
X164376265Y-100174016D02*
X164448536Y-100298903D01*
X164448536Y-100298903D02*
X164641833Y-100633026D01*
X164641833Y-100633026D02*
X164826123Y-100951853D01*
X164826123Y-100951853D02*
X164999050Y-101251291D01*
X164999050Y-101251291D02*
X165158257Y-101527248D01*
X165158257Y-101527248D02*
X165301390Y-101775630D01*
X165301390Y-101775630D02*
X165426090Y-101992347D01*
X165426090Y-101992347D02*
X165530004Y-102173304D01*
X165530004Y-102173304D02*
X165610773Y-102314409D01*
X165610773Y-102314409D02*
X165666043Y-102411570D01*
X165666043Y-102411570D02*
X165693456Y-102460693D01*
X165693456Y-102460693D02*
X165696052Y-102465830D01*
X165696052Y-102465830D02*
X165719559Y-102450862D01*
X165719559Y-102450862D02*
X165782409Y-102398773D01*
X165782409Y-102398773D02*
X165878812Y-102314883D01*
X165878812Y-102314883D02*
X166002980Y-102204508D01*
X166002980Y-102204508D02*
X166149121Y-102072966D01*
X166149121Y-102072966D02*
X166311447Y-101925576D01*
X166311447Y-101925576D02*
X166484168Y-101767655D01*
X166484168Y-101767655D02*
X166661494Y-101604521D01*
X166661494Y-101604521D02*
X166837635Y-101441492D01*
X166837635Y-101441492D02*
X167006802Y-101283886D01*
X167006802Y-101283886D02*
X167163205Y-101137021D01*
X167163205Y-101137021D02*
X167301055Y-101006214D01*
X167301055Y-101006214D02*
X167414561Y-100896784D01*
X167414561Y-100896784D02*
X167497935Y-100814047D01*
X167497935Y-100814047D02*
X167525274Y-100785672D01*
X167525274Y-100785672D02*
X167613597Y-100691641D01*
X167613597Y-100691641D02*
X167540762Y-100644944D01*
X167540762Y-100644944D02*
X167540762Y-100644944D01*
G36*
X163218337Y-98152150D02*
G01*
X163265339Y-98174986D01*
X163340427Y-98216987D01*
X163384872Y-98242752D01*
X163479653Y-98297545D01*
X163619245Y-98378174D01*
X163799111Y-98482019D01*
X164014716Y-98606462D01*
X164261520Y-98748886D01*
X164534988Y-98906670D01*
X164830582Y-99077197D01*
X165143765Y-99257848D01*
X165470000Y-99446005D01*
X165789354Y-99630243D01*
X166099626Y-99809360D01*
X166391176Y-99977787D01*
X166659633Y-100132994D01*
X166900630Y-100272451D01*
X167109796Y-100393628D01*
X167282762Y-100493996D01*
X167415157Y-100571025D01*
X167502614Y-100622184D01*
X167540762Y-100644944D01*
X167613597Y-100691641D01*
X167525274Y-100785672D01*
X167497935Y-100814047D01*
X167414561Y-100896784D01*
X167301055Y-101006214D01*
X167163205Y-101137021D01*
X167006802Y-101283886D01*
X166837635Y-101441492D01*
X166661494Y-101604521D01*
X166484168Y-101767655D01*
X166311447Y-101925576D01*
X166149121Y-102072966D01*
X166002980Y-102204508D01*
X165878812Y-102314883D01*
X165782409Y-102398773D01*
X165719559Y-102450862D01*
X165696052Y-102465830D01*
X165693456Y-102460693D01*
X165666043Y-102411570D01*
X165610773Y-102314409D01*
X165530004Y-102173304D01*
X165426090Y-101992347D01*
X165301390Y-101775630D01*
X165158257Y-101527248D01*
X164999050Y-101251291D01*
X164826123Y-100951853D01*
X164641833Y-100633026D01*
X164448536Y-100298903D01*
X164376265Y-100174016D01*
X164186387Y-99845767D01*
X164006572Y-99534716D01*
X163839152Y-99244909D01*
X163686458Y-98980391D01*
X163550822Y-98745208D01*
X163434578Y-98543405D01*
X163340058Y-98379027D01*
X163269593Y-98256119D01*
X163225516Y-98178728D01*
X163210159Y-98150898D01*
X163218337Y-98152150D01*
G37*
X163218337Y-98152150D02*
X163265339Y-98174986D01*
X163340427Y-98216987D01*
X163384872Y-98242752D01*
X163479653Y-98297545D01*
X163619245Y-98378174D01*
X163799111Y-98482019D01*
X164014716Y-98606462D01*
X164261520Y-98748886D01*
X164534988Y-98906670D01*
X164830582Y-99077197D01*
X165143765Y-99257848D01*
X165470000Y-99446005D01*
X165789354Y-99630243D01*
X166099626Y-99809360D01*
X166391176Y-99977787D01*
X166659633Y-100132994D01*
X166900630Y-100272451D01*
X167109796Y-100393628D01*
X167282762Y-100493996D01*
X167415157Y-100571025D01*
X167502614Y-100622184D01*
X167540762Y-100644944D01*
X167613597Y-100691641D01*
X167525274Y-100785672D01*
X167497935Y-100814047D01*
X167414561Y-100896784D01*
X167301055Y-101006214D01*
X167163205Y-101137021D01*
X167006802Y-101283886D01*
X166837635Y-101441492D01*
X166661494Y-101604521D01*
X166484168Y-101767655D01*
X166311447Y-101925576D01*
X166149121Y-102072966D01*
X166002980Y-102204508D01*
X165878812Y-102314883D01*
X165782409Y-102398773D01*
X165719559Y-102450862D01*
X165696052Y-102465830D01*
X165693456Y-102460693D01*
X165666043Y-102411570D01*
X165610773Y-102314409D01*
X165530004Y-102173304D01*
X165426090Y-101992347D01*
X165301390Y-101775630D01*
X165158257Y-101527248D01*
X164999050Y-101251291D01*
X164826123Y-100951853D01*
X164641833Y-100633026D01*
X164448536Y-100298903D01*
X164376265Y-100174016D01*
X164186387Y-99845767D01*
X164006572Y-99534716D01*
X163839152Y-99244909D01*
X163686458Y-98980391D01*
X163550822Y-98745208D01*
X163434578Y-98543405D01*
X163340058Y-98379027D01*
X163269593Y-98256119D01*
X163225516Y-98178728D01*
X163210159Y-98150898D01*
X163218337Y-98152150D01*
X173838329Y-104291915D02*
X173763509Y-104245871D01*
X173763509Y-104245871D02*
X173644972Y-104174933D01*
X173644972Y-104174933D02*
X173487763Y-104082009D01*
X173487763Y-104082009D02*
X173296924Y-103970008D01*
X173296924Y-103970008D02*
X173077499Y-103841838D01*
X173077499Y-103841838D02*
X172834531Y-103700408D01*
X172834531Y-103700408D02*
X172573063Y-103548627D01*
X172573063Y-103548627D02*
X172298140Y-103389403D01*
X172298140Y-103389403D02*
X172014803Y-103225644D01*
X172014803Y-103225644D02*
X171728098Y-103060260D01*
X171728098Y-103060260D02*
X171443066Y-102896158D01*
X171443066Y-102896158D02*
X171164752Y-102736248D01*
X171164752Y-102736248D02*
X170898198Y-102583438D01*
X170898198Y-102583438D02*
X170648448Y-102440637D01*
X170648448Y-102440637D02*
X170420545Y-102310753D01*
X170420545Y-102310753D02*
X170219534Y-102196695D01*
X170219534Y-102196695D02*
X170050456Y-102101371D01*
X170050456Y-102101371D02*
X169918355Y-102027690D01*
X169918355Y-102027690D02*
X169828276Y-101978561D01*
X169828276Y-101978561D02*
X169785260Y-101956892D01*
X169785260Y-101956892D02*
X169782571Y-101956098D01*
X169782571Y-101956098D02*
X169746070Y-101982998D01*
X169746070Y-101982998D02*
X169690236Y-102057773D01*
X169690236Y-102057773D02*
X169620550Y-102171530D01*
X169620550Y-102171530D02*
X169542491Y-102315377D01*
X169542491Y-102315377D02*
X169468313Y-102465971D01*
X169468313Y-102465971D02*
X169378365Y-102670881D01*
X169378365Y-102670881D02*
X169297547Y-102886367D01*
X169297547Y-102886367D02*
X169224062Y-103119854D01*
X169224062Y-103119854D02*
X169156116Y-103378764D01*
X169156116Y-103378764D02*
X169091912Y-103670521D01*
X169091912Y-103670521D02*
X169029654Y-104002549D01*
X169029654Y-104002549D02*
X168967546Y-104382269D01*
X168967546Y-104382269D02*
X168909710Y-104775063D01*
X168909710Y-104775063D02*
X168858400Y-105116332D01*
X168858400Y-105116332D02*
X168807603Y-105402910D01*
X168807603Y-105402910D02*
X168754796Y-105641985D01*
X168754796Y-105641985D02*
X168697454Y-105840741D01*
X168697454Y-105840741D02*
X168633053Y-106006365D01*
X168633053Y-106006365D02*
X168559069Y-106146044D01*
X168559069Y-106146044D02*
X168472976Y-106266964D01*
X168472976Y-106266964D02*
X168372250Y-106376311D01*
X168372250Y-106376311D02*
X168334833Y-106411572D01*
X168334833Y-106411572D02*
X168247721Y-106488000D01*
X168247721Y-106488000D02*
X168176636Y-106544537D01*
X168176636Y-106544537D02*
X168134833Y-106570765D01*
X168134833Y-106570765D02*
X168131406Y-106571464D01*
X168131406Y-106571464D02*
X168110388Y-106580640D01*
X168110388Y-106580640D02*
X168110151Y-106612485D01*
X168110151Y-106612485D02*
X168133491Y-106673469D01*
X168133491Y-106673469D02*
X168183207Y-106770065D01*
X168183207Y-106770065D02*
X168262095Y-106908746D01*
X168262095Y-106908746D02*
X168318825Y-107005122D01*
X168318825Y-107005122D02*
X168407506Y-107148834D01*
X168407506Y-107148834D02*
X168483441Y-107260517D01*
X168483441Y-107260517D02*
X168541168Y-107332666D01*
X168541168Y-107332666D02*
X168575224Y-107357774D01*
X168575224Y-107357774D02*
X168575471Y-107357759D01*
X168575471Y-107357759D02*
X168607925Y-107342189D01*
X168607925Y-107342189D02*
X168689200Y-107298217D01*
X168689200Y-107298217D02*
X168814866Y-107228395D01*
X168814866Y-107228395D02*
X168980495Y-107135275D01*
X168980495Y-107135275D02*
X169181656Y-107021411D01*
X169181656Y-107021411D02*
X169413920Y-106889354D01*
X169413920Y-106889354D02*
X169672857Y-106741657D01*
X169672857Y-106741657D02*
X169954039Y-106580872D01*
X169954039Y-106580872D02*
X170253035Y-106409552D01*
X170253035Y-106409552D02*
X170565416Y-106230249D01*
X170565416Y-106230249D02*
X170886752Y-106045515D01*
X170886752Y-106045515D02*
X171212614Y-105857902D01*
X171212614Y-105857902D02*
X171538573Y-105669964D01*
X171538573Y-105669964D02*
X171860199Y-105484253D01*
X171860199Y-105484253D02*
X172173063Y-105303320D01*
X172173063Y-105303320D02*
X172472734Y-105129719D01*
X172472734Y-105129719D02*
X172754784Y-104966001D01*
X172754784Y-104966001D02*
X173014782Y-104814719D01*
X173014782Y-104814719D02*
X173248301Y-104678426D01*
X173248301Y-104678426D02*
X173450909Y-104559674D01*
X173450909Y-104559674D02*
X173618177Y-104461015D01*
X173618177Y-104461015D02*
X173745676Y-104385001D01*
X173745676Y-104385001D02*
X173828977Y-104334186D01*
X173828977Y-104334186D02*
X173863650Y-104311121D01*
X173863650Y-104311121D02*
X173864390Y-104310155D01*
X173864390Y-104310155D02*
X173838329Y-104291915D01*
X173838329Y-104291915D02*
X173838329Y-104291915D01*
G36*
X169785260Y-101956892D02*
G01*
X169828276Y-101978561D01*
X169918355Y-102027690D01*
X170050456Y-102101371D01*
X170219534Y-102196695D01*
X170420545Y-102310753D01*
X170648448Y-102440637D01*
X170898198Y-102583438D01*
X171164752Y-102736248D01*
X171443066Y-102896158D01*
X171728098Y-103060260D01*
X172014803Y-103225644D01*
X172298140Y-103389403D01*
X172573063Y-103548627D01*
X172834531Y-103700408D01*
X173077499Y-103841838D01*
X173296924Y-103970008D01*
X173487763Y-104082009D01*
X173644972Y-104174933D01*
X173763509Y-104245871D01*
X173838329Y-104291915D01*
X173864390Y-104310155D01*
X173863650Y-104311121D01*
X173828977Y-104334186D01*
X173745676Y-104385001D01*
X173618177Y-104461015D01*
X173450909Y-104559674D01*
X173248301Y-104678426D01*
X173014782Y-104814719D01*
X172754784Y-104966001D01*
X172472734Y-105129719D01*
X172173063Y-105303320D01*
X171860199Y-105484253D01*
X171538573Y-105669964D01*
X171212614Y-105857902D01*
X170886752Y-106045515D01*
X170565416Y-106230249D01*
X170253035Y-106409552D01*
X169954039Y-106580872D01*
X169672857Y-106741657D01*
X169413920Y-106889354D01*
X169181656Y-107021411D01*
X168980495Y-107135275D01*
X168814866Y-107228395D01*
X168689200Y-107298217D01*
X168607925Y-107342189D01*
X168575471Y-107357759D01*
X168575224Y-107357774D01*
X168541168Y-107332666D01*
X168483441Y-107260517D01*
X168407506Y-107148834D01*
X168318825Y-107005122D01*
X168262095Y-106908746D01*
X168183207Y-106770065D01*
X168133491Y-106673469D01*
X168110151Y-106612485D01*
X168110388Y-106580640D01*
X168131406Y-106571464D01*
X168134833Y-106570765D01*
X168176636Y-106544537D01*
X168247721Y-106488000D01*
X168334833Y-106411572D01*
X168372250Y-106376311D01*
X168472976Y-106266964D01*
X168559069Y-106146044D01*
X168633053Y-106006365D01*
X168697454Y-105840741D01*
X168754796Y-105641985D01*
X168807603Y-105402910D01*
X168858400Y-105116332D01*
X168909710Y-104775063D01*
X168967546Y-104382269D01*
X169029654Y-104002549D01*
X169091912Y-103670521D01*
X169156116Y-103378764D01*
X169224062Y-103119854D01*
X169297547Y-102886367D01*
X169378365Y-102670881D01*
X169468313Y-102465971D01*
X169542491Y-102315377D01*
X169620550Y-102171530D01*
X169690236Y-102057773D01*
X169746070Y-101982998D01*
X169782571Y-101956098D01*
X169785260Y-101956892D01*
G37*
X169785260Y-101956892D02*
X169828276Y-101978561D01*
X169918355Y-102027690D01*
X170050456Y-102101371D01*
X170219534Y-102196695D01*
X170420545Y-102310753D01*
X170648448Y-102440637D01*
X170898198Y-102583438D01*
X171164752Y-102736248D01*
X171443066Y-102896158D01*
X171728098Y-103060260D01*
X172014803Y-103225644D01*
X172298140Y-103389403D01*
X172573063Y-103548627D01*
X172834531Y-103700408D01*
X173077499Y-103841838D01*
X173296924Y-103970008D01*
X173487763Y-104082009D01*
X173644972Y-104174933D01*
X173763509Y-104245871D01*
X173838329Y-104291915D01*
X173864390Y-104310155D01*
X173863650Y-104311121D01*
X173828977Y-104334186D01*
X173745676Y-104385001D01*
X173618177Y-104461015D01*
X173450909Y-104559674D01*
X173248301Y-104678426D01*
X173014782Y-104814719D01*
X172754784Y-104966001D01*
X172472734Y-105129719D01*
X172173063Y-105303320D01*
X171860199Y-105484253D01*
X171538573Y-105669964D01*
X171212614Y-105857902D01*
X170886752Y-106045515D01*
X170565416Y-106230249D01*
X170253035Y-106409552D01*
X169954039Y-106580872D01*
X169672857Y-106741657D01*
X169413920Y-106889354D01*
X169181656Y-107021411D01*
X168980495Y-107135275D01*
X168814866Y-107228395D01*
X168689200Y-107298217D01*
X168607925Y-107342189D01*
X168575471Y-107357759D01*
X168575224Y-107357774D01*
X168541168Y-107332666D01*
X168483441Y-107260517D01*
X168407506Y-107148834D01*
X168318825Y-107005122D01*
X168262095Y-106908746D01*
X168183207Y-106770065D01*
X168133491Y-106673469D01*
X168110151Y-106612485D01*
X168110388Y-106580640D01*
X168131406Y-106571464D01*
X168134833Y-106570765D01*
X168176636Y-106544537D01*
X168247721Y-106488000D01*
X168334833Y-106411572D01*
X168372250Y-106376311D01*
X168472976Y-106266964D01*
X168559069Y-106146044D01*
X168633053Y-106006365D01*
X168697454Y-105840741D01*
X168754796Y-105641985D01*
X168807603Y-105402910D01*
X168858400Y-105116332D01*
X168909710Y-104775063D01*
X168967546Y-104382269D01*
X169029654Y-104002549D01*
X169091912Y-103670521D01*
X169156116Y-103378764D01*
X169224062Y-103119854D01*
X169297547Y-102886367D01*
X169378365Y-102670881D01*
X169468313Y-102465971D01*
X169542491Y-102315377D01*
X169620550Y-102171530D01*
X169690236Y-102057773D01*
X169746070Y-101982998D01*
X169782571Y-101956098D01*
X169785260Y-101956892D01*
X136670160Y-101064876D02*
X136593347Y-101060421D01*
X136593347Y-101060421D02*
X136476609Y-101056929D01*
X136476609Y-101056929D02*
X136329179Y-101054685D01*
X136329179Y-101054685D02*
X136174545Y-101053965D01*
X136174545Y-101053965D02*
X135651273Y-101053965D01*
X135651273Y-101053965D02*
X135558883Y-101146355D01*
X135558883Y-101146355D02*
X135501953Y-101210022D01*
X135501953Y-101210022D02*
X135478893Y-101265911D01*
X135478893Y-101265911D02*
X135480353Y-101342298D01*
X135480353Y-101342298D02*
X135484066Y-101372620D01*
X135484066Y-101372620D02*
X135494874Y-101467390D01*
X135494874Y-101467390D02*
X135501067Y-101545778D01*
X135501067Y-101545778D02*
X135501639Y-101564885D01*
X135501639Y-101564885D02*
X135497898Y-101629301D01*
X135497898Y-101629301D02*
X135488506Y-101721429D01*
X135488506Y-101721429D02*
X135484066Y-101757150D01*
X135484066Y-101757150D02*
X135477199Y-101844886D01*
X135477199Y-101844886D02*
X135492115Y-101903847D01*
X135492115Y-101903847D02*
X135538165Y-101962310D01*
X135538165Y-101962310D02*
X135558883Y-101983415D01*
X135558883Y-101983415D02*
X135651273Y-102075805D01*
X135651273Y-102075805D02*
X136630053Y-102075805D01*
X136630053Y-102075805D02*
X136663934Y-102001442D01*
X136663934Y-102001442D02*
X136689030Y-101937410D01*
X136689030Y-101937410D02*
X136697816Y-101899948D01*
X136697816Y-101899948D02*
X136670050Y-101890343D01*
X136670050Y-101890343D02*
X136592470Y-101881365D01*
X136592470Y-101881365D02*
X136473652Y-101873614D01*
X136473652Y-101873614D02*
X136322172Y-101867686D01*
X136322172Y-101867686D02*
X136194195Y-101864827D01*
X136194195Y-101864827D02*
X135690575Y-101856839D01*
X135690575Y-101856839D02*
X135680722Y-101787152D01*
X135680722Y-101787152D02*
X135687611Y-101723771D01*
X135687611Y-101723771D02*
X135709917Y-101692714D01*
X135709917Y-101692714D02*
X135751621Y-101684033D01*
X135751621Y-101684033D02*
X135840456Y-101676622D01*
X135840456Y-101676622D02*
X135965166Y-101671069D01*
X135965166Y-101671069D02*
X136114493Y-101667964D01*
X136114493Y-101667964D02*
X136191339Y-101667516D01*
X136191339Y-101667516D02*
X136633713Y-101667069D01*
X136633713Y-101667069D02*
X136665765Y-101575126D01*
X136665765Y-101575126D02*
X136687557Y-101510051D01*
X136687557Y-101510051D02*
X136697719Y-101474653D01*
X136697719Y-101474653D02*
X136697816Y-101473632D01*
X136697816Y-101473632D02*
X136670191Y-101470080D01*
X136670191Y-101470080D02*
X136593589Y-101466177D01*
X136593589Y-101466177D02*
X136477421Y-101462249D01*
X136477421Y-101462249D02*
X136331096Y-101458624D01*
X136331096Y-101458624D02*
X136194195Y-101456092D01*
X136194195Y-101456092D02*
X135690575Y-101448103D01*
X135690575Y-101448103D02*
X135690575Y-101272931D01*
X135690575Y-101272931D02*
X136150035Y-101264893D01*
X136150035Y-101264893D02*
X136609495Y-101256854D01*
X136609495Y-101256854D02*
X136653656Y-101171457D01*
X136653656Y-101171457D02*
X136683981Y-101108407D01*
X136683981Y-101108407D02*
X136697742Y-101071090D01*
X136697742Y-101071090D02*
X136697816Y-101070013D01*
X136697816Y-101070013D02*
X136670160Y-101064876D01*
X136670160Y-101064876D02*
X136670160Y-101064876D01*
G36*
X136329179Y-101054685D02*
G01*
X136476609Y-101056929D01*
X136593347Y-101060421D01*
X136670160Y-101064876D01*
X136697816Y-101070013D01*
X136697742Y-101071090D01*
X136683981Y-101108407D01*
X136653656Y-101171457D01*
X136609495Y-101256854D01*
X136150035Y-101264893D01*
X135690575Y-101272931D01*
X135690575Y-101448103D01*
X136194195Y-101456092D01*
X136331096Y-101458624D01*
X136477421Y-101462249D01*
X136593589Y-101466177D01*
X136670191Y-101470080D01*
X136697816Y-101473632D01*
X136697719Y-101474653D01*
X136687557Y-101510051D01*
X136665765Y-101575126D01*
X136633713Y-101667069D01*
X136191339Y-101667516D01*
X136114493Y-101667964D01*
X135965166Y-101671069D01*
X135840456Y-101676622D01*
X135751621Y-101684033D01*
X135709917Y-101692714D01*
X135687611Y-101723771D01*
X135680722Y-101787152D01*
X135690575Y-101856839D01*
X136194195Y-101864827D01*
X136322172Y-101867686D01*
X136473652Y-101873614D01*
X136592470Y-101881365D01*
X136670050Y-101890343D01*
X136697816Y-101899948D01*
X136689030Y-101937410D01*
X136663934Y-102001442D01*
X136630053Y-102075805D01*
X135651273Y-102075805D01*
X135558883Y-101983415D01*
X135538165Y-101962310D01*
X135492115Y-101903847D01*
X135477199Y-101844886D01*
X135484066Y-101757150D01*
X135488506Y-101721429D01*
X135497898Y-101629301D01*
X135501639Y-101564885D01*
X135501067Y-101545778D01*
X135494874Y-101467390D01*
X135484066Y-101372620D01*
X135480353Y-101342298D01*
X135478893Y-101265911D01*
X135501953Y-101210022D01*
X135558883Y-101146355D01*
X135651273Y-101053965D01*
X136174545Y-101053965D01*
X136329179Y-101054685D01*
G37*
X136329179Y-101054685D02*
X136476609Y-101056929D01*
X136593347Y-101060421D01*
X136670160Y-101064876D01*
X136697816Y-101070013D01*
X136697742Y-101071090D01*
X136683981Y-101108407D01*
X136653656Y-101171457D01*
X136609495Y-101256854D01*
X136150035Y-101264893D01*
X135690575Y-101272931D01*
X135690575Y-101448103D01*
X136194195Y-101456092D01*
X136331096Y-101458624D01*
X136477421Y-101462249D01*
X136593589Y-101466177D01*
X136670191Y-101470080D01*
X136697816Y-101473632D01*
X136697719Y-101474653D01*
X136687557Y-101510051D01*
X136665765Y-101575126D01*
X136633713Y-101667069D01*
X136191339Y-101667516D01*
X136114493Y-101667964D01*
X135965166Y-101671069D01*
X135840456Y-101676622D01*
X135751621Y-101684033D01*
X135709917Y-101692714D01*
X135687611Y-101723771D01*
X135680722Y-101787152D01*
X135690575Y-101856839D01*
X136194195Y-101864827D01*
X136322172Y-101867686D01*
X136473652Y-101873614D01*
X136592470Y-101881365D01*
X136670050Y-101890343D01*
X136697816Y-101899948D01*
X136689030Y-101937410D01*
X136663934Y-102001442D01*
X136630053Y-102075805D01*
X135651273Y-102075805D01*
X135558883Y-101983415D01*
X135538165Y-101962310D01*
X135492115Y-101903847D01*
X135477199Y-101844886D01*
X135484066Y-101757150D01*
X135488506Y-101721429D01*
X135497898Y-101629301D01*
X135501639Y-101564885D01*
X135501067Y-101545778D01*
X135494874Y-101467390D01*
X135484066Y-101372620D01*
X135480353Y-101342298D01*
X135478893Y-101265911D01*
X135501953Y-101210022D01*
X135558883Y-101146355D01*
X135651273Y-101053965D01*
X136174545Y-101053965D01*
X136329179Y-101054685D01*
X136674844Y-100330594D02*
X136636607Y-100246531D01*
X136636607Y-100246531D02*
X136590274Y-100180550D01*
X136590274Y-100180550D02*
X136538468Y-100132206D01*
X136538468Y-100132206D02*
X136471637Y-100098828D01*
X136471637Y-100098828D02*
X136380231Y-100077747D01*
X136380231Y-100077747D02*
X136254699Y-100066293D01*
X136254699Y-100066293D02*
X136085492Y-100061797D01*
X136085492Y-100061797D02*
X135974067Y-100061322D01*
X135974067Y-100061322D02*
X135539373Y-100061322D01*
X135539373Y-100061322D02*
X135505491Y-100135684D01*
X135505491Y-100135684D02*
X135480728Y-100194254D01*
X135480728Y-100194254D02*
X135471609Y-100223270D01*
X135471609Y-100223270D02*
X135498743Y-100228821D01*
X135498743Y-100228821D02*
X135571906Y-100233225D01*
X135571906Y-100233225D02*
X135678737Y-100235922D01*
X135678737Y-100235922D02*
X135763563Y-100236494D01*
X135763563Y-100236494D02*
X135886113Y-100238954D01*
X135886113Y-100238954D02*
X135983332Y-100245588D01*
X135983332Y-100245588D02*
X136042866Y-100255274D01*
X136042866Y-100255274D02*
X136055517Y-100262968D01*
X136055517Y-100262968D02*
X136042598Y-100314689D01*
X136042598Y-100314689D02*
X136009461Y-100395883D01*
X136009461Y-100395883D02*
X135964539Y-100489898D01*
X135964539Y-100489898D02*
X135916265Y-100580083D01*
X135916265Y-100580083D02*
X135873072Y-100649785D01*
X135873072Y-100649785D02*
X135843392Y-100682352D01*
X135843392Y-100682352D02*
X135843071Y-100682481D01*
X135843071Y-100682481D02*
X135788143Y-100679680D01*
X135788143Y-100679680D02*
X135735708Y-100654561D01*
X135735708Y-100654561D02*
X135693119Y-100610459D01*
X135693119Y-100610459D02*
X135678874Y-100546091D01*
X135678874Y-100546091D02*
X135680534Y-100491079D01*
X135680534Y-100491079D02*
X135681755Y-100413165D01*
X135681755Y-100413165D02*
X135663502Y-100372268D01*
X135663502Y-100372268D02*
X135615274Y-100347705D01*
X135615274Y-100347705D02*
X135606180Y-100344608D01*
X135606180Y-100344608D02*
X135537402Y-100333960D01*
X135537402Y-100333960D02*
X135495640Y-100362435D01*
X135495640Y-100362435D02*
X135475737Y-100436656D01*
X135475737Y-100436656D02*
X135472056Y-100516832D01*
X135472056Y-100516832D02*
X135499342Y-100661110D01*
X135499342Y-100661110D02*
X135538310Y-100735797D01*
X135538310Y-100735797D02*
X135629852Y-100828037D01*
X135629852Y-100828037D02*
X135742218Y-100876957D01*
X135742218Y-100876957D02*
X135860949Y-100881346D01*
X135860949Y-100881346D02*
X135971589Y-100839999D01*
X135971589Y-100839999D02*
X136040920Y-100777803D01*
X136040920Y-100777803D02*
X136079735Y-100715706D01*
X136079735Y-100715706D02*
X136128875Y-100618105D01*
X136128875Y-100618105D02*
X136178708Y-100504368D01*
X136178708Y-100504368D02*
X136186323Y-100485410D01*
X136186323Y-100485410D02*
X136241455Y-100360479D01*
X136241455Y-100360479D02*
X136290046Y-100288461D01*
X136290046Y-100288461D02*
X136338353Y-100265300D01*
X136338353Y-100265300D02*
X136392630Y-100286936D01*
X136392630Y-100286936D02*
X136435057Y-100324080D01*
X136435057Y-100324080D02*
X136487298Y-100411873D01*
X136487298Y-100411873D02*
X136491216Y-100508470D01*
X136491216Y-100508470D02*
X136450959Y-100597056D01*
X136450959Y-100597056D02*
X136370674Y-100660814D01*
X136370674Y-100660814D02*
X136349960Y-100669183D01*
X136349960Y-100669183D02*
X136273775Y-100717904D01*
X136273775Y-100717904D02*
X136217215Y-100789035D01*
X136217215Y-100789035D02*
X136170799Y-100878793D01*
X136170799Y-100878793D02*
X136302416Y-100878793D01*
X136302416Y-100878793D02*
X136382832Y-100873510D01*
X136382832Y-100873510D02*
X136446214Y-100850858D01*
X136446214Y-100850858D02*
X136513837Y-100800633D01*
X136513837Y-100800633D02*
X136565924Y-100752418D01*
X136565924Y-100752418D02*
X136639678Y-100677446D01*
X136639678Y-100677446D02*
X136679298Y-100619194D01*
X136679298Y-100619194D02*
X136695190Y-100556628D01*
X136695190Y-100556628D02*
X136697816Y-100485807D01*
X136697816Y-100485807D02*
X136674844Y-100330594D01*
X136674844Y-100330594D02*
X136674844Y-100330594D01*
G36*
X136085492Y-100061797D02*
G01*
X136254699Y-100066293D01*
X136380231Y-100077747D01*
X136471637Y-100098828D01*
X136538468Y-100132206D01*
X136590274Y-100180550D01*
X136636607Y-100246531D01*
X136674844Y-100330594D01*
X136697816Y-100485807D01*
X136695190Y-100556628D01*
X136679298Y-100619194D01*
X136639678Y-100677446D01*
X136565924Y-100752418D01*
X136513837Y-100800633D01*
X136446214Y-100850858D01*
X136382832Y-100873510D01*
X136302416Y-100878793D01*
X136170799Y-100878793D01*
X136217215Y-100789035D01*
X136273775Y-100717904D01*
X136349960Y-100669183D01*
X136370674Y-100660814D01*
X136450959Y-100597056D01*
X136491216Y-100508470D01*
X136487298Y-100411873D01*
X136435057Y-100324080D01*
X136392630Y-100286936D01*
X136338353Y-100265300D01*
X136290046Y-100288461D01*
X136241455Y-100360479D01*
X136186323Y-100485410D01*
X136178708Y-100504368D01*
X136128875Y-100618105D01*
X136079735Y-100715706D01*
X136040920Y-100777803D01*
X135971589Y-100839999D01*
X135860949Y-100881346D01*
X135742218Y-100876957D01*
X135629852Y-100828037D01*
X135538310Y-100735797D01*
X135499342Y-100661110D01*
X135472056Y-100516832D01*
X135475737Y-100436656D01*
X135495640Y-100362435D01*
X135537402Y-100333960D01*
X135606180Y-100344608D01*
X135615274Y-100347705D01*
X135663502Y-100372268D01*
X135681755Y-100413165D01*
X135680534Y-100491079D01*
X135678874Y-100546091D01*
X135693119Y-100610459D01*
X135735708Y-100654561D01*
X135788143Y-100679680D01*
X135843071Y-100682481D01*
X135843392Y-100682352D01*
X135873072Y-100649785D01*
X135916265Y-100580083D01*
X135964539Y-100489898D01*
X136009461Y-100395883D01*
X136042598Y-100314689D01*
X136055517Y-100262968D01*
X136042866Y-100255274D01*
X135983332Y-100245588D01*
X135886113Y-100238954D01*
X135763563Y-100236494D01*
X135678737Y-100235922D01*
X135571906Y-100233225D01*
X135498743Y-100228821D01*
X135471609Y-100223270D01*
X135480728Y-100194254D01*
X135505491Y-100135684D01*
X135539373Y-100061322D01*
X135974067Y-100061322D01*
X136085492Y-100061797D01*
G37*
X136085492Y-100061797D02*
X136254699Y-100066293D01*
X136380231Y-100077747D01*
X136471637Y-100098828D01*
X136538468Y-100132206D01*
X136590274Y-100180550D01*
X136636607Y-100246531D01*
X136674844Y-100330594D01*
X136697816Y-100485807D01*
X136695190Y-100556628D01*
X136679298Y-100619194D01*
X136639678Y-100677446D01*
X136565924Y-100752418D01*
X136513837Y-100800633D01*
X136446214Y-100850858D01*
X136382832Y-100873510D01*
X136302416Y-100878793D01*
X136170799Y-100878793D01*
X136217215Y-100789035D01*
X136273775Y-100717904D01*
X136349960Y-100669183D01*
X136370674Y-100660814D01*
X136450959Y-100597056D01*
X136491216Y-100508470D01*
X136487298Y-100411873D01*
X136435057Y-100324080D01*
X136392630Y-100286936D01*
X136338353Y-100265300D01*
X136290046Y-100288461D01*
X136241455Y-100360479D01*
X136186323Y-100485410D01*
X136178708Y-100504368D01*
X136128875Y-100618105D01*
X136079735Y-100715706D01*
X136040920Y-100777803D01*
X135971589Y-100839999D01*
X135860949Y-100881346D01*
X135742218Y-100876957D01*
X135629852Y-100828037D01*
X135538310Y-100735797D01*
X135499342Y-100661110D01*
X135472056Y-100516832D01*
X135475737Y-100436656D01*
X135495640Y-100362435D01*
X135537402Y-100333960D01*
X135606180Y-100344608D01*
X135615274Y-100347705D01*
X135663502Y-100372268D01*
X135681755Y-100413165D01*
X135680534Y-100491079D01*
X135678874Y-100546091D01*
X135693119Y-100610459D01*
X135735708Y-100654561D01*
X135788143Y-100679680D01*
X135843071Y-100682481D01*
X135843392Y-100682352D01*
X135873072Y-100649785D01*
X135916265Y-100580083D01*
X135964539Y-100489898D01*
X136009461Y-100395883D01*
X136042598Y-100314689D01*
X136055517Y-100262968D01*
X136042866Y-100255274D01*
X135983332Y-100245588D01*
X135886113Y-100238954D01*
X135763563Y-100236494D01*
X135678737Y-100235922D01*
X135571906Y-100233225D01*
X135498743Y-100228821D01*
X135471609Y-100223270D01*
X135480728Y-100194254D01*
X135505491Y-100135684D01*
X135539373Y-100061322D01*
X135974067Y-100061322D01*
X136085492Y-100061797D01*
X136748097Y-109473100D02*
X136692478Y-109361550D01*
X136692478Y-109361550D02*
X136590069Y-109263092D01*
X136590069Y-109263092D02*
X136552136Y-109235977D01*
X136552136Y-109235977D02*
X136502500Y-109206438D01*
X136502500Y-109206438D02*
X136448588Y-109187272D01*
X136448588Y-109187272D02*
X136376636Y-109176307D01*
X136376636Y-109176307D02*
X136272878Y-109171371D01*
X136272878Y-109171371D02*
X136135899Y-109170287D01*
X136135899Y-109170287D02*
X135948185Y-109175182D01*
X135948185Y-109175182D02*
X135807242Y-109192196D01*
X135807242Y-109192196D02*
X135702092Y-109224823D01*
X135702092Y-109224823D02*
X135621757Y-109276558D01*
X135621757Y-109276558D02*
X135555259Y-109350896D01*
X135555259Y-109350896D02*
X135551322Y-109356358D01*
X135551322Y-109356358D02*
X135511047Y-109429620D01*
X135511047Y-109429620D02*
X135491120Y-109517840D01*
X135491120Y-109517840D02*
X135486207Y-109630038D01*
X135486207Y-109630038D02*
X135486207Y-109812433D01*
X135486207Y-109812433D02*
X135309143Y-109812509D01*
X135309143Y-109812509D02*
X135210530Y-109814207D01*
X135210530Y-109814207D02*
X135152686Y-109824550D01*
X135152686Y-109824550D02*
X135117994Y-109851578D01*
X135117994Y-109851578D02*
X135088836Y-109903332D01*
X135088836Y-109903332D02*
X135082879Y-109915761D01*
X135082879Y-109915761D02*
X135054961Y-109973923D01*
X135054961Y-109973923D02*
X135037328Y-110018956D01*
X135037328Y-110018956D02*
X135035806Y-110052441D01*
X135035806Y-110052441D02*
X135056219Y-110075962D01*
X135056219Y-110075962D02*
X135104393Y-110091100D01*
X135104393Y-110091100D02*
X135186154Y-110099437D01*
X135186154Y-110099437D02*
X135307328Y-110102556D01*
X135307328Y-110102556D02*
X135473740Y-110102040D01*
X135473740Y-110102040D02*
X135691215Y-110099471D01*
X135691215Y-110099471D02*
X135756264Y-110098668D01*
X135756264Y-110098668D02*
X135980498Y-110095778D01*
X135980498Y-110095778D02*
X136127179Y-110093188D01*
X136127179Y-110093188D02*
X136127179Y-109812586D01*
X136127179Y-109812586D02*
X136002674Y-109811009D01*
X136002674Y-109811009D02*
X135921213Y-109804000D01*
X135921213Y-109804000D02*
X135867485Y-109788142D01*
X135867485Y-109788142D02*
X135826177Y-109760019D01*
X135826177Y-109760019D02*
X135806029Y-109740925D01*
X135806029Y-109740925D02*
X135747079Y-109662865D01*
X135747079Y-109662865D02*
X135742280Y-109593753D01*
X135742280Y-109593753D02*
X135790962Y-109522440D01*
X135790962Y-109522440D02*
X135792759Y-109520632D01*
X135792759Y-109520632D02*
X135830382Y-109491617D01*
X135830382Y-109491617D02*
X135881516Y-109473967D01*
X135881516Y-109473967D02*
X135960262Y-109465064D01*
X135960262Y-109465064D02*
X136080724Y-109462291D01*
X136080724Y-109462291D02*
X136107412Y-109462241D01*
X136107412Y-109462241D02*
X136273417Y-109468942D01*
X136273417Y-109468942D02*
X136388495Y-109490752D01*
X136388495Y-109490752D02*
X136458746Y-109530235D01*
X136458746Y-109530235D02*
X136490271Y-109589956D01*
X136490271Y-109589956D02*
X136493448Y-109624472D01*
X136493448Y-109624472D02*
X136478540Y-109706389D01*
X136478540Y-109706389D02*
X136429452Y-109762579D01*
X136429452Y-109762579D02*
X136339638Y-109796402D01*
X136339638Y-109796402D02*
X136202555Y-109811220D01*
X136202555Y-109811220D02*
X136127179Y-109812586D01*
X136127179Y-109812586D02*
X136127179Y-110093188D01*
X136127179Y-110093188D02*
X136154048Y-110092713D01*
X136154048Y-110092713D02*
X136284618Y-110088753D01*
X136284618Y-110088753D02*
X136379913Y-110083174D01*
X136379913Y-110083174D02*
X136447636Y-110075254D01*
X136447636Y-110075254D02*
X136495493Y-110064269D01*
X136495493Y-110064269D02*
X136531187Y-110049499D01*
X136531187Y-110049499D02*
X136562422Y-110030218D01*
X136562422Y-110030218D02*
X136574176Y-110021951D01*
X136574176Y-110021951D02*
X136685203Y-109912288D01*
X136685203Y-109912288D02*
X136748153Y-109773635D01*
X136748153Y-109773635D02*
X136765703Y-109613246D01*
X136765703Y-109613246D02*
X136748097Y-109473100D01*
X136748097Y-109473100D02*
X136748097Y-109473100D01*
G36*
X135980498Y-110095778D02*
G01*
X135756264Y-110098668D01*
X135691215Y-110099471D01*
X135473740Y-110102040D01*
X135307328Y-110102556D01*
X135186154Y-110099437D01*
X135104393Y-110091100D01*
X135056219Y-110075962D01*
X135035806Y-110052441D01*
X135037328Y-110018956D01*
X135054961Y-109973923D01*
X135082879Y-109915761D01*
X135088836Y-109903332D01*
X135117994Y-109851578D01*
X135152686Y-109824550D01*
X135210530Y-109814207D01*
X135309143Y-109812509D01*
X135486207Y-109812433D01*
X135486207Y-109630038D01*
X135487796Y-109593753D01*
X135742280Y-109593753D01*
X135747079Y-109662865D01*
X135806029Y-109740925D01*
X135826177Y-109760019D01*
X135867485Y-109788142D01*
X135921213Y-109804000D01*
X136002674Y-109811009D01*
X136127179Y-109812586D01*
X136202555Y-109811220D01*
X136339638Y-109796402D01*
X136429452Y-109762579D01*
X136478540Y-109706389D01*
X136493448Y-109624472D01*
X136490271Y-109589956D01*
X136458746Y-109530235D01*
X136388495Y-109490752D01*
X136273417Y-109468942D01*
X136107412Y-109462241D01*
X136080724Y-109462291D01*
X135960262Y-109465064D01*
X135881516Y-109473967D01*
X135830382Y-109491617D01*
X135792759Y-109520632D01*
X135790962Y-109522440D01*
X135742280Y-109593753D01*
X135487796Y-109593753D01*
X135491120Y-109517840D01*
X135511047Y-109429620D01*
X135551322Y-109356358D01*
X135555259Y-109350896D01*
X135621757Y-109276558D01*
X135702092Y-109224823D01*
X135807242Y-109192196D01*
X135948185Y-109175182D01*
X136135899Y-109170287D01*
X136272878Y-109171371D01*
X136376636Y-109176307D01*
X136448588Y-109187272D01*
X136502500Y-109206438D01*
X136552136Y-109235977D01*
X136590069Y-109263092D01*
X136692478Y-109361550D01*
X136748097Y-109473100D01*
X136765703Y-109613246D01*
X136748153Y-109773635D01*
X136685203Y-109912288D01*
X136574176Y-110021951D01*
X136562422Y-110030218D01*
X136531187Y-110049499D01*
X136495493Y-110064269D01*
X136447636Y-110075254D01*
X136379913Y-110083174D01*
X136284618Y-110088753D01*
X136154048Y-110092713D01*
X136127179Y-110093188D01*
X135980498Y-110095778D01*
G37*
X135980498Y-110095778D02*
X135756264Y-110098668D01*
X135691215Y-110099471D01*
X135473740Y-110102040D01*
X135307328Y-110102556D01*
X135186154Y-110099437D01*
X135104393Y-110091100D01*
X135056219Y-110075962D01*
X135035806Y-110052441D01*
X135037328Y-110018956D01*
X135054961Y-109973923D01*
X135082879Y-109915761D01*
X135088836Y-109903332D01*
X135117994Y-109851578D01*
X135152686Y-109824550D01*
X135210530Y-109814207D01*
X135309143Y-109812509D01*
X135486207Y-109812433D01*
X135486207Y-109630038D01*
X135487796Y-109593753D01*
X135742280Y-109593753D01*
X135747079Y-109662865D01*
X135806029Y-109740925D01*
X135826177Y-109760019D01*
X135867485Y-109788142D01*
X135921213Y-109804000D01*
X136002674Y-109811009D01*
X136127179Y-109812586D01*
X136202555Y-109811220D01*
X136339638Y-109796402D01*
X136429452Y-109762579D01*
X136478540Y-109706389D01*
X136493448Y-109624472D01*
X136490271Y-109589956D01*
X136458746Y-109530235D01*
X136388495Y-109490752D01*
X136273417Y-109468942D01*
X136107412Y-109462241D01*
X136080724Y-109462291D01*
X135960262Y-109465064D01*
X135881516Y-109473967D01*
X135830382Y-109491617D01*
X135792759Y-109520632D01*
X135790962Y-109522440D01*
X135742280Y-109593753D01*
X135487796Y-109593753D01*
X135491120Y-109517840D01*
X135511047Y-109429620D01*
X135551322Y-109356358D01*
X135555259Y-109350896D01*
X135621757Y-109276558D01*
X135702092Y-109224823D01*
X135807242Y-109192196D01*
X135948185Y-109175182D01*
X136135899Y-109170287D01*
X136272878Y-109171371D01*
X136376636Y-109176307D01*
X136448588Y-109187272D01*
X136502500Y-109206438D01*
X136552136Y-109235977D01*
X136590069Y-109263092D01*
X136692478Y-109361550D01*
X136748097Y-109473100D01*
X136765703Y-109613246D01*
X136748153Y-109773635D01*
X136685203Y-109912288D01*
X136574176Y-110021951D01*
X136562422Y-110030218D01*
X136531187Y-110049499D01*
X136495493Y-110064269D01*
X136447636Y-110075254D01*
X136379913Y-110083174D01*
X136284618Y-110088753D01*
X136154048Y-110092713D01*
X136127179Y-110093188D01*
X135980498Y-110095778D01*
X136743985Y-110596779D02*
X136672032Y-110459939D01*
X136672032Y-110459939D02*
X136556234Y-110358949D01*
X136556234Y-110358949D02*
X136481787Y-110323075D01*
X136481787Y-110323075D02*
X136370008Y-110295161D01*
X136370008Y-110295161D02*
X136228773Y-110280871D01*
X136228773Y-110280871D02*
X136074629Y-110279516D01*
X136074629Y-110279516D02*
X135924121Y-110290405D01*
X135924121Y-110290405D02*
X135793795Y-110312847D01*
X135793795Y-110312847D02*
X135700197Y-110346150D01*
X135700197Y-110346150D02*
X135684078Y-110356385D01*
X135684078Y-110356385D02*
X135563751Y-110477618D01*
X135563751Y-110477618D02*
X135491683Y-110621613D01*
X135491683Y-110621613D02*
X135470592Y-110777861D01*
X135470592Y-110777861D02*
X135503198Y-110935852D01*
X135503198Y-110935852D02*
X135522747Y-110979820D01*
X135522747Y-110979820D02*
X135582988Y-111065444D01*
X135582988Y-111065444D02*
X135662865Y-111140592D01*
X135662865Y-111140592D02*
X135672996Y-111147694D01*
X135672996Y-111147694D02*
X135721819Y-111176561D01*
X135721819Y-111176561D02*
X135774010Y-111195643D01*
X135774010Y-111195643D02*
X135842715Y-111206916D01*
X135842715Y-111206916D02*
X135941082Y-111212355D01*
X135941082Y-111212355D02*
X136082256Y-111213938D01*
X136082256Y-111213938D02*
X136113908Y-111213965D01*
X136113908Y-111213965D02*
X136123981Y-111213893D01*
X136123981Y-111213893D02*
X136123981Y-110922011D01*
X136123981Y-110922011D02*
X135990744Y-110920313D01*
X135990744Y-110920313D02*
X135902326Y-110913628D01*
X135902326Y-110913628D02*
X135845215Y-110899575D01*
X135845215Y-110899575D02*
X135805898Y-110875771D01*
X135805898Y-110875771D02*
X135792759Y-110863621D01*
X135792759Y-110863621D02*
X135742828Y-110793764D01*
X135742828Y-110793764D02*
X135745105Y-110725941D01*
X135745105Y-110725941D02*
X135788416Y-110657365D01*
X135788416Y-110657365D02*
X135834654Y-110616465D01*
X135834654Y-110616465D02*
X135902143Y-110592242D01*
X135902143Y-110592242D02*
X136008567Y-110578639D01*
X136008567Y-110578639D02*
X136020980Y-110577706D01*
X136020980Y-110577706D02*
X136213853Y-110575384D01*
X136213853Y-110575384D02*
X136357100Y-110599650D01*
X136357100Y-110599650D02*
X136449840Y-110650176D01*
X136449840Y-110650176D02*
X136491193Y-110726632D01*
X136491193Y-110726632D02*
X136493448Y-110753924D01*
X136493448Y-110753924D02*
X136482107Y-110825589D01*
X136482107Y-110825589D02*
X136442816Y-110874610D01*
X136442816Y-110874610D02*
X136367674Y-110904582D01*
X136367674Y-110904582D02*
X136248778Y-110919101D01*
X136248778Y-110919101D02*
X136123981Y-110922011D01*
X136123981Y-110922011D02*
X136123981Y-111213893D01*
X136123981Y-111213893D02*
X136264341Y-111212878D01*
X136264341Y-111212878D02*
X136369451Y-111208312D01*
X136369451Y-111208312D02*
X136442286Y-111198312D01*
X136442286Y-111198312D02*
X136495892Y-111180921D01*
X136495892Y-111180921D02*
X136543319Y-111154184D01*
X136543319Y-111154184D02*
X136552136Y-111148276D01*
X136552136Y-111148276D02*
X136670993Y-111048968D01*
X136670993Y-111048968D02*
X136739992Y-110940758D01*
X136739992Y-110940758D02*
X136767381Y-110809019D01*
X136767381Y-110809019D02*
X136768719Y-110764283D01*
X136768719Y-110764283D02*
X136743985Y-110596779D01*
X136743985Y-110596779D02*
X136743985Y-110596779D01*
G36*
X136113908Y-111213965D02*
G01*
X136082256Y-111213938D01*
X135941082Y-111212355D01*
X135842715Y-111206916D01*
X135774010Y-111195643D01*
X135721819Y-111176561D01*
X135672996Y-111147694D01*
X135662865Y-111140592D01*
X135582988Y-111065444D01*
X135522747Y-110979820D01*
X135503198Y-110935852D01*
X135473874Y-110793764D01*
X135742828Y-110793764D01*
X135792759Y-110863621D01*
X135805898Y-110875771D01*
X135845215Y-110899575D01*
X135902326Y-110913628D01*
X135990744Y-110920313D01*
X136123981Y-110922011D01*
X136248778Y-110919101D01*
X136367674Y-110904582D01*
X136442816Y-110874610D01*
X136482107Y-110825589D01*
X136493448Y-110753924D01*
X136491193Y-110726632D01*
X136449840Y-110650176D01*
X136357100Y-110599650D01*
X136213853Y-110575384D01*
X136020980Y-110577706D01*
X136008567Y-110578639D01*
X135902143Y-110592242D01*
X135834654Y-110616465D01*
X135788416Y-110657365D01*
X135745105Y-110725941D01*
X135742828Y-110793764D01*
X135473874Y-110793764D01*
X135470592Y-110777861D01*
X135491683Y-110621613D01*
X135563751Y-110477618D01*
X135684078Y-110356385D01*
X135700197Y-110346150D01*
X135793795Y-110312847D01*
X135924121Y-110290405D01*
X136074629Y-110279516D01*
X136228773Y-110280871D01*
X136370008Y-110295161D01*
X136481787Y-110323075D01*
X136556234Y-110358949D01*
X136672032Y-110459939D01*
X136743985Y-110596779D01*
X136768719Y-110764283D01*
X136767381Y-110809019D01*
X136739992Y-110940758D01*
X136670993Y-111048968D01*
X136552136Y-111148276D01*
X136543319Y-111154184D01*
X136495892Y-111180921D01*
X136442286Y-111198312D01*
X136369451Y-111208312D01*
X136264341Y-111212878D01*
X136123981Y-111213893D01*
X136113908Y-111213965D01*
G37*
X136113908Y-111213965D02*
X136082256Y-111213938D01*
X135941082Y-111212355D01*
X135842715Y-111206916D01*
X135774010Y-111195643D01*
X135721819Y-111176561D01*
X135672996Y-111147694D01*
X135662865Y-111140592D01*
X135582988Y-111065444D01*
X135522747Y-110979820D01*
X135503198Y-110935852D01*
X135473874Y-110793764D01*
X135742828Y-110793764D01*
X135792759Y-110863621D01*
X135805898Y-110875771D01*
X135845215Y-110899575D01*
X135902326Y-110913628D01*
X135990744Y-110920313D01*
X136123981Y-110922011D01*
X136248778Y-110919101D01*
X136367674Y-110904582D01*
X136442816Y-110874610D01*
X136482107Y-110825589D01*
X136493448Y-110753924D01*
X136491193Y-110726632D01*
X136449840Y-110650176D01*
X136357100Y-110599650D01*
X136213853Y-110575384D01*
X136020980Y-110577706D01*
X136008567Y-110578639D01*
X135902143Y-110592242D01*
X135834654Y-110616465D01*
X135788416Y-110657365D01*
X135745105Y-110725941D01*
X135742828Y-110793764D01*
X135473874Y-110793764D01*
X135470592Y-110777861D01*
X135491683Y-110621613D01*
X135563751Y-110477618D01*
X135684078Y-110356385D01*
X135700197Y-110346150D01*
X135793795Y-110312847D01*
X135924121Y-110290405D01*
X136074629Y-110279516D01*
X136228773Y-110280871D01*
X136370008Y-110295161D01*
X136481787Y-110323075D01*
X136556234Y-110358949D01*
X136672032Y-110459939D01*
X136743985Y-110596779D01*
X136768719Y-110764283D01*
X136767381Y-110809019D01*
X136739992Y-110940758D01*
X136670993Y-111048968D01*
X136552136Y-111148276D01*
X136543319Y-111154184D01*
X136495892Y-111180921D01*
X136442286Y-111198312D01*
X136369451Y-111208312D01*
X136264341Y-111212878D01*
X136123981Y-111213893D01*
X136113908Y-111213965D01*
X136732281Y-107227571D02*
X136678086Y-107133877D01*
X136678086Y-107133877D02*
X136624293Y-107068736D01*
X136624293Y-107068736D02*
X136567934Y-107021093D01*
X136567934Y-107021093D02*
X136499013Y-106988272D01*
X136499013Y-106988272D02*
X136407532Y-106967594D01*
X136407532Y-106967594D02*
X136283494Y-106956380D01*
X136283494Y-106956380D02*
X136116902Y-106951951D01*
X136116902Y-106951951D02*
X135997149Y-106951437D01*
X135997149Y-106951437D02*
X135556341Y-106951437D01*
X135556341Y-106951437D02*
X135500717Y-107075517D01*
X135500717Y-107075517D02*
X135445093Y-107199598D01*
X135445093Y-107199598D02*
X135927905Y-107214195D01*
X135927905Y-107214195D02*
X136108221Y-107220227D01*
X136108221Y-107220227D02*
X136239099Y-107226555D01*
X136239099Y-107226555D02*
X136329489Y-107234394D01*
X136329489Y-107234394D02*
X136388336Y-107244963D01*
X136388336Y-107244963D02*
X136424587Y-107259477D01*
X136424587Y-107259477D02*
X136447190Y-107279152D01*
X136447190Y-107279152D02*
X136452083Y-107285465D01*
X136452083Y-107285465D02*
X136490294Y-107381112D01*
X136490294Y-107381112D02*
X136475173Y-107477793D01*
X136475173Y-107477793D02*
X136435057Y-107535345D01*
X136435057Y-107535345D02*
X136406630Y-107558755D01*
X136406630Y-107558755D02*
X136369328Y-107574961D01*
X136369328Y-107574961D02*
X136312777Y-107585259D01*
X136312777Y-107585259D02*
X136226606Y-107590951D01*
X136226606Y-107590951D02*
X136100442Y-107593336D01*
X136100442Y-107593336D02*
X135968958Y-107593736D01*
X135968958Y-107593736D02*
X135804001Y-107593814D01*
X135804001Y-107593814D02*
X135687239Y-107596639D01*
X135687239Y-107596639D02*
X135608490Y-107606093D01*
X135608490Y-107606093D02*
X135557569Y-107626060D01*
X135557569Y-107626060D02*
X135524294Y-107660424D01*
X135524294Y-107660424D02*
X135498480Y-107713068D01*
X135498480Y-107713068D02*
X135471656Y-107783383D01*
X135471656Y-107783383D02*
X135442458Y-107860180D01*
X135442458Y-107860180D02*
X135960654Y-107851038D01*
X135960654Y-107851038D02*
X136147461Y-107847357D01*
X136147461Y-107847357D02*
X136285510Y-107843050D01*
X136285510Y-107843050D02*
X136384432Y-107836877D01*
X136384432Y-107836877D02*
X136453855Y-107827598D01*
X136453855Y-107827598D02*
X136503410Y-107813973D01*
X136503410Y-107813973D02*
X136542727Y-107794761D01*
X136542727Y-107794761D02*
X136577416Y-107771598D01*
X136577416Y-107771598D02*
X136688230Y-107659848D01*
X136688230Y-107659848D02*
X136752311Y-107523487D01*
X136752311Y-107523487D02*
X136767661Y-107375175D01*
X136767661Y-107375175D02*
X136732281Y-107227571D01*
X136732281Y-107227571D02*
X136732281Y-107227571D01*
G36*
X136116902Y-106951951D02*
G01*
X136283494Y-106956380D01*
X136407532Y-106967594D01*
X136499013Y-106988272D01*
X136567934Y-107021093D01*
X136624293Y-107068736D01*
X136678086Y-107133877D01*
X136732281Y-107227571D01*
X136767661Y-107375175D01*
X136752311Y-107523487D01*
X136688230Y-107659848D01*
X136577416Y-107771598D01*
X136542727Y-107794761D01*
X136503410Y-107813973D01*
X136453855Y-107827598D01*
X136384432Y-107836877D01*
X136285510Y-107843050D01*
X136147461Y-107847357D01*
X135960654Y-107851038D01*
X135442458Y-107860180D01*
X135471656Y-107783383D01*
X135498480Y-107713068D01*
X135524294Y-107660424D01*
X135557569Y-107626060D01*
X135608490Y-107606093D01*
X135687239Y-107596639D01*
X135804001Y-107593814D01*
X135968958Y-107593736D01*
X136100442Y-107593336D01*
X136226606Y-107590951D01*
X136312777Y-107585259D01*
X136369328Y-107574961D01*
X136406630Y-107558755D01*
X136435057Y-107535345D01*
X136475173Y-107477793D01*
X136490294Y-107381112D01*
X136452083Y-107285465D01*
X136447190Y-107279152D01*
X136424587Y-107259477D01*
X136388336Y-107244963D01*
X136329489Y-107234394D01*
X136239099Y-107226555D01*
X136108221Y-107220227D01*
X135927905Y-107214195D01*
X135445093Y-107199598D01*
X135500717Y-107075517D01*
X135556341Y-106951437D01*
X135997149Y-106951437D01*
X136116902Y-106951951D01*
G37*
X136116902Y-106951951D02*
X136283494Y-106956380D01*
X136407532Y-106967594D01*
X136499013Y-106988272D01*
X136567934Y-107021093D01*
X136624293Y-107068736D01*
X136678086Y-107133877D01*
X136732281Y-107227571D01*
X136767661Y-107375175D01*
X136752311Y-107523487D01*
X136688230Y-107659848D01*
X136577416Y-107771598D01*
X136542727Y-107794761D01*
X136503410Y-107813973D01*
X136453855Y-107827598D01*
X136384432Y-107836877D01*
X136285510Y-107843050D01*
X136147461Y-107847357D01*
X135960654Y-107851038D01*
X135442458Y-107860180D01*
X135471656Y-107783383D01*
X135498480Y-107713068D01*
X135524294Y-107660424D01*
X135557569Y-107626060D01*
X135608490Y-107606093D01*
X135687239Y-107596639D01*
X135804001Y-107593814D01*
X135968958Y-107593736D01*
X136100442Y-107593336D01*
X136226606Y-107590951D01*
X136312777Y-107585259D01*
X136369328Y-107574961D01*
X136406630Y-107558755D01*
X136435057Y-107535345D01*
X136475173Y-107477793D01*
X136490294Y-107381112D01*
X136452083Y-107285465D01*
X136447190Y-107279152D01*
X136424587Y-107259477D01*
X136388336Y-107244963D01*
X136329489Y-107234394D01*
X136239099Y-107226555D01*
X136108221Y-107220227D01*
X135927905Y-107214195D01*
X135445093Y-107199598D01*
X135500717Y-107075517D01*
X135556341Y-106951437D01*
X135997149Y-106951437D01*
X136116902Y-106951951D01*
X146157002Y-104435986D02*
X146156137Y-104277994D01*
X146156137Y-104277994D02*
X146153795Y-104163653D01*
X146153795Y-104163653D02*
X146149238Y-104085593D01*
X146149238Y-104085593D02*
X146141730Y-104036446D01*
X146141730Y-104036446D02*
X146130534Y-104008841D01*
X146130534Y-104008841D02*
X146114912Y-103995408D01*
X146114912Y-103995408D02*
X146094127Y-103988779D01*
X146094127Y-103988779D02*
X146091437Y-103988135D01*
X146091437Y-103988135D02*
X146042887Y-103978065D01*
X146042887Y-103978065D02*
X145947095Y-103959425D01*
X145947095Y-103959425D02*
X145814257Y-103934155D01*
X145814257Y-103934155D02*
X145654569Y-103904193D01*
X145654569Y-103904193D02*
X145478226Y-103871478D01*
X145478226Y-103871478D02*
X145472033Y-103870336D01*
X145472033Y-103870336D02*
X145299218Y-103837567D01*
X145299218Y-103837567D02*
X145146531Y-103806907D01*
X145146531Y-103806907D02*
X145023129Y-103780336D01*
X145023129Y-103780336D02*
X144938169Y-103759833D01*
X144938169Y-103759833D02*
X144900810Y-103747374D01*
X144900810Y-103747374D02*
X144900148Y-103746780D01*
X144900148Y-103746780D02*
X144881905Y-103710081D01*
X144881905Y-103710081D02*
X144851503Y-103634414D01*
X144851503Y-103634414D02*
X144815507Y-103536122D01*
X144815507Y-103536122D02*
X144815315Y-103535575D01*
X144815315Y-103535575D02*
X144768778Y-103411767D01*
X144768778Y-103411767D02*
X144709496Y-103265804D01*
X144709496Y-103265804D02*
X144649891Y-103128219D01*
X144649891Y-103128219D02*
X144646944Y-103121707D01*
X144646944Y-103121707D02*
X144545235Y-102897610D01*
X144545235Y-102897610D02*
X144884103Y-102401381D01*
X144884103Y-102401381D02*
X144987408Y-102249154D01*
X144987408Y-102249154D02*
X145079763Y-102111259D01*
X145079763Y-102111259D02*
X145155916Y-101995685D01*
X145155916Y-101995685D02*
X145210615Y-101910421D01*
X145210615Y-101910421D02*
X145238607Y-101863456D01*
X145238607Y-101863456D02*
X145240683Y-101858996D01*
X145240683Y-101858996D02*
X145231440Y-101824866D01*
X145231440Y-101824866D02*
X145186844Y-101761119D01*
X145186844Y-101761119D02*
X145104791Y-101665269D01*
X145104791Y-101665269D02*
X144983179Y-101534831D01*
X144983179Y-101534831D02*
X144853795Y-101401672D01*
X144853795Y-101401672D02*
X144726298Y-101273306D01*
X144726298Y-101273306D02*
X144609954Y-101158419D01*
X144609954Y-101158419D02*
X144511948Y-101063927D01*
X144511948Y-101063927D02*
X144439464Y-100996747D01*
X144439464Y-100996747D02*
X144399687Y-100963794D01*
X144399687Y-100963794D02*
X144397639Y-100962568D01*
X144397639Y-100962568D02*
X144370344Y-100958926D01*
X144370344Y-100958926D02*
X144325766Y-100972650D01*
X144325766Y-100972650D02*
X144257888Y-101007131D01*
X144257888Y-101007131D02*
X144160689Y-101065761D01*
X144160689Y-101065761D02*
X144028149Y-101151930D01*
X144028149Y-101151930D02*
X143857524Y-101266800D01*
X143857524Y-101266800D02*
X143707345Y-101368746D01*
X143707345Y-101368746D02*
X143572650Y-101459877D01*
X143572650Y-101459877D02*
X143461260Y-101534927D01*
X143461260Y-101534927D02*
X143380995Y-101588631D01*
X143380995Y-101588631D02*
X143339675Y-101615720D01*
X143339675Y-101615720D02*
X143336870Y-101617426D01*
X143336870Y-101617426D02*
X143297279Y-101614118D01*
X143297279Y-101614118D02*
X143220331Y-101589047D01*
X143220331Y-101589047D02*
X143120568Y-101547202D01*
X143120568Y-101547202D02*
X143088709Y-101532288D01*
X143088709Y-101532288D02*
X142946774Y-101467214D01*
X142946774Y-101467214D02*
X142785727Y-101397788D01*
X142785727Y-101397788D02*
X142646379Y-101341391D01*
X142646379Y-101341391D02*
X142542956Y-101300753D01*
X142542956Y-101300753D02*
X142464358Y-101268474D01*
X142464358Y-101268474D02*
X142423280Y-101249822D01*
X142423280Y-101249822D02*
X142420115Y-101247503D01*
X142420115Y-101247503D02*
X142414872Y-101213197D01*
X142414872Y-101213197D02*
X142400506Y-101132331D01*
X142400506Y-101132331D02*
X142379063Y-101015657D01*
X142379063Y-101015657D02*
X142352587Y-100873925D01*
X142352587Y-100873925D02*
X142323123Y-100717890D01*
X142323123Y-100717890D02*
X142292717Y-100558302D01*
X142292717Y-100558302D02*
X142263412Y-100405915D01*
X142263412Y-100405915D02*
X142237255Y-100271479D01*
X142237255Y-100271479D02*
X142216290Y-100165748D01*
X142216290Y-100165748D02*
X142202561Y-100099474D01*
X142202561Y-100099474D02*
X142198680Y-100083218D01*
X142198680Y-100083218D02*
X142189100Y-100066427D01*
X142189100Y-100066427D02*
X142167464Y-100053751D01*
X142167464Y-100053751D02*
X142126469Y-100044622D01*
X142126469Y-100044622D02*
X142058811Y-100038469D01*
X142058811Y-100038469D02*
X141957188Y-100034720D01*
X141957188Y-100034720D02*
X141814297Y-100032808D01*
X141814297Y-100032808D02*
X141622835Y-100032160D01*
X141622835Y-100032160D02*
X141544355Y-100032126D01*
X141544355Y-100032126D02*
X140906094Y-100032126D01*
X140906094Y-100032126D02*
X140875840Y-100185402D01*
X140875840Y-100185402D02*
X140859436Y-100270678D01*
X140859436Y-100270678D02*
X140835491Y-100397930D01*
X140835491Y-100397930D02*
X140806893Y-100551685D01*
X140806893Y-100551685D02*
X140776533Y-100716466D01*
X140776533Y-100716466D02*
X140768194Y-100762011D01*
X140768194Y-100762011D02*
X140738630Y-100914068D01*
X140738630Y-100914068D02*
X140709558Y-101046532D01*
X140709558Y-101046532D02*
X140683671Y-101148286D01*
X140683671Y-101148286D02*
X140663663Y-101208212D01*
X140663663Y-101208212D02*
X140657699Y-101218195D01*
X140657699Y-101218195D02*
X140615466Y-101242707D01*
X140615466Y-101242707D02*
X140533630Y-101277852D01*
X140533630Y-101277852D02*
X140428317Y-101316827D01*
X140428317Y-101316827D02*
X140405632Y-101324558D01*
X140405632Y-101324558D02*
X140264982Y-101375640D01*
X140264982Y-101375640D02*
X140106286Y-101439046D01*
X140106286Y-101439046D02*
X139963775Y-101501096D01*
X139963775Y-101501096D02*
X139963114Y-101501402D01*
X139963114Y-101501402D02*
X139739560Y-101604733D01*
X139739560Y-101604733D02*
X138739768Y-100925039D01*
X138739768Y-100925039D02*
X138302700Y-101361379D01*
X138302700Y-101361379D02*
X138172619Y-101493351D01*
X138172619Y-101493351D02*
X138057952Y-101613721D01*
X138057952Y-101613721D02*
X137964819Y-101715727D01*
X137964819Y-101715727D02*
X137899342Y-101792609D01*
X137899342Y-101792609D02*
X137867643Y-101837607D01*
X137867643Y-101837607D02*
X137865632Y-101844062D01*
X137865632Y-101844062D02*
X137881471Y-101881960D01*
X137881471Y-101881960D02*
X137925504Y-101959292D01*
X137925504Y-101959292D02*
X137992510Y-102067611D01*
X137992510Y-102067611D02*
X138077266Y-102198468D01*
X138077266Y-102198468D02*
X138172184Y-102339948D01*
X138172184Y-102339948D02*
X138269002Y-102483539D01*
X138269002Y-102483539D02*
X138353249Y-102611565D01*
X138353249Y-102611565D02*
X138419742Y-102715895D01*
X138419742Y-102715895D02*
X138463298Y-102788400D01*
X138463298Y-102788400D02*
X138478736Y-102820842D01*
X138478736Y-102820842D02*
X138465672Y-102860424D01*
X138465672Y-102860424D02*
X138431250Y-102935481D01*
X138431250Y-102935481D02*
X138382620Y-103030532D01*
X138382620Y-103030532D02*
X138377215Y-103040608D01*
X138377215Y-103040608D02*
X138313020Y-103168609D01*
X138313020Y-103168609D02*
X138281537Y-103256382D01*
X138281537Y-103256382D02*
X138281202Y-103310972D01*
X138281202Y-103310972D02*
X138310452Y-103339425D01*
X138310452Y-103339425D02*
X138310862Y-103339590D01*
X138310862Y-103339590D02*
X138345502Y-103353812D01*
X138345502Y-103353812D02*
X138427731Y-103387731D01*
X138427731Y-103387731D02*
X138551186Y-103438716D01*
X138551186Y-103438716D02*
X138709502Y-103504138D01*
X138709502Y-103504138D02*
X138896314Y-103581366D01*
X138896314Y-103581366D02*
X139105258Y-103667771D01*
X139105258Y-103667771D02*
X139307554Y-103751449D01*
X139307554Y-103751449D02*
X139530800Y-103843412D01*
X139530800Y-103843412D02*
X139737608Y-103927850D01*
X139737608Y-103927850D02*
X139921638Y-104002231D01*
X139921638Y-104002231D02*
X140076549Y-104064026D01*
X140076549Y-104064026D02*
X140196004Y-104110703D01*
X140196004Y-104110703D02*
X140273661Y-104139732D01*
X140273661Y-104139732D02*
X140302644Y-104148678D01*
X140302644Y-104148678D02*
X140335890Y-104126244D01*
X140335890Y-104126244D02*
X140388877Y-104067561D01*
X140388877Y-104067561D02*
X140447296Y-103989311D01*
X140447296Y-103989311D02*
X140632048Y-103766466D01*
X140632048Y-103766466D02*
X140843818Y-103592282D01*
X140843818Y-103592282D02*
X141078144Y-103468846D01*
X141078144Y-103468846D02*
X141330566Y-103398246D01*
X141330566Y-103398246D02*
X141596623Y-103382569D01*
X141596623Y-103382569D02*
X141719425Y-103393964D01*
X141719425Y-103393964D02*
X141974207Y-103456050D01*
X141974207Y-103456050D02*
X142199199Y-103562977D01*
X142199199Y-103562977D02*
X142392183Y-103708111D01*
X142392183Y-103708111D02*
X142550939Y-103884822D01*
X142550939Y-103884822D02*
X142673250Y-104086478D01*
X142673250Y-104086478D02*
X142756895Y-104306446D01*
X142756895Y-104306446D02*
X142799656Y-104538094D01*
X142799656Y-104538094D02*
X142799313Y-104774791D01*
X142799313Y-104774791D02*
X142753648Y-105009905D01*
X142753648Y-105009905D02*
X142660441Y-105236804D01*
X142660441Y-105236804D02*
X142517473Y-105448856D01*
X142517473Y-105448856D02*
X142436617Y-105537364D01*
X142436617Y-105537364D02*
X142228993Y-105707111D01*
X142228993Y-105707111D02*
X142002105Y-105825301D01*
X142002105Y-105825301D02*
X141762567Y-105892722D01*
X141762567Y-105892722D02*
X141516993Y-105910160D01*
X141516993Y-105910160D02*
X141271997Y-105878402D01*
X141271997Y-105878402D02*
X141034192Y-105798235D01*
X141034192Y-105798235D02*
X140810193Y-105670445D01*
X140810193Y-105670445D02*
X140606613Y-105495820D01*
X140606613Y-105495820D02*
X140447296Y-105300688D01*
X140447296Y-105300688D02*
X140386398Y-105219409D01*
X140386398Y-105219409D02*
X140333985Y-105161991D01*
X140333985Y-105161991D02*
X140302594Y-105141322D01*
X140302594Y-105141322D02*
X140268361Y-105152144D01*
X140268361Y-105152144D02*
X140186581Y-105182923D01*
X140186581Y-105182923D02*
X140063593Y-105231126D01*
X140063593Y-105231126D02*
X139905737Y-105294222D01*
X139905737Y-105294222D02*
X139719351Y-105369678D01*
X139719351Y-105369678D02*
X139510774Y-105454962D01*
X139510774Y-105454962D02*
X139307504Y-105538781D01*
X139307504Y-105538781D02*
X139084067Y-105631255D01*
X139084067Y-105631255D02*
X138877016Y-105716911D01*
X138877016Y-105716911D02*
X138692714Y-105793118D01*
X138692714Y-105793118D02*
X138537525Y-105857247D01*
X138537525Y-105857247D02*
X138417812Y-105906668D01*
X138417812Y-105906668D02*
X138339939Y-105938752D01*
X138339939Y-105938752D02*
X138310862Y-105950641D01*
X138310862Y-105950641D02*
X138281323Y-105978726D01*
X138281323Y-105978726D02*
X138281409Y-106033051D01*
X138281409Y-106033051D02*
X138312674Y-106120605D01*
X138312674Y-106120605D02*
X138376671Y-106248381D01*
X138376671Y-106248381D02*
X138377215Y-106249392D01*
X138377215Y-106249392D02*
X138426879Y-106345598D01*
X138426879Y-106345598D02*
X138463055Y-106423369D01*
X138463055Y-106423369D02*
X138478592Y-106467223D01*
X138478592Y-106467223D02*
X138478736Y-106469158D01*
X138478736Y-106469158D02*
X138462976Y-106502171D01*
X138462976Y-106502171D02*
X138419150Y-106575054D01*
X138419150Y-106575054D02*
X138352443Y-106679678D01*
X138352443Y-106679678D02*
X138268036Y-106807910D01*
X138268036Y-106807910D02*
X138172184Y-106950052D01*
X138172184Y-106950052D02*
X138075133Y-107094767D01*
X138075133Y-107094767D02*
X137990730Y-107225196D01*
X137990730Y-107225196D02*
X137924199Y-107332890D01*
X137924199Y-107332890D02*
X137880762Y-107409402D01*
X137880762Y-107409402D02*
X137865632Y-107445938D01*
X137865632Y-107445938D02*
X137885518Y-107479582D01*
X137885518Y-107479582D02*
X137941097Y-107547224D01*
X137941097Y-107547224D02*
X138026246Y-107642107D01*
X138026246Y-107642107D02*
X138134847Y-107757470D01*
X138134847Y-107757470D02*
X138260779Y-107886555D01*
X138260779Y-107886555D02*
X138302851Y-107928771D01*
X138302851Y-107928771D02*
X138740069Y-108365261D01*
X138740069Y-108365261D02*
X139227660Y-108033023D01*
X139227660Y-108033023D02*
X139377395Y-107932054D01*
X139377395Y-107932054D02*
X139511780Y-107843438D01*
X139511780Y-107843438D02*
X139623031Y-107772146D01*
X139623031Y-107772146D02*
X139703361Y-107723150D01*
X139703361Y-107723150D02*
X139744986Y-107701422D01*
X139744986Y-107701422D02*
X139747947Y-107700785D01*
X139747947Y-107700785D02*
X139787182Y-107712240D01*
X139787182Y-107712240D02*
X139866105Y-107743051D01*
X139866105Y-107743051D02*
X139971491Y-107787884D01*
X139971491Y-107787884D02*
X140042046Y-107819353D01*
X140042046Y-107819353D02*
X140177124Y-107878192D01*
X140177124Y-107878192D02*
X140313591Y-107933604D01*
X140313591Y-107933604D02*
X140428897Y-107976564D01*
X140428897Y-107976564D02*
X140464023Y-107988234D01*
X140464023Y-107988234D02*
X140557826Y-108021389D01*
X140557826Y-108021389D02*
X140630306Y-108053799D01*
X140630306Y-108053799D02*
X140657699Y-108071601D01*
X140657699Y-108071601D02*
X140674464Y-108110886D01*
X140674464Y-108110886D02*
X140698230Y-108196626D01*
X140698230Y-108196626D02*
X140726303Y-108317697D01*
X140726303Y-108317697D02*
X140755991Y-108462973D01*
X140755991Y-108462973D02*
X140768194Y-108527988D01*
X140768194Y-108527988D02*
X140798532Y-108693087D01*
X140798532Y-108693087D02*
X140827907Y-108851448D01*
X140827907Y-108851448D02*
X140853431Y-108987596D01*
X140853431Y-108987596D02*
X140872215Y-109086057D01*
X140872215Y-109086057D02*
X140875840Y-109104598D01*
X140875840Y-109104598D02*
X140906094Y-109257873D01*
X140906094Y-109257873D02*
X141544355Y-109257873D01*
X141544355Y-109257873D02*
X141754230Y-109257529D01*
X141754230Y-109257529D02*
X141913020Y-109256116D01*
X141913020Y-109256116D02*
X142028027Y-109253064D01*
X142028027Y-109253064D02*
X142106554Y-109247803D01*
X142106554Y-109247803D02*
X142155904Y-109239763D01*
X142155904Y-109239763D02*
X142183381Y-109228373D01*
X142183381Y-109228373D02*
X142196287Y-109213063D01*
X142196287Y-109213063D02*
X142198680Y-109206782D01*
X142198680Y-109206782D02*
X142207167Y-109168896D01*
X142207167Y-109168896D02*
X142224100Y-109085195D01*
X142224100Y-109085195D02*
X142247434Y-108966433D01*
X142247434Y-108966433D02*
X142275125Y-108823361D01*
X142275125Y-108823361D02*
X142305127Y-108666732D01*
X142305127Y-108666732D02*
X142335396Y-108507297D01*
X142335396Y-108507297D02*
X142363885Y-108355809D01*
X142363885Y-108355809D02*
X142388551Y-108223019D01*
X142388551Y-108223019D02*
X142407349Y-108119681D01*
X142407349Y-108119681D02*
X142418233Y-108056545D01*
X142418233Y-108056545D02*
X142420115Y-108042497D01*
X142420115Y-108042497D02*
X142445296Y-108029770D01*
X142445296Y-108029770D02*
X142512378Y-108001600D01*
X142512378Y-108001600D02*
X142608667Y-107963252D01*
X142608667Y-107963252D02*
X142646379Y-107948609D01*
X142646379Y-107948609D02*
X142792079Y-107889548D01*
X142792079Y-107889548D02*
X142953049Y-107820000D01*
X142953049Y-107820000D02*
X143088709Y-107757712D01*
X143088709Y-107757712D02*
X143192439Y-107711879D01*
X143192439Y-107711879D02*
X143277674Y-107681387D01*
X143277674Y-107681387D02*
X143329874Y-107671208D01*
X143329874Y-107671208D02*
X143336870Y-107672831D01*
X143336870Y-107672831D02*
X143369898Y-107694343D01*
X143369898Y-107694343D02*
X143443357Y-107743465D01*
X143443357Y-107743465D02*
X143549423Y-107814923D01*
X143549423Y-107814923D02*
X143680274Y-107903445D01*
X143680274Y-107903445D02*
X143828088Y-108003759D01*
X143828088Y-108003759D02*
X143857266Y-108023594D01*
X143857266Y-108023594D02*
X144030137Y-108139988D01*
X144030137Y-108139988D02*
X144161774Y-108225548D01*
X144161774Y-108225548D02*
X144258239Y-108283684D01*
X144258239Y-108283684D02*
X144325592Y-108317808D01*
X144325592Y-108317808D02*
X144369894Y-108331331D01*
X144369894Y-108331331D02*
X144397206Y-108327664D01*
X144397206Y-108327664D02*
X144397380Y-108327570D01*
X144397380Y-108327570D02*
X144433254Y-108298707D01*
X144433254Y-108298707D02*
X144502609Y-108234867D01*
X144502609Y-108234867D02*
X144598255Y-108142969D01*
X144598255Y-108142969D02*
X144713001Y-108029933D01*
X144713001Y-108029933D02*
X144839659Y-107902679D01*
X144839659Y-107902679D02*
X144853795Y-107888328D01*
X144853795Y-107888328D02*
X145009097Y-107727957D01*
X145009097Y-107727957D02*
X145123130Y-107604195D01*
X145123130Y-107604195D02*
X145197998Y-107514555D01*
X145197998Y-107514555D02*
X145235804Y-107456552D01*
X145235804Y-107456552D02*
X145240683Y-107431004D01*
X145240683Y-107431004D02*
X145219397Y-107393718D01*
X145219397Y-107393718D02*
X145170227Y-107316343D01*
X145170227Y-107316343D02*
X145098425Y-107206867D01*
X145098425Y-107206867D02*
X145009245Y-107073280D01*
X145009245Y-107073280D02*
X144907937Y-106923570D01*
X144907937Y-106923570D02*
X144884103Y-106888618D01*
X144884103Y-106888618D02*
X144545235Y-106392390D01*
X144545235Y-106392390D02*
X144646944Y-106168293D01*
X144646944Y-106168293D02*
X144706217Y-106032011D01*
X144706217Y-106032011D02*
X144765830Y-105885724D01*
X144765830Y-105885724D02*
X144813360Y-105759965D01*
X144813360Y-105759965D02*
X144815315Y-105754425D01*
X144815315Y-105754425D02*
X144851323Y-105656057D01*
X144851323Y-105656057D02*
X144881771Y-105580229D01*
X144881771Y-105580229D02*
X144900095Y-105543282D01*
X144900095Y-105543282D02*
X144900148Y-105543220D01*
X144900148Y-105543220D02*
X144933271Y-105531496D01*
X144933271Y-105531496D02*
X145014733Y-105511568D01*
X145014733Y-105511568D02*
X145135375Y-105485413D01*
X145135375Y-105485413D02*
X145286041Y-105455010D01*
X145286041Y-105455010D02*
X145457572Y-105422337D01*
X145457572Y-105422337D02*
X145472033Y-105419664D01*
X145472033Y-105419664D02*
X145648765Y-105386890D01*
X145648765Y-105386890D02*
X145809190Y-105356802D01*
X145809190Y-105356802D02*
X145943112Y-105331339D01*
X145943112Y-105331339D02*
X146040337Y-105312441D01*
X146040337Y-105312441D02*
X146090668Y-105302047D01*
X146090668Y-105302047D02*
X146091437Y-105301865D01*
X146091437Y-105301865D02*
X146112847Y-105295539D01*
X146112847Y-105295539D02*
X146129012Y-105283239D01*
X146129012Y-105283239D02*
X146140669Y-105257594D01*
X146140669Y-105257594D02*
X146148555Y-105211235D01*
X146148555Y-105211235D02*
X146153407Y-105136792D01*
X146153407Y-105136792D02*
X146155961Y-105026895D01*
X146155961Y-105026895D02*
X146156955Y-104874175D01*
X146156955Y-104874175D02*
X146157126Y-104671262D01*
X146157126Y-104671262D02*
X146157126Y-104645000D01*
X146157126Y-104645000D02*
X146157002Y-104435986D01*
X146157002Y-104435986D02*
X146157002Y-104435986D01*
G36*
X141622835Y-100032160D02*
G01*
X141814297Y-100032808D01*
X141957188Y-100034720D01*
X142058811Y-100038469D01*
X142126469Y-100044622D01*
X142167464Y-100053751D01*
X142189100Y-100066427D01*
X142198680Y-100083218D01*
X142202561Y-100099474D01*
X142216290Y-100165748D01*
X142237255Y-100271479D01*
X142263412Y-100405915D01*
X142292717Y-100558302D01*
X142323123Y-100717890D01*
X142352587Y-100873925D01*
X142379063Y-101015657D01*
X142400506Y-101132331D01*
X142414872Y-101213197D01*
X142420115Y-101247503D01*
X142423280Y-101249822D01*
X142464358Y-101268474D01*
X142542956Y-101300753D01*
X142646379Y-101341391D01*
X142785727Y-101397788D01*
X142946774Y-101467214D01*
X143088709Y-101532288D01*
X143120568Y-101547202D01*
X143220331Y-101589047D01*
X143297279Y-101614118D01*
X143336870Y-101617426D01*
X143339675Y-101615720D01*
X143380995Y-101588631D01*
X143461260Y-101534927D01*
X143572650Y-101459877D01*
X143707345Y-101368746D01*
X143857524Y-101266800D01*
X144028149Y-101151930D01*
X144160689Y-101065761D01*
X144257888Y-101007131D01*
X144325766Y-100972650D01*
X144370344Y-100958926D01*
X144397639Y-100962568D01*
X144399687Y-100963794D01*
X144439464Y-100996747D01*
X144511948Y-101063927D01*
X144609954Y-101158419D01*
X144726298Y-101273306D01*
X144853795Y-101401672D01*
X144983179Y-101534831D01*
X145104791Y-101665269D01*
X145186844Y-101761119D01*
X145231440Y-101824866D01*
X145240683Y-101858996D01*
X145238607Y-101863456D01*
X145210615Y-101910421D01*
X145155916Y-101995685D01*
X145079763Y-102111259D01*
X144987408Y-102249154D01*
X144884103Y-102401381D01*
X144545235Y-102897610D01*
X144646944Y-103121707D01*
X144649891Y-103128219D01*
X144709496Y-103265804D01*
X144768778Y-103411767D01*
X144815315Y-103535575D01*
X144815507Y-103536122D01*
X144851503Y-103634414D01*
X144881905Y-103710081D01*
X144900148Y-103746780D01*
X144900810Y-103747374D01*
X144938169Y-103759833D01*
X145023129Y-103780336D01*
X145146531Y-103806907D01*
X145299218Y-103837567D01*
X145472033Y-103870336D01*
X145478226Y-103871478D01*
X145654569Y-103904193D01*
X145814257Y-103934155D01*
X145947095Y-103959425D01*
X146042887Y-103978065D01*
X146091437Y-103988135D01*
X146094127Y-103988779D01*
X146114912Y-103995408D01*
X146130534Y-104008841D01*
X146141730Y-104036446D01*
X146149238Y-104085593D01*
X146153795Y-104163653D01*
X146156137Y-104277994D01*
X146157002Y-104435986D01*
X146157126Y-104645000D01*
X146157126Y-104671262D01*
X146156955Y-104874175D01*
X146155961Y-105026895D01*
X146153407Y-105136792D01*
X146148555Y-105211235D01*
X146140669Y-105257594D01*
X146129012Y-105283239D01*
X146112847Y-105295539D01*
X146091437Y-105301865D01*
X146090668Y-105302047D01*
X146040337Y-105312441D01*
X145943112Y-105331339D01*
X145809190Y-105356802D01*
X145648765Y-105386890D01*
X145472033Y-105419664D01*
X145457572Y-105422337D01*
X145286041Y-105455010D01*
X145135375Y-105485413D01*
X145014733Y-105511568D01*
X144933271Y-105531496D01*
X144900148Y-105543220D01*
X144900095Y-105543282D01*
X144881771Y-105580229D01*
X144851323Y-105656057D01*
X144815315Y-105754425D01*
X144813360Y-105759965D01*
X144765830Y-105885724D01*
X144706217Y-106032011D01*
X144646944Y-106168293D01*
X144545235Y-106392390D01*
X144884103Y-106888618D01*
X144907937Y-106923570D01*
X145009245Y-107073280D01*
X145098425Y-107206867D01*
X145170227Y-107316343D01*
X145219397Y-107393718D01*
X145240683Y-107431004D01*
X145235804Y-107456552D01*
X145197998Y-107514555D01*
X145123130Y-107604195D01*
X145009097Y-107727957D01*
X144853795Y-107888328D01*
X144839659Y-107902679D01*
X144713001Y-108029933D01*
X144598255Y-108142969D01*
X144502609Y-108234867D01*
X144433254Y-108298707D01*
X144397380Y-108327570D01*
X144397206Y-108327664D01*
X144369894Y-108331331D01*
X144325592Y-108317808D01*
X144258239Y-108283684D01*
X144161774Y-108225548D01*
X144030137Y-108139988D01*
X143857266Y-108023594D01*
X143828088Y-108003759D01*
X143680274Y-107903445D01*
X143549423Y-107814923D01*
X143443357Y-107743465D01*
X143369898Y-107694343D01*
X143336870Y-107672831D01*
X143329874Y-107671208D01*
X143277674Y-107681387D01*
X143192439Y-107711879D01*
X143088709Y-107757712D01*
X142953049Y-107820000D01*
X142792079Y-107889548D01*
X142646379Y-107948609D01*
X142608667Y-107963252D01*
X142512378Y-108001600D01*
X142445296Y-108029770D01*
X142420115Y-108042497D01*
X142418233Y-108056545D01*
X142407349Y-108119681D01*
X142388551Y-108223019D01*
X142363885Y-108355809D01*
X142335396Y-108507297D01*
X142305127Y-108666732D01*
X142275125Y-108823361D01*
X142247434Y-108966433D01*
X142224100Y-109085195D01*
X142207167Y-109168896D01*
X142198680Y-109206782D01*
X142196287Y-109213063D01*
X142183381Y-109228373D01*
X142155904Y-109239763D01*
X142106554Y-109247803D01*
X142028027Y-109253064D01*
X141913020Y-109256116D01*
X141754230Y-109257529D01*
X141544355Y-109257873D01*
X140906094Y-109257873D01*
X140875840Y-109104598D01*
X140872215Y-109086057D01*
X140853431Y-108987596D01*
X140827907Y-108851448D01*
X140798532Y-108693087D01*
X140768194Y-108527988D01*
X140755991Y-108462973D01*
X140726303Y-108317697D01*
X140698230Y-108196626D01*
X140674464Y-108110886D01*
X140657699Y-108071601D01*
X140630306Y-108053799D01*
X140557826Y-108021389D01*
X140464023Y-107988234D01*
X140428897Y-107976564D01*
X140313591Y-107933604D01*
X140177124Y-107878192D01*
X140042046Y-107819353D01*
X139971491Y-107787884D01*
X139866105Y-107743051D01*
X139787182Y-107712240D01*
X139747947Y-107700785D01*
X139744986Y-107701422D01*
X139703361Y-107723150D01*
X139623031Y-107772146D01*
X139511780Y-107843438D01*
X139377395Y-107932054D01*
X139227660Y-108033023D01*
X138740069Y-108365261D01*
X138302851Y-107928771D01*
X138260779Y-107886555D01*
X138134847Y-107757470D01*
X138026246Y-107642107D01*
X137941097Y-107547224D01*
X137885518Y-107479582D01*
X137865632Y-107445938D01*
X137880762Y-107409402D01*
X137924199Y-107332890D01*
X137990730Y-107225196D01*
X138075133Y-107094767D01*
X138172184Y-106950052D01*
X138268036Y-106807910D01*
X138352443Y-106679678D01*
X138419150Y-106575054D01*
X138462976Y-106502171D01*
X138478736Y-106469158D01*
X138478592Y-106467223D01*
X138463055Y-106423369D01*
X138426879Y-106345598D01*
X138377215Y-106249392D01*
X138376671Y-106248381D01*
X138312674Y-106120605D01*
X138281409Y-106033051D01*
X138281323Y-105978726D01*
X138310862Y-105950641D01*
X138339939Y-105938752D01*
X138417812Y-105906668D01*
X138537525Y-105857247D01*
X138692714Y-105793118D01*
X138877016Y-105716911D01*
X139084067Y-105631255D01*
X139307504Y-105538781D01*
X139510774Y-105454962D01*
X139719351Y-105369678D01*
X139905737Y-105294222D01*
X140063593Y-105231126D01*
X140186581Y-105182923D01*
X140268361Y-105152144D01*
X140302594Y-105141322D01*
X140333985Y-105161991D01*
X140386398Y-105219409D01*
X140447296Y-105300688D01*
X140606613Y-105495820D01*
X140810193Y-105670445D01*
X141034192Y-105798235D01*
X141271997Y-105878402D01*
X141516993Y-105910160D01*
X141762567Y-105892722D01*
X142002105Y-105825301D01*
X142228993Y-105707111D01*
X142436617Y-105537364D01*
X142517473Y-105448856D01*
X142660441Y-105236804D01*
X142753648Y-105009905D01*
X142799313Y-104774791D01*
X142799656Y-104538094D01*
X142756895Y-104306446D01*
X142673250Y-104086478D01*
X142550939Y-103884822D01*
X142392183Y-103708111D01*
X142199199Y-103562977D01*
X141974207Y-103456050D01*
X141719425Y-103393964D01*
X141596623Y-103382569D01*
X141330566Y-103398246D01*
X141078144Y-103468846D01*
X140843818Y-103592282D01*
X140632048Y-103766466D01*
X140447296Y-103989311D01*
X140388877Y-104067561D01*
X140335890Y-104126244D01*
X140302644Y-104148678D01*
X140273661Y-104139732D01*
X140196004Y-104110703D01*
X140076549Y-104064026D01*
X139921638Y-104002231D01*
X139737608Y-103927850D01*
X139530800Y-103843412D01*
X139307554Y-103751449D01*
X139105258Y-103667771D01*
X138896314Y-103581366D01*
X138709502Y-103504138D01*
X138551186Y-103438716D01*
X138427731Y-103387731D01*
X138345502Y-103353812D01*
X138310862Y-103339590D01*
X138310452Y-103339425D01*
X138281202Y-103310972D01*
X138281537Y-103256382D01*
X138313020Y-103168609D01*
X138377215Y-103040608D01*
X138382620Y-103030532D01*
X138431250Y-102935481D01*
X138465672Y-102860424D01*
X138478736Y-102820842D01*
X138463298Y-102788400D01*
X138419742Y-102715895D01*
X138353249Y-102611565D01*
X138269002Y-102483539D01*
X138172184Y-102339948D01*
X138077266Y-102198468D01*
X137992510Y-102067611D01*
X137925504Y-101959292D01*
X137881471Y-101881960D01*
X137865632Y-101844062D01*
X137867643Y-101837607D01*
X137899342Y-101792609D01*
X137964819Y-101715727D01*
X138057952Y-101613721D01*
X138172619Y-101493351D01*
X138302700Y-101361379D01*
X138739768Y-100925039D01*
X139739560Y-101604733D01*
X139963114Y-101501402D01*
X139963775Y-101501096D01*
X140106286Y-101439046D01*
X140264982Y-101375640D01*
X140405632Y-101324558D01*
X140428317Y-101316827D01*
X140533630Y-101277852D01*
X140615466Y-101242707D01*
X140657699Y-101218195D01*
X140663663Y-101208212D01*
X140683671Y-101148286D01*
X140709558Y-101046532D01*
X140738630Y-100914068D01*
X140768194Y-100762011D01*
X140776533Y-100716466D01*
X140806893Y-100551685D01*
X140835491Y-100397930D01*
X140859436Y-100270678D01*
X140875840Y-100185402D01*
X140906094Y-100032126D01*
X141544355Y-100032126D01*
X141622835Y-100032160D01*
G37*
X141622835Y-100032160D02*
X141814297Y-100032808D01*
X141957188Y-100034720D01*
X142058811Y-100038469D01*
X142126469Y-100044622D01*
X142167464Y-100053751D01*
X142189100Y-100066427D01*
X142198680Y-100083218D01*
X142202561Y-100099474D01*
X142216290Y-100165748D01*
X142237255Y-100271479D01*
X142263412Y-100405915D01*
X142292717Y-100558302D01*
X142323123Y-100717890D01*
X142352587Y-100873925D01*
X142379063Y-101015657D01*
X142400506Y-101132331D01*
X142414872Y-101213197D01*
X142420115Y-101247503D01*
X142423280Y-101249822D01*
X142464358Y-101268474D01*
X142542956Y-101300753D01*
X142646379Y-101341391D01*
X142785727Y-101397788D01*
X142946774Y-101467214D01*
X143088709Y-101532288D01*
X143120568Y-101547202D01*
X143220331Y-101589047D01*
X143297279Y-101614118D01*
X143336870Y-101617426D01*
X143339675Y-101615720D01*
X143380995Y-101588631D01*
X143461260Y-101534927D01*
X143572650Y-101459877D01*
X143707345Y-101368746D01*
X143857524Y-101266800D01*
X144028149Y-101151930D01*
X144160689Y-101065761D01*
X144257888Y-101007131D01*
X144325766Y-100972650D01*
X144370344Y-100958926D01*
X144397639Y-100962568D01*
X144399687Y-100963794D01*
X144439464Y-100996747D01*
X144511948Y-101063927D01*
X144609954Y-101158419D01*
X144726298Y-101273306D01*
X144853795Y-101401672D01*
X144983179Y-101534831D01*
X145104791Y-101665269D01*
X145186844Y-101761119D01*
X145231440Y-101824866D01*
X145240683Y-101858996D01*
X145238607Y-101863456D01*
X145210615Y-101910421D01*
X145155916Y-101995685D01*
X145079763Y-102111259D01*
X144987408Y-102249154D01*
X144884103Y-102401381D01*
X144545235Y-102897610D01*
X144646944Y-103121707D01*
X144649891Y-103128219D01*
X144709496Y-103265804D01*
X144768778Y-103411767D01*
X144815315Y-103535575D01*
X144815507Y-103536122D01*
X144851503Y-103634414D01*
X144881905Y-103710081D01*
X144900148Y-103746780D01*
X144900810Y-103747374D01*
X144938169Y-103759833D01*
X145023129Y-103780336D01*
X145146531Y-103806907D01*
X145299218Y-103837567D01*
X145472033Y-103870336D01*
X145478226Y-103871478D01*
X145654569Y-103904193D01*
X145814257Y-103934155D01*
X145947095Y-103959425D01*
X146042887Y-103978065D01*
X146091437Y-103988135D01*
X146094127Y-103988779D01*
X146114912Y-103995408D01*
X146130534Y-104008841D01*
X146141730Y-104036446D01*
X146149238Y-104085593D01*
X146153795Y-104163653D01*
X146156137Y-104277994D01*
X146157002Y-104435986D01*
X146157126Y-104645000D01*
X146157126Y-104671262D01*
X146156955Y-104874175D01*
X146155961Y-105026895D01*
X146153407Y-105136792D01*
X146148555Y-105211235D01*
X146140669Y-105257594D01*
X146129012Y-105283239D01*
X146112847Y-105295539D01*
X146091437Y-105301865D01*
X146090668Y-105302047D01*
X146040337Y-105312441D01*
X145943112Y-105331339D01*
X145809190Y-105356802D01*
X145648765Y-105386890D01*
X145472033Y-105419664D01*
X145457572Y-105422337D01*
X145286041Y-105455010D01*
X145135375Y-105485413D01*
X145014733Y-105511568D01*
X144933271Y-105531496D01*
X144900148Y-105543220D01*
X144900095Y-105543282D01*
X144881771Y-105580229D01*
X144851323Y-105656057D01*
X144815315Y-105754425D01*
X144813360Y-105759965D01*
X144765830Y-105885724D01*
X144706217Y-106032011D01*
X144646944Y-106168293D01*
X144545235Y-106392390D01*
X144884103Y-106888618D01*
X144907937Y-106923570D01*
X145009245Y-107073280D01*
X145098425Y-107206867D01*
X145170227Y-107316343D01*
X145219397Y-107393718D01*
X145240683Y-107431004D01*
X145235804Y-107456552D01*
X145197998Y-107514555D01*
X145123130Y-107604195D01*
X145009097Y-107727957D01*
X144853795Y-107888328D01*
X144839659Y-107902679D01*
X144713001Y-108029933D01*
X144598255Y-108142969D01*
X144502609Y-108234867D01*
X144433254Y-108298707D01*
X144397380Y-108327570D01*
X144397206Y-108327664D01*
X144369894Y-108331331D01*
X144325592Y-108317808D01*
X144258239Y-108283684D01*
X144161774Y-108225548D01*
X144030137Y-108139988D01*
X143857266Y-108023594D01*
X143828088Y-108003759D01*
X143680274Y-107903445D01*
X143549423Y-107814923D01*
X143443357Y-107743465D01*
X143369898Y-107694343D01*
X143336870Y-107672831D01*
X143329874Y-107671208D01*
X143277674Y-107681387D01*
X143192439Y-107711879D01*
X143088709Y-107757712D01*
X142953049Y-107820000D01*
X142792079Y-107889548D01*
X142646379Y-107948609D01*
X142608667Y-107963252D01*
X142512378Y-108001600D01*
X142445296Y-108029770D01*
X142420115Y-108042497D01*
X142418233Y-108056545D01*
X142407349Y-108119681D01*
X142388551Y-108223019D01*
X142363885Y-108355809D01*
X142335396Y-108507297D01*
X142305127Y-108666732D01*
X142275125Y-108823361D01*
X142247434Y-108966433D01*
X142224100Y-109085195D01*
X142207167Y-109168896D01*
X142198680Y-109206782D01*
X142196287Y-109213063D01*
X142183381Y-109228373D01*
X142155904Y-109239763D01*
X142106554Y-109247803D01*
X142028027Y-109253064D01*
X141913020Y-109256116D01*
X141754230Y-109257529D01*
X141544355Y-109257873D01*
X140906094Y-109257873D01*
X140875840Y-109104598D01*
X140872215Y-109086057D01*
X140853431Y-108987596D01*
X140827907Y-108851448D01*
X140798532Y-108693087D01*
X140768194Y-108527988D01*
X140755991Y-108462973D01*
X140726303Y-108317697D01*
X140698230Y-108196626D01*
X140674464Y-108110886D01*
X140657699Y-108071601D01*
X140630306Y-108053799D01*
X140557826Y-108021389D01*
X140464023Y-107988234D01*
X140428897Y-107976564D01*
X140313591Y-107933604D01*
X140177124Y-107878192D01*
X140042046Y-107819353D01*
X139971491Y-107787884D01*
X139866105Y-107743051D01*
X139787182Y-107712240D01*
X139747947Y-107700785D01*
X139744986Y-107701422D01*
X139703361Y-107723150D01*
X139623031Y-107772146D01*
X139511780Y-107843438D01*
X139377395Y-107932054D01*
X139227660Y-108033023D01*
X138740069Y-108365261D01*
X138302851Y-107928771D01*
X138260779Y-107886555D01*
X138134847Y-107757470D01*
X138026246Y-107642107D01*
X137941097Y-107547224D01*
X137885518Y-107479582D01*
X137865632Y-107445938D01*
X137880762Y-107409402D01*
X137924199Y-107332890D01*
X137990730Y-107225196D01*
X138075133Y-107094767D01*
X138172184Y-106950052D01*
X138268036Y-106807910D01*
X138352443Y-106679678D01*
X138419150Y-106575054D01*
X138462976Y-106502171D01*
X138478736Y-106469158D01*
X138478592Y-106467223D01*
X138463055Y-106423369D01*
X138426879Y-106345598D01*
X138377215Y-106249392D01*
X138376671Y-106248381D01*
X138312674Y-106120605D01*
X138281409Y-106033051D01*
X138281323Y-105978726D01*
X138310862Y-105950641D01*
X138339939Y-105938752D01*
X138417812Y-105906668D01*
X138537525Y-105857247D01*
X138692714Y-105793118D01*
X138877016Y-105716911D01*
X139084067Y-105631255D01*
X139307504Y-105538781D01*
X139510774Y-105454962D01*
X139719351Y-105369678D01*
X139905737Y-105294222D01*
X140063593Y-105231126D01*
X140186581Y-105182923D01*
X140268361Y-105152144D01*
X140302594Y-105141322D01*
X140333985Y-105161991D01*
X140386398Y-105219409D01*
X140447296Y-105300688D01*
X140606613Y-105495820D01*
X140810193Y-105670445D01*
X141034192Y-105798235D01*
X141271997Y-105878402D01*
X141516993Y-105910160D01*
X141762567Y-105892722D01*
X142002105Y-105825301D01*
X142228993Y-105707111D01*
X142436617Y-105537364D01*
X142517473Y-105448856D01*
X142660441Y-105236804D01*
X142753648Y-105009905D01*
X142799313Y-104774791D01*
X142799656Y-104538094D01*
X142756895Y-104306446D01*
X142673250Y-104086478D01*
X142550939Y-103884822D01*
X142392183Y-103708111D01*
X142199199Y-103562977D01*
X141974207Y-103456050D01*
X141719425Y-103393964D01*
X141596623Y-103382569D01*
X141330566Y-103398246D01*
X141078144Y-103468846D01*
X140843818Y-103592282D01*
X140632048Y-103766466D01*
X140447296Y-103989311D01*
X140388877Y-104067561D01*
X140335890Y-104126244D01*
X140302644Y-104148678D01*
X140273661Y-104139732D01*
X140196004Y-104110703D01*
X140076549Y-104064026D01*
X139921638Y-104002231D01*
X139737608Y-103927850D01*
X139530800Y-103843412D01*
X139307554Y-103751449D01*
X139105258Y-103667771D01*
X138896314Y-103581366D01*
X138709502Y-103504138D01*
X138551186Y-103438716D01*
X138427731Y-103387731D01*
X138345502Y-103353812D01*
X138310862Y-103339590D01*
X138310452Y-103339425D01*
X138281202Y-103310972D01*
X138281537Y-103256382D01*
X138313020Y-103168609D01*
X138377215Y-103040608D01*
X138382620Y-103030532D01*
X138431250Y-102935481D01*
X138465672Y-102860424D01*
X138478736Y-102820842D01*
X138463298Y-102788400D01*
X138419742Y-102715895D01*
X138353249Y-102611565D01*
X138269002Y-102483539D01*
X138172184Y-102339948D01*
X138077266Y-102198468D01*
X137992510Y-102067611D01*
X137925504Y-101959292D01*
X137881471Y-101881960D01*
X137865632Y-101844062D01*
X137867643Y-101837607D01*
X137899342Y-101792609D01*
X137964819Y-101715727D01*
X138057952Y-101613721D01*
X138172619Y-101493351D01*
X138302700Y-101361379D01*
X138739768Y-100925039D01*
X139739560Y-101604733D01*
X139963114Y-101501402D01*
X139963775Y-101501096D01*
X140106286Y-101439046D01*
X140264982Y-101375640D01*
X140405632Y-101324558D01*
X140428317Y-101316827D01*
X140533630Y-101277852D01*
X140615466Y-101242707D01*
X140657699Y-101218195D01*
X140663663Y-101208212D01*
X140683671Y-101148286D01*
X140709558Y-101046532D01*
X140738630Y-100914068D01*
X140768194Y-100762011D01*
X140776533Y-100716466D01*
X140806893Y-100551685D01*
X140835491Y-100397930D01*
X140859436Y-100270678D01*
X140875840Y-100185402D01*
X140906094Y-100032126D01*
X141544355Y-100032126D01*
X141622835Y-100032160D01*
X136653460Y-98301561D02*
X136577966Y-98186050D01*
X136577966Y-98186050D02*
X136510383Y-98130336D01*
X136510383Y-98130336D02*
X136387745Y-98086196D01*
X136387745Y-98086196D02*
X136290702Y-98082691D01*
X136290702Y-98082691D02*
X136160944Y-98090632D01*
X136160944Y-98090632D02*
X136029961Y-98389885D01*
X136029961Y-98389885D02*
X135963042Y-98535389D01*
X135963042Y-98535389D02*
X135909210Y-98630463D01*
X135909210Y-98630463D02*
X135862584Y-98679899D01*
X135862584Y-98679899D02*
X135817280Y-98688489D01*
X135817280Y-98688489D02*
X135767418Y-98661028D01*
X135767418Y-98661028D02*
X135734368Y-98630747D01*
X135734368Y-98630747D02*
X135681367Y-98542637D01*
X135681367Y-98542637D02*
X135677653Y-98446804D01*
X135677653Y-98446804D02*
X135718959Y-98358788D01*
X135718959Y-98358788D02*
X135801017Y-98294131D01*
X135801017Y-98294131D02*
X135829992Y-98282567D01*
X135829992Y-98282567D02*
X135920491Y-98227175D01*
X135920491Y-98227175D02*
X135959060Y-98163447D01*
X135959060Y-98163447D02*
X135992054Y-98076034D01*
X135992054Y-98076034D02*
X135866966Y-98076034D01*
X135866966Y-98076034D02*
X135781844Y-98083762D01*
X135781844Y-98083762D02*
X135710062Y-98114034D01*
X135710062Y-98114034D02*
X135627644Y-98177482D01*
X135627644Y-98177482D02*
X135616934Y-98186912D01*
X135616934Y-98186912D02*
X135543609Y-98257487D01*
X135543609Y-98257487D02*
X135504258Y-98318153D01*
X135504258Y-98318153D02*
X135486155Y-98394050D01*
X135486155Y-98394050D02*
X135480226Y-98456970D01*
X135480226Y-98456970D02*
X135478749Y-98569513D01*
X135478749Y-98569513D02*
X135497465Y-98649630D01*
X135497465Y-98649630D02*
X135525253Y-98699610D01*
X135525253Y-98699610D02*
X135586359Y-98778162D01*
X135586359Y-98778162D02*
X135652446Y-98832537D01*
X135652446Y-98832537D02*
X135735559Y-98866948D01*
X135735559Y-98866948D02*
X135847746Y-98885612D01*
X135847746Y-98885612D02*
X136001054Y-98892744D01*
X136001054Y-98892744D02*
X136078864Y-98893313D01*
X136078864Y-98893313D02*
X136172147Y-98891378D01*
X136172147Y-98891378D02*
X136172147Y-98715101D01*
X136172147Y-98715101D02*
X136122104Y-98713056D01*
X136122104Y-98713056D02*
X136113908Y-98707961D01*
X136113908Y-98707961D02*
X136125042Y-98674334D01*
X136125042Y-98674334D02*
X136154507Y-98601970D01*
X136154507Y-98601970D02*
X136196399Y-98505253D01*
X136196399Y-98505253D02*
X136205403Y-98485027D01*
X136205403Y-98485027D02*
X136267558Y-98362797D01*
X136267558Y-98362797D02*
X136322185Y-98295453D01*
X136322185Y-98295453D02*
X136373351Y-98280652D01*
X136373351Y-98280652D02*
X136425124Y-98316053D01*
X136425124Y-98316053D02*
X136448000Y-98345289D01*
X136448000Y-98345289D02*
X136493750Y-98450784D01*
X136493750Y-98450784D02*
X136486192Y-98549524D01*
X136486192Y-98549524D02*
X136430349Y-98632188D01*
X136430349Y-98632188D02*
X136331247Y-98689452D01*
X136331247Y-98689452D02*
X136252586Y-98707812D01*
X136252586Y-98707812D02*
X136172147Y-98715101D01*
X136172147Y-98715101D02*
X136172147Y-98891378D01*
X136172147Y-98891378D02*
X136260649Y-98889541D01*
X136260649Y-98889541D02*
X136395147Y-98875641D01*
X136395147Y-98875641D02*
X136493084Y-98848106D01*
X136493084Y-98848106D02*
X136565189Y-98803428D01*
X136565189Y-98803428D02*
X136622187Y-98738099D01*
X136622187Y-98738099D02*
X136640607Y-98709617D01*
X136640607Y-98709617D02*
X136688578Y-98580237D01*
X136688578Y-98580237D02*
X136691597Y-98438588D01*
X136691597Y-98438588D02*
X136653460Y-98301561D01*
X136653460Y-98301561D02*
X136653460Y-98301561D01*
G36*
X136078864Y-98893313D02*
G01*
X136001054Y-98892744D01*
X135847746Y-98885612D01*
X135735559Y-98866948D01*
X135652446Y-98832537D01*
X135586359Y-98778162D01*
X135531749Y-98707961D01*
X136113908Y-98707961D01*
X136122104Y-98713056D01*
X136172147Y-98715101D01*
X136252586Y-98707812D01*
X136331247Y-98689452D01*
X136430349Y-98632188D01*
X136486192Y-98549524D01*
X136493750Y-98450784D01*
X136448000Y-98345289D01*
X136425124Y-98316053D01*
X136373351Y-98280652D01*
X136322185Y-98295453D01*
X136267558Y-98362797D01*
X136205403Y-98485027D01*
X136196399Y-98505253D01*
X136154507Y-98601970D01*
X136125042Y-98674334D01*
X136113908Y-98707961D01*
X135531749Y-98707961D01*
X135525253Y-98699610D01*
X135497465Y-98649630D01*
X135478749Y-98569513D01*
X135480226Y-98456970D01*
X135486155Y-98394050D01*
X135504258Y-98318153D01*
X135543609Y-98257487D01*
X135616934Y-98186912D01*
X135627644Y-98177482D01*
X135710062Y-98114034D01*
X135781844Y-98083762D01*
X135866966Y-98076034D01*
X135992054Y-98076034D01*
X135959060Y-98163447D01*
X135920491Y-98227175D01*
X135829992Y-98282567D01*
X135801017Y-98294131D01*
X135718959Y-98358788D01*
X135677653Y-98446804D01*
X135681367Y-98542637D01*
X135734368Y-98630747D01*
X135767418Y-98661028D01*
X135817280Y-98688489D01*
X135862584Y-98679899D01*
X135909210Y-98630463D01*
X135963042Y-98535389D01*
X136029961Y-98389885D01*
X136160944Y-98090632D01*
X136290702Y-98082691D01*
X136387745Y-98086196D01*
X136510383Y-98130336D01*
X136577966Y-98186050D01*
X136653460Y-98301561D01*
X136691597Y-98438588D01*
X136688578Y-98580237D01*
X136640607Y-98709617D01*
X136622187Y-98738099D01*
X136565189Y-98803428D01*
X136493084Y-98848106D01*
X136395147Y-98875641D01*
X136260649Y-98889541D01*
X136172147Y-98891378D01*
X136078864Y-98893313D01*
G37*
X136078864Y-98893313D02*
X136001054Y-98892744D01*
X135847746Y-98885612D01*
X135735559Y-98866948D01*
X135652446Y-98832537D01*
X135586359Y-98778162D01*
X135531749Y-98707961D01*
X136113908Y-98707961D01*
X136122104Y-98713056D01*
X136172147Y-98715101D01*
X136252586Y-98707812D01*
X136331247Y-98689452D01*
X136430349Y-98632188D01*
X136486192Y-98549524D01*
X136493750Y-98450784D01*
X136448000Y-98345289D01*
X136425124Y-98316053D01*
X136373351Y-98280652D01*
X136322185Y-98295453D01*
X136267558Y-98362797D01*
X136205403Y-98485027D01*
X136196399Y-98505253D01*
X136154507Y-98601970D01*
X136125042Y-98674334D01*
X136113908Y-98707961D01*
X135531749Y-98707961D01*
X135525253Y-98699610D01*
X135497465Y-98649630D01*
X135478749Y-98569513D01*
X135480226Y-98456970D01*
X135486155Y-98394050D01*
X135504258Y-98318153D01*
X135543609Y-98257487D01*
X135616934Y-98186912D01*
X135627644Y-98177482D01*
X135710062Y-98114034D01*
X135781844Y-98083762D01*
X135866966Y-98076034D01*
X135992054Y-98076034D01*
X135959060Y-98163447D01*
X135920491Y-98227175D01*
X135829992Y-98282567D01*
X135801017Y-98294131D01*
X135718959Y-98358788D01*
X135677653Y-98446804D01*
X135681367Y-98542637D01*
X135734368Y-98630747D01*
X135767418Y-98661028D01*
X135817280Y-98688489D01*
X135862584Y-98679899D01*
X135909210Y-98630463D01*
X135963042Y-98535389D01*
X136029961Y-98389885D01*
X136160944Y-98090632D01*
X136290702Y-98082691D01*
X136387745Y-98086196D01*
X136510383Y-98130336D01*
X136577966Y-98186050D01*
X136653460Y-98301561D01*
X136691597Y-98438588D01*
X136688578Y-98580237D01*
X136640607Y-98709617D01*
X136622187Y-98738099D01*
X136565189Y-98803428D01*
X136493084Y-98848106D01*
X136395147Y-98875641D01*
X136260649Y-98889541D01*
X136172147Y-98891378D01*
X136078864Y-98893313D01*
X136886143Y-105900402D02*
X136766812Y-105891846D01*
X136766812Y-105891846D02*
X136696494Y-105882019D01*
X136696494Y-105882019D02*
X136665821Y-105868401D01*
X136665821Y-105868401D02*
X136665429Y-105848473D01*
X136665429Y-105848473D02*
X136669090Y-105842011D01*
X136669090Y-105842011D02*
X136695602Y-105756060D01*
X136695602Y-105756060D02*
X136694054Y-105644255D01*
X136694054Y-105644255D02*
X136666801Y-105530586D01*
X136666801Y-105530586D02*
X136631545Y-105459490D01*
X136631545Y-105459490D02*
X136575222Y-105386595D01*
X136575222Y-105386595D02*
X136511481Y-105333307D01*
X136511481Y-105333307D02*
X136430490Y-105296725D01*
X136430490Y-105296725D02*
X136322414Y-105273950D01*
X136322414Y-105273950D02*
X136177420Y-105262081D01*
X136177420Y-105262081D02*
X135985674Y-105258218D01*
X135985674Y-105258218D02*
X135948891Y-105258149D01*
X135948891Y-105258149D02*
X135535712Y-105258103D01*
X135535712Y-105258103D02*
X135503661Y-105350046D01*
X135503661Y-105350046D02*
X135481856Y-105415348D01*
X135481856Y-105415348D02*
X135471703Y-105451176D01*
X135471703Y-105451176D02*
X135471609Y-105452230D01*
X135471609Y-105452230D02*
X135499140Y-105455758D01*
X135499140Y-105455758D02*
X135575077Y-105458761D01*
X135575077Y-105458761D02*
X135689435Y-105461010D01*
X135689435Y-105461010D02*
X135832231Y-105462276D01*
X135832231Y-105462276D02*
X135919049Y-105462471D01*
X135919049Y-105462471D02*
X136090227Y-105462877D01*
X136090227Y-105462877D02*
X136212912Y-105464968D01*
X136212912Y-105464968D02*
X136297000Y-105470053D01*
X136297000Y-105470053D02*
X136352386Y-105479440D01*
X136352386Y-105479440D02*
X136388968Y-105494439D01*
X136388968Y-105494439D02*
X136416641Y-105516358D01*
X136416641Y-105516358D02*
X136429968Y-105530043D01*
X136429968Y-105530043D02*
X136483672Y-105624051D01*
X136483672Y-105624051D02*
X136487693Y-105726636D01*
X136487693Y-105726636D02*
X136442275Y-105819710D01*
X136442275Y-105819710D02*
X136425877Y-105836922D01*
X136425877Y-105836922D02*
X136395043Y-105862168D01*
X136395043Y-105862168D02*
X136358469Y-105879680D01*
X136358469Y-105879680D02*
X136305585Y-105890858D01*
X136305585Y-105890858D02*
X136225823Y-105897104D01*
X136225823Y-105897104D02*
X136108615Y-105899818D01*
X136108615Y-105899818D02*
X135947009Y-105900402D01*
X135947009Y-105900402D02*
X135535712Y-105900402D01*
X135535712Y-105900402D02*
X135503661Y-105992345D01*
X135503661Y-105992345D02*
X135481856Y-106057647D01*
X135481856Y-106057647D02*
X135471703Y-106093475D01*
X135471703Y-106093475D02*
X135471609Y-106094529D01*
X135471609Y-106094529D02*
X135499552Y-106097225D01*
X135499552Y-106097225D02*
X135578370Y-106099655D01*
X135578370Y-106099655D02*
X135700547Y-106101722D01*
X135700547Y-106101722D02*
X135858568Y-106103329D01*
X135858568Y-106103329D02*
X136044917Y-106104377D01*
X136044917Y-106104377D02*
X136252080Y-106104769D01*
X136252080Y-106104769D02*
X136261294Y-106104770D01*
X136261294Y-106104770D02*
X137050980Y-106104770D01*
X137050980Y-106104770D02*
X137091003Y-106009885D01*
X137091003Y-106009885D02*
X137131027Y-105915000D01*
X137131027Y-105915000D02*
X136886143Y-105900402D01*
X136886143Y-105900402D02*
X136886143Y-105900402D01*
G36*
X135948891Y-105258149D02*
G01*
X135985674Y-105258218D01*
X136177420Y-105262081D01*
X136322414Y-105273950D01*
X136430490Y-105296725D01*
X136511481Y-105333307D01*
X136575222Y-105386595D01*
X136631545Y-105459490D01*
X136666801Y-105530586D01*
X136694054Y-105644255D01*
X136695602Y-105756060D01*
X136669090Y-105842011D01*
X136665429Y-105848473D01*
X136665821Y-105868401D01*
X136696494Y-105882019D01*
X136766812Y-105891846D01*
X136886143Y-105900402D01*
X137131027Y-105915000D01*
X137091003Y-106009885D01*
X137050980Y-106104770D01*
X136261294Y-106104770D01*
X136252080Y-106104769D01*
X136044917Y-106104377D01*
X135858568Y-106103329D01*
X135700547Y-106101722D01*
X135578370Y-106099655D01*
X135499552Y-106097225D01*
X135471609Y-106094529D01*
X135471703Y-106093475D01*
X135481856Y-106057647D01*
X135503661Y-105992345D01*
X135535712Y-105900402D01*
X135947009Y-105900402D01*
X136108615Y-105899818D01*
X136225823Y-105897104D01*
X136305585Y-105890858D01*
X136358469Y-105879680D01*
X136395043Y-105862168D01*
X136425877Y-105836922D01*
X136442275Y-105819710D01*
X136487693Y-105726636D01*
X136483672Y-105624051D01*
X136429968Y-105530043D01*
X136416641Y-105516358D01*
X136388968Y-105494439D01*
X136352386Y-105479440D01*
X136297000Y-105470053D01*
X136212912Y-105464968D01*
X136090227Y-105462877D01*
X135919049Y-105462471D01*
X135832231Y-105462276D01*
X135689435Y-105461010D01*
X135575077Y-105458761D01*
X135499140Y-105455758D01*
X135471609Y-105452230D01*
X135471703Y-105451176D01*
X135481856Y-105415348D01*
X135503661Y-105350046D01*
X135535712Y-105258103D01*
X135948891Y-105258149D01*
G37*
X135948891Y-105258149D02*
X135985674Y-105258218D01*
X136177420Y-105262081D01*
X136322414Y-105273950D01*
X136430490Y-105296725D01*
X136511481Y-105333307D01*
X136575222Y-105386595D01*
X136631545Y-105459490D01*
X136666801Y-105530586D01*
X136694054Y-105644255D01*
X136695602Y-105756060D01*
X136669090Y-105842011D01*
X136665429Y-105848473D01*
X136665821Y-105868401D01*
X136696494Y-105882019D01*
X136766812Y-105891846D01*
X136886143Y-105900402D01*
X137131027Y-105915000D01*
X137091003Y-106009885D01*
X137050980Y-106104770D01*
X136261294Y-106104770D01*
X136252080Y-106104769D01*
X136044917Y-106104377D01*
X135858568Y-106103329D01*
X135700547Y-106101722D01*
X135578370Y-106099655D01*
X135499552Y-106097225D01*
X135471609Y-106094529D01*
X135471703Y-106093475D01*
X135481856Y-106057647D01*
X135503661Y-105992345D01*
X135535712Y-105900402D01*
X135947009Y-105900402D01*
X136108615Y-105899818D01*
X136225823Y-105897104D01*
X136305585Y-105890858D01*
X136358469Y-105879680D01*
X136395043Y-105862168D01*
X136425877Y-105836922D01*
X136442275Y-105819710D01*
X136487693Y-105726636D01*
X136483672Y-105624051D01*
X136429968Y-105530043D01*
X136416641Y-105516358D01*
X136388968Y-105494439D01*
X136352386Y-105479440D01*
X136297000Y-105470053D01*
X136212912Y-105464968D01*
X136090227Y-105462877D01*
X135919049Y-105462471D01*
X135832231Y-105462276D01*
X135689435Y-105461010D01*
X135575077Y-105458761D01*
X135499140Y-105455758D01*
X135471609Y-105452230D01*
X135471703Y-105451176D01*
X135481856Y-105415348D01*
X135503661Y-105350046D01*
X135535712Y-105258103D01*
X135948891Y-105258149D01*
X136688080Y-103579057D02*
X136639141Y-103446435D01*
X136639141Y-103446435D02*
X136552581Y-103338990D01*
X136552581Y-103338990D02*
X136491648Y-103296968D01*
X136491648Y-103296968D02*
X136379839Y-103251157D01*
X136379839Y-103251157D02*
X136298994Y-103252109D01*
X136298994Y-103252109D02*
X136244622Y-103300192D01*
X136244622Y-103300192D02*
X136235376Y-103317983D01*
X136235376Y-103317983D02*
X136206550Y-103394796D01*
X136206550Y-103394796D02*
X136213935Y-103434024D01*
X136213935Y-103434024D02*
X136262342Y-103447311D01*
X136262342Y-103447311D02*
X136289080Y-103447988D01*
X136289080Y-103447988D02*
X136387452Y-103472314D01*
X136387452Y-103472314D02*
X136456266Y-103535719D01*
X136456266Y-103535719D02*
X136489502Y-103623846D01*
X136489502Y-103623846D02*
X136481139Y-103722337D01*
X136481139Y-103722337D02*
X136437704Y-103802398D01*
X136437704Y-103802398D02*
X136412928Y-103829439D01*
X136412928Y-103829439D02*
X136382871Y-103848606D01*
X136382871Y-103848606D02*
X136337435Y-103861554D01*
X136337435Y-103861554D02*
X136266524Y-103869936D01*
X136266524Y-103869936D02*
X136160040Y-103875407D01*
X136160040Y-103875407D02*
X136007888Y-103879622D01*
X136007888Y-103879622D02*
X135959713Y-103880713D01*
X135959713Y-103880713D02*
X135794905Y-103884693D01*
X135794905Y-103884693D02*
X135678912Y-103889219D01*
X135678912Y-103889219D02*
X135602167Y-103896005D01*
X135602167Y-103896005D02*
X135555107Y-103906769D01*
X135555107Y-103906769D02*
X135528165Y-103923227D01*
X135528165Y-103923227D02*
X135511777Y-103947094D01*
X135511777Y-103947094D02*
X135504537Y-103962374D01*
X135504537Y-103962374D02*
X135479780Y-104027267D01*
X135479780Y-104027267D02*
X135471609Y-104065466D01*
X135471609Y-104065466D02*
X135498897Y-104078088D01*
X135498897Y-104078088D02*
X135581397Y-104085792D01*
X135581397Y-104085792D02*
X135720059Y-104088620D01*
X135720059Y-104088620D02*
X135915838Y-104086614D01*
X135915838Y-104086614D02*
X135946035Y-104085989D01*
X135946035Y-104085989D02*
X136124651Y-104081579D01*
X136124651Y-104081579D02*
X136255077Y-104076365D01*
X136255077Y-104076365D02*
X136347508Y-104068945D01*
X136347508Y-104068945D02*
X136412142Y-104057918D01*
X136412142Y-104057918D02*
X136459175Y-104041883D01*
X136459175Y-104041883D02*
X136498804Y-104019439D01*
X136498804Y-104019439D02*
X136515785Y-104007698D01*
X136515785Y-104007698D02*
X136590920Y-103940381D01*
X136590920Y-103940381D02*
X136649362Y-103865090D01*
X136649362Y-103865090D02*
X136654464Y-103855872D01*
X136654464Y-103855872D02*
X136694740Y-103720867D01*
X136694740Y-103720867D02*
X136688080Y-103579057D01*
X136688080Y-103579057D02*
X136688080Y-103579057D01*
G36*
X136491648Y-103296968D02*
G01*
X136552581Y-103338990D01*
X136639141Y-103446435D01*
X136688080Y-103579057D01*
X136694740Y-103720867D01*
X136654464Y-103855872D01*
X136649362Y-103865090D01*
X136590920Y-103940381D01*
X136515785Y-104007698D01*
X136498804Y-104019439D01*
X136459175Y-104041883D01*
X136412142Y-104057918D01*
X136347508Y-104068945D01*
X136255077Y-104076365D01*
X136124651Y-104081579D01*
X135946035Y-104085989D01*
X135915838Y-104086614D01*
X135720059Y-104088620D01*
X135581397Y-104085792D01*
X135498897Y-104078088D01*
X135471609Y-104065466D01*
X135479780Y-104027267D01*
X135504537Y-103962374D01*
X135511777Y-103947094D01*
X135528165Y-103923227D01*
X135555107Y-103906769D01*
X135602167Y-103896005D01*
X135678912Y-103889219D01*
X135794905Y-103884693D01*
X135959713Y-103880713D01*
X136007888Y-103879622D01*
X136160040Y-103875407D01*
X136266524Y-103869936D01*
X136337435Y-103861554D01*
X136382871Y-103848606D01*
X136412928Y-103829439D01*
X136437704Y-103802398D01*
X136481139Y-103722337D01*
X136489502Y-103623846D01*
X136456266Y-103535719D01*
X136387452Y-103472314D01*
X136289080Y-103447988D01*
X136262342Y-103447311D01*
X136213935Y-103434024D01*
X136206550Y-103394796D01*
X136235376Y-103317983D01*
X136244622Y-103300192D01*
X136298994Y-103252109D01*
X136379839Y-103251157D01*
X136491648Y-103296968D01*
G37*
X136491648Y-103296968D02*
X136552581Y-103338990D01*
X136639141Y-103446435D01*
X136688080Y-103579057D01*
X136694740Y-103720867D01*
X136654464Y-103855872D01*
X136649362Y-103865090D01*
X136590920Y-103940381D01*
X136515785Y-104007698D01*
X136498804Y-104019439D01*
X136459175Y-104041883D01*
X136412142Y-104057918D01*
X136347508Y-104068945D01*
X136255077Y-104076365D01*
X136124651Y-104081579D01*
X135946035Y-104085989D01*
X135915838Y-104086614D01*
X135720059Y-104088620D01*
X135581397Y-104085792D01*
X135498897Y-104078088D01*
X135471609Y-104065466D01*
X135479780Y-104027267D01*
X135504537Y-103962374D01*
X135511777Y-103947094D01*
X135528165Y-103923227D01*
X135555107Y-103906769D01*
X135602167Y-103896005D01*
X135678912Y-103889219D01*
X135794905Y-103884693D01*
X135959713Y-103880713D01*
X136007888Y-103879622D01*
X136160040Y-103875407D01*
X136266524Y-103869936D01*
X136337435Y-103861554D01*
X136382871Y-103848606D01*
X136412928Y-103829439D01*
X136437704Y-103802398D01*
X136481139Y-103722337D01*
X136489502Y-103623846D01*
X136456266Y-103535719D01*
X136387452Y-103472314D01*
X136289080Y-103447988D01*
X136262342Y-103447311D01*
X136213935Y-103434024D01*
X136206550Y-103394796D01*
X136235376Y-103317983D01*
X136244622Y-103300192D01*
X136298994Y-103252109D01*
X136379839Y-103251157D01*
X136491648Y-103296968D01*
X136685640Y-104565056D02*
X136643158Y-104450657D01*
X136643158Y-104450657D02*
X136642342Y-104449348D01*
X136642342Y-104449348D02*
X136590270Y-104378597D01*
X136590270Y-104378597D02*
X136529416Y-104326364D01*
X136529416Y-104326364D02*
X136450113Y-104289629D01*
X136450113Y-104289629D02*
X136342691Y-104265366D01*
X136342691Y-104265366D02*
X136197483Y-104250555D01*
X136197483Y-104250555D02*
X136004821Y-104242171D01*
X136004821Y-104242171D02*
X135977372Y-104241436D01*
X135977372Y-104241436D02*
X135563479Y-104230880D01*
X135563479Y-104230880D02*
X135517544Y-104319709D01*
X135517544Y-104319709D02*
X135486502Y-104383982D01*
X135486502Y-104383982D02*
X135471794Y-104422790D01*
X135471794Y-104422790D02*
X135471609Y-104424585D01*
X135471609Y-104424585D02*
X135498750Y-104431300D01*
X135498750Y-104431300D02*
X135571959Y-104436635D01*
X135571959Y-104436635D02*
X135678919Y-104439917D01*
X135678919Y-104439917D02*
X135765531Y-104440632D01*
X135765531Y-104440632D02*
X135905838Y-104440649D01*
X135905838Y-104440649D02*
X135993949Y-104447063D01*
X135993949Y-104447063D02*
X136035975Y-104469420D01*
X136035975Y-104469420D02*
X136038025Y-104517268D01*
X136038025Y-104517268D02*
X136006210Y-104600151D01*
X136006210Y-104600151D02*
X135947728Y-104725287D01*
X135947728Y-104725287D02*
X135899155Y-104817303D01*
X135899155Y-104817303D02*
X135857014Y-104864629D01*
X135857014Y-104864629D02*
X135811084Y-104878542D01*
X135811084Y-104878542D02*
X135808811Y-104878563D01*
X135808811Y-104878563D02*
X135729689Y-104855605D01*
X135729689Y-104855605D02*
X135686945Y-104787630D01*
X135686945Y-104787630D02*
X135680754Y-104683602D01*
X135680754Y-104683602D02*
X135681828Y-104608670D01*
X135681828Y-104608670D02*
X135660247Y-104569161D01*
X135660247Y-104569161D02*
X135608409Y-104544522D01*
X135608409Y-104544522D02*
X135542368Y-104530341D01*
X135542368Y-104530341D02*
X135504896Y-104550777D01*
X135504896Y-104550777D02*
X135499533Y-104558472D01*
X135499533Y-104558472D02*
X135477994Y-104630917D01*
X135477994Y-104630917D02*
X135474945Y-104732367D01*
X135474945Y-104732367D02*
X135489222Y-104836843D01*
X135489222Y-104836843D02*
X135515312Y-104910875D01*
X135515312Y-104910875D02*
X135602215Y-105013228D01*
X135602215Y-105013228D02*
X135723184Y-105071409D01*
X135723184Y-105071409D02*
X135817692Y-105082931D01*
X135817692Y-105082931D02*
X135902938Y-105074138D01*
X135902938Y-105074138D02*
X135972524Y-105042320D01*
X135972524Y-105042320D02*
X136034328Y-104979316D01*
X136034328Y-104979316D02*
X136096228Y-104876969D01*
X136096228Y-104876969D02*
X136166103Y-104727118D01*
X136166103Y-104727118D02*
X136170052Y-104717988D01*
X136170052Y-104717988D02*
X136232412Y-104583003D01*
X136232412Y-104583003D02*
X136283554Y-104499706D01*
X136283554Y-104499706D02*
X136329512Y-104464003D01*
X136329512Y-104464003D02*
X136376317Y-104471797D01*
X136376317Y-104471797D02*
X136430002Y-104518993D01*
X136430002Y-104518993D02*
X136442356Y-104533106D01*
X136442356Y-104533106D02*
X136490259Y-104627641D01*
X136490259Y-104627641D02*
X136488242Y-104725594D01*
X136488242Y-104725594D02*
X136441276Y-104810903D01*
X136441276Y-104810903D02*
X136354331Y-104867504D01*
X136354331Y-104867504D02*
X136337266Y-104872763D01*
X136337266Y-104872763D02*
X136254496Y-104923977D01*
X136254496Y-104923977D02*
X136214628Y-104988963D01*
X136214628Y-104988963D02*
X136175118Y-105082931D01*
X136175118Y-105082931D02*
X136277342Y-105082931D01*
X136277342Y-105082931D02*
X136425928Y-105054347D01*
X136425928Y-105054347D02*
X136562216Y-104969505D01*
X136562216Y-104969505D02*
X136607809Y-104925355D01*
X136607809Y-104925355D02*
X136666326Y-104824995D01*
X136666326Y-104824995D02*
X136692816Y-104697365D01*
X136692816Y-104697365D02*
X136685640Y-104565056D01*
X136685640Y-104565056D02*
X136685640Y-104565056D01*
G36*
X135977372Y-104241436D02*
G01*
X136004821Y-104242171D01*
X136197483Y-104250555D01*
X136342691Y-104265366D01*
X136450113Y-104289629D01*
X136529416Y-104326364D01*
X136590270Y-104378597D01*
X136642342Y-104449348D01*
X136643158Y-104450657D01*
X136685640Y-104565056D01*
X136692816Y-104697365D01*
X136666326Y-104824995D01*
X136607809Y-104925355D01*
X136562216Y-104969505D01*
X136425928Y-105054347D01*
X136277342Y-105082931D01*
X136175118Y-105082931D01*
X136214628Y-104988963D01*
X136254496Y-104923977D01*
X136337266Y-104872763D01*
X136354331Y-104867504D01*
X136441276Y-104810903D01*
X136488242Y-104725594D01*
X136490259Y-104627641D01*
X136442356Y-104533106D01*
X136430002Y-104518993D01*
X136376317Y-104471797D01*
X136329512Y-104464003D01*
X136283554Y-104499706D01*
X136232412Y-104583003D01*
X136170052Y-104717988D01*
X136166103Y-104727118D01*
X136096228Y-104876969D01*
X136034328Y-104979316D01*
X135972524Y-105042320D01*
X135902938Y-105074138D01*
X135817692Y-105082931D01*
X135723184Y-105071409D01*
X135602215Y-105013228D01*
X135515312Y-104910875D01*
X135489222Y-104836843D01*
X135474945Y-104732367D01*
X135477994Y-104630917D01*
X135499533Y-104558472D01*
X135504896Y-104550777D01*
X135542368Y-104530341D01*
X135608409Y-104544522D01*
X135660247Y-104569161D01*
X135681828Y-104608670D01*
X135680754Y-104683602D01*
X135686945Y-104787630D01*
X135729689Y-104855605D01*
X135808811Y-104878563D01*
X135811084Y-104878542D01*
X135857014Y-104864629D01*
X135899155Y-104817303D01*
X135947728Y-104725287D01*
X136006210Y-104600151D01*
X136038025Y-104517268D01*
X136035975Y-104469420D01*
X135993949Y-104447063D01*
X135905838Y-104440649D01*
X135765531Y-104440632D01*
X135678919Y-104439917D01*
X135571959Y-104436635D01*
X135498750Y-104431300D01*
X135471609Y-104424585D01*
X135471794Y-104422790D01*
X135486502Y-104383982D01*
X135517544Y-104319709D01*
X135563479Y-104230880D01*
X135977372Y-104241436D01*
G37*
X135977372Y-104241436D02*
X136004821Y-104242171D01*
X136197483Y-104250555D01*
X136342691Y-104265366D01*
X136450113Y-104289629D01*
X136529416Y-104326364D01*
X136590270Y-104378597D01*
X136642342Y-104449348D01*
X136643158Y-104450657D01*
X136685640Y-104565056D01*
X136692816Y-104697365D01*
X136666326Y-104824995D01*
X136607809Y-104925355D01*
X136562216Y-104969505D01*
X136425928Y-105054347D01*
X136277342Y-105082931D01*
X136175118Y-105082931D01*
X136214628Y-104988963D01*
X136254496Y-104923977D01*
X136337266Y-104872763D01*
X136354331Y-104867504D01*
X136441276Y-104810903D01*
X136488242Y-104725594D01*
X136490259Y-104627641D01*
X136442356Y-104533106D01*
X136430002Y-104518993D01*
X136376317Y-104471797D01*
X136329512Y-104464003D01*
X136283554Y-104499706D01*
X136232412Y-104583003D01*
X136170052Y-104717988D01*
X136166103Y-104727118D01*
X136096228Y-104876969D01*
X136034328Y-104979316D01*
X135972524Y-105042320D01*
X135902938Y-105074138D01*
X135817692Y-105082931D01*
X135723184Y-105071409D01*
X135602215Y-105013228D01*
X135515312Y-104910875D01*
X135489222Y-104836843D01*
X135474945Y-104732367D01*
X135477994Y-104630917D01*
X135499533Y-104558472D01*
X135504896Y-104550777D01*
X135542368Y-104530341D01*
X135608409Y-104544522D01*
X135660247Y-104569161D01*
X135681828Y-104608670D01*
X135680754Y-104683602D01*
X135686945Y-104787630D01*
X135729689Y-104855605D01*
X135808811Y-104878563D01*
X135811084Y-104878542D01*
X135857014Y-104864629D01*
X135899155Y-104817303D01*
X135947728Y-104725287D01*
X136006210Y-104600151D01*
X136038025Y-104517268D01*
X136035975Y-104469420D01*
X135993949Y-104447063D01*
X135905838Y-104440649D01*
X135765531Y-104440632D01*
X135678919Y-104439917D01*
X135571959Y-104436635D01*
X135498750Y-104431300D01*
X135471609Y-104424585D01*
X135471794Y-104422790D01*
X135486502Y-104383982D01*
X135517544Y-104319709D01*
X135563479Y-104230880D01*
X135977372Y-104241436D01*
X136725324Y-108329448D02*
X136647889Y-108214342D01*
X136647889Y-108214342D02*
X136536051Y-108125389D01*
X136536051Y-108125389D02*
X136393735Y-108072251D01*
X136393735Y-108072251D02*
X136288985Y-108061503D01*
X136288985Y-108061503D02*
X136245274Y-108062724D01*
X136245274Y-108062724D02*
X136211806Y-108072944D01*
X136211806Y-108072944D02*
X136181821Y-108101039D01*
X136181821Y-108101039D02*
X136148560Y-108155884D01*
X136148560Y-108155884D02*
X136105262Y-108246355D01*
X136105262Y-108246355D02*
X136045167Y-108381328D01*
X136045167Y-108381328D02*
X136044866Y-108382011D01*
X136044866Y-108382011D02*
X135987963Y-108506249D01*
X135987963Y-108506249D02*
X135937435Y-108608127D01*
X135937435Y-108608127D02*
X135898720Y-108677233D01*
X135898720Y-108677233D02*
X135877260Y-108703154D01*
X135877260Y-108703154D02*
X135877087Y-108703161D01*
X135877087Y-108703161D02*
X135830356Y-108680315D01*
X135830356Y-108680315D02*
X135778846Y-108626891D01*
X135778846Y-108626891D02*
X135741739Y-108565558D01*
X135741739Y-108565558D02*
X135734368Y-108534485D01*
X135734368Y-108534485D02*
X135759862Y-108449711D01*
X135759862Y-108449711D02*
X135823709Y-108376707D01*
X135823709Y-108376707D02*
X135893906Y-108341087D01*
X135893906Y-108341087D02*
X135945657Y-108306820D01*
X135945657Y-108306820D02*
X136004591Y-108239697D01*
X136004591Y-108239697D02*
X136055504Y-108160792D01*
X136055504Y-108160792D02*
X136083191Y-108091179D01*
X136083191Y-108091179D02*
X136084713Y-108076623D01*
X136084713Y-108076623D02*
X136059679Y-108060237D01*
X136059679Y-108060237D02*
X135995689Y-108059250D01*
X135995689Y-108059250D02*
X135909407Y-108071292D01*
X135909407Y-108071292D02*
X135817499Y-108093993D01*
X135817499Y-108093993D02*
X135736631Y-108124986D01*
X135736631Y-108124986D02*
X135733491Y-108126552D01*
X135733491Y-108126552D02*
X135603266Y-108219819D01*
X135603266Y-108219819D02*
X135514689Y-108340696D01*
X135514689Y-108340696D02*
X135471214Y-108477973D01*
X135471214Y-108477973D02*
X135476294Y-108620440D01*
X135476294Y-108620440D02*
X135533384Y-108756888D01*
X135533384Y-108756888D02*
X135537398Y-108762955D01*
X135537398Y-108762955D02*
X135634674Y-108870290D01*
X135634674Y-108870290D02*
X135761591Y-108940868D01*
X135761591Y-108940868D02*
X135928474Y-108979926D01*
X135928474Y-108979926D02*
X135975361Y-108985168D01*
X135975361Y-108985168D02*
X136196671Y-108994452D01*
X136196671Y-108994452D02*
X136299876Y-108983322D01*
X136299876Y-108983322D02*
X136299876Y-108703161D01*
X136299876Y-108703161D02*
X136235497Y-108699521D01*
X136235497Y-108699521D02*
X136216709Y-108679611D01*
X136216709Y-108679611D02*
X136230765Y-108629974D01*
X136230765Y-108629974D02*
X136263991Y-108551733D01*
X136263991Y-108551733D02*
X136305641Y-108464274D01*
X136305641Y-108464274D02*
X136306744Y-108462101D01*
X136306744Y-108462101D02*
X136345735Y-108387970D01*
X136345735Y-108387970D02*
X136371756Y-108358219D01*
X136371756Y-108358219D02*
X136399035Y-108365555D01*
X136399035Y-108365555D02*
X136434879Y-108396447D01*
X136434879Y-108396447D02*
X136486749Y-108475040D01*
X136486749Y-108475040D02*
X136490561Y-108559677D01*
X136490561Y-108559677D02*
X136452811Y-108635597D01*
X136452811Y-108635597D02*
X136379999Y-108688035D01*
X136379999Y-108688035D02*
X136299876Y-108703161D01*
X136299876Y-108703161D02*
X136299876Y-108983322D01*
X136299876Y-108983322D02*
X136373739Y-108975356D01*
X136373739Y-108975356D02*
X136514171Y-108926366D01*
X136514171Y-108926366D02*
X136612553Y-108858164D01*
X136612553Y-108858164D02*
X136711970Y-108735065D01*
X136711970Y-108735065D02*
X136761289Y-108599472D01*
X136761289Y-108599472D02*
X136764432Y-108461045D01*
X136764432Y-108461045D02*
X136725324Y-108329448D01*
X136725324Y-108329448D02*
X136725324Y-108329448D01*
G36*
X136196671Y-108994452D02*
G01*
X135975361Y-108985168D01*
X135928474Y-108979926D01*
X135761591Y-108940868D01*
X135634674Y-108870290D01*
X135537398Y-108762955D01*
X135533384Y-108756888D01*
X135476294Y-108620440D01*
X135471214Y-108477973D01*
X135514689Y-108340696D01*
X135603266Y-108219819D01*
X135733491Y-108126552D01*
X135736631Y-108124986D01*
X135817499Y-108093993D01*
X135909407Y-108071292D01*
X135995689Y-108059250D01*
X136059679Y-108060237D01*
X136084713Y-108076623D01*
X136083191Y-108091179D01*
X136055504Y-108160792D01*
X136004591Y-108239697D01*
X135945657Y-108306820D01*
X135893906Y-108341087D01*
X135823709Y-108376707D01*
X135759862Y-108449711D01*
X135734368Y-108534485D01*
X135741739Y-108565558D01*
X135778846Y-108626891D01*
X135830356Y-108680315D01*
X135877087Y-108703161D01*
X135877260Y-108703154D01*
X135896751Y-108679611D01*
X136216709Y-108679611D01*
X136235497Y-108699521D01*
X136299876Y-108703161D01*
X136379999Y-108688035D01*
X136452811Y-108635597D01*
X136490561Y-108559677D01*
X136486749Y-108475040D01*
X136434879Y-108396447D01*
X136399035Y-108365555D01*
X136371756Y-108358219D01*
X136345735Y-108387970D01*
X136306744Y-108462101D01*
X136305641Y-108464274D01*
X136263991Y-108551733D01*
X136230765Y-108629974D01*
X136216709Y-108679611D01*
X135896751Y-108679611D01*
X135898720Y-108677233D01*
X135937435Y-108608127D01*
X135987963Y-108506249D01*
X136044866Y-108382011D01*
X136045167Y-108381328D01*
X136105262Y-108246355D01*
X136148560Y-108155884D01*
X136181821Y-108101039D01*
X136211806Y-108072944D01*
X136245274Y-108062724D01*
X136288985Y-108061503D01*
X136393735Y-108072251D01*
X136536051Y-108125389D01*
X136647889Y-108214342D01*
X136725324Y-108329448D01*
X136764432Y-108461045D01*
X136761289Y-108599472D01*
X136711970Y-108735065D01*
X136612553Y-108858164D01*
X136514171Y-108926366D01*
X136373739Y-108975356D01*
X136299876Y-108983322D01*
X136196671Y-108994452D01*
G37*
X136196671Y-108994452D02*
X135975361Y-108985168D01*
X135928474Y-108979926D01*
X135761591Y-108940868D01*
X135634674Y-108870290D01*
X135537398Y-108762955D01*
X135533384Y-108756888D01*
X135476294Y-108620440D01*
X135471214Y-108477973D01*
X135514689Y-108340696D01*
X135603266Y-108219819D01*
X135733491Y-108126552D01*
X135736631Y-108124986D01*
X135817499Y-108093993D01*
X135909407Y-108071292D01*
X135995689Y-108059250D01*
X136059679Y-108060237D01*
X136084713Y-108076623D01*
X136083191Y-108091179D01*
X136055504Y-108160792D01*
X136004591Y-108239697D01*
X135945657Y-108306820D01*
X135893906Y-108341087D01*
X135823709Y-108376707D01*
X135759862Y-108449711D01*
X135734368Y-108534485D01*
X135741739Y-108565558D01*
X135778846Y-108626891D01*
X135830356Y-108680315D01*
X135877087Y-108703161D01*
X135877260Y-108703154D01*
X135896751Y-108679611D01*
X136216709Y-108679611D01*
X136235497Y-108699521D01*
X136299876Y-108703161D01*
X136379999Y-108688035D01*
X136452811Y-108635597D01*
X136490561Y-108559677D01*
X136486749Y-108475040D01*
X136434879Y-108396447D01*
X136399035Y-108365555D01*
X136371756Y-108358219D01*
X136345735Y-108387970D01*
X136306744Y-108462101D01*
X136305641Y-108464274D01*
X136263991Y-108551733D01*
X136230765Y-108629974D01*
X136216709Y-108679611D01*
X135896751Y-108679611D01*
X135898720Y-108677233D01*
X135937435Y-108608127D01*
X135987963Y-108506249D01*
X136044866Y-108382011D01*
X136045167Y-108381328D01*
X136105262Y-108246355D01*
X136148560Y-108155884D01*
X136181821Y-108101039D01*
X136211806Y-108072944D01*
X136245274Y-108062724D01*
X136288985Y-108061503D01*
X136393735Y-108072251D01*
X136536051Y-108125389D01*
X136647889Y-108214342D01*
X136725324Y-108329448D01*
X136764432Y-108461045D01*
X136761289Y-108599472D01*
X136711970Y-108735065D01*
X136612553Y-108858164D01*
X136514171Y-108926366D01*
X136373739Y-108975356D01*
X136299876Y-108983322D01*
X136196671Y-108994452D01*
X136669982Y-99309310D02*
X136654731Y-99274415D01*
X136654731Y-99274415D02*
X136588765Y-99191123D01*
X136588765Y-99191123D02*
X136493382Y-99119897D01*
X136493382Y-99119897D02*
X136391594Y-99075847D01*
X136391594Y-99075847D02*
X136341413Y-99068678D01*
X136341413Y-99068678D02*
X136271353Y-99092715D01*
X136271353Y-99092715D02*
X136234283Y-99145439D01*
X136234283Y-99145439D02*
X136211836Y-99201969D01*
X136211836Y-99201969D02*
X136207700Y-99227854D01*
X136207700Y-99227854D02*
X136237717Y-99240458D01*
X136237717Y-99240458D02*
X136303039Y-99265346D01*
X136303039Y-99265346D02*
X136332555Y-99276265D01*
X136332555Y-99276265D02*
X136434652Y-99337492D01*
X136434652Y-99337492D02*
X136485577Y-99426139D01*
X136485577Y-99426139D02*
X136484011Y-99539807D01*
X136484011Y-99539807D02*
X136482006Y-99548226D01*
X136482006Y-99548226D02*
X136453233Y-99608912D01*
X136453233Y-99608912D02*
X136397141Y-99653526D01*
X136397141Y-99653526D02*
X136306837Y-99683998D01*
X136306837Y-99683998D02*
X136175429Y-99702256D01*
X136175429Y-99702256D02*
X135996026Y-99710229D01*
X135996026Y-99710229D02*
X135900567Y-99710977D01*
X135900567Y-99710977D02*
X135750087Y-99711348D01*
X135750087Y-99711348D02*
X135647505Y-99713777D01*
X135647505Y-99713777D02*
X135582328Y-99720240D01*
X135582328Y-99720240D02*
X135544062Y-99732712D01*
X135544062Y-99732712D02*
X135522215Y-99753167D01*
X135522215Y-99753167D02*
X135506293Y-99783581D01*
X135506293Y-99783581D02*
X135505491Y-99785339D01*
X135505491Y-99785339D02*
X135480728Y-99843909D01*
X135480728Y-99843909D02*
X135471609Y-99872925D01*
X135471609Y-99872925D02*
X135499178Y-99877384D01*
X135499178Y-99877384D02*
X135575380Y-99881201D01*
X135575380Y-99881201D02*
X135690459Y-99884101D01*
X135690459Y-99884101D02*
X135834659Y-99885809D01*
X135834659Y-99885809D02*
X135940186Y-99886149D01*
X135940186Y-99886149D02*
X136144387Y-99884412D01*
X136144387Y-99884412D02*
X136299303Y-99877618D01*
X136299303Y-99877618D02*
X136413976Y-99863393D01*
X136413976Y-99863393D02*
X136497449Y-99839362D01*
X136497449Y-99839362D02*
X136558764Y-99803152D01*
X136558764Y-99803152D02*
X136606966Y-99752388D01*
X136606966Y-99752388D02*
X136640607Y-99702261D01*
X136640607Y-99702261D02*
X136685381Y-99581725D01*
X136685381Y-99581725D02*
X136695479Y-99441443D01*
X136695479Y-99441443D02*
X136669982Y-99309310D01*
X136669982Y-99309310D02*
X136669982Y-99309310D01*
G36*
X136391594Y-99075847D02*
G01*
X136493382Y-99119897D01*
X136588765Y-99191123D01*
X136654731Y-99274415D01*
X136669982Y-99309310D01*
X136695479Y-99441443D01*
X136685381Y-99581725D01*
X136640607Y-99702261D01*
X136606966Y-99752388D01*
X136558764Y-99803152D01*
X136497449Y-99839362D01*
X136413976Y-99863393D01*
X136299303Y-99877618D01*
X136144387Y-99884412D01*
X135940186Y-99886149D01*
X135834659Y-99885809D01*
X135690459Y-99884101D01*
X135575380Y-99881201D01*
X135499178Y-99877384D01*
X135471609Y-99872925D01*
X135480728Y-99843909D01*
X135505491Y-99785339D01*
X135506293Y-99783581D01*
X135522215Y-99753167D01*
X135544062Y-99732712D01*
X135582328Y-99720240D01*
X135647505Y-99713777D01*
X135750087Y-99711348D01*
X135900567Y-99710977D01*
X135996026Y-99710229D01*
X136175429Y-99702256D01*
X136306837Y-99683998D01*
X136397141Y-99653526D01*
X136453233Y-99608912D01*
X136482006Y-99548226D01*
X136484011Y-99539807D01*
X136485577Y-99426139D01*
X136434652Y-99337492D01*
X136332555Y-99276265D01*
X136303039Y-99265346D01*
X136237717Y-99240458D01*
X136207700Y-99227854D01*
X136211836Y-99201969D01*
X136234283Y-99145439D01*
X136271353Y-99092715D01*
X136341413Y-99068678D01*
X136391594Y-99075847D01*
G37*
X136391594Y-99075847D02*
X136493382Y-99119897D01*
X136588765Y-99191123D01*
X136654731Y-99274415D01*
X136669982Y-99309310D01*
X136695479Y-99441443D01*
X136685381Y-99581725D01*
X136640607Y-99702261D01*
X136606966Y-99752388D01*
X136558764Y-99803152D01*
X136497449Y-99839362D01*
X136413976Y-99863393D01*
X136299303Y-99877618D01*
X136144387Y-99884412D01*
X135940186Y-99886149D01*
X135834659Y-99885809D01*
X135690459Y-99884101D01*
X135575380Y-99881201D01*
X135499178Y-99877384D01*
X135471609Y-99872925D01*
X135480728Y-99843909D01*
X135505491Y-99785339D01*
X135506293Y-99783581D01*
X135522215Y-99753167D01*
X135544062Y-99732712D01*
X135582328Y-99720240D01*
X135647505Y-99713777D01*
X135750087Y-99711348D01*
X135900567Y-99710977D01*
X135996026Y-99710229D01*
X136175429Y-99702256D01*
X136306837Y-99683998D01*
X136397141Y-99653526D01*
X136453233Y-99608912D01*
X136482006Y-99548226D01*
X136484011Y-99539807D01*
X136485577Y-99426139D01*
X136434652Y-99337492D01*
X136332555Y-99276265D01*
X136303039Y-99265346D01*
X136237717Y-99240458D01*
X136207700Y-99227854D01*
X136211836Y-99201969D01*
X136234283Y-99145439D01*
X136271353Y-99092715D01*
X136341413Y-99068678D01*
X136391594Y-99075847D01*
X136455545Y-102251086D02*
X136237339Y-102251457D01*
X136237339Y-102251457D02*
X136069481Y-102252892D01*
X136069481Y-102252892D02*
X135943930Y-102255998D01*
X135943930Y-102255998D02*
X135852645Y-102261378D01*
X135852645Y-102261378D02*
X135787585Y-102269638D01*
X135787585Y-102269638D02*
X135740709Y-102281384D01*
X135740709Y-102281384D02*
X135703976Y-102297219D01*
X135703976Y-102297219D02*
X135683009Y-102309210D01*
X135683009Y-102309210D02*
X135569306Y-102408510D01*
X135569306Y-102408510D02*
X135498035Y-102534412D01*
X135498035Y-102534412D02*
X135472462Y-102673709D01*
X135472462Y-102673709D02*
X135495850Y-102813195D01*
X135495850Y-102813195D02*
X135537881Y-102896257D01*
X135537881Y-102896257D02*
X135610589Y-102983455D01*
X135610589Y-102983455D02*
X135699388Y-103042883D01*
X135699388Y-103042883D02*
X135815680Y-103078739D01*
X135815680Y-103078739D02*
X135970865Y-103095219D01*
X135970865Y-103095219D02*
X136084713Y-103097553D01*
X136084713Y-103097553D02*
X136092894Y-103097239D01*
X136092894Y-103097239D02*
X136092894Y-102893276D01*
X136092894Y-102893276D02*
X135962343Y-102892030D01*
X135962343Y-102892030D02*
X135875920Y-102886322D01*
X135875920Y-102886322D02*
X135819382Y-102873196D01*
X135819382Y-102873196D02*
X135778486Y-102849694D01*
X135778486Y-102849694D02*
X135747638Y-102821614D01*
X135747638Y-102821614D02*
X135688095Y-102727312D01*
X135688095Y-102727312D02*
X135683008Y-102626060D01*
X135683008Y-102626060D02*
X135732721Y-102530364D01*
X135732721Y-102530364D02*
X135739457Y-102522916D01*
X135739457Y-102522916D02*
X135774498Y-102491126D01*
X135774498Y-102491126D02*
X135816189Y-102471192D01*
X135816189Y-102471192D02*
X135878238Y-102460400D01*
X135878238Y-102460400D02*
X135974356Y-102456035D01*
X135974356Y-102456035D02*
X136080621Y-102455345D01*
X136080621Y-102455345D02*
X136214120Y-102456841D01*
X136214120Y-102456841D02*
X136303178Y-102463036D01*
X136303178Y-102463036D02*
X136361707Y-102476486D01*
X136361707Y-102476486D02*
X136403618Y-102499749D01*
X136403618Y-102499749D02*
X136425877Y-102518825D01*
X136425877Y-102518825D02*
X136482015Y-102607437D01*
X136482015Y-102607437D02*
X136488765Y-102709492D01*
X136488765Y-102709492D02*
X136445886Y-102806905D01*
X136445886Y-102806905D02*
X136429968Y-102825704D01*
X136429968Y-102825704D02*
X136394618Y-102857707D01*
X136394618Y-102857707D02*
X136352498Y-102877682D01*
X136352498Y-102877682D02*
X136289749Y-102888407D01*
X136289749Y-102888407D02*
X136192513Y-102892661D01*
X136192513Y-102892661D02*
X136092894Y-102893276D01*
X136092894Y-102893276D02*
X136092894Y-103097239D01*
X136092894Y-103097239D02*
X136268053Y-103090496D01*
X136268053Y-103090496D02*
X136405805Y-103066528D01*
X136405805Y-103066528D02*
X136509368Y-103021452D01*
X136509368Y-103021452D02*
X136590144Y-102951072D01*
X136590144Y-102951072D02*
X136631545Y-102896257D01*
X136631545Y-102896257D02*
X136676272Y-102796624D01*
X136676272Y-102796624D02*
X136697033Y-102681145D01*
X136697033Y-102681145D02*
X136691475Y-102573801D01*
X136691475Y-102573801D02*
X136669057Y-102513736D01*
X136669057Y-102513736D02*
X136662677Y-102490165D01*
X136662677Y-102490165D02*
X136686465Y-102474523D01*
X136686465Y-102474523D02*
X136750212Y-102463605D01*
X136750212Y-102463605D02*
X136847313Y-102455345D01*
X136847313Y-102455345D02*
X136955459Y-102446301D01*
X136955459Y-102446301D02*
X137020525Y-102433739D01*
X137020525Y-102433739D02*
X137057732Y-102410881D01*
X137057732Y-102410881D02*
X137082301Y-102370949D01*
X137082301Y-102370949D02*
X137093181Y-102345862D01*
X137093181Y-102345862D02*
X137132928Y-102250977D01*
X137132928Y-102250977D02*
X136455545Y-102251086D01*
X136455545Y-102251086D02*
X136455545Y-102251086D01*
G36*
X136084713Y-103097553D02*
G01*
X135970865Y-103095219D01*
X135815680Y-103078739D01*
X135699388Y-103042883D01*
X135610589Y-102983455D01*
X135537881Y-102896257D01*
X135495850Y-102813195D01*
X135472462Y-102673709D01*
X135481210Y-102626060D01*
X135683008Y-102626060D01*
X135688095Y-102727312D01*
X135747638Y-102821614D01*
X135778486Y-102849694D01*
X135819382Y-102873196D01*
X135875920Y-102886322D01*
X135962343Y-102892030D01*
X136092894Y-102893276D01*
X136192513Y-102892661D01*
X136289749Y-102888407D01*
X136352498Y-102877682D01*
X136394618Y-102857707D01*
X136429968Y-102825704D01*
X136445886Y-102806905D01*
X136488765Y-102709492D01*
X136482015Y-102607437D01*
X136425877Y-102518825D01*
X136403618Y-102499749D01*
X136361707Y-102476486D01*
X136303178Y-102463036D01*
X136214120Y-102456841D01*
X136080621Y-102455345D01*
X135974356Y-102456035D01*
X135878238Y-102460400D01*
X135816189Y-102471192D01*
X135774498Y-102491126D01*
X135739457Y-102522916D01*
X135732721Y-102530364D01*
X135683008Y-102626060D01*
X135481210Y-102626060D01*
X135498035Y-102534412D01*
X135569306Y-102408510D01*
X135683009Y-102309210D01*
X135703976Y-102297219D01*
X135740709Y-102281384D01*
X135787585Y-102269638D01*
X135852645Y-102261378D01*
X135943930Y-102255998D01*
X136069481Y-102252892D01*
X136237339Y-102251457D01*
X136455545Y-102251086D01*
X137132928Y-102250977D01*
X137093181Y-102345862D01*
X137082301Y-102370949D01*
X137057732Y-102410881D01*
X137020525Y-102433739D01*
X136955459Y-102446301D01*
X136847313Y-102455345D01*
X136750212Y-102463605D01*
X136686465Y-102474523D01*
X136662677Y-102490165D01*
X136669057Y-102513736D01*
X136691475Y-102573801D01*
X136697033Y-102681145D01*
X136676272Y-102796624D01*
X136631545Y-102896257D01*
X136590144Y-102951072D01*
X136509368Y-103021452D01*
X136405805Y-103066528D01*
X136268053Y-103090496D01*
X136092894Y-103097239D01*
X136084713Y-103097553D01*
G37*
X136084713Y-103097553D02*
X135970865Y-103095219D01*
X135815680Y-103078739D01*
X135699388Y-103042883D01*
X135610589Y-102983455D01*
X135537881Y-102896257D01*
X135495850Y-102813195D01*
X135472462Y-102673709D01*
X135481210Y-102626060D01*
X135683008Y-102626060D01*
X135688095Y-102727312D01*
X135747638Y-102821614D01*
X135778486Y-102849694D01*
X135819382Y-102873196D01*
X135875920Y-102886322D01*
X135962343Y-102892030D01*
X136092894Y-102893276D01*
X136192513Y-102892661D01*
X136289749Y-102888407D01*
X136352498Y-102877682D01*
X136394618Y-102857707D01*
X136429968Y-102825704D01*
X136445886Y-102806905D01*
X136488765Y-102709492D01*
X136482015Y-102607437D01*
X136425877Y-102518825D01*
X136403618Y-102499749D01*
X136361707Y-102476486D01*
X136303178Y-102463036D01*
X136214120Y-102456841D01*
X136080621Y-102455345D01*
X135974356Y-102456035D01*
X135878238Y-102460400D01*
X135816189Y-102471192D01*
X135774498Y-102491126D01*
X135739457Y-102522916D01*
X135732721Y-102530364D01*
X135683008Y-102626060D01*
X135481210Y-102626060D01*
X135498035Y-102534412D01*
X135569306Y-102408510D01*
X135683009Y-102309210D01*
X135703976Y-102297219D01*
X135740709Y-102281384D01*
X135787585Y-102269638D01*
X135852645Y-102261378D01*
X135943930Y-102255998D01*
X136069481Y-102252892D01*
X136237339Y-102251457D01*
X136455545Y-102251086D01*
X137132928Y-102250977D01*
X137093181Y-102345862D01*
X137082301Y-102370949D01*
X137057732Y-102410881D01*
X137020525Y-102433739D01*
X136955459Y-102446301D01*
X136847313Y-102455345D01*
X136750212Y-102463605D01*
X136686465Y-102474523D01*
X136662677Y-102490165D01*
X136669057Y-102513736D01*
X136691475Y-102573801D01*
X136697033Y-102681145D01*
X136676272Y-102796624D01*
X136631545Y-102896257D01*
X136590144Y-102951072D01*
X136509368Y-103021452D01*
X136405805Y-103066528D01*
X136268053Y-103090496D01*
X136092894Y-103097239D01*
X136084713Y-103097553D01*
%TD*%
%LPC*%
D10*
X163076711Y-113871639D02*
X192166711Y-108741639D01*
X192166711Y-108741639D02*
X192166711Y-109851639D01*
X192166711Y-109851639D02*
X163076711Y-114791639D01*
X163076711Y-114791639D02*
X163076711Y-113871639D01*
G36*
X192166711Y-109851639D02*
G01*
X163076711Y-114791639D01*
X163076711Y-113871639D01*
X192166711Y-108741639D01*
X192166711Y-109851639D01*
G37*
X192166711Y-109851639D02*
X163076711Y-114791639D01*
X163076711Y-113871639D01*
X192166711Y-108741639D01*
X192166711Y-109851639D01*
X163070000Y-95340000D02*
X192160000Y-100470000D01*
X192160000Y-100470000D02*
X192160000Y-99360000D01*
X192160000Y-99360000D02*
X163070000Y-94420000D01*
X163070000Y-94420000D02*
X163070000Y-95340000D01*
G36*
X192160000Y-99360000D02*
G01*
X192160000Y-100470000D01*
X163070000Y-95340000D01*
X163070000Y-94420000D01*
X192160000Y-99360000D01*
G37*
X192160000Y-99360000D02*
X192160000Y-100470000D01*
X163070000Y-95340000D01*
X163070000Y-94420000D01*
X192160000Y-99360000D01*
D12*
%TO.C,J2*%
X119350000Y-101025000D03*
D13*
X119350000Y-98485000D03*
%TD*%
D14*
%TO.C,J3*%
X189790000Y-108880000D03*
X189790000Y-100360000D03*
%TD*%
D15*
%TO.C,J1*%
X101010000Y-100920000D03*
D16*
X98010000Y-105620000D03*
D15*
X95010000Y-100920000D03*
%TD*%
M02*
